<?xml version="1.0" standalone="no"?>
<!DOCTYPE svg PUBLIC "-//W3C//DTD SVG 20010904//EN"
 "http://www.w3.org/TR/2001/REC-SVG-20010904/DTD/svg10.dtd">
<svg version="1.0" xmlns="http://www.w3.org/2000/svg"
 width="128.000000pt" height="128.000000pt" viewBox="0 0 128.000000 128.000000"
 preserveAspectRatio="xMidYMid meet">
<metadata>
Created by potrace 1.14, written by Peter Selinger 2001-2017
</metadata>
<g transform="translate(0.000000,128.000000) scale(0.100000,-0.100000)"
fill="#000000" stroke="none">
<path d="M117 836 c-73 -27 -105 -73 -113 -165 -17 -175 96 -271 275 -235 30
6 31 7 31 65 l0 59 -67 -6 c-87 -8 -115 10 -119 77 -4 93 39 120 155 94 l31
-7 0 56 c0 30 -5 58 -11 62 -24 14 -144 14 -182 0z"/>
<path d="M407 842 c-15 -3 -17 -24 -17 -203 0 -152 3 -199 13 -200 6 0 33 -1
58 -2 l45 -2 -1 60 c0 33 1 66 3 73 8 24 31 12 48 -25 10 -21 28 -54 40 -73
21 -34 23 -35 78 -34 32 1 60 4 62 7 2 2 -18 44 -45 93 l-49 89 23 25 c12 14
30 40 39 57 19 39 28 133 12 134 -6 0 -33 1 -60 2 -50 0 -50 0 -53 -34 -6 -57
-22 -95 -46 -107 -48 -24 -50 -22 -51 62 l-1 80 -41 0 c-22 1 -48 0 -57 -2z"/>
<path d="M810 840 c-11 -7 -11 -400 1 -401 5 0 30 -1 57 -2 l47 -1 0 107 c0
59 2 107 6 107 3 0 20 -47 39 -105 19 -58 38 -105 42 -106 4 0 22 -1 38 -1 17
0 34 1 39 1 5 1 24 45 41 99 18 53 36 101 40 105 3 4 6 -38 6 -94 -2 -113 0
-115 69 -114 l40 1 0 204 0 204 -79 -1 c-51 0 -81 -5 -86 -13 -4 -7 -20 -52
-36 -101 -15 -49 -31 -89 -34 -89 -3 0 -18 43 -35 96 -16 52 -33 98 -38 101
-11 7 -146 10 -157 3z"/>
</g>
</svg>
