<svg width="100%" height="100%" viewBox="0 0 301 75" fill="none" xmlns="http://www.w3.org/2000/svg" preserveAspectRatio="none">
<path d="M298.692 19.0748C298.753 11.2287 289.963 4.97346 279.649 5.6042C279.595 5.60768 279.543 5.61116 279.493 5.61464C268.235 6.40655 256.876 6.68829 245.586 6.68829C232.153 6.68829 170.202 7.43962 160.909 7.42223C153.259 7.40716 118.691 8.87039 111.041 8.84836C101.281 8.82054 59.086 10.0519 49.3419 9.62172C44.739 9.41882 35.6602 9.2704 24.9023 9.19156C15.0557 9.11968 7.02131 15.1535 7.02131 22.6192V57.0296C7.02131 64.3585 14.7713 70.3332 24.4343 70.4561L280.649 73.7176C290.559 73.844 298.678 67.7777 298.657 60.2621C298.623 48.3058 298.6 31.0392 298.692 19.0748Z" fill="#EF8D2B"/>
<path d="M290.937 31.7904C291.194 36.4213 291.555 40.6985 292.069 44.3856C291.674 49.3666 291.607 53.7343 291.719 57.8063C291.736 58.3153 291.752 58.8197 291.768 59.3194C291.786 59.7507 291.803 60.1797 291.821 60.6052C291.84 61.2163 291.785 61.8192 291.645 62.4093C291.367 63.5885 290.777 64.7317 289.876 65.7683C288.98 66.8048 287.76 67.722 286.276 68.4107C285.536 68.755 284.729 69.0437 283.868 69.2594C283.005 69.4739 282.085 69.6096 281.123 69.6606C281.002 69.6664 280.881 69.6733 280.761 69.6791C280.591 69.6814 280.421 69.6849 280.251 69.6872C279.906 69.6919 279.557 69.6965 279.207 69.7012C278.506 69.7081 277.798 69.7139 277.083 69.7209C275.65 69.7301 274.183 69.7313 272.674 69.7209C269.659 69.7023 266.479 69.6443 263.085 69.5307C238.932 69.2559 221.802 69.6409 198.626 68.7574C191.018 71.2931 153.504 67.7359 136.256 69.2281C124.701 69.4009 118.416 70.3458 127.214 70.8942C111.252 70.7945 115.379 69.7128 102.034 69.998L106.549 69.1655C102.162 68.8919 97.3147 68.3689 91.548 68.4559L85.0291 69.2768C69.1911 68.0698 60.1505 69.7359 42.9439 68.8907C54.1499 69.6988 37.7951 69.3498 39.0292 70.0965C36.4188 69.7104 26.0325 69.3997 29.5925 69.1748C28.6811 69.1458 27.7758 69.1249 26.8751 69.1087C25.9836 69.0971 25.0966 69.0866 24.2173 69.0751C22.6178 69.0519 21.0473 68.8652 19.5579 68.5255C16.5759 67.8518 13.935 66.5532 12.0113 64.9184C11.8905 64.8164 11.7773 64.7109 11.6611 64.6077C11.5449 64.5045 11.4286 64.4001 11.3247 64.2911C11.2161 64.1833 11.109 64.0766 11.002 63.97C10.9011 63.8598 10.8017 63.7497 10.7023 63.6395L10.5539 63.4749L10.4163 63.3056C10.3261 63.1931 10.2359 63.0807 10.1456 62.9693C10.0631 62.8546 9.98049 62.7398 9.89945 62.6262C9.8184 62.5125 9.73582 62.3989 9.66701 62.2818C9.07674 61.3565 8.66385 60.407 8.45435 59.4771C8.35343 59.0121 8.28461 58.5541 8.27085 58.1078C8.26626 57.884 8.25403 57.6648 8.27544 57.4469C8.29073 57.2289 8.30296 57.0237 8.33355 56.7906C8.44212 55.8885 8.5981 55.0398 8.81219 54.2537L8.28002 50.2026C7.55212 43.2806 8.46353 37.7778 8.71737 31.4136L8.05829 30.5324C7.87326 28.4315 7.79527 25.4424 7.84879 22.5356C7.88549 21.1443 8.25709 19.7831 8.85653 18.6364C9.14249 18.059 9.50644 17.5418 9.85969 17.0804C10.0508 16.8554 10.2206 16.6351 10.4178 16.4427C10.5127 16.3453 10.6044 16.2514 10.6946 16.1598C10.7864 16.0693 10.8843 15.987 10.9745 15.9047C11.918 14.8438 13.1031 13.8664 14.4702 13.0084C15.8465 12.1596 17.4216 11.4443 19.145 10.9283C20.0075 10.6744 20.9051 10.4692 21.8272 10.3173C22.7493 10.1654 23.6974 10.0691 24.6578 10.039C26.7008 9.9845 28.7606 9.93001 30.825 9.87552C34.9646 9.76189 39.1194 9.63319 43.1871 9.54159C45.2209 9.49637 47.2333 9.45927 49.2137 9.45579C49.7061 9.44884 50.1969 9.44188 50.6847 9.43492C51.171 9.42913 51.6558 9.42217 52.139 9.40362C53.1055 9.36999 54.0582 9.34912 55.0001 9.30854C55.936 9.33985 56.7878 9.3642 57.5661 9.38159C58.3445 9.39666 59.0495 9.40014 59.6902 9.4013C60.9732 9.4013 61.9993 9.37927 62.8541 9.33405C64.5607 9.24593 65.5715 9.0952 66.5364 8.91317C68.4663 8.54794 70.208 8.08648 76.9686 7.79545C85.5658 7.95198 100.454 6.91542 105.73 7.55081C99.743 7.68298 96.3589 8.11894 92.8861 8.50156C89.4148 8.8865 85.8594 9.2297 79.5545 9.20767C81.9706 9.39086 76.649 9.62391 72.1287 9.85117C67.6084 10.0784 63.8848 10.3068 69.5153 10.5573C75.5694 10.177 81.9829 9.89987 88.5493 9.68653C95.1141 9.47666 101.835 9.31086 108.484 9.22274C109.314 9.21231 110.143 9.21115 110.97 9.20535C111.804 9.19607 112.64 9.19608 113.468 9.17405C115.125 9.14274 116.771 9.09288 118.407 9.04187C121.678 8.93752 124.904 8.80766 128.061 8.66388C134.373 8.37402 140.404 8.01459 145.943 7.55081C145.549 7.9056 147.079 8.07372 149.748 8.12822C151.083 8.15372 152.701 8.15488 154.505 8.13401C156.307 8.1201 158.304 8.07604 160.364 8.06676C164.532 8.06329 169.06 7.97749 173.151 7.88473C177.243 7.79197 180.901 7.6853 183.341 7.61574L183.973 7.97517C192.37 8.08416 198.581 8.10271 211.904 7.5137C219.877 7.38384 227.797 7.22384 235.406 7.19253C239.212 7.17514 242.934 7.19485 246.551 7.27717C250.173 7.35834 253.689 7.45573 257.07 7.58327C262.052 7.73516 267.278 7.65284 272.428 7.36645C273.072 7.33283 273.714 7.29225 274.355 7.25051C274.995 7.20993 275.635 7.16587 276.271 7.11601C276.907 7.06731 277.542 7.01978 278.173 6.96412C278.488 6.93629 278.803 6.90963 279.117 6.8818L279.588 6.84006L279.8 6.82151L280.013 6.80759C282.279 6.63368 284.547 6.81339 286.639 7.29805C288.734 7.77806 290.642 8.56069 292.251 9.51493C293.864 10.4668 295.19 11.5822 296.196 12.7347C296.319 12.8797 296.453 13.0188 296.565 13.1661C296.68 13.3121 296.793 13.4571 296.904 13.5997C297.014 13.7435 297.111 13.8907 297.213 14.0345C297.264 14.1064 297.314 14.1783 297.365 14.249C297.41 14.322 297.455 14.3939 297.499 14.4658C297.588 14.6107 297.677 14.7534 297.764 14.8936C297.842 15.0374 297.918 15.18 297.995 15.3192C298.033 15.3899 298.071 15.4595 298.109 15.529C298.143 15.5998 298.175 15.6693 298.207 15.7389C298.273 15.878 298.337 16.016 298.401 16.1505C298.88 17.2415 299.126 18.241 299.278 19.0712C299.38 17.8862 299.272 16.685 298.955 15.5151C298.921 15.3679 298.869 15.2241 298.823 15.0792L298.68 14.6444L298.505 14.2165C298.447 14.0739 298.391 13.9301 298.319 13.7922C298.183 13.5116 298.048 13.231 297.885 12.9597C297.805 12.824 297.732 12.6849 297.644 12.5504L297.38 12.1504C296.667 11.086 295.748 10.1086 294.701 9.23086C293.655 8.34967 292.448 7.58791 291.15 6.94789C290.83 6.78209 290.491 6.64063 290.157 6.49222C289.992 6.4157 289.818 6.35309 289.647 6.28468L289.131 6.08525C288.433 5.84061 287.725 5.6122 286.995 5.43596C285.542 5.07305 284.041 4.84579 282.539 4.76811L281.976 4.7484C281.788 4.7426 281.602 4.73217 281.414 4.73681L280.852 4.74028L280.572 4.74376L280.293 4.75652L279.736 4.78318C279.643 4.78782 279.551 4.79246 279.456 4.79942L279.192 4.81913C278.844 4.84579 278.497 4.8713 278.152 4.89797C277.461 4.9513 276.771 5 276.084 5.04638C275.398 5.09508 274.714 5.13914 274.034 5.18204C268.585 5.52408 263.311 5.71307 258.28 5.67828C255.764 5.65973 253.308 5.58437 250.923 5.44407C249.73 5.37567 248.554 5.28639 247.398 5.1832C246.82 5.12986 246.245 5.07305 245.676 5.01276C245.104 4.95246 244.532 4.88869 243.968 4.82145C245.019 4.84116 246.009 4.85971 246.944 4.8771C247.875 4.89449 248.75 4.90145 249.579 4.9084C250.407 4.9142 251.187 4.9142 251.927 4.91304C252.668 4.90609 253.366 4.90029 254.03 4.89333C256.688 4.85275 258.795 4.75652 260.778 4.62318C262.76 4.48868 264.618 4.31128 266.774 4.08983C268.929 3.86489 271.382 3.59358 274.547 3.23647C272.293 3.21908 270.041 3.17734 267.79 3.12284C269.607 2.95472 271.42 2.77037 273.229 2.5779C271.813 2.41673 272.902 2.13614 274.226 1.83584C275.552 1.53555 277.11 1.20742 276.67 0.99292C270.12 1.41264 263.533 1.66888 256.922 1.79642C259.586 1.85208 261.145 1.91701 261.941 2.01324C262.736 2.10948 262.766 2.2289 262.367 2.36804C261.967 2.50485 261.136 2.65674 260.213 2.81095C259.288 2.96052 258.269 3.1182 257.492 3.25966C254.064 3.26777 250.635 3.2469 247.202 3.19357C248.401 3.30835 250.586 3.40227 251.538 3.5101C252.487 3.61677 252.204 3.75127 248.453 3.92055C247.415 3.90316 246.302 3.90084 245.116 3.91243C243.928 3.92635 242.691 3.94258 241.439 3.95765C238.941 3.98664 236.391 3.99243 234.073 3.84055L242.342 2.74602C235.978 3.19009 230.415 2.93965 224.839 2.68805C219.265 2.43644 213.691 2.18948 207.345 2.6637L203.461 1.62019L191.484 1.81845L192.828 1.42772L178.465 1.41496C170.707 1.66193 169.569 2.16745 168.207 2.55703C166.717 2.58254 165.243 2.60688 163.83 2.63123C162.4 2.6521 161.035 2.67181 159.781 2.69036C157.138 2.73674 155.112 2.78196 153.868 2.69616L155.622 2.4863C156.206 2.41673 156.79 2.34601 157.388 2.28108L159.183 2.08281L161.061 1.90425L159.324 1.86599C159.024 1.85903 158.758 1.85672 158.48 1.85324L157.649 1.84396C156.533 1.82773 155.461 1.82657 154.368 1.81845C156.606 1.87179 155.242 2.00281 153.144 2.16745C151.046 2.33209 148.214 2.53268 147.428 2.68573C140.213 2.84573 137.676 2.92341 135.797 2.9211C133.922 2.9211 132.71 2.84689 128.194 2.72051C125.874 2.90486 123.421 3.01617 121.045 3.08922C119.858 3.12516 118.691 3.14951 117.566 3.1727C116.453 3.18893 115.382 3.204 114.379 3.21792C113.414 3.22835 112.515 3.23763 111.704 3.2469C111.288 3.25386 110.894 3.26082 110.525 3.26661C110.126 3.27473 109.755 3.28633 109.415 3.3014C108.729 3.32923 108.204 3.38024 107.814 3.44633C107.426 3.51242 107.187 3.59822 107.121 3.70721C102.797 3.63648 98.4677 3.62952 94.1094 3.64228C89.7558 3.65735 85.3869 3.69909 81.0516 3.75011C76.724 3.8046 72.4208 3.86026 68.1941 3.91359C63.9781 3.96693 59.8339 4.0133 55.8871 4.00983C55.3106 4.05388 54.7203 4.10374 54.1545 4.14316L51.6084 4.3194L50.8163 4.36346C50.2765 4.39245 49.8009 4.42955 49.125 4.44346C46.6094 4.26838 44.3523 4.16287 42.2069 4.08055C40.0644 3.99939 38.0551 3.94837 36.1252 3.91707C32.2671 3.8533 28.7361 3.86605 25.1838 3.90779L24.8015 3.91359L24.3412 3.92519C24.0354 3.93446 23.728 3.93794 23.4206 3.96113C23.1148 3.982 22.8074 4.00287 22.5001 4.02258C22.1942 4.05041 21.8868 4.08403 21.5795 4.1165C20.3546 4.26143 19.1297 4.4597 17.9247 4.7542C16.7197 5.04406 15.5269 5.40001 14.3617 5.83829C13.1995 6.28004 12.0648 6.79484 10.9684 7.38964C9.87192 7.98328 8.81677 8.65809 7.82585 9.41869C6.8334 10.1781 5.89906 11.0222 5.04882 11.9509C3.35141 13.8061 1.98278 16.0218 1.2457 18.5413C1.2717 18.2677 1.29464 17.9917 1.34357 17.7192C1.39098 17.4456 1.42615 17.1685 1.4919 16.8949C1.18148 17.8213 0.953626 18.7581 0.83282 19.6996C0.708954 20.6457 0.675312 21.586 0.744126 22.5159L0.748714 22.6029C0.750243 22.633 0.753301 22.6481 0.75483 22.6713L0.796119 23.0597L1.19218 26.6795C0.508629 38.0677 2.18157 42.5131 1.19371 55.7401C1.17995 56.1877 1.16619 56.6283 1.15395 57.0608C1.15701 57.346 1.1616 57.6289 1.16466 57.9095C1.18148 58.1901 1.20594 58.4683 1.23041 58.7443C1.35275 59.8469 1.61271 60.9044 1.97819 61.9015C2.34367 62.8986 2.81313 63.8355 3.36059 64.7039C3.91416 65.57 4.54113 66.3677 5.21551 67.0993C6.56885 68.5603 8.12099 69.7371 9.70677 70.6751C11.3033 71.605 12.9303 72.303 14.5161 72.8004C16.1019 73.2978 17.6372 73.6062 19.0746 73.779C20.5136 73.9494 21.8563 73.9911 23.0903 73.9355C23.3992 73.9239 23.7005 73.8984 23.9956 73.8775C24.069 73.8717 24.1424 73.8659 24.2158 73.8601C24.2877 73.8543 24.3672 73.8485 24.4177 73.8416C24.5339 73.8265 24.6486 73.8126 24.7617 73.7987C25.2174 73.7407 25.6579 73.6804 26.086 73.619C26.9409 73.4961 27.7437 73.3662 28.5098 73.2329C37.63 72.7981 49.0699 73.7314 57.2496 73.9053L51.9035 74.2416L58.6993 74.7761C70.4711 74.7262 71.0935 75.0996 86.439 74.8271C107.424 75.5738 104.279 73.7082 113.217 73.1482L133.258 74.5048L132.823 74.2555C144.714 73.0995 141.958 73.8207 170.108 74.1199L168.841 73.3743C178.289 74.2949 182.389 73.2132 194.57 73.4126C200.534 73.4497 218.796 74.9187 229.312 74.1233C250.713 75.1181 261.126 73.0903 279.49 73.452C279.834 73.4717 280.175 73.4914 280.514 73.5111C280.851 73.5274 281.18 73.5332 281.508 73.5436C281.836 73.5436 282.161 73.5355 282.484 73.5274C282.805 73.5065 283.123 73.4903 283.437 73.4624C284.691 73.3453 285.871 73.1123 286.946 72.8027C288.023 72.4931 288.994 72.1082 289.855 71.6908C290.714 71.2699 291.463 70.8142 292.119 70.3644C293.436 69.4635 294.352 68.5695 295.1 67.8785C295.294 67.7081 295.459 67.5399 295.63 67.3927C295.805 67.2454 295.961 67.1075 296.115 66.9857C296.433 66.7457 296.722 66.5579 297.025 66.4466L296.797 66.7886C296.722 66.9034 296.632 67.0112 296.551 67.1237C296.467 67.2338 296.386 67.3463 296.299 67.4565L296.027 67.7799C297.23 67.1167 298.377 66.3121 299.389 65.3683C299.091 65.1387 298.788 64.9172 298.482 64.7027C298.804 64.0929 299.082 63.4262 299.268 62.7178C299.461 62.0105 299.593 61.2638 299.619 60.4985C299.663 59.0423 299.709 57.5269 299.755 56.0346C299.866 53.0583 300.079 50.1713 300.706 48.017L298.637 36.3297C298.83 39.197 298.7 42.3704 298.571 45.5601L298.892 45.2378C298.924 48.2756 299.163 55.6601 298.713 59.1698L298.345 54.9552C298.071 59.8006 297.542 55.7587 297.366 54.401C297.914 44.6824 296.805 47.3306 296.566 39.9112C296.71 38.2405 296.842 35.0624 297.176 36.2392C296.969 31.8669 297.822 20.3245 296.683 19.9361C296.738 19.557 296.787 19.4132 296.842 19.0712C294.838 20.5263 292.827 25.4528 290.936 31.7962L290.937 31.7904Z" fill="#EF8D2B"/>
<path d="M260.129 40.6896C259.988 40.6693 259.845 40.6486 259.705 40.63C257.099 40.3405 254.494 40.4372 251.599 40.2443C249.572 40.0514 247.256 40.1477 245.23 40.1477C250.033 40.3254 255.08 40.2581 259.694 40.9264C259.228 41.1542 258.671 41.3359 258.022 41.3359C256.46 41.2461 254.919 41.1831 253.39 41.14V40.7569C249.048 41.0464 244.995 40.2745 240.652 40.7569C240.807 40.8082 240.715 40.8872 240.683 40.9493C244.955 40.8552 248.949 40.9484 253.215 41.1357C246.591 40.9549 240.205 41.143 233.415 41.143H232.257C231.1 40.8535 229.941 40.7569 228.784 40.7569C229.073 40.2745 227.915 39.3094 230.231 39.5022V39.1165C227.915 38.6341 227.046 37.2828 229.363 36.8971C231.968 36.5114 235.442 36.8971 238.626 36.7043C240.942 36.6076 243.258 36.5114 245.574 36.7043C248.758 36.9938 252.232 36.8971 255.416 37.2833C256.574 37.3799 258.601 37.0904 259.18 37.3799C259.596 37.5184 259.612 37.7242 259.549 37.9533C257.645 37.9192 255.748 37.9089 253.871 37.8666C251.57 37.7583 249.268 37.6384 246.967 37.4464C249.217 37.7113 251.527 37.814 253.871 37.8666C255.743 37.9546 257.617 38.0349 259.489 38.138C259.421 38.3347 259.355 38.5405 259.469 38.7308H260.337C261.496 39.2131 261.206 39.8888 260.627 40.3712C260.48 40.4691 260.314 40.5791 260.129 40.6896Z" fill="white"/>
<path d="M253.536 49.6815C253.739 49.5939 253.943 49.5059 254.144 49.4191C254.379 49.3156 254.597 49.2043 254.821 49.0938L255.155 48.9264L255.471 48.753L255.63 48.6658L255.709 48.6218C255.735 48.6072 255.758 48.5921 255.783 48.577L256.076 48.3966C256.1 48.3815 256.125 48.3668 256.149 48.3513L256.216 48.3047L256.35 48.2115C256.442 48.1515 256.527 48.0829 256.614 48.0156C256.697 47.9539 256.797 47.8664 256.891 47.7887C257 47.6972 257.109 47.6058 257.217 47.5143C257.34 47.4172 257.465 47.318 257.59 47.2222C257.718 47.132 257.847 47.0419 257.975 46.9517C258.102 46.8667 258.228 46.7903 258.355 46.7092L258.546 46.5897L258.733 46.4823C258.857 46.4107 258.982 46.339 259.107 46.2674L259.201 46.2135L259.294 46.1639L259.48 46.0651C259.604 45.9991 259.729 45.933 259.853 45.867L260.04 45.7678L260.226 45.6742C260.475 45.5499 260.724 45.4248 260.975 45.2992C261.1 45.2354 261.225 45.1771 261.351 45.1167C261.477 45.0568 261.603 44.9968 261.729 44.9368C261.982 44.8173 262.234 44.6952 262.491 44.577C263.521 44.1015 264.568 43.6533 265.652 43.2127C267.18 42.6238 268.786 41.9361 270.385 41.2328C270.585 41.1448 270.785 41.0568 270.985 40.9688C271.087 40.923 271.189 40.8769 271.292 40.8311C271.492 40.741 271.69 40.6512 271.888 40.5624C272.28 40.3855 272.656 40.2155 273.031 40.0545C272.539 40.2418 272.079 40.4217 271.636 40.5969C271.419 40.6827 271.202 40.769 270.985 40.8553C270.547 41.04 270.107 41.2251 269.668 41.4106C267.858 42.1768 266.045 42.9547 264.234 43.743C264.008 43.8427 263.782 43.9419 263.555 44.0411L263.216 44.1904L262.876 44.3427C262.42 44.5438 261.972 44.753 261.522 44.9588C260.622 45.3726 259.727 45.7928 258.811 46.2821C258.696 46.3438 258.581 46.4059 258.466 46.4676C258.349 46.5375 258.232 46.607 258.114 46.6769L257.938 46.7817C257.879 46.8179 257.819 46.8602 257.759 46.8991L257.58 47.0186C257.52 47.0587 257.46 47.0979 257.402 47.1424L257.228 47.2727L257.097 47.3706L257.058 47.4017C256.957 47.4815 256.856 47.5618 256.756 47.6416L256.56 47.7947L256.501 47.8366L256.384 47.9203C256.345 47.9483 256.306 47.9764 256.266 48.001C255.638 48.4109 254.826 48.7966 254.018 49.1512C254.084 49.0843 254.151 49.0162 254.22 48.9458C254.287 48.8764 254.356 48.8069 254.427 48.7379C254.498 48.6684 254.571 48.5994 254.648 48.5308C254.686 48.4967 254.724 48.4626 254.763 48.4281C254.783 48.4113 254.802 48.394 254.822 48.3772C254.841 48.3604 254.859 48.3431 254.878 48.3259C254.952 48.2577 255.029 48.1899 255.109 48.1235C255.148 48.0903 255.189 48.0571 255.23 48.0243C255.271 47.9915 255.314 47.9587 255.35 47.9268C255.497 47.7986 255.671 47.6752 255.813 47.56C255.86 47.5268 255.909 47.497 255.955 47.4617L256.093 47.3564L256.127 47.3301C256.139 47.321 256.149 47.3137 256.164 47.3012L256.246 47.2334L256.416 47.0923L256.624 46.918L256.676 46.8745C256.694 46.8598 256.715 46.8434 256.735 46.8279L256.855 46.7338C256.936 46.6717 257.015 46.6074 257.097 46.5483L257.343 46.3761L257.466 46.2907C257.507 46.2622 257.548 46.2333 257.587 46.21L257.824 46.062L258.062 45.9149C258.081 45.9028 258.102 45.8899 258.12 45.8791L258.178 45.8472L258.291 45.7829C258.443 45.6975 258.595 45.612 258.746 45.527C258.823 45.4826 258.895 45.4477 258.969 45.4084L259.19 45.2932C259.337 45.2164 259.484 45.14 259.631 45.0637C259.777 44.9895 259.92 44.9209 260.065 44.8488C260.21 44.7776 260.354 44.7069 260.498 44.6357L260.714 44.5291L260.929 44.4273C261.501 44.1585 262.067 43.8854 262.643 43.6248C262.684 43.7128 262.764 43.8849 262.805 43.9712C264.873 42.8831 266.935 41.987 268.998 41.1288C269.514 40.9157 270.029 40.7039 270.545 40.4955L270.739 40.417L270.751 40.4122L270.757 40.4101H270.758L270.765 40.4075L270.778 40.4036L270.803 40.3954L270.909 40.3622L271.133 40.291C271.287 40.2414 271.451 40.1866 271.621 40.1275L271.881 40.0356L272.013 39.9877L272.079 39.9631L272.112 39.9506L272.12 39.9475C272.122 39.9467 272.127 39.9454 272.123 39.9441L272.111 39.9363C271.84 39.7676 271.51 39.5765 271.18 39.4043C271.098 39.3616 271.016 39.3198 270.936 39.2805C270.926 39.2753 270.916 39.2706 270.905 39.2654L270.889 39.2572L270.861 39.2413C270.795 39.2029 270.728 39.164 270.66 39.123C270.525 39.0419 270.391 38.9651 270.252 38.8784C270.121 38.7982 269.989 38.7179 269.857 38.6372C269.733 38.563 269.61 38.4884 269.486 38.4137C269.235 38.2688 268.985 38.1221 268.729 37.9836C268.905 38.1575 268.742 38.1462 268.668 38.1717C268.912 38.3236 269.152 38.4802 269.393 38.6351C269.643 38.7999 269.892 38.9638 270.141 39.1278L270.243 39.1947L270.543 39.3836L270.642 39.4453L270.73 39.4997C270.743 39.5088 270.757 39.5139 270.767 39.5204C270.813 39.5459 270.858 39.5713 270.903 39.5963C271.086 39.6982 271.271 39.8026 271.441 39.9005L271.449 39.9048C271.451 39.9057 271.45 39.9061 271.448 39.9066L271.444 39.9083L271.426 39.9152L271.391 39.9294L271.321 39.9575L271.18 40.0123C271.087 40.0485 270.995 40.083 270.905 40.1154L270.774 40.1624L270.71 40.1844L270.679 40.1952L270.667 40.1991L270.644 40.209L270.55 40.2487C270.047 40.4605 269.544 40.6724 269.04 40.8846C268.031 41.3109 267.019 41.7385 265.999 42.1695C264.978 42.604 263.95 43.0419 262.904 43.5031C264.956 42.5768 266.973 41.7014 268.987 40.8212C269.49 40.602 269.992 40.3833 270.494 40.1646L270.789 40.0381L270.965 39.9609L271.05 39.9225L271.092 39.9035L271.113 39.894L271.123 39.8893C271.123 39.8893 271.129 39.888 271.126 39.8867L271.121 39.8837L270.876 39.7555L270.759 39.6934L270.702 39.6628L270.674 39.6477C270.669 39.6451 270.666 39.6425 270.66 39.6399C270.657 39.6386 270.653 39.6369 270.651 39.6347L270.646 39.6317L270.616 39.6127C270.53 39.5605 270.441 39.504 270.353 39.4484L270.222 39.3647L270.156 39.3228L270.088 39.2784L269.817 39.1002L269.581 38.9427C269.272 38.7352 268.959 38.532 268.645 38.33C268.017 37.9266 267.378 37.5349 266.73 37.153C265.435 36.3889 264.103 35.6628 262.738 34.9613C262.568 34.8741 262.396 34.7865 262.225 34.6994C262.053 34.6131 261.881 34.5264 261.709 34.4397C261.356 34.2649 261.004 34.0898 260.65 33.9142C259.925 33.5513 259.213 33.1816 258.506 32.8148C258.094 32.6004 257.277 32.1784 256.873 31.9757C256.126 31.4372 255.36 30.9579 254.575 30.5476C254.381 30.4449 254.173 30.3418 253.977 30.2477C253.781 30.1541 253.59 30.0678 253.404 29.9901C253.219 29.9142 253.039 29.8477 252.864 29.7912C252.689 29.7364 252.52 29.6933 252.354 29.6592C252.46 29.5582 252.472 29.4072 252.462 29.2459C252.453 29.0854 252.421 28.9184 252.469 28.7859C252.494 28.7208 252.54 28.6613 252.621 28.6233C252.662 28.6039 252.712 28.5883 252.772 28.5776C252.833 28.5681 252.904 28.5655 252.988 28.5681C253.156 28.5776 253.373 28.6147 253.652 28.704C253.93 28.7928 254.268 28.9339 254.68 29.1367C254.717 29.0478 254.792 28.8701 254.829 28.7812C254.426 28.5435 254.059 28.3148 253.716 28.1112C253.374 27.9062 253.057 27.7233 252.768 27.5649C252.193 27.247 251.735 27.0196 251.53 26.7948C251.442 26.6839 251.413 26.573 251.446 26.4665C251.455 26.4397 251.467 26.4134 251.484 26.3871C251.492 26.3741 251.501 26.3612 251.511 26.3483C251.516 26.3418 251.522 26.3353 251.528 26.3288C251.535 26.3224 251.542 26.3163 251.55 26.3099C251.612 26.2598 251.696 26.2119 251.805 26.167C252.02 26.0825 252.337 26.0104 252.747 26.0009C253.158 25.988 253.66 26.0402 254.214 26.1692C254.831 26.3215 255.411 26.5269 255.949 26.7305C256.506 26.9428 257.069 27.1831 257.631 27.4424C258.758 27.961 259.885 28.5568 261.01 29.154C261.573 29.4525 262.135 29.7515 262.698 30.0402C262.989 30.1886 263.281 30.3374 263.573 30.4867C263.869 30.6399 264.167 30.793 264.464 30.9462C265.058 31.2538 265.652 31.5645 266.243 31.8768C266.835 32.1901 267.423 32.502 268.006 32.8101C268.784 33.2342 269.557 33.6738 270.32 34.1333C270.511 34.2472 270.701 34.3642 270.89 34.4819C271.08 34.5984 271.269 34.7179 271.457 34.8383C271.645 34.9574 271.832 35.0795 272.019 35.2029L272.294 35.3841L272.529 35.5364L272.776 35.6922L272.902 35.7707L273.093 35.8876L273.228 35.9717L273.366 36.0554L273.643 36.2211L274.2 36.5516L275.043 37.0413L275.895 37.5271L276.468 37.8494C278.005 38.7054 279.553 39.5717 281 40.4036C280.871 40.4584 280.729 40.5145 280.593 40.5701L280.181 40.7367L279.356 41.0676C278.133 41.5543 276.93 42.0362 275.751 42.5177C275.161 42.7584 274.575 42.9988 273.994 43.2404C273.42 43.4798 272.844 43.7201 272.266 43.9613C271.044 44.4562 269.814 44.9692 268.588 45.4852C267.368 46.0016 266.147 46.5177 264.94 47.0285C264.641 47.1553 264.344 47.2822 264.047 47.4082C263.751 47.532 263.457 47.6636 263.164 47.7896C263.017 47.8526 262.87 47.9155 262.723 47.9781C262.65 48.0092 262.576 48.0402 262.503 48.0713C262.431 48.1028 262.36 48.1347 262.288 48.1662C262.001 48.2909 261.715 48.4152 261.431 48.539C261.232 48.6352 261.017 48.7465 260.793 48.8682C260.765 48.8833 260.736 48.8988 260.709 48.9144C260.682 48.9303 260.655 48.9463 260.628 48.9622C260.574 48.9946 260.52 49.0274 260.465 49.0606C260.41 49.0938 260.354 49.1279 260.298 49.162C260.27 49.1793 260.242 49.1961 260.214 49.2133C260.186 49.2306 260.157 49.2479 260.132 49.2656C260.029 49.3363 259.925 49.4079 259.82 49.48C259.765 49.5158 259.721 49.5529 259.674 49.5891L259.533 49.6987C259.485 49.7341 259.442 49.7734 259.398 49.8118C259.354 49.8502 259.31 49.8881 259.266 49.9261C259.166 50.0193 259.067 50.1121 258.968 50.204C258.911 50.257 258.854 50.3101 258.797 50.3623C258.771 50.3873 258.735 50.4175 258.704 50.4447C258.671 50.4723 258.639 50.5004 258.607 50.5275C258.543 50.5823 258.48 50.6376 258.417 50.6893C258.351 50.7398 258.287 50.7899 258.223 50.839C258.158 50.8878 258.095 50.9357 258.033 50.9832C257.97 51.0293 257.91 51.0677 257.85 51.1091C257.73 51.1898 257.613 51.2662 257.501 51.3378C257.281 51.4703 257.08 51.5777 256.901 51.6661C256.856 51.6877 256.813 51.7084 256.772 51.727C256.731 51.7438 256.692 51.7593 256.654 51.7731C256.578 51.8007 256.509 51.8228 256.447 51.8374C256.108 51.953 255.91 51.9682 255.794 51.9233C255.677 51.8758 255.643 51.7714 255.634 51.6463L256.409 51.2105C256.495 51.1626 256.581 51.107 256.667 51.0556L256.925 50.8982C257.011 50.8447 257.097 50.7959 257.183 50.7359L257.442 50.5625C257.528 50.5038 257.614 50.4494 257.7 50.383C258.044 50.1375 258.384 49.8415 258.661 49.5965C258.727 49.5391 258.795 49.4778 258.861 49.423L259.054 49.2677C259.085 49.241 259.119 49.2168 259.153 49.1926L259.254 49.1197L259.355 49.0468C259.389 49.0222 259.422 48.9981 259.46 48.9748L259.679 48.8341L259.788 48.7638L259.842 48.7284L259.9 48.6943C260.055 48.6037 260.21 48.5131 260.365 48.4229C260.441 48.3768 260.525 48.3349 260.605 48.2909L261.089 48.0294L261.21 47.9643L261.335 47.9013C261.5 47.8172 261.666 47.7335 261.831 47.6493L262.079 47.5238L262.203 47.4612L262.329 47.4004C262.666 47.2386 263.002 47.0768 263.337 46.915C264.167 46.5397 265.008 46.1764 265.856 45.8196C266.279 45.6405 266.705 45.4653 267.13 45.2885L268.409 44.7664C269.264 44.4212 270.121 44.0804 270.98 43.746L271.625 43.4958L271.989 43.356L272.038 43.3366L272.427 43.1795L274.549 42.3313C273.832 42.6053 273.137 42.8758 272.454 43.1424C272.292 43.2058 272.129 43.2697 271.966 43.3336C271.86 43.3732 271.753 43.4125 271.646 43.4522C271.433 43.5325 271.219 43.6127 271.005 43.693C270.151 44.017 269.296 44.3531 268.441 44.6995C268.014 44.8721 267.587 45.0494 267.159 45.2272C266.733 45.4067 266.304 45.587 265.879 45.7717C265.026 46.1401 264.177 46.5189 263.338 46.9142L262.326 47.381C262.156 47.4578 261.993 47.5406 261.826 47.62L261.327 47.8612C261.159 47.9401 261.001 48.026 260.838 48.1088C260.677 48.1925 260.512 48.2745 260.354 48.3599L259.885 48.6201C259.805 48.6624 259.735 48.709 259.66 48.7539L259.439 48.8889C259.363 48.9329 259.297 48.9817 259.228 49.0283C259.16 49.0757 259.09 49.1214 259.022 49.1698L258.776 49.3587L258.725 49.401L258.623 49.4856L258.407 49.6664C258.332 49.7294 258.259 49.7923 258.175 49.8579C258.093 49.9226 258.012 49.9878 257.93 50.0512L257.677 50.2333L257.55 50.3239C257.507 50.3528 257.464 50.3791 257.422 50.4067L257.166 50.5707L257.038 50.6522C256.996 50.6785 256.953 50.7023 256.911 50.7273L256.655 50.8757L256.399 51.0237C256.314 51.0712 256.229 51.1156 256.144 51.1613L255.632 51.434C255.636 51.2053 255.628 50.9732 255.376 50.8994C255.376 50.8994 255.326 50.9297 255.242 50.9754C255.159 51.0207 255.043 51.0832 254.915 51.1531C254.658 51.2912 254.351 51.4621 254.144 51.5686C253.205 51.7839 252.769 51.6843 252.641 51.4254C252.513 51.1665 252.692 50.7489 252.988 50.3243C253.07 50.2277 253.156 50.125 253.248 50.0163C253.294 49.9628 253.341 49.9075 253.39 49.8515C253.437 49.7954 253.486 49.7376 253.537 49.6784L253.536 49.6815Z" fill="white"/>
</svg>
