<svg width="100%" height="100%" preserveAspectRatio="none" viewBox="0 0 75 74" fill="none" xmlns="http://www.w3.org/2000/svg">
<path d="M5.66588 41.5735L5.63912 41.3662L5.61728 41.1577L5.57304 40.7413C5.76527 42.0801 6.00774 43.4476 6.34469 44.8081C6.38674 44.978 6.42879 45.1484 6.47085 45.3189C6.51672 45.4883 6.56259 45.6582 6.60846 45.8281C6.6314 45.9128 6.65325 45.9986 6.67727 46.0833L6.75209 46.3368L6.90118 46.8444L7.06173 47.3488C7.08849 47.4329 7.11416 47.5176 7.14256 47.6012L7.22884 47.8515C7.28673 48.0181 7.34189 48.1859 7.40141 48.3526C7.46258 48.5181 7.52374 48.6837 7.58491 48.8493C7.19444 47.3509 6.88916 45.7787 6.66471 44.2016C6.43808 42.624 6.29063 41.0421 6.17922 39.5051C6.16666 39.313 6.15246 39.1213 6.13663 38.9308C6.12516 38.7397 6.11424 38.5497 6.10058 38.3607C6.09403 38.2663 6.08693 38.1718 6.08038 38.0779C6.07492 37.9834 6.07 37.8895 6.06454 37.7956C6.05198 37.6078 6.03942 37.4215 6.02686 37.2359C6.00884 36.8645 5.97662 36.4965 5.95696 36.1333C5.94603 35.9514 5.92856 35.7706 5.91764 35.5915C5.90671 35.4123 5.89361 35.2337 5.87832 35.0567C5.86084 34.8792 5.85101 34.7039 5.83572 34.5291C5.82152 34.3542 5.80295 34.1805 5.78602 34.0079C5.77128 33.8358 5.7549 33.6648 5.73524 33.4949C5.72486 33.4096 5.71448 33.3249 5.70465 33.2408C5.69537 33.1566 5.68609 33.0725 5.67735 32.9889C5.65769 32.8217 5.63584 32.6556 5.61072 32.4905C5.58669 32.3255 5.56649 32.1626 5.53973 32.0008C5.51461 31.8391 5.48403 31.6778 5.45617 31.5182C5.42942 31.3591 5.39938 31.2012 5.36661 31.0443C5.43269 31.0226 5.50041 30.9797 5.56867 30.9183C5.63694 30.857 5.70575 30.7777 5.77947 30.6838C5.8521 30.5893 5.92474 30.4802 5.99846 30.3581C6.07273 30.2365 6.14209 30.1013 6.22127 29.9585C6.37637 29.6724 6.52382 29.3456 6.68437 29.0057C6.7226 28.9205 6.76138 28.8342 6.80069 28.7468C6.81981 28.7033 6.83892 28.6594 6.85804 28.6154C6.87824 28.572 6.8979 28.528 6.91811 28.484C6.99784 28.3087 7.07539 28.1311 7.1502 27.9536C7.22721 27.7772 7.30639 27.6024 7.37902 27.4303C7.41507 27.344 7.45111 27.2587 7.48661 27.1746C7.5232 27.091 7.55979 27.0085 7.59528 26.927C7.66573 26.7647 7.73072 26.6067 7.79243 26.4574C7.85687 26.3092 7.91639 26.1681 7.96882 26.0372C8.07149 25.7745 8.16105 25.5557 8.21293 25.3939C8.26536 25.2321 8.28393 25.129 8.26099 25.1046C8.53077 23.9238 8.91468 22.7495 9.39471 21.5942C9.31116 21.7924 9.22323 21.9878 9.14514 22.1871C9.06759 22.3863 8.9895 22.585 8.91195 22.7837C8.84041 22.9846 8.76942 23.1849 8.69842 23.3847L8.646 23.5345L8.59794 23.686C8.56626 23.787 8.53404 23.8874 8.50237 23.9884C8.53404 23.8879 8.56626 23.787 8.59794 23.686L8.646 23.5345L8.69842 23.3847C8.76942 23.1849 8.84041 22.9846 8.91195 22.7837C8.9895 22.585 9.06705 22.3863 9.14514 22.1871C9.22323 21.9878 9.31116 21.7924 9.39471 21.5942C10.1571 19.7702 11.1816 17.9965 12.4371 16.3429C13.6915 14.6882 15.1764 13.154 16.8425 11.7946C18.5087 10.4341 20.3562 9.24902 22.3304 8.27943C24.304 7.30821 26.4011 6.54979 28.5626 6.01885C28.6374 5.99985 28.7139 5.98031 28.7925 5.95968C28.8717 5.94122 28.9525 5.92276 29.0355 5.90322C29.201 5.86467 29.3747 5.82396 29.5549 5.78215C29.7362 5.74415 29.924 5.70452 30.119 5.6638C30.3134 5.62037 30.516 5.584 30.7241 5.54546C31.5569 5.38965 32.4924 5.24578 33.4989 5.14372C34.5053 5.04274 35.5823 4.98248 36.6931 4.97977C37.8038 4.97651 38.9479 5.03189 40.0828 5.15078C41.2181 5.26858 42.3447 5.44936 43.426 5.68226C44.5073 5.91462 45.5428 6.19963 46.4995 6.51451C47.4563 6.82884 48.3339 7.17248 49.1072 7.51179C49.8805 7.85163 50.5457 8.1942 51.0901 8.4879C51.2469 8.5753 51.4036 8.66216 51.5598 8.74957C51.6379 8.79354 51.7171 8.83534 51.7941 8.8804L52.0256 9.01613C52.1796 9.10733 52.3363 9.19419 52.4893 9.28811C52.6427 9.38149 52.7962 9.47541 52.9502 9.56933C52.699 9.40592 52.5127 9.27942 52.3538 9.17953C52.1944 9.08019 52.0671 9.00092 51.9393 8.92166C51.8126 8.84077 51.6827 8.76477 51.5205 8.66976C51.3577 8.57584 51.1655 8.45587 50.9006 8.31254C51.6122 8.57584 52.3036 8.85272 52.9687 9.15619C53.0523 9.19365 53.1359 9.23056 53.2189 9.26802C53.3019 9.30548 53.3832 9.34566 53.4652 9.38474C53.629 9.46292 53.7917 9.54055 53.9539 9.61819C54.2729 9.78268 54.5951 9.93849 54.9042 10.1111C55.5305 10.4439 56.1291 10.8033 56.714 11.1719C57.0034 11.3603 57.2934 11.546 57.5719 11.7441C57.7117 11.8429 57.8548 11.9363 57.9908 12.0389C58.1278 12.1399 58.2649 12.2409 58.4014 12.3418C58.2649 12.135 58.2021 11.9917 58.0792 11.7892C58.0175 11.6888 57.9383 11.5764 57.8275 11.4331C57.7161 11.2903 57.5741 11.1155 57.3737 10.9048C57.4616 10.9825 57.5511 11.0579 57.6374 11.1366L57.8963 11.3739L58.1551 11.6106L58.408 11.8532C58.562 11.9179 58.7357 12.0009 58.9159 12.1079C59.0961 12.2148 59.2878 12.3397 59.4876 12.4765C59.6837 12.6176 59.8869 12.7724 60.0938 12.9336C60.2975 13.0986 60.5023 13.2734 60.7082 13.4488C60.9097 13.6285 61.1101 13.8114 61.3067 13.9906C61.499 14.1746 61.6874 14.3543 61.867 14.5259C62.0434 14.7012 62.2116 14.8679 62.37 15.0194C62.5273 15.1719 62.6687 15.3141 62.7998 15.4336C62.4405 15.3429 63.1296 16.2012 63.6812 16.996L63.5594 16.6068C64.1066 17.3483 64.6577 18.1323 65.1868 18.9455C65.7149 19.7588 66.2195 20.6029 66.6821 21.4558C67.1446 22.3087 67.5646 23.1713 67.9294 24.0182C67.9742 24.1241 68.0195 24.23 68.0637 24.3347C68.1085 24.4395 68.1528 24.5443 68.1932 24.6496C68.2751 24.8597 68.3559 25.0671 68.4356 25.2723C68.5094 25.4791 68.582 25.6833 68.6535 25.8841C68.6901 25.984 68.7229 26.085 68.7546 26.1849C68.7862 26.2848 68.8179 26.3836 68.8496 26.4819C68.8851 26.591 68.9146 26.6947 68.937 26.7924C68.9572 26.8906 68.9719 26.9829 68.9823 27.0682C69.0025 27.2386 69.0052 27.3814 68.9992 27.4905C69.3433 28.4818 69.6393 29.4922 69.8856 30.5177C69.8025 30.4715 69.7802 30.611 69.7758 30.8244C69.7703 31.0383 69.7905 31.3244 69.8058 31.5714C69.8249 32.0676 69.8359 32.402 69.6431 31.6778C69.9844 32.8076 70.1291 33.9878 70.2105 35.1555C70.2924 36.3255 70.3126 37.4823 70.4158 38.6192C70.2973 40.6338 70.0024 42.6702 69.5164 44.687C69.0293 46.7027 68.3543 48.6984 67.4958 50.6305C66.6378 52.5626 65.597 54.4307 64.3933 56.1967C63.1897 57.9627 61.8239 59.6267 60.3254 61.1571L60.5515 61.0925C59.5155 62.1837 58.5249 63.2195 57.3747 64.2157C57.23 64.3384 57.082 64.46 56.9329 64.5821C56.8581 64.6429 56.7828 64.7043 56.7069 64.7656C56.6293 64.8248 56.5518 64.884 56.4737 64.9437C56.3164 65.062 56.1586 65.1831 55.9942 65.2987C55.8293 65.4138 55.6616 65.5284 55.4907 65.6435C54.8015 66.0951 54.0457 66.5246 53.1959 66.9073C52.0999 67.6787 50.6718 68.467 49.3819 69.106C48.0947 69.7515 46.9534 70.2661 46.4984 70.6923C46.3073 70.7455 46.1233 70.7971 45.9458 70.8465C45.7677 70.8959 45.5974 70.948 45.4303 70.9904C45.2637 71.036 45.1026 71.0794 44.9459 71.1223C44.8678 71.144 44.7902 71.1657 44.7143 71.1869C44.6379 71.207 44.5625 71.2265 44.4877 71.2455C43.8919 71.4057 43.3523 71.5457 42.8111 71.6787C42.5397 71.7412 42.2694 71.8101 41.9903 71.8698C41.7107 71.9274 41.424 71.9898 41.122 72.0446C40.9702 72.0702 40.8151 72.0968 40.6556 72.1234C40.4956 72.1489 40.3318 72.1782 40.1608 72.1988C39.9905 72.2205 39.8141 72.2428 39.6317 72.2656C39.4493 72.2895 39.2598 72.3069 39.0626 72.3231C39.2691 72.3888 39.1828 72.4513 38.9583 72.5104C38.8464 72.5403 38.7 72.5691 38.5389 72.5968C38.3778 72.6234 38.2025 72.6445 38.0327 72.6673C37.8628 72.6896 37.6984 72.7113 37.5597 72.733C37.4259 72.7531 37.3189 72.7732 37.2545 72.7944C37.1261 72.8367 37.1731 72.8834 37.5488 72.9404C38.0813 73.0354 38.4914 73.0913 38.8322 73.1044C39.1735 73.1212 39.446 73.1196 39.7076 73.1027C39.9692 73.0875 40.2215 73.0767 40.5224 73.0712C40.6731 73.068 40.8358 73.0691 41.0193 73.0761C41.1111 73.0794 41.2077 73.0843 41.3104 73.0913C41.4131 73.0968 41.5218 73.1016 41.6375 73.1098L41.5725 73.0175C41.838 73.0001 42.1045 72.9876 42.3699 72.9654L43.1666 72.8948L43.9623 72.8036C44.095 72.7895 44.2272 72.7699 44.3593 72.7509L44.7564 72.6945C45.8142 72.537 46.8676 72.3318 47.9118 72.0788C48.9565 71.8269 49.9903 71.5224 51.0104 71.1717C52.0305 70.821 53.037 70.4236 54.0249 69.9806C56.0024 69.0973 57.9017 68.0219 59.6974 66.7846C61.493 65.5468 63.1853 64.1446 64.7385 62.5903C66.6908 60.4035 68.5465 57.9779 70.11 55.3308C70.2099 55.1669 70.3044 54.9997 70.3994 54.8324L70.684 54.3303L70.957 53.8216L71.0935 53.567L71.2246 53.3096L71.4857 52.7939C71.5714 52.6213 71.6522 52.4465 71.7352 52.2727C71.904 51.9264 72.0569 51.573 72.2131 51.2212C72.2928 51.0458 72.3627 50.8667 72.4375 50.6897C72.5102 50.5116 72.5861 50.3352 72.6554 50.156C72.7242 49.9769 72.7925 49.7972 72.8613 49.6186C72.8952 49.529 72.9301 49.4394 72.9629 49.3493L73.0584 49.0784C73.1218 48.8976 73.1846 48.7174 73.248 48.5366C73.3064 48.3547 73.3648 48.1729 73.4233 47.9915C73.5429 47.6294 73.6439 47.2624 73.7487 46.8982C73.8061 46.7022 73.852 46.5024 73.9038 46.3042C73.929 46.2049 73.9541 46.1055 73.9797 46.0057C74.0054 45.9063 74.03 45.8064 74.0518 45.706C74.143 45.3043 74.237 44.902 74.314 44.4948C74.48 43.6832 74.6072 42.8607 74.7159 42.0361C74.9218 40.3852 75.0217 38.7223 74.996 37.0931C74.9633 33.8336 74.4549 30.7115 73.7012 28.0546C73.6007 27.7397 73.5314 27.4417 73.4691 27.1561C73.4052 26.8711 73.3604 26.5959 73.3195 26.325C73.2747 26.0551 73.2381 25.7886 73.2004 25.5188C73.1589 25.25 73.1125 24.9797 73.0579 24.699C72.1869 22.2924 70.9761 19.6355 69.3957 17.0997C69.1958 16.7848 68.9981 16.4661 68.7868 16.1562C68.6819 16.0004 68.5793 15.8435 68.4722 15.6887L68.1473 15.2278L67.984 14.9976L67.8158 14.7713L67.4789 14.3185L67.1315 13.8744C67.0152 13.7267 66.9005 13.5785 66.7798 13.4347C66.6602 13.2903 66.5406 13.1459 66.4216 13.002C66.3031 12.857 66.1775 12.7192 66.0557 12.578C65.9323 12.4385 65.8121 12.2962 65.686 12.16C65.5598 12.0237 65.4342 11.8874 65.3092 11.7517C65.2464 11.6844 65.1841 11.6155 65.1202 11.5492C65.0558 11.483 64.9919 11.4173 64.928 11.3511C64.7996 11.2197 64.6713 11.0889 64.5441 10.958C64.413 10.8305 64.283 10.7034 64.1531 10.5769C64.0225 10.4515 63.8942 10.3239 63.7604 10.2034C63.8374 10.2794 63.9084 10.3565 63.9537 10.4086C63.679 10.1432 63.4125 9.88637 63.1526 9.63556C63.0221 9.51069 62.8932 9.388 62.7654 9.2664C62.702 9.20505 62.6387 9.14425 62.5759 9.08344C62.512 9.02373 62.4486 8.96455 62.3853 8.90538C62.2597 8.78648 62.1346 8.66868 62.0112 8.55196C61.8883 8.43415 61.7611 8.32232 61.6377 8.20777C61.5137 8.09376 61.3903 7.9803 61.2669 7.86738C61.1413 7.75663 61.0162 7.64642 60.8917 7.53622C60.6438 7.31363 60.3876 7.10082 60.1293 6.88638C60.0649 6.83264 59.9999 6.77889 59.9355 6.72515C59.8694 6.67303 59.8033 6.62037 59.7367 6.56825C59.6029 6.46402 59.4685 6.35978 59.3331 6.25446C59.1982 6.14806 59.0568 6.04871 58.9153 5.9461C58.7728 5.84513 58.6292 5.74252 58.4839 5.63937C58.3359 5.54003 58.1852 5.44068 58.0317 5.34133C57.8783 5.24198 57.7232 5.14046 57.561 5.04546C57.5282 5.12418 57.1306 4.88368 56.916 4.80224C56.8527 4.65947 55.8604 4.02917 54.3144 3.32234C54.121 3.23493 53.9201 3.14481 53.712 3.05089C53.5017 2.96295 53.2849 2.87228 53.0627 2.77945C53.007 2.75611 52.9513 2.73331 52.8945 2.70996C52.8377 2.6877 52.7803 2.66545 52.7224 2.64319C52.6072 2.59867 52.4903 2.55361 52.3729 2.50855C52.255 2.46349 52.1365 2.4168 52.0158 2.37229C51.8945 2.3294 51.7722 2.28597 51.6488 2.24199C50.662 1.89129 49.5965 1.56502 48.5152 1.29086C47.4345 1.01507 46.3379 0.796289 45.2959 0.62908C45.1654 0.60845 45.0371 0.584563 44.9082 0.567191C44.7793 0.549276 44.6521 0.53136 44.5254 0.513445C44.2725 0.477615 44.0251 0.441784 43.7816 0.416269C43.5385 0.388581 43.3015 0.358723 43.0711 0.335379C42.8401 0.313663 42.6162 0.292491 42.3993 0.272404C42.1831 0.249603 41.9734 0.239288 41.773 0.223001C41.5725 0.209429 41.3809 0.191514 41.1985 0.182285C41.0161 0.17197 40.8429 0.162198 40.6807 0.152969C40.5186 0.14374 40.3673 0.132339 40.2269 0.127453C39.9462 0.114967 39.7125 0.101395 39.5323 0.0867367C39.3521 0.0715359 39.2259 0.061764 39.1615 0.0443916C38.8546 0.0530778 38.5367 0.0514491 38.2129 0.0612211C38.0185 0.0525349 37.824 0.0443916 37.6291 0.0357055C37.4341 0.0275622 37.2392 0.0259335 37.0442 0.0199618L36.7509 0.0118185L36.604 0.00747538L36.4571 0.00638961L35.8695 0.00150364C35.6735 -0.00229656 35.4774 0.00204652 35.2808 0.00421807L34.691 0.0107327L34.1012 0.0291908L33.8063 0.037877L33.5114 0.0530778C31.9392 0.130168 30.3686 0.28489 28.8378 0.550361C25.7742 1.06502 22.8678 2.0053 20.4474 3.27565C19.4732 3.97597 18.4061 4.77999 17.6907 5.48574C17.4667 5.57749 17.3029 5.67466 17.1647 5.7713C17.0271 5.86956 16.9146 5.96782 16.8038 6.07857C16.6924 6.18823 16.5788 6.30495 16.4324 6.43199C16.3592 6.49605 16.2773 6.56119 16.185 6.63177C16.0933 6.70343 15.9901 6.77835 15.871 6.85761C15.6957 6.92493 15.5242 6.99116 15.3626 7.06228C15.2015 7.13394 15.0458 7.20614 14.8973 7.27835C14.598 7.42004 14.3337 7.57151 14.0951 7.71374C13.8553 7.85435 13.65 7.99604 13.4747 8.12525C13.2994 8.255 13.1525 8.37063 13.0416 8.47487C12.5976 8.8918 12.6637 9.03513 13.3196 8.64262C12.4458 9.46346 11.5846 10.2957 10.778 11.1356C9.9714 11.9749 9.2216 12.8239 8.57063 13.6627C8.00268 14.4689 7.47295 15.2913 6.97545 16.1469C6.56368 16.8793 6.22291 17.2142 5.83845 17.4803C5.7123 17.7197 5.60472 17.9184 5.51024 18.0877C5.41522 18.2566 5.3404 18.3994 5.26941 18.5193C5.13015 18.7615 5.01765 18.9205 4.90733 19.085C4.79538 19.2484 4.67633 19.4124 4.51414 19.6589C4.4344 19.7826 4.34757 19.9292 4.24436 20.1062C4.14169 20.2832 4.02264 20.4911 3.89485 20.7452C3.64855 20.9325 3.1434 22.281 2.77096 23.6713C2.72071 23.844 2.6803 24.0199 2.63607 24.192C2.59293 24.3646 2.55087 24.5345 2.50937 24.7012C2.43455 25.0351 2.36301 25.3521 2.29966 25.6355C2.24123 25.9194 2.18771 26.1681 2.1402 26.3646C2.09269 26.5606 2.05883 26.7061 2.02661 26.7799C2.04627 26.6583 2.06375 26.5356 2.08504 26.414C1.70277 27.6594 1.32377 28.686 0.984634 29.7283C0.648777 30.7696 0.35224 31.8282 0.222266 33.1159C0.20916 33.2278 0.196053 33.339 0.182946 33.4514L0.163833 33.6197L0.148542 33.7886C0.128882 34.0139 0.109222 34.2392 0.090108 34.4655C0.0709942 34.6919 0.0617103 34.9194 0.0475115 35.1469C0.0415043 35.2609 0.034951 35.3749 0.0283977 35.4889C0.0229366 35.6029 0.0207521 35.7174 0.0174755 35.832C0.0114683 36.0611 0.0060072 36.2902 0 36.5198C0 36.7495 0.000546109 36.9796 0.00109222 37.2104C-0.000546109 37.4411 0.00819163 37.6718 0.0152911 37.9031L0.0262132 38.25L0.0322204 38.4237L0.0420504 38.5974C0.0557031 38.8287 0.0693558 39.0605 0.0830086 39.2923C0.0988457 39.5241 0.121236 39.7554 0.140896 39.9867L0.172024 40.3341L0.211344 40.681C0.239196 40.9118 0.261586 41.1436 0.294353 41.3738C0.415043 42.2967 0.578329 43.2131 0.767283 44.1202C0.959513 45.0263 1.19052 45.9199 1.44391 46.7988C1.70113 47.6767 1.99166 48.5361 2.29912 49.3764C2.61313 50.2152 2.95008 51.0322 3.30287 51.8265C3.39407 52.0236 3.48418 52.2201 3.57483 52.4155C3.62016 52.5132 3.66548 52.6104 3.71026 52.7076C3.75723 52.8037 3.8042 52.8998 3.85116 52.9959C3.94564 53.187 4.03629 53.3791 4.13186 53.5675C4.22852 53.7554 4.32464 53.9421 4.42021 54.1278C4.56274 54.0887 4.37597 53.7722 4.19248 53.4334C4.01609 53.0909 3.84242 52.726 3.99752 52.6088C4.4142 53.4931 4.85272 54.3704 5.31528 55.2391L5.49003 55.5643C5.54792 55.6728 5.60581 55.7814 5.66752 55.8884L6.03068 56.5333L6.40804 57.1712C6.4703 57.2781 6.53529 57.3835 6.60137 57.4882L6.79796 57.8037C7.32605 58.6424 7.88691 59.4649 8.49036 60.2586C9.09544 61.0501 9.7404 61.815 10.4274 62.5409C10.5399 62.6831 10.6562 62.8351 10.7709 62.9888C10.8856 63.1419 11.003 63.2917 11.1089 63.4356C11.216 63.5789 11.3126 63.7151 11.3962 63.8319C11.4808 63.948 11.5491 64.0468 11.5939 64.1201C12.028 64.5995 12.1995 64.695 12.3377 64.7607C12.407 64.7933 12.4699 64.8167 12.5578 64.8731C12.602 64.9013 12.6523 64.9372 12.7129 64.9866C12.774 65.0354 12.8467 65.0962 12.9335 65.1755L12.862 65.4551C13.0116 65.5463 13.1454 65.638 13.2661 65.7309C13.3884 65.8221 13.4998 65.9122 13.6025 66.0045C13.8073 66.188 13.9771 66.3769 14.1502 66.5593C14.3223 66.7428 14.4883 66.9312 14.686 67.1114C14.8847 67.29 15.1092 67.4692 15.3921 67.637C15.4511 67.6141 15.5805 67.6679 15.7427 67.7607C15.8235 67.8074 15.9131 67.8633 16.0054 67.9252C16.0977 67.9877 16.1943 68.0528 16.2904 68.1179C16.2233 68.2385 16.5263 68.4312 16.8218 68.6147C17.12 68.7933 17.4121 68.96 17.3166 69.0495L17.339 69.0392C17.5754 69.1934 17.7573 69.2786 18.0309 69.4936C18.2832 69.5941 19.5977 70.0984 20.9285 70.5018C21.0935 70.555 21.2622 70.6006 21.4266 70.6483C21.5915 70.695 21.7537 70.7417 21.9121 70.7868C22.2305 70.872 22.5325 70.948 22.8 71.0159C23.0687 71.081 23.3047 71.1321 23.4887 71.1728C23.6733 71.2129 23.8071 71.2412 23.8748 71.2504L24.09 71.3801C24.4351 71.5061 24.6978 71.5495 24.8283 71.5311C24.9577 71.5148 24.9523 71.4458 24.76 71.3519L25.6038 71.663C25.5688 71.6586 25.5344 71.6521 25.4995 71.6472C25.7802 71.7471 26.0636 71.8416 26.3454 71.9388C26.4945 72.0132 26.6381 72.1858 26.3563 72.2292C26.6157 72.2564 26.8855 72.2976 27.1504 72.3557C27.4152 72.4138 27.6773 72.4795 27.9165 72.5707C27.7516 72.5039 27.5812 72.435 27.407 72.3644C27.2334 72.2944 27.0586 72.2135 26.88 72.1353C26.7025 72.055 26.5212 71.9779 26.3421 71.891C26.1635 71.8041 25.9828 71.7162 25.802 71.6282C25.6212 71.5414 25.4438 71.4453 25.2663 71.3514C25.0893 71.2564 24.9129 71.1635 24.7415 71.0658C24.57 70.967 24.4012 70.8677 24.2358 70.7694C24.1533 70.72 24.0714 70.6717 23.9911 70.6217C23.9114 70.5707 23.8327 70.5202 23.7546 70.4703C24.0479 70.5425 24.4362 70.6977 24.8261 70.8687C25.0222 70.9518 25.2209 71.0327 25.4088 71.1076C25.5027 71.1445 25.5939 71.1798 25.6813 71.2113C25.7687 71.2428 25.8528 71.2672 25.9314 71.2895C26.1013 71.3915 26.3208 71.5094 26.5737 71.6337C26.8281 71.7526 27.1154 71.8807 27.419 72.0088C27.7243 72.1299 28.0443 72.258 28.3643 72.3742C28.5249 72.4306 28.6849 72.4871 28.8411 72.5425C28.9978 72.5978 29.1518 72.6521 29.302 72.6994C29.4385 72.7211 29.5696 72.6668 29.7384 72.6402C29.823 72.6266 29.9164 72.6206 30.0256 72.6337C30.1348 72.6467 30.2599 72.6755 30.4057 72.7379C30.5346 72.8704 30.7083 72.9013 30.9092 72.9301C31.1107 72.9567 31.3401 72.9757 31.5837 73.094C30.9753 73.1119 30.4079 72.954 29.8175 72.8204C29.8301 72.8861 29.924 72.9518 30.0666 73.0083C30.2091 73.0647 30.3997 73.1168 30.6029 73.1657C30.7044 73.1901 30.8093 73.214 30.913 73.2363C31.0173 73.2564 31.12 73.2764 31.2172 73.2954C31.4122 73.334 31.5848 73.3709 31.7011 73.4078C31.8185 73.3905 32.1653 73.4355 32.5754 73.4958C32.7802 73.5273 33.0019 73.5506 33.2187 73.5729C33.4355 73.593 33.6463 73.6125 33.832 73.6109C33.66 73.7156 33.8041 73.7672 34.0461 73.8134C34.1673 73.8345 34.312 73.8595 34.4535 73.8839C34.5245 73.897 34.5944 73.9116 34.6599 73.9274C34.7254 73.942 34.7871 73.9589 34.8412 73.9784C35.3398 74.0392 35.6642 73.9621 35.4665 73.8655C35.5539 73.7395 35.0618 73.6711 34.6391 73.6016C34.2165 73.524 33.8626 73.4502 34.2175 73.3438C34.3863 73.4903 35.3573 73.518 35.8777 73.5256C35.8903 73.3834 35.5288 73.404 35.8706 73.2808C36.1579 73.3063 36.4555 73.2868 36.7215 73.2699C36.9874 73.2531 37.2217 73.2498 37.3866 73.3258C37.2785 73.3633 37.0415 73.3362 36.8727 73.3302C37.06 73.3362 36.8995 73.3948 36.5653 73.4757C36.3982 73.5126 36.1879 73.5549 35.9553 73.5989C35.8389 73.6206 35.7177 73.644 35.5932 73.6652C35.4687 73.6847 35.342 73.7048 35.2158 73.7243C35.0891 73.7439 34.9624 73.7634 34.8396 73.7824C34.7779 73.7916 34.7167 73.8014 34.6572 73.8101C34.5976 73.8177 34.5387 73.8259 34.4819 73.8329C34.2536 73.8628 34.0488 73.8905 33.891 73.9138C33.7331 73.9377 33.6228 73.9556 33.5835 73.9675C33.5436 73.98 33.5748 73.9898 33.6993 73.992C33.5781 73.9149 34.6861 73.8172 35.7401 73.6695C36.0033 73.6304 36.2638 73.5919 36.5036 73.556C36.7422 73.5186 36.959 73.4773 37.1349 73.4447C37.3107 73.4116 37.4456 73.3839 37.521 73.3639C37.5952 73.3438 37.6078 73.3313 37.5499 73.3302C37.3216 73.2922 37.4041 73.2292 37.4833 73.1684C37.5231 73.138 37.5619 73.1082 37.5614 73.0826C37.5619 73.0571 37.5226 73.0354 37.4052 73.0218L36.8815 73.188C36.5598 73.1597 36.3354 73.0712 36.2212 72.9865C36.1065 72.9008 36.1011 72.8139 36.2152 72.7694C36.4817 72.7851 36.4244 72.8465 36.2005 72.9279C36.0885 72.9686 35.9345 73.0148 35.7587 73.062C35.5828 73.1103 35.3846 73.1516 35.1847 73.1956C34.9848 73.2379 34.7822 73.2824 34.5993 73.3155C34.4152 73.3492 34.2509 73.3791 34.1263 73.4019C33.8762 73.4491 33.7861 73.4735 34.0226 73.4583C33.8986 73.4236 33.7747 73.3932 33.6518 73.3552C33.8533 73.3307 34.2181 73.3166 34.5807 73.3367C34.9439 73.3525 35.3059 73.3888 35.5053 73.4773C35.5162 73.3416 36.0476 73.3107 36.4866 73.2764C36.538 73.2862 36.5898 73.2965 36.6412 73.3047C37.0955 73.2395 37.7263 73.2802 37.433 73.0908C36.7728 73.0881 36.5533 72.9996 36.5565 72.8633C36.5593 72.7308 36.7821 72.5506 37.0022 72.3682C37.4451 72.0028 37.8743 71.6244 36.6499 71.5685C37.1616 71.7303 37.0759 71.809 36.7215 71.8497C36.5445 71.8704 36.301 71.872 36.0339 71.8736C35.7663 71.8769 35.4752 71.8649 35.2027 71.8563C35.1536 71.7998 35.0105 71.7265 34.7844 71.6483C34.5589 71.5653 34.2498 71.4817 33.8675 71.4035C33.1963 71.3519 33.4606 71.4719 33.3236 71.536C33.2324 71.5077 33.1204 71.4789 33.0052 71.4464C32.8905 71.4122 32.7725 71.3769 32.6699 71.3405C32.464 71.2678 32.3193 71.1912 32.3777 71.1168C32.3094 71.132 32.2455 71.1396 32.1844 71.1413C32.1238 71.1413 32.0664 71.1358 32.0107 71.1261C31.8999 71.1065 31.7961 71.0696 31.6907 71.0284C31.5853 70.9871 31.4772 70.9415 31.3565 70.904C31.2358 70.8649 31.1031 70.8307 30.9464 70.8183C30.3866 70.8036 30.9671 70.9084 30.563 70.9274C30.4609 70.9062 30.3549 70.8807 30.2451 70.8535C30.1354 70.8269 30.0223 70.7993 29.9077 70.7716C29.793 70.7433 29.6761 70.7146 29.5587 70.6858C29.4424 70.6543 29.326 70.6223 29.2103 70.5908C28.7483 70.4692 28.313 70.3297 27.999 70.2265C27.8958 70.1212 27.6795 69.9426 27.5648 69.7879C27.4502 69.6321 27.4387 69.4958 27.7396 69.4605C27.8865 69.5083 27.9875 69.5479 28.0553 69.581C28.123 69.6136 28.1574 69.6391 28.1683 69.6614C28.1912 69.7059 28.123 69.7352 28.0574 69.7623C27.9264 69.8134 27.8013 69.8622 28.4353 70.0056C28.2125 69.764 28.4954 69.815 28.869 69.9019C29.2452 69.9784 29.7143 70.0935 29.8591 69.986C29.6767 69.866 29.3872 69.7504 29.0568 69.6565C28.8913 69.6103 28.7182 69.5582 28.5424 69.5159C28.3671 69.4714 28.189 69.4355 28.0208 69.3964C28.0607 69.4241 28.1006 69.4529 28.141 69.4795C27.9914 69.4491 27.8051 69.4062 27.6003 69.3568C27.4977 69.3318 27.3906 69.3052 27.2814 69.2759C27.1727 69.2444 27.0624 69.2108 26.9516 69.1749C26.5081 69.0376 26.074 68.8503 25.7955 68.6543C25.9833 68.5897 25.7458 68.4084 26.175 68.5262L25.7867 68.3774L25.4023 68.2195C25.2898 68.2184 25.1734 68.2173 25.3881 68.3286C24.9845 68.2824 24.6388 68.0805 24.3876 67.9002C24.3696 67.8264 23.2981 67.5251 22.2605 67.1706C22.1305 67.1266 22.0011 67.0827 21.8738 67.0398C21.7477 66.9942 21.6243 66.9491 21.5052 66.9057C21.2671 66.8183 21.0449 66.739 20.8619 66.6636C20.4933 66.5159 20.2617 66.4182 20.3016 66.4171C19.7746 66.1114 19.7478 65.8758 19.1777 65.6744C19.1641 65.6815 19.2345 65.7287 19.3667 65.8053C19.4327 65.8433 19.5141 65.8894 19.6091 65.9399C19.7052 65.9882 19.8134 66.043 19.9319 66.1028C20.0504 66.1614 20.1787 66.2249 20.3142 66.2917C20.4507 66.3563 20.5954 66.4214 20.7439 66.4893C20.893 66.5561 21.0443 66.6283 21.2016 66.6929C21.3578 66.7586 21.5156 66.8242 21.6723 66.8899C22.9257 67.4111 24.1326 67.77 23.759 67.6348C23.7082 67.5919 23.5662 67.5311 23.3625 67.4442C23.2604 67.4008 23.1419 67.353 23.0098 67.3014C22.8781 67.2488 22.7307 67.1961 22.5761 67.1321C21.9525 66.8872 21.1645 66.5642 20.3901 66.2113C19.619 65.8536 18.8631 65.4659 18.2952 65.1321C17.7283 64.7966 17.3433 64.5278 17.3046 64.4209C17.1205 64.2922 16.9124 64.1565 16.7552 64.0686C16.5984 63.9801 16.4865 63.9453 16.4887 64.03C16.2047 63.7732 16.2899 63.7586 16.4002 63.7537C16.5105 63.7488 16.6459 63.7537 16.4706 63.5425C16.4483 63.5517 16.4646 63.6212 16.3314 63.5137C16.2287 63.3655 16.131 63.2119 16.0316 63.062C15.5073 62.7803 14.9688 62.296 14.4298 61.8069C13.8979 61.3085 13.3644 60.8064 12.8407 60.4584C12.9286 60.4969 13.0236 60.5327 13.1268 60.5718C13.2289 60.612 13.3409 60.6533 13.4627 60.7032C13.5839 60.7537 13.7144 60.8129 13.8553 60.8878C13.9258 60.9252 13.9979 60.9671 14.0743 61.0121C14.1513 61.0566 14.2311 61.1055 14.3135 61.1598L14.3659 61.3031C14.4211 61.3259 14.5729 61.4388 14.7226 61.53C14.8738 61.6196 15.0202 61.6891 15.0573 61.6337C14.8077 61.3601 14.5718 61.1125 14.3091 60.8862C14.1775 60.7732 14.0465 60.6581 13.9028 60.5474C13.7609 60.435 13.6074 60.3275 13.4496 60.2103C13.3742 60.0827 13.283 59.9388 13.2311 59.8335C13.2208 59.8476 13.2186 59.8661 13.2022 59.878C13.0837 59.6402 13.1126 59.6506 13.2147 59.6804C13.23 59.6826 13.2481 59.6853 13.2737 59.6978C13.2524 59.3992 12.7172 58.9242 12.1061 58.3569C11.4983 57.7885 10.8255 57.1147 10.5017 56.5192C10.2237 56.2331 10.4269 56.529 10.0752 56.1745C10.0326 56.0995 9.99052 56.0262 9.94901 55.954C9.90915 55.8808 9.87037 55.8091 9.83214 55.738C9.75569 55.5968 9.68142 55.4595 9.60879 55.3254C9.46844 55.055 9.33355 54.7955 9.19811 54.5344C9.0665 54.2722 8.93434 54.0083 8.79508 53.7304C8.72627 53.5914 8.65637 53.4481 8.58319 53.3004C8.54606 53.2266 8.50892 53.1517 8.47015 53.0757C8.43301 52.9986 8.39588 52.9199 8.3571 52.8395C7.98848 52.5257 7.91039 52.5225 8.02944 53.0914L7.78697 52.605C7.70724 52.4421 7.63296 52.2771 7.55542 52.1137C7.76949 52.2798 7.84049 52.2374 7.84158 52.0947C7.84158 52.0236 7.82519 51.9269 7.79953 51.8183C7.78697 51.7641 7.77222 51.707 7.75584 51.6484C7.74109 51.5892 7.7258 51.5284 7.71051 51.4682C7.58655 50.9839 7.47405 50.5192 7.91148 50.8971C7.88581 50.7375 7.81482 50.5116 7.70833 50.2635C7.6559 50.1392 7.59091 50.0105 7.52647 49.8786C7.46149 49.7467 7.38995 49.6142 7.31349 49.4861C7.18734 49.4758 6.97818 49.4644 6.69584 48.7689C6.45555 47.7456 6.49269 47.9959 6.34033 47.1397C6.41077 46.902 6.57024 47.1788 6.66854 47.1066C6.63031 47.0333 6.59536 46.9644 6.56641 46.8993C6.53802 46.8336 6.51399 46.7722 6.49269 46.7141C6.45064 46.5979 6.4217 46.4964 6.40204 46.4036C6.38238 46.3113 6.37255 46.2282 6.36818 46.1501C6.36545 46.0713 6.36818 45.9981 6.372 45.9248C6.38893 45.6316 6.42224 45.3471 6.25186 44.7597C6.18851 44.5784 6.12461 44.3488 6.05362 44.1077C6.01757 43.9878 5.98044 43.8645 5.9444 43.7424C5.90999 43.6202 5.87449 43.4992 5.83845 43.3841C5.80241 43.269 5.76636 43.1599 5.72978 43.061C5.69319 42.9622 5.66151 42.8721 5.62711 42.7977C5.55939 42.6479 5.49167 42.5567 5.42723 42.5594C5.40429 42.4313 5.38573 42.3184 5.3748 42.2196C5.36497 42.1202 5.36006 42.0344 5.35897 41.9612C5.35733 41.8146 5.37262 41.7163 5.39938 41.6528C5.45344 41.5258 5.55557 41.5366 5.66697 41.5703L5.66588 41.5735Z" fill="#2E2D2C"/>
</svg>
