<svg width="100%" height="100%" preserveAspectRatio="none" viewBox="0 0 141 140" fill="none" xmlns="http://www.w3.org/2000/svg">
<g clip-path="url(#clip0_222_296)">
<path d="M29.3926 40.4634C30.9756 37.7505 32.6055 35.3787 34.0644 33.3193C36.5429 31.0097 38.8089 29.1163 40.984 27.3511C42.0697 26.4685 43.1453 25.6327 44.2135 24.8124C45.2808 23.9903 46.3564 23.1976 47.4503 22.4094C47.7252 22.2132 48.0001 22.0171 48.2759 21.821C48.5553 21.6276 48.8348 21.4333 49.1152 21.2381C49.2558 21.1409 49.3965 21.0438 49.5381 20.9457C49.6806 20.8495 49.824 20.7533 49.9674 20.657C50.2551 20.4646 50.5438 20.2712 50.8343 20.0778C52.0073 19.3107 53.2245 18.5427 54.5225 17.7802C54.6034 17.7325 54.6843 17.6839 54.7661 17.6363C54.8479 17.5877 54.9215 17.5492 55.0005 17.5043C55.1559 17.4181 55.3113 17.332 55.4685 17.2449C55.6257 17.1588 55.7838 17.0717 55.9428 16.9846C56.0228 16.9416 56.1019 16.8957 56.1828 16.8554C56.2646 16.816 56.3464 16.7757 56.4291 16.7354C56.7592 16.5768 57.0938 16.4155 57.433 16.2524C57.7759 16.0984 58.1289 15.9582 58.4847 15.8097C59.9169 15.2396 61.4733 14.7521 63.1749 14.4084C65.6065 13.8466 67.9535 13.5395 70.237 13.4186C72.5214 13.2985 74.7416 13.3645 76.9295 13.5725C77.4765 13.6339 78.0216 13.6944 78.5649 13.7558L78.9648 13.809L79.3794 13.8677C79.6598 13.9089 79.9402 13.9501 80.2206 13.9923C81.3476 14.1628 82.4793 14.3433 83.6128 14.5321C84.7463 14.7209 85.8844 14.9189 87.0261 15.1315C87.5961 15.2378 88.1697 15.3469 88.7314 15.4623C88.8712 15.4917 89.0118 15.5201 89.1525 15.5494C89.2876 15.5787 89.4227 15.609 89.5579 15.6383L89.6581 15.6603L89.7445 15.6814L89.9155 15.7226C89.978 15.7364 89.99 15.7437 90.0194 15.7529C90.046 15.7602 90.0727 15.7685 90.0993 15.7795C90.479 15.9114 90.8412 16.0031 91.1529 16.0746C91.4139 16.1314 91.6769 16.1882 91.9416 16.246C92.1531 16.2936 92.3103 16.3358 92.4224 16.3752C92.5162 16.4091 92.5989 16.4467 92.6826 16.4934C93.2296 16.7876 93.7857 17.0864 94.352 17.3907C94.6352 17.5455 94.9211 17.7004 95.2088 17.8581C95.4901 18.023 95.7742 18.1898 96.0601 18.3576C97.2156 18.3548 99.1471 19.1045 101.421 20.4261C103.701 21.7376 106.322 23.6164 108.826 25.8444C109.44 26.4135 110.061 26.9891 110.685 27.5665C111.283 28.1686 111.883 28.7735 112.481 29.3756C113.054 30.0025 113.624 30.6248 114.192 31.2361C114.735 31.8712 115.271 32.499 115.803 33.1067C115.871 33.1818 115.933 33.2606 115.996 33.3395C116.059 33.4183 116.122 33.4962 116.184 33.5741C116.31 33.7299 116.436 33.8848 116.56 34.0388C116.81 34.3458 117.06 34.6473 117.307 34.9433C117.561 35.2339 117.783 35.5436 118.017 35.836C118.247 36.1302 118.477 36.418 118.705 36.6984C118.82 36.8377 118.933 36.9761 119.045 37.1136C119.101 37.1823 119.159 37.2483 119.214 37.317C119.267 37.3867 119.32 37.4554 119.373 37.5242C119.585 37.7982 119.795 38.064 120.003 38.3197C120.211 38.5754 120.418 38.8238 120.623 39.0611C120.726 39.1794 120.828 39.2958 120.928 39.4103C121.025 39.5267 121.121 39.6422 121.215 39.7549C121.652 40.4029 122.075 41.0087 122.476 41.5641C122.579 41.7015 122.669 41.8436 122.762 41.9792C122.855 42.1149 122.946 42.2478 123.034 42.3779C123.212 42.6373 123.385 42.8829 123.551 43.1129C123.716 43.3439 123.875 43.5602 124.027 43.76C124.103 43.8599 124.177 43.9561 124.248 44.0487C124.317 44.1413 124.383 44.2302 124.446 44.3154C124.701 44.6545 124.924 44.9276 125.109 45.1237C125.481 45.5151 125.681 45.6122 125.693 45.3189C125.697 45.1732 125.642 44.9359 125.53 44.5922C125.474 44.4208 125.402 44.2237 125.315 43.9992C125.27 43.8874 125.222 43.7682 125.171 43.6427C125.118 43.518 125.056 43.387 124.991 43.2495C125.06 43.3687 125.127 43.486 125.194 43.6014C125.255 43.7178 125.316 43.8324 125.375 43.9451C125.491 44.1697 125.604 44.386 125.712 44.5931C125.818 44.8011 125.924 44.9991 126.016 45.1943C126.106 45.3895 126.193 45.5774 126.276 45.757C126.439 46.1181 126.592 46.4481 126.719 46.7588C126.842 47.0704 126.952 47.3582 127.051 47.6239C127.148 47.8915 127.244 48.1344 127.313 48.3681C127.386 48.6009 127.45 48.8172 127.509 49.0216C127.626 49.4313 127.73 49.7896 127.808 50.1452C127.892 50.498 127.973 50.8399 128.07 51.2047C128.122 51.3861 128.165 51.5777 128.218 51.7784C128.27 51.9791 128.329 52.1917 128.396 52.4181C128.537 52.8699 128.681 53.3914 128.878 54.011C128.928 54.1659 128.979 54.3272 129.033 54.4949C129.084 54.6644 129.136 54.8404 129.192 55.0246C129.249 55.2079 129.307 55.3995 129.369 55.5993C129.432 55.799 129.499 56.0062 129.558 56.2252C129.505 56.1336 129.454 56.041 129.398 55.9494L128.896 55.1355L128.563 54.5984L128.213 54.0705C128.347 54.6452 128.434 55.2473 128.538 55.8623C128.593 56.1693 128.63 56.4846 128.675 56.8026C128.72 57.1206 128.766 57.4432 128.813 57.7723C128.851 58.1022 128.895 58.4358 128.942 58.7749C128.965 58.9445 128.992 59.1149 129.015 59.2872C129.037 59.4595 129.059 59.6346 129.082 59.8105C129.127 60.1625 129.19 60.5181 129.241 60.8819C129.292 61.2467 129.349 61.6169 129.416 61.9945L129.491 62.2026L129.559 62.4125L129.696 62.8331L129.97 63.6791L130.218 64.5341C130.299 64.8201 130.389 65.1069 130.459 65.3966C130.354 67.543 130.25 69.4355 130.144 71.2291C130.036 73.0218 129.91 74.7145 129.718 76.4311C129.523 78.1468 129.254 79.8863 128.794 81.7413C128.332 83.5935 127.678 85.5622 126.681 87.6838C127.039 87.0056 127.267 86.5263 127.438 86.2248C127.607 85.9214 127.702 85.7895 127.745 85.7858C127.829 85.7785 127.698 86.2862 127.508 86.9561C127.418 87.2925 127.291 87.6618 127.179 88.0312C127.067 88.4015 126.957 88.7662 126.862 89.0787C126.678 89.7075 126.602 90.1501 126.81 90.053C126.599 90.3554 126.267 90.8971 125.916 91.5157C125.545 92.1252 125.157 92.8135 124.784 93.389C124.602 93.6786 124.434 93.9453 124.286 94.1662C124.135 94.3852 124.008 94.5603 123.917 94.6712C123.735 94.8939 123.694 94.86 123.884 94.4082C122.866 96.1247 121.864 97.8028 120.857 99.3985C120.601 99.7944 120.354 100.192 120.102 100.579C119.846 100.965 119.593 101.347 119.343 101.724C119.085 102.096 118.83 102.463 118.579 102.825C118.325 103.185 118.064 103.534 117.812 103.88C116.785 105.252 115.752 106.49 114.717 107.528C114.459 107.787 114.195 108.03 113.939 108.265C113.81 108.382 113.681 108.496 113.553 108.606C113.425 108.716 113.293 108.82 113.164 108.923C112.904 109.127 112.648 109.319 112.393 109.496C112.138 109.673 111.878 109.829 111.624 109.974L111.143 110.534L110.153 111.631L109.645 112.169C107.866 113.964 106.02 115.308 104.121 116.444C102.22 117.582 100.273 118.525 98.1938 119.512L97.815 120.174C97.4841 120.369 97.1145 120.576 96.7155 120.792C96.517 120.903 96.3074 121.006 96.0923 121.112C95.8762 121.217 95.6556 121.326 95.4303 121.436C95.206 121.546 94.9725 121.65 94.7354 121.754C94.4982 121.856 94.2583 121.961 94.0155 122.065C93.7747 122.171 93.5256 122.265 93.2774 122.361C93.0282 122.456 92.7791 122.551 92.5309 122.645C92.0308 122.827 91.527 122.989 91.0379 123.149C90.536 123.309 90.0488 123.465 89.5845 123.613C88.6634 123.908 87.8406 124.145 87.1898 124.265C86.7172 124.411 86.2411 124.551 85.7639 124.666C85.6444 124.696 85.5258 124.72 85.4063 124.748C85.2804 124.772 85.1535 124.797 85.0267 124.823C84.772 124.874 84.5164 124.925 84.259 124.977C83.7396 125.065 83.2184 125.17 82.6834 125.249C82.4168 125.29 82.1502 125.339 81.8799 125.376C81.6096 125.415 81.3384 125.453 81.0663 125.492C80.7942 125.534 80.5193 125.565 80.2445 125.6C79.9687 125.634 79.6929 125.673 79.4143 125.704C78.8573 125.761 78.2983 125.833 77.7339 125.881C77.4516 125.908 77.1685 125.936 76.8854 125.962C76.6013 125.985 76.3163 126.007 76.0322 126.03L75.6038 126.065L75.1745 126.093C74.8877 126.112 74.6009 126.131 74.3141 126.15C72.0177 126.286 69.6983 126.334 67.4239 126.299C65.1505 126.265 62.9221 126.137 60.8114 125.914C60.2975 125.802 59.8296 125.7 59.4021 125.607C58.9756 125.512 58.5886 125.43 58.2365 125.359C57.8853 125.283 57.5681 125.217 57.2786 125.162C56.9899 125.107 56.7288 125.065 56.4926 125.022C56.0191 124.941 55.6367 124.898 55.3021 124.875C54.9684 124.846 54.6825 124.84 54.4002 124.84C53.8349 124.847 53.2906 124.856 52.4136 124.764C51.5421 124.649 50.3323 124.443 48.4818 123.834C47.3474 123.34 45.9942 122.782 44.5895 122.106C44.2402 121.932 43.8853 121.755 43.5286 121.578C43.1765 121.387 42.8208 121.194 42.465 121.002C42.123 120.799 41.7801 120.595 41.439 120.393C41.2681 120.291 41.098 120.189 40.9279 120.088C40.8433 120.038 40.7588 119.987 40.6742 119.937C40.5905 119.885 40.5096 119.83 40.4278 119.777C40.1006 119.561 39.777 119.349 39.4589 119.139C39.2998 119.033 39.1426 118.928 38.9864 118.824C38.8292 118.723 38.683 118.607 38.5341 118.501C38.239 118.283 37.9512 118.069 37.6708 117.862C37.532 117.758 37.3951 117.654 37.2608 117.552C37.1248 117.452 37.0016 117.342 36.8757 117.24C36.3774 116.824 35.926 116.431 35.5381 116.07C35.163 115.696 34.8495 115.356 34.6151 115.058C34.9405 115.332 35.2503 115.586 35.5482 115.827C35.6944 115.948 35.8488 116.055 35.994 116.163C36.1411 116.269 36.2845 116.373 36.4252 116.474C36.7065 116.674 36.9768 116.861 37.236 117.038C37.3013 117.082 37.3656 117.125 37.43 117.168C37.4962 117.209 37.5605 117.249 37.6249 117.288C37.7545 117.366 37.8804 117.443 38.0046 117.518C38.2537 117.666 38.4945 117.806 38.7299 117.941C38.8475 118.008 38.9634 118.073 39.0774 118.138C39.1344 118.17 39.1914 118.202 39.2484 118.233C39.3063 118.263 39.3642 118.292 39.4221 118.321C39.8827 118.55 40.3249 118.77 40.7698 118.992C40.8801 119.047 40.9914 119.103 41.1026 119.158C41.2147 119.212 41.3297 119.262 41.4446 119.315C41.6735 119.42 41.9051 119.527 42.1405 119.639C42.3758 119.752 42.6158 119.868 42.8621 119.992C42.9835 120.056 43.1122 120.114 43.2427 120.174C43.3723 120.236 43.5038 120.298 43.6389 120.361C44.7154 120.872 45.9611 121.465 47.5754 122.184C47.2812 122.012 47.238 121.944 47.3713 121.96C47.5037 121.978 47.8199 122.062 48.2465 122.193C49.0959 122.466 50.4123 122.859 51.6313 123.175C52.2436 123.325 52.8264 123.472 53.3182 123.565C53.8082 123.663 54.1998 123.732 54.4251 123.741C54.6494 123.753 54.7045 123.718 54.5197 123.614C54.334 123.515 53.9121 123.335 53.1849 123.062C51.5467 122.72 49.8782 122.27 48.2189 121.689C46.5595 121.108 44.9066 120.397 43.3255 119.516C42.9338 119.285 42.5413 119.052 42.1478 118.818C41.9511 118.701 41.7553 118.582 41.5586 118.465C41.3673 118.339 41.1752 118.213 40.9831 118.087C40.5997 117.833 40.2136 117.582 39.8312 117.323C39.457 117.053 39.0829 116.782 38.7078 116.511C38.5212 116.375 38.3318 116.242 38.147 116.102L37.601 115.672C37.2379 115.384 36.872 115.1 36.5116 114.809C36.1586 114.509 35.8065 114.208 35.4535 113.908C35.2779 113.757 35.1005 113.61 34.9267 113.457L34.4156 112.988C34.0746 112.676 33.7344 112.364 33.3943 112.052C33.0652 111.73 32.7361 111.407 32.4079 111.087C32.2433 110.926 32.0797 110.766 31.916 110.605C31.757 110.44 31.5989 110.275 31.4408 110.11C31.1245 109.78 30.8083 109.451 30.4939 109.124C29.2657 107.784 28.0734 106.442 26.973 105.071C26.8342 104.9 26.6953 104.731 26.5575 104.561C26.4205 104.391 26.278 104.226 26.1474 104.051C25.8808 103.708 25.6161 103.366 25.3532 103.027C25.2208 102.857 25.0893 102.689 24.9579 102.521C24.831 102.35 24.7051 102.178 24.5791 102.008C24.3254 101.668 24.0735 101.33 23.8244 100.995C23.6966 100.829 23.5798 100.658 23.4585 100.489C23.3381 100.32 23.2186 100.152 23.0991 99.985C22.861 99.6496 22.6164 99.3215 22.3866 98.9897C22.1568 98.6561 21.9297 98.3262 21.7045 97.999C21.4774 97.6727 21.2476 97.3519 21.0361 97.0247C21.2154 97.0559 21.2412 96.8625 21.1437 96.495C21.095 96.3117 21.0159 96.0835 20.9102 95.8186C20.8036 95.5538 20.6712 95.2504 20.5204 94.9086C20.2171 94.2276 19.8218 93.4147 19.3639 92.5165C19.1341 92.0711 18.8923 91.6028 18.6414 91.1179C18.3978 90.6395 18.1606 90.1382 17.9354 89.6167C17.484 88.5756 17.0887 87.4529 16.7265 86.3137C16.3652 85.1736 16.0168 84.0234 15.6923 82.9355C15.0432 80.7561 14.5073 78.7939 14.1791 77.4787L14.4025 77.0745C14.1947 75.9316 14.0164 74.8612 13.8528 73.7852C13.69 72.7093 13.531 71.6296 13.3839 70.4648C13.2387 69.299 13.0888 68.0489 12.9831 66.6347C12.8774 65.2188 12.8093 63.6314 12.848 61.7911C12.9785 59.5961 13.2773 57.4157 13.7066 55.2858C13.918 54.2181 14.1791 53.1742 14.4512 52.1285C14.7206 51.0819 14.9872 50.0435 15.2519 49.0152C15.5176 47.9887 15.7879 46.9769 16.0738 45.9843C16.1464 45.7369 16.219 45.4894 16.2916 45.2438C16.3293 45.1219 16.3643 44.9963 16.4029 44.8781C16.4415 44.7599 16.4801 44.6426 16.5187 44.5253C16.6824 44.0579 16.8717 43.6033 17.0822 43.1615C17.5042 42.2771 18.0107 41.4468 18.5448 40.6421C18.8124 40.2397 19.0854 39.8429 19.3612 39.4488C19.6351 39.0593 19.9164 38.6441 20.1766 38.3004C20.9534 37.2446 21.8939 36.2539 22.838 35.1376C23.3096 34.5841 23.7729 33.9764 24.1939 33.389C24.6196 32.7969 25.0241 32.2039 25.4258 31.6256C25.8275 31.0464 26.2274 30.4837 26.6383 29.9466C26.7404 29.811 26.8461 29.6817 26.9491 29.5488C27.0557 29.4205 27.1587 29.2895 27.2662 29.1639C27.3738 29.0393 27.4795 28.9119 27.5898 28.7918L27.7544 28.6085L27.93 28.4188C28.8805 27.4052 29.8108 26.4117 30.7081 25.4549C31.1576 24.97 31.5961 24.4907 32.019 24.0141C32.2304 23.7786 32.4391 23.5348 32.6441 23.2965C32.8445 23.0555 33.0431 22.8181 33.2306 22.5808C33.9881 21.634 34.6583 20.7285 35.2945 19.9092C35.9288 19.0898 36.5309 18.3576 37.1009 17.7343C37.669 17.1093 38.2068 16.597 38.6692 16.1873C37.8998 16.6006 37.1818 17.0983 36.5098 17.6372C35.8378 18.1761 35.2108 18.7562 34.6114 19.3464C33.4127 20.5296 32.3224 21.7522 31.1824 22.8594C30.0269 23.9867 28.864 25.0938 27.7378 26.2156C27.4565 26.496 27.1761 26.7774 26.9003 27.0606C26.7615 27.2026 26.6255 27.341 26.4867 27.4886C26.3469 27.637 26.2072 27.7846 26.0739 27.9377C25.5352 28.5425 25.0535 29.174 24.5966 29.8046C23.6874 31.0675 22.883 32.3405 22.0097 33.4797C21.1327 34.6198 20.1417 35.6839 19.2619 36.8561C19.044 37.1502 18.828 37.4463 18.6257 37.7515C18.5283 37.8963 18.4309 38.0411 18.3343 38.185C18.2369 38.327 18.1404 38.4682 18.0429 38.6084C17.6522 39.1711 17.2523 39.7274 16.857 40.2901C16.0664 41.4138 15.2933 42.5741 14.6461 43.8342C14.8649 43.2193 15.1076 42.662 15.353 42.1525C15.5985 41.6429 15.8449 41.1791 16.0839 40.7521C16.5638 39.9006 17.0041 39.1849 17.3847 38.5442C17.5759 38.2235 17.7515 37.9228 17.9151 37.6342C18.0052 37.4784 18.0926 37.3253 18.179 37.1759C18.27 37.0247 18.3592 36.8753 18.4483 36.7314C18.8068 36.1577 19.1543 35.649 19.4853 35.1697C20.149 34.212 20.7502 33.367 21.3202 32.39C21.6144 31.8896 21.9242 31.3305 22.2818 30.6954C22.6403 30.0612 23.0467 29.3445 23.5697 28.527C22.6504 29.5415 21.8341 30.5579 21.0334 31.4735C21.5381 30.6266 22.0492 29.7175 22.6311 28.779C22.3039 29.064 22.2046 29.0429 22.2211 28.856C22.2395 28.6681 22.382 28.3097 22.5622 27.9138C22.7433 27.517 22.9639 27.0826 23.111 26.7563C23.2544 26.43 23.3169 26.2128 23.1459 26.2559C22.4151 27.1192 21.79 27.9789 21.2246 28.7872C20.6565 29.5983 20.1472 30.3563 19.6498 31.0455L19.4733 31.2865C19.4163 31.3644 19.3529 31.446 19.2932 31.5266L19.1047 31.7713L18.908 32.0215L18.0438 33.0957C17.4325 33.8564 16.7458 34.7335 16.1188 35.7343C16.663 34.9571 17.1264 34.4173 17.4821 34.0296C17.8397 33.6419 18.0971 33.4009 18.2819 33.2487C18.6478 32.9518 18.7333 33.0086 18.668 33.2551C18.6037 33.5017 18.3757 33.9499 18.1063 34.4759C17.837 34.9983 17.5345 35.605 17.3433 36.0935L17.1061 36.4473L16.8754 36.8102L16.4957 37.4142L15.7152 38.6524C15.1848 39.5029 14.6397 40.4221 14.1488 41.4275C14.3565 41.0948 14.636 40.6247 14.9173 40.2031C15.1968 39.7797 15.4716 39.3911 15.6537 39.1739C15.8366 38.9548 15.9285 38.8962 15.8495 39.1381C15.8099 39.2591 15.7281 39.4543 15.5939 39.7503C15.4606 40.0464 15.274 40.4423 15.0396 40.9766C14.7334 41.5421 14.4347 42.1928 14.1736 42.9077C14.1414 42.9975 14.1092 43.0873 14.0761 43.178C14.0458 43.2697 14.0164 43.3622 13.986 43.4557C13.9235 43.6409 13.8693 43.8315 13.8151 44.023C13.7562 44.2256 13.7176 44.3814 13.6716 44.5546C13.6275 44.7251 13.5825 44.8955 13.5384 45.0669C13.1817 46.4362 12.8222 47.821 12.369 49.0335C12.4664 47.4782 12.5648 45.9055 12.7082 44.3026C12.3892 46.1053 12.0096 47.7348 11.5655 49.269C11.344 50.0352 11.1077 50.7767 10.8595 51.5007C10.729 51.8911 10.5994 52.2797 10.4697 52.6683C10.3465 53.0624 10.2142 53.4537 10.0965 53.8506C9.61387 55.4334 9.19375 57.051 8.92072 58.7639C8.65228 60.4759 8.53645 62.2851 8.67526 64.206C8.52358 64.5928 8.37281 64.9841 8.22481 65.3792C8.08415 65.7742 7.93982 66.1728 7.80469 66.5752L7.85617 67.4972C7.87639 67.8042 7.90397 68.1112 7.92787 68.4182C7.94994 68.7289 7.98395 69.0231 8.01429 69.3228C8.04462 69.6216 8.07496 69.9204 8.11265 70.2173C8.25055 71.4078 8.42613 72.5837 8.62654 73.7495C8.48129 73.502 8.33236 73.2555 8.19171 73.0044C8.57782 75.8354 9.12296 78.6023 9.75452 81.3142C10.3741 83.4863 10.8623 84.6777 11.2383 85.4238C11.617 86.1698 11.891 86.4585 12.1539 86.7967C12.4049 87.6243 12.6825 88.4766 12.9877 89.3106C13.2947 90.1455 13.6275 90.9585 13.9686 91.6972C14.1387 92.0665 14.3069 92.4175 14.4714 92.7456C14.5551 92.9088 14.6314 93.0701 14.7123 93.2213C14.7895 93.3716 14.864 93.5164 14.9357 93.6548C15.1811 94.1378 15.3714 94.5484 15.49 94.8673L14.7665 93.8894C14.7169 93.8216 14.6746 93.7666 14.6158 93.6823C14.5064 93.5247 14.3942 93.3679 14.2867 93.2075C13.8528 92.5678 13.4437 91.9025 13.0658 91.2288C13.3104 91.8933 13.5852 92.5596 13.8858 93.2121C13.9603 93.3762 14.0366 93.5384 14.1157 93.6988L14.3326 94.1479L14.7187 94.9507C14.2186 93.8372 14.6452 94.4485 15.2721 95.4236C15.9037 96.4024 16.7108 97.7185 17.0593 98.1044C17.3139 98.5727 17.5474 99.0034 17.7634 99.3994C17.9905 99.7889 18.1983 100.145 18.3886 100.473C18.5798 100.8 18.7544 101.098 18.9144 101.37C19.0817 101.637 19.2325 101.881 19.3713 102.103C19.6462 102.549 19.8705 102.911 20.0617 103.221C20.2584 103.527 20.4221 103.781 20.5682 104.018C21.1566 104.963 21.4655 105.611 22.9198 107.881C23.8336 108.929 24.7988 110.035 25.7365 111.11C25.9728 111.378 26.2063 111.643 26.4379 111.905C26.5529 112.037 26.6678 112.167 26.7808 112.297C26.8948 112.426 27.0134 112.55 27.1283 112.675C27.5898 113.172 28.0283 113.655 28.4494 114.099C29.3117 114.97 30.0572 115.725 30.6695 116.209C31.2707 116.702 31.6936 116.962 31.871 116.882C33.7078 118.648 35.71 120.331 37.8648 121.867C38.4054 122.248 38.9413 122.639 39.5085 122.991L40.3515 123.531L40.7735 123.8C40.9215 123.889 41.0768 123.977 41.2276 124.066C42.4457 124.789 43.6812 125.395 44.9195 125.948C45.2293 126.083 45.5391 126.218 45.8489 126.353C46.1596 126.477 46.4694 126.601 46.7793 126.726C47.0891 126.853 47.3998 126.966 47.7096 127.078C48.0194 127.191 48.3292 127.308 48.6399 127.415C49.2604 127.62 49.8782 127.838 50.4969 128.021C50.8058 128.116 51.1147 128.209 51.4226 128.303C51.7306 128.389 52.0386 128.476 52.3456 128.561C54.8029 129.244 57.2289 129.754 59.5906 130.16C61.0017 130.253 62.4101 130.298 63.8129 130.321C66.5984 130.778 69.0309 131.006 71.2887 131.092C73.5465 131.175 75.6287 131.125 77.732 130.968C77.9949 130.948 78.2579 130.927 78.5217 130.907C78.7865 130.88 79.0512 130.854 79.3169 130.828C79.5835 130.799 79.8492 130.777 80.1185 130.743C80.3879 130.709 80.6581 130.676 80.9303 130.642C81.0663 130.624 81.2024 130.607 81.3393 130.589C81.4772 130.569 81.6151 130.548 81.754 130.528C82.0307 130.487 82.3101 130.446 82.5914 130.403C82.8737 130.358 83.1596 130.306 83.4482 130.257C83.7369 130.207 84.0274 130.158 84.3243 130.095C84.6203 130.036 84.92 129.976 85.2234 129.916C85.5286 129.846 85.8375 129.776 86.151 129.705C86.3109 129.667 86.4516 129.639 86.6547 129.586C86.7494 129.561 86.8441 129.537 86.9388 129.513C87.0298 129.487 87.1217 129.461 87.2137 129.435C87.4012 129.383 87.5722 129.327 87.7533 129.272C87.9289 129.216 88.1026 129.158 88.2745 129.099C88.9567 128.865 89.6094 128.612 90.24 128.361C90.8688 128.11 91.4847 127.859 92.0666 127.64L91.3762 128.125L92.017 127.809L92.3213 127.661L92.4702 127.59L92.6467 127.507C93.1441 127.275 93.6423 127.052 94.1341 126.814C94.6232 126.569 95.1141 126.333 95.5967 126.082C96.0766 125.826 96.5602 125.577 97.0345 125.313C99.1177 124.504 100.814 123.651 102.317 122.771C102.411 122.717 102.505 122.663 102.598 122.609C102.69 122.553 102.782 122.497 102.873 122.441C103.054 122.328 103.234 122.217 103.413 122.107C103.59 121.996 103.767 121.886 103.942 121.776C104.116 121.664 104.286 121.547 104.457 121.434C104.796 121.205 105.137 120.982 105.468 120.747C105.798 120.512 106.129 120.276 106.462 120.039C107.78 119.075 109.107 118.056 110.605 116.877C112.102 115.696 113.769 114.356 115.733 112.688C117.784 110.823 119.409 109.059 120.719 107.441C122.03 105.82 123.026 104.345 123.816 103.021C124.009 102.687 124.191 102.363 124.363 102.05C124.447 101.892 124.531 101.738 124.613 101.587C124.69 101.433 124.765 101.281 124.839 101.132C124.985 100.835 125.123 100.545 125.252 100.265C125.381 99.985 125.493 99.7073 125.603 99.4415C125.711 99.1748 125.813 98.9155 125.908 98.6643C125.999 98.4105 126.083 98.1621 126.162 97.9211C126.241 97.68 126.313 97.4454 126.382 97.2163C126.452 96.9881 126.507 96.759 126.565 96.539C126.701 96.2384 126.844 95.935 126.992 95.6308C127.134 95.3228 127.279 95.0121 127.43 94.6996C127.506 94.5438 127.583 94.3871 127.66 94.2304C127.737 94.0736 127.81 93.9132 127.886 93.7538C128.038 93.4348 128.194 93.115 128.353 92.7942C128.507 92.4707 128.662 92.1453 128.817 91.8191C128.896 91.6559 128.976 91.4937 129.055 91.3297C129.131 91.1647 129.207 90.9997 129.284 90.8347C129.438 90.5048 129.593 90.1749 129.748 89.8458C129.897 89.5132 130.046 89.1805 130.195 88.8487C130.269 88.6828 130.346 88.5179 130.418 88.352C130.489 88.1852 130.559 88.0184 130.63 87.8525C130.771 87.5198 130.916 87.1908 131.052 86.8608C131.185 86.5291 131.316 86.2 131.447 85.8738C131.511 85.7106 131.579 85.5484 131.639 85.3853C131.699 85.2221 131.758 85.0599 131.818 84.8986C131.936 84.5751 132.052 84.2562 132.166 83.9409C132.271 83.6229 132.374 83.3094 132.475 83.0015C132.683 82.3865 132.843 81.7816 133.001 81.207L132.889 81.9805C132.85 82.239 132.816 82.4983 132.769 82.754L132.634 83.5266C132.587 83.7842 132.549 84.0435 132.494 84.2992C132.56 84.1462 132.621 83.9913 132.681 83.8355L132.863 83.369C132.983 83.0574 133.111 82.7476 133.224 82.4323L133.563 81.4865C133.619 81.3289 133.678 81.1712 133.731 81.0118L133.888 80.5334C134.249 78.836 134.453 77.5254 134.643 76.389C134.726 75.818 134.802 75.2901 134.877 74.776C134.942 74.26 134.998 73.7559 135.058 73.2353C135.111 72.7148 135.149 72.1749 135.194 71.5902C135.215 71.2979 135.222 70.9927 135.236 70.6728C135.246 70.353 135.264 70.0175 135.266 69.6628C135.266 68.9535 135.274 68.168 135.227 67.2772C135.218 67.0545 135.207 66.8254 135.197 66.5889C135.184 66.3525 135.162 66.1096 135.144 65.8594C135.105 65.359 135.068 64.8283 134.997 64.2665C134.886 61.1688 134.485 58.9793 134.073 57.3846C133.876 56.5836 133.645 55.9347 133.439 55.382C133.386 55.2446 133.336 55.1126 133.282 54.987C133.227 54.8624 133.173 54.7423 133.12 54.6278C133.012 54.3986 132.907 54.1897 132.803 53.9945C132.7 53.7993 132.599 53.6187 132.497 53.4473C132.392 53.2778 132.287 53.1165 132.183 52.9598C131.975 52.6463 131.77 52.3485 131.562 52.0249C131.119 51.3871 130.683 50.641 130.097 49.4991C129.566 47.6588 128.939 45.8368 128.217 44.0469L127.653 42.7134L127.51 42.3798C127.461 42.2698 127.41 42.1625 127.36 42.0535L126.452 40.0986C126.349 39.8823 126.254 39.6605 126.143 39.4479L125.815 38.8054L125.775 39.1253C125.213 38.4718 124.745 37.9192 124.338 37.4243C124.238 37.2996 124.133 37.1842 124.033 37.0696C123.934 36.955 123.839 36.8441 123.745 36.7351C123.558 36.517 123.384 36.3071 123.217 36.1018C123.051 35.8965 122.892 35.6939 122.736 35.4914C122.579 35.2898 122.435 35.0799 122.27 34.8783C121.948 34.4686 121.624 34.0342 121.264 33.5365C121.084 33.2872 120.893 33.0233 120.689 32.7392C120.475 32.4624 120.246 32.1654 119.998 31.8447C119.749 31.523 119.483 31.1775 119.193 30.8026C119.052 30.612 118.891 30.4259 118.725 30.2298C118.56 30.0337 118.387 29.8311 118.208 29.6194C116.786 27.9175 114.796 25.7582 111.73 23.1481L111.884 24.0866C111.659 23.8345 111.439 23.5953 111.222 23.3662C111.115 23.2498 111.003 23.1426 110.892 23.039C110.781 22.9354 110.67 22.8337 110.562 22.7329C110.125 22.3333 109.701 21.9694 109.281 21.6285C109.073 21.4544 108.856 21.3013 108.641 21.1492C108.426 20.9971 108.211 20.8495 107.995 20.7038C107.563 20.4151 107.132 20.1282 106.681 19.8533C106.223 19.5893 105.754 19.319 105.262 19.0358C105.018 18.8937 104.767 18.748 104.508 18.5986C104.25 18.4501 103.976 18.309 103.699 18.155C103.143 17.8507 102.557 17.5171 101.925 17.1505C101.284 16.8023 100.598 16.4173 99.8586 15.9838C99.581 15.8253 99.2482 15.6347 98.8695 15.4184C98.4916 15.1993 98.0706 14.9491 97.6128 14.6742C97.3829 14.5385 97.1476 14.3891 96.8976 14.2471C96.6475 14.105 96.3892 13.9584 96.1235 13.8072C95.5903 13.5038 95.0286 13.1849 94.4449 12.8531C94.1865 12.7147 93.9126 12.5956 93.6276 12.4957C93.3481 12.3976 93.0705 12.3215 92.8058 12.2555C92.2744 12.1245 91.8046 12.0218 91.4176 11.8688C91.2908 11.8202 91.1602 11.7826 91.0306 11.7405C90.901 11.702 90.7916 11.6754 90.673 11.6433C90.5544 11.6112 90.4432 11.5847 90.3319 11.5581L89.9955 11.4774C89.5496 11.3748 89.1047 11.2767 88.6616 11.1851C87.7754 11.0018 86.8928 10.835 86.0314 10.6929C84.3087 10.407 82.6687 10.2118 81.2539 10.165C80.5175 10.0074 79.8106 9.86074 79.0981 9.74068C78.7451 9.68753 78.3967 9.63529 78.0538 9.58396C77.7109 9.53447 77.3726 9.48406 77.0361 9.45474C76.7006 9.42266 76.3696 9.39058 76.0433 9.35942C75.8796 9.34567 75.7178 9.32734 75.556 9.32001C75.3942 9.31176 75.2334 9.30352 75.0734 9.29618C74.7544 9.28244 74.4391 9.26961 74.1275 9.25677C74.0493 9.25402 73.9721 9.25128 73.8949 9.24944C73.8176 9.24944 73.7404 9.24944 73.6632 9.24944C73.5088 9.24944 73.3562 9.25128 73.2036 9.25128C70.7665 9.26227 68.5583 9.53905 66.4568 9.97989C64.3544 10.4244 62.3558 11.0302 60.3132 11.7826C58.2705 12.5378 56.1809 13.4387 53.8928 14.5669C52.4706 15.159 51.2066 15.8363 50.0823 16.4778C49.5215 16.8023 48.9929 17.1166 48.5039 17.4264C48.2593 17.5804 48.0221 17.7298 47.7923 17.8736C47.5653 18.0203 47.3455 18.1623 47.1341 18.2989C45.4417 19.3904 44.2843 20.1456 43.513 20.0393C43.821 19.8331 44.1363 19.6379 44.4479 19.4372C43.6196 19.5572 42.7959 19.6984 41.9621 19.8423L42.1285 20.5947C40.5005 21.5103 38.6407 22.8291 36.8674 24.158C36.7561 24.2405 36.6449 24.323 36.5337 24.4046C36.4243 24.4889 36.3149 24.5723 36.2055 24.6557C35.9858 24.8207 35.7679 24.9847 35.5528 25.1469C35.1235 25.4741 34.7024 25.794 34.2887 26.0946C33.8824 26.4044 33.477 26.6885 33.0909 26.9561C32.7076 27.2274 32.3297 27.4675 31.9703 27.681C30.1822 30.0483 28.5965 32.5238 27.2451 35.0854C27.8187 34.1991 28.5082 33.3239 29.2473 32.4541C30.0002 31.5954 30.8009 30.7394 31.6467 29.9255L31.336 29.9585C31.5281 29.7551 31.7496 29.5094 32.0052 29.2437C32.2626 28.9788 32.5458 28.6873 32.8482 28.3767C33.1589 28.0742 33.488 27.7525 33.8282 27.4217C34.1775 27.1 34.5342 26.7645 34.9028 26.4383C36.3746 25.1304 37.9843 23.9161 39.1059 23.258C38.7179 23.6036 38.3263 23.9417 37.943 24.2909L37.0871 25.08L36.8076 25.3486C37.1616 25.0791 37.4493 24.8903 37.6653 24.7492C37.8832 24.6099 38.034 24.5246 38.1323 24.4834C38.3291 24.4009 38.3125 24.4916 38.1847 24.6685C38.057 24.8454 37.817 25.1084 37.566 25.3696C37.316 25.6318 37.0595 25.9003 36.8876 26.0799C36.7111 26.2128 36.5401 26.3384 36.3802 26.4648C36.2211 26.5922 36.0685 26.7141 35.9214 26.8314C35.6291 27.0661 35.3607 27.2833 35.1235 27.4932C34.8845 27.7012 34.6675 27.8937 34.4699 28.0724C34.274 28.2538 34.1012 28.4243 33.9413 28.5819C33.7822 28.7396 33.6388 28.8862 33.5083 29.0237C33.3796 29.163 33.2656 29.2959 33.1589 29.4205C32.9475 29.6707 32.771 29.8916 32.6101 30.1088C32.3003 30.5515 32.0208 30.9502 31.6246 31.5166C31.5253 31.6568 31.4169 31.8053 31.2974 31.9656C31.2367 32.0454 31.1742 32.1279 31.108 32.2149C31.0436 32.302 30.9756 32.3936 30.9057 32.489C30.6226 32.8684 30.2788 33.301 29.8752 33.8316C29.6674 34.0488 29.4146 34.3183 29.1719 34.5978C28.9274 34.8755 28.6746 35.1514 28.4668 35.3805C28.0532 35.8415 27.7783 36.0889 27.9465 35.6848C27.8353 35.8488 27.7103 36.0266 27.5733 36.2173C27.4391 36.4097 27.2947 36.6168 27.143 36.835C26.9914 37.0531 26.8231 37.2767 26.6604 37.5178C26.4959 37.757 26.3249 38.0044 26.1493 38.2583C25.9709 38.5094 25.799 38.7752 25.6216 39.041C25.446 39.3086 25.2622 39.5753 25.0884 39.8502C24.7418 40.401 24.387 40.95 24.0708 41.4972C22.7782 43.6711 21.8635 45.6461 22.1228 45.9266C21.9683 46.1566 21.8948 46.2364 21.7532 46.4444C22.1559 46.3445 22.6275 46.1071 23.1542 45.757C23.4153 45.5802 23.6994 45.3804 23.9944 45.1549C24.2905 44.9304 24.5938 44.6774 24.9183 44.4089C25.2429 44.1413 25.5793 43.8516 25.925 43.5437C26.2761 43.2394 26.6402 42.9196 27.0107 42.5823C27.3857 42.2496 27.7755 41.9059 28.1681 41.5476C28.5643 41.1984 28.9752 40.8373 29.3972 40.4652L29.3926 40.4634Z" fill="#2E2D2C"/>
<path fill-rule="evenodd" clip-rule="evenodd" d="M89.4711 128.202C87.0249 129.278 84.0482 130.218 80.7378 130.866L80.736 130.861C78.3642 130.597 76.2948 130.14 74.7054 129.593C74.3082 129.453 73.9396 129.308 73.604 129.162C73.4358 129.089 73.2759 129.016 73.1242 128.942C72.9725 128.867 72.8291 128.787 72.6939 128.71C72.1543 128.398 71.7507 128.083 71.5007 127.767C71.6075 127.781 71.686 127.795 71.7643 127.809C71.8586 127.826 71.9524 127.843 72.0946 127.86C72.1989 127.565 73.5353 127.475 75.2869 127.357C75.7106 127.328 76.1586 127.298 76.6193 127.263C76.9154 127.241 77.216 127.219 77.5193 127.196C77.7278 127.176 77.937 127.157 78.1463 127.137L78.4322 127.111C78.9606 127.067 79.4843 127.003 79.9905 126.942C80.0681 126.932 80.1453 126.923 80.2221 126.914C80.5107 126.881 80.7911 126.838 81.0614 126.796C81.2009 126.774 81.338 126.752 81.472 126.731C81.5975 126.711 81.7204 126.692 81.84 126.673C82.3346 126.589 82.774 126.491 83.1372 126.407C82.7639 126.586 83.1142 126.599 83.7007 126.54C84.2854 126.472 85.11 126.345 85.6763 126.246C85.9833 126.16 86.2637 126.081 86.5202 126.003C86.7757 125.919 87.0074 125.841 87.2207 125.766C87.434 125.692 87.627 125.62 87.8054 125.553C87.9557 125.495 88.0929 125.435 88.2221 125.378C88.2462 125.368 88.27 125.358 88.2935 125.347C88.5932 125.215 88.8451 125.095 89.0795 124.981C89.2097 124.918 89.3334 124.854 89.4567 124.79C89.5563 124.738 89.6557 124.687 89.7579 124.636C89.9859 124.522 90.2268 124.408 90.509 124.288C90.7894 124.163 91.1102 124.027 91.5028 123.879C92.0405 123.674 92.708 123.434 93.5763 123.12C93.9742 122.977 94.4142 122.818 94.9033 122.641C95.1037 122.523 95.4034 122.346 95.6902 122.165C95.9788 121.988 96.2473 121.79 96.399 121.656C96.5506 121.519 96.581 121.437 96.3842 121.464C96.1875 121.491 95.7665 121.636 94.9998 121.917L95.6258 121.579C95.7716 121.498 95.9164 121.415 96.0613 121.332C96.122 121.297 96.1828 121.262 96.2436 121.228L96.8595 120.876C96.915 120.844 96.9701 120.811 97.0251 120.778C94.4366 122.028 91.7421 123.093 88.9585 123.958C88.9829 123.969 89.0073 123.981 89.0317 123.993C88.5371 124.127 88.0419 124.254 87.5492 124.376C86.1417 124.774 84.7127 125.121 83.2643 125.415C83.1807 125.437 83.0976 125.459 83.0149 125.481C83.0458 125.47 83.0766 125.459 83.1075 125.447C79.3562 126.198 75.4755 126.592 71.5025 126.592H71.5015C70.6776 126.592 69.8577 126.575 69.042 126.541C68.407 126.601 67.7096 126.65 66.9584 126.677C65.0472 126.749 62.7885 126.683 60.3634 126.38C60.3117 126.374 60.26 126.367 60.2082 126.361C59.9557 126.329 59.7015 126.297 59.4459 126.26C59.3169 126.239 59.1873 126.219 59.0574 126.198C58.8781 126.169 58.6981 126.14 58.5174 126.111L58.5089 126.109C58.3555 126.084 58.202 126.059 58.0477 126.033C57.8914 126.003 57.7351 125.972 57.5779 125.941C57.4209 125.91 57.2631 125.878 57.1048 125.846C56.9471 125.814 56.7888 125.783 56.6301 125.751C56.3148 125.676 55.9976 125.602 55.6786 125.528L55.6646 125.524C55.5102 125.487 55.3559 125.45 55.2006 125.412C55.1195 125.39 55.0383 125.369 54.9572 125.347C54.8793 125.326 54.8014 125.305 54.7235 125.284C54.5843 125.245 54.4448 125.207 54.3049 125.168C54.1262 125.119 53.9469 125.069 53.7674 125.019C53.4512 124.92 53.134 124.821 52.816 124.722L52.3398 124.57L51.8682 124.404C51.5538 124.292 51.2394 124.181 50.9268 124.064C50.7719 124.002 50.617 123.941 50.4621 123.879C50.3072 123.817 50.1523 123.756 49.9974 123.694C49.9546 123.676 49.9117 123.659 49.8689 123.642C49.7574 123.597 49.6462 123.552 49.5359 123.503L49.0799 123.302C47.8628 122.773 46.6953 122.161 45.5848 121.518C42.5998 119.716 39.442 117.71 36.3256 115.371C33.2092 113.038 30.1461 110.356 27.39 107.337C26.1793 106.129 25.1874 105.02 24.3462 103.989C24.0064 103.586 23.7011 103.187 23.4075 102.803C23.3303 102.702 23.2538 102.602 23.1778 102.503C23.0485 102.333 22.9267 102.162 22.8067 101.994C22.7586 101.927 22.7108 101.86 22.663 101.793C22.6129 101.722 22.5627 101.652 22.5129 101.582C22.399 101.423 22.2868 101.266 22.1813 101.106C20.9512 99.2869 20.0338 97.6408 19.0924 95.7025L19.2165 95.2763C18.6043 94.1912 17.7208 92.5387 16.8769 90.6205C16.0275 88.706 15.2213 86.5275 14.6338 84.4745C14.04 82.4225 13.6667 80.5015 13.5307 79.1424C13.4525 78.4641 13.4507 77.9225 13.4884 77.5761C13.5063 77.4224 13.5348 77.3063 13.5748 77.2316C13.4094 76.1759 13.2723 75.1109 13.1644 74.0373C13.1013 73.6355 13.0438 73.2289 12.9929 72.8176C12.8081 71.3045 12.6941 69.7327 12.6555 68.1224C12.6013 64.9028 12.8394 61.531 13.4139 58.1822C13.9793 54.8315 14.8342 51.4991 15.9126 48.3179C16.4476 46.726 17.0323 45.1689 17.6455 43.6548C18.2559 42.139 18.9122 40.6753 19.5677 39.2547C19.9786 38.6563 20.2507 38.3273 20.396 38.1916C20.5403 38.056 20.5615 38.1174 20.4962 38.3144C20.4412 38.4811 20.3224 38.7434 20.1731 39.0726C20.1452 39.1344 20.1161 39.1985 20.0862 39.2648C20.0127 39.424 19.9316 39.5945 19.8465 39.7738C19.708 40.0651 19.5586 40.3797 19.4123 40.7065C19.3699 40.7992 19.3267 40.8923 19.2833 40.9858C19.2035 41.1576 19.1233 41.3305 19.0465 41.5038C18.9818 41.6537 18.9171 41.803 18.8533 41.9505C18.8027 42.0672 18.7527 42.1828 18.7036 42.2966C18.6484 42.4249 18.5942 42.5514 18.5418 42.6742C18.5019 42.7692 18.4648 42.8637 18.4288 42.9555C18.4183 42.9823 18.4078 43.009 18.3974 43.0353C18.3055 43.2681 18.2228 43.4844 18.152 43.675C18.0471 43.9514 17.9743 44.1779 17.938 44.3286C20.3225 39.0052 23.4819 34.1024 27.2734 29.763C27.5185 29.4357 27.7685 29.1088 28.0234 28.7829C29.3031 27.1506 30.7078 25.5468 32.209 24.0391C33.7093 22.5315 35.307 21.1219 36.9507 19.8718C38.5935 18.6199 40.285 17.5329 41.9499 16.6476C42.7842 16.3298 43.902 15.8291 45.1231 15.2821C45.6308 15.0546 46.1565 14.8191 46.687 14.5855C46.9658 14.4579 47.2482 14.3356 47.5295 14.2138C47.7008 14.1396 47.8717 14.0656 48.0411 13.9907C48.3061 13.8706 48.5718 13.7573 48.8333 13.6459C49.0108 13.5702 49.1864 13.4953 49.3585 13.4197C49.6132 13.3054 49.8643 13.1986 50.1077 13.0951C50.2702 13.0261 50.4294 12.9584 50.5839 12.8909C50.7189 12.8304 50.8512 12.7717 50.9801 12.7144C51.0346 12.6902 51.0886 12.6663 51.1419 12.6425C51.3221 12.5665 51.494 12.4913 51.6576 12.418L52.0851 11.8223C54.1701 11.1926 56.1714 10.8205 58.2058 10.4668C58.5033 10.4153 58.8014 10.3641 59.1009 10.3127C60.8531 10.012 62.6505 9.70349 64.6243 9.27534L65.3 9.11312C65.4523 9.07658 65.6053 9.04422 65.7587 9.0118C65.8322 8.99625 65.9058 8.98069 65.9794 8.96465C66.1026 8.9388 66.2258 8.91227 66.349 8.88572C66.6802 8.81441 67.0118 8.74298 67.3455 8.6842C67.8925 8.78777 68.4744 8.84367 69.0912 8.89591C69.3992 8.91974 69.7163 8.93257 70.0418 8.94449C70.3672 8.96099 70.7009 8.97015 71.0429 8.97473C71.1262 8.97518 71.2104 8.97585 71.2952 8.97652C71.3834 8.97722 71.4723 8.97793 71.5614 8.9784L72.0918 8.98665H73.1885C73.5618 8.99031 73.9423 8.99123 74.3303 8.99031C74.5016 8.98789 74.6736 8.99117 74.8475 8.9945C74.8706 8.99494 74.8937 8.99538 74.9168 8.99581L75.5143 9.00406C77.1194 9.02972 78.833 9.09663 80.6073 9.29001C82.3806 9.48797 84.2137 9.81057 86.0348 10.3247C85.5724 10.2707 85.5522 10.3192 85.7995 10.431C85.9226 10.4879 86.1129 10.5593 86.3483 10.6427C86.5827 10.7298 86.8612 10.8325 87.1637 10.9406C87.7704 11.1496 88.4617 11.4209 89.0795 11.6637C89.6927 11.9222 90.2305 12.1641 90.5246 12.3401C90.4226 12.1412 90.839 12.1733 91.443 12.2961C91.5938 12.3273 91.7565 12.3639 91.9257 12.4033C92.0721 12.44 92.222 12.4816 92.3742 12.5238L92.4423 12.5426C92.5153 12.5633 92.5886 12.5839 92.6617 12.6045C92.9392 12.6827 93.2141 12.7601 93.4636 12.8341C94.0915 13.0265 94.5714 13.1604 94.5714 13.077C94.5714 13.0348 94.451 12.9386 94.1669 12.7672C94.0253 12.6819 93.8424 12.5775 93.6135 12.4519C93.3883 12.3307 93.1162 12.1962 92.7948 12.0373L92.7751 12.0276C94.8306 12.945 96.6279 13.7561 98.2918 14.5241C99.9548 15.293 101.485 16.0189 102.966 16.8007C103.335 17.0005 103.702 17.2003 104.069 17.4001C104.431 17.6099 104.792 17.8216 105.154 18.037C105.872 18.4778 106.59 18.9398 107.3 19.4557C108.723 20.4822 110.144 21.692 111.555 23.2253C112.574 23.7825 113.573 24.3846 114.571 25.0079C114.854 25.2636 115.119 25.5284 115.378 25.7878L115.415 25.8255C115.531 25.9437 115.646 26.0608 115.757 26.1801C115.878 26.3139 115.997 26.4458 116.113 26.5787C116.148 26.619 116.183 26.6592 116.218 26.6992C116.414 26.924 116.607 27.1452 116.786 27.3724C116.999 27.6391 117.203 27.904 117.401 28.1661C117.554 28.3624 117.695 28.5639 117.834 28.7628C117.879 28.8267 117.924 28.8903 117.968 28.9534C118.025 29.0355 118.082 29.1167 118.139 29.1975C118.262 29.3744 118.385 29.5491 118.501 29.726C118.564 29.8223 118.627 29.9181 118.69 30.0133C118.794 30.1719 118.898 30.3291 119.001 30.4848C119.083 30.6085 119.164 30.7323 119.245 30.8542C119.324 30.977 119.403 31.0998 119.482 31.2217C119.43 31.1858 119.378 31.1497 119.326 31.1137C119.209 31.032 119.092 30.9505 118.972 30.8716L118.456 30.5316C118.411 30.502 118.366 30.4724 118.321 30.4429C118.023 30.2463 117.727 30.0509 117.422 29.8653C118.604 31.1328 119.323 32.0557 119.828 32.8045C119.955 32.9914 120.069 33.1674 120.175 33.3351C120.226 33.4194 120.277 33.501 120.326 33.5807C120.347 33.6168 120.367 33.6524 120.387 33.6878C120.413 33.7326 120.438 33.7769 120.463 33.8209C120.638 34.1361 120.792 34.4322 120.949 34.7374C121.018 34.8745 121.087 35.015 121.158 35.1604C121.246 35.3394 121.337 35.5258 121.438 35.7226C121.506 35.8533 121.576 35.9904 121.65 36.1349C121.777 36.3836 121.916 36.6542 122.075 36.9516C122.177 37.1361 122.283 37.3338 122.397 37.5453C122.57 37.8686 122.761 38.2241 122.981 38.6141C123.018 38.6811 123.054 38.7493 123.092 38.8187C123.237 39.0869 123.391 39.3727 123.56 39.6763C123.668 39.866 123.775 40.0677 123.885 40.2766C123.941 40.3801 123.997 40.4857 124.055 40.5932C124.114 40.7028 124.174 40.8145 124.235 40.9283C124.01 40.4077 123.855 39.9852 123.742 39.6653C123.63 39.3455 123.578 39.1191 123.578 38.9789C123.579 38.6994 123.79 38.7681 124.163 39.1301C124.256 39.2208 124.359 39.3299 124.472 39.4564C124.583 39.5828 124.699 39.7304 124.825 39.8926C125.076 40.2189 125.368 40.6084 125.662 41.0694C125.811 41.2994 125.966 41.5441 126.127 41.8026C126.257 42.0129 126.384 42.2365 126.515 42.4681C126.545 42.5211 126.576 42.5746 126.606 42.6284C126.939 43.2048 127.258 43.8473 127.596 44.531C128.195 45.5089 128.8 46.6793 129.331 48.0054C129.398 48.1704 129.466 48.3381 129.534 48.5067C129.591 48.6551 129.646 48.8063 129.702 48.9585L129.725 49.0236C129.75 49.0926 129.775 49.1618 129.8 49.2313C129.902 49.5133 130.005 49.7994 130.1 50.0914C130.217 50.4561 130.333 50.8273 130.449 51.204C130.532 51.4759 130.607 51.7536 130.682 52.0332C130.711 52.14 130.74 52.247 130.77 52.3542C131.181 53.9104 131.524 55.5509 131.782 57.2162C132.037 58.8814 132.214 60.5687 132.328 62.2166C132.353 62.629 132.378 63.0387 132.402 63.4447C132.414 63.7383 132.425 64.0306 132.436 64.3211L132.449 64.6535C132.464 64.9259 132.468 65.1969 132.472 65.4656C132.474 65.5902 132.476 65.7142 132.479 65.8376C132.48 65.9017 132.481 65.9656 132.483 66.0294C132.49 66.3536 132.497 66.6745 132.494 66.9915C132.495 67.3709 132.497 67.7439 132.499 68.1105C132.495 68.4421 132.491 68.7685 132.488 69.089L132.487 69.1902C132.486 69.3661 132.485 69.5412 132.485 69.7135C132.483 69.8188 132.481 69.923 132.478 70.0265L132.474 70.2258C132.468 70.564 132.464 70.893 132.463 71.2138C132.462 71.2692 132.461 71.3244 132.46 71.3793C132.454 71.642 132.449 71.8984 132.447 72.1486C132.445 72.2952 132.446 72.4397 132.447 72.5818C132.448 72.7328 132.448 72.8811 132.446 73.0266C132.439 73.5912 132.458 74.1172 132.477 74.5947C132.494 75.0722 132.532 75.5048 132.593 75.8851C132.647 76.2655 132.72 76.5927 132.823 76.863C132.803 76.976 132.783 77.0887 132.763 77.2011C132.748 77.2792 132.734 77.3571 132.72 77.4349C132.7 77.5508 132.676 77.666 132.652 77.7809C132.637 77.8541 132.622 77.9273 132.607 78.0004C132.531 78.3753 132.456 78.7464 132.381 79.1158C132.333 79.33 132.286 79.5436 132.239 79.7561C132.124 80.2726 132.012 80.7835 131.884 81.286C131.758 81.8291 131.617 82.3632 131.477 82.8923C131.434 83.0578 131.39 83.2229 131.347 83.3876C131.293 83.5899 131.235 83.7903 131.178 83.9902C131.137 84.1316 131.097 84.2727 131.057 84.414C131.009 84.5845 130.961 84.754 130.913 84.9236C130.883 85.0268 130.851 85.1296 130.82 85.2323C130.799 85.2974 130.779 85.3625 130.76 85.4277C130.712 85.5841 130.664 85.7401 130.617 85.8958C130.563 86.074 130.508 86.2518 130.454 86.4294C130.4 86.594 130.346 86.7582 130.293 86.922C130.238 87.0874 130.184 87.2525 130.13 87.4174L130.098 87.5123C130.055 87.6444 130.011 87.7762 129.968 87.9086L129.797 88.3953C129.734 88.5739 129.671 88.7522 129.609 88.9302C129.557 89.0756 129.506 89.2208 129.455 89.3658C129.378 89.5694 129.302 89.7732 129.226 89.9769C129.063 90.4132 128.901 90.8487 128.724 91.2786C128.677 91.3954 128.631 91.5126 128.584 91.6297C128.505 91.8294 128.426 92.029 128.343 92.2271C128.277 92.3824 128.211 92.538 128.145 92.6935C128.077 92.8519 128.01 93.0102 127.943 93.1684C127.845 93.4048 127.739 93.6382 127.634 93.8715C127.598 93.9493 127.563 94.0271 127.528 94.105C127.475 94.2214 127.422 94.3383 127.37 94.4553C127.282 94.6505 127.194 94.8458 127.101 95.0389C127.028 95.1907 126.956 95.3424 126.883 95.4942C126.807 95.6524 126.731 95.8107 126.655 95.9692C126.581 96.125 126.504 96.2789 126.425 96.4329C126.394 96.4943 126.363 96.5557 126.331 96.6171C126.284 96.7098 126.237 96.8026 126.19 96.8957C125.947 97.3834 125.687 97.8649 125.425 98.3495C125.353 98.4823 125.281 98.6154 125.209 98.7489C125.096 98.9521 124.98 99.1545 124.864 99.3575C124.804 99.4621 124.744 99.5668 124.684 99.6718C124.629 99.7685 124.573 99.8655 124.517 99.9626C124.484 100.02 124.451 100.078 124.418 100.136C124.325 100.289 124.233 100.442 124.14 100.596C123.404 101.832 122.594 103.06 121.719 104.298C120.846 105.538 119.887 106.774 118.841 108.012C117.615 109.365 116.443 110.603 115.312 111.76C114.175 112.912 113.081 113.984 112.012 115.001C110.939 116.013 109.886 116.964 108.836 117.877C108.57 118.102 108.307 118.324 108.044 118.547C107.912 118.659 107.781 118.77 107.649 118.881C107.568 118.947 107.486 119.013 107.405 119.079C107.353 119.121 107.301 119.162 107.249 119.204C107 119.405 106.752 119.606 106.503 119.806L106.451 119.848C106.181 120.056 105.911 120.264 105.642 120.472L105.235 120.781L104.822 121.082C104.75 121.134 104.678 121.187 104.606 121.24C104.402 121.387 104.199 121.535 103.992 121.681C103.867 121.767 103.742 121.853 103.617 121.939C103.176 122.241 102.734 122.544 102.275 122.83C101.109 123.584 99.8767 124.283 98.5685 124.951C95.9467 126.269 92.9801 127.422 89.4711 128.202ZM102.095 118.014C102.384 117.983 102.718 117.858 103.101 117.662C103.376 117.521 103.668 117.33 103.99 117.115L104.036 117.083C104.182 116.984 104.334 116.88 104.489 116.766C104.658 116.638 104.835 116.504 105.019 116.366C105.202 116.226 105.392 116.08 105.589 115.929C105.782 115.775 105.983 115.614 106.189 115.449C106.423 115.267 106.662 115.074 106.908 114.875C107.1 114.719 107.298 114.559 107.501 114.397C107.643 114.287 107.784 114.173 107.927 114.057C108.021 113.981 108.115 113.904 108.211 113.828C108.355 113.712 108.502 113.597 108.652 113.48C108.754 113.401 108.857 113.32 108.96 113.239C109.337 112.937 109.734 112.635 110.143 112.323C110.285 112.216 110.427 112.108 110.571 111.998C112.318 110.483 113.72 108.956 114.927 107.415C111.185 111.524 106.865 115.1 102.095 118.014Z" fill="#2E2D2C"/>
</g>
</svg>
