<svg width="154" height="144" viewBox="0 0 154 144" fill="none" xmlns="http://www.w3.org/2000/svg">
<g clip-path="url(#clip0_224_314)">
<path d="M44.4914 76.6709C46.4885 79.2365 48.3908 81.9917 50.2864 84.8281C51.2342 86.2497 52.1413 87.7187 53.0688 89.1876C53.5291 89.9255 53.9963 90.6634 54.4431 91.4216C54.7816 91.9902 55.12 92.5656 55.4585 93.141C56.1626 94.3257 56.7922 95.6796 57.4827 97.1891L57.503 97.2365C57.503 97.2365 57.5166 97.2094 57.5233 97.2027L57.564 97.1214L57.652 96.959L57.828 96.6205L58.18 95.9232C58.4237 95.4494 58.6471 94.9484 58.8705 94.461C59.0872 93.9736 59.2903 93.4659 59.446 93.0327C59.9402 92.0308 60.4276 91.0357 60.9083 90.0541C61.4228 88.9778 61.9847 87.9421 62.4992 86.8928C65.417 80.7732 68.8831 74.7755 72.5185 68.8048C73.4663 67.3426 74.4208 65.8736 75.3754 64.4046C76.3367 62.9424 77.2845 61.4599 78.3067 60.0383C80.3377 57.1816 82.3212 54.264 84.474 51.502C92.916 40.285 102.143 29.8059 111.262 20.0917C111.939 20.7348 111.431 23.2869 113.3 22.0075C120.429 16.5987 121.755 17.9187 123.096 19.2117C123.766 19.8616 118.553 23.9436 120.74 23.0094C119.603 24.194 118.303 25.5885 117.071 26.956C115.866 28.3573 114.728 29.7247 113.889 30.8078C112.21 32.9808 111.736 34.0165 114.295 31.918C115.385 31.4374 117.199 29.4133 119.115 27.4772C121.045 25.5547 123.008 23.6728 124.267 23.3749C126.779 22.7792 124.782 26.8747 127.286 26.2858C128.031 25.5073 129.155 24.3362 130.279 23.1718C131.409 22.0075 132.567 20.877 133.325 20.1121C135.512 19.2523 133.785 23.6051 135.315 22.082C137.942 20.1391 140.65 17.5397 143.541 14.7303C146.425 11.9075 149.505 8.90182 152.578 5.89618C153.235 6.57313 155.408 5.76079 152.633 9.07783C148.408 13.2614 144.109 17.3975 139.993 21.6961C137.929 23.842 135.81 25.9406 133.785 28.1271C131.754 30.3069 129.724 32.4799 127.693 34.6596C119.67 43.4532 111.905 52.4836 104.662 61.8255C97.4112 71.1673 90.6955 80.8409 84.6839 90.8665C83.1471 93.3576 81.7322 95.9097 80.2903 98.455C79.5524 99.7142 78.8889 101.027 78.1984 102.314L76.3976 105.671C75.7003 107.032 74.9963 108.399 74.326 109.814L70.2303 118.229C69.5398 119.623 68.8696 121.051 68.1926 122.5L66.1684 126.826C63.4876 132.546 60.7999 138.273 58.1191 143.986C54.7545 137.244 51.3899 130.508 48.0253 123.773C47.179 122.114 46.3464 120.402 45.5001 118.777L42.9208 114.018C41.2081 110.836 39.4818 107.668 37.6877 104.649L36.1036 101.935L34.7835 99.748C33.8966 98.2926 33.0369 96.8168 32.123 95.3885L29.415 91.0695L26.6326 86.8183C22.8821 81.1997 19.0504 75.6555 14.9614 70.4565L13.4518 68.4866C12.9508 67.83 12.4092 67.2207 11.8947 66.5844L8.76705 62.7935L5.53107 59.1989C4.98948 58.61 4.46821 57.9669 3.90631 57.4253L2.23416 55.7533C0.900509 54.3046 0.243836 53.384 0.08136 52.8627C-0.135274 52.3211 0.277685 52.2399 0.954668 52.4092C1.63842 52.5852 2.66066 53.0455 3.85215 53.6683C4.4479 53.9797 5.08426 54.3317 5.7477 54.7108C6.07943 54.9003 6.41115 55.0966 6.74964 55.2929C7.07459 55.5096 7.39954 55.733 7.73126 55.9496C6.8715 55.3471 6.6684 54.8394 6.46531 54.3181C6.26221 53.8037 6.05912 53.2756 5.15873 52.7341C5.64616 52.2332 7.03397 52.267 9.11908 53.1538C10.1278 53.6412 11.299 54.3452 12.6123 55.2997C13.269 55.7803 13.9527 56.3219 14.6703 56.9244C15.3879 57.5269 16.0852 58.258 16.8231 59.0297C16.1191 58.2241 15.4624 57.3779 14.7245 56.6062L12.5446 54.264C11.4276 52.3821 13.5601 53.3027 14.2438 52.6732C15.7129 54.264 17.209 55.8345 17.534 55.5434C17.886 55.232 18.5833 54.616 18.9286 54.3114C18.2042 53.4855 17.0669 52.2941 15.9431 51.0823C14.8057 49.8841 13.7293 48.6386 12.9034 47.9007C13.7158 48.6453 14.4334 49.478 15.0494 50.0331C15.652 50.5949 16.1123 50.9199 16.2816 50.7574C16.62 50.4392 17.3038 49.8029 17.6423 49.4847C18.4885 50.2226 19.3686 51.123 20.2622 52.1045C21.1355 53.0996 21.975 54.2098 22.8347 55.3065C23.6877 56.4031 24.5543 57.493 25.3802 58.5152C26.1858 59.5577 26.9779 60.519 27.7564 61.3178L28.8531 60.4513C28.2574 59.5036 27.5262 58.4814 26.7206 57.4253C25.8879 56.3896 24.9605 55.3336 24.033 54.2843C23.0988 53.2418 22.1781 52.1925 21.2574 51.2177C20.3164 50.2632 19.4363 49.3561 18.6645 48.5303C20.5465 49.8638 20.8918 49.5524 21.5823 48.9296C22.8618 50.0872 23.9382 51.3937 25.0079 52.7138C26.064 54.0406 27.1268 55.3742 28.1355 56.7213C30.1123 59.4562 32.2651 62.0489 34.7767 64.3573C34.1065 63.4569 33.4566 62.5498 32.7729 61.6562L30.681 59.0026C31.8251 59.5306 33.0707 60.5393 34.2758 61.8796C35.4672 63.2268 36.679 64.8717 37.8841 66.6047C40.2332 70.1045 42.5079 73.9699 44.5185 76.6506L44.4914 76.6709Z" fill="#EF8D2B"/>
</g>
<defs>
<clipPath id="clip0_224_314">
<rect width="154" height="144" fill="white"/>
</clipPath>
</defs>
</svg>
