<svg width="100%" height="100%" preserveAspectRatio="none" viewBox="0 0 252 133" fill="none" xmlns="http://www.w3.org/2000/svg">
<path fill-rule="evenodd" clip-rule="evenodd" d="M0.908203 131.738V2.56478C2.01073 2.46608 3.19657 2.36697 4.33713 2.27164L4.33714 2.27164L4.33718 2.27164C4.93015 2.22208 5.51089 2.17354 6.06133 2.12662C9.55814 1.82851 11.8316 1.59129 8.10028 1.49472C8.67544 1.49936 9.24706 1.50274 9.81856 1.50613H9.81857H9.8186C11.0578 1.51346 12.2965 1.52079 13.5698 1.54091L14.9537 1.5577L15.2207 1.56119L15.2208 1.56119C15.591 1.56593 15.9575 1.57063 16.3606 1.58079L19.2559 1.65007L16.1261 1.97337L13.1339 2.33235C12.2721 2.43403 11.4274 2.54355 10.5851 2.65278L10.5846 2.65284L7.26686 3.08391C9.18073 3.22722 12.2029 3.16865 16.1174 3.09279L17.1227 3.07342C18.5262 3.05086 20.0138 3.02735 21.5613 3.0029L21.5741 3.0027L23.8716 2.96635C25.1273 2.94284 26.412 2.91933 27.7142 2.89551C28.8541 2.87465 30.0072 2.85355 31.1659 2.83199C31.3385 2.77838 31.509 2.72356 31.6823 2.66782C33.7888 1.99019 36.3157 1.17733 48.2625 0.764155L72.2024 0.787248L69.9622 1.49472L89.9235 1.13574L96.3972 3.02513C106.974 2.16651 116.264 2.61366 125.554 3.06922C134.847 3.52477 144.119 3.97823 154.727 3.17418L140.943 5.15595C144.807 5.43096 149.058 5.42046 153.22 5.36798C154.142 5.35593 155.058 5.34347 155.965 5.33115L155.967 5.33113L155.969 5.3311C157.115 5.31552 158.245 5.30016 159.35 5.28611C161.325 5.26511 163.181 5.26931 164.911 5.3008C171.163 4.9943 171.635 4.75078 170.052 4.55764C169.22 4.4552 167.822 4.35969 166.392 4.26202L166.392 4.26201C165.097 4.17354 163.776 4.0833 162.826 3.98452C168.548 4.08109 174.262 4.11888 179.976 4.10418C180.97 3.90772 182.2 3.69395 183.415 3.48279C183.784 3.41868 184.152 3.35482 184.511 3.29175C186.05 3.01253 187.434 2.73752 188.102 2.4898C188.767 2.23788 188.716 2.02165 187.391 1.84741C186.065 1.67316 183.466 1.5556 179.026 1.45483C190.044 1.22391 201.024 0.759956 211.94 0C212.624 0.36199 210.414 0.902709 208.321 1.41477C208.169 1.4521 208.017 1.48927 207.867 1.52621C205.66 2.06994 203.845 2.57797 206.205 2.86978C203.19 3.21827 200.167 3.55206 197.139 3.85646C200.891 3.95513 204.645 4.03071 208.402 4.0622C203.126 4.70879 199.038 5.20003 195.447 5.6073C191.853 6.00827 188.757 6.32947 185.454 6.57299C182.148 6.81442 178.636 6.98866 174.206 7.06214C173.485 7.07035 172.738 7.07768 171.964 7.08527L171.963 7.08528C171.551 7.08932 171.13 7.09345 170.702 7.09783C169.468 7.09993 168.168 7.09993 166.787 7.08943L166.633 7.08802C165.297 7.07587 163.89 7.06307 162.396 7.03275L157.436 6.93198C158.376 7.05374 159.33 7.1692 160.283 7.27837C161.231 7.38753 162.189 7.4904 163.152 7.58697C165.079 7.77381 167.039 7.93546 169.027 8.05932C173.003 8.31334 177.096 8.44979 181.289 8.48338C189.674 8.54636 198.465 8.20417 207.546 7.58487C208.68 7.50719 209.819 7.42742 210.963 7.33925C212.108 7.25528 213.257 7.1671 214.409 7.07053C214.711 7.04526 215.013 7.02056 215.316 6.99583C215.591 6.97332 215.867 6.95079 216.142 6.92778L216.583 6.89209C216.741 6.8795 216.894 6.8711 217.05 6.8627L217.978 6.81442L218.444 6.79132L218.91 6.78503L219.846 6.77873C220.085 6.77232 220.323 6.78181 220.561 6.79133C220.635 6.79428 220.709 6.79724 220.784 6.79972L221.722 6.83541C224.224 6.97607 226.727 7.38753 229.148 8.04462C230.364 8.36372 231.544 8.77729 232.709 9.22025L233.568 9.58133C233.649 9.61666 233.731 9.65113 233.813 9.68558L233.814 9.68592C234.018 9.77214 234.223 9.8582 234.419 9.95711C234.544 10.0177 234.67 10.0777 234.796 10.1377C235.228 10.3436 235.661 10.5497 236.073 10.7821C238.237 11.941 240.248 13.3202 241.991 14.9157C243.737 16.5049 245.269 18.2746 246.457 20.2018L246.898 20.9261C246.995 21.089 247.082 21.2558 247.168 21.4218C247.211 21.5039 247.254 21.5859 247.298 21.6672C247.558 22.1364 247.774 22.6209 247.991 23.1061L247.992 23.1081L248.021 23.1745C248.129 23.3986 248.216 23.6312 248.303 23.8631L248.303 23.864L248.623 24.7175L248.863 25.5047C248.882 25.5703 248.901 25.6358 248.921 25.7013C248.98 25.8977 249.04 26.0941 249.082 26.2941C249.609 28.4123 249.79 30.5872 249.62 32.7327C249.367 31.2296 248.957 29.42 248.159 27.4445C248.093 27.2937 248.027 27.1404 247.96 26.9858C247.918 26.8907 247.877 26.7951 247.835 26.6992C247.782 26.5733 247.728 26.4473 247.672 26.3193L247.622 26.2207C248.303 28.2951 248.66 30.4808 248.643 32.7393C248.551 45.7741 248.529 62.2846 248.537 78.0849C248.709 73.1982 248.824 68.3899 248.552 63.9812L252 85.1424C250.955 89.043 250.601 94.2703 250.415 99.6593C250.361 101.543 250.308 103.447 250.256 105.321L250.188 107.742C250.145 109.127 249.925 110.479 249.604 111.76C249.293 113.042 248.829 114.25 248.294 115.354C248.804 115.742 249.309 116.143 249.806 116.559C248.118 118.268 246.207 119.725 244.201 120.925L244.655 120.34C244.745 120.216 244.831 120.091 244.917 119.966L244.917 119.966C244.958 119.906 244.999 119.847 245.04 119.787C245.052 119.771 245.063 119.754 245.075 119.737C245.127 119.66 245.18 119.583 245.234 119.507L245.236 119.505C245.322 119.381 245.409 119.258 245.486 119.131L245.865 118.511C245.573 118.628 245.289 118.791 244.999 118.992C239.914 126.67 229.952 131.834 218.571 131.676L195.727 131.361C190.817 131.529 186.1 131.766 181.362 132.003L181.359 132.003C167.291 132.708 153.037 133.422 133.009 132.411C120.843 133.41 102.458 132.435 89.0242 131.722C83.1042 131.408 78.1459 131.145 75.1054 131.124C66.6012 130.973 60.4603 131.228 55.0377 131.454C47.5145 131.768 41.3741 132.023 32.2236 131.055L34.334 132.405C18.0384 132.216 7.95689 131.936 0.908203 131.738ZM248.977 80.1103L248.539 80.5884C248.545 88.8777 248.56 96.9077 248.577 104.064L248.679 105.336C249.299 100.076 249.134 90.0082 249.028 83.5767C249.006 82.2385 248.986 81.0577 248.977 80.1103Z" fill="white"/>
</svg>
