<svg width="100%" height="100%" viewBox="0 0 205 61" fill="none" xmlns="http://www.w3.org/2000/svg" preserveAspectRatio="none">
<g clip-path="url(#clip0_217_691)">
<path d="M204.827 0.0351448C204.827 0.0351448 204.827 0.0351448 204.826 0.0351448C204.831 0.0329107 204.837 0.0306765 204.843 0.0284424C204.837 0.0306765 204.832 0.0317936 204.827 0.0340278V0.0351448Z" fill="#EF8D2B"/>
<path d="M204.82 0.0390415C204.802 0.0486829 204.787 0.0615382 204.771 0.0733222C204.788 0.0593957 204.807 0.0465404 204.828 0.0358276C204.825 0.0368989 204.822 0.0379702 204.819 0.0390415H204.82Z" fill="#EF8D2B"/>
<path d="M204.767 0.0750206C204.767 0.0750206 204.767 0.0750206 204.766 0.0750206C204.767 0.0738988 204.769 0.072777 204.771 0.0716553C204.77 0.0716553 204.768 0.072777 204.767 0.0738988V0.0750206Z" fill="#EF8D2B"/>
<path d="M204.999 30.1021L204.673 18.2836C204.706 8.23905 204.787 0.34041 204.963 0.34041C204.873 0.357274 204.757 0.373083 204.619 0.386785C204.623 0.365705 204.627 0.343572 204.635 0.313006C204.637 0.306682 204.639 0.297196 204.642 0.286656C204.746 0.269792 204.848 0.251874 204.946 0.236064L204.646 0.268738C204.648 0.26136 204.65 0.253982 204.653 0.246604C204.661 0.225524 204.668 0.205498 204.683 0.17704C204.698 0.148582 204.717 0.122232 204.74 0.0979906L204.748 0.0895586C204.748 0.0895586 204.756 0.0811267 204.766 0.0737487C204.762 0.0769107 204.758 0.0790187 204.754 0.0821807C204.743 0.0916666 204.741 0.0948286 204.734 0.102207C204.712 0.125394 204.686 0.163338 204.675 0.184418C204.668 0.196012 204.663 0.20866 204.657 0.221308L204.643 0.251874L204.637 0.268738L204.552 0.278224L204.151 0.299304C203.885 0.31406 203.616 0.31406 203.349 0.322492C203.081 0.3246 202.814 0.326708 202.546 0.32987C202.279 0.32987 202.01 0.32987 201.744 0.32987C200.676 0.320384 199.612 0.311952 198.553 0.302466C196.434 0.284548 194.338 0.25082 192.259 0.31406L191.869 0.328816L191.476 0.355166C191.213 0.370975 190.961 0.399433 190.704 0.420513C190.192 0.466889 189.68 0.514319 189.171 0.555425C188.662 0.598639 188.154 0.640798 187.648 0.678742C187.143 0.718794 186.638 0.756738 186.136 0.79152C184.125 0.934863 182.144 1.04869 180.196 1.13723C172.404 1.50613 165.155 1.35435 158.752 1.19625C161.742 1.18255 164.036 1.17307 165.937 1.16463C167.842 1.15515 169.347 1.14461 170.769 1.11088C173.61 1.0371 176.107 0.933809 180.684 0.651338C179.072 0.689282 177.459 0.7072 175.847 0.713524C177.158 0.656608 178.469 0.589153 179.779 0.512211C178.772 0.496401 179.569 0.409973 180.541 0.313006C181.513 0.214984 182.66 0.100099 182.357 0.0568848C177.603 0.30352 172.842 0.409973 168.076 0.415243C169.993 0.438431 171.116 0.450025 171.686 0.473213C172.256 0.495347 172.273 0.523805 171.98 0.559641C171.395 0.62815 169.571 0.711416 168.451 0.773602C165.987 0.763062 163.517 0.766224 161.054 0.777818C162.775 0.813654 167.332 0.830518 161.949 0.946457C158.978 0.950673 155.025 1.06767 151.731 1.02656L157.607 0.702984C148.585 1.00759 141.776 0.611287 132.74 0.931701L129.988 0.705092L121.468 0.835788L122.428 0.731442L112.213 0.813654C110.837 0.841057 109.753 0.862137 108.887 0.879001C108.025 0.899027 107.38 0.913783 106.875 0.925377C105.861 0.955943 105.413 0.999157 104.924 1.03499C100.674 0.951727 96.5738 0.872677 94.8518 0.77044L99.7949 0.743036L95.2352 0.571235C98.3563 0.710362 91.4308 0.564911 90.3064 0.595477C85.1913 0.435269 83.3799 0.383623 82.0461 0.333032C80.7123 0.283494 79.8571 0.22974 76.6436 0.0916666C75.8086 0.0874506 74.9504 0.0832347 74.0865 0.0790187C73.6531 0.0737487 73.2169 0.0853426 72.7825 0.0863966C72.3472 0.0885046 71.9157 0.0948286 71.4891 0.102207C70.6357 0.116963 69.794 0.130664 68.9848 0.144366C68.1767 0.160176 67.3983 0.175986 66.6699 0.189688C63.7563 0.252928 61.6287 0.316168 61.4423 0.425783C55.3893 0.540669 49.1383 0.65977 42.9632 0.777818C39.8795 0.824194 36.8112 0.871623 33.8169 0.848436C33.444 0.843166 33.0712 0.837896 32.6993 0.83368C32.5148 0.830518 32.3264 0.831572 32.1448 0.82314C31.9622 0.815762 31.7806 0.809438 31.599 0.80206C31.4174 0.794682 31.2357 0.788358 31.0551 0.78098L30.7831 0.77044L30.5016 0.755684C30.1258 0.735658 29.7491 0.713524 29.3782 0.699822C27.8887 0.632366 26.4242 0.588099 24.9809 0.550155C23.2858 0.550155 21.5926 0.559641 19.9003 0.575451C16.0556 0.470051 12.8018 0.426837 9.79304 0.406811C8.28819 0.397325 6.84579 0.395217 5.4207 0.397325C3.60835 0.403649 1.81905 0.409973 -0.00195312 0.416297C0.00189069 1.44394 0.0057345 2.47897 0.00957831 3.52558C0.0134221 4.14428 0.0172659 4.77035 0.0220707 5.40486C0.0297583 6.67598 0.0384069 7.98504 0.0460945 9.35629C0.056665 12.0977 0.0681964 15.0837 0.0816498 18.4892L0.0249535 17.2623L0.176784 25.7765C0.0614697 37.4948 0.343029 42.0692 0.176784 55.6794C0.17294 56.433 0.170057 57.1655 0.166214 57.8717C0.164292 58.9573 0.16237 60.0008 0.160448 60.9947C1.85653 60.9947 3.44402 60.9947 4.9335 60.9947C6.11163 60.9873 7.21288 60.981 8.24494 60.9747C10.3081 60.9546 12.0926 60.9241 13.6638 60.884C16.8051 60.805 19.0922 60.6911 21.0391 60.5657C27.5178 60.4319 35.6696 60.6237 41.4901 60.6406L37.6933 60.7386L42.5346 60.8471C50.9055 60.7987 51.3552 60.8872 62.2639 60.7734C77.201 60.8904 74.9341 60.4456 81.2821 60.2822L95.5571 60.5499L95.2429 60.4909C103.682 60.1726 101.732 60.357 121.757 60.3423L120.845 60.1652C127.578 60.3602 130.477 60.084 139.144 60.0946C143.386 60.0851 156.397 60.3855 163.864 60.1599C175.302 60.2917 182.309 60.0282 190.619 59.9028H204.712C204.712 59.9028 204.695 55.7437 204.68 49.6242C204.693 49.4556 204.71 49.3101 204.73 49.1889L204.737 50.7393L204.996 47.5383L204.803 47.1536C204.864 41.9796 204.787 34.532 204.999 30.0979V30.1021ZM204.659 24.9196C204.662 22.8105 204.666 20.7373 204.671 18.7453C204.682 20.7057 204.672 22.7916 204.659 24.9196ZM202.225 0.459511C202.491 0.450025 202.747 0.435269 202.995 0.422621C203.243 0.411027 203.482 0.395217 203.709 0.378353C203.824 0.369921 203.935 0.36149 204.045 0.353058C204.153 0.341464 204.26 0.330924 204.364 0.320384C204.456 0.313006 204.545 0.301412 204.632 0.28771L204.63 0.294034L204.618 0.325654C204.612 0.34568 204.605 0.367813 204.598 0.388893C203.966 0.448971 202.883 0.474267 201.59 0.483753C201.806 0.476375 202.019 0.467943 202.226 0.459511H202.225ZM89.0399 1.73168C88.9611 1.75171 88.9803 1.77174 89.0841 1.79282C85.4863 1.69269 81.9952 1.59783 79.1661 1.52932C82.6208 1.54196 85.937 1.60204 89.0399 1.73168ZM24.3303 1.82444C26.996 1.92351 28.7055 1.98675 29.9202 2.03207C30.2239 2.04367 30.4977 2.05421 30.7466 2.05948C30.9955 2.06158 31.2213 2.06264 31.4298 2.06369C31.8479 2.06264 32.1996 2.06369 32.5445 2.04261C32.8886 2.02575 33.2259 2.00994 33.6112 1.99202C33.9975 1.97516 34.4328 1.95618 34.9758 1.933C35.5187 1.90981 36.1693 1.894 36.9841 1.86976C37.8 1.84235 38.7802 1.82444 39.9833 1.79387C46.0969 1.7886 56.6981 1.31219 60.4266 1.38492C56.1782 1.50929 53.7624 1.66212 51.287 1.8023C48.8116 1.94037 46.2775 2.07318 41.7937 2.12061C42.3251 2.12904 42.327 2.14485 41.9811 2.16382C36.964 2.25341 32.7694 2.27555 30.6899 2.15223C28.0819 1.99834 23.4145 1.87714 17.7334 1.79809C19.9945 1.79492 22.2047 1.80125 24.3284 1.82444H24.3303ZM204.673 41.5769L204.663 40.9034C204.657 36.6274 204.653 32.0098 204.656 27.4734L204.693 27.2415C204.695 30.3677 204.741 37.9659 204.672 41.5769H204.673Z" fill="#EF8D2B"/>
<path d="M204.842 0.0298757C204.86 0.0213055 204.878 0.0138066 204.897 0.00952148C204.878 0.0138066 204.86 0.0223768 204.842 0.0298757Z" fill="#EF8D2B"/>
<path d="M204.896 0.00857019C204.921 0.00321382 204.945 0 204.966 0C204.945 0 204.92 0.00321382 204.896 0.00857019Z" fill="#EF8D2B"/>
</g>
<defs>
<clipPath id="clip0_217_691">
<rect width="205" height="61" fill="white"/>
</clipPath>
</defs>
</svg>
