<svg width="100%" height="100%" viewBox="0 0 146 81" fill="none" xmlns="http://www.w3.org/2000/svg" preserveAspectRatio="none">
<path fill-rule="evenodd" clip-rule="evenodd" d="M0.908203 80.1751C4.49615 80.2597 9.00361 80.3467 14.8331 80.4141L13.5636 79.6011C19.0679 80.1845 22.7616 80.0305 27.2871 79.8418C30.5489 79.7057 34.2429 79.5517 39.3584 79.6428C41.1874 79.6552 44.17 79.8137 47.7311 80.0029C55.8118 80.4323 66.8712 81.0199 74.1894 80.4179C86.2369 81.027 94.811 80.5969 103.273 80.1724L103.275 80.1723C106.125 80.0293 108.963 79.887 111.916 79.7853L125.658 79.9755C132.503 80.0705 138.496 76.9601 141.555 72.3358C141.729 72.2149 141.9 72.1167 142.076 72.0465L141.848 72.4195C141.801 72.4968 141.749 72.5713 141.697 72.6458L141.696 72.6461C141.664 72.6921 141.632 72.7381 141.601 72.7849C141.569 72.8304 141.537 72.8764 141.506 72.9224L141.505 72.9239C141.453 72.9987 141.402 73.0737 141.348 73.1478L141.075 73.5005C142.281 72.7773 143.431 71.8998 144.446 70.8706C144.147 70.6203 143.844 70.3788 143.537 70.1449C143.859 69.4798 144.138 68.7528 144.325 67.9803C144.518 67.209 144.65 66.3948 144.676 65.5603L144.717 64.1021L144.721 63.9429C144.752 62.8658 144.782 61.7736 144.813 60.6925C144.925 57.4468 145.138 54.2986 145.766 51.9494L143.692 39.2045C143.856 41.8598 143.787 44.7557 143.683 47.6988C143.678 38.1827 143.692 28.2389 143.747 20.3884C143.757 19.0282 143.542 17.7117 143.133 16.4624L143.163 16.5218C143.197 16.5989 143.229 16.6747 143.261 16.7504L143.261 16.7506C143.286 16.8076 143.31 16.8643 143.335 16.9208C143.375 17.0148 143.416 17.1079 143.456 17.1995C143.936 18.3893 144.183 19.4791 144.334 20.3844C144.437 19.0922 144.328 17.7824 144.011 16.5066C143.986 16.3862 143.95 16.2679 143.914 16.1496C143.908 16.13 143.902 16.1103 143.897 16.0907C143.891 16.0709 143.885 16.0511 143.879 16.0312L143.735 15.5571L143.542 15.0431C143.49 14.9032 143.438 14.7629 143.373 14.6278L143.355 14.5878L143.355 14.5868C143.225 14.2945 143.094 14.0026 142.938 13.7199C142.911 13.671 142.886 13.6216 142.86 13.5722L142.859 13.5715C142.807 13.4717 142.755 13.3715 142.697 13.2736L142.432 12.8374C141.717 11.6767 140.796 10.6109 139.746 9.65374C138.697 8.69282 137.487 7.86213 136.186 7.1642C135.938 7.02419 135.678 6.90011 135.418 6.77609L135.415 6.775C135.34 6.73923 135.265 6.70345 135.191 6.66731C135.073 6.60771 134.95 6.55585 134.826 6.50391L134.826 6.50377C134.777 6.48302 134.728 6.46226 134.679 6.44098L134.162 6.22351C133.461 5.95673 132.752 5.70765 132.02 5.51547C130.564 5.11972 129.058 4.8719 127.553 4.78719L126.989 4.7657C126.944 4.7642 126.9 4.76243 126.855 4.76065L126.855 4.76064C126.711 4.75491 126.568 4.74919 126.424 4.75305L125.862 4.75685L125.581 4.76064L125.301 4.77455L124.743 4.80363C124.649 4.80869 124.557 4.81374 124.462 4.82133L124.197 4.84282C124.031 4.85668 123.865 4.87025 123.699 4.88381L123.697 4.88401C123.516 4.89883 123.335 4.91365 123.154 4.9288C122.461 4.98696 121.77 5.04007 121.081 5.09064C120.393 5.14374 119.708 5.19179 119.026 5.23857C113.563 5.61156 108.275 5.81765 103.231 5.77972C100.709 5.75949 98.2472 5.67731 95.8555 5.52432C94.6596 5.44972 93.4807 5.35236 92.3216 5.23984C91.7421 5.18167 91.1657 5.11972 90.5954 5.05397C90.022 4.98823 89.4486 4.91869 88.8829 4.84535L91.8663 4.90604C92.7653 4.9243 93.6117 4.93201 94.4151 4.93933L94.5079 4.94018C95.3388 4.9465 96.1207 4.9465 96.8628 4.94524L97.6217 4.93768C98.0875 4.9331 98.5367 4.92869 98.9708 4.92374C101.635 4.87949 103.748 4.77455 105.736 4.62915C107.723 4.48248 109.586 4.28903 111.748 4.04754C113.908 3.80225 116.367 3.50639 119.541 3.11696C117.281 3.098 115.023 3.05248 112.766 2.99305C114.587 2.80972 116.405 2.60869 118.219 2.3988C116.799 2.22305 117.891 1.91708 119.219 1.58961L119.492 1.52249C120.751 1.21409 122.08 0.888427 121.669 0.67041C115.102 1.12811 108.498 1.40754 101.87 1.54662C104.541 1.60731 106.104 1.67811 106.902 1.78305C107.699 1.888 107.729 2.01823 107.329 2.16995C106.928 2.31915 106.095 2.48478 105.169 2.65294C104.957 2.69033 104.739 2.7282 104.521 2.7662L104.51 2.768L104.51 2.76806C103.779 2.89522 103.039 3.02394 102.442 3.14225C99.0045 3.1511 95.5673 3.12834 92.1254 3.07018C92.6966 3.12966 93.4911 3.18401 94.27 3.23728L94.2704 3.23731C95.1304 3.29613 95.9715 3.35365 96.4718 3.41535C97.4239 3.53167 97.1402 3.67834 93.3795 3.86294C92.3385 3.84397 91.2224 3.84144 90.0342 3.85409C89.3698 3.86255 88.6902 3.8718 88.0011 3.88118L87.9992 3.8812C87.4534 3.88863 86.9017 3.89614 86.3471 3.9034C83.8435 3.93501 81.2862 3.94133 78.962 3.7757L87.2531 2.58213C80.8723 3.06639 75.2948 2.79328 69.705 2.51892C64.1168 2.24455 58.5286 1.97524 52.1661 2.49236L48.272 1.35443L36.2646 1.57064L37.6122 1.14455L23.2116 1.13064C16.0252 1.37948 14.5051 1.86904 13.238 2.27716L13.238 2.27716C13.1338 2.31073 13.0312 2.34375 12.9274 2.37604C12.2304 2.38902 11.5368 2.40173 10.8512 2.41429L10.8511 2.4143L10.8508 2.4143C10.0676 2.42865 9.29489 2.44281 8.53961 2.45696L7.15761 2.47885L7.15395 2.47891C6.22162 2.49366 5.32545 2.50784 4.4799 2.52144L3.87521 2.53311C2.76157 2.55472 1.76798 2.574 0.908203 2.57919V80.1751ZM0.908203 2.22134V1.58275C1.38161 1.58621 1.85801 1.59079 2.34274 1.59846L3.1752 1.60857L3.33585 1.61067L3.33587 1.61067C3.55857 1.61353 3.77906 1.61636 4.0215 1.62248L5.76312 1.6642L3.88043 1.85892L2.08055 2.07512C1.68509 2.12184 1.29563 2.1713 0.908203 2.22134ZM143.948 48.9187L143.684 49.2066C143.688 54.199 143.697 59.0352 143.707 63.3452L143.769 64.1113C144.142 60.9433 144.042 54.8799 143.978 51.0064V51.0054C143.965 50.1998 143.954 49.489 143.948 48.9187Z" fill="#EF8D2B"/>
</svg>
