<svg width="100%" height="100%" preserveAspectRatio="none" viewBox="0 0 383 77" fill="none" xmlns="http://www.w3.org/2000/svg">
<path d="M383 17.5174C383.055 7.37276 374.487 -0.715949 364.406 0.0502936C364.359 0.0543406 364.313 0.0570387 364.27 0.0610858C353.278 1.0081 342.185 1.34535 331.162 1.34535C318.047 1.34535 257.555 2.24515 248.48 2.22356C241.01 2.20602 109.041 1.17942 101.571 1.15379C92.0416 1.12006 50.8411 2.59454 41.3255 2.07922C36.8387 1.83639 27.9981 1.65832 17.5171 1.56524C7.86846 1.48025 0 9.30321 0 18.9838V58.5828C0 68.2027 7.77299 76 17.3598 76H365.614C375.217 76 382.997 68.1784 382.974 58.5437C382.946 46.2582 382.931 29.8703 382.998 17.5187L383 17.5174Z" fill="#2E2D2C"/>
<path d="M380.862 38.4034C380.918 45.8103 381 52.6507 381.118 58.5487C381.072 62.1889 379.804 65.5145 377.815 68.0523C375.835 70.6061 373.196 72.4055 370.399 73.3572C370.053 73.4852 369.695 73.5771 369.343 73.6811C369.165 73.7278 368.987 73.7664 368.809 73.8091L368.543 73.873L368.274 73.9224C367.56 74.0716 366.839 74.1383 366.121 74.1889C365.433 74.2196 364.611 74.2183 363.836 74.2262C363.054 74.2329 362.277 74.2409 361.503 74.2476C358.407 74.2822 355.365 74.3156 352.316 74.3489C340.117 74.4968 327.778 74.6688 311.215 74.5821C281.769 74.5928 260.901 74.7781 232.631 74.5968C223.427 75.4072 177.607 74.4595 156.625 74.986C142.547 75.0846 134.912 75.3992 145.649 75.5338C126.192 75.5658 131.193 75.2166 114.935 75.3566L120.417 75.0833C115.063 75.0167 109.141 74.874 102.114 74.9234L94.1908 75.2019C74.8557 74.8927 63.8804 75.4405 42.8854 75.2473C56.5661 75.4525 36.622 75.4085 38.1467 75.6338C34.9554 75.5258 22.2867 75.4698 26.6198 75.3872C24.3991 75.3765 22.1997 75.3752 20.0311 75.3792C19.7607 75.3792 19.489 75.3792 19.2199 75.3805C18.9509 75.3805 18.6778 75.3859 18.4181 75.3765L18.0245 75.3685C17.8934 75.3672 17.7622 75.3632 17.6323 75.3512C17.3713 75.3299 17.1103 75.3179 16.8519 75.2912C15.8145 75.1899 14.7971 74.986 13.8159 74.6994C11.8508 74.1263 10.0316 73.2053 8.4534 72.0403C6.87382 70.8754 5.54993 69.4558 4.50446 67.9243C3.97838 67.1592 3.53798 66.3542 3.16182 65.5398C2.78835 64.724 2.47511 63.895 2.25022 63.0579C2.18597 62.8513 2.13912 62.6407 2.09093 62.4315C2.04274 62.2222 1.98785 62.0169 1.95439 61.8063C1.91691 61.5971 1.87809 61.3905 1.84061 61.1839C1.81383 60.9759 1.78706 60.768 1.76029 60.5628C1.7295 60.3575 1.71611 60.1509 1.70139 59.9456C1.68934 59.7404 1.66391 59.5378 1.66123 59.3338C1.65186 58.9273 1.63981 58.5274 1.64517 58.1222C1.65721 54.9006 1.70273 51.9922 1.80312 49.4717L1.67863 42.9859C1.59296 37.445 1.60367 32.4733 1.64383 27.6123C1.66792 25.1824 1.69202 22.7792 1.71611 20.3466C1.72013 20.0427 1.72281 19.7388 1.72682 19.4336C1.73887 19.135 1.74556 18.8351 1.76163 18.5352C1.78974 18.2367 1.80848 17.9368 1.84462 17.6369C1.8888 17.3383 1.91958 17.0384 1.97581 16.7398C2.18329 15.5469 2.52062 14.3633 2.99316 13.2103L3.08552 12.8744L3.19395 12.5439C3.26891 12.3239 3.33317 12.0987 3.42152 11.8841C4.14036 10.3899 5.27819 8.69181 6.85107 7.18031C7.6355 6.42589 8.52434 5.71945 9.49351 5.10499C10.4613 4.48919 11.5081 3.96536 12.5911 3.5575C13.674 3.14963 14.7944 2.85773 15.9002 2.68578C16.1759 2.63513 16.453 2.60848 16.7274 2.57782C16.8653 2.56449 17.0005 2.54316 17.137 2.5365C17.2736 2.5285 17.4101 2.5205 17.5453 2.51251C17.6805 2.50451 17.8157 2.49651 17.9496 2.48851C18.0834 2.48851 18.2173 2.48585 18.3498 2.48585C18.6149 2.48318 18.8772 2.48052 19.1396 2.48851C21.2372 2.52717 23.1167 2.57782 24.5891 2.63113C29.0387 2.71111 33.7654 2.77909 38.638 2.91104C39.8561 2.94437 41.0823 2.98435 42.3138 3.04033C43.5521 3.08165 44.8037 3.11897 46.0526 3.11364C47.3029 3.12564 48.5585 3.10831 49.8155 3.09632C51.0738 3.08965 52.3334 3.055 53.5957 3.035C63.6876 2.82041 73.8478 2.4192 83.0494 2.10597C92.1869 1.96069 94.7677 1.84073 97.1291 1.69144C97.7194 1.65546 98.2963 1.6208 98.959 1.58081C99.6216 1.54349 100.369 1.50084 101.303 1.47285C101.769 1.45952 102.284 1.43819 102.854 1.43153C103.425 1.42486 104.054 1.4182 104.753 1.4102C106.151 1.39821 107.834 1.39288 109.898 1.39554C120.378 1.56748 138.561 1.47951 144.945 1.74343C130.379 1.66212 128.359 2.06732 112.993 1.86739C115.929 1.95936 109.435 1.95136 103.919 1.95802C102.538 1.95402 101.223 1.97668 100.129 1.99934C99.0353 2.02867 98.1652 2.05532 97.6819 2.07932C96.7141 2.1313 97.2924 2.15129 100.713 2.16196C102.553 2.12064 104.43 2.12863 106.327 2.12197C108.225 2.12197 110.146 2.12064 112.085 2.1193C115.966 2.12863 119.926 2.1393 123.931 2.14863C131.941 2.19528 140.134 2.2446 148.251 2.29125C164.484 2.40054 180.415 2.50984 193.972 2.43387C191.952 2.83907 227.646 2.9257 239.545 2.9537L240.308 3.07232C242.866 3.10298 245.257 3.1323 247.66 3.16163C250.063 3.18962 252.479 3.16429 255.08 3.14297C260.283 3.09098 266.238 2.99368 274.363 2.82574C284.084 2.69245 293.739 2.5445 303.014 2.4432C312.29 2.3459 321.188 2.27658 329.388 2.35389C335.432 2.42853 341.776 2.39121 348.038 2.14463C351.169 2.02333 354.28 1.85672 357.325 1.64613C358.847 1.54083 360.353 1.4222 361.838 1.29691C362.579 1.23026 363.315 1.16362 364.045 1.09831C364.402 1.06765 364.761 1.05432 365.116 1.03166C365.294 1.03166 365.472 1.03033 365.649 1.02899C365.827 1.03033 366.003 1.021 366.18 1.03433C367.592 1.08098 368.972 1.29957 370.28 1.66612C371.589 2.03 372.816 2.56049 373.944 3.18828C376.202 4.44787 378.031 6.13931 379.372 7.94006C380.719 9.74346 381.585 11.6442 382.106 13.3863C382.616 15.135 382.795 16.7238 382.826 18.0207C382.834 17.0944 382.779 16.168 382.653 15.251C382.514 14.3366 382.308 13.4329 382.037 12.5505C381.755 11.6708 381.404 10.8178 380.995 9.99271C380.584 9.16899 380.094 8.38791 379.561 7.64282C379.029 6.89373 378.423 6.20463 377.78 5.55551C377.616 5.39689 377.461 5.22895 377.289 5.07833L376.779 4.62248C376.426 4.33457 376.079 4.03867 375.706 3.77876C375.343 3.50285 374.956 3.26293 374.576 3.01634C374.184 2.78842 373.795 2.55383 373.388 2.35389L373.087 2.19794C372.987 2.14729 372.881 2.10331 372.779 2.05532C372.573 1.96335 372.37 1.86472 372.16 1.77941L371.529 1.5315C371.32 1.44752 371.102 1.38488 370.891 1.31157L370.571 1.20494L370.245 1.1143C370.029 1.05699 369.813 0.990341 369.595 0.939691L368.938 0.794405C368.719 0.743755 368.496 0.717098 368.276 0.677111L367.946 0.622462C367.835 0.605134 367.723 0.595804 367.612 0.582475C367.39 0.558483 367.168 0.530492 366.946 0.510499C366.5 0.48784 366.056 0.447853 365.611 0.457183H365.278L365.112 0.45585L364.946 0.463847L364.282 0.49717C363.837 0.525161 363.41 0.567813 362.975 0.602469C362.109 0.677111 361.246 0.742423 360.385 0.807734C356.944 1.06898 353.549 1.26492 350.21 1.41687C343.535 1.7181 337.089 1.81674 330.945 1.77408C324.794 1.74743 318.948 1.72743 313.462 1.6128C318.585 1.58081 322.515 1.55682 325.774 1.5355C329.032 1.50351 331.625 1.49817 334.057 1.45819C336.492 1.4182 338.78 1.35555 341.438 1.25692C344.097 1.15562 347.129 1.021 351.05 0.790407C348.287 0.87038 345.524 0.919698 342.761 0.942357C345.008 0.857051 347.255 0.757084 349.499 0.634458C347.775 0.626461 349.141 0.513165 350.806 0.366546C352.471 0.223926 354.436 0.0466513 353.92 0C349.849 0.218595 345.773 0.367879 341.693 0.458516C339.653 0.502501 337.612 0.535824 335.571 0.553151L332.51 0.570479L329.439 0.578476C331.095 0.587807 332.393 0.605134 333.407 0.61713C334.42 0.627793 335.144 0.643788 335.633 0.655784C336.609 0.682442 336.638 0.719763 336.136 0.763749C335.634 0.809067 334.602 0.855719 333.455 0.901037C332.308 0.945023 331.048 0.985009 330.083 1.02899C325.851 1.02366 321.629 1.04899 317.406 1.07298C320.356 1.11297 328.162 1.1063 318.94 1.28225C313.849 1.30357 307.073 1.46885 301.431 1.43153L311.499 0.995673C296.039 1.4222 284.37 0.95302 268.888 1.38888L264.173 1.1103C259.31 1.17028 254.433 1.23959 249.587 1.26492L251.226 1.14362H249.049L246.862 1.1263L242.483 1.08231L233.726 0.995673C224.258 0.981011 222.854 1.12363 221.18 1.22893C213.885 1.18761 206.859 1.18628 203.903 1.09431L212.372 0.95302L204.552 0.833059C209.904 0.938358 198.032 0.910367 196.108 0.974346C178.569 0.80107 183.698 0.867715 172.697 0.61713C161.317 0.666447 147.376 0.323893 146.728 0.585141C136.349 0.431858 125.631 0.315896 115.041 0.218595C112.393 0.195936 109.755 0.171943 107.131 0.149284C105.819 0.138621 104.512 0.127958 103.208 0.117295C102.56 0.107965 101.899 0.114629 101.241 0.117295C100.583 0.117295 99.9308 0.125292 99.2829 0.135955C94.0917 0.209265 89.0143 0.341221 84.0829 0.458516L75.4046 0.835725C69.5561 0.934359 64.5069 1.021 59.8431 1.09964C55.1833 1.17295 50.9051 1.25159 46.6269 1.24226C46.0928 1.23826 45.56 1.23559 45.0245 1.2316C44.7555 1.2316 44.4918 1.2236 44.2281 1.2156C43.9644 1.2076 43.6993 1.20094 43.4343 1.19294C43.1692 1.18494 42.9042 1.17828 42.6378 1.17028C42.362 1.15829 42.0849 1.14629 41.8078 1.13429C41.255 1.1143 40.6981 1.09431 40.1386 1.07431C37.9031 1.00234 35.6194 0.958351 33.2233 0.918365C30.8285 0.879711 28.3239 0.850387 25.6574 0.823729C24.3241 0.811733 22.9507 0.799737 21.5304 0.787741C20.8209 0.782409 20.0981 0.777078 19.3645 0.771746C19.1798 0.771746 18.995 0.76908 18.809 0.76908C18.6082 0.773079 18.406 0.775745 18.2039 0.779744L17.9001 0.785075C17.7983 0.789074 17.6966 0.798404 17.5948 0.803736C17.3914 0.818398 17.1866 0.831726 16.9804 0.846388C17.3258 0.813066 17.6711 0.766415 18.0178 0.745088L18.5386 0.717097L18.7996 0.703769L19.0432 0.695771H18.8344L18.6082 0.703769L18.1557 0.717097C17.8545 0.719763 17.5533 0.754419 17.2522 0.777078C16.951 0.795738 16.6525 0.838391 16.3526 0.879711C16.2027 0.901037 16.0528 0.917032 15.9042 0.942357L15.4584 1.02366C14.2724 1.24492 13.1091 1.58081 11.9914 2.02467C9.75454 2.91104 7.70243 4.23061 5.97695 5.8794C4.15642 7.54152 2.80977 9.42757 1.86068 11.3483C1.39083 12.312 1.02137 13.2863 0.736242 14.2553C0.587655 14.7392 0.480565 15.2257 0.370798 15.7068C0.283788 16.192 0.191423 16.6692 0.140555 17.149C0.12583 17.269 0.111106 17.3876 0.0963808 17.5062C0.0816559 17.6249 0.0763014 17.7448 0.0669311 17.8635C0.0508676 18.1007 0.0294497 18.3366 0.0187407 18.5726C0.0133862 18.8085 0.00803173 19.0431 0.00401587 19.2763L0 19.4509V19.6149L0.00133862 19.9374C0.00669311 20.7958 0.0120476 21.6422 0.0160635 22.4819C0.0281111 24.1614 0.0401587 25.8142 0.0522062 27.491C0.101735 34.1954 0.141894 41.2691 0.0254338 51.8563C0.0200793 53.2811 0.0133862 54.658 0.00803173 55.9869C0.00669311 56.652 0.00401587 57.3052 0.00267724 57.9463C0.00267724 58.2715 -0.00267725 58.5727 0.00937035 58.9246C0.0174021 59.2645 0.0214179 59.6017 0.0535449 59.935C0.240952 62.6074 0.999951 65.0346 2.07085 67.0859C2.6063 68.1136 3.21939 69.0506 3.87933 69.8983C4.53927 70.7461 5.24874 71.5058 5.98899 72.1736C6.72791 72.8427 7.48959 73.4292 8.2593 73.941C9.03436 74.4435 9.81344 74.874 10.5885 75.2379C10.7826 75.3272 10.9794 75.4085 11.1708 75.4925C11.2672 75.5338 11.3636 75.5751 11.4586 75.6165C11.5563 75.6525 11.6527 75.6898 11.7491 75.7258C11.9418 75.7977 12.1333 75.8684 12.322 75.9377C12.5148 75.999 12.7049 76.059 12.8936 76.119C12.9886 76.1483 13.0824 76.1776 13.1761 76.2069C13.2711 76.2323 13.3648 76.2563 13.4598 76.2816C13.6472 76.3309 13.8333 76.3789 14.018 76.4269C14.2041 76.4695 14.3888 76.5055 14.5722 76.5442C14.7556 76.5801 14.935 76.6241 15.1171 76.6481C15.4798 76.7014 15.8332 76.7681 16.1853 76.7974C16.3606 76.8147 16.5347 76.8334 16.706 76.8507C16.8787 76.868 17.05 76.8707 17.2187 76.8814C17.3887 76.8894 17.556 76.8974 17.722 76.9067C17.888 76.9067 18.054 76.9067 18.2173 76.9067C18.3806 76.9067 18.5413 76.9054 18.7005 76.904C18.8518 76.9 19.0004 76.8947 19.149 76.8907C21.521 76.8161 23.5611 76.7321 25.4204 76.6441C36.5243 76.4748 50.4942 76.7174 60.4682 76.7388L53.9612 76.8627L62.258 77C76.604 76.9387 77.3737 77.0507 96.0689 76.9067C121.667 77.0547 117.783 76.4922 128.662 76.2856L153.125 76.6241L152.587 76.5495C167.049 76.147 163.708 76.3802 198.026 76.3615L196.463 76.1376C208.002 76.3842 212.971 76.035 227.824 76.0483C235.094 76.0363 257.392 76.4162 270.187 76.131C296.299 76.3536 308.935 75.6884 331.326 75.7284C344.775 75.8964 354.36 75.5018 356.931 75.8764L354.509 75.8804L359.508 76.2509L360.111 75.9843C361.121 75.9937 362.187 76.0043 363.293 76.0137C363.845 76.0163 364.408 76.0203 364.978 76.0243C365.121 76.0243 365.264 76.0243 365.408 76.0257C365.554 76.023 365.698 76.0203 365.845 76.0163C365.991 76.0137 366.139 76.0097 366.286 76.007C366.433 75.9963 366.58 75.9857 366.727 75.975C369.089 75.8137 371.508 75.1326 373.655 73.9997C375.81 72.8774 377.668 71.3032 379.092 69.5944C379.807 68.7401 380.418 67.8537 380.926 66.974C381.434 66.0929 381.838 65.2199 382.166 64.3948L382.344 63.8203L382.492 63.2379C382.517 63.1406 382.543 63.0446 382.566 62.9473L382.626 62.6527C382.665 62.4568 382.708 62.2609 382.743 62.0649C382.799 61.6691 382.873 61.2772 382.903 60.8786C382.922 60.68 382.946 60.4828 382.96 60.2842L382.989 59.6884C383.002 59.4898 383 59.2912 383 59.0926L382.997 58.4981L382.968 57.3292L382.909 54.9912L382.67 45.637C382.692 47.9309 382.695 50.3488 382.688 52.8306C382.683 54.0716 382.677 55.3285 382.672 56.5947C382.668 57.2278 382.664 57.8636 382.661 58.4994C382.652 58.818 382.644 59.1352 382.634 59.4538C382.606 59.771 382.589 60.0896 382.554 60.4068C382.601 60.2389 382.632 60.0682 382.672 59.899C382.66 60.0509 382.652 60.2095 382.634 60.3748C382.614 60.5388 382.593 60.7107 382.571 60.8866C382.561 60.9746 382.55 61.0653 382.538 61.1559C382.526 61.2465 382.507 61.3385 382.491 61.4318C382.459 61.6184 382.424 61.8117 382.391 62.0089C382.227 62.794 382.001 63.6524 381.681 64.5414C381.035 66.3142 379.985 68.1936 378.582 69.8197C377.189 71.4525 375.455 72.8174 373.703 73.7571C372.826 74.2263 371.949 74.5941 371.121 74.8767C370.294 75.1673 369.505 75.3392 368.814 75.4765C371.026 75.006 373.134 74.0956 374.984 72.82C373.352 73.8677 372.35 74.2183 371.936 74.3809C371.51 74.5248 371.643 74.4502 372.058 74.2622C372.261 74.1596 372.534 74.0237 372.845 73.869C373.146 73.6998 373.493 73.5278 373.822 73.3172C373.988 73.2133 374.161 73.1186 374.32 73.0093C374.481 72.9014 374.639 72.7961 374.79 72.6948C375.091 72.4882 375.354 72.2829 375.57 72.1256C377.111 70.9833 378.216 69.785 379.048 68.6907C379.87 67.5858 380.424 66.5821 380.833 65.6997C380.93 65.4771 381.032 65.2665 381.112 65.0586C381.193 64.8507 381.27 64.6507 381.344 64.4588C381.415 64.2655 381.471 64.0763 381.531 63.8963C381.561 63.8057 381.59 63.7177 381.618 63.6297C381.646 63.5418 381.667 63.4551 381.691 63.3698C381.736 63.1992 381.78 63.0339 381.823 62.874C381.866 62.714 381.893 62.5554 381.928 62.4021C381.96 62.2489 381.99 62.0996 382.02 61.9516C382.043 61.8037 382.065 61.6584 382.087 61.5144C382.108 61.3705 382.132 61.2292 382.15 61.0879C382.163 60.9453 382.178 60.804 382.191 60.6627C382.205 60.5214 382.222 60.3788 382.231 60.2362C382.238 60.0922 382.245 59.947 382.251 59.799C382.257 59.6511 382.27 59.5018 382.269 59.3471C382.269 59.1925 382.269 59.0353 382.269 58.8726C382.272 58.5514 382.26 58.1969 382.253 57.8183C382.223 56.3028 382.198 54.3421 382.185 51.3724C382.219 48.6973 382.253 43.6097 382.33 45.493C382.285 38.4967 382.494 20.0161 382.227 19.4016C382.243 18.7952 382.25 18.5646 382.265 18.0154C381.795 20.356 381.32 28.2507 380.871 38.4034H380.862Z" fill="#2E2D2C"/>
</svg>
