<?xml version="1.0" encoding="UTF-8"?><svg id="Laag_1" xmlns="http://www.w3.org/2000/svg" viewBox="0 0 360 360"><defs><style>.cls-1{fill:#ffffff;}</style></defs><path class="cls-1" d="m0,0v359.61h360V0H0Zm147.78,345.53c-8.61-1.42-16.93-3.25-24.84-5.53-3.9-1.31-7.78-2.45-11.42-4.02-1.83-.77-3.67-1.43-5.4-2.3-1.74-.84-3.46-1.69-5.14-2.55-1.7-.82-3.27-1.86-4.85-2.79-1.56-.99-3.13-1.89-4.56-2.98-2.88-2.15-5.66-4.24-8.04-6.69,2.52,1.83,4.88,3.22,6.98,4.5,1.06.63,2.04,1.25,3,1.78.98.51,1.9.98,2.78,1.44,1.77.88,3.34,1.7,4.86,2.35,1.53.63,2.95,1.18,4.34,1.69,2.75,1.09,5.47,1.77,8.57,2.63.78.21,1.58.43,2.42.66.85.19,1.74.39,2.68.6,1.87.4,3.9.93,6.22,1.39-1.54-.62-3.03-1.4-4.54-2.08-1.5-.72-3.02-1.37-4.48-2.15,2.59.71,5.22,1.28,7.81,1.93-1.75-1.24-.05-1.2,2-1.18,2.06,0,4.42.08,4.01-.68-9.13-2.57-18.03-5.93-26.58-10.04,6.71,3.65,7.7,4.74,6.38,4.84-1.32.1-4.95-.82-7.31-1.18-2.21-1.17-4.39-2.41-6.58-3.6-2.17-1.23-4.27-2.6-6.4-3.89,2.7,2.23,10.55,7.33.65,2.49-2.61-1.56-5.62-3.43-8.7-5.34-1.56-.94-3-2.07-4.45-3.14-1.42-1.11-2.84-2.17-4.01-3.41l1.38.66,1.42.6,2.81,1.2,2.79,1.19c.93.39,1.9.71,2.84,1.07-2.08-.97-3.94-2.16-5.73-3.36-.9-.6-1.77-1.21-2.62-1.82-.86-.61-1.64-1.31-2.43-1.97-1.57-1.35-3.11-2.67-4.54-4.09-1.4-1.45-2.78-2.89-4.17-4.33-5.38-5.92-10.33-12.01-16.91-18.27l-1.24-5.99c-3.48-4.37-6.67-8.97-9.7-13.67l1.83,1.08-1.31-2.13c-.44-.71-.81-1.46-1.22-2.18l-2.41-4.38c-.79-1.47-1.47-2.99-2.22-4.47-.72-1.5-1.5-2.97-2.12-4.51-1.2-2.41-2.25-4.27-3.1-5.76-.8-1.51-1.48-2.61-2.07-3.45-1.18-1.68-2.05-2.31-2.82-3.06-.71-1.99-1.42-3.96-2.09-5.84-.17-.47-.34-.94-.51-1.4-.14-.47-.28-.93-.42-1.38-.27-.91-.54-1.79-.79-2.63-.48-1.69-.99-3.22-1.23-4.58-.27-1.35-.44-2.49-.49-3.36.65,1.53,1.24,3.06,1.93,4.56l2.13,4.45-.98-4.37c-.35-1.45-.53-2.94-.8-4.4.42,3.04-.24,1.29-1.16-1.49-1-2.76-1.84-6.64-2.39-7.67-.18-1.25-.42-2.39-.52-3.46-.11-1.07-.22-2.04-.32-2.93-.19-1.79-.35-3.26-.49-4.49-.14-2.49-.2-4.04-.22-5.36,0-1.32-.04-2.4.12-3.95.14-1.54.32-3.55.61-6.71-.16-1.63-.15-3.3-.18-4.99v-2.54c0-.85.03-1.69.11-2.52.14-1.67.28-3.31.42-4.89.08-.79.13-1.56.22-2.32.11-.75.22-1.48.32-2.19.2-1.41.38-2.73.53-3.92.06-.6.12-1.16.18-1.69.07-.52.14-1.01.18-1.46.18-1.8.1-2.97-.4-3.25,2.77-11.63,6.52-23.37,11.54-34.4,4.97-11.04,11-21.42,17.64-30.53l1.17-2.22,1.27-2.16,2.55-4.35c1.17-1.22,2.3-2.4,3.39-3.54,1.09-1.14,2.1-2.28,3.19-3.3,1.05-1.05,2.07-2.06,3.06-3.06.5-.5.97-1,1.46-1.48.5-.47.99-.93,1.48-1.39,1.97-1.82,3.74-3.68,5.66-5.32.93-.85,1.86-1.69,2.78-2.52.46-.42.91-.85,1.38-1.26l1.42-1.19c3.75-3.24,7.65-6.39,12.14-9.6,2.28-1.55,4.6-3.29,7.27-4.83,1.32-.8,2.67-1.62,4.08-2.48,1.44-.79,2.94-1.57,4.5-2.4l-1.68,1.58c2.15-1.4,4.27-2.9,6.51-4.17,2.23-1.29,4.42-2.71,6.74-3.87,1.27-.41,2.49-.82,3.65-1.23.58-.21,1.15-.41,1.72-.61.57-.18,1.13-.35,1.68-.52,2.21-.69,4.25-1.42,6.21-2.1,3.98-1.2,7.56-2.54,11.37-3.53,7.54-2.12,15.78-4.02,28.24-3.77,13.36-.16,23,.36,30.49.57,7.5.16,12.88.01,17.54-.36.83.1,1.67.22,2.52.35.84.17,1.69.36,2.54.56,1.71.4,3.44.86,5.19,1.35,1.73.54,3.45,1.19,5.18,1.81l2.59.97c.86.33,1.69.74,2.53,1.1,1.67.76,3.33,1.52,4.96,2.26,1.61.79,3.16,1.64,4.7,2.43,3.09,1.52,5.88,3.25,8.51,4.62l-3.67-1.31c-1.22-.43-2.43-.89-3.68-1.24,1.43.81,2.76,1.79,4.14,2.68,1.36.92,2.74,1.8,4.07,2.74,3.7,2.02,6.57,3.5,8.89,5.07,2.35,1.52,4.38,2.77,6.42,4.3,2.05,1.5,4.32,2.97,7.04,5.08,1.36,1.05,2.95,2.12,4.65,3.46,1.7,1.35,3.61,2.85,5.77,4.56,5.32,5.37,9.04,9.23,11.93,12.04,2.84,2.86,5.03,4.5,6.77,5.84,1.79,1.3,3.33,2.13,5.02,3.22,1.62,1.14,3.36,2.57,5.63,5.02,4.82,8.72,8.83,17.79,12.01,27.06l.29-.84c1.25,1.81,2.37,3.34,3.21,4.77.84,1.43,1.56,2.7,2.19,3.92,1.32,2.42,2.14,4.73,3.14,7.76.25.76.51,1.56.79,2.43.28.87.49,1.82.76,2.83.26,1.02.55,2.11.86,3.3.31,1.19.67,2.46.94,3.88.3,1.4.62,2.92.98,4.56.17.82.38,1.67.54,2.56.15.89.31,1.82.47,2.78.31,1.93.73,3.98,1.03,6.22.29,2.24.59,4.64.92,7.22l1.58-2.09c-.21,7.13.24,12.09.77,17.65.52,5.54,1.06,11.67.13,20.77-.52,4.44-2.28,13.4-5.23,22.85-.31,1.19-.71,2.38-1.1,3.57-.38,1.19-.76,2.39-1.15,3.59-.7,2.41-1.6,4.75-2.35,7.07-.37,1.16-.74,2.31-1.1,3.44-.4,1.11-.77,2.21-1.12,3.28-.72,2.14-1.23,4.24-1.81,6.12-.93,1.78-1.8,3.5-2.63,5.18-.83,1.68-1.75,3.25-2.55,4.83-1.57,3.16-3.23,6.05-4.71,8.88-.38.7-.72,1.42-1.1,2.09-.38.68-.77,1.35-1.14,2.02-.74,1.34-1.46,2.66-2.18,3.96-1.44,2.6-2.95,5.04-4.36,7.53-1.48,2.44-3.04,4.8-4.57,7.21-1.6,2.36-3.32,4.66-5.08,7.05-1.86,2.3-3.82,4.62-5.95,6.97-1.11,1.13-2.25,2.28-3.44,3.44-1.19,1.16-2.4,2.35-3.76,3.46-1.7,1.25-3.29,2.49-4.79,3.72-1.53,1.19-3,2.31-4.37,3.43-2.69,2.28-5.24,4.17-7.39,5.89-2.14,1.74-4.12,2.97-5.73,3.86-1.63.86-2.95,1.29-4.03,1.04.85-.53,1.68-1.09,2.52-1.64-1.14.12-6.38,2.84-6.38,2.84-1.13.53-2.31,1.12-3.52,1.74-1.23.58-2.51,1.18-3.81,1.8-1.3.62-2.62,1.26-3.95,1.9-1.36.57-2.73,1.14-4.09,1.71-1.36.55-2.71,1.12-4.06,1.6-1.36.44-2.7.86-4,1.22-1.3.36-2.56.68-3.77.93-1.22.2-2.39.33-3.49.39-6.13,3.48-12.61,6.38-19.26,9.07-10.56,2.03-21.46,3.12-32.61,3.12-1.34,0-2.67-.02-4.01-.05.1-.02.21-.03.31-.05-9.14-.83-18.02-1.79-26.65-3.1Z"/></svg>