<svg width="100%" height="100%" viewBox="0 0 1500 987" fill="none" xmlns="http://www.w3.org/2000/svg" preserveAspectRatio="none">
<path d="M-83.9995 980.046C-70.8757 975.062 6.86316 980.064 27.3347 976.218C91.363 964.192 155.97 959.909 220.174 959.909C296.567 959.909 648.912 948.489 701.766 948.759C745.279 948.984 941.882 962.014 985.392 962.344C1040.9 962.766 1280.87 944.046 1336.3 950.584C1376.19 955.292 1475.16 958.066 1577 958.066V11.7908H-81.9415C-81.9415 11.7908 -80.0427 980.051 -83.9995 980.051V980.046Z" fill="#2E2D2C"/>
<path d="M-70.9023 771.163C-71.0532 694.553 -71.493 623.853 -72.1697 562.873C-71.4135 453.655 -71.5518 362.285 -72.0168 276.485C-72.2515 233.59 -72.5699 192.083 -72.9135 150.439C-73.0895 129.615 -73.2633 108.759 -73.4414 87.6769C-73.5293 77.1356 -73.6172 66.5354 -73.7073 55.8581C-73.7283 53.1864 -73.7513 50.5148 -73.7722 47.8341L-73.787 46.4054C-73.7954 46.2284 -73.7975 46.0516 -73.8016 45.8747L-73.8289 44.7951C-73.8645 43.2892 -73.9001 41.7788 -73.9357 40.2593C-73.2444 40.1913 -72.549 40.1187 -71.8492 40.0506L-71.3024 40.0007L-71.0259 39.9736L-70.1188 39.9463C-68.8263 39.9146 -67.5295 39.8829 -66.2307 39.8466C-61.0312 39.7286 -55.769 39.6107 -50.4333 39.4882C-39.7622 39.2705 -28.7955 39.0891 -17.4435 38.9712C5.26282 38.7353 29.5151 38.7307 56.0466 39.1026C196.015 38.9756 295.209 36.617 429.599 38.9212C473.355 28.6204 691.156 40.6721 790.895 33.9772C857.818 32.7253 894.109 28.7156 843.07 27.0102C935.556 26.6065 911.784 31.0425 989.068 29.2644L963.012 32.7479C988.462 33.6007 1016.62 35.4014 1050.02 34.7799L1087.68 31.2467C1179.6 35.1792 1231.76 28.2122 1331.57 30.6615C1266.54 28.058 1361.34 28.6067 1354.09 25.7492C1369.26 27.1281 1429.48 27.8311 1408.88 28.8834C1440.24 29.2826 1470.69 28.6885 1499.03 28.0489C1513.2 27.7405 1526.84 27.4457 1539.82 27.1644C1546.3 27.051 1552.62 26.9602 1558.75 26.9149C1561.73 26.9013 1564.66 26.8877 1567.54 26.8786C1570.09 26.8922 1572.59 26.9013 1575.05 26.9149C1575.04 30.6252 1575.03 34.2901 1575.02 37.9098C1575 41.6155 1574.98 45.2714 1574.96 48.8819C1574.92 57.0736 1574.86 65.0386 1574.78 72.7585C1574.64 88.203 1574.42 102.681 1574.12 116.094L1574.85 183.133C1575.84 297.672 1574.59 388.738 1574.25 494.046L1575.15 508.629C1575.66 578.236 1575.56 706.042 1574.72 766.677C1574.64 796.876 1574.63 828.323 1574.66 860.637C1574.69 876.793 1574.73 893.167 1574.76 909.71C1574.78 917.983 1574.81 926.297 1574.83 934.648C1574.86 941.814 1574.89 949.013 1574.92 956.234C1559.66 956.515 1544.18 956.796 1528.66 957.082C1512.59 957.368 1496.47 957.603 1480.49 957.799C1464.51 957.989 1448.68 958.089 1433.17 958.112C1417.65 958.098 1402.47 957.984 1387.8 957.676C1366.09 956.084 1352.16 955.063 1342.26 954.338C1339.78 954.147 1337.56 953.993 1335.52 953.889C1333.5 953.802 1331.66 953.73 1329.96 953.716C1326.55 953.78 1323.69 953.866 1320.88 954.129C1319.47 954.251 1318.09 954.369 1316.66 954.492C1315.23 954.633 1313.76 954.778 1312.19 954.932C1310.62 955.073 1308.94 955.222 1307.11 955.381C1305.28 955.553 1303.28 955.721 1301.07 955.884C1292.22 956.556 1279.88 957.254 1260.27 958.148C1235.37 958.22 1201.33 960.121 1169.72 961.913C1138.1 963.7 1108.92 965.31 1093.73 964.734C1128.34 962.724 1148.03 960.266 1168.19 958.021C1178.27 956.896 1188.48 955.83 1200.72 954.914C1212.97 954.016 1227.26 953.254 1245.52 952.9C1231.56 952.523 1262.42 950.741 1288.65 949.838C1291.92 949.734 1295.13 949.634 1298.17 949.539C1301.21 949.462 1304.07 949.389 1306.67 949.321C1311.88 949.23 1316.02 949.094 1318.33 948.994C1320.64 948.867 1321.1 948.659 1318.96 948.323C1317.88 948.164 1316.16 947.942 1313.68 947.77C1311.2 947.593 1307.98 947.343 1303.91 947.189C1286.33 947.675 1268.26 948.541 1249.81 949.475C1231.36 950.464 1212.54 951.471 1193.51 952.492C1155.44 954.601 1116.51 956.76 1077.93 958.896C1058.65 959.93 1039.45 960.955 1020.5 961.799C1011.02 962.221 1001.61 962.597 992.275 962.783C989.941 962.842 987.614 962.833 985.293 962.861C982.969 962.829 980.653 962.797 978.34 962.765C977.183 962.747 976.029 962.729 974.877 962.711C973.723 962.679 972.571 962.647 971.421 962.616C969.12 962.552 966.824 962.489 964.535 962.425C946.221 961.799 928.306 961.182 910.942 960.588C893.577 959.998 876.762 959.509 860.65 959.177C863.066 957.975 854.273 956.628 838.843 955.249C823.412 953.87 801.344 952.455 777.205 951.176C771.17 950.877 765.007 950.573 758.783 950.265C752.561 949.997 746.279 949.725 740.013 949.453C736.879 949.339 733.749 949.226 730.63 949.112C727.511 949.004 724.406 948.881 721.32 948.813C718.235 948.731 715.17 948.654 712.136 948.573C709.101 948.541 706.095 948.509 703.126 948.477C701.643 948.446 700.171 948.496 698.708 948.514C697.246 948.536 695.794 948.559 694.355 948.582C691.477 948.632 688.647 948.659 685.875 948.75C680.33 948.904 675.015 949.049 669.996 949.19C659.962 949.525 663.57 944.264 656.5 944.5H633C584.359 944.89 555.796 949.743 478.561 953.589C432.35 955.027 386.453 956.574 342.363 957.554C331.34 957.794 320.43 958.016 309.656 958.161C298.882 958.316 288.242 958.443 277.763 958.474C272.524 958.483 267.325 958.492 262.167 958.497C257.012 958.461 251.898 958.42 246.828 958.384C241.761 958.334 236.737 958.27 231.766 958.13C226.793 958.003 221.876 957.88 216.998 957.703C188.243 956.787 158.107 957.413 128.336 959.726C98.5663 962.03 69.1647 965.99 41.8854 971.333C41.0327 971.497 40.1823 971.66 39.3339 971.823C38.4855 972 37.639 972.173 36.7948 972.345C35.1064 972.694 33.4285 973.043 31.7567 973.388C30.0913 973.733 28.4321 974.073 26.7856 974.409C26.3793 974.486 25.9749 974.563 25.5706 974.64C25.1663 974.717 24.7556 974.767 24.3492 974.831C23.9427 974.89 23.5364 974.953 23.13 975.012C22.7216 975.062 22.3151 975.112 21.9087 975.162C18.6575 975.561 15.4292 975.828 12.2388 976.046C9.05042 976.273 5.89978 976.445 2.79309 976.6C-9.63379 977.198 -21.3483 977.547 -32.1201 977.992C-42.8918 978.427 -52.7252 978.917 -61.3959 979.625C-65.7301 979.983 -69.7773 980.387 -73.4978 980.913C-74.428 981.058 -75.3372 981.199 -76.2275 981.339C-77.1136 981.512 -77.9851 981.643 -78.8273 981.834C-79.6694 982.029 -80.4948 982.192 -81.2866 982.437C-81.6804 982.56 -82.0806 982.641 -82.4556 982.795C-82.8326 982.941 -83.2054 983.081 -83.5742 983.222C-81.4792 982.573 -79.2838 982.355 -77.1115 982.165C-74.9349 981.97 -72.7521 981.888 -70.5714 981.811C-66.2078 981.68 -61.8483 981.68 -57.4972 981.711C-48.7952 981.775 -40.1266 981.984 -31.4978 982.156C-22.8691 982.333 -14.2822 982.501 -5.73938 982.541C2.80566 982.569 11.3024 982.551 19.774 981.984C20.8319 981.92 21.894 981.807 22.9541 981.72L24.5461 981.539C25.0762 981.476 25.6062 981.421 26.1404 981.33L27.7388 981.076L29.3079 980.795C30.3531 980.609 31.3986 980.423 32.4418 980.237C34.5282 979.861 36.6127 979.489 38.6929 979.117C40.7751 978.768 42.8511 978.418 44.9271 978.069C47.001 977.724 49.0729 977.38 51.1405 977.035C53.2081 976.717 55.2737 976.4 57.335 976.082C59.3964 975.765 61.4536 975.452 63.5066 975.134C65.5616 974.844 67.6124 974.558 69.6592 974.268C86.0326 971.968 102.176 970.127 118.044 968.712C149.782 965.881 180.421 964.734 209.628 965.065C216.933 965.206 224.149 965.342 231.272 965.478C238.397 965.655 245.427 965.831 252.361 965.999C259.293 966.217 266.126 966.444 272.855 966.725C279.584 967.006 286.212 967.369 292.731 967.759C280.554 967.854 269.797 967.936 260.146 968.013C250.492 968.108 241.949 968.195 234.203 968.272C226.458 968.376 219.509 968.467 213.049 968.553C211.436 968.585 209.854 968.616 208.295 968.648C206.739 968.698 205.208 968.748 203.697 968.793C200.677 968.902 197.737 968.993 194.844 969.134C183.268 969.673 172.4 970.476 159.759 971.578C147.121 972.73 132.713 974.205 114.068 976.522C127.203 975.915 140.342 975.633 153.479 975.515C148.137 975.951 142.797 976.5 137.458 977.008L129.449 977.856C126.78 978.146 124.111 978.418 121.442 978.75C129.644 979.008 123.15 980.391 115.231 981.956C114.24 982.147 113.228 982.346 112.221 982.541C111.213 982.75 110.207 982.959 109.231 983.163C107.281 983.576 105.448 983.975 103.938 984.347C100.919 985.086 99.201 985.716 100.431 986.07C119.792 984.093 139.173 982.678 158.563 981.734C177.953 980.791 197.358 980.373 216.765 980.31C201.146 979.933 192.006 979.743 187.366 979.38C182.726 979.017 182.585 978.559 184.967 977.997C187.351 977.457 192.255 976.831 197.706 976.228C203.159 975.656 209.154 975.03 213.715 974.554L228.773 974.64C233.8 974.667 238.83 974.69 243.85 974.654L258.916 974.595L273.978 974.477C270.471 974.323 265.523 974.2 260.757 974.073C255.989 973.928 251.406 973.778 248.628 973.592C243.074 973.211 244.761 972.735 266.679 971.764C290.886 971.692 323.09 969.818 349.917 970.485L302.058 975.683C338.806 973.252 371.046 973.597 403.301 973.942C435.555 974.282 467.825 974.595 504.625 972.005L527.047 975.642L596.454 973.533L588.631 975.207C616.378 974.704 644.127 974.218 671.85 973.887C677.466 973.71 682.484 973.524 686.981 973.329C691.46 973.143 695.422 972.98 698.941 972.83C699.821 972.785 700.671 972.74 701.497 972.699C702.318 972.672 703.114 972.644 703.885 972.617C705.427 972.558 706.866 972.499 708.217 972.445C710.928 972.309 713.274 972.195 715.331 972.091C719.462 971.855 722.437 971.547 724.88 971.234C727.324 970.934 729.233 970.617 731.221 970.331C748.529 970.975 765.543 971.669 779.975 972.345C794.408 973.039 806.263 973.746 813.279 974.581L773.013 975.026L810.158 977.797C784.734 975.565 841.153 977.897 850.308 977.407C891.981 979.983 906.731 980.818 917.597 981.621C923.029 982.02 927.487 982.442 933.862 983.022C937.048 983.317 940.712 983.657 945.214 984.075C949.72 984.465 955.064 984.927 961.608 985.494C968.41 985.562 975.405 985.63 982.442 985.698C983.326 985.708 984.21 985.716 985.094 985.726L987.76 985.698C989.539 985.68 991.32 985.667 993.079 985.617C994.843 985.576 996.605 985.54 998.365 985.499C1000.12 985.449 1001.87 985.399 1003.61 985.349C1017.54 984.932 1031 984.419 1042.87 983.92C1066.6 982.9 1083.93 981.87 1085.45 980.106C1134.8 978.477 1185.73 976.101 1235.99 974.44C1248.56 974.032 1261.08 973.665 1273.52 973.443C1285.96 973.216 1298.32 973.084 1310.51 973.284C1312.03 973.311 1313.55 973.338 1315.07 973.37C1316.59 973.42 1318.1 973.474 1319.61 973.524C1321.12 973.588 1322.64 973.615 1324.13 973.706C1325.62 973.796 1327.11 973.887 1328.6 973.973L1329.72 974.041L1330.82 974.141C1331.56 974.209 1332.29 974.282 1333.02 974.35C1333.75 974.418 1334.48 974.486 1335.22 974.558C1335.98 974.64 1336.74 974.717 1337.51 974.799C1340.57 975.116 1343.63 975.47 1346.66 975.706C1358.79 976.781 1370.73 977.507 1382.48 978.105C1389.38 978.128 1396.28 978.046 1403.18 978.001L1423.86 977.693C1455.19 979.389 1481.69 980.088 1506.2 980.396C1518.46 980.546 1530.22 980.577 1541.82 980.541C1556.59 980.437 1571.16 980.333 1586 980.228C1585.98 970.984 1585.97 961.713 1585.95 952.396C1585.94 945.039 1585.92 937.65 1585.9 930.221C1585.87 920.274 1585.84 910.209 1585.8 899.994C1585.74 879.555 1585.67 858.491 1585.6 836.447C1585.48 792.359 1585.37 744.342 1585.32 689.586L1585.78 709.317L1584.54 572.403C1585.48 383.962 1583.19 310.395 1584.54 91.5232C1584.57 79.399 1584.6 67.6194 1584.63 56.2663C1584.64 38.8124 1584.66 22.0207 1584.68 6.03648C1576.42 6.02287 1568.42 6.01377 1560.68 6.00016C1555.56 6.01829 1550.6 6.03196 1545.8 6.05009C1536.2 6.10905 1527.23 6.21794 1518.82 6.37669C1502.02 6.68962 1487.48 7.18858 1474.68 7.8281C1449.09 9.10722 1430.46 10.9352 1414.6 12.9491C1361.82 15.1036 1295.42 12.0238 1248.01 11.7471L1278.94 10.1687L1239.5 8.41777C1171.3 9.19798 1167.64 7.76921 1078.78 9.60166C957.096 7.72386 975.564 14.8678 923.85 17.5031L807.56 13.194L810.118 14.1465C741.372 19.2584 757.25 16.301 594.12 16.5323L601.553 19.3854C546.701 16.2557 523.083 20.6917 452.48 20.5148C417.923 20.6645 311.931 15.8294 251.106 19.4626C126.983 16.6368 66.9191 25.0869 -39.5211 24.5834C-47.1003 24.3294 -54.422 24.1798 -61.4565 24.0982C-64.9675 24.0755 -68.4073 24.0528 -71.7717 24.0301C-75.0753 24.0392 -78.3035 24.0437 -81.4521 24.0483C-81.406 35.1338 -81.3621 45.7884 -81.3202 55.9895C-81.2635 66.3357 -81.2112 76.2193 -81.1588 85.613C-81.0499 104.4 -80.9493 121.237 -80.9073 135.893C-80.8236 165.203 -80.9808 185.8 -81.8082 195.897L-81.8627 170.964L-83.9763 222.432L-82.4053 228.628C-82.8975 311.828 -82.2733 431.592 -83.9995 502.914C-83.0568 567.372 -82.1454 631.831 -81.3013 696.303C-81.4897 648.872 -81.2699 596.347 -81.0792 543.564L-81.519 548.903C-81.5485 523.77 -81.5967 480.652 -81.649 436.559C-81.6741 392.466 -81.6323 347.403 -81.3495 318.369L-80.7943 388.107C-80.4717 307.932 -79.7008 374.836 -79.4493 397.279C-79.7866 477.681 -79.6044 506.924 -79.2797 531.417C-78.9613 555.906 -78.4962 575.637 -78.3873 637.011C-78.6073 664.661 -78.8712 717.245 -79.3007 697.782C-79.2169 733.942 -79.5646 799.779 -79.9165 857.384C-80.0925 886.196 -80.256 912.944 -80.3774 932.888C-80.4298 942.867 -80.4634 951.154 -80.4508 957.159C-80.4382 963.164 -80.3773 966.893 -80.2014 967.718C-80.3187 970.889 -80.4193 973.084 -80.5366 975.239C-80.5952 976.318 -80.656 977.38 -80.7399 978.595C-80.7817 979.203 -80.8278 979.847 -80.8948 980.605C-80.9304 980.995 -80.9681 981.403 -81.0331 981.943C-81.0708 982.238 -81.1044 982.523 -81.1902 983.022C-81.2133 983.158 -81.2446 983.317 -81.274 983.467C-81.2908 983.548 -81.3201 983.675 -81.3431 983.78L-81.3829 983.938L-81.4332 984.129C-81.4794 984.297 -81.5295 984.465 -81.584 984.623L-81.6301 984.759L-81.7078 984.964C-81.7601 985.1 -81.8167 985.231 -81.8732 985.354C-81.9402 985.522 -82.2292 986.052 -82.4869 986.333C-82.5582 986.415 -82.6106 986.474 -82.6964 986.551C-82.8011 986.646 -82.9102 986.728 -83.0232 986.796C-83.2495 986.932 -83.4862 987 -83.7124 987C-83.4716 987 -83.2159 986.928 -82.9771 986.773C-82.8619 986.705 -82.7279 986.592 -82.644 986.51C-82.5707 986.438 -82.4995 986.361 -82.4283 986.274C-82.2859 986.102 -82.1498 985.898 -82.0261 985.68C-81.955 985.553 -81.9486 985.535 -81.9088 985.453L-81.8125 985.249C-81.7496 985.109 -81.6909 984.964 -81.6344 984.814L-81.5757 984.651L-81.5297 984.519C-81.5002 984.428 -81.4709 984.338 -81.4437 984.247L-81.3726 984.002C-81.3097 983.78 -81.2405 983.489 -81.2112 983.358L-81.1149 982.904C-81.0122 982.396 -80.9535 982.056 -80.899 981.748C-80.7922 981.131 -80.7104 980.636 -80.6329 980.124C-80.4779 979.121 -80.3418 978.146 -80.2098 977.121C-79.9479 975.08 -79.7029 972.876 -79.4641 970.467C-78.9865 965.655 -78.5339 960.048 -78.0878 953.68C-77.1995 940.943 -76.3511 925.172 -75.5278 906.875C-73.8834 870.289 -72.3457 823.624 -70.9086 771.131L-70.9023 771.163Z" fill="#2E2D2C"/>
<path d="M1564.28 21.0792C1549.1 20.6969 1535.09 20.1163 1523 19.2382C1457.72 22.5864 1424.58 15.9661 1357 17.8065C1296.93 18.1376 1254.35 16.9508 1196.68 18.7888C1177.87 12.4656 1084.42 20.6533 1041.6 16.751C1012.87 16.1629 997.285 13.757 1019.18 12.5386C979.49 12.557 989.705 15.2668 956.53 14.3795L967.723 16.4858C956.801 17.0948 944.725 18.3057 930.386 18.0143L914.21 15.9108C874.773 18.6446 852.364 14.4322 809.536 16.2597C837.44 14.4376 796.751 15.0596 799.856 13.2478C793.347 14.1563 767.504 14.7735 776.35 15.3725C740.097 16.2939 706.69 12.6881 686.051 16.0182L672.758 15.12C650.049 13.9223 632.003 15.7396 611.133 16.3541L608.237 15.1489C594.436 14.5526 569.103 14.8651 557.09 16.0784C520.771 17.0003 475.348 14.6078 437.776 13.418C400.495 14.9433 416.682 11.3169 382.988 10.7287C361.607 11.6422 324.506 10.1507 311.489 11.9678C341.206 11.9522 345.341 15.2692 376.689 14.3501C364.712 15.5631 429.691 15.2298 401.76 17.055C341.479 14.6675 266.797 17.719 211.471 15.3346C215.606 18.6487 142.777 17.7795 118.498 17.4879L116.947 18.3966C96.074 19.0083 80.6303 19.3185 47.4689 18.4282C7.79636 18.4464 -31.3362 18.1626 -64.7983 20.2899C-114.128 23.0288 -172.858 19.7354 -193.99 17.6346C-133.693 14.2864 -77.0687 18.785 -32.3455 13.0336C-74.1435 14.2601 -76.9868 13.0546 -109.118 11.5632L-92.1731 10.3503L-105.974 9.75112C-98.9303 8.54051 -117.192 7.64499 -115.092 6.43691L-64.9715 6.10849C-91.8588 7.3297 -74.1162 8.52719 -66.2656 9.72978L-40.4218 9.11257C-46.4362 9.72212 -62.3517 10.3312 -43.5406 10.9245C-33.1565 10.6176 -19.3301 11.2166 -7.82301 10.3051L-28.3816 7.89906C3.17377 9.69562 26.9422 4.55643 58.5521 6.34978L68.1548 3.62951L97.9489 3.61342L94.584 2.70986L130.315 2.08759C149.634 2.38185 152.505 3.58722 155.92 4.49043C170.806 4.48246 185.142 4.77668 191.17 4.16987L173.884 2.67083L189.838 2.05869C178.918 2.66768 203.145 2.95681 207.07 3.55811C242.851 2.94117 232.39 3.24859 254.828 1.7281C278.047 2.62098 306.486 0.496714 307.816 2.60507C350.163 1.07921 395.288 0.756524 435.529 0.433105L453.256 1.63071C501.014 -0.202144 522.696 1.59655 572.294 1.57297L568.38 0.971602L595.527 2.46577C632.876 0.939977 647.47 3.94958 690.849 1.81697C737.563 0.588116 758.655 2.68927 773.839 5.39926C796.498 6.59441 824.989 4.46978 845.338 4.1573L832.058 3.25899L848.981 2.04621C878.253 2.33496 879.818 1.42897 917.965 2.31645C970.185 0.782782 962.278 5.31332 984.481 6.81286L1034.38 3.77164L1033.28 4.37599C1062.8 7.37737 1055.98 5.57089 1126 5.2372L1122.81 7.04671C1146.35 4.92471 1156.49 7.63502 1186.8 7.31701C1201.63 7.30941 1247.11 3.96871 1273.22 6.06679C1326.49 3.93197 1352.29 9.05062 1397.97 8.42284C1425.41 6.9023 1444.98 9.90917 1450.21 6.88908L1445.27 6.8916L1455.45 3.8689L1456.69 5.98355C1473.18 5.06932 1496.93 5.66304 1511.05 3.24154L1549.41 6.84477C1540 6.5481 1529.59 6.85232 1519.13 7.15974L1520.19 6.55566C1510.22 6.55841 1486 6.26926 1474.49 7.17785L1488.32 7.77683C1472.42 8.38568 1485.69 9.28693 1490.14 9.58335C1522.01 8.36503 1513.34 10.4792 1537.67 10.7677C1543.14 10.4631 1553.57 10.1559 1549.71 9.55702C1564.04 9.85125 1601.9 8.02639 1603.16 10.1352C1604.41 10.0244 1604.88 9.9302 1606 9.82303C1601.22 13.5762 1585.06 17.4185 1564.28 21.065L1564.28 21.0792Z" fill="#2E2D2C"/>
</svg>
