<svg width="100%" height="100%" viewBox="0 0 115 61" fill="none" xmlns="http://www.w3.org/2000/svg" preserveAspectRatio="none">
<path d="M114.21 27.9796C114.272 30.04 114.246 32.2861 114.206 34.5723C114.206 27.2261 114.206 19.5486 114.232 13.4874C114.232 12.4973 114.159 11.5399 114.022 10.6225C114.054 10.7608 114.087 10.8992 114.116 11.0339C114.192 11.4962 114.272 11.933 114.33 12.3444C114.373 12.763 114.417 13.1453 114.453 13.4911C114.529 11.4962 114.268 9.46123 113.721 7.67747C113.173 5.89006 112.321 4.39025 111.331 3.30907C110.341 2.21333 109.177 1.62723 108.031 1.4889C107.886 1.47798 107.745 1.44158 107.6 1.4525L107.172 1.47798C106.878 1.48526 106.614 1.54715 106.352 1.58719C105.823 1.67456 105.297 1.75464 104.775 1.82745C100.598 2.40626 96.6891 2.45359 93.2552 1.53258C96.4679 1.6782 98.1758 1.58355 99.6951 1.35785C101.214 1.12487 102.545 0.786316 104.975 0.192941C104.112 0.17838 103.249 0.141977 102.386 0.0982926C103.082 -0.0436804 99.0315 -0.0254787 98.4368 0.211143C97.1242 0.218424 95.8079 0.200222 94.4917 0.156538C95.4091 0.349476 97.8458 0.473247 94.9703 0.768114C93.3857 0.688027 91.2428 0.986534 89.4732 0.728071C90.2057 0.513291 90.9527 0.302151 91.6561 0.0436876C80.807 0.342195 69.8745 0.702588 58.7969 0.855482C59.6309 0.713509 60.4613 0.571536 61.2952 0.429563C49.4852 0.975613 37.6861 0.0655296 25.8724 0.3968C24.2552 0.440484 22.667 0.480528 21.1549 0.476887C20.7053 0.556975 20.2738 0.622501 19.8387 0.688027L19.516 0.735351L19.2114 0.771755C19.0047 0.797237 18.8234 0.82636 18.5623 0.840921C17.5978 0.695307 16.7348 0.604299 15.9117 0.535133C15.0922 0.465966 14.3198 0.425923 13.5801 0.3968C12.1007 0.342195 10.7482 0.717149 9.3848 0.753553C9.3159 0.753553 9.17449 0.768114 9.06208 0.775395L8.71035 0.808158L8.35863 0.848202C8.24259 0.873684 8.12294 0.906447 8.0069 0.93557C7.77121 1.00474 7.53552 1.0557 7.30345 1.15035C7.07138 1.25228 6.83932 1.35421 6.60725 1.46706C5.68623 1.9585 4.78335 2.68657 3.94211 3.68038C3.09724 4.67055 2.32852 5.95559 1.6722 7.51365C1.02314 9.07536 0.497364 10.9356 0.214533 13.0506C0.243541 12.5956 0.261672 12.126 0.30881 11.6673C0.0622391 13.2217 -0.0356641 14.8162 0.0114745 16.3815L0.181899 19.8799C-0.0791766 29.4467 0.562633 33.1817 0.181899 44.2956C0.178273 44.6706 0.17102 45.0419 0.167394 45.4059C0.174647 45.8864 0.185525 46.356 0.196403 46.8183C0.225411 47.2807 0.265298 47.7321 0.305184 48.1762C0.348697 48.6203 0.424844 49.0462 0.486486 49.4685C0.769318 51.1431 1.2117 52.6065 1.72659 53.8369C2.24512 55.0673 2.84704 56.0393 3.44896 56.8438C3.60488 57.0295 3.7608 57.2115 3.9131 57.3899C3.98925 57.4772 4.06539 57.5646 4.14154 57.6447C4.22131 57.7212 4.29746 57.794 4.37723 57.8668C4.53315 58.0087 4.68545 58.1471 4.83774 58.2854C4.99003 58.4092 5.14958 58.5147 5.29825 58.6203C6.5166 59.4612 7.64067 59.6578 8.58344 59.5704C9.09472 59.534 18.6711 59.3302 21.5719 59.585C20.9265 59.6687 20.2811 59.7561 19.6356 59.8398C28.7225 60.2002 37.4032 59.8908 46.4539 59.5923C59.9536 59.1445 74.204 58.3655 87.6312 59.7415C93.7919 60.3677 97.5738 59.5668 102.059 59.2537L107.313 59.3993C109.935 59.4721 112.23 57.0659 113.398 53.4911C113.46 53.4037 113.525 53.3309 113.586 53.2836C113.485 53.6804 113.336 54.0335 113.206 54.4048C113.427 54.1172 113.673 53.8296 113.873 53.4765L114.196 52.9523C114.297 52.7667 114.391 52.5737 114.489 52.3735C114.377 52.1806 114.261 51.9949 114.145 51.8165C114.381 50.79 114.562 49.5741 114.58 48.2854C114.609 47.044 114.613 45.7918 114.634 44.5359C114.678 42.0349 114.758 39.6105 115.001 37.8012L114.206 27.9833L114.21 27.9796ZM114.239 47.1678L114.214 46.5635C114.21 43.2472 114.206 39.5268 114.206 35.6862L114.308 35.4641C114.319 38.016 114.413 44.2192 114.239 47.1678Z" fill="#2E2D2C"/>
</svg>
