<?xml version="1.0" encoding="UTF-8"?><svg id="Laag_1" xmlns="http://www.w3.org/2000/svg" viewBox="0 0 720 536.69" preserveAspectRatio="none" height="100%" width="100%"><defs><style>.cls-1{fill:#ffffff;}</style></defs><path class="cls-1" d="m710.16,6.86c.27-.05.53-.11.79-.17h0c-.04.14-.09.27-.13.41-.01.04-.03.09-.04.13-2.99.53-7.95.67-13.55.68.99-.03,1.96-.07,2.9-.11,2.51-.12,4.85-.27,6.99-.5,1.07-.12,2.09-.25,3.04-.44ZM166.47,16.35c-6.6.29-13.42.53-20.4.73,6.43-.1,13.38-.24,20.61-.41-.48-.09-.58-.19-.21-.32ZM17.54,10.85c-1.11-.01-2.25-.03-3.42-.04h-.88s-.22-.01-.22-.01h-.11s-.08,0-.07.04v.44c0,.59,0,1.19-.01,1.8,0,4.33-.02,9-.03,13.88.01,4.3.02,8.79.03,13.37.07,18.31.2,38.04,0,52.46.44,45.45,2.33,23.59,1.65,73.9.15,10.04.34,20.51.52,31.2v-114.58c-.07-1.55-.15-1.51-.25.95.19-21.15-.17-33.11-.58-44.8-.21-5.84-.43-11.62-.61-18.44-.04-2.03-.08-4.14-.12-6.34,0-.56-.02-1.13-.03-1.71,0-.29,0-.58-.01-.87v-.44s0-.22,0-.22c0-.03,0-.08,0-.1h.11c1.16-.01,2.34-.02,3.56-.03,1.23,0,2.49-.01,3.78-.02,1.2,0,2.42,0,3.68,0,2.26.02,4.63.04,7.14.06-2.2-.16-4.91-.27-8.02-.38-1.92-.04-3.96-.07-6.1-.11ZM720,0v536.39H0V0h720Zm-8.48,5.43c.06-.07.13-.15.21-.21.02-.02.04-.03.06-.05-.02.01-.03.02-.05.03,0,0,0,0-.01.01-.02.02-.05.03-.07.05-.06.05-.1.11-.14.16Zm1.16,202.56c.44-22.25.07-54.28,1.36-73.35l-1.91-50.8c.16-46.51.42-77.24.82-77.24-.47.23-1.15.42-1.98.58,0-.07.02-.14.02-.22.01-.1.03-.2.04-.31.62-.15,1.2-.33,1.66-.57-.5.2-1.06.34-1.64.45l.02-.13v-.07s.06-.19.06-.19l.06-.19v-.02s.06-.11.1-.18c.05-.09.11-.19.19-.29-.07.08-.12.17-.17.25,0,.01-.01.03-.02.04-.01.02-.03.05-.04.07l-.07.15-.08.21-.08.25-.04.12c-.6.11-1.22.18-1.82.24-1.24.13-2.49.18-3.75.23-2.51.08-5.03.08-7.55.05-5.04-.08-10.06-.16-15.05-.25-2.5-.03-5-.04-7.5,0-2.5.05-5,.13-7.54.45-.63.08-1.29.2-1.93.34l-1.79.39c-1.2.25-2.38.53-3.58.76-2.4.42-4.79.87-7.2,1.17-19.25,2.66-38.35,1.52-56.74,1.15-9.22-.24-18.27-.07-27.11-.07-8.85.02-17.52.01-25.98-.05-16.92-.12-33.01-.44-48.1-1.11,28.19.13,43.25.03,56.67-.24,6.71-.14,13.01-.32,20.35-.53,3.67-.11,7.59-.22,11.95-.35,4.38-.1,9.24-.16,14.67-.11-3.82-.2-7.65-.39-11.5-.5-3.86-.13-7.63-.18-11.46-.27l9.31-.22c3.14-.05,6.28-.08,9.4-.07-4.79-.39-.96-.65,3.68-.81,4.65-.17,10.09-.3,8.68-.67-5.63-.17-11.29-.34-17-.42-5.77-.07-11.33,0-16.98.02l-33.8.15c36.27.4,12.35,1.22,1.76,1.94l-34.86-.09c8.11.27,29.59.45,4.21.95-14.01-.07-32.66.38-48.18,0l27.72-1.49c-21.28.63-39.94.31-58.6,0-18.8-.4-37.46-.52-58.78.28l-12.99-1.26-40.19.62,4.53-.56-48.17.34c-6.5.12-11.61.21-15.7.28-4.19.12-7.26.3-9.68.47-4.81.36-6.94.68-9.23.99-20.12.55-39.43,1.35-47.57,1.26l23.28-1.53-21.52.34c14.73-.12-17.92,1.04-23.19,1.48-24.1.49-32.59.52-38.83.47-3.13-.02-5.68-.09-9.3-.22-1.83-.04-3.86-.18-6.37-.31-2.51-.14-5.57-.4-9.32-.7-15.6-.66-33.08-1.81-46.86-2.43-13.79-.62-23.9-.83-24.81-.27-3.59-.13-7.2-.23-10.82-.31l-2.72-.06-5.03-.05-5.11-.05-2.57-.02h-1.28s-.64-.02-.64-.02h-.32c-.1,0-.25-.05-.21.11-.06,9.57-.11,19.18-.17,28.83-.07,14.59-.14,29.25-.2,43.83-.04,29.15-.07,57.94-.11,85.09l.71,23.91c-.81,64.44.24,93.68.41,160.59l-.34-5.28.9,36.61c-.68,50.39.99,70.07,0,128.6-.04,8.52-.07,16.57-.1,23.86,8.45,0,16.37,0,23.79,0,5.58-.04,10.78-.08,15.66-.11,9.76-.11,18.2-.27,25.62-.49,14.85-.43,25.66-1.05,34.85-1.73,30.56-.73,69.01.31,96.46.41l-17.91.53,22.84.59c39.49-.26,41.6.22,93.06-.4,70.46.63,59.76-1.78,89.71-2.67l67.33,1.45-1.48-.32c39.81-1.73,30.61-.73,125.07-.8l-4.3-.96c31.76,1.06,45.44-.44,86.32-.38,4.5-.01,11.1.06,19.02.17,8.39.11,18.18.24,28.56.37.05-6.5.11-13.23.16-19.99.02-6.23.04-12.49.06-18.61-.01-12.24-.15-23.9-.5-33.59.66-53.97-.79-87.02-1.49-126.23-.01-36.16-.02-74.05,0-110.63.09-.73.18-1.37.3-1.9v6.67s1.61-13.76,1.61-13.76l-1.14-1.66Zm-.66-84.65c-.04,18.11-.07,37.56-.09,57.79l.05,2.87c.46-15.53.26-48.21.26-61.65l-.23,1Zm.1-37.3c-.03,8.3-.05,17.08-.07,26.27.09-9.05.14-17.92.07-26.27Z"/></svg>