<svg width="100%" height="100%" viewBox="0 0 1620 833" fill="none" xmlns="http://www.w3.org/2000/svg" preserveAspectRatio="none">
<path d="M1645.71 0.534321C1632.6 2.81107 1554.89 0.525943 1534.43 2.28325C1470.43 7.77719 1405.85 9.73348 1341.67 9.73348C1265.31 9.73348 913.122 14.9509 860.291 14.8274C816.798 14.7247 620.28 8.77209 576.789 8.62129C521.31 8.42859 281.436 16.9805 226.033 13.9937C186.159 11.8427 87.2312 10.5755 -14.5604 10.5755V442.871H1643.66C1643.66 442.871 1641.76 0.532227 1645.71 0.532227V0.534321Z" fill="#2E2D2C"/>
<path d="M-34.5605 832.869C-21.4425 830.592 56.2623 832.877 76.725 831.12C140.725 825.626 205.304 823.67 269.48 823.67C345.84 823.67 698.031 818.452 750.861 818.576C794.355 818.679 990.872 824.631 1034.36 824.782C1089.84 824.975 1329.72 816.423 1385.12 819.41C1424.99 821.561 1523.92 822.828 1625.71 822.828V390.532L-32.5035 390.532C-32.5035 390.532 -30.6055 832.871 -34.5605 832.871L-34.5605 832.869Z" fill="#2E2D2C"/>
</svg>
