<svg width="100%" height="100%" preserveAspectRatio="none" viewBox="0 0 724 490" fill="none" xmlns="http://www.w3.org/2000/svg">
<g clip-path="url(#clip0_221_282)">
<path d="M2.375 1.21802C6.09109 5.03814 2.36223 27.6682 5.22273 33.6337C14.1873 52.2706 9.70503 71.0806 9.70503 89.7729C9.70503 112.015 10.8416 185.657 10.6372 201.041C10.4712 213.705 13.2423 299.88 12.9997 312.551C12.6805 328.711 18.2993 396.199 16.652 414.712C15.6048 426.463 11.0714 455.141 11.0714 484.789H716.389V1.8201C716.389 1.8201 2.375 2.36682 2.375 1.21802Z" fill="#EF8D2B"/>
<path d="M76.6594 7.10738C103.681 6.98973 128.621 6.77519 150.126 6.43609C266.359 7.63334 325.306 5.06583 445.587 5.57102C496.45 5.54334 540.252 5.39801 583.3 5.30112C604.817 5.27344 626.143 5.24576 648.07 5.21808C659.026 5.225 670.136 5.23192 681.489 5.24576C687.172 5.2596 692.905 5.26652 698.716 5.28036C701.398 5.28728 704.092 5.2942 706.812 5.30804C707.834 5.32188 708.855 5.3288 709.89 5.34265C709.864 5.77864 709.851 6.23539 709.826 6.69215V7.03125L709.788 7.6887C709.788 8.35999 709.762 9.0382 709.749 9.71641C714.206 27.8343 708.996 118.002 711.882 159.289C712.418 186.992 714.155 202.017 714.896 180.888C715.074 219.18 713.146 209.339 713.925 241.332L712.418 230.543C712.048 241.083 711.269 252.737 711.537 266.564L713.069 282.156C711.371 320.205 714.385 341.804 713.325 383.12C714.449 356.199 714.219 395.445 715.445 392.442C714.844 398.725 714.551 423.653 714.091 415.127C713.912 428.165 714.18 440.816 714.461 452.588C714.589 458.477 714.717 464.145 714.844 469.529C714.883 472.221 714.921 474.844 714.947 477.391C714.947 479.668 714.947 481.875 714.947 484.014C712.367 484 709.864 483.986 707.412 483.965C704.628 483.938 701.908 483.903 699.278 483.875C693.902 483.799 688.857 483.689 684.184 483.536L660.533 483.903C620.116 484.408 587.999 483.779 550.838 483.599L545.692 484.055C521.135 484.311 476.044 484.263 454.654 483.841C389.999 483.592 309.177 484.602 242.313 485.142C175.947 484.664 204.782 485.979 144.813 486.291C125.786 486.145 99.7605 486.235 75.5995 486.291C63.519 486.311 51.8982 486.325 41.8609 486.291C36.8423 486.277 32.2068 486.242 28.1076 486.201C26.0643 486.173 24.1361 486.145 22.3738 486.125C20.3178 486.083 18.4278 486.048 16.7422 486.021C20.3306 486.014 23.7146 486 26.9455 485.993C29.9209 485.972 32.7303 485.958 35.4248 485.945C40.801 485.889 45.6409 485.834 50.1359 485.792C59.1389 485.668 66.7498 485.516 74.463 485.37C89.8892 485.08 105.66 484.837 133.563 484.969C112.237 484.547 227.896 484.505 178.169 483.896C151.352 484.159 122.925 484.298 93.8352 484.367C79.2901 484.388 64.5789 484.415 49.8295 484.436C42.4484 484.436 35.0545 484.443 27.6734 484.45H16.8699L11.6852 484.457V481.647L11.7363 478.81L11.8129 475.82C11.8768 473.827 11.9534 471.841 12.0172 469.861C12.1833 465.896 12.4259 461.951 12.6941 458.034C13.2559 450.193 13.9966 442.456 14.7756 434.892C15.1715 431.106 15.5801 427.362 15.9632 423.667C16.3208 419.971 16.7805 416.324 16.8826 412.726C17.0997 405.535 16.6656 398.573 16.2441 391.909C17.4828 393.888 17.253 377.306 16.0909 357.327C15.5035 347.341 14.8522 336.489 14.2776 326.683C14.0349 321.783 13.754 317.133 13.754 312.987C13.7284 308.828 13.6263 305.167 13.5369 302.24L14.1243 300.738C14.0605 280.599 13.754 265.699 12.1833 233.727C11.9023 224.162 11.5958 214.626 11.4426 205.207C11.3532 195.781 11.2766 186.473 11.1872 177.345C11.085 159.089 11.1616 141.58 11.6852 125.441C12.0045 113.545 12.03 101.074 11.9406 88.7625C12.03 76.5132 13.588 64.2916 12.0683 52.8935C11.3404 47.2048 9.9868 41.7376 7.71373 36.6926C7.1263 35.4469 6.53888 34.222 5.96423 33.0109C5.49173 31.8413 5.27464 30.6233 5.09586 29.433C4.75107 27.0454 4.63614 24.7201 4.53398 22.4917C4.34242 18.0349 4.2658 13.9587 3.98486 10.3739C3.83162 8.58145 3.64007 6.90668 3.33359 5.37725C3.18035 4.61599 2.9888 3.88242 2.73339 3.20421C2.49076 2.53292 2.18428 1.87547 1.68625 1.40487C2.27367 2.12461 2.50353 3.03812 2.68231 3.9101C2.84832 4.79593 2.93772 5.68867 3.00157 6.58834C3.1165 8.38075 3.10373 10.187 3.07819 11.9863C2.96326 15.5919 2.8611 19.1837 2.74616 22.7547C2.72062 24.5471 2.70785 26.3326 2.81001 28.125C2.93772 29.9243 3.02711 31.696 3.74223 33.5507C5.27464 36.9971 6.56442 40.3812 7.40725 43.8276C9.10567 50.6997 9.48877 57.5787 9.37384 64.3539C9.27168 71.136 8.70979 77.8212 8.51824 84.4164C8.39054 87.7106 8.42885 90.984 8.46716 94.209C8.4927 97.4408 8.51824 100.638 8.54378 103.801C8.56932 110.133 8.56932 116.327 8.4927 122.375C8.35223 134.473 7.95636 145.974 7.10076 156.763C7.254 136.604 7.11353 125.843 6.75597 116.244C6.57719 111.448 6.34733 106.936 6.06639 101.697C5.92592 99.0741 5.78544 96.2713 5.61943 93.1501C5.44065 90.0497 5.31295 86.5618 5.33849 82.6655C5.09586 85.3991 4.89154 88.1674 4.78938 90.901L4.4829 99.0741C4.31688 94.6311 4.02317 90.2366 3.99763 85.7175C3.53791 89.157 3.18035 86.4165 2.93772 83.0808C2.70785 79.7451 2.56738 75.8419 2.09489 76.8523C1.86503 80.887 1.6224 84.9493 1.6224 89.0601L1.71179 101.157L1.91611 125.324C2.41414 99.3924 3.47406 116.493 4.39351 124.064L4.30411 148.992C4.64891 143.192 4.866 127.836 5.51727 145.981C5.44065 155.995 6.02808 169.331 5.54281 180.432L3.61453 160.611C4.43182 175.836 4.04871 189.145 3.61453 202.529C3.21866 215.968 3.1165 229.29 4.17641 244.536L2.58015 253.824L3.43575 282.558L2.72062 279.319L2.9888 296.537C3.05265 302.274 3.14204 308.004 3.05265 313.686C3.1165 318.489 3.42298 322.129 3.66561 325.084C3.92101 328.025 4.18918 330.219 4.43182 331.936C4.92985 335.368 5.38957 336.877 5.79821 338.517C6.65381 352.877 7.71373 366.683 7.61157 372.497L5.59389 355.867L6.07916 371.244C5.90038 360.725 7.43279 384.04 7.95636 387.805C8.4927 405.023 8.22453 411.009 7.73927 415.321C7.19015 419.743 6.6155 422.608 4.89154 433.418C3.94655 444.636 2.66954 457.148 2.10766 467.031C1.95442 469.501 1.86503 471.806 1.78841 473.889C1.76287 474.927 1.7501 475.91 1.73733 476.83C1.73733 477.813 1.73733 478.727 1.72456 479.557C1.73733 482.547 1.78841 484.955 1.8778 486.657C1.91611 487.509 1.97996 488.187 2.04381 488.671C2.08212 488.914 2.10766 489.114 2.14597 489.26C2.17151 489.336 2.18428 489.398 2.20982 489.446C2.23536 489.488 2.20982 489.55 2.35029 489.516C24.0722 489.606 46.1517 489.696 68.3461 489.786C87.5906 489.834 106.937 489.882 126.169 489.924C164.62 489.952 202.611 489.972 238.431 490L269.973 489.509C354.996 490.069 393.562 489.343 481.841 489.225L474.882 489.46L523.191 488.83C589.672 489.308 615.634 488.145 692.854 488.83C703.964 488.858 714.461 488.879 723.975 488.9C723.975 482.893 723.975 477.266 723.975 471.993C723.924 468 723.873 464.27 723.835 460.782C723.694 453.799 723.49 447.757 723.209 442.442C722.66 431.812 721.868 424.082 720.987 417.501C720.055 395.653 721.383 368.157 721.51 348.531L722.187 361.334L722.941 345.008C722.609 316.773 723.222 315.264 722.43 278.475C723.247 228.1 720.157 235.747 719.008 214.335L720.872 166.189L720.463 167.248C718.254 138.791 719.531 145.358 719.429 77.8281L718.19 80.9077C719.544 58.2015 717.628 48.4228 717.705 19.1906C717.731 17.239 717.756 14.7407 717.782 11.8064C717.845 8.60913 717.922 4.94126 718.011 0.934279C708.523 0.878915 697.962 0.80971 686.916 0.747425C676.458 0.698982 665.526 0.657458 654.659 0.609015C632.924 0.560571 611.471 0.615935 594.576 0.934279C499.758 0.318353 453.875 2.30454 372.555 2.19381C323.709 1.69554 288.911 2.85818 279.576 1.73706H288.375L270.216 0.615935L268.032 1.41179C238.673 1.10037 196.417 1.35643 171.26 0.463684L103.03 1.8201C119.771 1.7163 138.301 1.82703 156.919 1.93775L155.042 1.7163C172.78 1.7163 215.892 1.57789 236.375 1.89623L211.767 2.13845C240.053 2.34606 216.454 2.69901 208.523 2.81666C151.799 2.39451 167.25 3.17653 123.947 3.29417C114.191 3.18345 95.6358 3.05888 102.506 2.83742C89.7487 2.88586 66.52 2.73361 46.2028 2.62288C25.8856 2.526 8.46716 2.42911 7.30508 2.78898C6.18132 2.74745 5.41511 2.71285 4.67445 2.68517C4.29134 2.66441 3.92101 2.65057 3.51237 2.6298C3.29528 2.61596 3.07819 2.60212 2.83555 2.58828C2.69508 2.58136 2.56738 2.56752 2.41414 2.5606L2.10766 2.53292H2.01827L1.78841 2.49139L1.55855 2.44987H1.53301C1.43085 2.42219 1.32868 2.39451 1.21375 2.3599C0.996663 2.2907 0.754031 2.19381 0.54971 2.06232C0.153837 1.79242 0.000595897 1.43948 0.000595897 1.21802C-0.0121742 1.45332 0.179377 1.84779 0.66464 2.11077C0.894502 2.24226 1.1499 2.33914 1.37977 2.39451L1.59686 2.44295L1.83949 2.49139L2.15874 2.54676L2.49076 2.60212C2.65677 2.6298 2.83555 2.66441 3.01434 2.69209C3.33359 2.74053 3.67838 2.7959 4.03594 2.85126C4.7383 2.95507 5.51727 3.05888 6.3601 3.16268C8.04575 3.36338 10.0251 3.56407 12.2726 3.75785C16.7549 4.15232 22.3227 4.53295 28.7716 4.91357C41.6694 5.66791 58.13 6.40148 76.6466 7.10046L76.6594 7.10738Z" fill="#EF8D2B"/>
</g>
<defs>
<clipPath id="clip0_221_282">
<rect width="724" height="490" fill="white"/>
</clipPath>
</defs>
</svg>
