<?xml version="1.0" encoding="UTF-8"?>
<svg width="100%" height="146px" preserveAspectRatio="none" viewBox="0 0 1667 146" version="1.1" xmlns="http://www.w3.org/2000/svg" xmlns:xlink="http://www.w3.org/1999/xlink">
    <title>header_dark</title>
    <g id="Page-1" stroke="none" stroke-width="1" fill="none" fill-rule="evenodd">
        <g id="header_dark" fill="#2E2D2C" fill-rule="nonzero">
            <path d="M0.002886751,128 L0.002886751,0 L1667.00289,0 L1667.00291,143.177073 C1658.35639,143.205853 1649.51733,143.292551 1640.95831,143.321331 L1622.54639,143.383134 C1610.93869,143.400343 1599.18239,143.385266 1586.92739,143.314454 C1562.41749,143.168443 1535.91079,142.837894 1504.58679,142.034978 L1483.90179,142.180989 C1482.12279,142.186493 1480.34379,142.193186 1478.56279,142.199878 C1473.44379,142.219086 1468.32379,142.238293 1463.20079,142.230349 C1451.44779,141.946968 1439.51579,141.603464 1427.37979,141.094702 C1425.08379,141.009991 1422.76479,140.893078 1420.43979,140.775909 C1419.70279,140.738755 1418.96579,140.701591 1418.22779,140.665371 C1417.86579,140.646983 1417.50279,140.629088 1417.14079,140.611193 L1417.05579,140.607073 L1415.93779,140.551583 C1415.20679,140.517238 1414.47579,140.485025 1413.74479,140.452863 C1413.51379,140.442675 1413.28279,140.432282 1413.05279,140.421838 L1412.64579,140.403451 C1412.27979,140.386806 1411.91379,140.370172 1411.54679,140.35409 L1410.44579,140.306862 L1409.32679,140.274649 C1407.87979,140.235045 1406.42879,140.193321 1404.97779,140.151596 L1404.84979,140.148029 C1403.89979,140.120695 1402.93879,140.105495 1401.97679,140.090357 C1401.42879,140.081717 1400.87979,140.073025 1400.33379,140.062141 C1399.58979,140.050508 1398.84679,140.038373 1398.10279,140.026227 L1397.90579,140.02304 C1397.20279,140.011591 1396.49979,140.000143 1395.79579,139.989135 C1394.84679,139.979757 1393.89679,139.971178 1392.94679,139.962928 L1391.23179,139.948353 C1379.03879,139.853886 1366.67979,139.91613 1354.24479,140.02348 C1341.80679,140.128699 1329.28179,140.302609 1316.71679,140.495776 C1291.48579,140.890137 1266.08779,141.369945 1240.80879,141.84756 C1215.72279,142.321496 1190.75279,142.793167 1166.17779,143.177073 C1164.65679,144.012141 1147.32379,144.499462 1123.59079,144.982458 C1111.72179,145.218611 1098.25979,145.461201 1084.33079,145.658692 L1079.08779,145.729506 C1078.27879,145.738389 1077.46979,145.746834 1076.66079,145.755279 L1076.41979,145.757719 C1075.54779,145.766727 1074.67579,145.775798 1073.80279,145.785306 C1072.23779,145.806325 1070.65679,145.813769 1069.07579,145.821151 L1065.81679,145.836852 L1063.16479,145.823966 C1056.12779,145.79175 1049.13379,145.759596 1042.33079,145.727379 C1035.78679,145.459012 1030.44279,145.240063 1025.93679,145.055464 L1020.99179,144.838456 C1018.62679,144.734611 1016.51779,144.642019 1014.58479,144.557381 L1012.19579,144.454171 C1007.03779,144.231024 1003.04779,144.058437 998.319787,143.894039 C990.953787,143.636496 981.802787,143.371942 963.687787,142.8484 C955.081787,142.599681 944.452787,142.29247 931.030787,141.899739 C930.24021,141.919766 929.097069,141.929828 927.684535,141.93218 L926.306566,141.932227 C921.232835,141.925184 913.614329,141.844898 906.255787,141.76737 L906.233787,141.767175 L905.273956,141.75706 C898.728516,141.688132 892.490299,141.624058 888.556705,141.618906 L887.731032,141.618743 C883.008483,141.623694 882.537247,141.737718 890.880787,142.084339 L853.736787,140.772721 L894.001787,140.562345 C886.986787,140.167359 875.131787,139.832434 860.697787,139.504007 C846.266787,139.184097 829.251787,138.85567 811.943787,138.550837 C811.346787,138.591434 810.757787,138.633477 810.157787,138.676196 L810.119787,138.67883 C808.734787,138.777479 807.297787,138.879817 805.602787,138.978036 C803.160787,139.126169 800.185787,139.272118 796.054787,139.383773 C795.531787,139.396349 794.989787,139.409171 794.427787,139.422372 L792.552787,139.46629 C791.424787,139.49262 790.223787,139.520714 788.940787,139.551236 L788.157787,139.566189 C787.036787,139.587651 785.855787,139.61023 784.607787,139.63281 C783.837787,139.645703 783.040787,139.658525 782.219787,139.671408 L781.602787,139.686116 C781.241787,139.694869 780.874787,139.703939 780.502787,139.713071 L779.664787,139.733713 C776.868787,139.789951 773.794787,139.850319 770.403787,139.916816 L767.704787,139.969805 C763.206787,140.062141 758.189787,140.150161 752.573787,140.233857 C724.849787,140.390557 697.101787,140.620264 669.354787,140.85861 L677.176787,140.066455 L607.768787,141.064671 L585.348787,139.342991 C548.548787,140.568782 516.278787,140.420649 484.028787,140.259633 L484.018787,140.259633 C451.768787,140.096486 419.528787,139.9334 382.778787,141.084001 L430.638787,138.623842 C414.468787,138.433545 396.338787,138.680326 379.178787,138.913855 C367.888787,139.067615 357.018787,139.215563 347.398787,139.229204 C325.488787,139.688617 323.798787,139.914008 329.348787,140.094354 C332.128787,140.182375 336.708787,140.253187 341.478787,140.321877 L343.178787,140.343144 C347.398787,140.395877 351.608787,140.448609 354.698787,140.512985 L339.638787,140.568782 L324.568787,140.59668 C319.558787,140.613827 314.528787,140.603127 309.498787,140.590244 L294.438787,140.549452 L292.648787,140.637718 C288.378787,140.849099 283.198787,141.105145 278.428787,141.341606 C272.978787,141.627119 268.078787,141.923384 265.688787,142.178796 C263.308787,142.445041 263.448787,142.661863 268.088787,142.833579 C272.268787,142.988097 280.078787,143.076487 292.988787,143.222487 L292.998787,143.222682 L297.488787,143.273662 C278.078787,143.303692 258.678787,143.501185 239.288787,143.947714 C219.898787,144.394233 200.518787,145.064032 181.158787,146 C179.928787,145.832536 181.638787,145.534142 184.658787,145.184266 C186.168787,145.008225 188.008787,144.819311 189.958787,144.62395 L192.948787,144.329868 L194.238787,144.211007 C194.808787,144.157711 195.388787,144.1046 195.958787,144.052933 C203.868787,143.312322 210.368787,142.657549 202.168787,142.535183 C204.198787,142.41583 206.228787,142.312733 208.258787,142.209636 L208.288787,142.208324 C208.918787,142.17649 209.548787,142.144584 210.168787,142.112237 L218.178787,141.710815 C219.588787,141.647259 221.008787,141.582392 222.418787,141.517452 C226.348787,141.336789 230.268787,141.156187 234.198787,141.004549 C221.068787,141.060356 207.928787,141.193474 194.788787,141.481109 C213.438787,140.384182 227.848787,139.686485 240.478787,139.141184 C253.128787,138.619527 263.988787,138.239557 275.568787,137.984074 C277.798787,137.932776 280.058787,137.8955 282.358787,137.857526 C283.038787,137.846262 283.728787,137.834875 284.418787,137.82312 C285.658787,137.805419 286.918787,137.786273 288.188787,137.767066 L288.208787,137.766687 L289.018787,137.754429 C290.578787,137.739352 292.158787,137.724337 293.768787,137.709332 L301.448787,137.661161 L301.488787,137.660782 C305.718787,137.63439 310.168787,137.606543 314.928787,137.576205 L323.438787,137.535987 C328.838787,137.510394 334.618787,137.48306 340.868787,137.453849 C346.628787,137.43208 352.788787,137.40949 359.408787,137.385343 L373.458787,137.333615 C366.938787,137.149006 360.308787,136.97729 353.578787,136.844172 C346.848787,136.711117 340.018787,136.603766 333.088787,136.50074 C330.308787,136.468958 327.518787,136.436488 324.718787,136.403588 L311.998787,136.253826 L303.728787,136.179416 C299.308787,136.139547 294.848787,136.099472 290.348787,136.058475 C261.148787,135.901764 230.508787,136.444872 198.768787,137.784459 C182.898787,138.454248 166.758787,139.325783 150.378787,140.414202 C149.228787,140.491779 148.068787,140.568659 146.908787,140.6456 C146.018787,140.704974 145.128787,140.764399 144.228787,140.824203 C143.478787,140.87957 142.718787,140.93468 141.958787,140.989667 L140.718787,141.079809 C139.828787,141.14399 138.948787,141.208232 138.058787,141.272916 C135.998787,141.42318 133.928787,141.573444 131.868787,141.723698 C129.798787,141.886846 127.728787,142.049993 125.648787,142.213141 C123.578787,142.378482 121.498787,142.543751 119.418787,142.709092 L118.468787,142.789292 C116.698787,142.938614 114.938787,143.088181 113.168787,143.239317 L108.458787,143.636424 L106.868787,143.756658 C106.438787,143.790634 106.018787,143.813838 105.598787,143.836981 L105.588787,143.837545 L105.268787,143.85544 L103.678787,143.941267 C103.308787,143.955719 102.928787,143.971728 102.558787,143.987686 L102.548787,143.987686 C101.868787,144.01702 101.178787,144.046363 100.498787,144.065816 C92.0287868,144.334121 83.5287868,144.342751 74.9887868,144.329868 C66.4387868,144.310538 57.8587868,144.231086 49.2287868,144.14739 L44.2687868,144.09928 L44.1587868,144.098163 C37.1987868,144.02978 30.2287868,143.961161 23.2287868,143.937014 C18.8787868,143.921937 14.5187868,143.921937 10.1487868,143.984243 C7.96878675,144.020709 5.78878675,144.05937 3.60878675,144.151644 C2.69071298,144.189957 1.28699836,143.92152 0.529246511,143.757468 L0.428786751,143.768612 C0.373044816,143.77485 0.32198517,143.74887 0.275993893,143.703625 C0.101885285,143.661682 0,143.636424 0,143.636424 L0,128 Z" id="Combined-Shape"></path>
        </g>
    </g>
</svg>