<?xml version="1.0" encoding="UTF-8"?>
<svg width="1668px" height="146px" viewBox="0 0 1668 146" version="1.1" xmlns="http://www.w3.org/2000/svg" xmlns:xlink="http://www.w3.org/1999/xlink">
    <title>Combined Shape</title>
    <g id="Page-1" stroke="none" stroke-width="1" fill="none" fill-rule="evenodd">
        <path d="M1668.00002,128.008362 L0.997113249,128.008362 C0.997113249,134.502542 0.997113249,139.587928 0.997113249,143.264522 C0.997113249,143.264522 3.2959,143.820552 4.6059,143.767212 C6.7859,143.677182 8.9659,143.639462 11.1459,143.603882 C15.5159,143.543092 19.8759,143.543092 24.2259,143.557802 C31.2259,143.581362 38.1959,143.648312 45.1559,143.715032 L45.2659,143.716122 C46.9159,143.731992 48.5759,143.747802 50.2259,143.763062 C58.8559,143.844722 67.4359,143.922242 75.9859,143.941102 C84.5259,143.953672 93.0259,143.945252 101.4959,143.683472 C102.1759,143.664492 102.8659,143.635862 103.5459,143.607242 L103.5559,143.607242 C103.9259,143.591672 104.3059,143.576052 104.6759,143.561952 L106.2659,143.478212 L106.5859,143.460752 L106.5959,143.460202 C107.0159,143.437622 107.4359,143.414982 107.8659,143.381832 L109.4559,143.264522 L114.1659,142.877072 C115.9359,142.729612 117.6959,142.583682 119.4659,142.437992 L120.4159,142.359742 C122.4959,142.198422 124.5759,142.037172 126.6459,141.875852 C128.7259,141.716672 130.7959,141.557492 132.8659,141.398312 C134.9259,141.251712 136.9959,141.105102 139.0559,140.958492 C139.9459,140.895382 140.8259,140.832702 141.7159,140.770082 L142.9559,140.682132 C143.7159,140.628482 144.4759,140.574712 145.2259,140.520692 C146.1259,140.462342 147.0159,140.404362 147.9059,140.346432 C149.0659,140.271362 150.2259,140.196352 151.3759,140.120662 C167.7559,139.058712 183.8959,138.208372 199.7659,137.554872 C231.5059,136.247862 262.1459,135.717962 291.3459,135.870862 C295.8459,135.910862 300.3059,135.949962 304.7259,135.988862 L312.9959,136.061462 L325.7159,136.207582 C328.5159,136.239682 331.3059,136.271362 334.0859,136.302372 C341.0159,136.402892 347.8459,136.507632 354.5759,136.637452 C361.3059,136.767332 367.9359,136.934872 374.4559,137.114992 L360.4059,137.165462 C353.7859,137.189022 347.6259,137.211062 341.8659,137.232302 C335.6159,137.260802 329.8359,137.287472 324.4359,137.312442 L315.9259,137.351682 C311.1659,137.381282 306.7159,137.408452 302.4859,137.434202 L302.4459,137.434572 L294.7659,137.481572 C293.1559,137.496212 291.5759,137.510862 290.0159,137.525572 L289.2059,137.537532 L289.1859,137.537902 C287.9159,137.556642 286.6559,137.575322 285.4159,137.592592 C284.7259,137.604062 284.0359,137.615172 283.3559,137.626162 C281.0559,137.663212 278.7959,137.699582 276.5659,137.749632 C264.9859,137.998902 254.1259,138.369632 241.4759,138.878602 C228.8459,139.410642 214.4359,140.091372 195.7859,141.161622 C208.9259,140.880982 222.0659,140.751102 235.1959,140.696652 C231.2659,140.844602 227.3459,141.020812 223.4159,141.197082 C222.0059,141.260442 220.5859,141.323732 219.1759,141.385742 L211.1659,141.777402 C210.5459,141.808962 209.9159,141.840092 209.2859,141.871152 L209.2559,141.872432 C207.2259,141.973022 205.1959,142.073612 203.1659,142.190062 C211.3659,142.309452 204.8659,142.948302 196.9559,143.670902 C196.3859,143.721312 195.8059,143.773132 195.2359,143.825132 L193.9459,143.941102 L190.9559,144.228032 C189.0059,144.418642 187.1659,144.602962 185.6559,144.774722 C182.6359,145.116089 180.9259,145.407227 182.1559,145.570618 C201.5159,144.657412 220.8959,144.003902 240.2859,143.568242 C259.6759,143.132572 279.0759,142.939882 298.4859,142.910582 L293.9959,142.860842 L293.9859,142.860652 C281.0759,142.718202 273.2659,142.631962 269.0859,142.481202 C264.4459,142.313662 264.3059,142.102112 266.6859,141.842342 C269.0759,141.593142 273.9759,141.304082 279.4259,141.025512 C284.1959,140.794802 289.3759,140.544982 293.6459,140.338742 L295.4359,140.252622 L310.4959,140.292422 C315.5259,140.304992 320.5559,140.315432 325.5659,140.298702 L340.6359,140.271482 L355.6959,140.217042 C352.6059,140.154232 348.3959,140.102782 344.1759,140.051332 L342.4759,140.030582 C337.7059,139.963562 333.1259,139.894472 330.3459,139.808592 C324.7959,139.632632 326.4859,139.412722 348.3959,138.964482 C358.0159,138.951172 368.8859,138.806822 380.1759,138.656802 C397.3359,138.428952 415.4659,138.188172 431.6359,138.373842 L383.7759,140.774172 C420.5259,139.651552 452.7659,139.810672 485.0159,139.969852 L485.0259,139.969852 C517.2759,140.126952 549.5459,140.271482 586.3459,139.075502 L608.7659,140.755312 L678.1739,139.781372 L670.3519,140.554262 C698.0989,140.321712 725.8469,140.097592 753.5709,139.944702 C759.1869,139.863042 764.2039,139.777162 768.7019,139.687072 L771.4009,139.635372 C774.7919,139.570492 777.8659,139.511592 780.6619,139.456722 L781.4999,139.436582 C781.8719,139.427672 782.2389,139.418822 782.5999,139.410282 L783.2169,139.395932 C784.0379,139.383362 784.8349,139.370852 785.6049,139.358272 C786.8529,139.336242 788.0339,139.314212 789.1549,139.293272 L789.9379,139.278682 C791.2209,139.248902 792.4219,139.221492 793.5499,139.195802 L795.4249,139.152952 C795.9869,139.140072 796.5289,139.127562 797.0519,139.115292 C801.1829,139.006352 804.1579,138.863952 806.5999,138.719422 C808.2949,138.623592 809.7319,138.523742 811.1169,138.427492 L811.1549,138.424922 C811.7549,138.383242 812.3439,138.342222 812.9409,138.302612 C830.2489,138.600032 847.2639,138.920472 861.6949,139.232602 C876.1289,139.553042 887.9839,139.879822 894.9989,140.265202 L854.7339,140.470462 L891.8779,141.750182 C876.4269,141.123902 891.2049,141.275882 907.2309,141.440732 L907.2529,141.440922 C917.5899,141.547182 928.4399,141.658752 932.0279,141.570072 C945.4499,141.953252 956.0789,142.252992 964.6849,142.495662 C982.7999,143.006472 991.9509,143.264592 999.3169,143.515872 C1004.0449,143.676272 1008.0349,143.844662 1013.1929,144.062382 L1015.5819,144.163082 C1017.5149,144.245662 1019.6239,144.336002 1021.9889,144.437322 L1026.9339,144.649052 C1031.4399,144.829162 1036.7839,145.042786 1043.3279,145.304627 C1050.1309,145.33606 1057.1249,145.367432 1064.1619,145.398865 L1066.8139,145.411438 L1070.0729,145.396118 C1071.6539,145.388916 1073.2349,145.381653 1074.7999,145.361145 C1075.6729,145.351868 1076.5449,145.343018 1077.4169,145.334229 L1077.6579,145.331848 C1078.4669,145.323609 1079.2759,145.315369 1080.0849,145.306702 L1085.3279,145.23761 C1099.2569,145.044922 1112.7189,144.808232 1124.5879,144.577822 C1148.3209,144.106572 1165.6539,143.631102 1167.1749,142.816342 C1191.7499,142.441772 1216.7199,141.981572 1241.8059,141.519162 C1267.0849,141.053162 1292.4829,140.585022 1317.7139,140.200252 C1330.2789,140.011782 1342.8039,139.842102 1355.2419,139.739442 C1367.6769,139.634702 1380.0359,139.573972 1392.2289,139.666142 L1393.9439,139.680362 C1394.8939,139.688412 1395.8439,139.696782 1396.7929,139.705932 C1397.4969,139.716672 1398.1999,139.727842 1398.9029,139.739012 L1399.0999,139.742122 C1399.8439,139.753972 1400.5869,139.765812 1401.3309,139.777162 C1401.8769,139.787782 1402.4259,139.796262 1402.9739,139.804692 C1403.9359,139.819462 1404.8969,139.834292 1405.8469,139.860962 L1405.9749,139.864442 C1407.4259,139.905152 1408.8769,139.945862 1410.3239,139.984502 L1411.4429,140.015932 L1412.5439,140.062012 C1412.9109,140.077702 1413.2769,140.093932 1413.6429,140.110172 L1414.0499,140.128112 C1414.2799,140.138302 1414.5109,140.148442 1414.7419,140.158382 C1415.4729,140.189762 1416.2039,140.221192 1416.9349,140.254702 C1417.3079,140.273072 1417.6799,140.290952 1418.0529,140.308842 L1418.1379,140.312862 C1418.4999,140.330322 1418.8629,140.347782 1419.2249,140.365722 C1419.9629,140.401062 1420.6999,140.437322 1421.4369,140.473572 C1423.7619,140.587892 1426.0809,140.701962 1428.3769,140.784612 C1440.5129,141.281002 1452.4449,141.616152 1464.1979,141.892642 C1469.3209,141.900392 1474.4409,141.881652 1479.5599,141.862912 C1481.3409,141.856382 1483.1199,141.849852 1484.8989,141.844482 L1505.5839,141.702022 C1536.9079,142.485412 1563.4146,142.807922 1587.9245,142.950382 C1600.1795,143.019472 1611.9358,143.034182 1623.5435,143.017392 L1641.95542,142.957092 C1650.51444,142.929012 1659.3535,142.844422 1668.00002,142.816342 L1668.00002,128.008362 Z M1.4259,143.768612 C1.7159,143.736942 2.0059,143.707152 2.2959,143.677122 L2.5759,143.647832 L2.8959,143.614322 C3.4259,143.559202 3.9659,143.514712 4.5059,143.469662 C4.8359,143.442812 5.1659,143.415712 5.4959,143.386052 C6.1159,143.340942 6.7359,143.295902 7.3759,143.250122 L8.2259,143.189152 C11.9459,142.946172 15.9959,142.759762 20.3259,142.594302 C22.0259,142.530272 23.7659,142.470092 25.5559,142.413212 C14.9959,142.480342 6.15711325,142.642851 0.997113249,143.091391 C1.0326994,143.225061 1.1859,143.795472 1.4259,143.768612 Z M942.3709,133.152162 C943.0199,133.002962 942.8589,132.848862 941.9769,132.690962 C953.9439,132.993462 965.7669,133.290662 977.1369,133.570962 C965.2399,133.401762 953.6329,133.259062 942.3709,133.152162 Z M1327.2439,130.253362 C1322.8429,130.198562 1322.8949,130.079262 1325.8519,129.928462 C1366.6629,129.266362 1400.7769,129.102562 1417.6929,130.014562 C1439.0329,131.165762 1477.2859,132.063862 1523.8409,132.649962 C1520.8439,132.654662 1517.8589,132.657962 1514.8849,132.659962 C1499.3749,132.653662 1484.1889,132.601362 1469.5189,132.458862 L1423.9779,130.917262 C1421.5019,130.829362 1419.2749,130.758162 1417.2429,130.709962 C1415.2149,130.670162 1413.3819,130.636662 1411.6809,130.630362 C1408.2729,130.659662 1405.4049,130.699462 1402.5979,130.820962 C1401.5229,130.864262 1400.4589,130.906262 1399.3769,130.949062 L1398.3789,130.988562 L1397.1609,131.043962 C1396.1139,131.091562 1395.0369,131.140562 1393.9059,131.191662 C1392.3349,131.256662 1390.6619,131.325762 1388.8289,131.399062 C1386.9959,131.478662 1385.0009,131.556162 1382.7909,131.631562 C1373.9439,131.941562 1361.6019,132.264062 1341.9919,132.676662 C1317.0939,132.710162 1283.0479,133.587862 1251.4369,134.415162 C1219.8249,135.240462 1190.6399,135.983962 1175.4539,135.717962 C1206.2059,134.893462 1225.1759,133.905262 1243.1699,132.967762 L1243.1979,132.966262 C1245.4439,132.849262 1247.6749,132.733062 1249.9119,132.618062 C1259.9939,132.098662 1270.1959,131.606362 1282.4449,131.183362 C1294.6919,130.768662 1308.9849,130.416762 1327.2439,130.253362 Z M1,0 L1668,0 L1668,128 L1,128 Z" id="Combined-Shape" fill="#2E2D2C"></path>
    </g>
</svg>