<?xml version="1.0" encoding="UTF-8"?>
<svg width="100%" height="100%" preserveAspectRatio="none" viewBox="0 0 100 22" version="1.1" xmlns="http://www.w3.org/2000/svg" xmlns:xlink="http://www.w3.org/1999/xlink">
    <title>header_search</title>
    <g id="Page-1" stroke="none" stroke-width="1" fill="none" fill-rule="evenodd">
        <g id="header_search" transform="translate(0.000000, 0.000000)" fill="#2E2D2C" fill-rule="nonzero">
            <path d="M0,0.000258861822 L0.486854321,0.000259388855 C2.1364321,0.000259388855 3.76634568,0.468510518 4.0757284,0.664032483 C4.54597531,0.960822134 4.88503704,1.20948256 5.32930864,1.46115287 C5.90597531,1.78802208 7.21560494,2.85922618 7.40740741,3.38461516 C8.1974321,5.54025238 7.98496296,6.38664793 7.99733333,8.51905219 C8.00061728,9.08587852 7.98496296,9.70922793 7.98496296,10.2747246 C7.98496296,10.6958433 7.91688889,11.1490432 7.97259259,11.5661729 C8.03817284,12.0664915 7.98990123,12.4704453 7.98496296,12.9858255 C7.97876543,13.8120101 7.91071605,14.6241968 8.22503704,15.3481177 C8.61980247,16.255533 8.96382716,17.3223637 9.53802469,18.1796384 C10.4475802,19.5402778 11.448716,20.2832492 13.0524938,21.0683349 C14.2516296,21.6548887 14.9631852,21.8032799 16.3306173,21.8032799 C16.8095309,21.8032799 18.396,21.8203238 18.8749136,21.8253524 C20.4489877,21.841381 22.0700988,21.7110491 23.6045926,21.892537 C25.1390123,22.0740007 26.2701235,21.9707458 27.7923457,21.9707458 C30.7597531,21.9707458 33.7274074,21.957715 36.6948148,21.9707458 C39.6622222,21.9837766 42.6335802,21.8504227 45.6232099,21.8714799 C48.5846914,21.892537 53.9725926,21.8714799 56.9353086,21.8714799 C63.702963,21.8714799 66.2202469,21.7932711 72.9348148,21.7711986 C74.0906173,21.7672096 75.2451852,21.7711986 76.4009877,21.7711986 C78.4688889,21.7711986 80.9488889,22.0198711 82.9511111,21.7040381 C88.6311111,20.8096536 91.2014815,19.0429328 91.2014815,14.3514694 C91.2014815,12.7792673 91.3871605,12.1355618 91.3659259,10.5633839 C91.3560494,9.83143671 91.1530864,9.16266093 91.331358,8.44575109 C91.2014815,7.13196437 91.3175309,5.68825677 91.522963,4.89908539 C91.7283951,4.10988984 92.014321,3.38304373 92.5550617,2.70824817 C92.9881481,2.16680403 93.374321,1.89508229 93.8604938,1.41179551 C94.891358,0.385062831 96.8046914,-0.0117671715 100,0.000264859844" id="Path"></path>
        </g>
    </g>
</svg>