<svg width="72" height="73" viewBox="0 0 72 73" fill="none" xmlns="http://www.w3.org/2000/svg">
<g clip-path="url(#clip0_623_190)">
<path d="M48.3734 64.6997C49.5391 64.5357 50.7049 64.3478 51.839 64.0839C52.416 63.968 52.9613 63.804 53.5224 63.6601C54.0599 63.4842 54.621 63.3322 55.1347 63.1203C55.6722 62.9364 56.1582 62.6965 56.668 62.4766C57.1382 62.2207 57.6322 61.9848 58.059 61.689C58.9363 61.1212 59.7424 60.4895 60.3747 59.7258C60.5565 59.5539 60.6829 59.338 60.837 59.1421C60.9872 58.9462 61.1413 58.7503 61.2638 58.5303C61.5325 58.1105 61.7617 57.6547 61.9751 57.1669C62.398 56.1954 62.7101 55.0919 62.9433 53.8964C63.1764 52.7049 63.3227 51.4215 63.4412 50.0861C63.5519 48.7466 63.6427 47.3273 63.7257 45.9439C64.0537 40.3703 64.1723 34.7768 64.0458 29.3152C64.0182 27.9518 63.9668 26.5924 63.9115 25.2489L63.864 24.2414C63.8482 23.9095 63.8364 23.5577 63.8008 23.2778L63.7218 22.3942C63.6981 22.0983 63.6744 21.8065 63.6151 21.5266C63.2831 19.2396 62.5679 17.2045 61.5167 15.5772C60.1969 13.674 58.3988 12.1947 56.0515 11.1991C53.7398 10.1716 50.9973 9.59581 48.1323 9.25196C45.2515 8.91611 42.2324 8.81215 39.1343 8.78416C36.0322 8.75218 32.855 8.80416 29.5593 8.72819C29.1523 8.72419 28.7295 8.7042 28.3145 8.68821L27.1093 8.64023C26.3308 8.60824 25.5721 8.58025 24.8252 8.56826C23.3314 8.54027 21.8891 8.56826 20.5257 8.68421C19.1624 8.80415 17.8781 9.02006 16.7361 9.37191C15.5901 9.72375 14.5863 10.1995 13.7209 10.8113C12.8673 11.439 12.0928 12.1667 11.4684 13.0783C10.8441 13.9899 10.3224 15.0534 9.89961 16.2209C9.47282 17.3844 9.17249 18.6798 8.9433 20.0192C8.71014 21.3587 8.55998 22.754 8.47304 24.1854C8.12134 24.1694 7.72222 22.1943 7.41399 24.1134C7.15713 26.0486 6.99116 27.5479 6.82123 28.6834C6.65921 29.8149 6.49719 30.5666 6.33517 31.0784C6.00718 32.0939 5.65943 32.1019 5.30378 32.1059C5.12595 32.1059 5.10619 30.5746 5.122 29.3032C5.13386 28.0277 5.15757 27.0082 4.95998 28.0237C4.98764 26.4924 5.03506 24.7132 5.15361 23.0139C5.26821 21.3107 5.48161 19.6954 5.67919 18.4599C5.88073 17.2245 6.08622 16.3768 6.06646 16.1769C6.05855 16.077 6.00323 16.1409 5.88863 16.4128C5.77798 16.6847 5.58435 17.1525 5.39467 17.8882C5.18918 18.36 4.98369 19.2276 4.79796 20.2951C4.62804 21.3666 4.47392 22.6341 4.39094 23.9135C4.19335 26.4684 4.14593 29.0353 3.87721 30.0628C3.34373 32.1339 2.82211 27.9877 2.28468 30.0628C2.26492 32.1539 2.37557 36.2961 2.45065 38.3592C2.16613 40.4343 1.32046 36.3281 1.38764 38.3952C1.31256 41.5018 1.42716 45.1002 1.50619 48.9066C1.522 49.8542 1.53386 50.8177 1.54966 51.7933C1.54966 52.2771 1.54966 52.7689 1.55361 53.2567V54.0683C1.55757 54.3722 1.57732 54.68 1.59708 54.9879C1.68797 56.2194 1.90927 57.4868 2.32815 58.7183C2.74308 59.9497 3.33978 61.1412 4.08665 62.2087C3.94044 62.3127 4.09061 62.8365 3.96415 62.9284C3.90092 62.9724 3.77052 62.9124 3.49785 62.6325C3.16196 62.2487 2.61267 61.561 1.9962 60.3016C1.36788 58.9022 0.980617 57.4148 0.802791 55.9595C0.711902 55.2318 0.668433 54.5081 0.672385 53.7964V52.1252C0.652626 49.9301 0.589399 47.7111 0.506413 45.4761C0.33649 41.002 0.0914846 36.46 0.0164022 31.8221C-0.0152114 29.4911 -0.00730796 27.1761 0.0954363 24.7812C0.206084 22.3862 0.411572 19.9313 0.91739 17.4124C1.42321 14.9015 2.21355 12.3066 3.57689 9.81571C3.75471 9.50785 3.94835 9.20398 4.13408 8.90011C4.32771 8.59625 4.50158 8.28838 4.73078 8.00051C5.16942 7.42076 5.5883 6.82502 6.10993 6.30125C6.35888 6.03337 6.60784 5.76149 6.86865 5.4976L7.69851 4.76593C8.23989 4.26614 8.86031 3.85433 9.46097 3.43051C10.6979 2.63486 12.0098 2.00714 13.3297 1.52335C14.6535 1.04356 15.9773 0.731694 17.2814 0.495798C19.8856 0.0439959 22.387 -0.0239743 24.7778 0.00801165C25.9712 0.0240046 27.1448 0.0759819 28.2711 0.123961C29.342 0.163943 30.4208 0.191931 31.5273 0.203926L38.2807 0.243908C40.5767 0.267898 42.9082 0.323873 45.2871 0.483803C47.6621 0.647731 50.0845 0.911615 52.5543 1.41939C55.0162 1.92717 57.5413 2.67484 60.0151 3.88631C62.4849 5.06979 64.8836 6.85701 66.7725 9.13601C68.6733 11.407 69.9971 14.1218 70.7321 16.8086C70.8941 17.4804 71.064 18.1561 71.2103 18.8278L71.5264 20.8349C71.5975 21.4946 71.6449 22.1543 71.7003 22.814C71.7121 22.9739 71.7319 23.1539 71.7358 23.2978L71.7556 23.7336L71.7951 24.6052C71.9966 29.2592 72.0559 33.9171 71.9729 38.5711C71.9295 40.8981 71.8544 43.2251 71.7398 45.548C71.6845 46.7115 71.6173 47.871 71.5422 49.0305C71.4671 50.194 71.3802 51.4055 71.2379 52.6569C70.9494 55.1558 70.4594 57.8706 69.2621 60.6014C68.6693 61.9608 67.8553 63.3083 66.895 64.5037C66.6737 64.8196 66.401 65.0875 66.1442 65.3714C65.8834 65.6472 65.6344 65.9431 65.3538 66.195C64.7927 66.6948 64.2395 67.2225 63.6348 67.6424C62.4533 68.554 61.1927 69.2337 59.9321 69.8454C59.2998 70.1093 58.6636 70.4131 58.0313 70.625L57.079 70.9649L56.1306 71.2488C53.5975 71.9884 51.1159 72.3523 48.6974 72.5882C47.4882 72.7081 46.2908 72.7761 45.1172 72.8321C43.9712 72.8841 42.8212 72.92 41.6752 72.948C39.3793 73.004 37.0834 73.02 34.7914 72.988C32.4915 72.96 30.2232 72.8881 27.9036 72.7641C25.5721 72.6362 23.205 72.4283 20.8182 72.0604C18.4313 71.6926 16.0129 71.1768 13.5786 70.3572C11.1562 69.5295 8.67853 68.41 6.37074 66.6188C5.32749 65.7872 4.58852 64.9795 4.07085 64.3398C3.54922 63.7001 3.2647 63.1963 3.10663 62.9084C3.01179 62.6805 3.01574 62.5926 3.10268 62.6126C3.14615 62.6246 3.20938 62.6605 3.29631 62.7245C3.38325 62.7925 3.52946 62.9324 3.67963 63.0804C4.29214 63.6921 5.3433 64.6917 6.69873 65.5953C8.05021 66.5148 9.68622 67.3105 11.3143 67.8982C10.2276 67.4984 9.74549 67.1266 9.27919 66.7507C9.04604 66.5588 8.81289 66.3789 8.51651 66.147C8.21618 65.9311 7.84867 65.6672 7.33495 65.3394C7.50488 65.1075 8.65087 65.6512 10.765 66.3989C12.8871 67.1426 15.9892 67.9942 20.1108 68.5979C18.0599 68.2421 16.0168 67.7623 14.0133 67.0586C12.0928 66.147 14.203 66.5628 14.3058 66.215C16.246 66.9107 18.2535 67.3225 18.2891 67.1506C18.3246 66.9746 18.4037 66.6268 18.4392 66.4509C17.4632 66.239 16.005 65.8671 14.5982 65.3714C13.1914 64.8756 11.8478 64.2358 11.0061 63.7321C12.6974 64.7356 14.6061 65.3674 14.6535 65.2034C14.7128 65.0355 14.8274 64.6956 14.8867 64.5277C16.7242 65.0915 19.0834 65.7072 21.5255 66.111C23.9598 66.5268 26.4533 66.7507 28.4607 66.7587L28.4845 66.223C26.4968 66.0391 24.0269 65.8591 21.6124 65.5113C19.194 65.1794 16.8348 64.6557 15.0605 64.0199C16.9099 64.4518 16.9692 64.2319 17.0601 63.9C22.5016 65.2274 28.4766 65.9351 34.5187 65.4993C32.5231 65.4753 30.5077 65.4193 28.5279 65.3274C30.5314 64.9755 34.0287 65.0435 37.771 65.0595C39.6441 65.0715 41.5764 65.0715 43.4179 65.0275C45.2831 64.9875 46.9508 64.9036 48.3694 64.7036L48.3734 64.6997Z" fill="#EF8D2B"/>
<path d="M29.6659 29.0952C28.4251 29.6789 27.366 30.5025 26.465 31.5621C25.5482 32.6096 24.8804 34.009 24.4575 35.5483C24.0466 37.0957 23.9636 38.8069 24.1572 40.4422C24.3627 42.0775 24.9041 43.6248 25.6589 44.8762L25.8288 45.1601L26.0185 45.424C26.1449 45.5999 26.2635 45.7838 26.3939 45.9518C26.6744 46.2756 26.9195 46.6235 27.2237 46.9034C27.4964 47.2192 27.8165 47.4631 28.1089 47.739C28.263 47.8629 28.429 47.9709 28.5831 48.0908C28.6622 48.1468 28.7372 48.2108 28.8163 48.2668L29.0652 48.4107C30.3614 49.2343 31.7919 49.5702 33.3489 49.5862C34.7952 49.5662 36.3245 49.0864 37.6167 48.2588C38.9168 47.4271 39.9364 46.2916 40.537 45.0162C40.8611 45.1561 41.0942 45.8958 41.4933 45.484C41.8529 45.0442 42.1335 44.6883 42.3785 44.4204C42.6354 44.1566 42.833 43.9686 43.0384 43.8607C43.4415 43.6408 43.7853 43.7088 44.1291 43.7887C44.3069 43.8287 44.1765 44.3325 44.058 44.7483C43.9236 45.1561 43.8169 45.484 44.0896 45.2161C43.7656 46.2157 43.1649 47.4671 42.7105 48.2148C42.256 48.9585 42.1137 49.3383 42.9278 48.5986C43.1056 48.5067 43.319 48.2668 43.5601 47.9549C43.7774 47.631 44.0224 47.2392 44.22 46.8234C44.6468 46.0037 44.9669 45.1361 45.3186 44.8403C45.6703 44.5444 45.8797 44.7883 46.0852 45.0602C46.2907 45.324 46.4843 45.6119 46.8518 45.2801C46.9032 45.0762 46.9704 44.8163 47.0455 44.5364C47.1008 44.2525 47.164 43.9407 47.2233 43.6328C47.3221 43.0091 47.3972 42.3853 47.4209 41.9695C47.6303 41.5657 47.8793 41.7856 48.0848 42.0215C48.2863 42.2534 48.4444 42.4933 48.4799 42.0495C48.7566 40.7421 48.7684 39.1827 48.555 37.5794C48.3377 35.9721 47.903 34.3249 47.3774 32.7216C47.5434 32.6656 47.654 32.4257 47.8002 32.3777C47.8753 32.3537 47.9583 32.3777 48.0611 32.4897C48.1717 32.6216 48.3061 32.8655 48.476 33.2693C49.0371 35.0965 49.4521 36.9957 49.6101 38.9828C49.78 40.966 49.6892 43.041 49.2426 45.1241C49.0095 46.1637 48.6815 47.2032 48.2586 48.2148C47.82 49.2103 47.2865 50.2219 46.6384 51.1295C45.3502 52.9527 43.7181 54.476 41.8687 55.6355C40.0154 56.795 37.9328 57.6027 35.7199 57.9545C35.4472 58.0065 35.1627 58.0305 34.8861 58.0625C34.6055 58.0905 34.3289 58.1264 34.0444 58.1304L33.1948 58.1544L32.3649 58.1104L31.535 58.0545C31.2584 58.0305 30.9818 57.9745 30.7052 57.9305L29.8753 57.7866C29.5987 57.7386 29.326 57.6466 29.0534 57.5747C26.8602 56.9789 24.7816 55.8594 23.0705 54.4121C21.3476 52.9607 19.9724 51.2095 18.9252 49.3423C17.878 47.4711 17.1429 45.48 16.6885 43.4369C16.238 41.3938 16.0641 39.2907 16.1945 37.1756C16.3289 35.0605 16.7675 32.9215 17.6092 30.8544C18.451 28.7953 19.7234 26.8162 21.4068 25.1889C23.0824 23.5576 25.1451 22.3341 27.2712 21.6104C27.8046 21.4465 28.3302 21.2626 28.8795 21.1386C29.4288 21.0187 29.9781 20.8988 30.5313 20.8388C31.6378 20.6828 32.7443 20.6669 33.8349 20.7228C36.0123 20.8748 38.1304 21.3825 40.0747 22.2542C41.0586 22.666 41.9794 23.2057 42.8804 23.7735C43.7616 24.3772 44.6152 25.0129 45.3897 25.7646C45.7454 26.1045 45.9864 26.4043 46.1603 26.6402C46.3342 26.8761 46.4369 27.0481 46.4804 27.164C46.5041 27.264 46.4804 27.3199 46.4211 27.3439C46.3618 27.3679 46.267 27.3559 46.1089 27.288C45.5043 27.0281 44.299 26.2564 43.0543 25.6807C43.8723 26.1045 43.5522 26.4963 44.3267 26.9641C44.1449 27.172 43.5956 27.108 42.7342 26.8441C41.8766 26.5763 40.7346 26.0805 39.233 25.4927C39.6005 25.6567 39.9522 25.8526 40.3118 26.0365C40.6556 26.2484 41.0112 26.4403 41.3432 26.6682C41.9083 27.272 41.0428 27.112 40.8611 27.4159C40.2248 26.9961 39.5491 26.6362 39.4661 26.8042C39.3831 26.9641 39.2211 27.28 39.1421 27.4399C39.7862 27.7557 40.9954 28.5394 41.5328 29.0152C40.9796 28.5554 40.375 28.1676 40.2802 28.3155C40.1853 28.4674 39.9917 28.7633 39.8929 28.9152C39.2843 28.6234 38.5849 28.1636 37.8222 27.7997C37.4507 27.5998 37.0556 27.4559 36.6802 27.3119C36.2968 27.204 35.9333 27.084 35.5934 27.072L35.4749 27.5958C36.6841 28.0156 38.5256 28.6234 39.6005 29.367C38.9603 29.1671 38.8734 29.3431 38.6955 29.6469C37.8657 29.2631 37.0714 28.8113 36.2099 28.4874C35.3563 28.1636 34.4277 27.9996 33.5267 28.2115C33.8191 28.2355 34.1115 28.2515 34.404 28.3075C34.5502 28.3315 34.6964 28.3475 34.8426 28.3755L35.2773 28.4714C34.6016 28.7593 33.6334 28.6554 32.5901 28.6354C32.3333 28.6474 32.0646 28.6354 31.8038 28.6474C31.5469 28.6753 31.2782 28.6633 31.0292 28.7193C30.5274 28.7753 30.0611 28.9472 29.6738 29.0992L29.6659 29.0952Z" fill="#EF8D2B"/>
<path d="M54.2004 16.7887C54.4572 16.7807 54.4691 16.8687 54.473 16.9606C54.473 16.9726 54.473 16.9846 54.4849 17.0046V17.0166L53.5563 17.8443C53.493 17.9042 53.4258 17.9642 53.3666 18.0282C53.1097 18.2761 52.8805 18.5559 52.7422 18.7838C52.596 19.0157 52.5446 19.2037 52.5446 19.2756C52.5446 19.3036 52.5486 19.3236 52.5446 19.2956V19.2876C52.5328 19.2596 52.5604 19.3236 52.5565 19.3196V19.3076L52.5328 19.2596C52.513 19.2236 52.4853 19.1757 52.4419 19.1157C52.3905 19.0397 52.3194 18.9518 52.185 18.8038L51.9044 18.508L51.6673 18.2681L51.5962 18.1961L51.5606 18.1601L51.5527 18.1521C51.9361 18.528 51.6594 18.2561 51.7424 18.34L51.7385 18.336C51.7148 18.308 51.6831 18.2881 51.6634 18.2681C51.616 18.2321 51.5883 18.2161 51.5843 18.2161C51.5764 18.2161 51.7148 18.2721 51.8926 18.2721C52.0665 18.2841 52.2482 18.2121 52.2482 18.2041L52.4853 18.0282C52.4853 18.0282 52.4695 18.0402 52.4616 18.0482C52.4458 18.0642 52.4221 18.0881 52.4024 18.1161C52.3628 18.1721 52.3273 18.2481 52.3154 18.2961C52.2917 18.392 52.3115 18.316 52.3036 18.336C52.3036 18.328 52.3036 18.356 52.3036 18.32C52.3036 18.2961 52.3036 18.2801 52.3036 18.2641C52.3036 18.2401 52.3115 18.2441 52.3115 18.2441C52.3115 18.2441 52.3233 18.2441 52.347 18.0682C52.3707 18.0761 52.4103 18.0362 52.4735 17.9722C52.5288 17.9002 52.6395 17.8123 52.6711 17.6243C52.7382 17.4564 52.6632 17.4204 52.596 17.3725C52.5249 17.3285 52.4577 17.2725 52.4419 17.0006C52.4221 16.7287 52.4577 16.4609 52.5249 16.201C52.5841 15.9371 52.6711 15.6772 52.6078 15.4013C52.4221 15.3733 52.0388 15.3853 51.8412 15.4213C51.7108 15.2654 51.7069 14.9895 51.7345 14.7576C51.7582 14.5257 51.8056 14.3378 51.6713 14.3618C51.2406 14.2538 50.6794 14.3658 50.1183 14.7296C49.5571 15.0855 49.0197 15.7532 48.7391 16.4729C48.5771 16.4049 48.4032 16.3569 48.261 16.2969C48.1898 16.2689 48.1266 16.233 48.0713 16.197C48.0476 16.093 48.0555 15.9331 48.1266 15.6972C48.3598 15.2254 48.6996 14.7816 49.0711 14.4337C49.4465 14.0779 49.8496 13.81 50.2526 13.6101C51.0588 13.2183 51.8254 13.0863 52.5644 13.0943C53.3033 13.1063 54.0423 13.2623 54.7931 13.6381C55.1685 13.826 55.54 14.0739 55.8957 14.3938C56.0695 14.5417 56.2395 14.7336 56.3975 14.9215L56.5121 15.0655L56.603 15.1894L56.7729 15.4413C57.2116 16.121 57.4763 16.8847 57.587 17.5964C57.6976 18.312 57.67 18.9798 57.5593 19.5915C57.4447 20.2072 57.2511 20.779 56.9705 21.3227C56.8322 21.5946 56.6702 21.8585 56.4845 22.1144C56.3936 22.2423 56.2908 22.3703 56.1841 22.4942C56.0774 22.6222 55.9865 22.7221 55.8008 22.902C55.619 23.074 55.3661 23.2859 55.0026 23.5098C54.643 23.7337 54.1372 23.9536 53.6629 24.0695C53.169 24.1935 52.6474 24.2335 52.185 24.1975C52.0704 24.1895 51.9519 24.1775 51.8373 24.1615C51.7306 24.1455 51.6278 24.1295 51.5251 24.1055C51.3077 24.0615 51.1378 24.0095 50.956 23.9536C50.2566 23.7137 49.8258 23.4298 49.482 23.1859C49.1462 22.938 48.9051 22.7101 48.6996 22.5022C48.4704 22.2623 48.4111 22.1863 48.2728 22.0264C48.1464 21.8745 48.0278 21.7186 47.9211 21.5706C47.7077 21.2668 47.5141 20.9469 47.356 20.611C47.194 20.2752 47.0676 19.9273 46.9806 19.5875C46.8897 19.2396 46.8463 18.9238 46.8344 18.6799C46.8186 18.44 46.8344 18.2641 46.8621 18.2041C46.8937 18.1561 46.9213 18.2361 47.0122 18.6399C47.0913 18.7998 47.2177 18.9158 47.3481 18.9158C47.4074 18.8878 47.4785 18.8638 47.5536 18.8438C47.6287 18.8238 47.7117 18.8078 47.7868 18.7399C48.095 18.504 48.4309 18.1241 48.7075 17.9362C48.6166 18.0002 48.7312 18.0082 48.8498 18.0042C48.9683 18.0002 49.0869 17.9962 48.9999 18.0921C49.3319 18.0042 49.7547 17.8043 50.0867 17.6443C50.4186 17.4844 50.6478 17.3645 50.628 17.3805C50.6873 17.3565 50.7505 17.3645 50.8138 17.3805C51.0904 17.3645 51.4579 17.2285 51.8807 17.1406C51.8017 17.1286 51.7266 17.1406 51.9321 17.0966C52.0665 17.0686 52.3352 17.0086 52.4695 16.9806C52.5367 16.9646 52.6829 16.9806 52.7462 17.0126C52.6829 16.9806 52.6078 16.9766 52.7303 16.9486C52.8528 16.9207 53.0979 16.8647 53.2204 16.8367C53.2441 16.7927 52.8173 16.9087 52.8647 16.9446L53.2954 16.8407C53.5049 16.7527 53.4891 16.7407 53.5839 16.7527C53.6629 16.7247 53.7894 16.6968 54.0423 16.6408C54.0581 16.6288 53.9514 16.6568 53.8763 16.6848C53.8013 16.7127 53.7538 16.7527 53.9554 16.7247C53.9751 16.7048 53.9949 16.6848 54.0146 16.6688C54.3505 16.6008 54.3703 16.6048 54.311 16.6488C54.2518 16.6888 54.1253 16.7767 54.2043 16.7807L54.2004 16.7887Z" fill="#EF8D2B"/>
</g>
<defs>
<clipPath id="clip0_623_190">
<rect width="72" height="73" fill="white"/>
</clipPath>
</defs>
</svg>
