<svg width="150" height="149" viewBox="0 0 150 149" fill="none" xmlns="http://www.w3.org/2000/svg">
<ellipse cx="79" cy="74.5056" rx="71" ry="69.5" fill="white"/>
<path d="M11.3318 83.4128L11.2782 82.9967L11.2346 82.5784L11.1461 81.743C11.5305 84.4291 12.0155 87.1729 12.6894 89.9025C12.7735 90.2434 12.8576 90.5855 12.9417 90.9275C13.0334 91.2673 13.1252 91.6083 13.2169 91.9492C13.2628 92.1191 13.3065 92.2912 13.3545 92.4611L13.5042 92.9698L13.8024 93.9883L14.1235 95.0002C14.177 95.169 14.2283 95.3389 14.2851 95.5067L14.4577 96.0088C14.5735 96.3432 14.6838 96.6798 14.8028 97.0142C14.9252 97.3464 15.0475 97.6786 15.1698 98.0108C14.3889 95.0045 13.7783 91.8501 13.3294 88.6858C12.8762 85.5205 12.5813 82.3464 12.3584 79.2628C12.3333 78.8772 12.3049 78.4927 12.2733 78.1104C12.2503 77.727 12.2285 77.3457 12.2012 76.9667C12.1881 76.7771 12.1739 76.5876 12.1608 76.3992C12.1498 76.2096 12.14 76.0212 12.1291 75.8328C12.104 75.4559 12.0788 75.0823 12.0537 74.7098C12.0177 73.9647 11.9532 73.2262 11.9139 72.4975C11.8921 72.1326 11.8571 71.7699 11.8353 71.4104C11.8134 71.051 11.7872 70.6926 11.7566 70.3375C11.7217 69.9814 11.702 69.6295 11.6714 69.2788C11.643 68.9281 11.6059 68.5795 11.572 68.2331C11.5426 67.8878 11.5098 67.5447 11.4705 67.2038C11.4497 67.0328 11.429 66.8629 11.4093 66.694C11.3907 66.5252 11.3722 66.3564 11.3547 66.1886C11.3154 65.8531 11.2717 65.5198 11.2214 65.1887C11.1734 64.8576 11.133 64.5308 11.0795 64.2062C11.0292 63.8816 10.9681 63.5581 10.9123 63.2379C10.8588 62.9187 10.7988 62.6017 10.7332 62.287C10.8654 62.2434 11.0008 62.1573 11.1373 62.0343C11.2739 61.9112 11.4115 61.7521 11.5589 61.5637C11.7042 61.3742 11.8495 61.1552 11.9969 60.9102C12.1455 60.6662 12.2842 60.3949 12.4425 60.1085C12.7527 59.5344 13.0476 58.8787 13.3687 58.1969C13.4452 58.0258 13.5227 57.8527 13.6014 57.6773C13.6396 57.5901 13.6778 57.5019 13.7161 57.4137C13.7565 57.3265 13.7958 57.2383 13.8362 57.1501C13.9957 56.7983 14.1508 56.4421 14.3004 56.0859C14.4544 55.7319 14.6128 55.3812 14.758 55.0359C14.8301 54.8627 14.9022 54.6917 14.9732 54.5228C15.0464 54.3551 15.1196 54.1895 15.1906 54.0261C15.3315 53.7005 15.4614 53.3835 15.5849 53.084C15.7137 52.7866 15.8328 52.5034 15.9376 52.2409C16.143 51.7137 16.3221 51.2747 16.4259 50.9501C16.5307 50.6255 16.5679 50.4186 16.522 50.3696C17.0615 48.0005 17.8294 45.6444 18.7894 43.3265C18.6223 43.7241 18.4465 44.1162 18.2903 44.516C18.1352 44.9157 17.979 45.3144 17.8239 45.7131C17.6808 46.1161 17.5388 46.518 17.3968 46.9188L17.292 47.2195L17.1959 47.5234C17.1325 47.726 17.0681 47.9275 17.0047 48.1301C17.0681 47.9286 17.1325 47.726 17.1959 47.5234L17.292 47.2195L17.3968 46.9188C17.5388 46.518 17.6808 46.1161 17.8239 45.7131C17.979 45.3144 18.1341 44.9157 18.2903 44.516C18.4465 44.1162 18.6223 43.7241 18.7894 43.3265C20.3142 39.6667 22.3632 36.1081 24.8742 32.7903C27.383 29.4703 30.3527 26.3921 33.6851 23.6646C37.0174 20.935 40.7124 18.5572 44.6608 16.6118C48.6081 14.6631 52.8022 13.1415 57.1252 12.0762C57.2748 12.0381 57.4277 11.9988 57.585 11.9574C57.7434 11.9204 57.905 11.8834 58.071 11.8442C58.402 11.7668 58.7493 11.6851 59.1097 11.6013C59.4724 11.525 59.8481 11.4455 60.238 11.3638C60.6268 11.2767 61.032 11.2037 61.4482 11.1264C63.1138 10.8137 64.9848 10.5251 66.9977 10.3203C69.0107 10.1177 71.1645 9.99681 73.3861 9.99137C75.6077 9.98483 77.8959 10.0959 80.1655 10.3345C82.4362 10.5708 84.6895 10.9336 86.8521 11.4008C89.0147 11.867 91.0855 12.4389 92.9991 13.0707C94.9126 13.7013 96.6678 14.3908 98.2144 15.0716C99.761 15.7535 101.091 16.4408 102.18 17.03C102.494 17.2054 102.807 17.3797 103.12 17.5551C103.276 17.6433 103.434 17.7272 103.588 17.8176L104.051 18.0899C104.359 18.2729 104.673 18.4471 104.979 18.6356C105.285 18.8229 105.592 19.0114 105.9 19.1998C105.398 18.872 105.025 18.6182 104.708 18.4177C104.389 18.2184 104.134 18.0594 103.879 17.9004C103.625 17.7381 103.365 17.5856 103.041 17.3949C102.715 17.2065 102.331 16.9658 101.801 16.6782C103.224 17.2065 104.607 17.762 105.937 18.3709C106.105 18.4461 106.272 18.5201 106.438 18.5953C106.604 18.6704 106.766 18.751 106.93 18.8295C107.258 18.9863 107.583 19.1421 107.908 19.2978C108.546 19.6279 109.19 19.9405 109.808 20.2869C111.061 20.9546 112.258 21.6757 113.428 22.4153C114.007 22.7932 114.587 23.1657 115.144 23.5633C115.423 23.7616 115.71 23.9489 115.982 24.1548C116.256 24.3574 116.53 24.56 116.803 24.7626C116.53 24.3476 116.404 24.06 116.158 23.6537C116.035 23.4522 115.877 23.2267 115.655 22.9392C115.432 22.6527 115.148 22.302 114.747 21.8794C114.923 22.0351 115.102 22.1865 115.275 22.3445L115.793 22.8205L116.31 23.2954L116.816 23.7823C117.124 23.9119 117.471 24.0785 117.832 24.2931C118.192 24.5077 118.576 24.7582 118.975 25.0327C119.367 25.3159 119.774 25.6263 120.188 25.9498C120.595 26.281 121.005 26.6317 121.416 26.9835C121.819 27.3441 122.22 27.7112 122.613 28.0706C122.998 28.4399 123.375 28.8004 123.734 29.1446C124.087 29.4964 124.423 29.8308 124.74 30.1347C125.055 30.4408 125.337 30.7262 125.6 30.9658C124.881 30.7839 126.259 32.506 127.362 34.1006L127.119 33.3197C128.213 34.8076 129.315 36.3804 130.374 38.0121C131.43 39.6438 132.439 41.3376 133.364 43.0488C134.289 44.76 135.129 46.4908 135.859 48.19C135.948 48.4024 136.039 48.6148 136.127 48.825C136.217 49.0352 136.306 49.2455 136.386 49.4568C136.55 49.8783 136.712 50.2944 136.871 50.7061C137.019 51.1211 137.164 51.5307 137.307 51.9337C137.38 52.1341 137.446 52.3367 137.509 52.5372C137.572 52.7376 137.636 52.9358 137.699 53.133C137.77 53.3519 137.829 53.56 137.874 53.756C137.914 53.9532 137.944 54.1383 137.965 54.3093C138.005 54.6514 138.01 54.9378 137.998 55.1568C138.687 57.1457 139.279 59.1728 139.771 61.2304C139.605 61.1378 139.56 61.4177 139.552 61.8458C139.541 62.275 139.581 62.849 139.612 63.3446C139.65 64.3402 139.672 65.0111 139.286 63.5581C139.969 65.8248 140.258 68.1928 140.421 70.5358C140.585 72.8831 140.625 75.2043 140.832 77.4851C140.595 81.5273 140.005 85.6131 139.033 89.6596C138.059 93.704 136.709 97.708 134.992 101.585C133.276 105.461 131.194 109.209 128.787 112.753C126.379 116.296 123.648 119.634 120.651 122.705L121.103 122.575C119.031 124.765 117.05 126.843 114.749 128.842C114.46 129.088 114.164 129.332 113.866 129.577C113.716 129.699 113.566 129.822 113.414 129.945C113.259 130.064 113.104 130.183 112.947 130.302C112.633 130.54 112.317 130.783 111.988 131.015C111.659 131.246 111.323 131.476 110.981 131.707C109.603 132.613 108.091 133.474 106.392 134.242C104.2 135.79 101.344 137.372 98.7638 138.654C96.1894 139.949 93.9067 140.981 92.9969 141.836C92.6146 141.943 92.2465 142.047 91.8916 142.146C91.5355 142.245 91.1947 142.349 90.8605 142.434C90.5274 142.526 90.2052 142.613 89.8917 142.699C89.7355 142.743 89.5804 142.786 89.4286 142.829C89.2757 142.869 89.125 142.908 88.9753 142.946C87.7837 143.268 86.7046 143.549 85.6222 143.816C85.0794 143.941 84.5387 144.079 83.9806 144.199C83.4214 144.314 82.848 144.44 82.244 144.55C81.9404 144.601 81.6302 144.654 81.3112 144.708C80.9912 144.759 80.6636 144.818 80.3217 144.859C79.9809 144.903 79.6281 144.947 79.2633 144.993C78.8985 145.041 78.5195 145.076 78.1253 145.109C78.5381 145.24 78.3655 145.366 77.9166 145.484C77.6927 145.544 77.4 145.602 77.0778 145.658C76.7556 145.711 76.405 145.753 76.0653 145.799C75.7256 145.844 75.3969 145.887 75.1195 145.931C74.8519 145.971 74.6378 146.012 74.5089 146.054C74.2522 146.139 74.3462 146.233 75.0976 146.347C76.1625 146.538 76.9828 146.65 77.6643 146.676C78.347 146.71 78.892 146.706 79.4152 146.673C79.9383 146.642 80.4429 146.62 81.0447 146.61C81.3462 146.603 81.6717 146.605 82.0387 146.619C82.2222 146.626 82.4155 146.636 82.6208 146.65C82.8261 146.661 83.0435 146.671 83.2751 146.687L83.1451 146.502C83.6759 146.467 84.2089 146.442 84.7397 146.397L86.3333 146.256L87.9246 146.073C88.19 146.044 88.4544 146.005 88.7187 145.967L89.5127 145.854C91.6283 145.538 93.7352 145.126 95.8235 144.618C97.913 144.113 99.9805 143.502 102.021 142.798C104.061 142.095 106.074 141.297 108.05 140.408C112.005 138.636 115.803 136.478 119.395 133.996C122.986 131.513 126.371 128.699 129.477 125.581C133.382 121.193 137.093 116.326 140.22 111.015C140.42 110.686 140.609 110.351 140.799 110.015L141.368 109.008L141.914 107.987L142.187 107.476L142.449 106.96L142.971 105.925C143.143 105.579 143.304 105.228 143.47 104.88C143.808 104.185 144.114 103.476 144.426 102.77C144.586 102.418 144.725 102.058 144.875 101.703C145.02 101.346 145.172 100.992 145.311 100.633C145.448 100.273 145.585 99.9126 145.723 99.5543C145.79 99.3746 145.86 99.1948 145.926 99.014L146.117 98.4705C146.244 98.1078 146.369 97.7461 146.496 97.3834C146.613 97.0185 146.73 96.6536 146.847 96.2898C147.086 95.5633 147.288 94.827 147.497 94.0961C147.612 93.7029 147.704 93.302 147.808 92.9045C147.858 92.7051 147.908 92.5058 147.959 92.3054C148.011 92.106 148.06 91.9056 148.104 91.7041C148.286 90.8981 148.474 90.091 148.628 89.274C148.96 87.6456 149.214 85.9954 149.432 84.3408C149.844 81.0285 150.043 77.6921 149.992 74.4233C149.927 67.8835 148.91 61.6193 147.402 56.2885C147.201 55.6567 147.063 55.0588 146.938 54.4858C146.81 53.914 146.721 53.3617 146.639 52.8182C146.549 52.2768 146.476 51.742 146.401 51.2007C146.318 50.6615 146.225 50.119 146.116 49.5559C144.374 44.7273 141.952 39.3965 138.791 34.3087C138.392 33.6769 137.996 33.0375 137.574 32.4156C137.364 32.103 137.159 31.7882 136.944 31.4778L136.295 30.553L135.968 30.0911L135.632 29.6369L134.958 28.7285L134.263 27.8375C134.03 27.5412 133.801 27.2439 133.56 26.9552C133.32 26.6655 133.081 26.3757 132.843 26.0871C132.606 25.7963 132.355 25.5196 132.111 25.2364C131.865 24.9565 131.624 24.6711 131.372 24.3977C131.12 24.1243 130.868 23.8509 130.618 23.5786C130.493 23.4435 130.368 23.3052 130.24 23.1723C130.112 23.0394 129.984 22.9076 129.856 22.7747C129.599 22.5111 129.343 22.2486 129.088 21.9861C128.826 21.7301 128.566 21.4752 128.306 21.2214C128.045 20.9698 127.788 20.7139 127.521 20.472C127.675 20.6245 127.817 20.7792 127.907 20.8838C127.358 20.3511 126.825 19.8359 126.305 19.3327C126.044 19.0822 125.786 18.836 125.531 18.592C125.404 18.4689 125.277 18.3469 125.152 18.2249C125.024 18.1051 124.897 17.9864 124.771 17.8677C124.519 17.6291 124.269 17.3928 124.022 17.1586C123.777 16.9222 123.522 16.6978 123.275 16.468C123.027 16.2393 122.781 16.0116 122.534 15.785C122.283 15.5628 122.032 15.3417 121.783 15.1206C121.288 14.674 120.775 14.247 120.259 13.8168C120.13 13.7089 120 13.6011 119.871 13.4933C119.739 13.3887 119.607 13.2831 119.473 13.1785C119.206 12.9694 118.937 12.7602 118.666 12.5489C118.396 12.3354 118.114 12.1361 117.831 11.9302C117.546 11.7276 117.258 11.5218 116.968 11.3148C116.672 11.1155 116.37 10.9161 116.063 10.7168C115.757 10.5175 115.446 10.3138 115.122 10.1232C115.056 10.2811 114.261 9.79857 113.832 9.63518C113.705 9.34871 111.721 8.0841 108.629 6.66591C108.242 6.49054 107.84 6.30973 107.424 6.12129C107.003 5.94483 106.57 5.76293 106.125 5.57667C106.014 5.52983 105.903 5.48408 105.789 5.43724C105.675 5.39259 105.561 5.34793 105.445 5.30327C105.214 5.21395 104.981 5.12354 104.746 5.03314C104.51 4.94273 104.273 4.84905 104.032 4.75974C103.789 4.67369 103.544 4.58655 103.298 4.49832C101.324 3.79467 99.193 3.14003 97.0304 2.58997C94.8689 2.03663 92.6758 1.59767 90.5918 1.26218C90.3308 1.22079 90.0741 1.17286 89.8163 1.13801C89.5586 1.10206 89.3041 1.06612 89.0507 1.03017C88.545 0.958282 88.0502 0.886392 87.5631 0.835198C87.0771 0.779646 86.6031 0.719738 86.1421 0.672901C85.6801 0.629331 85.2323 0.586851 84.7987 0.546549C84.3662 0.5008 83.9468 0.480105 83.5459 0.447428C83.1451 0.420197 82.7617 0.384252 82.3969 0.365734C82.0321 0.345039 81.6859 0.325432 81.3615 0.306915C81.0371 0.288398 80.7346 0.265524 80.4539 0.255721C79.8925 0.230668 79.425 0.203437 79.0646 0.174028C78.7041 0.143529 78.4518 0.123923 78.3229 0.089067C77.7091 0.106495 77.0734 0.103227 76.4258 0.122833C76.0369 0.105406 75.6481 0.089067 75.2582 0.0716391C74.8683 0.0553005 74.4783 0.0520328 74.0884 0.0400511L73.5019 0.0237125L73.2081 0.0149985L72.9143 0.0128201L71.7391 0.00301689C71.3469 -0.00460781 70.9548 0.00410613 70.5616 0.0084631L69.382 0.021534L68.2025 0.0585682L67.6127 0.0759961L67.0229 0.106495C63.8784 0.261167 60.7371 0.571601 57.6757 1.10424C51.5483 2.13684 45.7355 4.02341 40.8948 6.57223C38.9463 7.97736 36.8121 9.59052 35.3813 11.0065C34.9335 11.1906 34.6058 11.3856 34.3295 11.5795C34.0543 11.7766 33.8293 11.9738 33.6075 12.196C33.3847 12.416 33.1576 12.6502 32.8648 12.9051C32.7185 13.0336 32.5546 13.1643 32.3701 13.3059C32.1866 13.4497 31.9801 13.6 31.742 13.7591C31.3914 13.8941 31.0485 14.027 30.7252 14.1697C30.403 14.3135 30.0917 14.4583 29.7946 14.6032C29.1961 14.8875 28.6674 15.1914 28.1901 15.4768C27.7107 15.7589 27.3 16.0432 26.9494 16.3024C26.5988 16.5628 26.305 16.7948 26.0833 17.0039C25.1953 17.8404 25.3274 18.128 26.6392 17.3405C24.8916 18.9874 23.1692 20.6572 21.556 22.3423C19.9428 24.0262 18.4432 25.7298 17.1413 27.4127C16.0054 29.0302 14.9459 30.6804 13.9509 32.3971C13.1274 33.8665 12.4458 34.5385 11.6769 35.0723C11.4246 35.5526 11.2094 35.9513 11.0205 36.2911C10.8304 36.6299 10.6808 36.9163 10.5388 37.1571C10.2603 37.6429 10.0353 37.962 9.81467 38.292C9.59076 38.6199 9.35266 38.9489 9.02827 39.4434C8.86881 39.6917 8.69515 39.9858 8.48872 40.3409C8.28338 40.696 8.04528 41.1132 7.7897 41.6229C7.29711 41.9987 6.28681 44.7044 5.54191 47.494C5.44143 47.8403 5.36061 48.1933 5.27214 48.5385C5.18585 48.8849 5.10175 49.2259 5.01874 49.5603C4.86911 50.2301 4.72603 50.8663 4.59933 51.4348C4.48246 52.0045 4.37542 52.5034 4.2804 52.8977C4.18538 53.2909 4.11766 53.5828 4.05322 53.731C4.09254 53.487 4.12749 53.2408 4.17009 52.9968C3.40554 55.4955 2.64754 57.5553 1.96927 59.6466C1.29755 61.7358 0.704481 63.8598 0.444533 66.4435C0.418319 66.6679 0.392106 66.8912 0.365893 67.1167L0.327665 67.4543L0.297083 67.7931C0.257763 68.2451 0.218444 68.6972 0.180216 69.1514C0.141988 69.6056 0.123421 70.062 0.095023 70.5184C0.0830086 70.7471 0.069902 70.9758 0.0567953 71.2046C0.0458732 71.4333 0.0415043 71.6632 0.034951 71.893C0.0229366 72.3526 0.0120144 72.8123 0 73.273C0 73.7338 0.00109222 74.1956 0.00218444 74.6586C-0.00109222 75.1215 0.0163833 75.5844 0.0305821 76.0484L0.0524265 76.7445L0.0644409 77.093L0.0841008 77.4416C0.111406 77.9056 0.138712 78.3707 0.166017 78.8358C0.197691 79.3009 0.242472 79.7649 0.281792 80.229L0.344049 80.9261L0.422688 81.6221C0.478391 82.085 0.523172 82.5501 0.588705 83.012C0.830086 84.8637 1.15666 86.7023 1.53457 88.5224C1.91903 90.3404 2.38103 92.1333 2.88782 93.8968C3.40226 95.6581 3.98332 97.3823 4.59824 99.0685C5.22626 100.751 5.90016 102.391 6.60573 103.984C6.78813 104.38 6.96835 104.774 7.14966 105.166C7.24031 105.362 7.33097 105.557 7.42053 105.752C7.51446 105.945 7.60839 106.138 7.70232 106.33C7.89127 106.714 8.07258 107.099 8.26372 107.477C8.45704 107.854 8.64927 108.229 8.84041 108.602C9.12548 108.523 8.75194 107.888 8.38496 107.208C8.03217 106.521 7.68485 105.789 7.99504 105.554C8.8284 107.328 9.70545 109.088 10.6306 110.831L10.9801 111.484C11.0958 111.701 11.2116 111.919 11.335 112.134L12.0614 113.428L12.8161 114.708C12.9406 114.922 13.0706 115.134 13.2027 115.344L13.5959 115.977C14.6521 117.66 15.7738 119.31 16.9807 120.902C18.1909 122.49 19.4808 124.025 20.8548 125.481C21.0798 125.767 21.3124 126.072 21.5418 126.38C21.7712 126.687 22.006 126.988 22.2179 127.277C22.432 127.564 22.6253 127.838 22.7924 128.072C22.9617 128.305 23.0982 128.503 23.1878 128.65C24.0561 129.612 24.3991 129.804 24.6754 129.935C24.8141 130.001 24.9397 130.048 25.1155 130.161C25.204 130.218 25.3045 130.289 25.4257 130.389C25.5481 130.487 25.6933 130.609 25.867 130.768L25.7239 131.329C26.0232 131.512 26.2908 131.696 26.5322 131.882C26.7768 132.065 26.9996 132.246 27.205 132.431C27.6145 132.799 27.9542 133.178 28.3005 133.544C28.6445 133.912 28.9765 134.29 29.3719 134.652C29.7695 135.01 30.2184 135.37 30.7842 135.706C30.9021 135.66 31.161 135.768 31.4854 135.955C31.647 136.048 31.8261 136.16 32.0107 136.285C32.1953 136.41 32.3886 136.541 32.5809 136.671C32.4465 136.913 33.0527 137.3 33.6436 137.668C34.2399 138.026 34.8243 138.361 34.6331 138.54L34.6779 138.52C35.1508 138.829 35.5146 139 36.0618 139.431C36.5664 139.633 39.1953 140.645 41.8571 141.454C42.1869 141.561 42.5244 141.652 42.8532 141.748C43.183 141.842 43.5074 141.936 43.8242 142.026C44.4609 142.197 45.0649 142.35 45.6001 142.486C46.1375 142.616 46.6093 142.719 46.9774 142.8C47.3466 142.881 47.6141 142.938 47.7496 142.956L48.1799 143.217C48.8702 143.469 49.3956 143.556 49.6566 143.519C49.9155 143.487 49.9045 143.348 49.5201 143.16L51.2075 143.784C51.1376 143.775 51.0688 143.762 50.9989 143.752C51.5603 143.953 52.1272 144.142 52.6908 144.337C52.989 144.487 53.2762 144.833 52.7126 144.92C53.2314 144.975 53.771 145.057 54.3007 145.174C54.8304 145.29 55.3547 145.422 55.8331 145.605C55.5032 145.471 55.1625 145.333 54.814 145.191C54.4667 145.051 54.1172 144.889 53.7601 144.732C53.4051 144.57 53.0425 144.416 52.6842 144.242C52.3271 144.067 51.9655 143.891 51.604 143.714C51.2425 143.54 50.8875 143.347 50.5326 143.159C50.1787 142.968 49.8259 142.782 49.4829 142.586C49.14 142.388 48.8025 142.188 48.4715 141.991C48.3066 141.892 48.1428 141.795 47.9822 141.695C47.8228 141.592 47.6655 141.491 47.5093 141.391C48.0958 141.536 48.8724 141.847 49.6522 142.19C50.0443 142.357 50.4419 142.519 50.8176 142.67C51.0055 142.744 51.1879 142.815 51.3626 142.878C51.5374 142.941 51.7056 142.99 51.8629 143.035C52.2026 143.239 52.6416 143.476 53.1473 143.725C53.6563 143.964 54.2308 144.221 54.8381 144.478C55.4486 144.721 56.0887 144.978 56.7287 145.211C57.0498 145.324 57.3698 145.438 57.6822 145.549C57.9957 145.66 58.3037 145.769 58.604 145.863C58.8771 145.907 59.1392 145.798 59.4767 145.745C59.646 145.717 59.8328 145.705 60.0512 145.732C60.2697 145.758 60.5198 145.815 60.8114 145.941C61.0692 146.206 61.4165 146.269 61.8184 146.326C62.2215 146.38 62.6802 146.418 63.1673 146.655C61.9506 146.691 60.8158 146.374 59.6351 146.106C59.6602 146.238 59.8481 146.37 60.1331 146.483C60.4182 146.596 60.7994 146.701 61.2057 146.799C61.4089 146.848 61.6186 146.896 61.8261 146.941C62.0347 146.981 62.24 147.021 62.4345 147.059C62.8244 147.137 63.1695 147.211 63.4022 147.285C63.637 147.25 64.3305 147.34 65.1508 147.461C65.5604 147.524 66.0038 147.571 66.4374 147.616C66.871 147.656 67.2926 147.695 67.664 147.692C67.3199 147.902 67.6083 148.006 68.0921 148.099C68.3346 148.141 68.624 148.191 68.9069 148.24C69.0489 148.266 69.1887 148.296 69.3198 148.327C69.4509 148.357 69.5743 148.39 69.6824 148.43C70.6796 148.552 71.3284 148.397 70.933 148.203C71.1077 147.95 70.1237 147.813 69.2783 147.674C68.4329 147.518 67.7252 147.37 68.4351 147.156C68.7726 147.45 70.7146 147.506 71.7554 147.521C71.7806 147.236 71.0575 147.277 71.7412 147.03C72.3157 147.081 72.911 147.042 73.4429 147.008C73.9748 146.974 74.4434 146.968 74.7732 147.12C74.557 147.196 74.083 147.141 73.7455 147.129C74.1201 147.141 73.799 147.259 73.1305 147.421C72.7963 147.495 72.3758 147.58 71.9105 147.668C71.6779 147.712 71.4354 147.759 71.1864 147.801C70.9374 147.84 70.684 147.881 70.4317 147.92C70.1783 147.959 69.9249 147.998 69.6791 148.036C69.5557 148.055 69.4334 148.075 69.3143 148.092C69.1953 148.107 69.0773 148.124 68.9637 148.138C68.5072 148.198 68.0976 148.253 67.7819 148.3C67.4663 148.348 67.2457 148.384 67.167 148.408C67.0873 148.433 67.1496 148.453 67.3986 148.457C67.1561 148.302 69.3722 148.106 71.4802 147.81C72.0066 147.731 72.5276 147.654 73.0071 147.582C73.4844 147.507 73.918 147.424 74.2697 147.359C74.6214 147.292 74.8912 147.237 75.0419 147.197C75.1905 147.156 75.2156 147.131 75.0998 147.129C74.6433 147.053 74.8082 146.926 74.9666 146.804C75.0463 146.743 75.1238 146.684 75.1227 146.632C75.1238 146.581 75.0452 146.538 74.8104 146.51L73.7629 146.844C73.1196 146.787 72.6707 146.61 72.4424 146.44C72.2131 146.268 72.2021 146.093 72.4304 146.004C72.9634 146.035 72.8487 146.159 72.4009 146.322C72.177 146.404 71.869 146.496 71.5173 146.591C71.1656 146.688 70.7692 146.771 70.3694 146.859C69.9697 146.944 69.5644 147.033 69.1986 147.1C68.8305 147.167 68.5017 147.227 68.2527 147.273C67.7525 147.368 67.5722 147.417 68.0452 147.386C67.7972 147.316 67.5493 147.255 67.3036 147.179C67.7066 147.13 68.4362 147.102 69.1614 147.142C69.8877 147.174 70.6119 147.247 71.0105 147.424C71.0324 147.152 72.0951 147.09 72.9733 147.021C73.0759 147.041 73.1797 147.062 73.2823 147.078C74.1911 146.947 75.4526 147.029 74.8661 146.649C73.5456 146.643 73.1065 146.466 73.1131 146.192C73.1185 145.927 73.5641 145.565 74.0043 145.199C74.8901 144.466 75.7486 143.707 73.2998 143.594C74.3232 143.919 74.1518 144.077 73.4429 144.159C73.089 144.2 72.6019 144.203 72.0678 144.207C71.5326 144.213 70.9505 144.189 70.4055 144.172C70.3072 144.059 70.021 143.911 69.5688 143.755C69.1177 143.588 68.4995 143.42 67.735 143.263C66.3926 143.16 66.9213 143.401 66.6471 143.529C66.4647 143.473 66.2408 143.415 66.0104 143.349C65.781 143.281 65.5451 143.21 65.3397 143.137C64.928 142.991 64.6385 142.837 64.7554 142.688C64.6189 142.719 64.4911 142.734 64.3688 142.737C64.2475 142.737 64.1328 142.726 64.0214 142.707C63.7997 142.668 63.5922 142.593 63.3814 142.511C63.1706 142.428 62.9543 142.336 62.713 142.261C62.4716 142.183 62.2062 142.114 61.8927 142.089C60.7732 142.06 61.9342 142.27 61.126 142.308C60.9217 142.266 60.7098 142.214 60.4903 142.16C60.2708 142.107 60.0447 142.051 59.8153 141.995C59.5859 141.939 59.3522 141.881 59.1174 141.823C58.8847 141.76 58.6521 141.696 58.4206 141.633C57.4965 141.389 56.626 141.109 55.998 140.902C55.7916 140.691 55.3591 140.332 55.1297 140.022C54.9003 139.709 54.8774 139.436 55.4792 139.365C55.773 139.461 55.9751 139.54 56.1105 139.607C56.2459 139.672 56.3148 139.723 56.3366 139.768C56.3825 139.857 56.2459 139.916 56.1149 139.971C55.8527 140.073 55.6026 140.171 56.8707 140.459C56.4251 139.974 56.9908 140.076 57.7379 140.251C58.4905 140.404 59.4287 140.635 59.7181 140.419C59.3533 140.179 58.7744 139.947 58.1136 139.758C57.7827 139.666 57.4365 139.561 57.0848 139.476C56.7342 139.387 56.3781 139.315 56.0417 139.236C56.1214 139.292 56.2012 139.35 56.282 139.403C55.9827 139.342 55.6103 139.256 55.2007 139.157C54.9954 139.107 54.7813 139.053 54.5628 138.995C54.3455 138.931 54.1249 138.864 53.9031 138.792C53.0163 138.516 52.1479 138.141 51.5909 137.747C51.9666 137.618 51.4915 137.254 52.35 137.49L51.5734 137.192L50.8045 136.875C50.5795 136.873 50.3469 136.871 50.7761 137.094C49.969 137.001 49.2776 136.596 48.7752 136.234C48.7391 136.086 46.5962 135.482 44.521 134.771C44.261 134.682 44.0022 134.594 43.7477 134.508C43.4954 134.417 43.2486 134.326 43.0104 134.239C42.5342 134.064 42.0897 133.905 41.7238 133.753C40.9866 133.457 40.5235 133.261 40.6032 133.259C39.5492 132.645 39.4957 132.173 38.3554 131.769C38.3281 131.783 38.469 131.878 38.7333 132.031C38.8655 132.107 39.0282 132.2 39.2183 132.301C39.4105 132.398 39.6268 132.508 39.8638 132.628C40.1008 132.746 40.3575 132.873 40.6283 133.007C40.9014 133.137 41.1908 133.267 41.4879 133.404C41.7861 133.538 42.0886 133.682 42.4032 133.812C42.7155 133.944 43.0312 134.076 43.3447 134.207C45.8513 135.253 48.2651 135.973 47.518 135.702C47.4165 135.616 47.1325 135.494 46.7251 135.32C46.5208 135.232 46.2838 135.137 46.0195 135.033C45.7563 134.927 45.4614 134.822 45.1523 134.693C43.905 134.202 42.3289 133.554 40.7801 132.846C39.2379 132.128 37.7263 131.35 36.5904 130.68C35.4567 130.007 34.6867 129.468 34.6091 129.254C34.241 128.995 33.8249 128.723 33.5103 128.547C33.1969 128.369 32.973 128.299 32.9773 128.469C32.4094 127.954 32.5798 127.925 32.8004 127.915C33.021 127.905 33.2919 127.915 32.9413 127.491C32.8965 127.51 32.9293 127.649 32.6628 127.433C32.4574 127.136 32.2619 126.828 32.0631 126.527C31.0146 125.962 29.9377 124.99 28.8597 124.009C27.7959 123.009 26.7288 122.001 25.6813 121.303C25.8572 121.38 26.0472 121.452 26.2536 121.531C26.4579 121.611 26.6818 121.694 26.9254 121.794C27.1678 121.896 27.4289 122.014 27.7107 122.165C27.8516 122.24 27.9957 122.324 28.1486 122.414C28.3026 122.504 28.4621 122.602 28.627 122.71L28.7319 122.998C28.8422 123.044 29.1458 123.27 29.4451 123.453C29.7476 123.633 30.0404 123.772 30.1146 123.661C29.6155 123.112 29.1437 122.616 28.6183 122.161C28.3551 121.935 28.0929 121.704 27.8057 121.482C27.5217 121.256 27.2148 121.041 26.8991 120.805C26.7484 120.549 26.566 120.261 26.4623 120.049C26.4415 120.078 26.4371 120.115 26.4044 120.139C26.1674 119.662 26.2252 119.682 26.4295 119.742C26.4601 119.747 26.4961 119.752 26.5474 119.777C26.5049 119.178 25.4345 118.225 24.2123 117.087C22.9966 115.946 21.651 114.595 21.0033 113.4C20.4474 112.826 20.8537 113.419 20.1503 112.708C20.0651 112.558 19.981 112.411 19.898 112.266C19.8183 112.119 19.7407 111.975 19.6643 111.832C19.5114 111.549 19.3628 111.273 19.2176 111.004C18.9369 110.462 18.6671 109.941 18.3962 109.417C18.133 108.891 17.8687 108.362 17.5902 107.804C17.4525 107.525 17.3127 107.238 17.1664 106.942C17.0921 106.793 17.0178 106.643 16.9403 106.491C16.866 106.336 16.7918 106.178 16.7142 106.017C15.977 105.387 15.8208 105.381 16.0589 106.522L15.5739 105.546C15.4145 105.219 15.2659 104.888 15.1108 104.56C15.539 104.894 15.681 104.809 15.6832 104.522C15.6832 104.38 15.6504 104.186 15.5991 103.968C15.5739 103.859 15.5444 103.745 15.5117 103.627C15.4822 103.508 15.4516 103.386 15.421 103.265C15.1731 102.294 14.9481 101.361 15.823 102.119C15.7716 101.799 15.6296 101.346 15.4167 100.848C15.3118 100.599 15.1818 100.341 15.0529 100.076C14.923 99.8113 14.7799 99.5456 14.627 99.2885C14.3747 99.2678 13.9564 99.2449 13.3917 97.8496C12.9111 95.7964 12.9854 96.2985 12.6806 94.5808C12.8215 94.1037 13.1405 94.6592 13.3371 94.5144C13.2606 94.3673 13.1907 94.229 13.1328 94.0983C13.076 93.9665 13.028 93.8434 12.9854 93.7268C12.9013 93.4937 12.8434 93.29 12.8041 93.1038C12.7648 92.9186 12.7451 92.752 12.7364 92.5951C12.7309 92.4372 12.7364 92.2901 12.744 92.1431C12.7779 91.5549 12.8445 90.9841 12.5037 89.8056C12.377 89.4418 12.2492 88.981 12.1072 88.4974C12.0351 88.2567 11.9609 88.0094 11.8888 87.7643C11.82 87.5192 11.749 87.2763 11.6769 87.0454C11.6048 86.8145 11.5327 86.5956 11.4596 86.3973C11.3864 86.1991 11.323 86.0183 11.2542 85.869C11.1188 85.5684 10.9833 85.3854 10.8545 85.3909C10.8086 85.1338 10.7715 84.9072 10.7496 84.709C10.7299 84.5097 10.7201 84.3376 10.7179 84.1905C10.7147 83.8964 10.7452 83.6993 10.7988 83.5718C10.9069 83.3169 11.1111 83.3387 11.3339 83.4063L11.3318 83.4128Z" fill="#2E2D2C"/>
<g clip-path="url(#clip0_221_120)">
<path d="M84.7353 57.1065C84.6205 56.6868 84.4544 56.2882 84.3064 55.8836C83.9137 54.9747 83.4304 54.1111 82.8564 53.326C82.7084 53.1358 82.5694 52.9305 82.4124 52.7523L81.9351 52.2118L81.4216 51.7166C81.2524 51.5475 81.0591 51.4146 80.8808 51.2606C80.1407 50.6779 79.3282 50.2098 78.4582 49.8716L77.7936 49.6512L77.709 49.624L77.6003 49.5938L77.3828 49.5335L76.9478 49.4157C76.3708 49.2587 75.8029 49.1077 75.2411 48.9688C74.1204 48.691 73.0268 48.4615 71.9968 48.3619C70.9667 48.2652 70.003 48.3015 69.0968 48.5128C68.1845 48.7212 67.3236 49.1047 66.4506 49.6995C65.8948 50.077 65.3209 50.4514 64.7409 50.8107C64.1579 51.1701 63.596 51.4901 63.1761 51.771C63.0583 51.8525 62.9345 51.931 62.8166 52.0216L62.726 52.088C62.7079 52.1001 62.7019 52.1061 62.6777 52.1242L62.5991 52.1907L62.288 52.4594C62.0796 52.6436 61.8681 52.858 61.6597 53.0573C61.4543 53.2656 61.2489 53.474 61.0404 53.6854C60.2188 54.5278 59.4122 55.4065 58.6117 56.2429C57.8022 55.3793 56.9745 54.5067 56.1317 53.6582C55.9232 53.4408 55.7088 53.2385 55.4943 53.0392C55.2798 52.8399 55.0684 52.6315 54.8509 52.4383C54.7421 52.3416 54.6304 52.245 54.5216 52.1544L54.2799 51.9491C54.144 51.8283 53.999 51.7196 53.857 51.6079C52.7273 50.702 51.5159 49.9139 50.2653 49.304C49.0178 48.697 47.7279 48.2713 46.4773 48.1203C45.852 48.0388 45.2358 48.0176 44.6407 48.075C44.0456 48.1263 43.4626 48.226 42.9098 48.4072C43.4898 48.235 44.0879 48.1445 44.6951 48.1143C45.3022 48.081 45.9185 48.1143 46.5377 48.2199C47.7793 48.4132 49.0268 48.8661 50.2351 49.4821C51.4434 50.1041 52.6125 50.8862 53.7151 51.786C53.854 51.8978 53.993 52.0065 54.1289 52.1242L54.3676 52.3296C54.4823 52.4232 54.5941 52.5228 54.7059 52.6225C54.9324 52.8218 55.1499 53.0392 55.3704 53.2445C55.591 53.4528 55.8145 53.6612 56.029 53.8877C56.899 54.7724 57.7689 55.6813 58.6178 56.5781L60.9438 54.0809C61.3395 53.6642 61.7322 53.2415 62.14 52.8459C62.3454 52.6345 62.5387 52.4745 62.7411 52.2903C62.8015 52.236 62.8197 52.2239 62.8468 52.1997L62.9284 52.1363C62.9828 52.094 63.0372 52.0488 63.0915 52.0095C63.306 51.8464 63.5477 51.6924 63.8256 51.5173L64.7409 50.9496C65.0611 50.7503 65.3843 50.542 65.7015 50.3306L66.1757 50.0136L66.4114 49.8535L66.5292 49.775L66.6228 49.7176C67.5804 49.0896 68.5561 48.688 69.5983 48.5279C70.6465 48.38 71.7762 48.4343 73.0057 48.6699C74.2321 48.8963 75.519 49.2587 76.8602 49.6573L77.3647 49.8082L77.6184 49.8837C77.6969 49.9079 77.7483 49.932 77.8148 49.9562L78.1893 50.0951C78.3132 50.1404 78.4401 50.1796 78.5548 50.243C78.7905 50.3669 79.0351 50.4574 79.2617 50.5963C79.4852 50.7413 79.7209 50.856 79.9323 51.013C81.6753 52.2058 83.0075 54.0568 83.8261 56.104C83.3216 55.5967 82.8171 55.0472 82.2523 54.5218C81.6964 53.9903 81.1255 53.4408 80.5063 52.9214C79.7964 52.2541 79.014 51.7317 78.1772 51.3724L78.0232 51.2969L77.8601 51.2425L77.5368 51.1308L77.3767 51.0704C77.3194 51.0493 77.2166 51.0251 77.1381 51.001L76.6336 50.859L75.6489 50.5873L74.7003 50.3397C73.4618 50.0287 72.323 49.8113 71.3382 49.7539C70.3625 49.7207 69.553 49.8113 68.7796 50.1011C68.7162 49.9411 68.5924 49.6271 68.5289 49.47C68.3869 49.5425 68.245 49.612 68.103 49.6784L67.6861 49.926C67.5441 49.9985 67.4112 50.1072 67.2723 50.2038C67.1273 50.3065 67.0246 50.3699 66.798 50.539C66.3993 50.8319 65.9884 51.1248 65.5746 51.4056C65.1638 51.6864 64.7409 51.9582 64.3874 52.1907C64.028 52.4262 63.7772 52.6044 63.5386 52.7976L63.448 52.8731L63.4027 52.9093L63.3755 52.9305L63.3211 52.9788L62.8982 53.3713C62.6112 53.6582 62.3152 53.9541 62.0312 54.2621C60.8985 55.4941 59.7717 56.723 58.645 57.946C57.7115 56.9706 56.7811 55.9983 55.8507 55.026C55.3886 54.5278 54.9083 54.09 54.437 53.631C54.2014 53.4045 53.9567 53.1901 53.7151 52.9848L53.5187 52.8127C53.4583 52.7583 53.3949 52.707 53.3344 52.6557C52.3436 51.8313 51.3166 51.0825 50.2563 50.4846C48.1357 49.2738 45.9064 48.6608 43.8885 49.0201C43.381 49.0986 42.8856 49.2617 42.3962 49.4519C41.9099 49.6573 41.4296 49.9139 40.9674 50.228C40.034 50.847 39.1791 51.7045 38.3877 52.6738C37.6083 53.6521 36.9468 54.7331 36.4 55.9138C35.8774 57.0522 35.5331 58.1815 35.4273 59.3048C35.6025 58.9092 35.6901 59.181 35.7808 59.2806C35.7747 59.3078 35.7687 59.335 35.7657 59.3591C35.7657 59.3319 35.7747 59.3078 35.7808 59.2806C35.8563 59.3712 35.9499 59.338 36.0889 58.6525C35.9499 59.338 35.8563 59.3712 35.7808 59.2806C35.956 58.2087 36.3336 57.1548 36.8743 56.0618C37.4422 54.9355 38.0977 53.9058 38.8619 52.9727C39.6353 52.0518 40.4509 51.2365 41.3239 50.6628C41.7558 50.3638 42.2029 50.1374 42.65 49.9351C43.1031 49.7599 43.5562 49.6089 44.0244 49.5274C44.4927 49.4519 44.9669 49.4036 45.4593 49.4247C45.9517 49.4489 46.4531 49.5033 46.9667 49.624C47.9907 49.8596 49.048 50.2763 50.0841 50.856C51.1232 51.4207 52.1382 52.1454 53.1139 52.9516C53.1743 52.9999 53.2378 53.0512 53.2952 53.1056L53.5006 53.2807C53.7513 53.4951 54.0111 53.7156 54.2558 53.9571C54.7482 54.4372 55.2496 54.8932 55.7329 55.4186C56.7056 56.4422 57.6813 57.4659 58.657 58.4925C59.7747 57.2877 60.8954 56.0769 62.0192 54.863C62.3031 54.555 62.5901 54.2591 62.8831 53.9692L63.1006 53.7518L63.312 53.5585L63.5235 53.3653C63.593 53.3019 63.6776 53.2234 63.6896 53.2203C63.9132 53.0392 64.1095 52.9093 64.4116 52.7191C64.7711 52.4956 65.1336 52.2722 65.493 52.0518C65.8918 51.8042 66.2966 51.5415 66.6953 51.2788L67.2874 50.8802L67.6801 50.6416L67.8674 50.5239L68.0547 50.4333C68.1815 50.3759 68.3024 50.2974 68.4262 50.2521C68.3024 50.3004 68.1815 50.3789 68.0577 50.4363L67.8704 50.5299L67.6861 50.6477L67.3055 50.8862L66.7195 51.2878C66.3238 51.5535 65.925 51.8193 65.5263 52.0699L64.4448 52.7523C64.1428 52.9486 63.9524 53.0814 63.7319 53.2626L63.6896 53.2958L63.5839 53.3925L63.3725 53.5887C63.2305 53.7186 63.0915 53.8484 62.9405 54.0054C62.6475 54.3013 62.3545 54.6033 62.0675 54.9173C60.9287 56.1614 59.7929 57.4024 58.654 58.6405C57.7901 57.7406 56.9292 56.8438 56.0652 55.947C55.6302 55.5001 55.2013 55.0351 54.7572 54.6275C54.3162 54.2077 53.8782 53.7759 53.4221 53.4045L53.0716 53.1086L52.7484 52.852C52.5339 52.6768 52.3134 52.5198 52.099 52.3567C51.8815 52.1937 51.6579 52.0488 51.4404 51.8917C51.2169 51.7468 50.9964 51.6019 50.7728 51.463C49.8757 50.9194 48.9634 50.4756 48.0632 50.1615C47.163 49.8596 46.284 49.6844 45.4533 49.6633C43.7979 49.6271 42.3086 50.1827 40.8617 51.3392C40.1488 51.9219 39.4631 52.6436 38.8257 53.4649C38.1974 54.2772 37.6476 55.1559 37.1582 56.107C36.2158 57.958 35.7868 59.6641 35.9288 61.4758C36.0496 63.2815 36.7806 65.2745 37.8288 67.3217C37.9618 67.5784 38.0856 67.832 38.2336 68.0917L38.6505 68.8466C38.8438 69.1848 39.161 69.6377 39.5446 70.1843C39.738 70.459 39.9434 70.758 40.1639 71.0962L40.4539 71.5582C40.4992 71.6306 40.5475 71.7001 40.5959 71.7695C40.6986 71.9084 40.8103 72.0534 40.9735 72.2406L41.5716 72.9019C41.8012 73.1555 42.0549 73.4424 42.2935 73.7202C42.5292 73.998 42.7618 74.2788 42.9823 74.5536C43.4294 75.1062 43.8462 75.6467 44.245 76.166C44.6467 76.6884 45.0304 77.1866 45.408 77.6607L45.9698 78.3492C46.1058 78.5092 46.2628 78.6813 46.4592 78.8867C46.6404 79.0739 46.867 79.3064 47.1177 79.56C47.2657 79.717 47.4198 79.8801 47.5769 80.0492C47.737 80.2243 47.9273 80.4417 48.0813 80.6289C48.5103 81.1423 48.9815 81.6556 49.3078 81.9968C50.1234 83.1231 51.1081 84.2343 52.1624 85.3606L52.9689 86.2151C53.274 86.5322 53.5701 86.8553 53.854 87.1754C54.141 87.4954 54.4159 87.8155 54.6817 88.1295L55.0744 88.5976L55.2647 88.8271L55.3584 88.9418L55.3856 88.975L55.3976 88.9931C55.3584 88.9992 55.881 89.437 56.2767 89.745C56.6935 90.0742 57.1255 90.4033 57.5575 90.7143C56.9594 90.7626 57.0983 91.5719 56.8295 91.9584C56.6935 92.1516 56.4519 92.2392 55.9504 92.055C55.6997 91.9644 55.3856 91.8044 54.9929 91.5537C54.7965 91.4299 54.582 91.282 54.3494 91.1099C54.2316 91.0253 54.1138 90.9287 53.996 90.8351C53.8963 90.7505 53.7876 90.666 53.6969 90.5512C53.3496 90.1466 52.9478 89.6756 52.4856 89.1351C52.3618 89.2528 52.111 89.4853 51.9842 89.6031C52.3859 90.1315 52.7424 90.6509 53.0565 91.137C53.1713 91.3243 53.3193 91.4843 53.4583 91.6413C53.6003 91.7983 53.7362 91.9553 53.8721 92.1063C54.138 92.4083 54.3947 92.6982 54.6364 92.9729C55.1137 93.5255 55.5275 94.0268 55.8719 94.4797C56.2193 94.9326 56.4881 95.3252 56.7449 95.6845C56.8385 95.8506 57.0681 96.068 57.1799 96.2069C57.3068 96.3458 57.3279 96.4545 57.3491 96.5572C57.3853 96.7655 57.3128 96.9286 57.1255 97.0403C57.0742 97.0675 57.0349 97.0977 56.9533 97.1128C56.908 97.1188 56.8597 97.1248 56.8083 97.1279C56.7811 97.1279 56.757 97.1339 56.7268 97.1279C56.6905 97.1218 56.6543 97.1158 56.618 97.1097C56.5425 97.0977 56.464 97.0795 56.3794 97.0614C56.2948 97.0403 56.1981 97.0131 56.1498 97.0071C56.029 96.9829 55.89 96.9467 55.7511 96.9074C54.7331 96.6236 53.4885 96.0559 51.7425 94.8994L51.4495 94.6941C51.3528 94.6277 51.2501 94.5522 51.1414 94.4706L50.9601 94.3317L50.7215 94.1325C50.6429 94.066 50.5674 93.9966 50.4919 93.9241C50.4164 93.8516 50.3348 93.7852 50.2653 93.7067L50.1294 93.5618L50.0509 93.4802L49.9029 93.3292L49.6098 93.0333C49.4195 92.8431 49.2262 92.6529 49.0329 92.4626C48.6462 92.0852 48.2867 91.753 47.8759 91.3907C46.9727 90.5905 46.003 89.736 45.0032 88.7788C44.5017 88.3017 43.9942 87.7974 43.4867 87.2629C43.233 86.9942 42.9793 86.7194 42.7255 86.4356L42.3479 86.0038L41.9945 85.5841C41.7407 85.273 41.3239 84.8563 40.7801 84.2887L40.3542 83.8267L40.1307 83.57L39.9162 83.3164C39.6715 83.0204 39.4359 82.7245 39.2063 82.4286C38.291 81.257 37.4815 80.1337 36.69 79.1554C36.4906 78.9078 36.2943 78.6753 36.0979 78.4458L35.4243 77.6879C35.1676 77.401 34.8625 77.0508 34.5543 76.6492C34.4003 76.4499 34.2462 76.2355 34.1012 76.0181C34.0287 75.9094 33.9562 75.7976 33.8867 75.6889L33.7327 75.4413C33.4759 75.0216 33.0862 74.4871 32.6301 73.8198C32.4035 73.4877 32.1558 73.1102 31.9081 72.6845L31.3372 71.6639C30.6002 70.3111 29.8993 68.8919 29.3042 67.358C28.4161 65.045 27.8422 62.2941 28.0385 59.4829C28.1443 58.0849 28.4282 56.711 28.839 55.4095C29.0686 54.7784 29.2861 54.1323 29.5701 53.5434C29.706 53.2505 29.8419 52.9274 29.9809 52.6587C30.1198 52.3809 30.2648 52.1061 30.4129 51.8344C31.014 50.7383 31.7058 49.6663 32.4912 48.6578C32.8839 48.1505 33.2917 47.6704 33.7448 47.1903C34.1798 46.7102 34.6691 46.2482 35.1676 45.8013C36.1765 44.9105 37.3395 44.0982 38.6324 43.4581C39.9253 42.8179 41.3511 42.3499 42.8131 42.1446C43.7858 42.0117 44.7645 41.9755 45.7282 42.0238C46.6857 42.0902 47.6312 42.2261 48.5314 42.4465C50.3348 42.8904 51.9932 43.5909 53.4915 44.4364C55.0019 45.2759 56.3643 46.2572 57.636 47.308C57.7176 47.3714 57.7961 47.4379 57.8716 47.5073L58.0861 47.6915L58.1405 47.7519L58.2462 47.8727C58.3187 47.9542 58.3912 48.0478 58.4667 48.1445C58.5453 48.0841 58.6299 48.0055 58.7235 47.9331L58.8836 47.8123L59.228 47.5375C59.4273 47.3745 59.6509 47.2174 59.8563 47.0695C60.7293 46.4716 61.3395 46.1425 61.9436 45.756C62.2457 45.5657 62.5448 45.3755 62.8438 45.1732L63.0674 45.0252L63.3634 44.835L64.0008 44.4364C65.7287 43.4098 67.8402 42.7545 69.8188 42.673C70.8156 42.6035 71.7551 42.6851 72.6523 42.7938C73.5434 42.9176 74.3832 43.0927 75.1776 43.298C76.247 43.5607 77.5127 43.8687 78.8479 44.1979L79.0895 44.2552L79.3886 44.3398C79.5879 44.3972 79.7903 44.4576 79.9927 44.518C80.4005 44.6236 80.7902 44.7927 81.1859 44.9467C81.5847 45.0917 81.9623 45.2819 82.3338 45.4752C82.5211 45.5718 82.7114 45.6624 82.8896 45.765C83.0648 45.8737 83.2401 45.9824 83.4153 46.0881C84.8078 46.9547 85.9527 47.9935 86.7804 48.9537C87.593 49.926 88.1307 50.7926 88.3512 51.3814C88.5324 51.7891 88.6563 52.1031 88.7107 52.3567C88.765 52.6104 88.7711 52.7916 88.7409 52.9184C88.6835 53.175 88.4902 53.2203 88.2515 53.2052C87.3574 51.5264 86.2095 49.9502 84.7625 48.6246C83.3277 47.302 81.6088 46.2059 79.7058 45.5839L78.9898 45.3604L78.8116 45.3061L78.6545 45.2638L78.3404 45.1823L77.0777 44.8531C76.2228 44.6418 75.3589 44.4274 74.4526 44.2583C73.5464 44.0952 72.616 43.9503 71.6373 43.911C70.6616 43.8718 69.6526 43.9201 68.6437 44.0982C67.372 44.3156 66.1244 44.7746 65.0127 45.3936C64.7258 45.5386 64.472 45.7197 64.2001 45.8828L64.0008 46.0096L63.8195 46.1274L63.4993 46.3418C63.0734 46.6256 62.6475 46.8974 62.2064 47.1661C61.7684 47.4379 61.3032 47.7036 60.7716 48.0569C60.5118 48.229 60.2369 48.4283 59.9892 48.6276L59.7204 48.842L59.5603 48.9748C59.1706 49.2979 58.8262 49.6573 58.4939 49.9532C58.1737 49.5727 57.8505 49.2194 57.5333 48.8963C57.4548 48.8148 57.3762 48.7393 57.2947 48.6578L57.0047 48.4011L56.6875 48.1324C56.2646 47.773 55.8266 47.4288 55.3795 47.0906C53.5852 45.753 51.5733 44.5663 49.2473 43.8174C51.5341 44.5904 53.5217 45.7801 55.307 47.1238C55.7541 47.462 56.1891 47.8093 56.612 48.1686C56.8234 48.3437 57.0409 48.534 57.2343 48.7091C57.3219 48.7937 57.4034 48.8722 57.485 48.9597C57.8203 49.3009 58.1586 49.6724 58.5 50.0709C58.8443 49.7599 59.2008 49.3825 59.5995 49.0443C59.6479 49.002 59.6992 48.9567 59.7626 48.9054L60.0164 48.7001C60.2641 48.5008 60.5329 48.3015 60.7897 48.1294C61.3153 47.773 61.7835 47.5013 62.2185 47.2265C62.6596 46.9547 63.0825 46.68 63.5084 46.3901C63.889 46.1274 64.472 45.7379 65.0097 45.4299C66.1153 44.7958 67.3659 44.3247 68.6467 44.0922C69.6557 43.9231 70.6616 43.8869 71.6282 43.9352C72.5979 43.9865 73.5192 44.1405 74.4164 44.3126C75.3136 44.4908 76.1654 44.7142 77.0082 44.9377L78.2528 45.2819C78.4642 45.3423 78.6515 45.3906 78.8811 45.4631L79.5789 45.6926C80.0501 45.8284 80.4851 46.0549 80.9322 46.2421C81.1587 46.3327 81.3642 46.4656 81.5786 46.5773C81.7901 46.6951 82.0076 46.8068 82.213 46.9336C83.0226 47.459 83.8049 48.0237 84.4876 48.688C85.8772 49.9864 86.9979 51.5113 87.8497 53.1479C87.4148 53.0784 86.9858 53.0543 86.8952 53.5948C86.8952 53.5948 86.9586 53.7125 87.0643 53.9058C87.1701 54.096 87.3181 54.3617 87.454 54.6697C87.7531 55.2736 88.0491 56.0225 88.2304 56.5298C88.2666 56.8015 88.2938 57.0522 88.3119 57.2847C88.327 57.5172 88.321 57.7316 88.318 57.9248C88.3119 58.1181 88.2998 58.2932 88.2787 58.4502C88.2545 58.6103 88.2213 58.7492 88.1851 58.876C88.0431 59.3742 87.8286 59.6007 87.5779 59.649C87.3241 59.6973 87.0341 59.5645 86.729 59.3259C86.575 59.2081 86.427 59.0602 86.2638 58.9001C86.0977 58.7401 85.9316 58.562 85.7684 58.3717C85.6295 58.1694 85.4513 57.9701 85.2821 57.7557C85.1975 57.65 85.1099 57.5413 85.0193 57.4296C84.9256 57.3209 84.826 57.2122 84.7263 57.1005L84.7353 57.1065Z" fill="#EF8D2B"/>
<path d="M92.6 109.109C93.2947 108.777 94.0046 108.466 94.6964 108.17L96.9831 107.183C97.6869 106.869 98.3001 106.561 98.8711 106.211C99.442 105.866 99.9827 105.432 100.532 104.961C100.798 104.713 101.103 104.453 101.315 104.236C101.55 103.997 101.804 103.716 102.076 103.405C102.351 103.094 102.647 102.753 102.988 102.391C103.429 101.926 103.855 101.576 104.23 101.283L105.215 100.528C105.351 100.419 105.468 100.322 105.574 100.229L106.048 99.7971C107.314 98.6497 108.565 97.5264 109.77 96.3759C112.172 94.078 114.431 91.6563 116.056 88.9327C116.455 88.2533 116.817 87.5558 117.126 86.8432C117.425 86.1305 117.672 85.3998 117.86 84.66C118.053 83.9202 118.153 83.1623 118.204 82.3953C118.258 81.6284 118.222 80.8523 118.122 80.0703C117.854 77.8388 117.041 75.4866 115.724 73.5027C114.413 71.5098 112.558 69.8943 110.398 69.1243L109.577 68.8707C109.266 68.7861 108.912 68.6986 108.583 68.614C107.918 68.4479 107.26 68.2849 106.619 68.146C105.336 67.8682 104.091 67.6568 102.946 67.6478C101.801 67.6478 100.747 67.8018 99.7803 68.2064C99.5417 68.3211 99.294 68.3996 99.0674 68.5416C98.8348 68.6684 98.5992 68.7892 98.3787 68.9492L98.0404 69.1696L97.6295 69.4565C97.3516 69.6558 97.0677 69.846 96.7837 70.0362C97.122 69.8158 97.4574 69.5893 97.7896 69.3599L98.0343 69.1938L98.2337 69.067L98.6324 68.8133C99.1762 68.5204 99.7199 68.2426 100.294 68.0856L100.505 68.0161L100.726 67.9678C100.874 67.9376 101.016 67.8984 101.164 67.8712C101.466 67.835 101.762 67.7776 102.076 67.7716C102.381 67.7414 102.707 67.7565 103.025 67.7565C103.354 67.7806 103.674 67.7867 104.015 67.835C105.36 67.986 106.792 68.3362 108.275 68.7227L109.398 69.0186L110.314 69.3055C110.601 69.4353 110.897 69.5471 111.181 69.683L111.598 69.9094C111.737 69.9849 111.879 70.0513 112.008 70.148C114.171 71.4917 115.881 73.7141 116.923 76.2414C117.443 77.4976 117.814 78.8564 117.999 80.1699C118.189 81.4744 118.128 82.7788 117.896 84.0591C117.397 86.6197 116.047 89.0625 114.289 91.297C112.519 93.5345 110.38 95.5788 108.13 97.5777C107.559 98.079 106.988 98.5832 106.42 99.0845L105.553 99.8454L105.345 100.027L105.197 100.144C105.091 100.229 104.97 100.319 104.834 100.419C104.299 100.827 103.553 101.298 102.71 102.161C102.082 102.814 101.59 103.39 101.155 103.825C101.046 103.934 100.943 104.034 100.844 104.124L100.481 104.441C100.357 104.547 100.236 104.659 100.116 104.758L99.7501 105.048C99.5085 105.25 99.2608 105.398 99.0221 105.574C98.7744 105.725 98.5358 105.885 98.276 106.017C97.2912 106.567 95.9591 107.056 94.5181 107.672C95.0407 107.31 95.5784 106.953 96.1161 106.603C96.6266 106.259 97.1432 105.927 97.5661 105.604C97.9981 105.272 98.3938 104.964 98.8137 104.568C98.9194 104.48 99.0282 104.378 99.1369 104.269C99.2487 104.166 99.3604 104.061 99.4722 103.955C99.6957 103.735 99.9193 103.508 100.152 103.279C100.384 103.052 100.665 102.741 100.995 102.37L101.535 101.763L101.844 101.428L102.058 101.204C102.137 101.123 102.209 101.056 102.285 100.981C102.88 100.419 103.387 100.048 103.786 99.7458L104.296 99.3593L104.478 99.2143L104.547 99.1539L104.674 99.0422C106.181 97.6864 107.634 96.4061 108.997 95.1077C110.362 93.8123 111.625 92.5018 112.742 91.1551C113.845 89.8053 114.8 88.4224 115.485 87.0092C115.642 87.0817 115.947 87.2266 116.102 87.2991C116.805 85.6957 117.204 84.0923 117.268 82.501C117.304 81.7038 117.24 80.9067 117.107 80.1125C116.968 79.3093 116.763 78.4608 116.482 77.6697C115.398 74.4629 113.292 71.6759 110.622 70.4258L110.114 70.2053C109.948 70.1268 109.764 70.0876 109.592 70.0242L109.329 69.9336L109.263 69.9094L109.172 69.8853L108.991 69.8369L108.266 69.6377C107.305 69.375 106.384 69.1364 105.502 68.9522C104.62 68.768 103.78 68.6382 103.003 68.605C102.224 68.5687 101.517 68.6321 100.847 68.8012C100.176 68.9703 99.5326 69.2512 98.8952 69.6437L98.6566 69.7947L98.5358 69.8702C98.4995 69.8913 98.43 69.9426 98.3787 69.9758L97.7111 70.4318C97.264 70.7338 96.8018 71.0297 96.3578 71.3105C95.9107 71.5913 95.5241 71.8299 95.2371 72.0382C95.0861 72.1499 94.9622 72.2435 94.7961 72.3855L94.349 72.7961C94.1979 72.9411 94.0439 73.1011 93.8928 73.2551C92.6845 74.5112 91.5034 75.8489 90.3314 77.1171C89.5309 76.2867 88.7122 75.4413 87.8845 74.6048L87.2653 73.9768L86.6339 73.3849C86.4225 73.1887 86.2141 72.9864 85.9966 72.8022C85.8878 72.7055 85.7791 72.615 85.6703 72.5274L85.4558 72.3492C84.5134 71.5792 83.5165 70.9059 82.4985 70.3412C81.4805 69.7735 80.4232 69.3568 79.3871 69.0881C78.351 68.8435 77.333 68.759 76.3905 68.8979C76.9403 68.9492 76.6171 69.1123 76.5204 69.23C76.4842 69.23 76.4509 69.2361 76.4177 69.2391C76.4509 69.2391 76.4842 69.233 76.5204 69.23C76.4751 69.2813 76.4691 69.3266 76.5869 69.3478C76.7017 69.3659 76.9403 69.375 77.3995 69.3991C76.9403 69.375 76.7047 69.3659 76.5869 69.3478C76.4721 69.3266 76.4751 69.2813 76.5204 69.23C76.7439 69.1998 76.9735 69.2149 77.2031 69.2059C77.4357 69.227 77.6653 69.2179 77.9039 69.2572C78.3752 69.2995 78.8615 69.4172 79.3478 69.544C80.3266 69.8279 81.3234 70.2567 82.2931 70.8213C83.2658 71.3799 84.2173 72.0443 85.1266 72.7991L85.3652 73.0015C85.48 73.0951 85.5978 73.1977 85.7126 73.2974C85.9452 73.4967 86.1627 73.7171 86.3893 73.9285C86.6128 74.1429 86.8394 74.3482 87.0629 74.5686L87.7244 75.248C88.5974 76.1509 89.4704 77.0507 90.3434 77.9505C91.588 76.5917 92.8446 75.1755 94.1164 73.8258L94.5997 73.3306L95.0679 72.8927L95.1827 72.7871L95.231 72.7478L95.3277 72.6693C95.3912 72.615 95.4576 72.5697 95.521 72.5183C95.7748 72.3281 96.1222 72.1046 96.5572 71.8299C96.9831 71.5581 97.4453 71.2592 97.8893 70.9572C98.1129 70.8062 98.3334 70.6522 98.5509 70.5013L98.714 70.3865C98.7684 70.3473 98.8288 70.305 98.856 70.2899L99.0765 70.148C99.6625 69.7675 100.236 69.4806 100.841 69.3176C101.442 69.1485 102.082 69.067 102.798 69.073C103.514 69.079 104.299 69.1726 105.142 69.3266C105.982 69.4806 106.882 69.7071 107.813 69.9457C108.266 70.0634 108.776 70.1963 109.214 70.3171C109.537 70.4348 109.879 70.5073 110.19 70.6643C111.468 71.1837 112.619 72.0865 113.609 73.2279C114.099 73.8077 114.54 74.4508 114.939 75.1302C115.316 75.8247 115.673 76.5464 115.941 77.3104C116.21 78.0713 116.449 78.8534 116.588 79.6475C116.736 80.4266 116.811 81.1664 116.802 81.9182C116.775 83.4129 116.434 84.8955 115.787 86.3751C116.413 84.9136 116.745 83.4431 116.763 81.9665C116.763 81.2237 116.691 80.49 116.543 79.723C116.401 78.9349 116.156 78.1619 115.893 77.407C115.615 76.6521 115.268 75.9335 114.887 75.245C114.482 74.5777 114.053 73.9285 113.558 73.3638C113.06 72.8082 112.543 72.2737 111.966 71.8661L111.755 71.703L111.534 71.5641C111.386 71.4736 111.244 71.3679 111.093 71.2833C110.785 71.1293 110.489 70.9481 110.169 70.8364C109.861 70.6854 109.528 70.61 109.208 70.5013C109.145 70.4771 109.003 70.4439 108.888 70.4137L108.528 70.3201L107.819 70.1389C106.882 69.9034 105.979 69.6829 105.139 69.535C104.299 69.384 103.517 69.2964 102.816 69.2934C102.112 69.2934 101.493 69.3719 100.916 69.541C100.336 69.7011 99.7833 69.9849 99.2185 70.3563L99.007 70.4952C98.9798 70.5103 98.9224 70.5526 98.865 70.5918L98.6989 70.7096C98.4784 70.8666 98.2609 71.0206 98.0343 71.1716C97.5903 71.4796 97.1251 71.7815 96.6961 72.0533C96.2611 72.3311 95.9198 72.5515 95.6781 72.7357C95.6177 72.784 95.5543 72.8293 95.4939 72.8807L95.4002 72.9562L95.3519 72.9954L95.231 73.1071C95.0709 73.2581 94.9108 73.4031 94.7477 73.5631L94.2493 74.0764C92.9353 75.4805 91.6363 76.948 90.3495 78.3582L88.1232 76.0573L86.9995 74.9008C86.6219 74.5263 86.2382 74.1761 85.8546 73.8107C85.6643 73.6265 85.4679 73.4604 85.2716 73.2913L84.8789 72.9622C84.6946 72.8112 84.5043 72.6693 84.32 72.5213C83.9455 72.2345 83.5648 71.9627 83.1812 71.7061C81.6467 70.6794 80.0305 69.9245 78.5141 69.6316C76.9916 69.3327 75.6293 69.4625 74.3394 70.0574C73.0465 70.6462 71.7869 71.7272 70.6692 73.1464C70.1134 73.8469 69.621 74.5988 69.1739 75.405C68.9504 75.8066 68.7329 76.2384 68.5697 76.6189C68.3764 77.0084 68.2556 77.3979 68.1076 77.7875C67.6182 79.3425 67.5215 80.8372 67.8508 82.4829C68.02 83.3042 68.2858 84.1588 68.6271 85.0314C68.9715 85.9071 69.4125 86.8009 69.8838 87.7007L70.2553 88.3801L70.346 88.5492L70.4124 88.6609L70.5665 88.9116C70.793 89.2679 71.1042 89.6997 71.4576 90.216C71.6358 90.4757 71.8231 90.7565 72.0164 91.0675L72.2037 91.3695C72.243 91.4299 72.2853 91.4903 72.3306 91.5537C72.4212 91.6775 72.5239 91.8073 72.6629 91.9674L73.1674 92.532C73.4181 92.8068 73.7866 93.2205 74.1491 93.6523C74.5146 94.0901 74.8922 94.5612 75.2517 95.0201C75.9706 95.9441 76.6201 96.8047 77.049 97.3392C77.2122 97.5898 77.3783 97.8344 77.5414 98.0729L77.7408 98.3628C77.8103 98.4564 77.8828 98.5561 77.9674 98.6617C78.2996 99.0845 78.7799 99.6038 79.3086 100.268L79.5079 100.525L79.6409 100.703C79.7224 100.815 79.807 100.929 79.8946 101.041C80.0668 101.268 80.245 101.491 80.4323 101.715C80.8039 102.161 81.1996 102.605 81.6134 103.052C82.4411 103.943 83.3473 104.828 84.2838 105.749L84.6463 106.105L85.0329 106.494C85.2867 106.754 85.5344 107.02 85.776 107.283C86.0177 107.545 86.2473 107.808 86.4738 108.065L87.078 108.762C87.0931 108.78 87.1082 108.798 87.1263 108.814L87.1535 108.838C87.1535 108.838 87.1686 108.853 87.1988 108.877L87.5825 109.191C87.8604 109.411 88.1473 109.635 88.4404 109.855C87.7818 109.789 87.945 110.52 87.812 110.96C87.7456 111.181 87.6006 111.326 87.229 111.253C87.0448 111.217 86.8001 111.127 86.4889 110.96C86.1869 110.794 85.7519 110.544 85.4438 110.266C85.3984 110.221 85.3531 110.175 85.3048 110.127C85.2535 110.073 85.1991 110.015 85.1417 109.958C85.0299 109.84 84.9151 109.719 84.7913 109.59C84.5436 109.33 84.2747 109.043 83.9757 108.729C83.6766 108.415 83.3443 108.077 82.9728 107.717C82.6163 107.37 82.2297 106.993 81.8158 106.585C81.698 106.709 81.4654 106.96 81.3476 107.086C81.9971 107.79 82.6224 108.46 83.151 109.137C83.6857 109.813 84.1297 110.462 84.5436 111.09C84.6795 111.302 84.8638 111.492 85.0148 111.661C85.1719 111.83 85.3229 111.996 85.474 112.159C85.77 112.479 86.0479 112.784 86.3107 113.071C86.8333 113.648 87.2804 114.158 87.6519 114.605C87.8392 114.832 88.0114 115.043 88.1655 115.23C88.238 115.327 88.3225 115.423 88.4011 115.514C88.4404 115.559 88.4766 115.605 88.5129 115.65C88.5552 115.698 88.6156 115.749 88.6639 115.795C88.7153 115.843 88.7636 115.888 88.8119 115.934C88.8119 115.94 88.8542 115.964 88.8965 115.982L89.0143 116.036C89.0928 116.07 89.1714 116.1 89.2499 116.127C89.3285 116.154 89.404 116.175 89.4795 116.193C89.5309 116.202 89.5188 116.208 89.5309 116.214L89.549 116.23C89.5731 116.251 89.5973 116.272 89.6185 116.293C89.703 116.378 89.7574 116.462 89.7786 116.544C89.8209 116.707 89.7333 116.858 89.5037 116.994L89.4825 117.006C89.4825 117.006 89.4825 117.012 89.4644 117.012H89.3828C89.2741 117.009 89.1563 117 89.0355 116.984C88.9146 116.969 88.7908 116.945 88.6639 116.912C88.6005 116.897 88.537 116.879 88.4736 116.858C88.4222 116.843 88.4253 116.846 88.3981 116.84C88.3165 116.821 88.2289 116.8 88.1383 116.776C88.0507 116.752 87.9359 116.716 87.8845 116.704C87.7577 116.67 87.5976 116.622 87.4586 116.574C87.3287 116.532 87.1807 116.48 87.0357 116.423C86.4618 116.205 85.8123 115.897 85.045 115.466C84.6614 115.251 84.2506 115.004 83.8035 114.717C83.5799 114.572 83.3443 114.418 83.0966 114.243C83.0302 114.194 82.9637 114.146 82.8972 114.098C82.8399 114.055 82.7432 113.986 82.6405 113.898C82.4441 113.732 82.2387 113.563 82.0545 113.37C82.0031 113.316 81.9487 113.258 81.8913 113.201C81.8551 113.168 81.8188 113.132 81.7826 113.092C81.7101 113.02 81.6315 112.941 81.553 112.863C80.9972 112.298 80.4655 111.779 79.9188 111.299C79.2784 110.737 78.6259 110.166 77.9643 109.584C77.2786 108.971 76.5657 108.321 75.8468 107.615C75.4873 107.264 75.1248 106.893 74.7653 106.51C74.5841 106.316 74.4059 106.12 74.2276 105.918L73.9588 105.613L73.7111 105.326C73.3516 104.891 72.6417 104.272 71.7567 103.264C71.5784 103.049 71.4002 102.835 71.219 102.62C71.0528 102.415 70.8897 102.21 70.7236 102.001C70.4124 101.6 70.1013 101.198 69.7871 100.794C69.183 100.005 68.612 99.2626 68.0472 98.5893C67.7632 98.2511 67.4974 97.9521 67.1288 97.5445C66.7694 97.1429 66.2981 96.6054 65.8631 95.9743C65.7544 95.8173 65.6487 95.6573 65.549 95.4972L65.3466 95.1681C65.2499 95.0141 65.1382 94.839 65.0083 94.6518C64.7545 94.2713 64.4434 93.8334 64.102 93.308C63.9329 93.0453 63.7516 92.7585 63.5734 92.4384L63.1626 91.6835C62.8907 91.1943 62.64 90.6689 62.3802 90.1556C61.8818 89.0988 61.3954 88.0147 60.9997 86.8311C60.607 85.6504 60.2657 84.4094 60.0784 83.0868C59.8941 81.7673 59.8488 80.3934 59.9696 79.0285C60.0965 77.6606 60.4137 76.3351 60.8305 75.0819L61.1719 74.161C61.2867 73.853 61.4256 73.5722 61.5555 73.2762C61.8183 72.6723 62.0811 72.162 62.3742 71.6215C62.9541 70.5556 63.6127 69.5139 64.3497 68.5265C65.1533 67.4605 66.0746 66.4399 67.1379 65.4858C68.2012 64.5376 69.4307 63.671 70.8142 62.9976C72.1947 62.3212 73.7322 61.8562 75.291 61.66C76.8527 61.4546 78.4144 61.5422 79.8765 61.8109C82.8157 62.3605 85.3441 63.5985 87.5281 65.0449L88.3346 65.6035L89.114 66.1833L89.8692 66.7842L90.0534 66.9382L90.1441 67.0167C90.1441 67.0167 90.1471 67.0167 90.1501 67.0197C90.1531 67.0257 90.1501 67.0197 90.1501 67.0257C90.1501 67.0287 90.1471 67.0408 90.1501 67.0589C90.1531 67.065 90.1592 67.071 90.1682 67.0771C90.1743 67.0771 90.1803 67.0801 90.1864 67.0801C90.1833 67.0861 90.2075 67.065 90.2166 67.0589L90.2347 67.0469C90.2347 67.0469 90.2287 67.0529 90.2981 66.9955C90.5005 66.8325 90.6999 66.6694 90.9144 66.5154C91.1258 66.3554 91.3312 66.2195 91.5366 66.0806C91.73 65.9568 91.9263 65.83 92.0925 65.7273L93.0229 65.1596C93.3068 64.9845 93.5908 64.8033 93.8717 64.6222L94.2946 64.3413L94.8474 63.985C95.9923 63.2452 97.3184 62.6081 98.7351 62.2276C100.146 61.8381 101.605 61.6992 102.958 61.7385C104.314 61.7777 105.568 61.974 106.734 62.2125C107.9 62.4541 108.988 62.741 110.027 63.0218L110.797 63.2332L110.993 63.2875L111.244 63.366L111.743 63.523C112.416 63.7163 113.048 64.0182 113.688 64.293C114.939 64.909 116.089 65.682 117.129 66.5547C118.156 67.4394 119.053 68.4298 119.847 69.4746C120.633 70.5254 121.285 71.6396 121.856 72.784C122.415 73.9345 122.856 75.1242 123.212 76.3381L123.454 77.253C123.53 77.561 123.587 77.872 123.653 78.18C123.723 78.485 123.771 78.8081 123.817 79.1342C123.865 79.4573 123.913 79.7804 123.934 80.1095C124.055 81.417 124.037 82.7486 123.865 84.047C123.693 85.3454 123.373 86.6106 122.947 87.8064C122.092 90.2009 120.826 92.2995 119.436 94.1414C118.035 95.9834 116.5 97.5868 114.948 99.0573C113.83 100.138 112.513 101.394 111.15 102.678C110.812 102.998 110.471 103.321 110.126 103.644L109.616 104.13L109.344 104.387C109.223 104.502 109.105 104.604 108.991 104.707C108.535 105.102 108.136 105.404 107.819 105.667C107.658 105.797 107.523 105.915 107.414 106.017C107.359 106.069 107.308 106.117 107.269 106.159C107.248 106.18 107.23 106.202 107.211 106.22L107.142 106.298C106.637 106.863 106.057 107.63 105.299 108.412C105.2 108.515 105.112 108.599 105.027 108.681C104.94 108.762 104.855 108.847 104.771 108.928C104.598 109.091 104.438 109.251 104.257 109.405C103.898 109.713 103.565 110.009 103.203 110.275C102.505 110.822 101.789 111.247 101.179 111.573C100.874 111.721 100.587 111.863 100.336 111.966C100.085 112.069 99.8589 112.153 99.6595 112.217C99.3906 112.313 99.152 112.392 98.9406 112.455C98.7321 112.516 98.5569 112.558 98.4029 112.588C98.0917 112.651 97.8803 112.66 97.7353 112.633C97.4423 112.582 97.412 112.383 97.4725 112.129L99.158 111.341C99.738 111.054 100.333 110.752 100.916 110.39C102.094 109.677 103.164 108.795 104.097 107.89C104.33 107.675 104.595 107.403 104.816 107.159C105.046 106.908 105.257 106.664 105.459 106.428L106.039 105.755L106.314 105.45C106.381 105.38 106.453 105.305 106.538 105.229C106.87 104.921 107.329 104.583 107.843 104.178C108.097 103.976 108.377 103.747 108.649 103.496L109.314 102.883C111.096 101.246 112.921 99.5887 114.655 97.7921C116.389 95.9955 118.05 94.0629 119.443 91.8647C120.3 90.521 121.059 89.0776 121.623 87.5226C122.176 85.9675 122.56 84.3067 122.635 82.6158L122.663 81.9816C122.663 81.7703 122.657 81.5589 122.654 81.3475C122.654 80.9248 122.611 80.5051 122.578 80.0823C122.545 79.6626 122.469 79.2489 122.412 78.8292C122.33 78.4246 122.255 78.02 122.164 77.6184C121.787 76.015 121.228 74.4569 120.482 72.9713C119.732 71.4887 118.793 70.0755 117.636 68.8073C116.479 67.5421 115.099 66.4248 113.522 65.5854C113.138 65.3589 112.721 65.1929 112.31 65.0117C111.906 64.8184 111.471 64.6976 111.048 64.5527L110.728 64.45C110.619 64.4138 110.543 64.3957 110.45 64.3685L109.915 64.2175L108.828 63.9156C107.353 63.52 105.801 63.1275 104.079 62.9403C105.761 63.1395 107.284 63.5351 108.734 63.9367L109.806 64.2417L110.332 64.3957L110.595 64.4712C110.676 64.4923 110.797 64.5376 110.897 64.5678L111.525 64.7792C111.734 64.8486 111.945 64.9181 112.144 65.0117L112.748 65.2774C112.951 65.365 113.15 65.4556 113.341 65.5673C114.899 66.3826 116.277 67.4726 117.437 68.7197C118.597 69.9668 119.548 71.3618 120.309 72.8354C121.071 74.3089 121.648 75.861 122.04 77.4614C122.149 77.8599 122.216 78.2676 122.3 78.6722C122.376 79.0798 122.43 79.5056 122.487 79.9223C122.566 80.7648 122.62 81.6163 122.572 82.4678C122.512 84.1708 122.158 85.8558 121.608 87.435C121.059 89.0203 120.294 90.4908 119.433 91.8677C118.026 94.0478 116.358 95.9562 114.621 97.7227C112.881 99.4891 111.06 101.111 109.278 102.711L108.613 103.309C108.513 103.396 108.359 103.538 108.229 103.647C108.093 103.762 107.964 103.867 107.834 103.967C107.317 104.369 106.849 104.701 106.483 105.018C106.29 105.184 106.181 105.293 105.976 105.516L105.399 106.162C105.003 106.609 104.568 107.11 104.073 107.579C103.161 108.46 102.134 109.312 100.992 110.006C99.8528 110.707 98.6838 111.22 97.5963 111.703C97.7685 111.235 97.9195 110.764 97.2429 110.707C97.2429 110.707 96.5692 111.018 95.7416 111.422C94.9139 111.827 93.9382 112.337 93.2947 112.7C92.9473 112.836 92.6241 112.953 92.3251 113.059C92.029 113.171 91.7541 113.267 91.5004 113.352C90.9899 113.515 90.576 113.639 90.2347 113.708C89.552 113.847 89.1744 113.781 89.0355 113.566C88.8965 113.352 88.9962 112.984 89.2681 112.522C89.5369 112.06 89.981 111.504 90.5368 110.93C90.8298 110.652 91.147 110.363 91.4913 110.061C91.8327 109.756 92.2012 109.442 92.6 109.122V109.109Z" fill="#EF8D2B"/>
</g>
<defs>
<clipPath id="clip0_221_120">
<rect width="96" height="75" fill="white" transform="translate(28 42.0056)"/>
</clipPath>
</defs>
</svg>
