<svg width="53" height="26" viewBox="0 0 53 26" fill="none" xmlns="http://www.w3.org/2000/svg">
<path d="M32.1294 14.6896C31.9876 14.6693 31.8453 14.6486 31.7047 14.63C29.0992 14.3405 26.4938 14.4372 23.5986 14.2443C21.5721 14.0514 19.2563 14.1477 17.2302 14.1477C22.0326 14.3254 27.0804 14.2581 31.6945 14.9264C31.228 15.1542 30.6708 15.3359 30.0215 15.3359C28.4598 15.2461 26.9189 15.1831 25.3904 15.14V14.7569C21.0481 15.0464 16.9947 14.2745 12.6524 14.7569C12.8066 14.8082 12.715 14.8872 12.683 14.9493C16.955 14.8552 20.9493 14.9484 25.2153 15.1357C18.5913 14.9549 12.2046 15.143 5.41492 15.143H4.25746C3.09957 14.8535 1.94083 14.7569 0.783794 14.7569C1.07263 14.2745 -0.0852613 13.3094 2.23137 13.5022V13.1165C-0.0848353 12.6341 -0.95389 11.2828 1.36274 10.8971C3.96777 10.5114 7.44186 10.8971 10.6258 10.7043C12.9425 10.6076 15.2582 10.5114 17.5736 10.7043C20.758 10.9938 24.2321 10.8971 27.4156 11.2833C28.574 11.3799 30.6009 11.0904 31.1798 11.3799C31.5956 11.5184 31.6122 11.7242 31.5488 11.9533C29.6454 11.9192 27.7479 11.9089 25.8714 11.8666C23.5696 11.7583 21.2675 11.6384 18.9671 11.4464C21.2168 11.7113 23.5275 11.814 25.8714 11.8666C27.7432 11.9546 29.6168 12.0349 31.4891 12.138C31.4205 12.3347 31.3549 12.5405 31.4691 12.7308H32.3373C33.4956 13.2131 33.2055 13.8888 32.6274 14.3712C32.4796 14.4691 32.3143 14.5791 32.1294 14.6896Z" fill="white"/>
<path d="M25.5357 23.6815C25.7389 23.5939 25.9426 23.5059 26.1441 23.4191C26.3788 23.3156 26.5969 23.2043 26.821 23.0938L27.1546 22.9264L27.4711 22.753L27.6296 22.6658L27.7088 22.6218C27.7352 22.6072 27.7582 22.5921 27.7829 22.577L28.076 22.3966C28.1003 22.3815 28.1254 22.3668 28.1489 22.3513L28.2157 22.3047L28.3504 22.2115C28.442 22.1515 28.5267 22.0829 28.6136 22.0156C28.6967 21.9539 28.7972 21.8664 28.891 21.7887C28.9996 21.6972 29.1087 21.6058 29.2173 21.5143C29.3404 21.4172 29.4652 21.318 29.5905 21.2222C29.7183 21.132 29.8465 21.0419 29.9747 20.9517C30.1021 20.8667 30.2282 20.7903 30.3552 20.7092L30.5456 20.5897L30.7326 20.4823C30.8574 20.4107 30.9822 20.339 31.1075 20.2674L31.2012 20.2135L31.2941 20.1639L31.4802 20.0651C31.6042 19.9991 31.7286 19.933 31.853 19.867L32.04 19.7678L32.2262 19.6742C32.4745 19.5499 32.7242 19.4248 32.9747 19.2992C33.0999 19.2354 33.2252 19.1771 33.3508 19.1167C33.4765 19.0568 33.6026 18.9968 33.7287 18.9368C33.9818 18.8173 34.2344 18.6952 34.4908 18.577C35.5213 18.1015 36.5685 17.6533 37.6518 17.2127C39.1799 16.6238 40.7859 15.9361 42.3852 15.2328C42.585 15.1448 42.7848 15.0568 42.9846 14.9688C43.0872 14.923 43.1895 14.8769 43.2917 14.8311C43.4915 14.741 43.6905 14.6512 43.8877 14.5624C44.2796 14.3855 44.6562 14.2155 45.0307 14.0545C44.5395 14.2418 44.0786 14.4217 43.6355 14.5969C43.4191 14.6827 43.2023 14.769 42.985 14.8553C42.5466 15.04 42.1074 15.2251 41.6678 15.4106C39.8581 16.1768 38.0446 16.9547 36.2345 17.743C36.0079 17.8427 35.7816 17.9419 35.5554 18.0411L35.2159 18.1904L34.8755 18.3427C34.4201 18.5438 33.9715 18.753 33.5221 18.9588C32.6215 19.3726 31.7269 19.7928 30.8106 20.2821C30.6955 20.3438 30.5809 20.4059 30.4663 20.4676C30.3488 20.5375 30.2316 20.607 30.114 20.6769L29.9381 20.7817C29.8793 20.8179 29.8188 20.8602 29.7592 20.8991L29.5798 21.0186C29.5202 21.0587 29.4601 21.0979 29.4022 21.1424L29.2275 21.2727L29.0972 21.3706L29.058 21.4017C28.957 21.4815 28.8565 21.5618 28.7559 21.6416L28.56 21.7947L28.5012 21.8366L28.384 21.9203C28.3453 21.9483 28.3065 21.9764 28.2656 22.001C27.6377 22.4109 26.8261 22.7966 26.0175 23.1512C26.0836 23.0843 26.1509 23.0162 26.2199 22.9458C26.2868 22.8764 26.3558 22.8069 26.4269 22.7379C26.4981 22.6684 26.5714 22.5994 26.6476 22.5308C26.686 22.4967 26.7243 22.4626 26.7631 22.4281C26.7827 22.4113 26.8023 22.394 26.8223 22.3772C26.8406 22.3604 26.8593 22.3431 26.8777 22.3259C26.9522 22.2577 27.0289 22.1899 27.1086 22.1235C27.1482 22.0903 27.1886 22.0571 27.23 22.0243C27.2709 21.9915 27.3143 21.9587 27.3501 21.9268C27.4975 21.7986 27.6709 21.6752 27.8132 21.56C27.86 21.5268 27.9094 21.497 27.955 21.4617L28.0926 21.3564L28.1271 21.3301C28.1391 21.321 28.1493 21.3137 28.1638 21.3012L28.2456 21.2334L28.4155 21.0923L28.6243 20.918L28.6763 20.8745C28.6937 20.8598 28.7155 20.8434 28.7351 20.8279L28.8552 20.7338C28.9357 20.6717 29.0154 20.6074 29.0967 20.5483L29.3425 20.3761L29.4657 20.2907C29.5065 20.2622 29.5483 20.2333 29.5871 20.21L29.8244 20.062L30.0616 19.9149C30.0812 19.9028 30.1017 19.8899 30.1204 19.8791L30.1775 19.8472L30.2913 19.7829C30.4429 19.6975 30.5946 19.612 30.7462 19.527C30.8229 19.4826 30.8949 19.4477 30.969 19.4084L31.1897 19.2932C31.3367 19.2164 31.4837 19.14 31.6306 19.0637C31.7767 18.9895 31.9203 18.9209 32.0652 18.8488C32.2096 18.7776 32.354 18.7069 32.498 18.6357L32.714 18.5291L32.9287 18.4273C33.5008 18.1585 34.0674 17.8854 34.6433 17.6248C34.6842 17.7128 34.7643 17.8849 34.8048 17.9712C36.8735 16.8831 38.9345 15.987 40.9981 15.1288C41.514 14.9157 42.0295 14.7039 42.5454 14.4955L42.7388 14.417L42.7507 14.4122L42.7567 14.4101H42.7584L42.7648 14.4075L42.7775 14.4036L42.8031 14.3954L42.9092 14.3622L43.1328 14.291C43.2866 14.2414 43.451 14.1866 43.6215 14.1275L43.8809 14.0356L44.0125 13.9877L44.0786 13.9631L44.1118 13.9506L44.1199 13.9475C44.1224 13.9467 44.1267 13.9454 44.1229 13.9441L44.1105 13.9363C43.8396 13.7676 43.5103 13.5765 43.1801 13.4043C43.0979 13.3616 43.0161 13.3198 42.936 13.2805C42.9262 13.2753 42.916 13.2706 42.9049 13.2654L42.8887 13.2572L42.861 13.2413C42.7946 13.2029 42.7277 13.164 42.66 13.123C42.5249 13.0419 42.3911 12.9651 42.2518 12.8784C42.1206 12.7982 41.989 12.7179 41.8569 12.6372C41.7334 12.563 41.6098 12.4884 41.4859 12.4137C41.2354 12.2688 40.9853 12.1221 40.7293 11.9836C40.9048 12.1575 40.7425 12.1462 40.6675 12.1717C40.912 12.3236 41.1519 12.4802 41.3926 12.6351C41.6426 12.7999 41.8919 12.9638 42.1407 13.1278L42.2429 13.1947L42.5428 13.3836L42.6421 13.4453L42.7302 13.4997C42.743 13.5088 42.7571 13.5139 42.7673 13.5204C42.8129 13.5459 42.858 13.5713 42.9032 13.5963C43.086 13.6982 43.2713 13.8026 43.4412 13.9005L43.4489 13.9048C43.451 13.9057 43.4498 13.9061 43.4481 13.9066L43.4438 13.9083L43.4263 13.9152L43.391 13.9294L43.3207 13.9575L43.1801 14.0123C43.0868 14.0485 42.9948 14.083 42.9053 14.1154L42.7737 14.1624L42.7098 14.1844L42.6787 14.1952L42.6672 14.1991L42.6438 14.209L42.5496 14.2487C42.0469 14.4605 41.5442 14.6724 41.0403 14.8846C40.0315 15.3109 39.0189 15.7385 37.9994 16.1695C36.9783 16.604 35.9503 17.0419 34.9045 17.5031C36.9561 16.5768 38.9733 15.7014 40.9866 14.8212C41.4897 14.602 41.992 14.3833 42.4942 14.1646L42.7886 14.0381L42.9646 13.9609L43.0502 13.9225L43.0924 13.9035L43.1132 13.894L43.1235 13.8893C43.1235 13.8893 43.129 13.888 43.1264 13.8867L43.1209 13.8837L42.8759 13.7555L42.7588 13.6934L42.7021 13.6628L42.6744 13.6477C42.6693 13.6451 42.6663 13.6425 42.6595 13.6399C42.6565 13.6386 42.6531 13.6369 42.6506 13.6347L42.6463 13.6317L42.6157 13.6127C42.5296 13.5605 42.441 13.504 42.3532 13.4484L42.2216 13.3647L42.1556 13.3228L42.0878 13.2784L41.8173 13.1002L41.5813 12.9427C41.2724 12.7352 40.9593 12.532 40.6454 12.33C40.017 11.9266 39.3784 11.5349 38.7305 11.153C37.435 10.3889 36.1028 9.66282 34.7383 8.96128C34.5675 8.87413 34.3963 8.78654 34.225 8.69939C34.0529 8.6131 33.8808 8.52638 33.7087 8.43966C33.3564 8.26492 33.0036 8.08975 32.6501 7.91415C31.925 7.5513 31.2127 7.18155 30.506 6.81482C30.094 6.60039 29.2774 6.17843 28.8731 5.97565C28.1263 5.4372 27.3603 4.95786 26.5748 4.54755C26.3809 4.44487 26.1726 4.34175 25.9771 4.2477C25.7811 4.15407 25.5903 4.06778 25.4041 3.99012C25.2192 3.91419 25.0394 3.84774 24.8639 3.79122C24.6893 3.73643 24.5197 3.69328 24.354 3.6592C24.4601 3.55824 24.472 3.40723 24.4618 3.24587C24.4528 3.08537 24.4209 2.9184 24.4694 2.78595C24.4941 2.7208 24.5397 2.66126 24.6211 2.62329C24.662 2.60387 24.7118 2.58834 24.7723 2.57756C24.8328 2.56806 24.9044 2.56548 24.9883 2.56806C25.1557 2.57756 25.3734 2.61466 25.6516 2.70397C25.9298 2.79285 26.2676 2.93393 26.6804 3.13671C26.7175 3.04784 26.7916 2.87008 26.8287 2.7812C26.4257 2.54347 26.0589 2.3148 25.7159 2.11116C25.3739 1.90622 25.0569 1.72329 24.7685 1.56494C24.1925 1.24697 23.7354 1.01959 23.5297 0.794808C23.4419 0.683925 23.4125 0.573043 23.4462 0.466475C23.4547 0.439725 23.467 0.413406 23.4837 0.387088C23.4918 0.374145 23.5011 0.361201 23.5113 0.348258C23.5165 0.341786 23.5216 0.335314 23.5275 0.328842C23.5348 0.322371 23.542 0.31633 23.5497 0.309859C23.6119 0.25981 23.6962 0.21192 23.8049 0.167049C24.0204 0.0824848 24.3365 0.0104327 24.7472 0.000940832C25.1579 -0.0120026 25.6601 0.0402027 26.2139 0.169206C26.8312 0.321508 27.4106 0.526878 27.9486 0.730522C28.5059 0.942795 29.0686 1.18311 29.6314 1.44241C30.7577 1.96102 31.8854 2.55685 33.01 3.15397C33.5728 3.45254 34.1351 3.75153 34.6979 4.04017C34.9888 4.18859 35.2807 4.33744 35.5729 4.48672C35.8694 4.63988 36.1667 4.79305 36.4637 4.94621C37.058 5.25384 37.6518 5.56448 38.2427 5.87685C38.8348 6.19008 39.4232 6.50202 40.0055 6.81007C40.7838 7.23419 41.5566 7.67384 42.3196 8.13333C42.5109 8.24723 42.7009 8.36415 42.89 8.48194C43.08 8.59843 43.2687 8.71794 43.4566 8.83832C43.6453 8.9574 43.8323 9.0795 44.0189 9.20289L44.2941 9.3841L44.5289 9.5364L44.7764 9.69216L44.902 9.77068L45.0933 9.8876L45.2279 9.97174L45.366 10.0554L45.6433 10.2211L46.1996 10.5516L47.0431 11.0413L47.8952 11.5271L48.4681 11.8494C50.0047 12.7054 51.5533 13.5717 53 14.4036C52.8713 14.4584 52.7295 14.5145 52.5932 14.5701L52.1808 14.7367L51.3565 15.0676C50.133 15.5543 48.9304 16.0362 47.7512 16.5177C47.1607 16.7584 46.575 16.9988 45.9943 17.2404C45.4201 17.4798 44.8437 17.7201 44.2656 17.9613C43.0438 18.4562 41.8143 18.9692 40.5883 19.4852C39.3678 20.0016 38.1468 20.5177 36.9395 21.0285C36.6413 21.1553 36.3435 21.2822 36.047 21.4082C35.751 21.532 35.4574 21.6636 35.1635 21.7896C35.0165 21.8526 34.8696 21.9155 34.723 21.9781C34.6497 22.0092 34.5765 22.0402 34.5032 22.0713C34.4312 22.1028 34.3596 22.1347 34.2881 22.1662C34.0009 22.2909 33.7146 22.4152 33.4305 22.539C33.232 22.6352 33.0173 22.7465 32.7928 22.8682C32.7651 22.8833 32.7357 22.8988 32.7088 22.9144C32.682 22.9303 32.6552 22.9463 32.6283 22.9622C32.5742 22.9946 32.5197 23.0274 32.4647 23.0606C32.4098 23.0938 32.3544 23.1279 32.2982 23.162C32.2701 23.1793 32.2424 23.1961 32.2143 23.2133C32.1861 23.2306 32.1572 23.2479 32.1325 23.2656C32.0294 23.3363 31.925 23.4079 31.8202 23.48C31.7652 23.5158 31.7205 23.5529 31.6736 23.5891L31.5331 23.6987C31.4849 23.7341 31.4419 23.7734 31.398 23.8118C31.3541 23.8502 31.3103 23.8881 31.2664 23.9261C31.1663 24.0193 31.0666 24.1121 30.9682 24.204C30.9107 24.257 30.8536 24.3101 30.7969 24.3623C30.7705 24.3873 30.7347 24.4175 30.7036 24.4447C30.6713 24.4723 30.6393 24.5004 30.6074 24.5275C30.543 24.5823 30.4804 24.6376 30.4165 24.6893C30.3513 24.7398 30.2866 24.7899 30.2227 24.839C30.1583 24.8878 30.0953 24.9357 30.0327 24.9832C29.97 25.0293 29.91 25.0677 29.8499 25.1091C29.7298 25.1898 29.6135 25.2662 29.5014 25.3378C29.2808 25.4703 29.0797 25.5777 28.9012 25.6661C28.8565 25.6877 28.8134 25.7084 28.7721 25.727C28.7312 25.7438 28.6916 25.7593 28.6537 25.7731C28.5779 25.8007 28.5088 25.8228 28.4471 25.8374C28.1084 25.953 27.9099 25.9682 27.7936 25.9233C27.6773 25.8758 27.6432 25.7714 27.6342 25.6463L28.4087 25.2105C28.4948 25.1626 28.5808 25.107 28.6669 25.0556L28.925 24.8982C29.0111 24.8447 29.0967 24.7959 29.1832 24.7359L29.4418 24.5625C29.5278 24.5038 29.6139 24.4494 29.6995 24.383C30.0437 24.1375 30.3837 23.8415 30.6606 23.5965C30.7275 23.5391 30.7952 23.4778 30.8608 23.423L31.0538 23.2677C31.0853 23.241 31.119 23.2168 31.1531 23.1926L31.2545 23.1197L31.3554 23.0468C31.3887 23.0222 31.4223 22.9981 31.4598 22.9748L31.6788 22.8341L31.7878 22.7638L31.8423 22.7284L31.9003 22.6943C32.0554 22.6037 32.2104 22.5131 32.3655 22.4229C32.4413 22.3768 32.5252 22.3349 32.6049 22.2909L33.0893 22.0294L33.2103 21.9643L33.3347 21.9013C33.5004 21.8172 33.6657 21.7335 33.8314 21.6493L34.0793 21.5238L34.2033 21.4612L34.3294 21.4004C34.6659 21.2386 35.0016 21.0768 35.3373 20.915C36.1672 20.5397 37.0077 20.1764 37.8559 19.8196C38.2789 19.6405 38.7049 19.4653 39.1296 19.2885L40.4094 18.7664C41.2639 18.4212 42.1206 18.0804 42.9803 17.746L43.6253 17.4958L43.9887 17.356L44.0381 17.3366L44.427 17.1795L46.5485 16.3313C45.832 16.6053 45.1368 16.8758 44.4539 17.1424C44.2916 17.2058 44.1288 17.2697 43.9661 17.3336C43.8596 17.3732 43.7527 17.4125 43.6457 17.4522C43.4327 17.5325 43.2189 17.6127 43.0054 17.693C42.1509 18.017 41.2963 18.3531 40.4413 18.6995C40.0136 18.8721 39.5872 19.0494 39.159 19.2272C38.7326 19.4067 38.3045 19.587 37.8789 19.7717C37.0256 20.1401 36.177 20.5189 35.3382 20.9142L34.326 21.381C34.156 21.4578 33.9928 21.5406 33.8258 21.62L33.3274 21.8612C33.1591 21.9401 33.0011 22.026 32.8379 22.1088C32.6769 22.1925 32.5116 22.2745 32.3536 22.3599L31.8854 22.6201C31.8053 22.6624 31.7346 22.709 31.66 22.7539L31.4389 22.8889C31.3627 22.9329 31.2975 22.9817 31.228 23.0283C31.1599 23.0757 31.0896 23.1214 31.0223 23.1698L30.7761 23.3587L30.7249 23.401L30.6231 23.4856L30.4071 23.6664C30.3322 23.7294 30.2593 23.7923 30.175 23.8579C30.0932 23.9226 30.0122 23.9878 29.93 24.0512L29.6765 24.2333L29.5496 24.3239C29.5074 24.3528 29.4644 24.3791 29.4218 24.4067L29.1662 24.5707L29.0384 24.6522C28.9958 24.6785 28.9532 24.7023 28.9106 24.7273L28.655 24.8757L28.3994 25.0237C28.3142 25.0712 28.229 25.1156 28.1438 25.1613L27.6321 25.434C27.636 25.2053 27.6283 24.9732 27.3761 24.8994C27.3761 24.8994 27.3258 24.9297 27.2423 24.9754C27.1588 25.0207 27.0434 25.0832 26.9151 25.1531C26.6578 25.2912 26.3511 25.4621 26.1441 25.5686C25.2052 25.7839 24.7693 25.6843 24.6411 25.4254C24.5133 25.1665 24.6918 24.7489 24.9883 24.3243C25.0697 24.2277 25.1562 24.125 25.2478 24.0163C25.2938 23.9628 25.341 23.9075 25.3896 23.8515C25.4373 23.7954 25.4863 23.7376 25.5366 23.6784L25.5357 23.6815Z" fill="white"/>
</svg>
