<svg width="167" height="152" viewBox="0 0 167 152" fill="none" xmlns="http://www.w3.org/2000/svg">
<g clip-path="url(#clip0_148_518)">
<path d="M82.2709 148.946C81.9012 148.645 81.7305 148.093 81.695 147.632C80.8168 147.593 80.4649 146.902 79.8747 146.392C78.9006 145.553 77.706 145.206 76.7035 144.49C75.7009 143.774 75.0574 142.942 73.9589 142.336C72.6257 141.603 71.584 140.753 70.1832 140.104C69.3478 139.718 68.6332 139.314 67.8261 138.847C66.1267 137.862 64.2567 137.504 62.4151 136.884C58.4937 135.57 54.4479 134.217 50.4447 133.246C48.7489 132.835 46.8931 132.697 45.1475 132.329C42.3495 131.737 39.2529 131.333 36.391 131.27C32.8109 131.188 29.3872 130.356 25.8143 130.352C20.1864 130.352 13.5915 129.941 7.96002 129.941L4.34082 33.2141C5.45716 33.2141 10.2247 31.8892 11.341 31.829C12.5213 31.7688 13.4777 31.3472 14.7185 31.3543C16.0943 31.3614 17.2178 31.2587 18.5545 30.993C20.6272 30.5856 23.0554 30.8903 25.1601 30.8903C31.6092 30.8903 38.2077 30.4616 44.6355 30.869C46.5411 30.9895 48.5889 31.6236 50.4483 32.0593C51.7068 32.3533 52.585 32.7359 53.808 33.1008C56.6628 33.9474 59.7096 34.4115 62.5004 35.4246C64.6798 36.2181 66.8769 37.2455 69.0207 38.2763" fill="white"/>
<path d="M60.9963 38.9529C60.1999 38.6235 59.3111 38.3294 58.3867 38.0531C56.602 37.5359 54.6431 37.086 52.5278 36.3917C51.9874 36.2111 51.4825 36.0233 51.0524 35.8674C50.6186 35.7116 50.2524 35.5805 49.8898 35.4778C48.9548 35.2263 48.0233 34.9747 47.0883 34.7232C46.1995 34.4894 45.3747 34.3052 44.6601 34.2237L44.3899 34.1989L43.3233 34.1245L41.8906 34.0466C39.9743 33.9616 38.0261 33.9368 36.0494 33.9439C34.0727 33.951 32.0676 33.9864 30.0304 34.0112C29.0065 34.0183 27.9791 34.0289 26.9481 34.036C26.429 34.036 25.9099 34.036 25.3873 34.036L24.5519 34.0254L23.7306 33.997C22.664 33.9474 21.6935 33.8872 20.8153 33.8978C20.378 33.9014 19.9692 33.9226 19.5995 33.9651C19.5106 33.9758 19.4146 33.9864 19.3328 34.0006L19.2048 34.0218L19.0235 34.0537C18.7355 34.1068 18.4405 34.1564 18.1383 34.1989C17.5374 34.2875 16.9188 34.3513 16.3038 34.3831C15.998 34.4009 15.6923 34.4079 15.3901 34.4115H14.6151C14.3804 34.4115 14.0853 34.4469 13.5947 34.5461C13.1148 34.6382 12.4144 34.7941 11.6145 34.8366C11.5327 34.8401 11.4687 34.8437 11.3478 34.8649C11.298 34.872 11.2198 34.8826 11.1452 34.8968L10.9176 34.9358C10.5799 35.0031 10.2386 35.0704 9.8973 35.1412C9.62355 35.1979 9.34624 35.2546 9.06893 35.3148L8.58543 35.4105C8.23701 35.4742 7.87794 35.5486 7.50109 35.584C7.45132 35.5911 7.40154 35.5876 7.35532 35.5911C7.33755 35.623 7.35177 35.6797 7.34821 35.7222V36.0021C7.34821 36.1933 7.34821 36.3846 7.34821 36.5759C7.34821 36.7956 7.34821 37.0187 7.34466 37.2455L7.33755 37.5643L7.34466 38.2267C7.35177 38.6943 7.35532 39.1619 7.36243 39.6295C7.37666 40.5683 7.39443 41.5177 7.40865 42.4706C7.45132 44.3764 7.49753 46.3071 7.54375 48.2554C7.65041 52.1486 7.7855 56.1091 7.93127 60.066C8.24768 67.9834 8.56054 75.8973 8.85562 83.2868C8.41478 67.9409 7.95971 52.2442 7.51175 36.6326L7.50464 36.0942V35.8285C7.50464 35.786 7.49398 35.7364 7.50464 35.7009C7.55086 35.7009 7.59708 35.7009 7.6433 35.6939C7.98815 35.6584 8.3259 35.584 8.66009 35.5203L9.11515 35.4282L9.92218 35.2581L10.9425 35.0527L11.1701 35.0137C11.2447 34.9995 11.3265 34.9854 11.3727 34.9818C11.4936 34.9641 11.554 34.9606 11.6322 34.957C12.4215 34.9145 13.1112 34.7657 13.5876 34.6736C14.0747 34.578 14.3733 34.539 14.5937 34.5355L15.2905 34.5426C15.5856 34.5426 15.8878 34.5355 16.19 34.5213C16.7944 34.4965 17.4094 34.4398 18.0067 34.3583C18.5791 34.2875 19.2866 34.1458 19.5141 34.1245C19.8625 34.082 20.2536 34.0608 20.6731 34.0572C21.5228 34.0502 22.4721 34.1139 23.5173 34.1706C24.0399 34.1989 24.5945 34.2273 25.1776 34.2379L26.7383 34.2592C27.7693 34.2627 28.8003 34.2662 29.8278 34.2698C31.8756 34.2698 33.8914 34.2627 35.8823 34.284C37.8732 34.3017 39.8321 34.3583 41.7555 34.4717C42.239 34.4965 42.7118 34.5355 43.1918 34.5674L43.9028 34.6276C44.1268 34.6488 44.4112 34.6701 44.5463 34.6913C45.2183 34.7764 46.0217 34.9677 46.8963 35.2121C47.8349 35.4778 48.7699 35.747 49.7049 36.0127C50.0498 36.119 50.3946 36.2429 50.8142 36.4024C51.2337 36.5618 51.735 36.7601 52.286 36.9479C54.444 37.6847 56.4029 38.1559 58.1557 38.6837C56.5487 38.5349 54.6502 38.3932 52.3216 37.8831C51.703 37.7414 51.1092 37.5749 50.6293 37.4474C50.1422 37.3163 49.7796 37.2313 49.4312 37.1675L49.1112 37.1073C48.9619 37.0754 48.809 37.0435 48.6561 37.0117C48.3717 36.9479 48.0802 36.8841 47.7887 36.8168C47.2732 36.6964 46.747 36.5759 46.2137 36.4484C45.6271 36.2996 45.1009 36.1898 44.6637 36.1296C44.557 36.1154 44.4539 36.1012 44.3579 36.0906L44.2797 36.0835L44.1553 36.0729L43.9064 36.0552C43.5722 36.0339 43.2451 36.002 42.9109 35.9879C41.5777 35.9029 40.2232 35.8568 38.858 35.832C36.1205 35.7789 33.3297 35.8143 30.4819 35.8391C29.0599 35.8497 27.6236 35.8604 26.173 35.8533L25.0709 35.8462C24.6443 35.8391 24.2426 35.8249 23.8586 35.8108L21.8001 35.7116C21.1815 35.6868 20.6411 35.6868 20.1896 35.7116C19.9692 35.7257 19.763 35.7435 19.603 35.7718L19.4537 35.7966L19.1408 35.8533L18.4973 35.9595C17.6263 36.0906 16.702 36.1756 15.8238 36.2004L15.1732 36.2111H14.6684C14.6257 36.2075 14.5582 36.204 14.3697 36.2359C14.3342 36.0233 14.2595 35.6053 14.224 35.3963L13.2605 35.6088C12.8375 35.7009 12.2757 35.8037 11.6785 35.8462L11.5043 35.8781L11.1061 35.9595L10.1142 36.1898L9.58799 36.3173C9.46712 36.3457 9.49556 36.3421 9.46356 36.3492L9.40312 36.3669L9.16492 36.4342C8.99072 36.4803 8.82007 36.5299 8.64942 36.5582C8.62809 36.5618 8.6032 36.5618 8.58187 36.5653C8.57831 36.583 8.58187 36.6114 8.58187 36.6362L8.59254 36.7814L8.61031 37.0648L8.64942 37.876C8.68142 38.7297 8.71341 39.5799 8.74541 40.4337C8.80229 42.1376 8.86273 43.8344 8.91962 45.5313C9.01561 48.9214 9.1116 52.3009 9.20759 55.6698C9.36757 62.4076 9.52756 69.117 9.68754 75.837C10.0217 89.2771 10.4626 102.763 11.4509 116.636C11.522 115.506 11.7247 116.168 11.8704 116.395C11.8704 116.473 11.8775 116.547 11.8811 116.618C11.8811 116.547 11.874 116.473 11.8704 116.395C12.002 116.6 12.0909 116.469 12.0162 114.499C12.0909 116.469 12.002 116.604 11.8704 116.395C11.2589 102.565 10.747 89.1319 10.299 75.7343C10.0893 69.0355 9.88308 62.3473 9.67332 55.6238C9.57733 52.262 9.48489 48.8895 9.3889 45.5065C9.34268 43.8132 9.30002 42.1163 9.25381 40.416C9.23247 39.5658 9.21114 38.7156 9.18626 37.8618L9.17914 37.543V37.5041L9.18626 37.4332L9.19692 37.295L9.20759 37.164L9.2147 37.1002C9.2147 37.1002 9.2147 37.079 9.21825 37.0719H9.25736C9.3498 37.0719 9.43867 37.0577 9.52044 37.0506L9.63066 37.04H9.67332L9.75509 37.0223L10.2813 36.9089L11.2661 36.7105L11.4723 36.6751C11.5362 36.6645 11.6145 36.6503 11.6429 36.6468C11.7318 36.6326 11.7282 36.6397 11.746 36.6397C12.2686 36.6114 12.7806 36.537 13.1823 36.4661C12.7806 36.537 12.2722 36.6114 11.746 36.6432C11.7282 36.6432 11.7318 36.6432 11.6429 36.6539C11.618 36.6539 11.5398 36.6716 11.4758 36.6822L11.2696 36.7176L10.2884 36.9195L9.76575 37.0329C9.64132 37.0612 9.68754 37.0506 9.66621 37.0542H9.64132L9.53822 37.0719C9.46001 37.0825 9.38179 37.0967 9.30002 37.1002H9.26803C9.26803 37.1002 9.26803 37.1215 9.26803 37.1286V37.1888L9.26447 37.3128V37.458L9.26091 37.5324L9.2858 38.2621L9.38179 41.2272C9.44579 43.2039 9.51334 45.177 9.57733 47.1466C9.71598 51.0894 9.85108 55.0251 9.98618 58.9572C10.2777 66.8179 10.5728 74.6645 10.8643 82.511C11.1736 90.3576 11.4829 98.2112 11.7958 106.09C11.9558 110.029 12.1122 113.972 12.2722 117.925C12.3504 119.902 12.4322 121.882 12.5104 123.862L12.553 124.854L12.5637 124.996C12.5708 125.088 12.5744 125.187 12.585 125.272L13.0508 125.265C14.7004 125.315 16.35 125.361 18.0032 125.41C19.6421 125.46 21.2704 125.509 22.8809 125.538C23.6844 125.552 24.4879 125.563 25.2842 125.563L26.6352 125.573C27.1223 125.587 27.6058 125.612 28.0786 125.644C29.9664 125.775 31.6836 126.027 33.2479 126.204C34.03 126.296 34.7731 126.37 35.4806 126.416C35.8361 126.441 36.1774 126.452 36.5187 126.462C36.988 126.473 37.4573 126.491 37.923 126.516C39.7824 126.618 41.5991 126.82 43.4051 127.107C44.3081 127.252 45.2076 127.415 46.1071 127.603C46.7541 127.741 47.4545 127.844 48.2971 127.968C48.8197 128.046 49.5201 128.145 50.3804 128.301C50.6008 128.347 50.8284 128.389 51.0559 128.436C51.1732 128.464 51.2941 128.489 51.415 128.517C51.5252 128.545 51.639 128.57 51.7527 128.598C52.1545 128.701 52.5633 128.804 52.9722 128.907C54.604 129.332 56.1932 129.803 57.242 130.125C59.2578 130.922 61.2736 131.716 63.2823 132.509L63.9898 132.789C64.1924 132.871 64.4093 132.949 64.6404 133.03L66.1726 133.558C67.2854 133.948 68.6151 134.447 69.9412 135.255C70.382 135.528 70.7802 135.776 71.1606 135.992C71.349 136.101 71.5339 136.201 71.7188 136.296L72.053 136.463C72.2165 136.544 72.3765 136.626 72.5329 136.711C73.1586 137.047 73.7204 137.405 74.2039 137.724C74.6909 138.043 75.0998 138.326 75.4624 138.553L75.729 138.716L76.0526 138.904C76.4436 139.13 76.8134 139.382 77.1369 139.63C77.7875 140.133 78.2426 140.579 78.559 140.852C78.719 140.994 78.8434 141.1 78.9572 141.185L79.0958 141.288C79.1349 141.312 79.1776 141.344 79.2416 141.38C79.4691 141.521 79.8993 141.73 80.4824 142.039C80.1304 142.003 79.9775 142.095 79.8993 142.233C79.8211 142.372 79.8282 142.57 79.8673 142.783C79.9384 143.208 80.1233 143.718 79.8282 143.909C79.686 144.005 79.4265 144.022 79.0283 143.959C78.6372 143.891 78.0897 143.757 77.528 143.47C77.2329 143.314 76.8987 143.08 76.4863 142.744C76.0739 142.414 75.5584 141.95 74.8402 141.514C74.7514 141.461 74.6589 141.408 74.5629 141.355C74.4883 141.312 74.4136 141.273 74.339 141.231C74.1896 141.146 74.0368 141.057 73.8768 140.958C73.5604 140.763 73.2226 140.544 72.8529 140.303C72.4831 140.062 72.0814 139.8 71.6334 139.538C71.4095 139.407 71.1713 139.275 70.9224 139.148C70.6522 139.013 70.4709 138.925 70.2398 138.801C70.1438 138.992 69.9518 139.375 69.8558 139.566C70.1367 139.725 70.414 139.881 70.6878 140.037C70.9651 140.2 71.2317 140.374 71.4841 140.554C71.9925 140.909 72.4618 141.281 72.924 141.635C73.1551 141.812 73.3826 141.985 73.6137 142.148C73.8412 142.315 74.0794 142.467 74.2856 142.637C74.7051 142.977 75.0536 143.36 75.3949 143.743C75.7326 144.125 76.0739 144.508 76.4436 144.851C76.8205 145.198 77.2187 145.489 77.5813 145.748C78.3137 146.265 78.8825 146.725 79.1954 147.193C79.2487 147.267 79.2985 147.345 79.3411 147.423C79.3838 147.498 79.4229 147.575 79.4833 147.671C79.5367 147.763 79.6007 147.862 79.6753 147.969C79.7464 148.071 79.8424 148.188 79.91 148.277C80.2122 148.659 80.5748 148.915 80.8983 149.081L80.8059 149.24L80.8272 149.379L80.8414 149.446C80.8414 149.464 80.8521 149.457 80.8628 149.449L80.8948 149.435C80.9161 149.428 80.9445 149.407 80.9552 149.414L80.9659 149.485C80.973 149.531 80.9836 149.577 80.9907 149.623C81.0263 149.807 81.0761 149.977 81.1294 150.14C81.2361 150.459 81.3747 150.728 81.5134 150.941C81.588 151.061 81.6378 151.111 81.6805 151.175C81.7231 151.238 81.7587 151.299 81.7836 151.355C81.8333 151.469 81.8511 151.568 81.8262 151.656C81.78 151.826 81.5951 151.961 81.2325 152C81.0121 151.954 80.7597 151.841 80.5215 151.649C80.4041 151.554 80.2868 151.44 80.1766 151.309L80.0948 151.206L80.0557 151.153C80.0557 151.153 80.0451 151.132 80.0344 151.132L79.9491 151.224L79.7749 151.415C79.7429 151.43 79.7358 151.398 79.718 151.391L79.6149 151.313L79.8246 150.944C79.3482 150.845 78.7901 150.636 78.239 150.257C78.1679 150.208 78.1075 150.169 78.0257 150.105C77.9475 150.041 77.8657 149.977 77.7839 149.91C77.6702 149.814 77.5493 149.715 77.4284 149.616L77.3609 149.563L77.3111 149.527C77.2898 149.513 77.2791 149.517 77.2649 149.513C77.2365 149.506 77.208 149.503 77.1796 149.495C77.0622 149.51 76.7494 149.414 75.6473 148.95C75.3735 148.829 75.0536 148.674 74.6945 148.475C74.5167 148.376 74.3212 148.259 74.1292 148.132C73.955 148.018 73.7843 147.901 73.6244 147.784C72.9738 147.317 72.4511 146.86 72.1454 146.644C71.9925 146.53 71.893 146.474 71.8254 146.442C71.7899 146.428 71.7614 146.417 71.7365 146.41H71.7259L71.6619 146.371L71.5303 146.304L71.2708 146.166C70.5882 145.794 70.0052 145.432 69.5217 145.149C69.0381 144.862 68.6613 144.667 68.3307 144.522L68.2062 144.472L67.9574 144.362L67.4205 144.114C67.065 143.944 66.7237 143.771 66.3966 143.597C66.0873 143.431 65.778 143.261 65.4652 143.091C65.3727 143.038 65.3692 143.041 65.3265 143.02C65.291 143.002 65.259 142.984 65.2198 142.967C65.1416 142.931 65.0705 142.896 64.9817 142.86C64.6546 142.719 64.228 142.574 63.7124 142.418C63.0974 142.244 62.4823 142.067 61.8602 141.89L61.3127 141.727L60.7581 141.55C60.4381 141.447 60.1181 141.341 59.7982 141.238C57.2349 140.406 54.6573 139.57 52.0727 138.836C51.4257 138.656 50.7786 138.478 50.1316 138.312C49.8187 138.234 49.5094 138.156 49.1965 138.078C48.9583 138.021 48.6953 137.968 48.4037 137.915C47.8242 137.809 47.1523 137.713 46.4057 137.6C46.0324 137.543 45.6342 137.479 45.2183 137.409L44.5819 137.292L43.9811 137.168C42.6941 136.895 41.3786 136.672 40.0632 136.505C39.4055 136.424 38.7478 136.353 38.0936 136.303C37.7666 136.279 37.4395 136.257 37.116 136.24L36.0885 136.197C34.3216 136.14 32.6933 135.935 31.1859 135.744C29.6891 135.552 28.3133 135.368 27.0689 135.297C26.4183 135.258 25.9455 135.255 25.0887 135.255L22.7885 135.226C21.2775 135.191 19.7701 135.156 18.2698 135.12C16.7908 135.085 15.319 135.049 13.8507 135.017C12.7557 135 11.6642 134.986 10.5763 134.968C9.14715 134.947 7.70018 134.968 6.25321 134.968L3.12463 134.975L2.63757 124.039L2.33893 117.904C2.14695 113.812 1.96208 109.721 1.79854 105.629C1.47146 97.4461 1.22259 89.263 1.12305 81.0728C1.05195 73.7399 0.888406 66.198 0.696425 58.5782C0.476002 50.3455 0.255579 42.0313 0.0351562 33.7774L1.17282 32.3887L1.7381 31.6944C1.83054 31.5811 1.92653 31.4571 2.01896 31.3543L2.27849 31.1489C2.9682 30.5785 3.84634 29.8027 4.89157 28.864C5.53506 28.6904 6.21055 28.5806 6.86115 28.4247L8.33656 28.1059L9.524 27.8721L9.85819 27.8119L10.2279 27.7517C10.4946 27.7056 10.843 27.6773 11.1736 27.6525C11.2838 27.6525 11.4296 27.6418 11.7105 27.5922C11.9806 27.5462 12.3682 27.4647 12.8659 27.3868C13.3565 27.3088 13.9609 27.2415 14.5866 27.2415H14.7999L14.9101 27.2451H15.1306L15.5572 27.2522C16.1154 27.2451 16.6344 27.2097 17.1961 27.1388L17.6228 27.0786L18.2449 26.9794C18.7426 26.9086 19.2226 26.866 19.6741 26.8448C20.5842 26.8023 21.4126 26.8271 22.1805 26.866C22.952 26.9085 23.6631 26.9652 24.3101 27.0077C24.6407 27.029 24.9323 27.0467 25.238 27.0573L26.2619 27.0892C26.9481 27.1069 27.6342 27.1211 28.3204 27.1388C32.5049 27.1919 38.3887 26.8129 43.9491 27.0467C44.3046 27.0644 44.6565 27.0821 45.005 27.0963C45.4422 27.1246 45.8582 27.1707 46.2528 27.2238C47.0456 27.3336 47.7567 27.4824 48.4179 27.6312C49.0757 27.7835 49.6765 27.9359 50.2276 28.0811C50.7999 28.2299 51.351 28.3716 51.8772 28.5062C52.5171 28.6869 53.093 28.8888 53.5552 29.0588C53.9676 29.2147 54.3516 29.3635 54.7107 29.4981C55.3684 29.7425 55.9905 29.9692 56.4527 30.1676C57.8144 30.6636 58.5823 31.0284 58.8738 31.3225C59.176 31.6165 59.0302 31.829 58.7423 32.0239C57.0287 31.6059 55.3684 31.2339 53.8787 30.738C53.125 30.4864 52.2185 30.1428 51.2301 29.8984L49.9716 29.5831L48.6917 29.2572C47.8171 29.0411 46.8963 28.8286 45.9009 28.6869C45.652 28.6514 45.3996 28.6231 45.1401 28.5983L44.7596 28.57L44.4255 28.5487C43.9775 28.5239 43.5331 28.4956 43.0887 28.4779C41.3075 28.3964 39.5335 28.368 37.7772 28.368C34.2611 28.368 30.7912 28.4779 27.3747 28.5027L26.0948 28.5097L24.8505 28.5027C24.0577 28.4849 23.2044 28.4318 22.305 28.3999C21.4019 28.368 20.4491 28.3539 19.4288 28.4424C19.1728 28.4637 18.9133 28.4956 18.6502 28.531C18.3907 28.57 18.0814 28.6266 17.925 28.655C17.5481 28.7223 17.1784 28.779 16.8122 28.8179C16.4069 28.8604 16.0051 28.8817 15.5927 28.8923C15.3865 28.8959 15.1768 28.8959 14.967 28.8923H14.5724C14.3982 28.8888 14.2311 28.8994 14.064 28.91C13.3956 28.9561 12.8055 29.0765 12.3468 29.1651C11.8882 29.2537 11.5576 29.3103 11.2874 29.3174C11.0172 29.3351 10.7292 29.3635 10.4981 29.4024C10.2564 29.4379 10.0644 29.4733 9.85463 29.5123L8.7063 29.7425L7.38377 30.0259C6.84693 30.1499 6.29587 30.2455 5.76259 30.3837C4.81691 31.0178 3.96721 31.5598 3.23129 31.9459C3.13174 32.0026 3.04286 32.0345 2.94687 32.0805C2.88288 32.1762 2.8331 32.3002 2.77266 32.41L2.43492 33.0831L1.74877 34.4292L1.83765 37.752L1.97274 44.3871L2.13984 53.2078C2.24294 59.0883 2.33537 64.9688 2.40292 70.8457C2.39581 65.0609 2.33893 59.2229 2.24649 53.3424C2.19317 50.4022 2.13984 47.4478 2.08295 44.4827C2.05096 43.002 2.01896 41.5177 1.98341 40.0298C1.96563 39.2859 1.94786 38.542 1.93008 37.7945C1.89808 36.6857 1.86609 35.5734 1.83409 34.4611L2.4918 33.1185L2.81888 32.4454C2.87577 32.3356 2.92198 32.2116 2.98598 32.116C3.08197 32.0699 3.17085 32.038 3.27039 31.9814C4.00632 31.6023 4.84891 31.0674 5.79103 30.4404C6.3172 30.3058 6.86471 30.2066 7.39443 30.0826L8.70986 29.7921L9.85819 29.5548C10.0679 29.5158 10.2564 29.4804 10.4981 29.4414C10.7292 29.4024 11.0136 29.3741 11.2838 29.3528C11.5576 29.3422 11.8882 29.282 12.3468 29.1899C12.8055 29.0978 13.3921 28.9773 14.0604 28.9242C14.2275 28.9136 14.3946 28.903 14.5688 28.903H14.9635C15.1768 28.903 15.3865 28.903 15.5927 28.8959C16.0051 28.8852 16.4104 28.8569 16.8157 28.8109C17.1819 28.7719 17.5481 28.7223 17.9285 28.6585L18.6502 28.5416C18.9133 28.5097 19.1728 28.4779 19.4252 28.4566C20.4456 28.3751 21.3913 28.3964 22.2907 28.4353C23.1867 28.4743 24.0364 28.5345 24.8292 28.5593C25.2025 28.57 25.6469 28.5735 26.0628 28.577L27.332 28.5841C30.7237 28.5912 34.1616 28.5168 37.635 28.5487C39.3735 28.5664 41.1191 28.6089 42.8718 28.701C43.3091 28.7223 43.75 28.7506 44.1873 28.7825L44.8521 28.8286C45.1045 28.8498 45.3534 28.8746 45.5987 28.91C46.5728 29.0411 47.4829 29.2501 48.3468 29.4698L50.8284 30.1286C51.2621 30.2349 51.7598 30.3766 52.1971 30.5219C52.6415 30.6671 53.0611 30.823 53.4521 30.9611C54.9453 31.4996 56.5487 31.8963 58.2232 32.3179C57.633 32.6296 57.0607 32.9626 57.7752 33.5648C57.7752 33.5648 58.8098 33.7986 60.1039 34.1352C60.751 34.3052 61.462 34.5107 62.1375 34.7374C62.813 34.9641 63.4351 35.205 63.9329 35.4034C65.8207 36.4519 67.001 37.3553 67.7085 38.0213C68.4124 38.6943 68.6257 39.1584 68.4871 39.4453C68.2098 40.0298 66.4926 39.8952 64.4235 39.5622C63.396 39.3461 62.2299 39.1194 61.0318 38.9565L60.9963 38.9529Z" fill="#EF8D2B"/>
<path d="M83.7176 148.946C84.0873 148.645 84.258 148.093 84.2936 147.632C85.1717 147.593 85.5237 146.902 86.1138 146.392C87.0879 145.553 88.2825 145.206 89.2851 144.49C90.2876 143.774 90.9311 142.942 92.0297 142.336C93.3629 141.603 94.4046 140.753 95.8053 140.104C96.6408 139.718 97.3554 139.314 98.1624 138.847C99.8618 137.862 101.732 137.504 103.573 136.884C107.495 135.57 111.541 134.217 115.544 133.246C117.24 132.835 119.095 132.697 120.841 132.329C123.639 131.737 126.736 131.333 129.598 131.27C133.178 131.188 136.601 130.356 140.174 130.352C145.802 130.352 152.397 129.941 158.029 129.941L160.379 65.9607L159.717 54.437L160.549 46.5409L161.648 31.4075C160.531 31.4075 143.929 34.1529 137.501 34.5567" fill="white"/>
<path d="M143.136 30.1251C143.993 30.0578 144.85 29.9905 145.699 29.9232C147.257 29.7779 148.821 29.615 150.385 29.4379L152.735 29.1651L153.912 29.0234L155.384 28.8356C156.678 28.6621 157.961 28.492 159.238 28.3362C159.888 28.2405 160.482 28.2228 161.101 28.1732L162.914 28.0421L164.716 27.9217L164.944 27.9111L164.922 28.6018L164.898 29.5193C164.88 30.1286 164.866 30.7415 164.848 31.3543L164.823 32.2683C164.812 32.5765 164.816 32.867 164.78 33.2035C164.471 37.0294 164.155 40.8906 163.838 44.8015C163.763 45.6198 163.717 46.4417 163.621 47.2635C163.525 48.0889 163.429 48.9143 163.333 49.7433C163.148 51.3197 162.96 52.9102 162.772 54.5114C162.839 56.1835 162.91 57.8768 162.981 59.5842C163.045 61.3767 163.113 63.1869 163.18 65.0184C163.188 65.3195 163.198 65.6206 163.205 65.9323C163.109 67.4945 163.01 69.0816 162.91 70.6863C162.828 72.2485 162.747 73.832 162.661 75.4261C162.508 78.6143 162.377 81.8557 162.26 85.0935C162.039 91.5691 161.819 98.0377 161.616 104.085C161.911 97.8322 162.21 91.5124 162.512 85.1643C162.807 78.7702 163.102 72.3442 163.397 65.9359C163.23 62.1242 163.06 58.3125 162.892 54.5185C163.084 52.9598 163.276 51.4082 163.468 49.8566C163.571 49.0383 163.671 48.22 163.774 47.4017C163.888 46.5834 163.938 45.7686 164.023 44.9539C164.179 43.3243 164.336 41.6983 164.492 40.0794L164.613 38.8644L164.759 37.2986C164.88 35.9347 165.004 34.5744 165.125 33.2177L165.171 32.704L165.189 32.2222L165.317 28.3503L165.335 27.8615L165.342 27.617V27.4966C165.356 27.4683 165.324 27.4789 165.306 27.4789H165.246L163.369 27.5781L161.477 27.6843L160.514 27.7375L160.03 27.7658L159.526 27.8225C158.178 27.9713 156.817 28.1378 155.437 28.3114L154.474 28.4283L153.88 28.492L152.696 28.616C151.91 28.6939 151.125 28.7719 150.339 28.8498C148.775 29.0021 147.218 29.1438 145.675 29.2678C147.04 28.8286 148.544 28.3893 150.197 27.9855C151.022 27.7835 151.889 27.5887 152.792 27.4116C153.244 27.323 153.706 27.2345 154.175 27.1565C154.584 27.0928 154.993 27.029 155.409 26.9617C155.892 26.8908 156.376 26.8164 156.87 26.742C158.054 26.5756 159.216 26.4445 160.382 26.2922C160.681 26.2461 160.948 26.2426 161.225 26.2248L162.053 26.1788L163.689 26.0902L165.289 26.0017L166.085 25.9592L166.704 25.9273L166.807 25.9202C166.807 25.9202 166.81 25.984 166.814 26.0123C166.803 27.0998 166.789 28.1874 166.778 29.2749L166.76 30.8974L166.75 31.705C166.75 31.9672 166.711 32.2825 166.693 32.5694C166.597 33.7349 166.505 34.9003 166.409 36.0658C166.33 37.0223 166.252 37.9752 166.17 38.9317L166.014 40.6994C165.911 41.8755 165.808 43.0551 165.705 44.2276L165.552 45.9883C165.505 46.5763 165.452 47.1608 165.374 47.7489C165.107 50.016 164.841 52.2797 164.578 54.5398C164.361 54.5291 163.938 54.5043 163.724 54.4937V54.5327L163.739 54.6212L163.82 55.6627C163.856 56.1445 163.895 56.6263 163.931 57.108C164.002 58.0716 164.069 59.0316 164.14 59.9916C164.204 60.9516 164.268 61.9081 164.332 62.8645C164.396 63.8848 164.457 64.9015 164.521 65.9181C164.467 67.328 164.414 68.7344 164.361 70.1372C164.304 71.4763 164.247 72.8118 164.19 74.1437C164.059 76.8112 163.931 79.4681 163.799 82.1178C163.518 87.4209 163.237 92.6992 162.956 97.9881C162.683 103.277 162.43 108.576 162.249 113.922C162.156 116.593 162.082 119.275 162.029 121.974C161.954 125.903 161.876 129.849 161.797 133.827C160.702 133.855 159.597 133.887 158.488 133.916C160.237 134.022 159.38 134.199 159.095 134.341C158.839 134.465 159.103 134.557 162.231 134.543C159.106 134.557 158.839 134.465 159.095 134.341C160.169 134.33 161.239 134.323 162.27 134.312C162.501 127.451 162.729 120.678 162.956 113.957C163.163 108.619 163.369 103.319 163.571 98.027C163.806 92.7381 164.037 87.4563 164.272 82.1497C164.531 76.7722 164.794 71.37 165.058 65.9111C164.905 62.358 164.752 58.7234 164.595 55.057C164.773 58.6844 164.954 62.3048 165.132 65.9111C164.908 71.3487 164.684 76.7652 164.464 82.171C164.265 87.5059 164.062 92.8267 163.863 98.1475C163.44 110.287 163.02 122.424 162.597 134.642C160.784 134.656 158.971 134.667 157.154 134.677C156.244 134.677 155.345 134.709 154.438 134.723L152.44 134.78C150.542 134.847 148.64 134.915 146.734 134.986C144.807 135.049 142.862 135.11 140.875 135.127L140.143 135.134L139.563 135.149C139.172 135.163 138.77 135.187 138.354 135.223C137.522 135.29 136.641 135.396 135.706 135.517C134.771 135.634 133.782 135.768 132.734 135.875C132.207 135.928 131.671 135.977 131.116 136.013C130.835 136.027 130.565 136.052 130.277 136.059L129.498 136.087C127.817 136.14 126.068 136.321 124.329 136.594C123.895 136.665 123.458 136.736 123.028 136.817L122.381 136.941L121.691 137.083C120.511 137.324 119.466 137.458 118.559 137.596C118.107 137.664 117.692 137.731 117.315 137.805C117.126 137.841 116.948 137.88 116.789 137.919L116.156 138.075C115.27 138.298 114.378 138.542 113.479 138.801C111.865 139.251 108.583 140.303 106.916 140.866C106.016 141.086 105.113 141.305 104.217 141.521C103.25 141.745 102.433 141.904 101.771 142.078C101.441 142.163 101.146 142.248 100.886 142.34C100.755 142.386 100.637 142.432 100.52 142.478L100.353 142.549L100.054 142.701C99.6382 142.917 99.1902 143.144 98.7174 143.371C98.4828 143.484 98.2374 143.597 97.9921 143.707L97.6224 143.87L97.4055 143.959C96.8936 144.171 96.2963 144.522 95.4822 145.018C95.0804 145.262 94.6254 145.535 94.1312 145.801L93.9854 145.879L93.9428 145.9C93.9108 145.918 93.8823 145.928 93.8468 145.953C93.7792 145.992 93.701 146.049 93.5944 146.127C93.1891 146.417 92.3678 147.278 91.1199 148.061C90.5262 148.429 90.0214 148.67 89.6481 148.865C89.2677 149.056 89.0188 149.194 88.8766 149.29C88.8766 149.131 88.841 148.975 88.7628 148.837C88.6811 148.698 88.5531 148.578 88.4144 148.461C88.2722 148.344 88.1193 148.241 87.9949 148.117C87.8633 147.997 87.7425 147.887 87.6785 147.738C87.6145 147.597 87.6003 147.427 87.7496 147.189C87.8954 146.952 88.1975 146.676 88.7913 146.282C89.0863 146.081 89.4596 145.854 89.8969 145.521C90.3236 145.198 90.7502 144.805 91.1768 144.408C91.607 144.012 92.0265 143.636 92.5313 143.36C92.6949 143.268 92.862 143.176 93.0362 143.08C93.2104 142.977 93.3882 142.875 93.5695 142.768C93.9143 142.559 94.2769 142.34 94.6574 142.109C94.5436 141.929 94.3125 141.567 94.1952 141.387C93.7614 141.617 93.3348 141.851 92.9118 142.063C92.4887 142.287 92.0478 142.453 91.6603 142.655C90.8711 143.069 90.2027 143.64 89.5236 144.04C88.8517 144.455 88.1727 144.66 87.4901 144.876C86.8181 145.085 86.1284 145.33 85.5205 145.687C85.4032 145.755 85.2929 145.829 85.1827 145.9C85.0725 145.974 84.9659 146.052 84.8841 146.102C84.7952 146.158 84.717 146.205 84.6423 146.24C84.5712 146.275 84.5144 146.293 84.4361 146.325C84.1446 146.438 83.8353 146.435 83.5687 146.357C83.4407 146.605 83.206 146.676 83.0034 146.594C82.9358 146.555 82.7083 146.484 82.5981 146.41C82.4737 146.332 82.3883 146.243 82.3457 146.144C82.303 146.042 82.2995 145.928 82.3457 145.801C82.367 145.737 82.399 145.67 82.4417 145.602C82.4772 145.535 82.5661 145.457 82.5483 145.393C82.5661 145.124 82.5661 144.802 82.5057 144.49C82.5519 144.423 82.5981 144.331 82.6194 144.221C82.6194 144.21 82.6301 144.189 82.6194 144.185C82.6088 144.182 82.5874 144.192 82.5874 144.178C82.5874 144.157 82.6017 144.118 82.6585 144.033L82.6976 143.973L82.7581 143.891C82.8185 143.817 82.879 143.743 82.9394 143.668C83.0674 143.516 83.206 143.363 83.3554 143.215C83.5367 143.034 83.7322 142.857 83.942 142.68C84.0415 142.595 84.173 142.496 84.269 142.418C84.3686 142.343 84.4717 142.265 84.5748 142.191C84.9801 141.897 85.3747 141.652 85.6982 141.451C86.0253 141.249 86.2849 141.079 86.4484 140.951C86.5195 140.891 86.587 140.838 86.6084 140.802C86.6404 140.767 86.7221 140.685 86.8003 140.607C86.9923 140.423 87.291 140.108 87.7887 139.644C88.0376 139.414 88.3362 139.155 88.6882 138.889C88.8659 138.758 89.0472 138.627 89.2428 138.5C89.3388 138.436 89.4383 138.372 89.5414 138.312L89.7761 138.17C90.0711 137.982 90.4089 137.749 90.8248 137.458C91.2444 137.168 91.7456 136.821 92.3429 136.456C92.6451 136.275 92.9615 136.091 93.3064 135.91C93.5588 135.783 93.8112 135.655 94.0636 135.524C94.4263 135.333 94.7996 135.117 95.2297 134.862C95.5355 134.67 96.435 134.135 97.1353 133.831C97.8606 133.501 98.561 133.246 99.2045 133.034C99.8515 132.821 100.431 132.651 100.95 132.492C101.192 132.417 101.437 132.339 101.682 132.261C101.931 132.176 102.18 132.095 102.433 132.01C103.535 131.634 104.662 131.259 105.81 130.883C108.11 130.139 110.503 129.406 113.006 128.765L113.951 128.528L114.439 128.411L115.018 128.283C115.782 128.124 116.476 128.021 117.123 127.925C117.709 127.84 118.296 127.755 118.886 127.67C119.153 127.628 119.402 127.585 119.636 127.543L120.553 127.362C123.22 126.856 125.911 126.516 128.709 126.399L129.69 126.367C129.943 126.36 130.202 126.345 130.465 126.331C130.995 126.296 131.536 126.25 132.108 126.183C133.242 126.059 134.469 125.881 135.78 125.722C137.092 125.563 138.504 125.424 139.993 125.396C140.598 125.382 141.202 125.368 141.806 125.354C142.4 125.332 142.997 125.308 143.588 125.286C145.92 125.198 148.288 125.074 150.687 124.964L152.493 124.882L152.949 124.865C152.949 124.865 152.956 124.865 152.956 124.858L152.97 124.847C152.97 124.847 152.995 124.819 152.995 124.808C152.984 124.787 152.973 124.773 152.966 124.766H152.959V124.73L153.023 122.753L153.286 115.732C153.482 111.053 153.727 106.377 154.04 101.701C154.445 95.9086 154.779 89.9573 155.092 83.9387C155.394 77.9909 155.697 71.9793 155.999 65.9996C155.85 62.0887 155.7 58.192 155.551 54.3307L155.636 53.6258L155.69 53.2113L155.793 52.432C155.86 51.9148 155.931 51.3976 155.999 50.8804C156.141 49.846 156.283 48.8187 156.422 47.7914C156.493 47.2777 156.568 46.7676 156.639 46.2575C156.696 45.7438 156.753 45.2302 156.809 44.7165C156.927 43.6927 157.044 42.6725 157.158 41.6558C157.247 40.7808 157.332 39.8244 157.41 38.8077C157.442 38.379 157.474 37.9398 157.506 37.4934C157.513 37.3411 157.521 37.1817 157.531 37.0223C157.478 36.4803 157.862 35.4175 156.92 35.871C156.603 35.9312 156.308 35.9843 156.027 36.0268C155.803 36.0587 155.586 36.0906 155.377 36.1189C154.9 36.1827 154.438 36.2465 153.997 36.3032C152.234 36.5263 150.79 36.6539 149.884 36.6184C147.306 36.6716 147.139 36.2252 147.459 35.6726C148.906 35.4778 150.357 35.2829 151.804 35.0881C153.155 34.8968 154.502 34.709 155.85 34.5178L158.264 34.1883L158.861 34.1175C158.911 34.1104 158.96 34.1068 159.01 34.1033L159.085 34.0962H159.124C159.124 34.0962 159.124 34.1139 159.124 34.1245L158.999 35.6407C158.818 37.9575 158.633 40.2672 158.452 42.5733C158.331 44.0009 158.246 45.4321 158.096 46.8526C157.936 48.2696 157.776 49.6866 157.616 51.1L157.218 54.3626L157.673 65.9748L156.877 79.5566L156.002 93.2589C156.361 88.767 156.681 84.2327 156.977 79.6629C157.115 77.378 157.254 75.0825 157.396 72.7799C157.521 70.5163 157.648 68.2491 157.773 65.9713C157.691 64.1009 157.613 62.2269 157.531 60.3423C157.439 58.355 157.343 56.3606 157.25 54.3591C157.375 53.2716 157.499 52.184 157.624 51.0929L158.143 46.8632C158.306 45.4533 158.406 44.0293 158.541 42.6123L158.921 38.3578L159.003 37.4651L159.067 36.8452L159.327 34.284L159.359 33.9545L159.366 33.873V33.8305C159.366 33.8305 159.348 33.8305 159.337 33.827L159.181 33.8341L158.555 33.8943L155.985 34.1883L152.045 34.6843L147.769 35.205C148.124 34.7161 148.462 34.206 147.708 33.8837C147.708 33.8837 144.196 34.369 142.432 34.5709C138.831 34.4646 137.473 33.8695 137.441 33.2389C137.409 32.5942 138.617 31.8715 140.271 31.1524C141.124 30.8407 142.08 30.4829 143.154 30.1003L143.136 30.1251Z" fill="#EF8D2B"/>
<path fill-rule="evenodd" clip-rule="evenodd" d="M84.6548 30.0605C84.809 29.9065 84.9668 29.7558 85.1246 29.6051C85.2296 29.5048 85.3346 29.4045 85.4385 29.3033C85.4972 29.2479 85.558 29.1897 85.6212 29.1293C85.9137 28.8491 86.2563 28.521 86.6686 28.2122C86.9139 28.0173 87.1699 27.8154 87.4295 27.61C87.4783 27.5718 87.5271 27.5332 87.576 27.4945C87.791 27.3245 88.0091 27.152 88.2436 27.0077C88.3168 26.9596 88.39 26.9114 88.4631 26.8632C88.9546 26.5394 89.4423 26.2181 89.9003 25.9344C90.4443 25.6439 90.9384 25.3782 91.3331 25.1657C94.6607 23.7912 98.088 23.1323 101.441 22.8737C104.8 22.6257 108.114 22.7887 111.345 23.3271C110.901 23.5007 110.958 23.8337 111.079 24.1809C111.098 24.2373 111.119 24.2943 111.14 24.3513C111.251 24.6486 111.361 24.9468 111.239 25.1727C111.168 25.3074 111.015 25.4101 110.73 25.4809C110.446 25.5589 110.03 25.6049 109.44 25.6014C109.029 25.6038 108.532 25.585 107.929 25.5621C106.796 25.519 105.29 25.4618 103.282 25.5057C103.296 25.7041 103.321 26.108 103.332 26.3063C106.343 26.3772 108.807 27.0113 110.574 27.7056C112.341 28.4283 113.418 29.2253 113.806 29.7886C114.012 30.0861 114.04 30.3341 113.877 30.5183C113.795 30.6104 113.66 30.6848 113.486 30.7486C113.318 30.8159 113.105 30.869 112.846 30.908C112.395 30.9761 111.81 30.982 111.07 30.9895C110.962 30.9905 110.851 30.9917 110.737 30.993C110.513 30.993 110.279 30.9859 110.033 30.9753C109.887 30.969 109.734 30.9702 109.577 30.9715C109.47 30.9723 109.362 30.9732 109.251 30.9718C109.088 30.9696 108.92 30.9656 108.748 30.9615C108.344 30.9519 107.917 30.9416 107.463 30.954C106.005 30.9151 104.512 31.032 103.005 31.1914C101.497 31.3791 99.9936 31.7086 98.5146 32.1479C97.0498 32.619 95.642 33.2531 94.3266 34.0395C94.0066 34.2521 93.6866 34.4575 93.3595 34.663C93.0615 34.8998 92.76 35.1367 92.4585 35.3735L92.4565 35.375L92.2254 35.5522L92.0192 35.7541L91.5997 36.1508L91.1731 36.5441L90.7927 36.9869L90.4052 37.4261L90.2096 37.6458L90.0034 37.9114C89.777 38.197 89.5622 38.4894 89.3477 38.7813C89.2961 38.8516 89.2446 38.9218 89.1928 38.9919C88.6773 39.7181 88.1974 40.4549 87.7636 41.2024C86.9068 42.7009 86.2385 44.2383 85.8332 45.8147C85.6305 46.6046 85.4883 47.4017 85.403 48.2094L85.3568 48.8187C85.345 48.9526 85.3394 49.1114 85.3339 49.2694C85.3312 49.3496 85.3284 49.4296 85.3248 49.5059L85.2963 50.2073V50.9017C85.2857 52.7473 85.4137 54.5398 85.7443 56.2331C86.1745 58.7092 86.9851 61.0296 88.1085 63.2436L88.5529 64.0655C88.6459 64.2353 88.7471 64.4037 88.848 64.5716C88.9092 64.6734 88.9703 64.775 89.0293 64.8767C89.1657 65.1201 89.322 65.3579 89.4779 65.5952C89.4967 65.6237 89.5154 65.6523 89.5341 65.6808C89.5736 65.741 89.6129 65.8017 89.652 65.8623C89.7858 66.0691 89.9184 66.2742 90.0532 66.4495C90.7145 67.4237 91.5002 68.3199 92.3321 69.1631C95.6882 72.5319 100.164 74.7105 104.637 74.9018C111.072 75.125 118.399 73.2333 123.71 69.326C126.359 67.3741 128.457 64.9192 129.576 62.1206C130.145 60.7249 130.487 59.2442 130.611 57.7103C130.679 56.9451 130.675 56.1622 130.643 55.3758L130.547 54.1891C130.513 53.9564 130.478 53.7248 130.443 53.4936C130.412 53.2918 130.381 53.0904 130.351 52.889C130.339 52.8093 130.327 52.7296 130.316 52.6499C130.304 52.5702 130.293 52.4904 130.28 52.4107C130.241 51.9431 130.167 51.3834 130.081 50.8521C129.996 50.3136 129.893 49.7716 129.779 49.2332C129.48 47.9331 128.983 46.4098 128.311 44.8866C127.639 43.3633 126.8 41.84 125.89 40.4904C124.98 39.1407 124.005 37.9646 123.149 37.0187C122.955 36.8184 122.774 36.6215 122.601 36.4343C122.38 36.1944 122.173 35.9703 121.975 35.7753C121.805 35.5947 121.648 35.4211 121.513 35.2652C121.371 35.1164 121.247 34.9747 121.143 34.8472C120.987 34.6772 120.852 34.5213 120.735 34.3761C120.714 34.3516 120.694 34.3279 120.674 34.3047C120.582 34.1967 120.5 34.101 120.432 34.0076C120.269 33.7845 120.18 33.6038 120.148 33.4586C120.084 33.1645 120.251 33.0051 120.507 32.8953C123.636 35.0456 126.181 38.0071 128.03 41.3866C128.189 41.6595 128.333 41.9431 128.476 42.2264C128.551 42.3734 128.625 42.5202 128.702 42.6654C128.767 42.8073 128.834 42.9481 128.901 43.0887C129.041 43.3834 129.181 43.6775 129.306 43.9797C129.697 44.8618 130.039 45.7686 130.348 46.6861C130.657 47.6001 130.927 48.5317 131.155 49.4634C131.375 50.388 131.571 51.3551 131.685 52.2301C131.696 52.3176 131.711 52.4035 131.725 52.49C131.733 52.5365 131.741 52.5832 131.749 52.6304C131.782 52.8194 131.817 53.0071 131.852 53.1936C131.876 53.3217 131.9 53.4493 131.923 53.5762L132.005 54.0119L132.051 54.4477C132.083 54.7381 132.115 55.0286 132.147 55.3156C132.163 55.4607 132.169 55.6049 132.173 55.7487C132.171 55.6031 132.166 55.4576 132.15 55.312L132.062 54.437L132.019 53.9978L131.784 52.6233C131.779 52.5936 131.774 52.5637 131.769 52.5338C131.752 52.4314 131.735 52.3279 131.724 52.2265C131.624 51.3515 131.443 50.388 131.233 49.4599C131.02 48.5247 130.764 47.6001 130.472 46.6826C130.177 45.7686 129.854 44.8618 129.48 43.9761C129.114 43.087 128.705 42.2191 128.257 41.3724C127.358 39.6862 126.316 38.0744 125.093 36.622C123.87 35.1696 122.487 33.8589 120.955 32.7394L120.975 32.7334C121.467 32.583 121.979 32.4262 121.744 31.783C121.744 31.783 121.161 31.3543 120.379 30.8938C120.055 30.6827 119.685 30.4869 119.323 30.2957C119.26 30.2623 119.197 30.2291 119.135 30.196C118.719 29.9622 118.306 29.778 117.972 29.6327C117.639 29.3948 117.326 29.1874 117.038 28.9966C116.808 28.8438 116.593 28.7016 116.397 28.5629C116.271 28.4691 116.151 28.3819 116.038 28.2995C115.762 28.0989 115.526 27.927 115.334 27.7587C114.794 27.2911 114.595 26.9156 114.677 26.6252C114.755 26.3347 115.114 26.1292 115.679 25.9981C115.96 25.9344 116.291 25.8883 116.664 25.86C117.034 25.8387 117.435 25.86 117.866 25.8848C118.299 25.9344 118.758 25.9946 119.241 26.1009C119.373 26.1289 119.507 26.1554 119.644 26.1824C120.009 26.2542 120.392 26.3296 120.777 26.448L120.784 26.4693L121.858 27.114C122.097 27.2653 122.329 27.4246 122.56 27.5833C122.669 27.6588 122.779 27.7341 122.889 27.8083C124.876 29.1722 126.697 30.7592 128.261 32.5411C129.832 34.3158 131.198 36.2465 132.339 38.2834C132.911 39.3001 133.43 40.3451 133.907 41.4079C134.372 42.4741 134.799 43.5546 135.179 44.6563C135.553 45.758 135.883 46.881 136.164 48.0216C136.306 48.592 136.434 49.1694 136.548 49.7574C136.662 50.349 136.765 50.9265 136.847 51.5818C136.847 51.6033 136.851 51.6262 136.855 51.6487C136.857 51.6633 136.86 51.6777 136.861 51.6916L137.035 52.6445C137.099 52.9917 137.163 53.3389 137.195 53.6931C137.206 53.7923 137.217 53.8916 137.229 53.9908C137.298 54.6004 137.367 55.2118 137.373 55.8363C137.458 57.2781 137.334 58.7553 137.128 60.2219C136.868 61.6885 136.491 63.1515 135.922 64.5543C135.843 64.7831 135.74 65.0017 135.637 65.2204C135.579 65.3437 135.521 65.4671 135.467 65.5922L135.453 65.6246C135.301 65.9576 135.148 66.2933 134.959 66.6089C134.91 66.696 134.861 66.7833 134.812 66.8708C134.676 67.1142 134.539 67.3585 134.401 67.6008C134.348 67.6818 134.295 67.763 134.241 67.8443C134.087 68.0798 133.932 68.3168 133.779 68.5537C132.925 69.7476 131.987 70.9059 130.924 71.9403C129.872 72.9854 128.737 73.9631 127.529 74.8275C127.099 75.1556 126.649 75.4504 126.198 75.7454C126.026 75.8579 125.854 75.9705 125.683 76.085C125.523 76.1798 125.364 76.2757 125.205 76.3716C124.727 76.6591 124.249 76.9467 123.753 77.2044C122.448 77.9236 121.094 78.5399 119.721 79.089C116.973 80.1943 114.118 80.9701 111.267 81.4802C109.838 81.714 108.412 81.9088 106.994 81.9974C106.692 82.0248 106.387 82.0365 106.082 82.0482C106.032 82.0501 105.981 82.0521 105.931 82.0541C105.81 82.0576 105.692 82.0632 105.574 82.0688C105.342 82.0798 105.112 82.0907 104.864 82.086C104.73 82.0834 104.596 82.0815 104.462 82.0797C103.958 82.0727 103.459 82.0657 102.963 82.022C103.14 82.0405 103.316 82.0583 103.492 82.0718L104.331 82.1001C104.409 82.1021 104.488 82.1047 104.568 82.1073C104.769 82.1138 104.972 82.1204 105.166 82.1178L105.959 82.0966C106.43 82.0903 106.901 82.0616 107.372 82.0329C107.431 82.0293 107.49 82.0257 107.548 82.0222C107.987 82.0017 108.423 81.9569 108.861 81.9119C108.952 81.9025 109.043 81.8932 109.134 81.884C111.242 81.6609 113.343 81.2783 115.409 80.7363C119.537 79.6452 123.579 77.9413 127.212 75.4013C129.022 74.126 130.718 72.6347 132.2 70.9059C133.683 69.1808 134.941 67.2112 135.848 65.0715C136.761 62.9354 137.302 60.6293 137.465 58.3337C137.473 58.1425 137.482 57.9512 137.491 57.76C137.51 57.3774 137.529 56.9947 137.529 56.6121C137.525 56.4571 137.521 56.3021 137.516 56.1471C137.506 55.732 137.495 55.3174 137.469 54.9046L137.295 53.2184L137.028 51.6527C137.028 51.6349 137.025 51.6181 137.023 51.6013C137.02 51.5845 137.017 51.5676 137.017 51.5499C136.943 50.8946 136.85 50.3171 136.744 49.7256C136.637 49.1375 136.516 48.5601 136.385 47.9862C136.118 46.8385 135.809 45.7084 135.45 44.5925C135.087 43.4767 134.678 42.3749 134.227 41.291C133.761 40.2105 133.26 39.1407 132.698 38.0992C131.578 36.0127 130.223 34.0254 128.656 32.1904C127.091 30.3554 125.268 28.7117 123.28 27.3124C123.34 27.3372 123.401 27.3624 123.462 27.3878C123.567 27.4314 123.672 27.4753 123.778 27.5179C123.887 27.57 123.997 27.6238 124.107 27.6781C124.162 27.7049 124.217 27.7318 124.272 27.7587C124.606 27.9252 124.948 28.0988 125.292 28.2795C125.365 28.3231 125.438 28.3668 125.511 28.4108C126.112 28.7712 126.745 29.1505 127.344 29.6115C128.716 30.6175 130.078 31.8822 131.283 33.4196C133.309 36.119 134.881 39.0309 136.065 42.0136C136.655 43.5085 137.153 45.0212 137.565 46.5551C137.775 47.3238 137.956 48.096 138.116 48.8825C138.28 49.6795 138.418 50.4411 138.528 51.3516V51.3693L138.674 52.1699C138.69 52.264 138.707 52.3578 138.724 52.4516C138.764 52.6684 138.803 52.885 138.831 53.1051C138.852 53.3054 138.874 53.505 138.897 53.7044C138.946 54.1396 138.996 54.5736 139.03 55.0109C139.036 55.2007 139.044 55.3902 139.052 55.5797C139.07 56.0338 139.089 56.4877 139.087 56.9451C139.078 57.1376 139.072 57.3295 139.066 57.5212C139.052 57.9784 139.038 58.4342 138.991 58.8935C138.788 58.8793 138.393 58.8474 138.194 58.8297C138.112 60.484 137.8 62.1313 137.341 63.7325C136.857 65.3301 136.178 66.8498 135.368 68.281C134.543 69.705 133.562 71.0016 132.506 72.2025C131.436 73.3928 130.263 74.4449 129.047 75.412C127.817 76.3578 126.537 77.2009 125.221 77.9519C123.895 78.6817 122.555 79.3583 121.172 79.9073C120.831 80.0561 120.482 80.1872 120.137 80.3147C120.015 80.3596 119.893 80.4054 119.77 80.4511C119.546 80.5353 119.321 80.6193 119.096 80.6973C118.923 80.7531 118.751 80.81 118.579 80.8669C118.051 81.0411 117.523 81.2155 116.987 81.3598C115.576 81.7778 114.143 82.093 112.707 82.3623C111.267 82.6244 109.817 82.8051 108.359 82.9326C108.175 82.9442 107.991 82.9569 107.807 82.9696C107.259 83.0074 106.713 83.0451 106.165 83.053L105.063 83.0779L103.876 83.046C103.481 83.046 103.093 83.0042 102.702 82.962L102.692 82.9609C102.553 82.9446 102.414 82.931 102.274 82.9173C102.02 82.8924 101.765 82.8675 101.515 82.8263C101.401 82.8065 101.287 82.7871 101.173 82.7676C100.511 82.6545 99.8467 82.5411 99.2007 82.3658C98.5819 82.2316 97.9816 82.04 97.3811 81.8482C97.2364 81.802 97.0917 81.7559 96.9467 81.7105C96.7037 81.629 96.4652 81.5352 96.2264 81.4413C96.1018 81.3923 95.9772 81.3433 95.8517 81.296L95.3078 81.0834L94.7781 80.8426C93.3453 80.2262 92.005 79.4433 90.7002 78.6037C89.4026 77.7535 88.1938 76.7794 87.0277 75.7414C85.89 74.6787 84.8093 73.5451 83.8209 72.3158C83.6585 72.1198 83.5078 71.9164 83.3566 71.7123C83.2729 71.5992 83.1889 71.4859 83.1028 71.3736L82.7472 70.8953L82.4237 70.4206C82.3484 70.308 82.2722 70.1967 82.196 70.0855C82.0565 69.8819 81.9172 69.6785 81.7838 69.4677L81.1687 68.4864C81.4513 69.161 81.227 69.0246 81.0244 68.9013C80.9823 68.8757 80.9411 68.8507 80.9057 68.8336L81.4852 69.8255L82.1002 70.7855C82.2609 71.0475 82.4504 71.3144 82.6392 71.5801C82.6801 71.6377 82.7209 71.6952 82.7615 71.7526C82.8425 71.8627 82.921 71.975 82.9995 72.0871C83.1481 72.2997 83.2966 72.512 83.4618 72.7091C84.4217 73.9666 85.499 75.1108 86.626 76.1984C88.9226 78.3203 91.5179 80.1093 94.3905 81.3916C94.9066 81.6435 95.4475 81.8478 95.988 82.052C96.1848 82.1264 96.3815 82.2007 96.577 82.2773L97.7076 82.6315C97.7645 82.6486 97.8215 82.6661 97.8786 82.6836C98.0103 82.724 98.1425 82.7645 98.2764 82.8015L98.8559 82.9432C100.388 83.3506 101.981 83.5455 103.574 83.6482L103.67 83.6508C104.436 83.6713 105.227 83.6925 105.902 83.6517C106.537 83.6394 107.17 83.5925 107.802 83.5456C107.899 83.5384 107.996 83.5313 108.092 83.5242C109.546 83.3896 110.993 83.216 112.423 82.9397C115.292 82.426 118.104 81.6042 120.852 80.5166C123.586 79.3937 126.263 78.0015 128.745 76.1594C129.266 75.7927 129.762 75.3798 130.259 74.967C130.362 74.8814 130.465 74.7957 130.568 74.7105C130.813 74.4962 131.053 74.2746 131.291 74.0538C131.341 74.0081 131.39 73.9625 131.439 73.917L131.873 73.5132L132.289 73.0846C133.412 71.9581 134.429 70.6828 135.336 69.3118C136.933 66.9094 138.089 64.1144 138.663 61.2042L138.525 61.9152C138.405 62.4425 138.256 62.9651 138.108 63.4848C138.076 63.597 138.044 63.7091 138.013 63.821C137.948 63.9983 137.886 64.1768 137.824 64.3555C137.669 64.7978 137.514 65.2412 137.327 65.6702C137.256 65.8262 137.187 65.9834 137.118 66.1407C136.924 66.5834 136.73 67.0267 136.491 67.445C135.283 69.7582 133.704 71.8199 131.937 73.584C130.159 75.3447 128.19 76.8183 126.139 78.0653C124.084 79.3087 121.943 80.3254 119.753 81.1507C115.37 82.798 110.801 83.712 106.148 83.9245L105.273 83.9599C105.053 83.9679 104.804 83.9638 104.561 83.9598C104.482 83.9585 104.404 83.9572 104.327 83.9564L103.367 83.9387L102.415 83.8572C102.308 83.8465 102.201 83.8369 102.094 83.8274C101.883 83.8086 101.672 83.7897 101.462 83.7615L100.52 83.6092C99.9735 83.5328 99.4432 83.4062 98.9128 83.2796C98.8287 83.2595 98.7446 83.2394 98.6604 83.2195C96.2073 82.6067 93.8715 81.6502 91.7277 80.4033C89.5839 79.1563 87.6179 77.6437 85.8652 75.9114L85.211 75.2596L84.5924 74.5724C84.5242 74.4949 84.4548 74.4179 84.3853 74.3407C84.2482 74.1884 84.1107 74.0356 83.9809 73.8781L83.4014 73.1554C83.1017 72.795 82.8308 72.41 82.559 72.0238C82.4728 71.9014 82.3866 71.7789 82.2993 71.6569L82.0327 71.2779L81.3181 70.1514C78.8187 66.1236 77.0838 61.3767 76.4972 56.6015C76.1808 54.2174 76.1026 51.8404 76.1915 49.5201C76.2234 48.4148 76.3194 47.0581 76.5292 45.7934C76.7283 44.5146 77.0411 43.2535 77.4358 42.0278C77.9533 40.4109 78.625 38.8647 79.4011 37.4054C78.0936 36.0275 76.7378 34.7057 75.3628 33.4161C75.5086 33.2496 75.7894 32.9272 75.9316 32.7607C73.4984 31.0178 71.3464 29.0625 69.1922 27.1051C68.693 26.6515 68.1936 26.1978 67.6907 25.7466C65.0172 23.3519 62.2725 21.021 58.9698 19.1931C59.0845 19.4012 58.946 19.4686 58.8203 19.5299C58.7941 19.5426 58.7685 19.5551 58.7458 19.5686C64.7079 23.8443 69.9696 28.2086 75.1459 33.2106C71.0539 29.4131 66.7059 25.9769 62.2406 22.5974C60.2295 21.0754 58.1897 19.567 56.1272 18.0419C53.61 16.1806 51.059 14.2943 48.4855 12.3278C48.3768 12.2447 48.2383 12.1389 48.0862 12.0227C47.6807 11.7131 47.1787 11.3297 46.8892 11.1056C45.6946 9.35919 44.2334 7.95638 42.6514 6.70235C42.9671 6.5419 43.171 6.174 43.3748 5.8062C43.8639 4.92346 44.3526 4.04131 46.3879 6.02928C46.523 5.85924 46.7932 5.51562 46.9247 5.34204C44.4467 2.00858 45.2147 -1.27528 48.8552 0.481782C51.0935 1.62453 53.3902 3.45654 55.7891 5.37017C57.7034 6.89721 59.6829 8.47623 61.7499 9.79846C65.0705 12.0408 68.4124 14.3151 71.3205 17.1491C72.7648 18.5855 74.3319 19.9876 75.9145 21.4035C78.672 23.8706 81.4766 26.3798 83.7602 29.1864C84.0087 29.469 84.3167 29.7616 84.6548 30.0605ZM83.6525 31.1824L83.749 31.0705C82.7875 30.1616 81.821 29.2662 80.8556 28.3822C78.4153 26.0107 75.975 23.6417 73.5195 21.258L72.1916 19.9689C74.8864 22.8701 77.8479 25.6049 80.8556 28.3822C81.7991 29.3023 82.7321 30.2356 83.6525 31.1824ZM80.1888 36.0114C80.2502 35.9089 80.312 35.8069 80.3743 35.7053C79.4723 34.8018 78.531 33.9108 77.5675 32.9986C76.5221 32.009 75.4505 30.9946 74.3745 29.9126C72.4017 27.7813 69.8299 25.8104 67.4377 23.9772C66.9631 23.6135 66.4955 23.2551 66.0411 22.902C66.793 23.5506 67.5519 24.1987 68.3131 24.8487C70.7118 26.8972 73.1328 28.9647 75.4268 31.1241C77.1019 32.6989 78.7114 34.3238 80.1888 36.0114ZM132.199 56.5298C132.204 56.8729 132.185 57.2138 132.167 57.5545C132.156 57.7457 132.146 57.9368 132.14 58.1283C132.116 58.2982 132.095 58.4684 132.074 58.6384C132.017 59.1064 131.959 59.5733 131.845 60.0306C131.585 61.2811 131.19 62.4961 130.618 63.6333C130.056 64.7739 129.374 65.8544 128.563 66.8569C127.742 67.8523 126.818 68.7698 125.811 69.6094C123.781 71.2779 121.439 72.624 118.939 73.6443C117.695 74.165 116.401 74.5866 115.096 74.9479C113.791 75.3163 112.455 75.5855 111.114 75.7945C112.43 75.6103 113.745 75.3624 115.036 75.0152C116.33 74.6822 117.613 74.2713 118.854 73.7683C120.102 73.2759 121.318 72.702 122.47 72.0324C123.625 71.3665 124.741 70.6332 125.755 69.7865C126.771 68.947 127.721 68.0295 128.545 67.0234C129.363 66.0103 130.067 64.9192 130.636 63.7608C131.219 62.606 131.603 61.3661 131.87 60.0979C131.985 59.608 132.043 59.1075 132.101 58.6062C132.118 58.4587 132.135 58.3111 132.154 58.1637C132.159 57.9799 132.167 57.7964 132.175 57.6129C132.192 57.2528 132.208 56.8925 132.199 56.5298Z" fill="#EF8D2B"/>
<path d="M138.87 59.9774C138.817 60.3534 138.755 60.7281 138.684 61.1009L138.713 60.9481C138.777 60.6257 138.841 60.3034 138.87 59.9774Z" fill="#EF8D2B"/>
<path d="M80.1946 130.228C80.1946 130.005 80.1946 129.785 80.191 129.566C80.1804 129.3 80.1697 129.087 80.1484 128.754L80.1306 128.521L80.1235 128.397C80.1235 128.397 80.1164 128.195 80.1306 128.042L80.1448 127.922L80.1519 127.862L80.1697 127.766C80.2408 127.369 80.4364 126.941 80.6994 126.622C80.7634 126.544 80.8168 126.477 80.9696 126.335C81.1047 126.214 81.2576 126.098 81.4283 126.002C81.7589 125.807 82.182 125.694 82.4735 125.672C82.6157 125.658 82.765 125.658 82.9072 125.669C82.6192 129.853 82.8183 126.873 82.7508 127.826L82.7401 127.904C82.733 127.957 82.733 128.007 82.733 128.06C82.7401 128.209 82.7401 128.156 82.7401 128.166C82.7401 128.173 82.7401 128.166 82.7295 128.149C82.7259 128.142 82.7224 128.138 82.7152 128.134C82.7081 128.124 82.6975 128.113 82.6868 128.106C82.6655 128.088 82.6441 128.074 82.6192 128.064C82.5517 128.014 82.4735 127.975 82.3953 127.95C82.3064 127.915 82.1855 127.858 82.0789 127.826C81.8869 127.773 81.5634 127.667 81.2754 127.6L80.4008 127.405C80.4008 127.405 80.415 127.38 80.4257 127.352C80.4648 127.217 80.5039 127.001 80.5359 126.778C80.5679 126.554 80.5963 126.317 80.6212 126.076C80.7137 125.102 80.7599 124.096 80.7812 123.079C80.8203 121.039 80.7528 118.917 80.767 116.65C80.8239 115.059 80.7492 113.352 80.6568 111.63C80.6141 110.769 80.5679 109.905 80.5252 109.058C80.5146 108.846 80.5075 108.633 80.4968 108.424C80.4897 108.19 80.4826 107.953 80.4826 107.751C80.4826 107.333 80.4826 106.922 80.4826 106.518C80.4612 106.993 80.4435 107.471 80.4292 107.964C80.4186 108.52 80.4292 108.966 80.4292 109.451C80.4399 110.419 80.4648 111.393 80.4968 112.36C80.5608 114.294 80.6497 116.218 80.6817 118.116C80.7172 120.012 80.6959 121.882 80.5501 123.692C80.4755 124.592 80.3759 125.506 80.2337 126.349C80.1982 126.558 80.159 126.756 80.1164 126.944C80.0737 127.111 80.0239 127.309 79.9884 127.323C79.9884 127.323 79.9813 127.323 79.9955 127.323L80.0559 127.334L80.3048 127.383L80.799 127.493L80.9199 127.522L81.0194 127.539L81.2185 127.582C81.35 127.61 81.4816 127.646 81.6096 127.685C82.118 127.826 82.4841 127.957 82.6619 128.088C82.6797 128.103 82.701 128.124 82.7117 128.138C82.7188 128.145 82.7295 128.152 82.733 128.166C82.733 128.166 82.733 128.173 82.733 128.156C82.7259 128.064 82.7259 127.971 82.7366 127.879C82.8112 126.714 82.5944 130.295 82.9179 125.23C82.8432 125.226 82.7686 125.223 82.6904 125.223C82.6157 125.223 82.541 125.223 82.4628 125.233C82.4628 125.233 81.83 125.304 81.5278 125.46C81.151 125.616 80.8061 125.86 80.5501 126.119C80.351 126.321 80.255 126.455 80.1235 126.657C80.0062 126.849 79.9066 127.058 79.8355 127.267C79.7715 127.422 79.7004 127.809 79.7075 127.77C79.6933 127.851 79.6826 127.933 79.6755 128.018C79.6684 128.099 79.6649 128.184 79.6649 128.265V128.404L79.672 128.528L79.6933 128.91C79.704 129.183 79.704 129.388 79.704 129.619C79.5867 129.452 79.4729 129.286 79.3591 129.084C79.3307 129.031 79.3022 128.981 79.2738 128.9L79.2525 128.843L79.2276 128.747L79.2134 128.698L79.2062 128.669L79.1956 128.606L79.1814 128.478L79.1743 128.414V128.382L79.1671 128.258C79.1671 128.081 79.1778 127.904 79.1991 127.731L79.2098 127.663L79.2311 127.546L79.2702 127.376C79.3271 127.15 79.4089 126.919 79.5156 126.7C79.6222 126.48 79.7502 126.271 79.8924 126.087C79.9671 125.991 80.0311 125.913 80.1235 125.818C80.255 125.676 80.4115 125.538 80.5821 125.41C80.9234 125.155 81.3394 124.95 81.7518 124.836C81.958 124.78 82.1606 124.741 82.3526 124.723L82.477 124.712C82.6406 124.702 82.8041 124.702 82.9641 124.712C83.0281 124.05 82.5339 130.487 82.7401 127.77V127.784L82.7295 127.816L82.7188 127.879C82.7117 127.922 82.7117 127.964 82.7081 128.007C82.7046 128.049 82.7081 128.092 82.7117 128.134C82.7117 128.163 82.7117 128.159 82.7117 128.159C82.7117 128.159 82.7081 128.142 82.6868 128.131C82.6548 128.092 82.6264 128.074 82.573 128.046C82.5126 128.007 82.4522 127.975 82.3846 127.95C82.3277 127.933 82.214 127.876 82.1286 127.847C82.0362 127.812 81.9402 127.784 81.8478 127.762L81.4816 127.653C81.3572 127.617 81.2292 127.589 81.1047 127.561L80.9127 127.522L80.6817 127.468C80.3652 127.394 80.0417 127.33 79.7182 127.277L79.4764 127.238L79.3556 127.22L79.288 127.21C79.256 127.203 79.2774 127.21 79.2702 127.206L79.2631 127.196L79.2489 127.174C79.2311 127.128 79.2205 127.072 79.2098 126.983C79.192 126.827 79.1885 126.615 79.1991 126.399C79.2631 125.871 79.3129 125.286 79.352 124.712C79.3947 124.142 79.4196 123.565 79.4445 122.987C79.4836 121.832 79.4836 120.667 79.4658 119.498C79.6222 119.491 79.928 119.477 80.0808 119.47C79.6898 116.15 79.6044 112.827 79.6364 109.448L79.6542 108.148L79.7004 106.855C79.7324 106.015 79.7609 105.186 79.768 104.354C79.7893 102.685 79.7466 101.006 79.5795 99.2988C79.4942 99.5397 79.3698 99.3944 79.2702 99.3413C79.2702 99.3236 79.2702 99.3094 79.2702 99.2917C79.2702 99.3059 79.2702 99.3236 79.2702 99.3413C79.1814 99.2952 79.1138 99.32 79.1067 99.7451C79.1138 99.32 79.1814 99.2952 79.2702 99.3413C79.2845 101.02 79.2774 102.671 79.2596 104.315C79.2489 105.14 79.2382 105.962 79.2276 106.78L79.2134 108.049L79.2311 109.352C79.2951 112.686 79.4551 115.955 79.4658 119.232C79.416 116.912 79.2809 114.567 79.1636 112.183C79.1067 111 79.0498 109.77 79.0143 108.601L79.0036 108.081V107.609V106.706L79.0107 104.931C79.0249 102.583 79.0356 100.23 79.0498 97.8605C79.0534 96.6809 79.0605 95.4942 79.064 94.3075C79.064 93.7159 79.064 93.1243 79.0676 92.5291V91.6542L79.064 91.2255L79.0569 90.8996L82.3668 90.8252C82.4486 90.7969 82.5161 90.7437 82.5126 90.7331C82.5019 90.7296 82.5481 90.7862 82.6335 90.8181C82.8006 90.8996 83.0743 90.9811 83.4192 91.0732C83.5898 91.1157 83.7818 91.1653 83.9809 91.2043C84.1978 91.2538 84.3897 91.2893 84.6315 91.3389L85.3568 91.4735L85.7478 91.5408L85.8438 91.5585H85.8687V91.562L85.8474 91.7321L85.794 92.3095C85.7656 92.7452 85.7372 93.181 85.7087 93.6202C85.6874 94.0595 85.6447 94.9451 85.6234 95.3879C85.0866 97.1379 84.8733 98.9658 84.8768 100.68C84.4893 100.471 83.9098 100.794 83.4654 100.744C83.021 100.695 82.6975 100.252 82.893 98.4415C82.7401 98.438 82.4273 98.4309 82.2744 98.4273C82.0611 99.3307 81.7696 100.092 81.4496 100.684C81.2896 100.981 81.1225 101.233 80.959 101.46C80.8772 101.57 80.7954 101.69 80.7172 101.8L80.6034 101.945C80.5857 101.966 80.5679 101.995 80.5537 101.998C80.5395 101.998 80.5146 101.98 80.4932 101.97C80.3261 102.08 80.1519 102.133 79.9742 102.119C79.9315 102.119 79.8853 102.108 79.8426 102.097L79.7751 102.08C79.7751 102.08 79.7538 102.069 79.7431 102.069L79.7111 102.097C79.6933 102.126 79.6649 102.122 79.64 102.097C79.6151 102.076 79.5902 102.055 79.5689 102.03C79.5227 101.98 79.4764 101.927 79.4338 101.856C79.256 101.552 79.1138 101.3 78.9858 100.957C78.8614 100.62 78.7619 100.223 78.6872 99.7487C78.5023 98.3742 78.4739 96.8899 78.5236 95.31C78.5485 94.52 78.5948 93.7123 78.6552 92.8728C78.6872 92.4512 78.7227 92.0261 78.769 91.5727C78.7938 91.3424 78.8187 91.1121 78.8543 90.8394C78.8756 90.6977 78.8934 90.5595 78.9325 90.3434C78.9538 90.2265 78.9716 90.1167 79.0463 89.8546L79.0818 89.7306L79.1351 89.5712C79.1885 89.4401 79.224 89.2984 79.448 88.9158C79.5156 88.8025 79.5902 88.6962 79.6684 88.5899L79.7857 88.4447C79.8355 88.388 79.8853 88.3313 79.9351 88.2782C80.0382 88.1684 80.1484 88.0692 80.2657 87.9735C80.3368 87.9168 80.3546 87.9027 80.4719 87.8177C80.6034 87.7256 80.7457 87.6405 80.8914 87.5661C81.1901 87.4138 81.5136 87.304 81.8335 87.2402C81.9758 87.2119 82.1855 87.1836 82.3917 87.1765C82.5979 87.1694 82.8148 87.18 83.0281 87.2119C83.2414 87.2438 83.4476 87.2934 83.6467 87.3571C83.8529 87.4245 84.0342 87.5095 84.1089 87.5484C84.3151 87.6512 84.5177 87.7787 84.7062 87.9204C84.7986 87.9912 84.891 88.0692 84.9728 88.1471C85.0652 88.2321 85.1399 88.3136 85.1577 88.3313C85.2892 88.4766 85.4136 88.6324 85.5203 88.7989L85.595 88.9194L85.6305 88.976L85.6945 89.0929C85.7372 89.1744 85.7763 89.2524 85.8118 89.3374L86.0927 89.9821L86.0998 90.5914C86.1033 90.8854 86.1069 91.1972 86.0998 91.4097L86.0927 92.1182L86.082 93.4962C86.082 94.4102 86.0962 95.3135 86.1389 96.2027C86.2456 99.8443 86.3309 103.504 85.9967 107.085C85.9683 107.383 85.9434 107.68 85.9149 107.978C85.9043 108.105 85.8936 108.205 85.8865 108.36L85.8687 108.835C85.8474 109.476 85.8403 110.086 85.8403 110.723C85.8403 111.988 85.8794 113.281 85.9149 114.588C85.986 117.199 86.0394 119.877 85.7692 122.47C85.7087 123.409 85.7869 124.712 85.7834 125.903C85.7834 126.505 85.7656 127.082 85.6838 127.642C85.6376 127.94 85.5985 128.18 85.4705 128.598C85.4492 128.659 85.4314 128.715 85.4101 128.776L85.3674 128.889L85.3141 129.024L85.2537 129.162C85.2145 129.243 85.1754 129.321 85.1328 129.399L85.0652 129.512L85.0297 129.569L84.9515 129.679C84.8448 129.824 84.7239 129.962 84.5995 130.079C84.4964 130.175 84.3506 130.295 84.212 130.384C84.0627 130.48 83.9347 130.547 83.7569 130.621C83.5614 130.699 83.3516 130.756 83.1454 130.788L82.9925 130.805L82.8894 130.813C82.829 130.813 82.765 130.813 82.7046 130.813C82.6477 130.813 82.5766 130.809 82.5304 130.802C82.605 130.805 82.6797 130.809 82.7543 130.805L82.8646 130.798H82.9179L82.9463 130.791C83.1774 133.069 82.6619 127.685 82.7152 128.237C82.7152 128.237 82.7152 128.234 82.7152 128.23C82.7046 128.216 82.7295 128.244 82.7401 128.241C82.7437 128.241 82.7863 128.248 82.8254 128.251C82.8646 128.255 82.9037 128.258 82.9392 128.251C82.9783 128.251 82.9997 128.241 83.1028 128.241C83.2663 128.237 83.4298 128.227 83.5863 128.212C84.0947 128.156 84.5995 128.099 85.1008 128.046L85.1826 128.035H85.2252V128.032H85.2181C85.2181 128.032 85.211 128.032 85.2074 128.042L85.1897 128.081C85.179 128.103 85.1683 128.145 85.1577 128.173C85.1363 128.234 85.1114 128.294 85.0866 128.343C85.0332 128.443 84.9692 128.517 84.8981 128.567C84.7559 128.666 84.5817 128.673 84.3897 128.652L84.3222 128.145V128.134L84.0129 128.163C83.9347 128.17 83.924 128.173 83.8885 128.177L83.7996 128.188C83.6787 128.202 83.5578 128.216 83.4369 128.223C83.3161 128.234 83.1952 128.237 83.0743 128.241C82.9997 128.241 82.9783 128.244 82.9534 128.248C82.925 128.248 82.9001 128.248 82.8717 128.248C82.8432 128.248 82.8148 128.244 82.7899 128.241L82.7508 128.234C82.7508 128.234 82.7401 128.234 82.7366 128.234C82.7259 128.234 82.7188 128.227 82.7081 128.219C82.7081 128.216 82.7117 128.227 82.7081 128.227C83.0068 131.425 82.765 129.119 82.8183 129.831H82.7259H82.6335C82.6264 129.831 82.5837 129.831 82.605 129.831H82.6441C82.6975 129.835 82.7508 129.835 82.8006 129.831H82.8823C82.925 129.821 82.9677 129.817 83.0103 129.81C83.1774 129.785 83.373 129.714 83.4903 129.654C83.6111 129.594 83.7285 129.516 83.8351 129.427L83.9098 129.36L83.9489 129.321L84.02 129.243C84.0662 129.19 84.1124 129.133 84.1515 129.073C84.2013 128.999 84.2049 128.992 84.2262 128.956L84.276 128.864C84.3506 128.715 84.3613 128.673 84.3897 128.595C84.4182 128.513 84.4324 128.467 84.4431 128.421L84.4786 128.28L84.5035 128.17C84.5568 127.886 84.5853 127.67 84.6066 127.461C84.6315 127.249 84.6457 127.047 84.6599 126.849C84.7168 126.055 84.7453 125.3 84.763 124.535C84.8021 123.008 84.7879 121.496 84.763 119.997C84.7844 116.324 84.6599 112.696 84.8413 109.15C84.5391 112.629 84.6919 116.264 84.763 119.997C84.7559 121.492 84.7204 122.994 84.6315 124.5C84.5888 125.254 84.5319 125.998 84.4537 126.771C84.4111 127.164 84.3684 127.539 84.276 128.01C84.2475 128.138 84.2226 128.262 84.1515 128.478L84.116 128.57C84.1018 128.602 84.0947 128.623 84.0662 128.687C84.0413 128.74 84.0129 128.793 83.9809 128.843C83.9738 128.857 83.9347 128.917 83.8991 128.963C83.8636 129.013 83.8245 129.059 83.7854 129.102L83.7214 129.169C83.6787 129.208 83.636 129.243 83.5898 129.279C83.4938 129.346 83.4049 129.403 83.2876 129.449C83.1561 129.502 83.0103 129.537 82.8681 129.551C82.8183 129.555 82.7792 129.555 82.7366 129.555H82.6726C82.6726 129.555 82.605 129.548 82.6512 129.555C82.701 129.555 82.7543 129.555 82.8041 129.555H82.8432C82.605 126.902 82.7792 128.815 82.7259 128.223C82.7259 128.223 82.7259 128.219 82.7259 128.216C82.7223 128.209 82.7259 128.216 82.7366 128.219C82.7437 128.223 82.7543 128.227 82.765 128.223C82.8041 128.23 82.8681 128.241 82.9214 128.237C82.9783 128.237 83.0068 128.227 83.1561 128.227C83.3943 128.219 83.6325 128.202 83.8671 128.166L83.956 128.152C83.9809 128.149 84.0982 128.138 84.0627 128.142V128.152C84.0627 128.152 84.0627 128.17 84.0627 128.191L84.0733 128.312L84.0982 128.581C83.7711 128.524 83.4263 128.471 83.1525 128.694C83.1525 128.694 83.2912 129.594 83.3587 130.044C82.8574 131.96 81.7162 131.652 80.8203 130.873C80.6319 130.667 80.4186 130.441 80.2017 130.182L80.1946 130.228Z" fill="#EF8D2B"/>
<path d="M100.243 113.221C100.427 113.178 100.612 113.136 100.794 113.093C104.118 112.232 107.271 110.964 110.979 110.224C113.592 109.802 116.468 108.959 119.06 108.47C115.971 108.917 112.846 109.629 109.767 110.397C106.681 111.166 103.641 111.995 100.626 112.65C101.05 112.069 101.633 111.531 102.436 111.23C102.93 111.077 103.424 110.925 103.915 110.776C104.409 110.635 104.9 110.489 105.39 110.348C106.365 110.047 107.349 109.799 108.32 109.519C108.366 109.668 108.459 109.958 108.501 110.103C111.153 109.041 113.88 108.527 116.596 108.095C119.323 107.666 122.025 107.305 124.834 106.596C124.621 106.536 124.727 106.398 124.759 106.295L124.798 106.288L124.759 106.295C124.788 106.203 124.759 106.139 124.397 106.178C124.756 106.139 124.788 106.203 124.759 106.295C121.943 106.695 119.27 107.167 116.6 107.684C113.934 108.205 111.274 108.778 108.54 109.459C112.76 108.321 116.924 107.333 121.19 106.593C123.33 106.228 125.474 105.93 127.753 105.757C128.037 105.735 128.339 105.721 128.634 105.704L129.402 105.668C129.911 105.64 130.419 105.608 130.927 105.58C131.987 105.505 133.054 105.434 134.124 105.36C134.5 105.335 135.276 105.296 135.67 105.282C137.263 105.679 138.859 105.852 140.441 105.973C140.217 106.345 140.466 106.94 140.381 107.379C140.295 107.825 139.904 108.077 138.404 107.879C138.401 108.031 138.393 108.343 138.39 108.495C139.869 108.913 140.79 109.763 140.978 110.489C141.177 111.233 140.644 111.857 139.304 112.08C137.785 112.3 136.097 112.335 134.113 112.434C133.093 112.484 132.047 112.53 131.002 112.579C130.462 112.608 129.925 112.64 129.388 112.668L128.983 112.696L128.641 112.728C128.421 112.75 128.197 112.778 127.966 112.813C126.629 112.98 125.246 113.217 123.867 113.426C122.484 113.653 121.094 113.83 119.679 113.961C117.731 114.106 115.718 114.482 113.724 114.925C112.721 115.127 111.733 115.382 110.734 115.583C109.749 115.817 108.757 116.005 107.78 116.182C106.368 116.49 104.203 117.812 103.371 117.649C102.813 117.642 102.667 117.344 102.603 116.976C104.822 116.136 107.051 115.332 109.305 114.698C112.092 113.993 114.915 113.44 117.759 113.139C114.947 113.313 112.113 113.894 109.305 114.698C107.033 115.258 104.793 115.948 102.561 116.671C102.521 116.345 102.472 116.009 102.223 115.785C102.223 115.785 101.547 116.069 101.21 116.207C99.5528 116.062 99.4426 114.939 99.8372 113.936C99.9545 113.717 100.083 113.472 100.239 113.217L100.243 113.221Z" fill="#EF8D2B"/>
<path d="M101.025 94.814C101.213 94.7715 101.398 94.7326 101.583 94.69C102.429 94.4775 103.25 94.2083 104.082 93.9568C104.918 93.7194 105.753 93.4573 106.596 93.188C107.019 93.057 107.438 92.9082 107.872 92.7913C108.306 92.6744 108.743 92.5539 109.184 92.437C109.625 92.3237 110.073 92.2068 110.524 92.0934C110.976 91.9801 111.434 91.8702 111.907 91.7923C114.563 91.3885 117.475 90.517 120.106 90.06C118.534 90.2549 116.966 90.5772 115.388 90.8819C114.595 91.0307 113.816 91.2397 113.031 91.4097C112.249 91.5975 111.452 91.7498 110.677 91.9659C109.12 92.3768 107.549 92.7275 106.016 93.1491C105.245 93.3475 104.473 93.5317 103.702 93.7017C102.941 93.9001 102.18 94.0843 101.416 94.2508C101.853 93.6804 102.44 93.1278 103.247 92.8019C105.273 92.2351 107.236 91.601 109.223 91.098C109.269 91.2468 109.358 91.5373 109.404 91.6825C110.08 91.4204 110.748 91.1618 111.431 90.9669C112.117 90.7721 112.8 90.5985 113.486 90.4391C114.851 90.0919 116.241 89.9113 117.613 89.6739C118.3 89.5499 118.993 89.4755 119.682 89.3693C120.372 89.2701 121.062 89.1496 121.752 89.0363C123.142 88.8379 124.525 88.5297 125.936 88.1932C125.723 88.1365 125.829 87.9948 125.858 87.8921L125.897 87.885L125.858 87.8921C125.886 87.8 125.858 87.7362 125.495 87.7787C125.854 87.7362 125.886 87.8 125.858 87.8921C120.216 88.6997 114.99 89.6739 109.44 91.0378C113.72 89.89 117.951 88.9087 122.267 88.1896C126.583 87.474 130.974 87.0064 135.542 86.9568C135.93 86.9568 136.712 86.9568 137.099 86.9568C138.657 87.4457 140.192 87.6476 141.76 87.7752C141.319 88.5262 142.706 90.1451 139.709 89.6562C139.702 89.8085 139.688 90.1167 139.681 90.2726C141.163 90.726 142.105 91.5621 142.297 92.2953C142.404 92.6638 142.311 93.0074 142.031 93.2837C141.75 93.56 141.273 93.7655 140.562 93.8753C138.966 94.0772 137.11 94.0347 135.151 94.0134C134.17 94.0241 133.167 94.0028 132.161 94.0666C131.66 94.0949 131.159 94.1162 130.661 94.1658C130.163 94.2224 129.669 94.2862 129.182 94.3677C126.345 94.7857 123.543 95.2958 120.681 95.5509C116.71 95.8272 112.579 97.0777 108.622 97.7578C107.915 97.9279 107.001 98.3352 106.166 98.6718C105.743 98.8347 105.348 99.0048 105.007 99.1217C104.662 99.235 104.37 99.2917 104.157 99.2527C103.592 99.2421 103.446 98.9481 103.382 98.5797C103.944 98.3636 104.505 98.1475 105.063 97.9349C105.625 97.7295 106.198 97.5488 106.766 97.354C107.901 96.9714 109.024 96.5782 110.176 96.2806L112.295 95.767C113.006 95.6146 113.724 95.4871 114.435 95.3489C115.857 95.0585 117.304 94.892 118.74 94.7219C117.322 94.8282 115.878 94.9699 114.456 95.2639C113.742 95.4021 113.024 95.5402 112.309 95.7067C111.598 95.8909 110.887 96.0822 110.172 96.2806C109.013 96.5428 107.883 96.8864 106.742 97.2194C106.173 97.3859 105.597 97.5453 105.031 97.7189L103.339 98.2786C103.3 97.9527 103.254 97.6197 103.005 97.3894C103.005 97.3894 102.319 97.6693 101.974 97.8074C100.296 97.6551 100.193 96.5321 100.598 95.5331C100.715 95.3171 100.851 95.0691 101.011 94.814H101.025Z" fill="#EF8D2B"/>
<path d="M64.9073 63.5234C64.758 63.4136 64.6122 63.3003 64.4558 63.1975C63.0337 62.2694 61.4694 61.568 59.8269 60.9304C58.1809 60.2963 56.4424 59.7578 54.615 59.145C52.0659 58.1991 48.9658 57.8059 46.2745 57.48C49.4457 58.022 52.6845 58.6419 55.7704 59.6197C58.8599 60.5726 61.7929 61.8868 64.2389 63.6191C63.535 63.7077 62.792 63.6616 62.024 63.364C60.25 62.4784 58.4048 61.7345 56.5206 61.1287C56.5632 60.98 56.6486 60.6859 56.6912 60.5407C53.8968 59.9881 51.2446 59.2406 48.5214 58.6632C45.8016 58.0893 43.0108 57.689 40.1133 57.9511C40.3124 58.0433 40.188 58.1637 40.1382 58.2593H40.0991H40.1382C40.0955 58.3444 40.1169 58.4152 40.4724 58.4294C40.1169 58.4152 40.0955 58.3479 40.1382 58.2593C42.961 58.3089 45.6879 58.5817 48.3649 59.0493C51.0456 59.5169 53.68 60.1794 56.3037 61.0614C52.2046 59.7649 47.9596 59.0493 43.6685 58.6951C41.5141 58.5179 39.3703 58.44 37.1589 58.4365C34.9476 58.4329 32.7007 58.4754 30.4254 58.5534C30.0379 58.5675 29.2628 58.5994 28.8753 58.6136C27.3075 58.2204 25.7396 58.1602 24.2109 58.2948C24.5344 57.5013 22.8279 56.0736 25.9991 56.148C25.9885 55.9957 25.9671 55.6875 25.9565 55.5316C24.3495 55.2483 23.187 54.6354 22.8101 53.9517C22.4368 53.2751 22.867 52.5206 24.4917 52.0813C26.3155 51.6314 28.4593 51.5145 30.6956 51.4862C32.9353 51.4578 35.264 51.511 37.518 51.3941C40.8066 51.2984 44.1769 51.3515 47.4299 52.0919C49.6661 52.6127 52.0055 53.0767 54.3199 53.6896C56.6308 54.2989 58.9203 55.0499 60.993 56.0736C61.377 56.2401 61.8427 56.396 62.3369 56.5696C62.8311 56.7432 63.3572 56.8884 63.8479 57.0762C64.3385 57.2568 64.8042 57.4375 65.1846 57.6182C65.5615 57.8095 65.8459 58.0043 65.9916 58.1956C66.4467 58.6455 66.3258 58.9501 66.0876 59.2477C63.6559 58.0574 61.1352 57.1187 58.6146 56.3004C55.5464 55.2022 52.4072 54.3378 49.236 53.5408C52.3183 54.4441 55.4682 55.2695 58.6146 56.3004C61.1068 57.186 63.5563 58.2204 65.885 59.4815C65.6646 59.7259 65.4441 59.9881 65.4584 60.3281C65.4584 60.3281 65.6397 60.4096 65.8672 60.5124C66.0947 60.6186 66.3614 60.7568 66.5391 60.8453C67.6235 62.2517 66.7205 63.0062 65.7037 63.364C65.4619 63.4172 65.1882 63.4809 64.9002 63.5305L64.9073 63.5234Z" fill="#EF8D2B"/>
<path d="M64.1321 80.2899C63.9757 80.2085 63.8086 80.1305 63.6451 80.0561C60.6054 78.7419 57.2741 78.1857 53.6763 77.1974C51.1663 76.418 48.1835 76.0957 45.606 75.7627C48.6421 76.3011 51.7707 76.8608 54.8246 77.5941C57.8714 78.3239 60.8685 79.2307 63.5029 80.5096C62.8451 80.7079 62.1057 80.8071 61.3129 80.6158C59.4464 80.0065 57.555 79.4858 55.6565 79.0394C55.6885 78.8871 55.7454 78.5896 55.7774 78.4372C53.0079 78.1184 50.3948 77.4737 47.7604 76.9281C46.445 76.6589 45.1224 76.4074 43.7857 76.2586C42.4489 76.0992 41.0944 76.0461 39.7576 76.163C39.939 76.2551 39.8216 76.3755 39.779 76.4712H39.7434H39.779C39.7399 76.5562 39.7576 76.6235 40.0812 76.6412C39.7576 76.6235 39.7399 76.5562 39.779 76.4712C42.3849 76.5491 45.0229 76.8856 47.6111 77.3143C50.2099 77.7535 52.7981 78.3132 55.4397 78.9863C51.3263 78.0369 47.1916 77.3568 43.0889 76.9459L41.5601 76.8112C41.0553 76.7794 40.5505 76.7439 40.0456 76.712C39.5479 76.6979 39.0786 76.6731 38.556 76.666C38.0369 76.6625 37.5143 76.6589 36.9917 76.6518C34.8941 76.6518 32.7646 76.6943 30.6101 76.7723C30.2439 76.7864 29.508 76.8183 29.1418 76.8325C27.6522 76.4393 26.1661 76.3826 24.712 76.5101C25.0142 75.7166 23.3859 74.289 26.3972 74.3669C26.3865 74.2146 26.3652 73.9064 26.3545 73.7505C24.8258 73.4672 23.7166 72.8472 23.3575 72.1635C22.9984 71.4869 23.4037 70.7359 24.9395 70.2966C26.6674 69.8468 28.7081 69.7299 30.8341 69.7015C32.9636 69.6696 35.1821 69.7228 37.3259 69.5988L38.4955 69.5669L39.0857 69.5563H39.7043C40.5398 69.5598 41.329 69.6059 42.129 69.659C43.711 69.7865 45.2611 69.9991 46.7756 70.3604C50.9317 71.3877 55.4894 72.0325 59.5033 73.538C60.2392 73.7718 61.288 73.9383 62.2372 74.1225C63.1864 74.3209 64.0361 74.5299 64.3526 74.8593C64.8361 75.2207 64.7685 75.543 64.5872 75.8725C62.1554 75.1534 59.7166 74.5901 57.3061 74.0269C54.366 73.2546 51.4152 72.5355 48.4466 71.7916C51.3334 72.6418 54.2949 73.329 57.3061 74.0269C59.6952 74.6574 62.0772 75.3269 64.4308 76.1346C64.2601 76.4145 64.0895 76.7085 64.1535 77.0415C64.1535 77.0415 64.8858 77.2328 65.2485 77.3497C66.4857 78.5222 65.7675 79.4327 64.8574 79.9711C64.637 80.0703 64.3881 80.1801 64.1215 80.2829L64.1321 80.2899Z" fill="#EF8D2B"/>
<path d="M64.164 98.4273C63.9933 98.3565 63.8227 98.2856 63.6556 98.2183C62.0806 97.6338 60.463 97.2016 58.792 96.7765C57.1282 96.3514 55.3862 95.9405 53.6619 95.3631C51.2337 94.4881 48.3042 94.1091 45.7729 93.7761C48.7592 94.3181 51.8132 94.9415 54.7711 95.8024C57.7717 96.6313 60.7687 97.5169 63.5205 98.6753C62.8414 98.8985 62.0664 99.026 61.2558 98.8489C59.336 98.2821 57.4268 97.7578 55.5284 97.2725C55.5675 97.1202 55.6421 96.8261 55.6777 96.6774C54.9702 96.5923 54.3338 96.4436 53.6725 96.3125C53.0184 96.1708 52.3713 96.0255 51.7278 95.8697C50.4409 95.565 49.1645 95.2391 47.8776 94.9557C45.3143 94.3889 42.687 93.9638 39.9921 94.2118C40.177 94.3039 40.0597 94.4244 40.0134 94.52H39.9743H40.0134C39.9743 94.605 39.9921 94.6759 40.3227 94.6936C39.9921 94.6759 39.9743 94.605 40.0134 94.52C42.6301 94.5838 45.1934 94.8813 47.7247 95.3383C50.2631 95.7988 52.7553 96.4365 55.3079 97.2158C51.3332 96.0893 47.3301 95.3489 43.302 94.9734C42.2959 94.8778 41.2898 94.8105 40.2872 94.7644C39.7824 94.7396 39.2882 94.729 38.7833 94.7184C38.2678 94.7148 37.7488 94.7077 37.2333 94.7042C35.157 94.7007 33.0488 94.7396 30.9157 94.8211C30.553 94.8353 29.8242 94.8672 29.4616 94.8813C27.9862 94.4917 26.5143 94.4314 25.0709 94.5625C25.3695 93.7655 23.7519 92.3449 26.7383 92.4158C26.7276 92.2634 26.7063 91.9553 26.6956 91.7994C25.1811 91.5195 24.079 90.8996 23.7199 90.2159C23.3644 89.5357 23.7626 88.7883 25.2842 88.349C26.9943 87.8991 29.0207 87.7787 31.1325 87.7504C33.2479 87.7185 35.4521 87.7751 37.5781 87.6547C39.1069 87.6016 40.7387 87.5874 42.3065 87.6972C43.8815 87.8035 45.4387 88.0196 46.9639 88.3844C49.0579 88.9087 51.2372 89.3693 53.3952 89.9254C54.4725 90.2017 55.5461 90.5064 56.5949 90.8465C57.6224 91.1547 58.6285 91.4841 59.5991 91.8561C61.0283 92.3272 63.7196 92.4477 64.3346 93.057C64.8039 93.3864 64.7399 93.7088 64.5657 94.0453C62.1695 93.4643 59.7733 92.9188 57.4126 92.3308L56.3354 92.0261L55.2439 91.6896C54.5151 91.477 53.7828 91.2609 53.0539 91.0448C51.5892 90.6268 50.1138 90.2265 48.6313 89.8333C50.0711 90.2797 51.5252 90.6977 52.9935 91.1122C53.7294 91.3212 54.4618 91.5266 55.2013 91.7356L56.3105 92.0509L57.4126 92.3308C59.7484 92.9897 62.0877 93.6344 64.4128 94.3145C64.2457 94.6015 64.0786 94.899 64.1426 95.2249C64.1426 95.2249 64.875 95.3844 65.2376 95.4658C66.4997 96.5321 65.8456 97.4921 64.9212 98.0802C64.6937 98.19 64.4413 98.314 64.164 98.4344V98.4273Z" fill="#EF8D2B"/>
<path d="M63.862 116.505C63.6949 116.437 63.5314 116.37 63.3678 116.303C60.2997 115.183 57.0822 114.698 53.6052 113.717C51.1877 112.941 48.3222 112.569 45.8478 112.154C51.6641 113.433 57.875 114.549 63.2576 116.767C62.6177 117.004 61.8817 117.149 61.0925 116.983C59.226 116.451 57.3666 115.977 55.5179 115.545C55.5464 115.392 55.6068 115.095 55.6352 114.942C52.9404 114.652 50.4162 113.979 47.8849 113.377C46.6192 113.075 45.35 112.792 44.0666 112.587C42.7903 112.388 41.4678 112.254 40.1985 112.314C40.3656 112.417 40.2483 112.53 40.1985 112.622H40.163H40.1985C40.1559 112.707 40.1701 112.774 40.4758 112.81C40.1701 112.778 40.1559 112.707 40.1985 112.622C41.418 112.714 42.705 112.891 43.96 113.083C45.222 113.281 46.477 113.508 47.7285 113.756C50.2349 114.255 52.7342 114.84 55.3046 115.491C51.2979 114.567 47.3161 113.823 43.3591 113.245C42.3743 113.104 41.386 112.973 40.4403 112.877L39.7399 112.81C39.5017 112.785 39.324 112.788 39.1142 112.774L38.8013 112.76H38.4281L37.6779 112.746C35.6728 112.728 33.6499 112.767 31.5985 112.849C31.2501 112.863 30.5497 112.895 30.2013 112.912C28.7792 112.523 27.3571 112.47 25.9564 112.601C26.2408 111.804 24.6694 110.383 27.5598 110.454C27.5491 110.302 27.5242 109.993 27.5136 109.838C26.0453 109.561 24.9787 108.938 24.6303 108.251C24.2854 107.57 24.6658 106.827 26.127 106.387C27.7731 105.937 29.7391 105.81 31.794 105.778C33.8525 105.746 35.9963 105.81 38.0548 105.7C38.4387 105.693 38.7836 105.675 39.1995 105.675L39.8679 105.689C40.0919 105.696 40.3159 105.704 40.5043 105.718L41.6882 105.806L42.8223 105.934C44.319 106.125 45.7731 106.398 47.1952 106.795C51.0952 107.928 55.4042 108.594 59.2047 109.983C60.5983 110.415 63.1865 110.479 63.8051 111.081C64.2708 111.407 64.2246 111.733 64.0682 112.073C61.7431 111.527 59.4144 111.042 57.1213 110.521C54.3234 109.795 51.5254 109.069 48.7275 108.265C51.4437 109.175 54.2558 109.873 57.1213 110.521C59.3967 111.113 61.672 111.701 63.9331 112.346C63.7838 112.636 63.6345 112.941 63.7127 113.267C63.7127 113.267 64.4202 113.415 64.7757 113.49C66.0307 114.549 65.4334 115.527 64.573 116.129C64.3597 116.242 64.1251 116.373 63.8655 116.497L63.862 116.505Z" fill="#EF8D2B"/>
</g>
<defs>
<clipPath id="clip0_148_518">
<rect width="166.81" height="152" fill="white"/>
</clipPath>
</defs>
</svg>
