<svg width="125" height="140" viewBox="0 0 125 140" fill="none" xmlns="http://www.w3.org/2000/svg">
<path fill-rule="evenodd" clip-rule="evenodd" d="M91.1161 11.4143C90.6231 11.3966 90.1299 11.3792 89.6375 11.3619L89.6359 11.3618C89.0224 11.3402 88.4103 11.3186 87.8018 11.2965C77.9814 11.0743 68.1657 11.1596 58.0952 11.2965C53.5713 11.3613 48.9959 11.4261 44.3451 11.492L42.7635 11.5144C40.1654 11.5409 37.5424 11.5674 34.8924 11.5939C34.7261 11.5954 34.5598 11.5965 34.3934 11.5976C34.228 11.5987 34.0624 11.5998 33.8965 11.6013L33.3974 11.6042H33.0482C32.9026 11.6013 32.7565 11.598 32.6102 11.5947C32.4614 11.5914 32.312 11.588 32.1632 11.5851L32.1299 11.5843C31.8376 11.5772 31.5432 11.57 31.25 11.5615L30.7816 11.5483L30.5444 11.5409L30.4252 11.538H30.3651L30.3356 11.535H30.3131C30.3123 11.5361 30.3127 11.5387 30.3129 11.5406L30.3131 11.5424C30.2973 11.9 30.2806 12.2682 30.2637 12.6385L30.2577 12.7716C30.2211 13.3133 30.1869 13.8815 30.1539 14.4689C30.1468 14.6175 30.1385 14.7662 30.1303 14.9148L30.1244 15.0283L30.1208 15.0857L30.1173 15.2034L30.1043 15.6745C30.0972 15.966 30.0898 16.2581 30.0823 16.5509L30.0821 16.56C30.0737 16.8925 30.0652 17.2261 30.0571 17.5602C29.9993 20.0775 29.9651 22.608 29.9969 25.1341C30.0264 27.6617 30.1137 30.1878 30.2884 32.6918C30.4736 35.1914 30.7509 37.6674 31.1497 40.0846L31.3019 40.9899C31.3124 41.0477 31.3219 41.106 31.3315 41.1642C31.3468 41.2572 31.3621 41.3505 31.381 41.4419L31.7444 43.2231L31.7892 43.4454L31.8423 43.6824C32.1243 44.9513 32.4051 46.207 32.6918 47.4494C33.2676 49.9269 33.8623 52.3456 34.5443 54.6464C35.218 56.9547 35.9861 59.1422 36.8534 61.2016C36.9135 61.3378 36.9729 61.4746 37.0324 61.6112C37.1944 61.984 37.3562 62.3562 37.5306 62.7149C37.6557 62.9828 37.7808 63.2508 37.9047 63.5187L37.9304 63.575C38.0079 63.7444 38.0851 63.913 38.1583 64.084L38.3896 64.6625C38.6834 65.4398 38.9123 66.2303 39.0893 66.9516C39.2174 67.4748 39.3202 67.9579 39.4119 68.3892L39.4122 68.3905C39.4471 68.5545 39.4804 68.711 39.5129 68.8594C39.4839 68.7188 39.4541 68.571 39.4231 68.4165L39.4228 68.4153C39.3252 67.9297 39.2144 67.3787 39.0704 66.7793C38.8805 65.9903 38.6244 65.1277 38.2964 64.3033C38.2185 64.0943 38.13 63.8911 38.0404 63.6909L37.8032 63.1624L37.4445 62.369C37.3668 62.2031 37.2958 62.0314 37.2248 61.8597L37.2244 61.8587C37.1833 61.7595 37.1423 61.6603 37.1 61.5623L37.0434 61.4281C36.9486 61.2036 36.8536 60.9788 36.7661 60.7467L36.4428 59.9209L36.136 59.0803C36.0367 58.8173 35.9458 58.5476 35.8545 58.2764L35.8387 58.2295C35.8048 58.1279 35.7701 58.0272 35.7354 57.9265C35.672 57.7428 35.6087 57.559 35.5508 57.3698C35.1732 56.2171 34.831 55.0307 34.4995 53.8294C34.1726 52.6223 33.867 51.3931 33.5697 50.1463C33.2771 48.8935 32.9915 47.629 32.7143 46.3454L32.2978 44.4096L32.0901 43.4351L31.9119 42.5209C31.663 41.3182 31.4718 40.0846 31.2878 38.8466C30.9291 36.3676 30.712 33.8194 30.5645 31.2418C30.4193 28.6627 30.3568 26.0468 30.3415 23.4044C30.3273 20.7606 30.3651 18.0873 30.4075 15.3904C30.4232 14.7965 30.4386 14.2026 30.454 13.6088L30.4541 13.6037C30.47 12.9924 30.4858 12.3813 30.5019 11.7705V11.7632H30.7061L30.9161 11.7661L31.3338 11.7691L32.1597 11.7764L32.9715 11.7867L33.1721 11.7897L34.6233 11.7764C35.9445 11.7674 37.2646 11.758 38.5834 11.7486L38.5967 11.7485C39.8529 11.7395 41.1079 11.7306 42.3612 11.722C47.5103 11.6955 52.637 11.6911 57.7283 11.7176C67.9109 11.7691 77.9519 11.9443 87.7451 12.3093C84.1228 13.1808 79.789 13.9139 74.7319 14.0449C62.5565 14.0537 50.5415 14.1509 38.6268 14.3128C38.6209 13.9801 38.6103 13.3324 38.6055 13.0056C37.2097 13.0769 35.8179 13.1473 34.4301 13.2175L33.0907 13.2853C32.7644 13.3202 32.4486 13.3454 32.1417 13.3699C32.0346 13.3785 31.9284 13.387 31.8234 13.3957C31.834 13.9124 31.834 14.407 31.8281 14.9031L31.8034 17.5735C31.7931 18.5604 31.7891 19.5349 31.7851 20.5078L31.7833 20.9284C31.7774 25.3638 31.8435 29.6873 32.175 33.8547L32.234 34.6379L32.3107 35.4107C32.3297 35.5947 32.3474 35.7795 32.3651 35.9642C32.3966 36.2949 32.4283 36.6264 32.4677 36.952L32.7048 38.8539L32.8783 39.9757L32.9927 40.7249C33.0155 40.8867 33.046 41.0437 33.0765 41.2004C33.0935 41.2876 33.1105 41.3746 33.126 41.4625L33.4021 42.936C33.498 43.3955 33.5936 43.8547 33.6892 44.3138L33.6922 44.3281C33.8204 44.9438 33.9485 45.5592 34.077 46.1746C34.5301 48.3076 34.9879 50.3936 35.5012 52.3956C36.0145 54.3991 36.5726 56.3349 37.218 58.1794L37.5896 59.2084L37.7206 59.5441L37.9814 60.2168C38.0367 60.3585 38.0952 60.4972 38.1539 60.636C38.1878 60.7164 38.2218 60.7968 38.2551 60.8778C38.2892 60.9574 38.3225 61.0381 38.3558 61.1188C38.4136 61.2588 38.4715 61.399 38.5336 61.5343L38.8238 62.1791L39.2262 63.0785C39.3111 63.267 39.3866 63.4613 39.4622 63.6556C39.4809 63.7047 39.5001 63.7539 39.5193 63.803L39.5197 63.8041L39.5201 63.8051C39.5766 63.9497 39.6331 64.0944 39.6804 64.24C40.18 65.6483 40.4602 67.0248 40.6573 67.993C40.6809 68.1088 40.7032 68.2187 40.7246 68.3221C40.8249 68.8138 40.9123 69.1891 40.996 69.4968L41.0586 69.7161L41.1235 69.9119C41.1357 69.9568 41.1514 69.9955 41.1671 70.034C41.1756 70.0549 41.184 70.0757 41.1919 70.0974C41.1969 70.111 41.2019 70.1247 41.2068 70.1385C41.2237 70.1858 41.2411 70.2342 41.2639 70.2785C41.2898 70.3374 41.3158 70.3962 41.3394 70.4566L41.5411 70.8923C41.6733 71.1838 41.7995 71.4694 41.9187 71.7447L42.5712 73.2786C42.7706 73.7467 42.957 74.1721 43.134 74.5431C43.2225 74.7271 43.3086 74.9038 43.3936 75.0657L43.4276 75.1298C43.4587 75.1884 43.4896 75.2469 43.5198 75.2998L43.7322 75.6796C43.9143 76.0132 44.0524 76.2868 44.1885 76.5562L44.2089 76.5967C44.3493 76.8778 44.4779 77.1428 44.6042 77.4063C44.8555 77.9304 45.0938 78.4382 45.3286 78.9417L45.836 80.0345C46.1272 80.6617 46.4185 81.2892 46.7103 81.9168C47.6224 83.8761 48.5356 85.8075 49.4748 87.6859C49.9433 88.625 50.4188 89.5495 50.9002 90.449C51.3816 91.3469 51.8701 92.2228 52.3597 93.0339C52.4824 93.2371 52.604 93.4358 52.7255 93.6272L52.9072 93.9113L52.9296 93.9466L52.9461 93.9702L52.965 93.9982C52.9675 94.002 52.9702 94.0057 52.9729 94.0092C52.9767 94.0143 52.9808 94.0192 52.9848 94.0241C52.99 94.0304 52.9954 94.0369 53.0004 94.0438C53.0889 94.1689 53.1833 94.2852 53.2789 94.3941C53.3756 94.5031 53.4771 94.6047 53.5892 94.6812C53.6458 94.7195 53.706 94.7504 53.7709 94.7622C53.8135 94.768 53.8571 94.7617 53.9004 94.7554C53.923 94.7522 53.9457 94.749 53.9679 94.7474L54.3514 94.6959L54.3986 94.6886L54.4222 94.6856H54.434C54.434 94.6856 54.4387 94.6827 54.4481 94.6827H54.4706L55.5183 94.6385C56.0057 94.6162 56.4937 94.5942 56.9821 94.5723L56.9869 94.572L56.9967 94.5716C57.4365 94.5518 57.8767 94.532 58.3171 94.5119C57.3247 94.3675 57.636 94.159 57.9159 93.9714C57.9755 93.9315 58.0337 93.8925 58.0775 93.8554C58.1613 93.8554 58.2404 93.8554 58.3171 93.8539C58.2404 93.8539 58.1601 93.8539 58.0775 93.8554L58.0707 93.8554C57.142 93.8642 56.2146 93.873 55.2894 93.8804L54.5933 93.8863H54.4352L54.4057 93.8892L54.3467 93.8922L54.1107 93.9025C54.0305 93.9187 53.9538 93.8745 53.8912 93.8171C53.8275 93.7611 53.7709 93.692 53.7154 93.6213C53.6784 93.575 53.6453 93.5263 53.6117 93.4766L53.6106 93.4749C53.6004 93.4599 53.5901 93.4447 53.5797 93.4296C53.5723 93.4189 53.5649 93.4082 53.5573 93.3976L53.4146 93.1694L53.2423 92.8853C53.1371 92.7098 53.0318 92.5294 52.9257 92.3475L52.9243 92.3451L52.8942 92.2935C52.427 91.4809 51.9562 90.6109 51.4913 89.7144C51.0252 88.8179 50.5639 87.8949 50.1061 86.9587C49.1893 85.0847 48.2914 83.1607 47.3852 81.2043L47.3643 81.1592C46.9111 80.182 46.4579 79.2049 46.0059 78.2292C45.7688 77.7228 45.5292 77.212 45.2685 76.6762C45.1399 76.4097 45.003 76.1315 44.8543 75.8385L44.7399 75.6133L44.6148 75.3734L44.4744 75.1113L44.308 74.814L44.1865 74.5961L44.0709 74.3768C43.9918 74.2222 43.9104 74.0588 43.8254 73.8777C43.6555 73.5171 43.4715 73.1005 43.2709 72.6323L43.1886 72.4404L43.0983 72.2291C42.9448 71.8696 42.7802 71.4842 42.5995 71.0749C42.4733 70.7908 42.3423 70.4978 42.2007 70.1946L42.0933 69.9664L42.0686 69.9134L42.0473 69.8604C42.0273 69.8133 42.006 69.7677 41.9836 69.722C41.9105 69.5336 41.8397 69.3378 41.7641 69.0684C41.6886 68.799 41.6037 68.4237 41.4975 67.9202C41.4733 67.8075 41.4483 67.6886 41.422 67.5636C41.3305 67.1285 41.2231 66.6178 41.0774 66.0315C40.8922 65.2852 40.6503 64.4564 40.3483 63.6306L40.3171 63.5503C40.1683 63.166 40.0189 62.7805 39.8468 62.4117L39.4645 61.5755L39.1766 60.9528L38.9029 60.3154C38.5347 59.469 38.202 58.5843 37.8728 57.6922C37.2321 55.8918 36.6646 54.0002 36.1431 52.0276C35.6227 50.0535 35.1508 47.9926 34.6847 45.8758L33.9909 42.6593C33.9377 42.3752 33.8822 42.0927 33.8267 41.8101C33.6937 41.1337 33.5607 40.457 33.46 39.7593L33.342 39.0247C33.3378 38.9974 33.3334 38.9702 33.3289 38.9429L33.3172 38.8721C33.3053 38.8006 33.2933 38.7289 33.283 38.6567L33.2346 38.2813L33.0399 36.7827C33.0017 36.4631 32.9692 36.1405 32.9367 35.8176C32.918 35.6321 32.8992 35.4458 32.8794 35.2606L32.8016 34.498L32.7414 33.7237C32.4016 29.6063 32.3355 25.3122 32.3638 20.8975C32.3668 20.6191 32.3695 20.3403 32.3721 20.0614C32.3748 19.7857 32.3774 19.5099 32.3803 19.234L32.4051 17.5558L32.4334 15.8659L32.4417 15.4405L32.4452 15.2285L32.4476 15.1225C32.4476 15.1044 32.4476 15.1032 32.448 15.1023C32.4482 15.1019 32.4485 15.1016 32.4488 15.1004V15.0945C32.4511 15.0771 32.4523 15.06 32.4535 15.043C32.4547 15.0258 32.4558 15.0085 32.4582 14.9915C32.4842 14.7221 32.5113 14.4762 32.5361 14.2569C32.7402 14.2775 32.9349 14.3055 33.106 14.332L33.1697 14.3423L33.2016 14.3482L33.2169 14.3511H33.3455L37.2699 14.3246C36.8351 14.3305 36.4003 14.3368 35.9657 14.3431L35.9634 14.3431L35.9616 14.3431C35.5321 14.3494 35.1019 14.3556 34.6729 14.3614L33.3762 14.3806L33.2193 14.3835H33.2051L33.1756 14.3791L33.1154 14.3732L33.0909 14.3712C32.9362 14.3585 32.7702 14.3449 32.601 14.3379L32.5774 14.7147L32.5656 14.9134L32.5597 15.015C32.5597 15.0239 32.5591 15.0323 32.5585 15.0408C32.5579 15.0492 32.5573 15.0577 32.5573 15.0665V15.093C32.5573 15.0963 32.5571 15.0973 32.5567 15.0987C32.5563 15.1006 32.5556 15.1032 32.555 15.1122V15.2358C32.5196 17.8664 32.4901 20.4558 32.5113 22.9952C32.5314 25.536 32.5939 28.0341 32.7272 30.4807C32.8582 32.9288 33.0824 35.3136 33.3974 37.6321L33.5154 38.5021C33.5413 38.6893 33.5726 38.8721 33.6039 39.055C33.6211 39.1554 33.6384 39.2563 33.6546 39.3574L33.867 40.6366L33.952 41.0532L34.293 42.7402L34.7083 44.626C35.2617 47.1256 35.8186 49.5339 36.4333 51.8348C36.7425 52.98 37.0658 54.0988 37.4079 55.1867C37.7572 56.2657 38.1147 57.3286 38.51 58.3443C38.9052 59.36 39.3158 60.3552 39.7701 61.3032L39.9377 61.6624L40.2373 62.3175C40.3471 62.5545 40.445 62.8003 40.5418 63.0461L40.6869 63.4156L40.8179 63.7851C41.1671 64.7729 41.4208 65.7518 41.6037 66.5541C41.6964 66.9613 41.7733 67.3213 41.8398 67.6332C41.9054 67.9404 41.961 68.2008 42.0119 68.4134C42.1146 68.8461 42.1901 69.1023 42.2656 69.304C42.2786 69.335 42.2909 69.3659 42.3031 69.3965C42.3296 69.4632 42.3556 69.5285 42.3871 69.591L42.4025 69.6264L42.4155 69.6587L42.432 69.6926L42.5594 69.962L42.8025 70.4875C43.0279 70.9865 43.2306 71.4571 43.4161 71.8877C43.4839 72.0453 43.5495 72.1976 43.6131 72.3438C43.8479 72.887 44.0591 73.364 44.2467 73.7482C44.3411 73.9425 44.4307 74.1147 44.5145 74.2708L44.6573 74.5254L44.6821 74.5694C44.7423 74.676 44.8052 74.7875 44.8508 74.8729L45.0124 75.1746C45.2118 75.5544 45.3747 75.8812 45.5328 76.2036L45.9788 77.1296L46.8083 78.8946C47.0018 79.3108 47.1941 79.7247 47.3853 80.1365C48.2546 82.0085 49.1032 83.836 49.9669 85.6279C50.4919 86.7187 51.0205 87.7933 51.5527 88.8356C52.0848 89.8763 52.6217 90.8891 53.1526 91.8224C53.2848 92.0565 53.4169 92.2832 53.5479 92.5025L53.7426 92.8249L53.8924 93.0663C53.929 93.1208 53.9656 93.1738 54.0057 93.2224C54.0458 93.271 54.0871 93.3181 54.1355 93.3519C54.1709 93.3793 54.2118 93.3765 54.2521 93.3738C54.2681 93.3727 54.284 93.3717 54.2995 93.3725L54.3833 93.3696H54.4246L54.7408 93.3666L70.064 93.3037C70.59 92.8338 71.1488 92.4211 71.7291 92.0609L72.1444 91.8092L72.4453 91.6325L72.6647 91.5015L72.7568 91.4456L72.8323 91.3955C73.027 91.266 73.1851 91.1497 73.3845 90.9819L73.9674 90.4637L74.1597 90.2767C74.2122 90.2245 74.2656 90.1738 74.3191 90.123C74.395 90.0509 74.4715 89.9781 74.5455 89.9014L74.9243 89.5039C75.4234 88.9577 75.9177 88.3895 76.3873 87.7565C78.2811 85.2569 79.9318 82.1258 81.3264 78.6546C82.727 75.1835 83.8951 71.3943 84.8933 67.4447C85.1446 66.4584 85.383 65.4589 85.6142 64.4505C85.7299 63.9471 85.8431 63.4407 85.954 62.9313C86.0535 62.4847 86.152 62.0184 86.2479 61.5643L86.2844 61.3915C86.4992 60.3684 86.6997 59.363 86.8814 58.3693L87.0148 57.6259L87.0773 57.2638L87.1257 56.9635C87.1894 56.5454 87.2519 56.1023 87.3133 55.6003C87.3947 54.9129 87.4962 54.0532 87.6071 53.1081C87.6401 52.8431 87.6743 52.5708 87.7086 52.294C87.7274 52.1527 87.7463 52.0085 87.7652 51.8642C87.7793 51.7656 87.7934 51.6658 87.8074 51.5659L87.8289 51.4137C87.8596 51.1863 87.8986 50.9408 87.9374 50.6963C87.9493 50.6212 87.9612 50.5461 87.9729 50.4716L87.9875 50.386C88.011 50.2493 88.0346 50.1117 88.059 49.974L88.1026 49.7253L88.1522 49.4662L88.2537 48.948L88.3705 48.4136C88.4071 48.2385 88.4531 48.053 88.4991 47.8704L88.4994 47.8692C88.5406 47.7032 88.5818 47.5373 88.623 47.3729L88.7658 46.8017L88.7906 46.6946C88.8268 46.5389 88.8624 46.3859 88.8979 46.235C89.0666 45.4871 89.1988 44.7688 89.2991 44.1888C89.587 43.0921 89.8359 41.9365 90.0507 40.7485C90.1592 40.1553 90.2572 39.5532 90.3492 38.9437C90.394 38.6392 90.4389 38.3341 90.4802 38.0251L90.5415 37.5629L90.571 37.3303L90.5852 37.214L90.5922 37.1566L90.5958 37.1272L90.5982 37.1095L90.6029 37.058C90.6536 36.5619 90.7197 36.0702 90.8105 35.5859L90.8813 35.2238L90.9509 34.8999C90.9608 34.8546 90.97 34.8146 90.979 34.7764C90.9846 34.7529 90.9901 34.73 90.9956 34.707C91.0026 34.6779 91.0097 34.6485 91.017 34.6173L91.0796 34.3655C91.1598 34.0505 91.2235 33.8179 91.266 33.6663C91.3073 33.5206 91.3285 33.4558 91.3403 33.447H91.3427L91.3438 33.4455L91.3802 33.4512L91.3781 33.3984C91.3273 32.4209 91.3332 31.4376 91.4784 30.4778L91.5574 29.9478L91.6164 29.5872L91.7261 28.9453C91.8005 28.5199 91.8772 28.0974 91.955 27.6779C92.1108 26.8403 92.2724 26.0144 92.4376 25.2018L92.6866 23.9903L92.7314 23.7783C92.7339 23.7653 92.737 23.7543 92.7403 23.743C92.7447 23.7276 92.7493 23.7114 92.7527 23.6885L92.7739 23.5781L92.7951 23.4412C92.8421 23.1225 92.8756 22.6267 92.9218 21.9425L92.9222 21.9364C92.934 21.7627 92.9465 21.5769 92.9603 21.3788C92.9969 20.8857 93.0465 20.3204 93.1302 19.6992C93.1703 19.393 93.2234 19.0618 93.2836 18.732L93.3839 18.2256C93.1824 18.1577 94.4262 18.5623 94.9234 18.7241C95.18 18.8075 95.2377 18.8263 94.7951 18.682L94.6606 18.6334L94.4812 18.5701L94.1225 18.4464C93.883 18.3655 93.6435 18.2875 93.4028 18.2124C93.3816 18.2065 93.3851 18.2065 93.3851 18.2065V18.1991L93.3875 18.1903L93.39 18.1824C93.3911 18.1793 93.3923 18.176 93.3934 18.1741C93.394 18.1717 93.3946 18.1706 93.3953 18.1695C93.3971 18.1664 93.399 18.163 93.4016 18.1329L93.4264 17.9533L93.4523 17.7737C93.4577 17.7324 93.4631 17.6803 93.4685 17.6283C93.4714 17.6007 93.4743 17.573 93.4771 17.547L93.5267 17.0759L93.5703 16.5578L93.5928 16.2972L93.6494 15.4817L93.7143 14.3658C93.7532 13.6121 93.7863 12.8496 93.8134 12.0812C94.119 12.776 94.5355 12.6317 94.9721 12.3564C95.051 12.3064 95.1306 12.2519 95.2102 12.1973C95.5681 11.9522 95.926 11.707 96.231 11.8648C96.6015 12.0561 96.9083 12.8584 96.9956 14.9871C97.0168 15.5185 97.0216 16.1309 97.0051 16.8301L97.0011 16.9472C96.9907 17.2603 96.9795 17.5952 96.9543 17.9312L96.9476 18.0314C96.937 18.1921 96.9258 18.3597 96.9083 18.5142C96.9043 18.5545 96.9001 18.5953 96.8959 18.6364L96.8958 18.6381C96.89 18.694 96.8842 18.7506 96.8788 18.8071C96.8765 18.8258 96.8746 18.8454 96.8727 18.8648C96.8697 18.8959 96.8666 18.9266 96.8623 18.9528L96.8565 18.9884L96.8514 19.021C96.8484 19.0404 96.8455 19.06 96.8422 19.0794C96.8292 19.1648 96.8163 19.2517 96.8033 19.34C96.7773 19.4813 96.7514 19.6241 96.7254 19.7684C96.6794 20.0569 96.6381 20.3498 96.6074 20.6457C96.5453 21.221 96.5113 21.8004 96.4779 22.3677L96.4703 22.496C96.4379 23.0446 96.4058 23.5879 96.3384 24.0963C96.3219 24.2317 96.3006 24.3627 96.2794 24.4938C96.2731 24.5388 96.2648 24.5811 96.2564 24.6235C96.2522 24.6448 96.2479 24.6665 96.244 24.6881C96.2361 24.7267 96.2286 24.7653 96.221 24.8041C96.215 24.8349 96.209 24.8659 96.2027 24.8971C96.1343 25.2269 96.0647 25.564 95.9939 25.9084L97.0239 26.197C97.0722 26.0017 97.1205 25.8079 97.1686 25.615L97.2741 25.1915C97.3531 24.8721 97.4251 24.56 97.4805 24.2361C97.5695 23.7359 97.6336 23.2276 97.697 22.7238C97.7152 22.5798 97.7333 22.4361 97.7519 22.293C97.8333 21.6497 97.9289 21.0182 98.0705 20.4235C98.1091 20.254 98.1553 20.0929 98.2015 19.9316C98.2371 19.8073 98.273 19.6821 98.3053 19.5534C98.365 19.3487 98.4101 19.1439 98.455 18.9402C98.4739 18.8541 98.493 18.7676 98.513 18.682C98.6994 17.7966 98.8505 16.9416 98.9949 16.1242C99.0387 15.876 99.0819 15.6314 99.1253 15.3904L99.1827 15.0678C99.3452 14.1534 99.4984 13.2913 99.6516 12.486C99.989 10.6871 100.316 9.16938 100.638 7.96521C100.959 6.75958 101.274 5.87191 101.578 5.30369C101.883 4.77521 102.186 4.59856 102.477 4.80612C102.551 4.85765 102.623 4.9342 102.693 5.03577C102.764 5.14029 102.835 5.25364 102.905 5.42145C102.973 5.58338 103.041 5.78064 103.106 5.99262C103.171 6.2046 103.235 6.44455 103.296 6.70953C103.541 7.76648 103.752 9.23709 103.9 11.1861C103.975 12.1607 104.031 13.2544 104.062 14.4895C104.077 15.0343 104.083 15.6126 104.083 16.2224C104.127 16.2166 104.173 16.2111 104.219 16.2059C105.348 16.1117 106.576 16.1087 107.947 16.2663C108.286 16.3016 108.643 16.3575 108.998 16.4135C109.363 16.4797 109.726 16.5474 110.109 16.6402C110.869 16.8212 111.66 17.0479 112.506 17.385C113.349 17.7192 114.236 18.1491 115.155 18.7349C116.072 19.3208 117.022 20.0701 117.929 21.0343C118.835 21.9941 119.687 23.1747 120.372 24.482L120.393 24.5245C120.551 24.8389 120.711 25.1564 120.86 25.4874C121.011 25.8407 121.157 26.1969 121.298 26.5561C121.426 26.9227 121.55 27.2922 121.67 27.6646C121.784 28.0385 121.887 28.4183 121.987 28.7996C122.175 29.5621 122.302 30.3497 122.368 31.1446C122.385 31.3433 122.399 31.5435 122.41 31.7423L122.436 32.2663C122.444 32.4224 122.448 32.4974 122.452 32.5475C122.452 32.5658 122.46 32.6282 122.469 32.6956C122.473 32.7259 122.478 32.7572 122.481 32.786C122.487 32.8467 122.499 32.9195 122.511 32.994C122.517 33.0297 122.523 33.0657 122.528 33.101C122.539 33.177 122.558 33.2698 122.577 33.3641C122.584 33.3977 122.59 33.4314 122.597 33.4646C122.612 33.5496 122.636 33.6553 122.66 33.7618C122.67 33.8029 122.679 33.844 122.688 33.8841C122.761 34.2063 122.855 34.5782 122.964 35.009C123.058 35.3795 123.162 35.7936 123.274 36.2571C123.513 37.2508 123.776 38.508 123.922 39.927C123.992 40.7043 124.029 41.5198 124.008 42.3442L124.008 42.3458C123.996 42.7574 123.984 43.1706 123.946 43.5749L123.852 44.5877L123.615 47.1947C123.534 48.0632 123.449 48.9303 123.359 49.7959L123.221 51.0943C123.207 51.24 123.182 51.4339 123.156 51.6256C123.147 51.6934 123.139 51.7609 123.13 51.8259L123.026 52.5943L122.919 53.3613C122.91 53.4241 122.901 53.4868 122.892 53.5494C122.865 53.7424 122.837 53.9349 122.8 54.1282C122.707 54.6405 122.612 55.1513 122.514 55.6621C122.502 55.7261 122.49 55.7901 122.477 55.8541C122.441 56.0448 122.404 56.2355 122.363 56.4262L122.183 57.1887C122.06 57.6966 121.935 58.203 121.808 58.7064C121.674 59.1775 121.53 59.6474 121.387 60.1159L121.359 60.2079L121.127 60.9543C121.073 61.1192 121.013 61.2829 120.954 61.4465C120.924 61.5282 120.894 61.6099 120.865 61.6918C120.685 62.182 120.503 62.6678 120.317 63.1521C120.141 63.5793 119.952 64.0019 119.765 64.4219C119.742 64.4736 119.719 64.5254 119.696 64.5771C118.5 67.1517 117.117 69.6837 115.517 72.0302C113.921 74.3767 112.109 76.5304 110.144 78.3705C108.18 80.2121 106.063 81.7268 103.902 82.8957C101.741 84.066 99.5333 84.8859 97.3634 85.3658C97.1268 85.4292 96.8794 85.5076 96.6224 85.5891C96.4553 85.6421 96.284 85.6963 96.1092 85.7486C95.8874 85.8192 95.6608 85.8943 95.4296 85.9738C95.3733 85.9931 95.3169 86.0128 95.2602 86.0326C95.0839 86.094 94.9055 86.1562 94.7252 86.2108C94.5103 86.2778 94.2931 86.3496 94.0744 86.4219C93.8079 86.51 93.5393 86.5987 93.2703 86.6804C93.1785 86.7072 93.0867 86.734 92.9949 86.7609C92.597 86.8773 92.2 86.9935 91.8108 87.0999C91.6046 87.1539 91.4003 87.2044 91.199 87.2512C90.5587 88.7069 89.8671 90.1491 89.115 91.5692C87.5823 94.4589 85.7877 97.2647 83.6438 99.7908C82.5736 101.052 81.4161 102.242 80.1749 103.316L80.117 103.368L80.0498 103.425L79.9117 103.54L79.6356 103.768C79.4781 103.896 79.313 104.021 79.1495 104.145L79.0563 104.216L78.949 104.293C78.7862 104.41 78.6209 104.529 78.4604 104.635L78.1655 104.831L77.8894 105.006L77.4115 105.299L77.2322 105.41L77.1177 105.483L77.0894 105.501L77.0884 105.503L77.087 105.505C77.087 105.508 77.0857 105.509 77.0845 105.51L77.0835 105.511C77.0799 105.513 77.0776 105.517 77.0764 105.523C77.0732 105.525 77.071 105.531 77.069 105.535L77.0666 105.54C77.0657 105.542 77.0646 105.544 77.0634 105.545C77.0596 105.555 77.0551 105.563 77.0506 105.57C77.0468 105.577 77.0431 105.583 77.0398 105.591C77.0398 105.589 77.0321 105.601 77.0247 105.613L77.0186 105.623C77.0092 105.638 76.9985 105.651 76.9879 105.663C76.9502 105.717 76.9041 105.784 76.8605 105.841L74.9892 108.308L72.2824 108.354C70.7511 108.379 69.2198 108.405 67.6885 108.43C67.6814 108.629 67.6801 108.842 67.6838 109.069L67.4211 109.119C67.1578 109.169 66.8354 109.23 66.6479 109.267C66.7942 109.648 66.9051 110.082 66.9842 110.549C67.0632 111.018 67.1104 111.541 67.1305 112.087C67.1493 112.641 67.1375 113.228 67.1021 113.831C67.1012 113.867 67.0986 113.885 67.0957 113.905L67.0939 113.918L67.0844 113.992L67.0749 114.061L67.0165 114.069C67.0158 114.066 67.0148 114.064 67.0148 114.063C67.0125 114.068 67.0125 114.067 67.0101 114.063L66.9898 114.03C66.9636 113.988 66.9357 113.943 66.9086 113.896C66.8744 113.837 66.8414 113.776 66.8107 113.711L66.7647 113.612L66.7588 113.599C66.7588 113.599 66.7541 113.605 66.7529 113.608L66.7423 113.631L66.7234 113.678L66.7192 113.69C66.7091 113.719 66.7 113.745 66.6927 113.78C66.6833 113.889 66.6762 113.996 66.6691 114.105L66.6684 114.118L65.6865 114.256L65.6662 114.258L65.3929 114.297C65.3926 114.299 65.3921 114.3 65.3918 114.301L65.6863 114.259L65.6865 114.256L66.6684 114.118L66.6682 114.122L67.0172 114.073C67.0172 114.072 67.0168 114.07 67.0165 114.069L67.0749 114.061L67.0656 114.127C67.0599 114.167 67.0531 114.204 67.0463 114.221L66.9075 114.233L66.6611 114.256L66.661 114.258L67.0445 114.224L67.0432 114.226L66.6609 114.261C66.6532 114.427 66.6491 114.593 66.6491 114.759C66.6491 115.633 66.7647 116.517 67.0939 117.417C67.2096 117.314 67.3767 117.35 67.5269 117.383C67.5589 117.389 67.5903 117.396 67.6201 117.401C67.6201 117.41 67.6201 117.419 67.6213 117.426C67.6213 117.417 67.6213 117.41 67.6201 117.401C67.5564 116.52 67.5234 115.654 67.5187 114.794C67.5187 114.59 67.5187 114.387 67.5207 114.183L67.6626 114.17L67.6638 114.167L67.5207 114.179L67.521 114.151L67.5233 113.998L67.6771 113.977L67.6772 113.976L67.5233 113.998L67.5257 113.83V113.793L67.5269 113.786V113.771L67.5328 113.743L67.5351 113.73C67.5376 113.716 67.54 113.701 67.5446 113.689L67.56 113.746C67.5694 113.784 67.5812 113.821 67.5942 113.857C67.6071 113.892 67.6201 113.927 67.6355 113.96L67.6402 113.971V113.98L67.6772 113.976L67.6827 113.877C67.6853 113.851 67.686 113.793 67.6866 113.735L67.6874 113.677L67.6897 113.45C67.6921 113.299 67.6933 113.145 67.6933 113.001V112.56L67.6897 112.134L67.672 110.552V109.842L67.6721 109.835C67.6745 109.619 67.6769 109.397 67.685 109.2C67.6982 109.784 67.7449 110.455 67.7978 111.215L67.8101 111.392L67.8136 111.444C67.8408 111.851 67.8688 112.268 67.8903 112.714L67.8909 112.725C67.9025 112.954 67.914 113.182 67.921 113.422L67.9328 113.784L67.9375 114.013L67.9399 114.102V114.142L67.9422 114.142C67.9443 114.141 67.945 114.141 67.9399 114.142L67.9373 114.142L67.9322 114.143L67.9328 114.174L67.9552 115.186C67.9765 116.04 68.004 116.897 68.0316 117.757C68.091 119.612 68.1511 121.484 68.1511 123.394V123.687C69.2983 123.832 70.4609 123.932 71.6262 124.032C74.2234 124.255 76.8342 124.479 79.3196 125.209C79.9762 125.342 80.8313 125.261 81.6717 125.182C82.9183 125.064 84.1327 124.949 84.6198 125.539C85.205 126.011 85.2286 126.714 85.1389 127.495C84.0043 127.446 82.871 127.411 81.7407 127.377L81.7397 127.377C80.2012 127.33 78.6676 127.283 77.145 127.199C73.9038 126.83 70.6626 126.421 67.4238 125.766C70.5918 126.668 73.8448 127.02 77.145 127.199C77.8165 127.276 78.4881 127.351 79.1598 127.425C81.1247 127.644 83.0908 127.863 85.0551 128.125C84.9584 128.797 84.8664 129.499 85.0268 130.148H86.2492C87.8798 131.794 87.4716 134.099 86.6575 135.745L86.6437 135.767C86.4398 136.095 86.2111 136.463 85.9576 136.831L85.8733 136.802C85.7018 136.742 85.5298 136.682 85.3596 136.628C83.2399 136.057 81.1199 135.927 78.9212 135.791C77.3147 135.692 75.6661 135.59 73.9451 135.312C71.7923 134.816 69.4069 134.881 67.14 134.942H67.1386C66.4021 134.963 65.6773 134.982 64.9778 134.982C66.6799 135.135 68.4038 135.235 70.1343 135.335C75.2792 135.632 80.4828 135.933 85.3442 137.639C84.687 138.417 83.9024 139.036 82.9891 139.036C80.7898 138.73 78.6199 138.515 76.4678 138.368V137.061C73.6623 137.514 70.9426 137.205 68.2298 136.897C65.0304 136.533 61.8408 136.17 58.532 137.061C58.7109 137.205 58.655 137.414 58.6048 137.601C58.594 137.641 58.5835 137.68 58.5757 137.717C58.5605 137.717 58.546 137.717 58.532 137.719C58.5462 137.719 58.5603 137.719 58.5757 137.717C64.5908 137.397 70.2154 137.715 76.2224 138.353C70.0752 137.947 64.0732 138.087 57.9584 138.23L57.9559 138.23C54.7934 138.304 51.6008 138.378 48.3423 138.378H46.7117C45.0811 137.391 43.4504 137.061 41.821 137.061C41.9407 136.577 41.8842 135.951 41.8277 135.324C41.6921 133.82 41.5564 132.316 43.8587 132.78V131.464C40.5974 129.818 39.3739 125.208 42.6351 123.892C44.7216 123.143 47.2038 123.246 49.7815 123.353C51.7357 123.434 53.7449 123.517 55.6778 123.234L56.0688 123.194C56.0796 122.948 56.0935 122.699 56.1075 122.449C56.1726 121.285 56.2396 120.087 56.0122 118.932C55.8801 117.958 55.7479 116.983 55.7149 116.009C55.6983 115.521 55.7066 115.036 55.7526 114.55C55.775 114.307 55.8069 114.064 55.8506 113.823L55.8848 113.642L55.9036 113.55L55.9084 113.527L55.9131 113.483L55.9237 113.394C55.952 113.159 55.9839 112.925 56.0275 112.694L56.0771 112.455L56.0901 112.396L56.0972 112.367C56.0972 112.367 56.0995 112.352 56.1007 112.358V112.373L56.1113 112.493C56.1243 112.655 56.1408 112.819 56.1585 112.981C56.1951 113.304 56.2328 113.63 56.2706 113.957L56.2977 114.2C56.3108 114.256 56.3188 114.312 56.3268 114.368C56.3298 114.389 56.3329 114.41 56.3362 114.432L56.3379 114.442C56.3517 114.533 56.3642 114.623 56.3765 114.714C56.3862 114.784 56.396 114.855 56.4063 114.925C56.4287 115.086 56.4511 115.246 56.4771 115.404L56.4971 115.523L56.5113 115.611C56.5117 115.614 56.5119 115.613 56.5118 115.609L56.5116 115.6L56.5113 115.589C56.5113 115.579 56.5113 115.567 56.5089 115.532L56.5007 115.407L56.4971 115.326V115.267C56.4948 115.199 56.4948 115.152 56.4971 115.111C56.501 114.981 56.5073 114.89 56.5134 114.802L56.5172 114.747L56.529 114.597L56.5349 114.525C56.5362 114.509 56.5375 114.502 56.5386 114.496C56.5395 114.491 56.5403 114.486 56.5408 114.479C56.5441 114.458 56.5476 114.438 56.5512 114.417L56.5561 114.389C56.5685 114.318 56.5809 114.247 56.5892 114.167L56.5935 114.127L56.6011 114.061C56.6052 114.025 56.6094 113.99 56.6132 113.953C56.6176 113.911 56.6216 113.867 56.6246 113.821L56.6387 113.637L56.6493 113.438C56.6614 113.211 56.67 112.966 56.6792 112.703C56.6918 112.344 56.7056 111.952 56.7308 111.523C56.7756 110.783 56.8594 109.941 57.0576 109.066C57.0761 108.923 57.0815 108.768 57.0786 108.599L55.9242 108.614L54.1508 108.634L52.5202 108.642L52.4708 108.643L52.3842 108.643C52.2935 108.644 52.2028 108.644 52.1131 108.642L51.7096 108.62C51.5373 108.587 51.3671 108.548 51.197 108.51L51.0435 108.475L50.9415 108.453L50.1745 108.282C49.9256 108.204 49.6801 108.093 49.4335 107.974C48.9427 107.733 48.4743 107.431 48.0295 107.083C47.1422 106.383 46.3375 105.494 45.5988 104.506C45.2295 104.011 44.8744 103.498 44.5322 102.969L44.2774 102.572L44.0838 102.259L43.7818 101.765C43.3877 101.11 43.0266 100.474 42.6786 99.8438C41.9848 98.5837 41.35 97.3516 40.7388 96.1253C40.1288 94.9005 39.5447 93.6831 38.9748 92.4716C38.4061 91.2616 37.8528 90.0559 37.3088 88.8621L36.5996 87.299C36.378 87.3788 36.1497 87.4489 35.9144 87.5062C35.5286 87.6019 35.1309 87.6814 34.7109 87.7094C34.2908 87.7374 33.8566 87.7329 33.4095 87.6873C31.2585 87.2869 29.0886 86.7879 26.9011 86.0857C24.7159 85.382 22.513 84.4737 20.3561 83.2608C20.4366 83.0234 20.576 82.6108 20.6818 82.2975L20.7632 82.0566C19.2305 81.3794 17.7308 80.5065 16.3315 79.4098C14.9321 78.316 13.6295 77.0309 12.4555 75.6192C12.1676 75.26 11.8809 74.8993 11.5977 74.5372C11.3287 74.1618 11.062 73.7835 10.7977 73.4052L10.6007 73.121C10.5564 73.0546 10.5139 72.9868 10.4711 72.9185C10.461 72.9024 10.4507 72.8859 10.4405 72.8698C10.4318 72.8559 10.423 72.842 10.4142 72.8281L10.0461 72.2407L9.68152 71.6519C9.60142 71.5193 9.52612 71.3834 9.45096 71.2478C9.41429 71.1816 9.37766 71.1155 9.34053 71.0498C8.41784 69.4511 7.65562 67.7774 6.95593 66.1007L6.45093 64.8376C6.34899 64.5731 6.25352 64.3075 6.15816 64.0421C6.10123 63.8837 6.04426 63.7251 5.98605 63.5672C5.77042 62.9953 5.58183 62.4194 5.39355 61.8444C5.30367 61.5699 5.21382 61.2955 5.12118 61.022C5.03379 60.7581 4.95463 60.4931 4.87545 60.2281C4.8274 60.0672 4.77935 59.9064 4.72945 59.7457L4.53476 59.1083C4.46869 58.8963 4.40379 58.6829 4.34598 58.4709C4.2257 58.0457 4.1052 57.6198 3.98375 57.1946L3.80204 56.5572L3.63213 55.9198L3.28524 54.6449C3.23358 54.4619 3.18283 54.2664 3.13219 54.0714L3.11062 53.9884C3.05162 53.7661 2.99498 53.5438 2.93953 53.3201C2.71299 52.4265 2.49706 51.5241 2.29058 50.6129C1.87643 48.789 1.50004 46.9239 1.16377 44.9866C1.08945 45.4648 0.909781 45.3425 0.747667 45.2321C0.714193 45.2093 0.681403 45.187 0.650509 45.1706C0.648393 45.1469 0.645856 45.1242 0.643401 45.1022C0.641749 45.0874 0.640134 45.0729 0.63871 45.0587C0.642249 45.0955 0.645789 45.1323 0.650509 45.1706C0.858172 47.1211 1.15079 49.0127 1.51538 50.8573C1.69709 51.7803 1.89649 52.6915 2.11241 53.5939L2.14306 53.7214C2.1869 53.9041 2.2307 54.0866 2.2776 54.2681C2.29475 54.3354 2.31179 54.4037 2.32883 54.4719C2.36799 54.6288 2.40725 54.786 2.44751 54.9305L2.79086 56.2053C2.94225 56.7944 3.11634 57.3821 3.2903 57.9693C3.36716 58.2288 3.44402 58.4883 3.51886 58.7476C3.60488 59.0537 3.70381 59.3581 3.80278 59.6628C3.84092 59.7802 3.87907 59.8976 3.91649 60.0151C4.05336 60.4376 4.19023 60.8601 4.32592 61.2811L4.99493 63.1757L5.23799 63.8042L5.72647 65.0599C5.83902 65.3303 5.95455 65.6 6.07016 65.8699C6.13271 66.0159 6.19529 66.162 6.25743 66.3083L6.52527 66.9324L6.81434 67.5507L6.95 67.8384C7.09892 68.1546 7.24776 68.4706 7.40076 68.7858C7.49174 68.9595 7.58191 69.1336 7.6721 69.3078C8.00299 69.9468 8.33419 70.5865 8.70692 71.2088C9.07799 71.8788 9.49399 72.5253 9.91074 73.173C9.99481 73.3036 10.0792 73.4347 10.1629 73.5656C10.3444 73.8231 10.5264 74.0798 10.7086 74.3369L10.9653 74.6991L11.167 74.9818C11.2091 75.0397 11.253 75.0955 11.2968 75.151C11.3241 75.1858 11.3514 75.2205 11.3782 75.2556L11.8065 75.8017L12.2372 76.3464C12.3352 76.4648 12.4358 76.5799 12.5367 76.6952C12.5875 76.7534 12.6384 76.8117 12.6891 76.8704L13.1457 77.3916L13.3746 77.6521C13.4278 77.7124 13.4833 77.7691 13.5387 77.8257C13.5631 77.8506 13.5876 77.8757 13.6118 77.9009C13.9295 78.2271 14.2484 78.5533 14.5674 78.8795L14.5734 78.8857C14.7647 79.062 14.956 79.2387 15.1475 79.4156L15.1487 79.4168L15.5763 79.8117C16.9356 81.0129 18.3774 82.0728 19.8641 82.9884C17.5385 81.6223 15.2932 79.8617 13.2897 77.7714C11.2956 75.6648 9.55763 73.255 8.1028 70.7216C6.64916 68.1837 5.47633 65.5339 4.48049 62.8739C3.48583 60.2094 2.67641 57.5317 1.972 54.8451C1.24046 52.0158 0.687086 49.1099 0.346093 46.0892C0.0109989 43.0685 -0.117611 39.9315 0.13017 36.6355C0.191525 35.8126 0.281198 34.9779 0.399188 34.1374C0.515999 33.2953 0.662308 32.4459 0.849913 31.5877C1.03516 30.7309 1.25462 29.8668 1.51892 29.0027C1.78558 28.1386 2.09472 27.273 2.45341 26.4192C3.16607 24.7101 4.10292 23.0378 5.23917 21.5481C6.37188 20.0525 7.71815 18.7703 9.14466 17.7678C9.63078 17.4322 10.3729 16.9596 11.1281 16.5798C11.8809 16.2015 12.6395 15.8953 13.141 15.7245C15.2601 15.5008 17.1834 15.5817 18.9969 15.7466L20.2322 15.8776C20.5844 15.9138 20.9376 15.9428 21.2909 15.9661L21.3105 14.8075C21.3187 14.2138 21.3273 13.6205 21.3358 13.0273C21.3444 12.4349 21.3529 11.8422 21.3612 11.2494L21.4037 7.70024L21.4047 7.59945C21.4279 5.2807 21.4512 2.9634 21.4733 0.648962C22.5083 0.633249 23.5428 0.617882 24.5766 0.602526C25.6735 0.586233 26.7697 0.569949 27.8648 0.553277C28.39 0.545956 28.9151 0.539 29.4402 0.532045C29.9708 0.525016 30.5015 0.517986 31.0317 0.510587C31.2942 0.506906 31.5568 0.503594 31.8193 0.500282C32.0818 0.49697 32.3444 0.493657 32.6069 0.489977L33.2086 0.485561H33.6428C35.9602 0.482617 38.2704 0.488505 40.5677 0.501754C45.1635 0.529724 49.712 0.595967 54.1874 0.71815C57.8222 0.75606 62.5492 0.552767 67.196 0.352922C74.0976 0.0561071 80.8223 -0.233102 83.5293 0.28683C86.7788 0.67546 86.9192 1.37323 86.4354 2.16815C80.1863 2.28162 73.9456 2.40893 67.7219 2.5359C59.3068 2.70757 50.9226 2.87861 42.5915 3.01392C46.2006 2.9945 49.8101 2.97343 53.4201 2.95236C64.2743 2.88901 75.1319 2.82564 85.9859 2.80704C85.4632 3.49303 84.9617 4.20699 85.8632 4.83409C85.8632 4.83409 90.374 4.7178 92.63 4.65892C101.686 6.07064 99.4616 8.43334 94.985 10.1969L94.8031 10.2547C93.7048 10.6037 92.4801 10.993 91.1208 11.3849L91.1161 11.4143ZM92.2653 84.7004L92.6827 84.6077C92.7394 84.5946 92.7962 84.582 92.8531 84.5695C92.9488 84.5483 93.0446 84.5272 93.1394 84.5032L93.5948 84.3825L94.5057 84.1396C94.6958 84.0861 94.8849 84.0268 95.074 83.9675C95.1866 83.9322 95.2991 83.8969 95.4119 83.8628C95.5163 83.8291 95.621 83.7971 95.7258 83.7652C95.9228 83.7051 96.12 83.6449 96.3157 83.5728L97.2148 83.2505C97.2631 83.2329 97.3115 83.2157 97.3599 83.1986C97.4613 83.1627 97.5625 83.1269 97.6631 83.087L98.1091 82.906L99 82.5424C99.1868 82.4622 99.3731 82.3761 99.5593 82.2901C99.6671 82.2403 99.7748 82.1905 99.8825 82.142L100.323 81.9388L100.543 81.8372L100.76 81.7254L101.841 81.2072C102.08 81.0885 102.317 80.9593 102.554 80.8301C102.673 80.7655 102.791 80.7008 102.91 80.6375C102.96 80.6104 103.01 80.5836 103.059 80.5567C103.188 80.4872 103.317 80.4178 103.443 80.3446L103.97 80.0251L104.496 79.7042C104.672 79.5982 104.848 79.4907 105.019 79.37L106.055 78.6664C106.296 78.4969 106.532 78.3166 106.768 78.1361C106.869 78.0595 106.97 77.9827 107.071 77.9068C107.127 77.8636 107.183 77.821 107.24 77.7785C107.353 77.6934 107.466 77.6084 107.577 77.5182L108.567 76.6864L108.814 76.4774L109.055 76.2551L110.017 75.3586C110.224 75.155 110.428 74.9444 110.631 74.7335C110.737 74.6242 110.843 74.5147 110.949 74.4062C111.003 74.3491 111.058 74.2929 111.113 74.2367C111.214 74.1334 111.315 74.03 111.411 73.9204L111.859 73.411L112.53 72.6441L112.744 72.3747L113.599 71.2927C113.783 71.0512 113.96 70.802 114.137 70.5524C114.23 70.4216 114.323 70.2907 114.417 70.1607L114.823 69.588L115.206 68.9933L115.589 68.3971C115.628 68.3352 115.668 68.2739 115.708 68.2126C115.798 68.0754 115.887 67.938 115.967 67.7936C115.888 67.9271 115.8 68.054 115.712 68.181C115.668 68.2444 115.624 68.3079 115.581 68.3721L114.801 69.5159C114.715 69.6383 114.626 69.757 114.537 69.8755C114.489 69.9395 114.441 70.0035 114.393 70.0679C114.289 70.2054 114.187 70.3437 114.084 70.4819C113.914 70.7107 113.745 70.9392 113.572 71.1632C113.286 71.5135 113.001 71.8639 112.714 72.2142C112.513 72.4721 112.297 72.7117 112.081 72.951C111.998 73.0437 111.914 73.1363 111.831 73.23C111.757 73.3128 111.683 73.3964 111.609 73.4799C111.386 73.7305 111.164 73.9811 110.928 74.2119C110.62 74.5269 110.311 74.8419 110.001 75.1584C109.843 75.3066 109.684 75.4548 109.525 75.603C109.364 75.7522 109.204 75.9013 109.045 76.0505C108.821 76.2689 108.586 76.4671 108.351 76.6654C108.257 76.7451 108.162 76.8248 108.069 76.9058C108.001 76.9633 107.933 77.0212 107.865 77.079C107.605 77.3008 107.346 77.522 107.075 77.7228C106.739 77.9819 106.402 78.241 106.064 78.5015L104.772 79.4068L104.509 79.5747L103.982 79.9088L103.455 80.243C103.335 80.3196 103.212 80.3886 103.09 80.4576C103.033 80.4893 102.977 80.5211 102.921 80.5536C102.794 80.6249 102.668 80.6977 102.542 80.7705C102.311 80.9037 102.08 81.0369 101.847 81.1616C101.59 81.2931 101.333 81.4253 101.076 81.5578C100.971 81.6121 100.865 81.6665 100.759 81.721L100.54 81.8255L100.318 81.9197L99.8743 82.1066C99.78 82.146 99.6859 82.186 99.5919 82.2259C99.3907 82.3114 99.1896 82.3969 98.987 82.4761L98.0938 82.8044L97.6478 82.9678C97.5512 83.0022 97.4537 83.0329 97.3564 83.0635C97.3039 83.08 97.2515 83.0965 97.1994 83.1135L96.0773 83.4668L95.4012 83.6479C95.3114 83.6716 95.2218 83.6956 95.1321 83.7196C94.9214 83.7759 94.7109 83.8322 94.4998 83.8849L93.596 84.0836C93.2044 84.1767 92.8108 84.2473 92.4172 84.3154C92.3669 84.4438 92.3163 84.5721 92.2653 84.7004ZM95.5278 74.9832C97.92 74.1072 100.267 72.9062 102.577 71.356C102.62 71.328 102.663 71.3 102.705 71.2719C103.15 70.9797 103.605 70.6809 104.031 70.3197C104.15 70.224 104.269 70.1268 104.389 70.0297L104.568 69.8825C104.626 69.8309 104.682 69.7765 104.74 69.7235C104.881 69.5905 105.023 69.4563 105.164 69.3217C105.252 69.2389 105.339 69.1558 105.427 69.0728C105.544 68.9669 105.652 68.8477 105.761 68.7285L106.088 68.3706C106.12 68.3349 106.152 68.2993 106.185 68.2636C106.371 68.0595 106.557 67.8542 106.727 67.6287C106.83 67.4992 106.932 67.3692 107.035 67.2393C107.137 67.1094 107.239 66.9795 107.342 66.85C107.481 66.658 107.616 66.4616 107.751 66.2654C107.807 66.1848 107.862 66.1043 107.918 66.0241L108.204 65.609L108.47 65.1718C108.533 65.0666 108.597 64.9622 108.66 64.858C108.773 64.6718 108.886 64.4861 108.996 64.2974C109.075 64.1486 109.155 63.9998 109.234 63.8512C109.316 63.6969 109.398 63.5428 109.48 63.3891C109.508 63.3346 109.537 63.2809 109.567 63.2272C109.619 63.1314 109.671 63.0357 109.718 62.9357C109.791 62.7797 109.865 62.6236 109.937 62.4676C109.992 62.3492 110.047 62.2317 110.103 62.1144C110.193 61.9226 110.284 61.7315 110.371 61.5387C110.438 61.3752 110.505 61.212 110.573 61.0493C110.636 60.8956 110.699 60.7422 110.762 60.5892C110.802 60.4966 110.84 60.4034 110.879 60.3107C110.906 60.2472 110.932 60.1839 110.958 60.1211C110.999 60.0108 111.039 59.9005 111.079 59.7907C111.097 59.7408 111.115 59.6909 111.133 59.6412C111.207 59.4408 111.28 59.2415 111.354 59.0431C111.397 58.9267 111.439 58.8106 111.482 58.6946C111.331 59.0568 111.18 59.4189 111.029 59.7825L110.917 60.0548L110.545 60.8453C110.511 60.9195 110.476 60.994 110.442 61.0684C110.313 61.3469 110.184 61.625 110.037 61.8876C109.948 62.0574 109.859 62.2268 109.769 62.3962C109.68 62.5661 109.59 62.736 109.501 62.9063C108.75 64.2326 107.921 65.4839 107.021 66.6483L106.326 67.4992C106.183 67.6677 106.035 67.8292 105.886 67.9905C105.789 68.0956 105.693 68.2005 105.598 68.3073C105.41 68.526 105.206 68.7252 105.002 68.9241C104.949 68.9755 104.896 69.027 104.844 69.0787L104.462 69.4556C104.384 69.5362 104.3 69.6084 104.216 69.6805C104.165 69.7241 104.115 69.7677 104.065 69.8133L103.665 70.1651C103.62 70.2034 103.576 70.2428 103.532 70.2822C103.444 70.361 103.356 70.4399 103.262 70.5096L102.431 71.1602C102.25 71.2963 102.064 71.4244 101.879 71.5521C101.777 71.6219 101.676 71.6916 101.576 71.7623C101.354 71.925 101.121 72.0675 100.887 72.2101C100.825 72.2481 100.762 72.2862 100.7 72.3246C99.5215 73.0474 98.2967 73.6642 97.0307 74.1412C96.9737 74.1629 96.9174 74.1858 96.8611 74.2087C96.7612 74.2493 96.6614 74.2898 96.5587 74.3237L96.0797 74.4842C95.9846 74.5147 95.8902 74.5466 95.796 74.5783C95.7394 74.5974 95.6829 74.6165 95.6263 74.6352C95.5936 74.7512 95.5608 74.8672 95.5278 74.9832ZM96.3994 71.7662C96.9941 71.5167 97.5768 71.2427 98.1457 70.9438C98.1752 71.0228 98.212 71.1216 98.2524 71.2299C98.3657 71.5334 98.5064 71.9107 98.5882 72.1289C98.8312 71.9449 99.0731 71.7638 99.3162 71.5886C99.3668 71.5509 99.4182 71.5147 99.4696 71.4785C99.5404 71.4287 99.6112 71.3789 99.6796 71.3251L100.032 71.0484C100.135 70.9667 100.24 70.8885 100.344 70.8104C100.476 70.7111 100.609 70.6121 100.737 70.5066C100.965 70.3167 101.192 70.1312 101.422 69.9502C102.319 69.192 103.203 68.4398 104.018 67.6022L104.331 67.2975C104.396 67.2341 104.457 67.166 104.519 67.0981C104.556 67.0572 104.593 67.0164 104.63 66.9766C104.829 66.7616 105.029 66.5482 105.231 66.3362L105.804 65.662L106.094 65.3278L106.366 64.9731L106.916 64.2665L107.434 63.5231C107.466 63.4775 107.498 63.4321 107.53 63.3866C107.586 63.3087 107.641 63.2306 107.695 63.1506L107.938 62.7591L108.429 61.9759C109.675 59.8267 110.699 57.3977 111.376 54.7333C111.435 54.483 111.489 54.2311 111.544 53.9794C111.563 53.8921 111.582 53.8048 111.601 53.7175L111.711 53.2082L111.765 52.952L111.808 52.69C111.832 52.5376 111.855 52.3849 111.879 52.2321C111.91 52.0351 111.94 51.8377 111.971 51.6404L112.049 51.1149L112.102 50.5776C112.239 49.2409 112.336 47.4523 112.381 45.78C112.218 46.1462 112.069 45.9911 111.935 45.8509C111.906 45.8209 111.878 45.7916 111.85 45.7683C111.713 45.649 111.592 45.6799 111.488 46.5102C111.592 45.6814 111.713 45.6505 111.85 45.7683C111.762 46.5897 111.673 47.4082 111.585 48.2237L111.518 48.8346L111.501 48.9877L111.485 49.1187L111.45 49.3763C111.406 49.7193 111.361 50.0609 111.316 50.4024L111.247 50.9147L111.159 51.4152C111.133 51.5623 111.107 51.7092 111.081 51.8559C111.049 52.0424 111.016 52.2285 110.983 52.4147L110.939 52.6635C110.928 52.7185 110.916 52.7721 110.904 52.8258C110.898 52.8526 110.892 52.8794 110.886 52.9064L110.778 53.3922C110.706 53.716 110.634 54.0384 110.562 54.3623C109.925 56.9061 109.037 59.2555 107.922 61.3665C107.867 61.4839 107.803 61.5927 107.739 61.7021C107.729 61.7203 107.718 61.7384 107.708 61.7566L107.486 62.1393L107.265 62.522L107.154 62.7134L107.034 62.8945L106.556 63.6232L106.437 63.8057L106.308 63.9779L106.052 64.3224L105.797 64.6683L105.67 64.842L104.856 65.8225L104.712 65.9756L104.424 66.2832L104.137 66.5909C104.121 66.6078 104.106 66.6248 104.09 66.6418C104.058 66.6767 104.027 66.7113 103.993 66.744L103.841 66.8882C103.641 67.0811 103.439 67.2725 103.237 67.4653C103.154 67.5497 103.065 67.6247 102.976 67.7C102.959 67.714 102.942 67.728 102.926 67.7421L102.608 68.0114C102.321 68.271 102.013 68.5027 101.705 68.7344C101.571 68.8352 101.437 68.9359 101.304 69.039C101.171 69.1355 101.034 69.2268 100.897 69.3182C100.804 69.3801 100.711 69.442 100.619 69.5056L100.275 69.7382C100.204 69.7831 100.132 69.8258 100.059 69.8686C100.012 69.896 99.9656 69.9235 99.9191 69.9516C99.6819 70.093 99.4436 70.2358 99.2064 70.3786C99.0625 70.4546 98.9181 70.53 98.7735 70.6056C98.6717 70.6589 98.5697 70.7122 98.4678 70.7657C101.216 69.2701 103.615 67.1886 105.532 64.5889C107.455 61.9936 108.875 58.8566 109.842 55.3766L110.017 54.7185L110.105 54.3903L110.149 54.2254L110.185 54.0561L110.482 52.7033C110.509 52.5914 110.53 52.4766 110.549 52.3603L110.609 52.0128L110.793 50.9706C110.814 50.8558 110.834 50.7395 110.849 50.6203L110.944 49.9092L111.041 49.1997L111.066 49.0216L111.077 48.9333L111.09 48.8287L111.14 48.4018C111.206 47.8321 111.273 47.2624 111.341 46.6927L111.4 46.1814C111.514 45.2106 111.627 44.2387 111.742 43.2657L111.842 42.4075L111.893 41.9777L111.906 41.8702L111.912 41.8172L111.915 41.7907V41.7392C111.915 41.7097 111.92 41.6803 111.925 41.6509C111.924 41.6406 111.923 41.6304 111.923 41.6201C111.922 41.6024 111.922 41.5847 111.922 41.5669C111.922 41.5537 111.926 41.5404 111.925 41.5257C111.922 41.511 111.921 41.4963 111.92 41.4801C111.916 41.4492 111.92 41.4227 111.918 41.3874C111.907 41.2549 111.883 41.0664 111.842 40.8074C111.79 40.5262 111.713 40.1596 111.605 39.7033C111.574 39.5717 111.541 39.4341 111.506 39.29C111.414 38.907 111.311 38.4785 111.201 37.9971L111.087 37.476L111.03 37.2125L110.974 36.9269C110.961 36.8602 110.948 36.7943 110.935 36.7284C110.911 36.6041 110.887 36.4798 110.864 36.3499L110.762 35.7346C110.732 35.5572 110.706 35.3614 110.681 35.1696L110.629 34.7703L110.609 34.6069L110.589 34.4215C110.562 34.1668 110.543 33.9239 110.525 33.6942L110.493 33.1908C110.492 33.1599 110.491 33.1687 110.491 33.1584L110.489 33.1407C110.488 33.129 110.485 33.1172 110.483 33.1039C110.479 33.0804 110.472 33.0568 110.465 33.0348C110.457 33.0166 110.45 32.9997 110.442 32.983C110.419 32.9275 110.396 32.8738 110.341 32.7845C110.287 32.6888 110.201 32.5917 110.005 32.4253C109.928 32.3532 109.762 32.2384 109.544 32.1118C109.367 32.0016 109.129 31.8968 108.944 31.8154C108.912 31.8011 108.881 31.7874 108.852 31.7747C108.512 31.3757 108.064 31.018 107.555 30.7148C107.046 30.4115 106.476 30.1612 105.872 29.9566C104.98 29.6537 104.013 29.4533 103.002 29.3111C103 29.3266 102.998 29.342 102.995 29.3575C102.92 29.8816 102.848 30.4027 102.78 30.9209L102.764 31.0445L102.734 31.2852C102.717 31.4216 102.7 31.5582 102.683 31.6952L102.637 32.0809L102.631 32.1295C102.628 32.1456 102.626 32.1648 102.627 32.1604V32.1663C102.627 32.1663 102.63 32.1766 102.63 32.1824C102.632 32.2175 102.641 32.2514 102.65 32.284L102.652 32.2929V32.2973L102.656 32.3473L102.665 32.4754L102.685 32.7845L102.695 32.9715L102.703 33.1761L102.703 33.1963C102.708 33.3449 102.712 33.4877 102.712 33.6722C102.715 33.8415 102.71 34.0682 102.702 34.2772C102.696 34.4195 102.688 34.549 102.68 34.6829L102.676 34.7556C102.667 34.9001 102.655 35.0315 102.642 35.1669L102.638 35.212L102.616 35.4372L102.591 35.6492C102.523 36.213 102.435 36.7194 102.358 37.111L102.322 37.2917L102.321 37.2976C102.273 37.5347 102.225 37.7726 102.177 38.0104C102.136 38.2136 102.115 38.3402 102.122 38.3225V38.3711L102.092 38.879L102.053 39.4354C102.027 39.8064 101.997 40.1803 101.967 40.5542C101.904 41.3035 101.833 42.0601 101.749 42.8256C101.584 44.3536 101.373 45.9126 101.097 47.5068C100.958 48.3047 100.806 49.1099 100.626 49.9269C100.553 50.2759 100.47 50.6304 100.386 50.9846L100.386 50.9857L100.345 51.1591L100.277 51.4312L100.21 51.7008C100.165 51.8815 100.119 52.0622 100.074 52.2425C99.9855 52.5914 99.8958 53.036 99.812 53.5512C99.7271 54.0679 99.6469 54.6553 99.5666 55.3074C99.5212 55.6661 99.4768 56.0414 99.4303 56.4345L99.4301 56.4362C99.3074 57.4734 99.17 58.6344 98.9613 59.9415L98.9047 60.283L98.8504 60.5966L98.7454 61.1825C98.7088 61.3761 98.6725 61.5696 98.6363 61.7632C98.6 61.9568 98.5637 62.1504 98.5271 62.344C98.3785 63.1139 98.2227 63.8749 98.0634 64.6272C97.5621 66.9818 97.0161 69.3708 96.3994 71.7662ZM103.601 25.027C104.122 25.008 104.803 25.09 105.675 25.3225L105.797 24.0153C105.026 23.6686 104.317 23.2913 103.691 22.8881C103.689 23.0153 103.687 23.1428 103.685 23.2705C103.673 23.7458 103.655 24.3385 103.601 25.027ZM35.7183 85.357L36.0981 86.194C35.1919 85.9804 34.278 85.7593 33.3587 85.5322C31.7824 85.1288 30.1848 84.6843 28.573 84.1602C26.9624 83.642 25.3342 83.0076 23.7165 82.245C22.0989 81.4795 20.4906 80.5654 18.9438 79.4598C17.3969 78.3558 15.9161 77.0589 14.5628 75.5912C14.4761 75.493 14.3891 75.3951 14.3021 75.2972C14.0567 75.0209 13.8113 74.7447 13.5717 74.4621L12.6313 73.2771L11.7475 72.0391C11.5519 71.7537 11.3655 71.4609 11.1791 71.1679C11.0926 71.0319 11.0056 70.8951 10.9181 70.7598C9.84789 69.0272 8.9252 67.2062 8.12404 65.3529L7.93296 64.8918C7.8036 64.5795 7.67442 64.2677 7.54471 63.9559C7.41122 63.5993 7.27842 63.2419 7.14577 62.8849L7.01965 62.5456C6.88405 62.1951 6.7671 61.8388 6.65028 61.4829C6.61158 61.365 6.57287 61.247 6.53353 61.1295C6.4945 61.0089 6.45485 60.8885 6.41524 60.7683C6.29919 60.416 6.18338 60.0645 6.08398 59.7089C6.20647 60.0967 6.34819 60.4817 6.49142 60.8708L6.50049 60.8954C6.58388 61.1211 6.66804 61.3482 6.75253 61.5763L6.94413 62.0937L6.96508 62.1448C7.12102 62.5255 7.27805 62.9088 7.43616 63.2934C7.51875 63.4936 7.60252 63.6953 7.6863 63.897C7.75212 64.0439 7.81859 64.1901 7.88522 64.3367L7.95767 64.4961C8.66326 66.1036 9.50099 67.6876 10.4036 69.2244C10.4909 69.3663 10.5763 69.5091 10.6617 69.6519C10.805 69.8915 10.9482 70.131 11.0998 70.3653L11.8325 71.4782C11.9843 71.7037 12.1427 71.9225 12.301 72.1411C12.401 72.2793 12.5012 72.4176 12.5994 72.5573C12.806 72.8587 13.0286 73.142 13.2507 73.4247C13.2974 73.4842 13.3446 73.5443 13.3911 73.6039C14.4637 74.9729 15.5929 76.2595 16.7539 77.4048C16.7841 77.4341 16.8142 77.4635 16.8442 77.4928C16.9183 77.5653 16.9921 77.6374 17.0677 77.7066L17.3899 77.9878C17.6058 78.1732 17.8217 78.3587 18.0364 78.5427L18.1981 78.6796L18.3633 78.8062L18.6948 79.058C18.8532 79.1757 19.0117 79.2942 19.1696 79.4124L19.3591 79.554C19.8087 79.8573 20.2594 80.1561 20.7113 80.4402C20.8393 80.5133 20.9671 80.5872 21.0948 80.6611C21.4226 80.8509 21.7502 81.0404 22.0788 81.2131C23.9088 82.1744 25.7471 82.8618 27.5524 83.4035C29.3588 83.9482 31.1334 84.328 32.882 84.6725C33.8072 84.8516 34.7265 85.0217 35.6409 85.1888L35.7183 85.357ZM31.4683 75.9534L31.4742 75.969C31.3322 75.9345 31.1907 75.898 31.0508 75.8577L30.2367 75.6354C30.0661 75.59 29.8983 75.5359 29.7306 75.4819C29.6318 75.4501 29.5325 75.4181 29.4332 75.3881C28.9949 75.2597 28.5675 75.1041 28.1415 74.9489L28.0385 74.9114C27.976 74.8886 27.9134 74.8659 27.8509 74.8434C26.8279 74.4432 25.821 74.0142 24.8713 73.4838C25.8339 73.9778 26.8538 74.366 27.891 74.7212L28.6863 74.97C28.8173 75.0141 28.9518 75.0524 29.0875 75.0863L29.4922 75.1937C29.5906 75.2183 29.6884 75.245 29.7863 75.2717L29.7873 75.272C29.9589 75.3188 30.1307 75.3657 30.3063 75.4013L31.1311 75.5838C31.2035 75.6014 31.2763 75.6173 31.3494 75.6323C31.388 75.7395 31.4276 75.8466 31.4683 75.9534ZM21.4936 71.2015C22.5196 72.0602 23.63 72.8063 24.8043 73.4483C22.3747 72.2248 20.216 70.5271 18.5131 68.3088C17.653 67.2018 16.8978 65.98 16.243 64.6742L16.2411 64.6704C16.0837 64.3405 15.9262 64.0105 15.7698 63.6806C15.6987 63.5089 15.6278 63.3372 15.557 63.1655L15.5563 63.1639C15.4852 62.9916 15.4141 62.8194 15.3427 62.6472L15.2377 62.3896L15.1421 62.1216L14.9522 61.5873L14.7646 61.0559C14.7258 60.9413 14.6905 60.823 14.6552 60.7046C14.6356 60.639 14.616 60.5733 14.5958 60.5082C14.6185 60.5732 14.6406 60.6387 14.6627 60.7042C14.7026 60.8227 14.7425 60.9412 14.7858 61.0559L15.1976 62.1187C15.2109 62.1519 15.2238 62.1855 15.2368 62.219C15.2583 62.2748 15.2798 62.3304 15.3026 62.3837L15.8701 63.6659L16.3622 64.6522C17.0394 65.9446 17.8028 67.1503 18.6571 68.247C19.5113 69.3437 20.4541 70.3403 21.4936 71.2015ZM30.5527 72.8723C30.5887 73.0331 30.6278 73.1992 30.6698 73.3695C30.5916 73.3559 30.5135 73.3426 30.4361 73.3301C30.3597 73.3153 30.2847 73.298 30.21 73.2807L30.1435 73.2653C29.95 73.2212 29.7612 73.1755 29.5783 73.1269C29.2078 73.0371 28.8762 72.9091 28.5718 72.781C27.7447 72.3791 26.9506 71.939 26.1684 71.4988C26.057 71.4361 25.9491 71.3686 25.8414 71.3012C25.7598 71.2501 25.6778 71.1988 25.5949 71.1499L25.3094 70.9777C25.2126 70.9218 25.1182 70.8643 25.0274 70.7996C24.8924 70.7058 24.7551 70.6163 24.6182 70.527C24.3853 70.3751 24.1532 70.2238 23.9348 70.0532C23.7578 69.9252 23.5808 69.7971 23.4027 69.669L22.8918 69.2583L22.6345 69.0566L22.3891 68.8388L21.8971 68.4089C21.2658 67.7995 20.644 67.1915 20.0836 66.4923C19.8649 66.2469 19.6621 65.9753 19.4597 65.7044C19.3914 65.6129 19.3229 65.5212 19.2541 65.4309C19.1578 65.3127 19.0703 65.18 18.983 65.0475C18.9431 64.9868 18.9031 64.9262 18.8624 64.8671C18.8101 64.7872 18.7566 64.7088 18.703 64.6304C18.6274 64.5196 18.5514 64.4084 18.4789 64.293C17.9916 63.4907 17.5161 62.6737 17.102 61.7757C16.2571 60.0048 15.5681 58.0513 15.0584 56.0051C15.0374 55.9248 15.0158 55.8455 14.9941 55.7662C14.9659 55.6626 14.9376 55.559 14.9109 55.4531L14.7728 54.8878L14.4861 53.7646C14.3964 53.3804 14.3044 53.0006 14.2088 52.6208C14.1887 52.5379 14.1675 52.4556 14.1463 52.3731C14.1188 52.2666 14.0913 52.1598 14.0661 52.0511L13.9315 51.4697C13.8407 51.0825 13.7463 50.6968 13.6507 50.3126C13.5658 49.949 13.4844 49.5913 13.4041 49.2291C13.2448 48.5064 13.0962 47.7821 12.9593 47.0578C12.6856 45.6093 12.4614 44.1593 12.3104 42.7358C12.1593 41.3123 12.0815 39.9138 12.1027 38.5919C12.0862 36.7694 12.3788 35.0589 12.8649 33.7944C13.1103 33.1658 13.3888 32.6358 13.6979 32.2163C13.8513 32.0043 14.0094 31.8129 14.1758 31.6407C14.3433 31.4714 14.518 31.3168 14.702 31.1711C15.0725 30.8855 15.489 30.6441 15.9669 30.4336C16.4483 30.2304 16.9804 30.0494 17.5668 29.9154C18.1497 29.777 18.7739 29.6711 19.4181 29.5813L19.5385 29.5636C19.5542 29.5615 19.5679 29.5592 19.5819 29.5568C19.6069 29.5526 19.6329 29.5482 19.673 29.5445C19.7839 29.5327 19.8948 29.5194 20.0057 29.5062C20.2263 29.4797 20.4446 29.4502 20.6617 29.4193C20.8811 29.388 21.0987 29.354 21.3142 29.3174C21.3322 29.8529 21.3532 30.3898 21.3777 30.9282C21.5051 33.681 21.7152 36.4692 22.0467 39.2749C22.0762 39.5032 22.1052 39.7314 22.1341 39.9594C22.1945 40.4342 22.2547 40.9086 22.3193 41.383C22.4302 42.0881 22.5411 42.7918 22.652 43.4954C22.6883 43.7461 22.7367 43.9983 22.7851 44.2504C22.8043 44.3506 22.8235 44.4508 22.842 44.5509L23.0437 45.6064L23.1452 46.1334L23.1959 46.3939L23.4378 47.5628C23.9582 50.0638 24.4927 52.6223 25.1216 55.2264C25.4319 56.5263 25.7764 57.8423 26.1386 59.1569L26.5669 60.6408L26.7191 61.1354L27.0259 62.1246L27.3516 63.1124C27.4578 63.4421 27.5734 63.7704 27.6902 64.0987C27.727 64.202 27.7634 64.3053 27.7998 64.4085L27.8008 64.4116C27.8797 64.6355 27.9585 64.8591 28.0406 65.082C28.109 65.2602 28.1763 65.4385 28.2437 65.6168C28.4228 66.091 28.6018 66.5651 28.7981 67.0325C28.8462 67.1486 28.8936 67.2649 28.9409 67.3812C29.0251 67.5876 29.1095 67.7945 29.197 67.9997L29.3066 68.2489L29.3075 68.251L29.3079 68.252C29.4113 68.4869 29.5145 68.7213 29.617 68.9566L29.722 69.195L29.7751 69.3143L29.7881 69.3437C29.7916 69.354 29.7916 69.3555 29.7916 69.3555L29.7963 69.3717C29.8093 69.4144 29.8235 69.4541 29.8388 69.4939C29.8444 69.515 29.8502 69.5353 29.8561 69.5555L29.8659 69.5884C29.8811 69.639 29.8965 69.6904 29.9096 69.7515C29.9627 69.9561 30.0252 70.2284 30.1208 70.7275C30.1451 70.8509 30.1713 70.9893 30.2001 71.142C30.2862 71.5974 30.3963 72.18 30.5527 72.8723ZM21.2267 20.4C21.2215 20.9698 21.2176 21.5411 21.2163 22.1152C20.7741 21.9345 20.3027 21.7716 19.8051 21.6305C19.8069 21.4677 19.8098 21.2232 19.8127 20.9782L19.8128 20.9734C19.8157 20.7262 19.8187 20.4788 19.8205 20.3145C20.3613 20.3758 20.8268 20.4028 21.2267 20.4ZM58.7131 108.578C58.7281 109.14 58.7546 109.683 58.7798 110.197L58.7862 110.328L58.7782 110.637C58.7674 111.056 58.7572 111.455 58.7401 111.838C58.7189 112.315 58.6882 112.764 58.6351 113.176C58.582 113.589 58.516 113.976 58.4192 114.32L58.4015 114.386C58.3956 114.407 58.3897 114.448 58.385 114.478L58.3508 114.681C58.339 114.752 58.3284 114.824 58.3177 114.911C58.313 114.956 58.3083 115.002 58.3048 115.071L58.3046 115.077C58.3259 115.156 58.3475 115.235 58.3697 115.312L58.3744 115.329C58.3744 115.329 58.3755 115.334 58.3764 115.337C58.3772 115.339 58.3779 115.34 58.3779 115.334C58.3779 115.321 58.3803 115.315 58.3803 115.292L58.3779 115.177C58.3779 115.143 58.3779 115.124 58.3803 115.1C58.385 115.021 58.3909 114.974 58.398 114.927C58.4121 114.837 58.4263 114.766 58.4416 114.694L58.4853 114.492L58.5065 114.395L58.5278 114.328C58.6446 113.982 58.7213 113.592 58.7708 113.178C58.8204 112.764 58.8369 112.314 58.8357 111.838C58.8357 111.361 58.8133 110.861 58.7885 110.325C58.8023 109.769 58.8206 109.18 58.8565 108.576L58.7131 108.578Z" fill="#EF8D2B"/>
</svg>
