<svg width="150" height="150" viewBox="0 0 150 150" fill="none" xmlns="http://www.w3.org/2000/svg">
<circle cx="75" cy="76" r="70" fill="white"/>
<path d="M11.3318 84.4072L11.2782 83.9911L11.2346 83.5728L11.1461 82.7374C11.5305 85.4235 12.0155 88.1673 12.6894 90.8969C12.7735 91.2378 12.8576 91.5799 12.9417 91.9219C13.0334 92.2617 13.1252 92.6027 13.2169 92.9436C13.2628 93.1135 13.3065 93.2856 13.3545 93.4555L13.5042 93.9642L13.8024 94.9826L14.1235 95.9946C14.177 96.1634 14.2283 96.3333 14.2851 96.501L14.4577 97.0032C14.5735 97.3376 14.6838 97.6742 14.8028 98.0086C14.9252 98.3408 15.0475 98.673 15.1698 99.0052C14.3889 95.9989 13.7783 92.8445 13.3294 89.6802C12.8762 86.5149 12.5813 83.3408 12.3584 80.2572C12.3333 79.8716 12.3049 79.4871 12.2733 79.1048C12.2503 78.7214 12.2285 78.3401 12.2012 77.9611C12.1881 77.7715 12.1739 77.582 12.1608 77.3936C12.1498 77.204 12.14 77.0156 12.1291 76.8272C12.104 76.4503 12.0788 76.0767 12.0537 75.7042C12.0177 74.9591 11.9532 74.2206 11.9139 73.4919C11.8921 73.127 11.8571 72.7643 11.8353 72.4048C11.8134 72.0454 11.7872 71.687 11.7566 71.3319C11.7217 70.9758 11.702 70.6239 11.6714 70.2732C11.643 69.9225 11.6059 69.5739 11.572 69.2275C11.5426 68.8822 11.5098 68.5391 11.4705 68.1982C11.4497 68.0272 11.429 67.8572 11.4093 67.6884C11.3907 67.5196 11.3722 67.3508 11.3547 67.183C11.3154 66.8475 11.2717 66.5142 11.2214 66.1831C11.1734 65.852 11.133 65.5252 11.0795 65.2006C11.0292 64.876 10.9681 64.5525 10.9123 64.2323C10.8588 63.9131 10.7988 63.5961 10.7332 63.2813C10.8654 63.2378 11.0008 63.1517 11.1373 63.0286C11.2739 62.9056 11.4115 62.7465 11.5589 62.5581C11.7042 62.3686 11.8495 62.1496 11.9969 61.9045C12.1455 61.6606 12.2842 61.3893 12.4425 61.1029C12.7527 60.5288 13.0476 59.8731 13.3687 59.1912C13.4452 59.0202 13.5227 58.847 13.6014 58.6717C13.6396 58.5845 13.6778 58.4963 13.7161 58.4081C13.7565 58.3209 13.7958 58.2327 13.8362 58.1445C13.9957 57.7927 14.1508 57.4365 14.3004 57.0803C14.4544 56.7263 14.6128 56.3756 14.758 56.0303C14.8301 55.8571 14.9022 55.6861 14.9732 55.5172C15.0464 55.3495 15.1196 55.1839 15.1906 55.0205C15.3315 54.6949 15.4614 54.3779 15.5849 54.0783C15.7137 53.781 15.8328 53.4978 15.9376 53.2353C16.143 52.7081 16.3221 52.2691 16.4259 51.9445C16.5307 51.6199 16.5679 51.413 16.522 51.364C17.0615 48.9949 17.8294 46.6388 18.7894 44.3209C18.6223 44.7185 18.4465 45.1106 18.2903 45.5104C18.1352 45.9101 17.979 46.3088 17.8239 46.7074C17.6808 47.1105 17.5388 47.5124 17.3968 47.9132L17.292 48.2139L17.1959 48.5178C17.1325 48.7204 17.0681 48.9219 17.0047 49.1245C17.0681 48.923 17.1325 48.7204 17.1959 48.5178L17.292 48.2139L17.3968 47.9132C17.5388 47.5124 17.6808 47.1105 17.8239 46.7074C17.979 46.3088 18.1341 45.9101 18.2903 45.5104C18.4465 45.1106 18.6223 44.7185 18.7894 44.3209C20.3142 40.6611 22.3632 37.1025 24.8742 33.7847C27.383 30.4647 30.3527 27.3865 33.6851 24.659C37.0174 21.9294 40.7124 19.5515 44.6608 17.6062C48.6081 15.6575 52.8022 14.1358 57.1252 13.0706C57.2748 13.0324 57.4277 12.9932 57.585 12.9518C57.7434 12.9148 57.905 12.8778 58.071 12.8386C58.402 12.7612 58.7493 12.6795 59.1097 12.5957C59.4723 12.5194 59.8481 12.4399 60.238 12.3582C60.6268 12.2711 61.032 12.1981 61.4482 12.1207C63.1138 11.8081 64.9848 11.5195 66.9977 11.3147C69.0107 11.1121 71.1645 10.9912 73.3861 10.9858C75.6077 10.9792 77.8959 11.0903 80.1655 11.3289C82.4362 11.5652 84.6895 11.9279 86.8521 12.3952C89.0147 12.8614 91.0855 13.4333 92.9991 14.065C94.9126 14.6957 96.6678 15.3852 98.2144 16.066C99.761 16.7478 101.091 17.4352 102.18 18.0244C102.494 18.1998 102.807 18.3741 103.12 18.5494C103.276 18.6377 103.434 18.7215 103.588 18.812L104.051 19.0843C104.359 19.2673 104.673 19.4415 104.979 19.63C105.285 19.8173 105.592 20.0058 105.9 20.1942C105.398 19.8663 105.025 19.6125 104.708 19.4121C104.389 19.2128 104.134 19.0538 103.879 18.8947C103.625 18.7324 103.365 18.5799 103.041 18.3893C102.715 18.2009 102.331 17.9602 101.801 17.6726C103.224 18.2009 104.607 18.7564 105.937 19.3653C106.105 19.4404 106.272 19.5145 106.438 19.5897C106.604 19.6648 106.766 19.7454 106.93 19.8239C107.258 19.9807 107.583 20.1365 107.908 20.2922C108.546 20.6223 109.19 20.9349 109.808 21.2813C111.061 21.949 112.258 22.67 113.428 23.4096C114.007 23.7876 114.587 24.1601 115.144 24.5577C115.423 24.7559 115.71 24.9433 115.982 25.1492C116.256 25.3518 116.53 25.5544 116.803 25.757C116.53 25.342 116.404 25.0544 116.158 24.6481C116.035 24.4466 115.877 24.2211 115.655 23.9336C115.432 23.6471 115.148 23.2964 114.747 22.8737C114.923 23.0295 115.102 23.1809 115.275 23.3388L115.793 23.8148L116.31 24.2898L116.816 24.7766C117.124 24.9063 117.471 25.0729 117.832 25.2875C118.192 25.5021 118.576 25.7526 118.975 26.0271C119.367 26.3103 119.774 26.6207 120.188 26.9442C120.595 27.2754 121.005 27.6261 121.416 27.9779C121.819 28.3385 122.22 28.7055 122.613 29.065C122.998 29.4342 123.375 29.7948 123.734 30.139C124.087 30.4908 124.423 30.8252 124.74 31.1291C125.055 31.4352 125.337 31.7206 125.6 31.9602C124.881 31.7783 126.259 33.5004 127.362 35.095L127.119 34.314C128.213 35.802 129.315 37.3748 130.374 39.0065C131.43 40.6382 132.439 42.332 133.364 44.0432C134.289 45.7544 135.129 47.4852 135.859 49.1844C135.948 49.3968 136.039 49.6092 136.127 49.8194C136.217 50.0296 136.305 50.2399 136.386 50.4512C136.55 50.8727 136.712 51.2888 136.871 51.7005C137.019 52.1155 137.164 52.5251 137.307 52.9281C137.38 53.1285 137.446 53.3311 137.509 53.5315C137.572 53.732 137.636 53.9302 137.699 54.1274C137.77 54.3463 137.829 54.5543 137.874 54.7504C137.914 54.9476 137.944 55.1327 137.965 55.3037C138.005 55.6458 138.01 55.9322 137.998 56.1512C138.687 58.1401 139.279 60.1672 139.771 62.2248C139.605 62.1322 139.56 62.4121 139.552 62.8402C139.541 63.2694 139.581 63.8434 139.612 64.339C139.65 65.3346 139.672 66.0055 139.286 64.5525C139.969 66.8192 140.258 69.1872 140.421 71.5302C140.585 73.8775 140.625 76.1987 140.832 78.4795C140.595 82.5217 140.005 86.6075 139.033 90.654C138.059 94.6984 136.709 98.7024 134.992 102.579C133.276 106.456 131.194 110.204 128.787 113.747C126.379 117.29 123.648 120.629 120.651 123.699L121.103 123.57C119.031 125.759 117.05 127.837 114.749 129.836C114.46 130.082 114.164 130.326 113.866 130.571C113.716 130.693 113.566 130.817 113.414 130.94C113.259 131.058 113.104 131.177 112.947 131.297C112.633 131.534 112.317 131.777 111.988 132.009C111.659 132.24 111.323 132.47 110.981 132.701C109.603 133.607 108.091 134.469 106.392 135.237C104.2 136.784 101.344 138.366 98.7638 139.648C96.1894 140.943 93.9067 141.976 92.9969 142.831C92.6146 142.938 92.2465 143.041 91.8916 143.14C91.5355 143.239 91.1947 143.344 90.8605 143.429C90.5274 143.52 90.2052 143.607 89.8917 143.694C89.7355 143.737 89.5804 143.781 89.4286 143.823C89.2757 143.863 89.125 143.903 88.9753 143.941C87.7837 144.262 86.7046 144.543 85.6222 144.81C85.0794 144.935 84.5387 145.074 83.9806 145.193C83.4214 145.309 82.848 145.434 82.244 145.544C81.9404 145.595 81.6302 145.649 81.3112 145.702C80.9912 145.753 80.6636 145.812 80.3217 145.854C79.9809 145.897 79.6281 145.942 79.2633 145.987C78.8985 146.035 78.5195 146.07 78.1252 146.103C78.5381 146.235 78.3655 146.36 77.9166 146.479C77.6927 146.539 77.4 146.596 77.0778 146.652C76.7556 146.705 76.405 146.748 76.0653 146.794C75.7256 146.838 75.3969 146.882 75.1195 146.925C74.8519 146.966 74.6378 147.006 74.5089 147.048C74.2522 147.133 74.3462 147.227 75.0976 147.341C76.1625 147.532 76.9828 147.644 77.6643 147.67C78.347 147.704 78.892 147.701 79.4152 147.667C79.9383 147.637 80.4429 147.615 81.0447 147.604C81.3462 147.597 81.6717 147.6 82.0387 147.614C82.2221 147.62 82.4155 147.63 82.6208 147.644C82.8261 147.655 83.0435 147.665 83.2751 147.681L83.1451 147.496C83.6759 147.461 84.2089 147.436 84.7397 147.392L86.3333 147.25L87.9246 147.067C88.19 147.039 88.4543 146.999 88.7187 146.961L89.5127 146.848C91.6283 146.532 93.7352 146.12 95.8235 145.613C97.9129 145.107 99.9805 144.496 102.021 143.793C104.061 143.089 106.074 142.292 108.05 141.403C112.005 139.631 115.803 137.473 119.395 134.99C122.986 132.507 126.371 129.694 129.477 126.575C133.382 122.188 137.093 117.321 140.22 112.01C140.42 111.681 140.609 111.345 140.799 111.01L141.368 110.002L141.914 108.982L142.187 108.471L142.449 107.954L142.971 106.92C143.143 106.573 143.304 106.223 143.47 105.874C143.808 105.179 144.114 104.47 144.426 103.764C144.586 103.412 144.725 103.053 144.875 102.698C145.02 102.34 145.172 101.986 145.311 101.627C145.448 101.268 145.585 100.907 145.723 100.549C145.79 100.369 145.86 100.189 145.926 100.008L146.117 99.4649C146.244 99.1022 146.369 98.7405 146.496 98.3778C146.613 98.0129 146.73 97.648 146.846 97.2842C147.086 96.5577 147.288 95.8214 147.497 95.0905C147.612 94.6973 147.704 94.2964 147.808 93.8988C147.858 93.6995 147.908 93.5002 147.959 93.2998C148.011 93.1004 148.06 92.9 148.104 92.6985C148.286 91.8925 148.474 91.0853 148.628 90.2684C148.96 88.64 149.214 86.9898 149.432 85.3352C149.844 82.0228 150.043 78.6865 149.992 75.4177C149.927 68.8779 148.91 62.6136 147.402 57.2829C147.201 56.6511 147.063 56.0531 146.938 55.4802C146.81 54.9083 146.721 54.3561 146.639 53.8126C146.549 53.2712 146.476 52.7364 146.401 52.195C146.318 51.6559 146.225 51.1134 146.116 50.5503C144.374 45.7217 141.952 40.3909 138.791 35.3031C138.392 34.6713 137.996 34.0319 137.574 33.41C137.364 33.0974 137.159 32.7826 136.944 32.4721L136.295 31.5474L135.968 31.0855L135.632 30.6313L134.958 29.7229L134.263 28.8319C134.03 28.5356 133.801 28.2383 133.56 27.9496C133.32 27.6599 133.081 27.3701 132.843 27.0815C132.606 26.7907 132.355 26.514 132.111 26.2308C131.865 25.9508 131.624 25.6655 131.372 25.3921C131.12 25.1187 130.868 24.8453 130.618 24.573C130.493 24.4379 130.368 24.2996 130.24 24.1667C130.112 24.0338 129.984 23.902 129.856 23.7691C129.599 23.5055 129.343 23.243 129.088 22.9805C128.826 22.7245 128.566 22.4696 128.306 22.2158C128.045 21.9642 127.788 21.7082 127.521 21.4664C127.675 21.6189 127.817 21.7736 127.907 21.8782C127.358 21.3455 126.825 20.8303 126.305 20.3271C126.044 20.0766 125.786 19.8304 125.531 19.5864C125.404 19.4633 125.277 19.3413 125.152 19.2193C125.024 19.0995 124.897 18.9808 124.771 18.8621C124.519 18.6235 124.269 18.3872 124.022 18.153C123.777 17.9166 123.522 17.6922 123.275 17.4624C123.027 17.2336 122.781 17.006 122.534 16.7794C122.283 16.5572 122.032 16.3361 121.783 16.115C121.288 15.6684 120.775 15.2414 120.259 14.8112C120.13 14.7033 120 14.5955 119.871 14.4877C119.739 14.3831 119.607 14.2774 119.473 14.1729C119.206 13.9637 118.937 13.7546 118.666 13.5433C118.396 13.3298 118.114 13.1305 117.831 12.9246C117.546 12.722 117.258 12.5161 116.968 12.3092C116.672 12.1098 116.37 11.9105 116.063 11.7112C115.757 11.5119 115.446 11.3082 115.122 11.1175C115.056 11.2755 114.261 10.793 113.832 10.6296C113.705 10.3431 111.721 9.07849 108.629 7.6603C108.242 7.48493 107.84 7.30411 107.424 7.11567C107.003 6.93922 106.57 6.75731 106.125 6.57105C106.014 6.52422 105.903 6.47847 105.789 6.43163C105.675 6.38697 105.561 6.34231 105.445 6.29765C105.214 6.20834 104.981 6.11793 104.746 6.02752C104.51 5.93711 104.273 5.84344 104.032 5.75412C103.789 5.66807 103.544 5.58093 103.298 5.4927C101.324 4.78905 99.193 4.13442 97.0304 3.58435C94.8689 3.03102 92.6758 2.59205 90.5918 2.25657C90.3308 2.21517 90.0741 2.16725 89.8163 2.13239C89.5586 2.09645 89.3041 2.0605 89.0507 2.02456C88.545 1.95267 88.0502 1.88078 87.5631 1.82958C87.0771 1.77403 86.603 1.71412 86.1421 1.66729C85.6801 1.62372 85.2323 1.58124 84.7987 1.54093C84.3662 1.49519 83.9468 1.47449 83.5459 1.44181C83.1451 1.41458 82.7617 1.37864 82.3969 1.36012C82.0321 1.33942 81.6859 1.31982 81.3615 1.3013C81.0371 1.28278 80.7346 1.25991 80.4538 1.25011C79.8924 1.22505 79.425 1.19782 79.0645 1.16841C78.7041 1.13791 78.4518 1.11831 78.3229 1.08345C77.7091 1.10088 77.0734 1.09761 76.4258 1.11722C76.0369 1.09979 75.6481 1.08345 75.2582 1.06602C74.8682 1.04969 74.4783 1.04642 74.0884 1.03444L73.5019 1.0181L73.2081 1.00938L72.9143 1.0072L71.739 0.997402C71.3469 0.989777 70.9548 0.998491 70.5616 1.00285L69.382 1.01592L68.2024 1.05295L67.6126 1.07038L67.0228 1.10088C63.8783 1.25555 60.7371 1.56599 57.6756 2.09863C51.5483 3.13123 45.7355 5.01779 40.8948 7.56662C38.9463 8.97174 36.8121 10.5849 35.3813 12.0009C34.9335 12.185 34.6058 12.38 34.3295 12.5739C34.0543 12.771 33.8293 12.9682 33.6075 13.1904C33.3847 13.4104 33.1575 13.6446 32.8648 13.8995C32.7185 14.028 32.5546 14.1587 32.3701 14.3003C32.1866 14.4441 31.9801 14.5944 31.742 14.7534C31.3914 14.8885 31.0485 15.0214 30.7252 15.1641C30.403 15.3079 30.0917 15.4527 29.7946 15.5976C29.1961 15.8819 28.6674 16.1858 28.1901 16.4712C27.7107 16.7533 27.3 17.0376 26.9494 17.2968C26.5988 17.5571 26.305 17.7892 26.0833 17.9983C25.1953 18.8348 25.3274 19.1224 26.6392 18.3349C24.8916 19.9818 23.1692 21.6516 21.556 23.3367C19.9428 25.0206 18.4432 26.7242 17.1413 28.4071C16.0054 30.0246 14.9459 31.6748 13.9509 33.3915C13.1274 34.8608 12.4458 35.5329 11.6769 36.0666C11.4246 36.547 11.2094 36.9457 11.0205 37.2855C10.8304 37.6243 10.6808 37.9107 10.5388 38.1514C10.2603 38.6372 10.0353 38.9564 9.81467 39.2864C9.59076 39.6143 9.35266 39.9433 9.02827 40.4378C8.86881 40.6861 8.69515 40.9802 8.48872 41.3353C8.28338 41.6904 8.04528 42.1076 7.7897 42.6173C7.29711 42.9931 6.2868 45.6988 5.54191 48.4884C5.44143 48.8347 5.3606 49.1876 5.27214 49.5329C5.18585 49.8793 5.10175 50.2202 5.01874 50.5546C4.86911 51.2245 4.72603 51.8606 4.59933 52.4292C4.48246 52.9989 4.37542 53.4978 4.2804 53.8921C4.18538 54.2853 4.11766 54.5772 4.05322 54.7254C4.09254 54.4814 4.12749 54.2352 4.17009 53.9912C3.40553 56.4899 2.64754 58.5497 1.96927 60.641C1.29755 62.7302 0.70448 64.8542 0.444533 67.4379C0.418319 67.6623 0.392106 67.8856 0.365893 68.111L0.327665 68.4487L0.297083 68.7875C0.257763 69.2395 0.218444 69.6915 0.180216 70.1458C0.141988 70.6 0.123421 71.0564 0.0950229 71.5127C0.0830086 71.7415 0.0699019 71.9702 0.0567953 72.199C0.0458732 72.4277 0.0415043 72.6575 0.034951 72.8874C0.0229366 73.347 0.0120144 73.8067 0 74.2674C0 74.7282 0.00109222 75.19 0.00218444 75.653C-0.00109222 76.1159 0.0163833 76.5788 0.0305821 77.0428L0.0524264 77.7389L0.0644408 78.0874L0.0841008 78.436C0.111406 78.9 0.138712 79.3651 0.166017 79.8302C0.197691 80.2953 0.242472 80.7593 0.281792 81.2233L0.344049 81.9205L0.422688 82.6165C0.478391 83.0794 0.523172 83.5445 0.588705 84.0064C0.830085 85.8581 1.15666 87.6967 1.53457 89.5168C1.91903 91.3348 2.38103 93.1277 2.88782 94.8912C3.40226 96.6525 3.98332 98.3767 4.59824 100.063C5.22626 101.746 5.90016 103.385 6.60573 104.979C6.78813 105.374 6.96835 105.768 7.14966 106.16C7.24031 106.357 7.33097 106.551 7.42053 106.746C7.51446 106.939 7.60839 107.132 7.70232 107.325C7.89127 107.708 8.07258 108.094 8.26372 108.472C8.45704 108.849 8.64927 109.223 8.84041 109.596C9.12548 109.517 8.75194 108.882 8.38496 108.203C8.03217 107.515 7.68484 106.783 7.99503 106.548C8.8284 108.323 9.70545 110.083 10.6306 111.826L10.9801 112.478C11.0958 112.696 11.2116 112.914 11.335 113.128L12.0614 114.422L12.8161 115.702C12.9406 115.917 13.0706 116.128 13.2027 116.338L13.5959 116.971C14.6521 118.654 15.7738 120.304 16.9807 121.897C18.1909 123.485 19.4808 125.02 20.8548 126.476C21.0798 126.761 21.3124 127.066 21.5418 127.375C21.7712 127.682 22.006 127.982 22.2179 128.271C22.432 128.559 22.6253 128.832 22.7924 129.066C22.9617 129.299 23.0982 129.497 23.1878 129.645C24.0561 130.606 24.3991 130.798 24.6754 130.93C24.8141 130.995 24.9397 131.042 25.1155 131.155C25.204 131.212 25.3045 131.284 25.4257 131.383C25.5481 131.481 25.6933 131.603 25.867 131.762L25.7239 132.323C26.0232 132.506 26.2908 132.69 26.5322 132.876C26.7768 133.059 26.9996 133.24 27.205 133.425C27.6145 133.793 27.9542 134.172 28.3005 134.538C28.6445 134.907 28.9765 135.285 29.3719 135.646C29.7695 136.005 30.2184 136.364 30.7842 136.701C30.9021 136.655 31.161 136.763 31.4854 136.949C31.647 137.043 31.8261 137.155 32.0107 137.279C32.1953 137.404 32.3886 137.535 32.5809 137.666C32.4465 137.907 33.0527 138.294 33.6436 138.662C34.2399 139.021 34.8243 139.355 34.6331 139.535L34.6779 139.514C35.1508 139.823 35.5146 139.994 36.0618 140.426C36.5664 140.627 39.1953 141.639 41.8571 142.449C42.1869 142.555 42.5244 142.647 42.8532 142.743C43.183 142.836 43.5074 142.93 43.8241 143.02C44.4609 143.191 45.0649 143.344 45.6001 143.48C46.1375 143.611 46.6093 143.713 46.9774 143.795C47.3465 143.875 47.6141 143.932 47.7496 143.951L48.1799 144.211C48.8702 144.464 49.3955 144.551 49.6566 144.514C49.9154 144.481 49.9045 144.343 49.5201 144.154L51.2075 144.778C51.1376 144.77 51.0688 144.757 50.9989 144.747C51.5603 144.947 52.1272 145.137 52.6908 145.332C52.9889 145.481 53.2762 145.827 52.7126 145.915C53.2314 145.969 53.771 146.052 54.3007 146.168C54.8304 146.285 55.3547 146.417 55.8331 146.6C55.5032 146.466 55.1625 146.327 54.814 146.186C54.4667 146.045 54.1172 145.883 53.7601 145.726C53.4051 145.565 53.0425 145.41 52.6842 145.236C52.3271 145.062 51.9655 144.885 51.604 144.709C51.2425 144.534 50.8875 144.342 50.5325 144.153C50.1787 143.963 49.8259 143.776 49.4829 143.58C49.14 143.382 48.8025 143.183 48.4715 142.986C48.3066 142.886 48.1428 142.789 47.9822 142.689C47.8228 142.587 47.6655 142.486 47.5093 142.385C48.0958 142.53 48.8724 142.842 49.6522 143.185C50.0443 143.352 50.4419 143.514 50.8176 143.664C51.0055 143.738 51.1879 143.809 51.3626 143.872C51.5374 143.935 51.7056 143.984 51.8629 144.029C52.2025 144.234 52.6416 144.47 53.1473 144.72C53.6563 144.958 54.2308 145.215 54.8381 145.472C55.4486 145.715 56.0887 145.972 56.7287 146.205C57.0498 146.319 57.3698 146.432 57.6822 146.543C57.9957 146.654 58.3037 146.763 58.604 146.858C58.8771 146.901 59.1392 146.792 59.4767 146.739C59.646 146.712 59.8328 146.7 60.0512 146.726C60.2697 146.752 60.5198 146.81 60.8114 146.935C61.0692 147.201 61.4165 147.263 61.8184 147.321C62.2215 147.374 62.6802 147.412 63.1673 147.65C61.9506 147.686 60.8158 147.369 59.6351 147.101C59.6602 147.232 59.8481 147.364 60.1331 147.478C60.4182 147.591 60.7994 147.695 61.2057 147.793C61.4088 147.842 61.6186 147.89 61.8261 147.935C62.0347 147.975 62.24 148.016 62.4344 148.054C62.8244 148.131 63.1695 148.205 63.4021 148.279C63.637 148.244 64.3305 148.335 65.1508 148.456C65.5604 148.519 66.0038 148.566 66.4374 148.61C66.871 148.651 67.2926 148.69 67.664 148.687C67.3199 148.897 67.6083 149 68.0921 149.093C68.3346 149.135 68.624 149.186 68.9069 149.235C69.0489 149.261 69.1887 149.29 69.3198 149.322C69.4508 149.351 69.5743 149.385 69.6824 149.424C70.6796 149.546 71.3284 149.391 70.933 149.197C71.1077 148.945 70.1236 148.808 69.2783 148.668C68.4329 148.512 67.7251 148.364 68.4351 148.151C68.7726 148.445 70.7145 148.5 71.7554 148.516C71.7805 148.23 71.0575 148.272 71.7412 148.024C72.3157 148.076 72.911 148.036 73.4429 148.003C73.9748 147.969 74.4434 147.962 74.7732 148.115C74.557 148.19 74.0829 148.135 73.7455 148.123C74.1201 148.135 73.799 148.253 73.1305 148.415C72.7963 148.489 72.3758 148.574 71.9105 148.663C71.6779 148.706 71.4354 148.753 71.1864 148.796C70.9374 148.835 70.684 148.875 70.4317 148.914C70.1783 148.954 69.9249 148.993 69.6791 149.031C69.5557 149.049 69.4334 149.069 69.3143 149.086C69.1953 149.102 69.0773 149.118 68.9637 149.132C68.5072 149.192 68.0976 149.248 67.7819 149.294C67.4663 149.342 67.2457 149.378 67.167 149.402C67.0873 149.427 67.1495 149.447 67.3986 149.451C67.1561 149.297 69.3722 149.101 71.4802 148.804C72.0066 148.726 72.5276 148.649 73.0071 148.577C73.4844 148.501 73.918 148.419 74.2697 148.353C74.6214 148.287 74.8912 148.231 75.0419 148.191C75.1905 148.151 75.2156 148.126 75.0998 148.123C74.6432 148.047 74.8082 147.921 74.9666 147.799C75.0463 147.738 75.1238 147.678 75.1227 147.627C75.1238 147.576 75.0452 147.532 74.8104 147.505L73.7629 147.838C73.1196 147.781 72.6707 147.604 72.4424 147.434C72.2131 147.262 72.2021 147.088 72.4304 146.998C72.9634 147.03 72.8487 147.153 72.4009 147.316C72.177 147.398 71.869 147.491 71.5173 147.585C71.1656 147.682 70.7691 147.765 70.3694 147.853C69.9697 147.938 69.5644 148.028 69.1985 148.094C68.8305 148.162 68.5017 148.222 68.2527 148.267C67.7524 148.362 67.5722 148.411 68.0452 148.381C67.7972 148.311 67.5493 148.25 67.3035 148.174C67.7066 148.125 68.4362 148.096 69.1614 148.137C69.8877 148.168 70.6119 148.241 71.0105 148.419C71.0324 148.146 72.0951 148.084 72.9733 148.016C73.0759 148.035 73.1797 148.056 73.2823 148.072C74.1911 147.942 75.4526 148.023 74.8661 147.643C73.5456 147.638 73.1065 147.46 73.1131 147.187C73.1185 146.921 73.5641 146.559 74.0043 146.193C74.8901 145.46 75.7486 144.701 73.2998 144.589C74.3232 144.913 74.1517 145.071 73.4429 145.153C73.089 145.195 72.6019 145.198 72.0678 145.201C71.5326 145.208 70.9505 145.184 70.4054 145.166C70.3072 145.053 70.021 144.906 69.5688 144.749C69.1177 144.582 68.4995 144.415 67.735 144.258C66.3926 144.154 66.9213 144.395 66.6471 144.524C66.4647 144.467 66.2408 144.409 66.0104 144.344C65.781 144.275 65.5451 144.204 65.3397 144.131C64.928 143.985 64.6385 143.832 64.7554 143.683C64.6189 143.713 64.4911 143.728 64.3688 143.732C64.2475 143.732 64.1328 143.721 64.0214 143.701C63.7997 143.662 63.5922 143.588 63.3814 143.505C63.1706 143.422 62.9543 143.331 62.713 143.256C62.4716 143.177 62.2062 143.109 61.8927 143.084C60.7732 143.054 61.9342 143.264 61.126 143.303C60.9217 143.26 60.7098 143.209 60.4903 143.154C60.2708 143.101 60.0447 143.045 59.8153 142.99C59.5859 142.933 59.3522 142.876 59.1174 142.818C58.8847 142.755 58.6521 142.69 58.4205 142.627C57.4965 142.383 56.626 142.103 55.998 141.896C55.7916 141.685 55.3591 141.327 55.1297 141.016C54.9003 140.704 54.8774 140.43 55.4792 140.359C55.773 140.455 55.9751 140.535 56.1105 140.601C56.2459 140.667 56.3147 140.718 56.3366 140.762C56.3825 140.852 56.2459 140.911 56.1149 140.965C55.8527 141.067 55.6026 141.165 56.8707 141.453C56.4251 140.968 56.9908 141.071 57.7379 141.245C58.4904 141.399 59.4287 141.629 59.7181 141.414C59.3533 141.173 58.7744 140.941 58.1136 140.753C57.7827 140.66 57.4365 140.555 57.0848 140.47C56.7342 140.381 56.3781 140.309 56.0417 140.231C56.1214 140.286 56.2012 140.344 56.282 140.397C55.9827 140.337 55.6103 140.25 55.2007 140.151C54.9953 140.101 54.7813 140.048 54.5628 139.989C54.3455 139.926 54.1249 139.858 53.9031 139.786C53.0163 139.511 52.1479 139.135 51.5909 138.742C51.9666 138.612 51.4915 138.248 52.35 138.485L51.5734 138.186L50.8045 137.869C50.5795 137.867 50.3469 137.865 50.7761 138.088C49.969 137.996 49.2776 137.591 48.7752 137.229C48.7391 137.081 46.5962 136.476 44.521 135.765C44.261 135.677 44.0022 135.588 43.7477 135.502C43.4954 135.411 43.2485 135.321 43.0104 135.233C42.5342 135.058 42.0897 134.899 41.7238 134.748C40.9866 134.451 40.5235 134.255 40.6032 134.253C39.5492 133.64 39.4957 133.167 38.3554 132.763C38.3281 132.777 38.469 132.872 38.7333 133.026C38.8655 133.102 39.0282 133.194 39.2183 133.296C39.4105 133.393 39.6268 133.503 39.8638 133.622C40.1008 133.74 40.3574 133.867 40.6283 134.001C40.9014 134.131 41.1908 134.262 41.4879 134.398C41.7861 134.532 42.0886 134.677 42.4032 134.806C42.7155 134.938 43.0312 135.07 43.3447 135.202C45.8513 136.247 48.2651 136.967 47.518 136.696C47.4164 136.61 47.1325 136.488 46.7251 136.314C46.5208 136.227 46.2838 136.131 46.0195 136.027C45.7563 135.922 45.4614 135.816 45.1523 135.688C43.905 135.196 42.3289 134.548 40.7801 133.84C39.2379 133.122 37.7263 132.345 36.5904 131.675C35.4567 131.002 34.6867 130.463 34.6091 130.248C34.241 129.99 33.8249 129.717 33.5103 129.541C33.1969 129.363 32.973 129.294 32.9773 129.464C32.4094 128.948 32.5798 128.919 32.8004 128.909C33.021 128.899 33.2919 128.909 32.9413 128.486C32.8965 128.504 32.9293 128.643 32.6628 128.428C32.4574 128.13 32.2619 127.822 32.0631 127.522C31.0146 126.956 29.9377 125.985 28.8597 125.003C27.7959 124.003 26.7288 122.996 25.6813 122.298C25.8572 122.375 26.0472 122.447 26.2536 122.525C26.4579 122.606 26.6818 122.689 26.9254 122.789C27.1678 122.89 27.4289 123.009 27.7107 123.159C27.8516 123.234 27.9957 123.318 28.1486 123.409C28.3026 123.498 28.4621 123.596 28.627 123.705L28.7319 123.992C28.8422 124.038 29.1458 124.265 29.4451 124.448C29.7476 124.627 30.0404 124.767 30.1146 124.656C29.6155 124.107 29.1436 123.61 28.6183 123.156C28.3551 122.929 28.0929 122.698 27.8057 122.476C27.5217 122.251 27.2148 122.035 26.8991 121.8C26.7484 121.544 26.566 121.255 26.4622 121.044C26.4415 121.072 26.4371 121.109 26.4044 121.133C26.1674 120.656 26.2252 120.677 26.4295 120.737C26.4601 120.741 26.4961 120.746 26.5474 120.772C26.5048 120.172 25.4345 119.219 24.2123 118.081C22.9966 116.941 21.651 115.589 21.0033 114.394C20.4474 113.82 20.8537 114.414 20.1503 113.702C20.0651 113.552 19.981 113.405 19.898 113.26C19.8183 113.113 19.7407 112.969 19.6643 112.827C19.5114 112.543 19.3628 112.268 19.2176 111.999C18.9369 111.456 18.6671 110.936 18.3962 110.412C18.133 109.886 17.8687 109.356 17.5902 108.799C17.4525 108.52 17.3127 108.232 17.1664 107.936C17.0921 107.788 17.0178 107.637 16.9403 107.485C16.866 107.33 16.7918 107.172 16.7142 107.011C15.977 106.382 15.8208 106.375 16.0589 107.517L15.5739 106.541C15.4145 106.214 15.2659 105.883 15.1108 105.555C15.539 105.888 15.681 105.803 15.6832 105.517C15.6832 105.374 15.6504 105.18 15.5991 104.962C15.5739 104.853 15.5444 104.739 15.5117 104.621C15.4822 104.503 15.4516 104.381 15.421 104.26C15.1731 103.288 14.9481 102.356 15.823 103.114C15.7716 102.794 15.6296 102.34 15.4167 101.843C15.3118 101.593 15.1818 101.335 15.0529 101.07C14.923 100.806 14.7799 100.54 14.627 100.283C14.3747 100.262 13.9564 100.239 13.3917 98.844C12.9111 96.7908 12.9854 97.2929 12.6806 95.5752C12.8215 95.0981 13.1405 95.6536 13.3371 95.5088C13.2606 95.3617 13.1907 95.2234 13.1328 95.0927C13.076 94.9609 13.028 94.8378 12.9854 94.7212C12.9013 94.4881 12.8434 94.2844 12.8041 94.0982C12.7647 93.913 12.7451 93.7464 12.7364 93.5895C12.7309 93.4316 12.7364 93.2845 12.744 93.1375C12.7779 92.5493 12.8445 91.9785 12.5037 90.8C12.377 90.4362 12.2492 89.9754 12.1072 89.4918C12.0351 89.2511 11.9609 89.0038 11.8888 88.7587C11.82 88.5136 11.749 88.2707 11.6769 88.0398C11.6048 87.8089 11.5327 87.59 11.4595 87.3917C11.3864 87.1935 11.323 87.0127 11.2542 86.8634C11.1188 86.5628 10.9833 86.3798 10.8545 86.3853C10.8086 86.1282 10.7715 85.9016 10.7496 85.7034C10.7299 85.5041 10.7201 85.332 10.7179 85.1849C10.7147 84.8908 10.7452 84.6937 10.7988 84.5662C10.9069 84.3113 11.1111 84.3331 11.3339 84.4007L11.3318 84.4072Z" fill="#2E2D2C"/>
<g clip-path="url(#clip0_158_722)">
<path d="M71.7472 103.957C71.7856 103.674 71.8241 103.391 71.8596 103.111C72.404 97.9231 72.2235 92.738 72.5874 86.9752C72.9513 82.9427 72.7708 78.3324 72.7708 74.2999C72.4365 83.8594 72.5637 93.9083 71.3034 103.093C70.8744 102.165 70.5312 101.057 70.5312 99.7625C70.6999 96.6526 70.8182 93.587 70.9011 90.5449H71.6229C71.0756 81.9021 72.5312 73.8341 71.6229 65.1884C71.5253 65.495 71.3774 65.3122 71.259 65.2503C71.259 65.2297 71.259 65.209 71.259 65.1884C71.259 65.209 71.259 65.2297 71.259 65.2503C71.1555 65.1913 71.0756 65.2267 71.0756 65.7661C71.0756 65.2297 71.1555 65.1943 71.259 65.2503C71.4365 73.7545 71.259 81.7046 70.907 90.1971C71.2472 77.0118 70.8922 64.2982 70.8922 50.7828V48.4776C71.4365 46.1725 71.62 43.8674 71.62 41.5622C72.5282 42.137 74.3477 39.8319 73.9838 44.4422H74.7116C75.6198 39.8319 78.167 38.1016 78.8948 42.7118C79.6226 47.8969 78.8948 54.8123 79.2587 61.15C79.4392 65.7603 79.6226 70.3705 79.2587 74.9808C78.7144 81.3184 78.8948 88.2339 78.167 94.5715C77.9866 96.8766 78.5309 100.912 77.9866 102.065C77.7262 102.893 77.3387 102.925 76.9067 102.799C76.9718 99.0108 76.9896 95.2318 77.0695 91.497C77.2736 86.9162 77.4984 82.3325 77.8623 77.7546C77.3623 82.2323 77.17 86.8337 77.0695 91.497C76.9038 95.223 76.7529 98.9519 76.5576 102.681C76.1849 102.545 75.8003 102.413 75.4393 102.639V104.367C74.5311 106.672 73.256 106.094 72.3477 104.945C72.1643 104.65 71.9543 104.32 71.7472 103.954V103.957Z" fill="#EF8D2B"/>
<path d="M54.9493 104.423C54.9878 104.199 55.0262 103.978 55.0617 103.757C55.6061 99.6623 55.4256 95.5709 55.7895 91.0225C56.1534 87.8389 55.973 84.2014 55.973 81.0178C55.6386 88.5641 55.7659 96.4935 54.5056 103.742C54.0766 103.008 53.7334 102.133 53.7334 101.113C53.902 98.6601 54.0204 96.2371 54.1032 93.8376H54.8251C54.2778 87.0165 55.7333 80.6464 54.8251 73.8253C54.7274 74.0671 54.5795 73.9226 54.4612 73.8725C54.4612 73.8548 54.4612 73.8401 54.4612 73.8253C54.4612 73.8401 54.4612 73.8578 54.4612 73.8725C54.3576 73.8283 54.2778 73.8548 54.2778 74.2793C54.2778 73.8548 54.3576 73.8283 54.4612 73.8725C54.6387 80.5845 54.4612 86.8603 54.1091 93.5634C54.4493 83.155 54.0943 73.1208 54.0943 62.4559V60.6371C54.6387 58.8184 54.8221 56.9967 54.8221 55.1809C55.7304 55.6348 57.5498 53.8161 57.1859 57.4536H57.9137C58.822 53.8131 61.3692 52.4483 62.097 56.0888C62.8248 60.1802 62.097 65.6395 62.4609 70.6418C62.6413 74.2822 62.8248 77.9198 62.4609 81.5573C61.9165 86.5596 62.097 92.0188 61.3692 97.0212C61.1887 98.8399 61.7331 102.026 61.1887 102.934C60.9284 103.589 60.5408 103.612 60.1089 103.515C60.174 100.526 60.1917 97.5429 60.2716 94.5952C60.4757 90.9783 60.7006 87.3614 61.0645 83.7475C60.5645 87.2818 60.3722 90.9134 60.2716 94.5952C60.1059 97.537 59.955 100.479 59.7598 103.421C59.387 103.315 59.0024 103.208 58.6415 103.388V104.753C57.7332 106.572 56.4581 106.118 55.5499 105.21C55.3665 104.977 55.1564 104.718 54.9493 104.426V104.423Z" fill="#EF8D2B"/>
<path d="M38.2189 104.791C38.2573 104.638 38.2958 104.482 38.3313 104.329C38.8756 101.493 38.6952 98.6542 39.0591 95.503C39.423 93.2981 39.2425 90.7748 39.2425 88.5699C38.9082 93.7992 39.0354 99.2938 37.7751 104.317C37.3461 103.81 37.0029 103.203 37.0029 102.495C37.1716 100.794 37.2899 99.117 37.3727 97.4515H38.0916C37.5443 92.7233 38.9999 88.3105 38.0916 83.5824C37.994 83.7504 37.8461 83.6501 37.7278 83.6148C37.7278 83.603 37.7278 83.5912 37.7278 83.5824C37.7278 83.5941 37.7278 83.603 37.7278 83.6148C37.6242 83.5824 37.5443 83.603 37.5443 83.8978C37.5443 83.603 37.6242 83.5853 37.7278 83.6148C37.9053 88.2663 37.7278 92.6142 37.3757 97.2599C37.7159 90.0468 37.3609 83.096 37.3609 75.703V74.4414C37.9053 73.1798 38.0887 71.9181 38.0887 70.6594C38.9969 70.9748 40.8164 69.7132 40.4525 72.2365H41.1803C42.0885 69.7132 44.6358 68.7699 45.3636 71.2903C46.0913 74.126 45.3636 77.9079 45.7274 81.3745C45.9079 83.8978 46.0913 86.4181 45.7274 88.9384C45.1831 92.4049 45.3635 96.1869 44.6358 99.6535C44.4553 100.915 44.9997 103.12 44.4553 103.751C44.195 104.205 43.8074 104.222 43.3755 104.152C43.4405 102.079 43.4583 100.013 43.5382 97.9703C43.7423 95.4647 43.9672 92.9591 44.331 90.4535C43.8311 92.9031 43.6388 95.4175 43.5382 97.9703C43.3725 100.007 43.2216 102.047 43.0264 104.087C42.6536 104.013 42.269 103.939 41.9081 104.066V105.012C40.9998 106.274 39.7247 105.959 38.8165 105.328C38.633 105.169 38.423 104.986 38.2159 104.785L38.2189 104.791Z" fill="#EF8D2B"/>
<path d="M105.275 104.423C105.314 104.199 105.352 103.978 105.388 103.757C105.932 99.6623 105.752 95.5709 106.116 91.0225C106.48 87.8389 106.299 84.2014 106.299 81.0178C105.965 88.5641 106.092 96.4935 104.832 103.742C104.403 103.008 104.06 102.133 104.06 101.113C104.228 98.6601 104.347 96.2371 104.429 93.8376H105.151C104.604 87.0165 106.059 80.6464 105.151 73.8253C105.054 74.0671 104.906 73.9226 104.787 73.8725C104.787 73.8548 104.787 73.8401 104.787 73.8253C104.787 73.8401 104.787 73.8578 104.787 73.8725C104.684 73.8283 104.604 73.8548 104.604 74.2793C104.604 73.8548 104.684 73.8283 104.787 73.8725C104.965 80.5845 104.787 86.8603 104.435 93.5634C104.776 83.155 104.421 73.1208 104.421 62.4559V60.6371C104.965 58.8184 105.148 56.9967 105.148 55.1809C106.057 55.6348 107.876 53.8161 107.512 57.4536H108.24C109.148 53.8131 111.695 52.4483 112.423 56.0888C113.151 60.1802 112.423 65.6395 112.787 70.6418C112.968 74.2822 113.151 77.9198 112.787 81.5573C112.243 86.5596 112.423 92.0188 111.695 97.0212C111.515 98.8399 112.059 102.026 111.515 102.934C111.255 103.589 110.867 103.612 110.435 103.515C110.5 100.526 110.518 97.5429 110.598 94.5952C110.802 90.9783 111.027 87.3614 111.391 83.7475C110.891 87.2818 110.698 90.9134 110.598 94.5952C110.432 97.537 110.281 100.479 110.086 103.421C109.713 103.315 109.329 103.208 108.968 103.388V104.753C108.059 106.572 106.784 106.118 105.876 105.21C105.693 104.977 105.483 104.718 105.275 104.426V104.423Z" fill="#EF8D2B"/>
<path d="M88.5421 104.791C88.5806 104.638 88.619 104.482 88.6545 104.329C89.1989 101.493 89.0184 98.6542 89.3823 95.503C89.7462 93.2981 89.5657 90.7748 89.5657 88.5699C89.2314 93.7992 89.3586 99.2938 88.0983 104.317C87.6694 103.81 87.3262 103.203 87.3262 102.495C87.4948 100.794 87.6131 99.117 87.696 97.4515H88.4178C87.8705 92.7233 89.3261 88.3105 88.4178 83.5824C88.3202 83.7504 88.1723 83.6501 88.054 83.6148C88.054 83.603 88.054 83.5912 88.054 83.5824C88.054 83.5941 88.054 83.603 88.054 83.6148C87.9504 83.5824 87.8705 83.603 87.8705 83.8978C87.8705 83.603 87.9504 83.5853 88.054 83.6148C88.2315 88.2663 88.054 92.6142 87.7019 97.2599C88.0421 90.0468 87.6871 83.096 87.6871 75.703V74.4414C88.2315 73.1798 88.4149 71.9181 88.4149 70.6594C89.3231 70.9748 91.1426 69.7132 90.7787 72.2365H91.5065C92.4147 69.7132 94.962 68.7699 95.6898 71.2903C96.4175 74.126 95.6898 77.9079 96.0536 81.3745C96.2341 83.8978 96.4175 86.4181 96.0536 88.9384C95.5093 92.4049 95.6898 96.1869 94.962 99.6535C94.7815 100.915 95.3259 103.12 94.7815 103.751C94.5212 104.205 94.1336 104.222 93.7017 104.152C93.7668 102.079 93.7845 100.013 93.8644 97.9703C94.0685 95.4647 94.2934 92.9591 94.6572 90.4535C94.1573 92.9031 93.965 95.4175 93.8644 97.9703C93.6987 100.007 93.5478 102.047 93.3526 104.087C92.9798 104.013 92.5952 103.939 92.2343 104.066V105.012C91.326 106.274 90.0509 105.959 89.1427 105.328C88.9592 105.169 88.7492 104.986 88.5421 104.785V104.791Z" fill="#EF8D2B"/>
</g>
<defs>
<clipPath id="clip0_158_722">
<rect width="76" height="66" fill="white" transform="translate(37 40)"/>
</clipPath>
</defs>
</svg>
