<svg width="66" height="57" viewBox="0 0 66 57" fill="none" xmlns="http://www.w3.org/2000/svg">
<g clip-path="url(#clip0_244_249)">
<path d="M33.5688 48.5142C33.9256 48.3432 34.2866 48.1846 34.6467 48.0251C35.0068 47.8624 35.3636 47.7136 35.7188 47.5624C36.5297 47.2106 37.3438 46.8786 38.0501 46.5671C38.7645 46.2515 39.3793 45.9482 39.9495 45.5989L40.3731 45.3269L40.7893 45.0244C40.9293 44.9291 41.0661 44.8107 41.2046 44.6981L41.4122 44.5288C41.4815 44.4729 41.5515 44.417 41.6199 44.3521L42.0344 43.9773L42.1382 43.8836L42.1902 43.8368L42.2338 43.7957C42.2899 43.7431 42.3484 43.6855 42.4069 43.6272C42.6434 43.3905 42.8989 43.1077 43.1774 42.7929C43.4584 42.4765 43.7616 42.1297 44.1152 41.7557C44.5791 41.2683 45.0216 40.9084 45.4081 40.6075C45.6026 40.4563 45.7855 40.3191 45.952 40.1933C46.1185 40.0676 46.2759 39.9492 46.4102 39.8424C46.547 39.7347 46.6615 39.6393 46.7662 39.5473L47.2524 39.1092C48.5462 37.9438 49.8193 36.8038 51.0464 35.6367C52.2709 34.4705 53.4502 33.2787 54.5346 32.0327C55.6183 30.7867 56.6063 29.4857 57.4246 28.118C57.8284 27.4334 58.1935 26.734 58.5058 26.0197C58.8082 25.3039 59.0579 24.574 59.2474 23.8319C59.2911 23.6461 59.334 23.4595 59.3776 23.273C59.4098 23.0848 59.4427 22.8974 59.4749 22.7083L59.5004 22.567C59.5078 22.5201 59.5111 22.4724 59.5169 22.4248L59.549 22.1396L59.5828 21.8544C59.5902 21.759 59.5927 21.6629 59.5985 21.5675L59.6141 21.2799C59.6199 21.1837 59.6273 21.0876 59.6232 20.9914C59.6224 20.7982 59.6207 20.6043 59.6199 20.4111C59.6141 20.2172 59.5944 20.0224 59.5836 19.8268C59.5754 19.729 59.5754 19.6312 59.5614 19.5334L59.5227 19.2399C59.507 19.1019 59.4914 18.9638 59.4757 18.8257C59.4559 18.6852 59.4296 18.5413 59.4065 18.3991C59.3546 18.1139 59.2969 17.8279 59.2293 17.5427C59.0942 16.9723 58.9252 16.4028 58.7242 15.8422C58.3212 14.7203 57.7855 13.6305 57.1222 12.6311C56.4596 11.6317 55.6677 10.7243 54.7678 9.9739C53.868 9.22269 52.8601 8.63175 51.7822 8.24382L51.3752 8.10738C51.2384 8.06547 51.0991 8.03012 50.9623 7.98985L50.9104 7.97506L50.8461 7.95862L50.7176 7.92574L50.4605 7.85999L49.9495 7.73013C49.2713 7.55918 48.6047 7.39644 47.9512 7.25261C47.2977 7.10878 46.6582 6.9855 46.0385 6.89838C45.4188 6.81126 44.8164 6.75454 44.2421 6.75044C43.6669 6.74386 43.1156 6.78167 42.5923 6.87619C42.0682 6.96742 41.5672 7.10796 41.0851 7.30604C40.603 7.50165 40.1358 7.74822 39.6842 8.04081C39.5705 8.11231 39.4609 8.19368 39.348 8.26847C39.2079 8.3671 39.0686 8.46491 38.9293 8.56271C38.645 8.7649 38.3533 8.96051 38.0649 9.15612C38.411 8.9301 38.7555 8.70161 39.0933 8.46737L39.3422 8.29806L39.5408 8.16738C39.6718 8.07615 39.8078 8.003 39.9405 7.91999C40.2099 7.76794 40.4802 7.62329 40.7563 7.50576C41.0307 7.38165 41.3109 7.2822 41.5952 7.19508C41.8778 7.10549 42.1696 7.04467 42.4629 6.98878C42.7579 6.93783 43.0612 6.90577 43.3694 6.88358C43.6801 6.86797 43.9957 6.86304 44.3204 6.87536C44.6459 6.89098 44.9755 6.91153 45.3142 6.95344C46.6681 7.1096 48.1185 7.46302 49.6281 7.85917C50.0097 7.96026 50.3912 8.06136 50.7728 8.16245L50.8445 8.18135L50.903 8.19861L51.0159 8.23231L51.2417 8.29806C51.3908 8.34655 51.5383 8.4008 51.6875 8.45011C52.2759 8.67038 52.842 8.94982 53.3826 9.28434C54.4629 9.95253 55.4378 10.8418 56.2643 11.8897C57.0917 12.936 57.7831 14.1269 58.3072 15.3976C58.57 16.0321 58.7942 16.6855 58.9763 17.3488C59.0686 17.68 59.1469 18.0153 59.2186 18.3498C59.2516 18.5175 59.2845 18.6868 59.3142 18.8536L59.3842 19.3435L59.4205 19.5884C59.4287 19.6698 59.4337 19.752 59.4403 19.8333L59.4806 20.3224C59.4881 20.4851 59.4864 20.6478 59.4914 20.8106L59.4971 21.0547C59.5004 21.136 59.4914 21.2166 59.4889 21.298L59.4683 21.7837C59.4567 21.9456 59.4345 22.1067 59.4188 22.2678L59.3941 22.5094C59.3851 22.59 59.3677 22.6697 59.3554 22.7502L59.2763 23.2311C59.0134 24.5083 58.5692 25.7658 57.9331 26.9789C57.3134 28.1953 56.514 29.3648 55.6281 30.4941C55.1757 31.0555 54.7126 31.6119 54.2149 32.1527C53.9726 32.4256 53.7147 32.6919 53.4633 32.9606C53.3364 33.0946 53.2046 33.2261 53.0752 33.3593C52.945 33.4916 52.8173 33.6247 52.6829 33.7554C51.6257 34.8066 50.5124 35.8282 49.3612 36.8433C48.7876 37.3512 48.2033 37.8583 47.615 38.3695C47.3191 38.6268 47.0225 38.884 46.7275 39.1413L46.6162 39.2383L46.5602 39.2868L46.5321 39.3106L46.5148 39.3246L46.4473 39.3796L46.3715 39.4396C46.2676 39.521 46.1473 39.6106 46.0105 39.7109L45.563 40.0355C45.4032 40.1514 45.2252 40.2829 45.0414 40.4234C44.8568 40.564 44.6574 40.7242 44.453 40.8993C44.247 41.0768 44.0262 41.2831 43.8103 41.5059C43.1593 42.1774 42.6574 42.7634 42.219 43.1957C42.1102 43.3033 42.0064 43.4028 41.9083 43.4899L41.5441 43.8055C41.4205 43.9107 41.2969 44.0242 41.1741 44.122L40.8057 44.4088L40.6228 44.5518L40.439 44.6776C40.3171 44.7606 40.1968 44.8477 40.0748 44.9291C39.8259 45.0762 39.5894 45.234 39.329 45.3647C39.2013 45.4329 39.0793 45.5036 38.9384 45.5668L38.5289 45.7633L38.0847 45.9589L37.9734 46.0082L37.8523 46.0583L37.6108 46.1586C36.9112 46.4454 36.2132 46.7315 35.5169 47.0167C35.5837 46.969 35.6504 46.9213 35.7172 46.8737C35.7831 46.8276 35.849 46.7816 35.9157 46.7348C36.0501 46.6427 36.1852 46.549 36.3228 46.4553C36.4563 46.3649 36.5907 46.2729 36.7274 46.1808C36.8618 46.0912 36.9977 46 37.1354 45.9079C37.2623 45.8208 37.3908 45.7337 37.5202 45.6449C37.5853 45.6014 37.6504 45.5578 37.7163 45.5134C37.7757 45.4715 37.835 45.4288 37.8943 45.386C38.0122 45.303 38.1317 45.2184 38.2528 45.1337C38.3599 45.0507 38.4687 44.9677 38.5791 44.8863C38.6945 44.8066 38.7868 44.7203 38.8906 44.6389C38.992 44.5559 39.0991 44.4787 39.1939 44.3891C39.2919 44.302 39.3925 44.2165 39.4938 44.1326C39.5935 44.0398 39.6949 43.9436 39.7987 43.8507C39.8506 43.8039 39.9034 43.757 39.9561 43.7102C40.0097 43.6576 40.0633 43.605 40.1168 43.5524C40.2256 43.4472 40.336 43.3436 40.4489 43.2392C40.5635 43.1217 40.6797 43.0042 40.7991 42.8875C40.8593 42.8291 40.9186 42.7708 40.9796 42.7124L41.0249 42.6688L41.0571 42.636L41.123 42.5678C41.3513 42.3475 41.6323 42.0393 41.9685 41.6596L42.5231 41.0399C42.6236 40.9289 42.7307 40.813 42.842 40.6947L42.945 40.587L43.0678 40.4612C43.1518 40.3741 43.2268 40.3051 43.3076 40.227C43.9364 39.6369 44.4629 39.2555 44.8684 38.9481C45.0711 38.7969 45.245 38.667 45.3809 38.561L45.4757 38.4862L45.5565 38.4213L45.6224 38.3671L45.6306 38.3605C45.6306 38.3605 45.6356 38.3564 45.643 38.3498L45.6792 38.3177L45.7509 38.2536C47.2928 36.8737 48.7703 35.5767 50.1564 34.2625C51.5433 32.9524 52.823 31.6316 53.9512 30.2772C54.5091 29.5991 55.0258 28.9136 55.4905 28.2216C55.9537 27.5296 56.3706 26.8318 56.7093 26.1299C56.8824 26.2112 57.2194 26.3707 57.3892 26.4504C58.0896 24.8453 58.4827 23.2508 58.542 21.6727C58.5775 20.8829 58.514 20.0931 58.3789 19.3032L58.3319 19.0065L58.2676 18.6967C58.2478 18.5931 58.2215 18.4904 58.1976 18.3876C58.1729 18.2849 58.1514 18.1813 58.1226 18.0794C58.0212 17.6685 57.8935 17.2641 57.76 16.8638C57.2153 15.2636 56.4217 13.7628 55.4296 12.5144C54.4382 11.2635 53.2524 10.2764 51.938 9.6509C51.6108 9.48816 51.2697 9.36406 50.926 9.24571L50.6648 9.16516L50.5981 9.14461L50.505 9.11913L50.3187 9.06818L49.5804 8.86599C48.6055 8.60052 47.6677 8.35395 46.7761 8.16409C45.8869 7.97588 45.0455 7.84766 44.275 7.81232C43.5012 7.77616 42.8057 7.83534 42.149 7.99643C41.8202 8.07697 41.4988 8.18464 41.1799 8.31943C40.8609 8.4534 40.5437 8.61613 40.2289 8.81257C40.149 8.85777 40.0715 8.91202 39.9924 8.9638L39.8737 9.04105L39.8432 9.06078L39.8004 9.09037L39.7155 9.14872C39.4872 9.30406 39.2639 9.46186 39.0307 9.61474C38.5709 9.92377 38.097 10.227 37.6438 10.5114L37.0109 10.9084L36.7439 11.0818L36.5124 11.2421L36.2998 11.4007L36.1951 11.4854L36.1432 11.5273C36.116 11.5495 36.1003 11.5643 36.0781 11.5832C36.0369 11.6193 35.9949 11.6539 35.9545 11.6917L35.4757 12.1462C35.3175 12.3007 35.1642 12.4642 35.0085 12.6229C34.3904 13.2672 33.7814 13.9354 33.1741 14.5962L32.2676 15.5891L31.8177 16.0847L31.5927 16.3329L31.4798 16.457L31.4238 16.5186C31.4048 16.5367 31.3867 16.5655 31.3677 16.5745C30.9557 16.1488 30.5429 15.7239 30.13 15.2981C29.7097 14.8699 29.2895 14.4417 28.8684 14.0135L28.2338 13.3724L27.5919 12.7593L27.2705 12.4536C27.2169 12.4034 27.1626 12.3492 27.1106 12.3032L26.9565 12.1716L26.3377 11.6456L26.1827 11.5141L26.1053 11.4484L26.0575 11.4114L25.8762 11.2717L25.5136 10.9922L25.1444 10.7276C25.0208 10.6396 24.8989 10.5484 24.7728 10.4687C24.5223 10.3035 24.2742 10.1325 24.0188 9.98294C23.8918 9.90651 23.7658 9.82514 23.638 9.75282L23.2532 9.53912C23.1889 9.50378 23.1255 9.46597 23.0612 9.4331L22.8667 9.33611L22.4786 9.14133L22.088 8.96708L21.8935 8.87914L21.6974 8.8027L21.3068 8.64901L20.9153 8.51915L20.72 8.4534L20.5247 8.4008L20.1358 8.29477L19.7501 8.21423C19.6858 8.2019 19.6216 8.18382 19.5581 8.17478L19.3677 8.14766L19.1774 8.11889C19.1139 8.10985 19.0505 8.0967 18.9879 8.09423L18.6137 8.06382L18.5206 8.0556H18.4283L18.2445 8.05314C18.1226 8.05314 17.9998 8.04327 17.8811 8.05643C17.7616 8.06382 17.6422 8.0704 17.5235 8.07615C17.4057 8.08848 17.2903 8.1082 17.1733 8.12136C17.4452 8.15341 17.4988 8.21012 17.4757 8.27916C17.4526 8.34738 17.3529 8.42546 17.3043 8.48956C17.5202 8.45998 17.7468 8.47559 17.9693 8.46491L18.3113 8.48463C18.3682 8.48792 18.425 8.48874 18.4827 8.49367L18.6574 8.51586C19.1205 8.55696 19.6001 8.6712 20.083 8.79777C21.0521 9.07886 22.0484 9.50296 23.0216 10.0676L23.3875 10.278L23.7493 10.5065C23.9924 10.6528 24.2289 10.8246 24.4687 10.984C24.589 11.0629 24.7052 11.155 24.823 11.2396C24.9409 11.3267 25.0595 11.4098 25.1766 11.4993L25.5251 11.7714L25.6998 11.907L26.0155 12.1774L26.6681 12.7388C26.7233 12.7872 26.7761 12.8283 26.8321 12.8826L27.0035 13.0478L27.3455 13.3782C27.5729 13.6001 27.802 13.8154 28.0286 14.0415L28.706 14.7343C29.156 15.1962 29.6059 15.6581 30.055 16.1192C30.4975 16.5762 30.9392 17.0323 31.3818 17.4893C32.0221 16.7858 32.6615 16.083 33.301 15.3803C33.9446 14.6751 34.5907 13.9626 35.2417 13.2689L35.7328 12.756C35.9001 12.5916 36.069 12.4314 36.2371 12.2686C36.2792 12.2284 36.3212 12.1873 36.364 12.1478L36.4942 12.0327L36.6442 11.9095C36.706 11.8552 36.7711 11.8125 36.8329 11.7632C36.9615 11.667 37.104 11.57 37.2779 11.455C37.4534 11.3399 37.6529 11.2133 37.8737 11.0736C38.3097 10.7958 38.7851 10.4909 39.2392 10.181C39.4699 10.0273 39.6941 9.87035 39.9182 9.71336L40.0863 9.59583L40.1704 9.53666L40.2297 9.49721L40.444 9.35173C41.0192 8.98434 41.5787 8.71476 42.1621 8.55285C42.7456 8.38765 43.3636 8.30957 44.069 8.31532C44.7711 8.31943 45.5606 8.41806 46.4069 8.57586C47.2524 8.73284 48.1621 8.95722 49.1057 9.20132L49.8243 9.39036L50.1885 9.48734L50.3723 9.53583C50.4316 9.55145 50.5033 9.57035 50.5346 9.58104C50.6961 9.63117 50.8609 9.67309 51.0192 9.73391C51.1807 9.78487 51.3364 9.85226 51.4938 9.91391C52.7406 10.4399 53.8836 11.307 54.8568 12.4494C55.8309 13.5878 56.622 14.9949 57.1733 16.5071C57.2458 16.6945 57.3043 16.8885 57.371 17.0784C57.4279 17.2723 57.4922 17.4638 57.5424 17.6594C57.6521 18.0482 57.741 18.4419 57.8169 18.8364C57.8342 18.9342 57.8556 19.0353 57.8704 19.1306L57.9075 19.4117C57.9314 19.5983 57.9685 19.7857 57.9743 19.9714L57.9949 20.25L58.0064 20.3898L58.0122 20.4596V20.5295C58.013 20.7144 58.0155 20.8993 58.0204 21.0843C57.9891 22.5596 57.6504 24.0201 57.0043 25.4888C57.6281 24.0357 57.9569 22.5892 57.9784 21.1311L57.966 20.5829C57.9644 20.5369 57.966 20.4917 57.9627 20.4457L57.9495 20.3076L57.9256 20.0322C57.9166 19.9402 57.9149 19.8481 57.9009 19.7561L57.8581 19.4791C57.8292 19.2934 57.8103 19.1134 57.7658 18.9136C57.7303 18.718 57.6834 18.5232 57.6405 18.3285C57.5902 18.1353 57.5466 17.9397 57.4881 17.7482C57.3826 17.3619 57.254 16.9814 57.1172 16.6066C56.5643 15.1066 55.7682 13.7152 54.7983 12.5892C53.8284 11.4591 52.6945 10.6084 51.4691 10.0972L51.2367 10.0076C51.198 9.99281 51.1601 9.97555 51.1205 9.9624L51.0019 9.92377C50.9228 9.89829 50.8453 9.8687 50.7654 9.84487L50.5256 9.77747C50.4654 9.75775 50.3179 9.72158 50.2 9.69035L49.8325 9.59583L49.109 9.41091C48.158 9.17174 47.2458 8.95311 46.4011 8.80106C45.5556 8.64737 44.7736 8.55614 44.0855 8.55696C43.3941 8.55532 42.7991 8.63586 42.2413 8.7986C41.6842 8.95804 41.1494 9.22023 40.5948 9.5794L40.3879 9.7224L40.3311 9.76103L40.2462 9.82103L40.0773 9.94021C39.8523 10.0997 39.6265 10.2583 39.3949 10.4144C38.9384 10.7284 38.4596 11.0383 38.0237 11.3177L37.7106 11.5191L37.5663 11.6119L37.4938 11.6588L37.4328 11.6999C37.2623 11.8133 37.1255 11.9078 37.0035 11.9999C36.9442 12.0467 36.8824 12.0886 36.8239 12.1404L36.6689 12.2695L36.5346 12.3886L36.4044 12.5144C36.2314 12.6837 36.0558 12.8489 35.8844 13.0207L35.3776 13.5541C34.706 14.2749 34.0385 15.0154 33.3727 15.7477L31.3883 17.9356C30.6302 17.154 29.8712 16.3732 29.1123 15.5915L27.9602 14.4097C27.8647 14.3094 27.7674 14.2157 27.671 14.1228L27.3801 13.8417L26.7983 13.2787L26.6533 13.1382L26.5148 13.0182L26.2388 12.7807L25.6858 12.3048L25.5474 12.1856L25.5136 12.1569L25.4963 12.1429L25.4609 12.1158L25.32 12.0056L25.0381 11.7854C24.8502 11.6382 24.6574 11.5059 24.4687 11.3645C24.3739 11.293 24.2775 11.2298 24.1811 11.164L23.8927 10.9676C23.1214 10.4547 22.3352 10.0109 21.5532 9.6583C20.7711 9.3057 19.994 9.05256 19.2499 8.90626C18.505 8.75997 17.7979 8.72134 17.1279 8.78627C17.0851 8.78627 17.0439 8.79366 17.0027 8.80106L16.8791 8.82079L16.631 8.85531C16.5503 8.87585 16.4695 8.89476 16.3879 8.91202L16.266 8.9375L16.205 8.94982L16.1457 8.96955C15.8259 9.06407 15.507 9.17009 15.193 9.31885C13.9363 9.88843 12.6912 10.9511 11.5729 12.3656C11.0192 13.0634 10.5256 13.8138 10.0781 14.6201C9.96601 14.8223 9.85724 15.0269 9.75176 15.2357L9.67265 15.3927L9.60343 15.5389C9.5581 15.6359 9.50948 15.7329 9.46581 15.8299C9.29193 16.217 9.14442 16.6025 9.01752 16.9838C8.52473 18.515 8.4415 19.9657 8.767 21.5938C9.08344 23.2154 9.83664 24.994 10.8099 26.8112L10.9944 27.1523L11.1856 27.495L11.2804 27.6652L11.3438 27.7728L11.4155 27.8912L11.4963 28.0186C11.7221 28.3712 12.0344 28.8076 12.3986 29.3361C12.5808 29.6007 12.7752 29.8909 12.9771 30.2139L13.109 30.4276C13.1279 30.4563 13.1452 30.4876 13.165 30.5155C13.2029 30.573 13.2408 30.6297 13.2837 30.6881C13.3686 30.8048 13.4675 30.9289 13.6051 31.0884C13.7419 31.247 13.9157 31.4377 14.1143 31.6571C14.369 31.9357 14.7505 32.3615 15.123 32.8069C15.4996 33.2549 15.8877 33.7382 16.2553 34.2091C16.608 34.6652 16.9607 35.1214 17.2837 35.5389C17.5952 35.9425 17.868 36.2918 18.0855 36.5638C18.2495 36.8186 18.4127 37.0676 18.5758 37.306L18.6368 37.3964L18.6788 37.4613C18.7044 37.5032 18.7382 37.5501 18.7687 37.5953C18.8346 37.689 18.9071 37.7868 18.9911 37.8945C19.1568 38.1073 19.3595 38.3465 19.5919 38.6202C19.8226 38.8914 20.0839 39.198 20.3566 39.544C20.4242 39.6287 20.4942 39.7207 20.5626 39.8103L20.5882 39.8432L20.6038 39.8645L20.6343 39.9073L20.6961 39.9928C20.7777 40.107 20.8609 40.2204 20.9483 40.3338C21.034 40.4473 21.1205 40.5607 21.2112 40.6741C21.301 40.7875 21.39 40.901 21.4848 41.0136C21.8564 41.4664 22.2536 41.9168 22.6714 42.368C23.5078 43.2705 24.425 44.1737 25.3785 45.1107L25.746 45.4723C25.8803 45.6047 26.0138 45.7386 26.144 45.8726C26.4061 46.1405 26.6607 46.4109 26.9071 46.6805C27.1535 46.9501 27.3925 47.2172 27.6232 47.481L27.9644 47.8731L28.1317 48.067L28.2149 48.1632L28.2338 48.187C28.2627 48.2257 28.3006 48.2569 28.3352 48.289L28.4192 48.3596L28.5157 48.4385L28.72 48.6037C29.0002 48.8273 29.2977 49.0566 29.5952 49.281C28.9071 49.2374 29.0472 50.0141 28.889 50.4925C28.809 50.73 28.65 50.8927 28.261 50.8303C28.0674 50.799 27.8152 50.7111 27.4922 50.5459C27.3315 50.4637 27.1518 50.3618 26.9574 50.2393C26.9096 50.2089 26.8609 50.1768 26.8107 50.144C26.7645 50.1144 26.7258 50.0889 26.6813 50.0585C26.5948 50.0001 26.505 49.9336 26.4242 49.8497C26.4044 49.83 26.3838 49.8103 26.3632 49.7897C26.3377 49.7634 26.3113 49.7371 26.2849 49.71C26.2305 49.6541 26.1753 49.5974 26.1185 49.5382C26.0047 49.4199 25.8861 49.295 25.7608 49.1643C25.5087 48.8988 25.2326 48.6087 24.9302 48.2906C24.6236 47.9725 24.2857 47.6273 23.9075 47.2608C23.5424 46.9065 23.151 46.5252 22.734 46.1126C22.6047 46.2507 22.3467 46.5268 22.2174 46.6649C22.5462 47.0232 22.8659 47.375 23.1724 47.721C23.4806 48.0662 23.7715 48.4139 24.0385 48.7574C24.3064 49.1018 24.5536 49.4421 24.7843 49.7749C24.8997 49.9418 25.0109 50.107 25.1189 50.2697C25.2268 50.4357 25.3331 50.5977 25.437 50.7571C25.4732 50.8114 25.5078 50.8664 25.5457 50.9182C25.5845 50.9692 25.6257 51.0193 25.6669 51.0678C25.7485 51.1639 25.8375 51.2626 25.9141 51.3497C26.0723 51.5264 26.2264 51.6982 26.3764 51.865C26.6764 52.1979 26.959 52.5118 27.2227 52.811C27.7501 53.4085 28.1984 53.9403 28.5734 54.4088C28.7612 54.643 28.931 54.8616 29.0892 55.0663C29.2507 55.2726 29.3875 55.4608 29.582 55.6589C29.6001 55.6811 29.638 55.7107 29.6669 55.737C29.6982 55.7633 29.7279 55.7896 29.7575 55.8142C29.7658 55.8208 29.7699 55.8257 29.7822 55.8339L29.821 55.8578C29.8473 55.8734 29.8729 55.889 29.8984 55.9046C29.9248 55.9194 29.9504 55.9342 29.9751 55.949L30.013 55.9704L30.0319 55.9811L30.0789 55.9983C30.2042 56.0419 30.3319 56.0756 30.4563 56.0986L30.5025 56.1068L30.5239 56.1101L30.5264 56.1126L30.5363 56.1216L30.556 56.1397C30.5816 56.1635 30.6055 56.1874 30.6277 56.2104C30.7151 56.3041 30.7703 56.3961 30.7917 56.4857C30.8346 56.6641 30.7439 56.8317 30.5091 56.9846L30.4868 56.9986L30.4811 57.0019L30.4778 57.0035C30.4778 57.0035 30.4778 57.0035 30.4753 57.0043H30.458C30.4127 57.0043 30.3657 57.0019 30.3195 56.9994C30.2256 56.9945 30.13 56.9846 30.0328 56.9714C29.9841 56.9649 29.9355 56.9566 29.8861 56.9468C29.8408 56.9377 29.7954 56.9279 29.7493 56.9188C29.6694 56.9049 29.5869 56.8876 29.5012 56.8679C29.4584 56.858 29.4155 56.8465 29.3719 56.8342C29.3595 56.8309 29.3529 56.8293 29.3471 56.8276L29.3282 56.8235L29.2895 56.8145C29.2375 56.803 29.184 56.789 29.1296 56.775L29.0884 56.7635L29.0678 56.7578L29.053 56.7545C29.0324 56.7495 29.0126 56.7446 28.9911 56.7397C28.9137 56.7191 28.8321 56.6986 28.7456 56.6756C28.439 56.5942 28.1613 56.5087 27.8589 56.3994C27.2606 56.1824 26.5874 55.8742 25.7954 55.4394C25.3991 55.2216 24.9755 54.9734 24.5148 54.6825C24.2841 54.5362 24.0443 54.38 23.7822 54.1984C23.7147 54.1507 23.6463 54.1022 23.5771 54.0529L23.5161 54.0077L23.4386 53.9477C23.3875 53.9074 23.3356 53.8663 23.2845 53.8261C23.0785 53.6609 22.8766 53.4825 22.6871 53.2836C22.6582 53.2532 22.6277 53.222 22.5972 53.1899C22.5816 53.1735 22.5659 53.157 22.5503 53.1406C22.5297 53.1184 22.5239 53.1135 22.5148 53.1044C22.4802 53.0707 22.444 53.0354 22.4061 52.9984C22.3327 52.9261 22.2544 52.8488 22.1753 52.7707C21.6092 52.2028 21.0711 51.6834 20.5198 51.2034C20.2033 50.9297 19.8844 50.6535 19.5622 50.3741C19.2202 50.0749 18.875 49.7725 18.5272 49.4684C17.8235 48.8446 17.095 48.1838 16.3558 47.4588C15.9866 47.0989 15.615 46.7191 15.2441 46.3255C15.1518 46.226 15.0587 46.1266 14.9664 46.0263C14.8741 45.9244 14.7818 45.8216 14.6895 45.7189C14.5972 45.617 14.505 45.5118 14.4135 45.4049C14.3286 45.3071 14.2445 45.2093 14.1597 45.1115C13.9808 44.9052 13.7237 44.6414 13.3826 44.3011C13.0447 43.9609 12.6244 43.5433 12.1679 43.0173L12.013 42.8357L11.8787 42.6754L11.615 42.3557L11.357 42.0376L11.1049 41.722C10.7728 41.3029 10.4547 40.8911 10.1465 40.49C9.53009 39.6887 8.95242 38.9358 8.38381 38.261C8.24043 38.0917 8.10281 37.9306 7.95448 37.763C7.78802 37.5772 7.62073 37.3906 7.45345 37.2041C7.26639 36.9953 7.0546 36.757 6.82798 36.4825C6.60219 36.2088 6.36321 35.9006 6.1366 35.5734C6.02287 35.4107 5.91245 35.243 5.80697 35.0737L5.60178 34.7384C5.50784 34.5863 5.39411 34.4129 5.26556 34.2222C5.00845 33.8401 4.69036 33.3921 4.33767 32.8505C4.16132 32.5785 3.9759 32.2801 3.78802 31.9489L3.57129 31.5568C3.50207 31.4303 3.43285 31.3062 3.36527 31.1771C3.09168 30.6667 2.82386 30.144 2.56346 29.6081C2.04512 28.5323 1.55398 27.403 1.1403 26.1882C0.932639 25.5825 0.742281 24.9579 0.582413 24.3102C0.422544 23.6634 0.282454 23.0009 0.186862 22.3163C0.0896231 21.6333 0.0245221 20.9363 0.00392056 20.2303C-0.0142088 19.5243 0.00968899 18.8126 0.0747899 18.1049C0.209936 16.6896 0.52308 15.3014 0.966426 14.0102C1.18315 13.3601 1.44191 12.742 1.71138 12.1371L1.92069 11.6908L1.97343 11.5791L2.02535 11.4747L2.12835 11.2667C2.26762 10.9898 2.41183 10.7136 2.56099 10.4383C3.15761 9.3394 3.83911 8.26354 4.60054 7.24604C4.80903 6.96906 5.02493 6.69701 5.24578 6.42908L5.41224 6.22935C5.46828 6.16278 5.52926 6.09621 5.58777 6.03046L5.94294 5.63348C6.06243 5.50198 6.17862 5.36883 6.30223 5.23897L6.68789 4.85433L7.07603 4.47132C7.20623 4.34393 7.35126 4.22393 7.48888 4.09983C8.59395 3.1152 9.87125 2.21358 11.3158 1.51168C12.7563 0.808142 14.3616 0.319937 15.9907 0.115285L16.1432 0.0939158C16.1943 0.0881625 16.2445 0.084875 16.2956 0.0799436L16.6005 0.0544649L17.212 0.0100826L17.8185 0.00268555H18.1218H18.2734L18.4234 0.0100826L19.0216 0.0446021L19.3208 0.0651495L19.6141 0.099669L20.2 0.17364L20.3459 0.193365L20.4885 0.218844L20.7744 0.271445C22.3014 0.550889 23.727 1.02183 25.0447 1.59963C26.364 2.17824 27.5779 2.86534 28.7085 3.61655C28.987 3.80723 29.268 3.99709 29.5416 4.19188C29.8103 4.38996 30.0822 4.58721 30.3459 4.78857L31.0711 5.36143L31.1757 5.45349C31.1733 5.45842 31.1724 5.4691 31.1774 5.49047C31.1807 5.49869 31.1865 5.50609 31.1972 5.51102C31.2021 5.51349 31.2087 5.51595 31.2169 5.51759C31.2211 5.51759 31.226 5.51924 31.2301 5.51924L31.231 5.52006L31.2227 5.52664L31.2186 5.52992L31.2169 5.53157L31.2219 5.52746L31.2614 5.49623L31.4197 5.37048C31.5235 5.28582 31.6372 5.2061 31.746 5.12473C31.8564 5.04336 31.9668 4.96282 32.0731 4.89131C32.1794 4.81898 32.2915 4.74173 32.3937 4.67433L32.692 4.48283L32.7662 4.43598L32.8329 4.39489L32.9664 4.3127L33.9133 3.73737L34.3443 3.47026L34.7719 3.19821L35.7666 2.54727C36.3698 2.16509 37.0126 1.81003 37.6941 1.49935C38.3739 1.18786 39.0958 0.928138 39.8317 0.725952C40.5676 0.524588 41.32 0.384044 42.0616 0.303499C42.8033 0.222131 43.5342 0.19994 44.2388 0.219666C45.6496 0.26076 46.9483 0.465412 48.1481 0.712802C49.3471 0.964302 50.4572 1.25936 51.5202 1.54702C51.7822 1.61853 52.0443 1.69003 52.3072 1.76236L52.5066 1.81743L52.7678 1.89304C52.9417 1.94564 53.1172 1.99331 53.2886 2.05085C53.98 2.27604 54.6533 2.5522 55.3068 2.86288C55.9578 3.17931 56.5832 3.5393 57.1832 3.9297C57.7806 4.32338 58.3451 4.75488 58.8824 5.20856C59.418 5.66471 59.9157 6.15128 60.3879 6.6551C60.8593 7.15974 61.2911 7.68904 61.6998 8.22985C62.5107 9.31557 63.1988 10.4629 63.7748 11.6481C64.35 12.8341 64.8165 14.0587 65.1749 15.3113C65.3579 15.9367 65.5054 16.5721 65.6323 17.2115C65.6619 17.3734 65.6957 17.5288 65.7213 17.6956L65.7954 18.197L65.8671 18.6983C65.891 18.8652 65.8993 19.0361 65.9157 19.2054C66.041 20.5566 66.0196 21.9333 65.8399 23.2763C65.6595 24.6201 65.329 25.926 64.8873 27.1581C64.4456 28.3909 63.8943 29.5506 63.2771 30.6339C62.6599 31.7171 61.9767 32.7256 61.2573 33.6708C59.8144 35.557 58.2355 37.1926 56.6401 38.6892C56.0707 39.2333 55.4485 39.8284 54.7909 40.458C54.1432 41.0711 53.46 41.7163 52.7588 42.3787C52.4151 42.7034 52.0666 43.0329 51.7163 43.3642C51.5441 43.5285 51.3702 43.6929 51.1972 43.8581L50.9211 44.1203C50.7942 44.2395 50.6731 44.3472 50.5527 44.4515C50.0781 44.8608 49.671 45.1707 49.3521 45.4345C49.1922 45.566 49.0571 45.6819 48.9516 45.7814C48.9219 45.8077 48.9021 45.829 48.8774 45.8529C48.8519 45.8767 48.8338 45.8964 48.814 45.917L48.7851 45.9466L48.7629 45.972L48.697 46.046C48.1943 46.6106 47.601 47.3947 46.814 48.2043C46.7654 48.2536 46.7118 48.3087 46.6665 48.3522C46.622 48.395 46.5775 48.4377 46.533 48.4805C46.444 48.5659 46.355 48.6498 46.2676 48.7336C46.1794 48.8174 46.0921 48.8996 46.0056 48.9818C45.9182 49.064 45.835 49.1454 45.7402 49.2243C45.3702 49.5407 45.0266 49.8473 44.65 50.121C44.5585 50.19 44.4679 50.2582 44.378 50.3256C44.2874 50.3922 44.2017 50.4596 44.1078 50.5204C43.9232 50.6437 43.7435 50.762 43.568 50.8755C43.3941 50.9922 43.2178 51.0892 43.048 51.1861C42.8783 51.2815 42.7143 51.3743 42.556 51.4574C42.3986 51.5346 42.2462 51.6078 42.1003 51.6752C41.9553 51.7409 41.8119 51.8108 41.6842 51.8584C41.4254 51.9604 41.1906 52.0458 40.9862 52.1099C40.7101 52.2053 40.4646 52.2834 40.247 52.3458C40.0344 52.405 39.8539 52.4445 39.6941 52.474C39.3727 52.5332 39.156 52.5357 39.0035 52.502C38.6986 52.4346 38.6615 52.2168 38.7143 51.9447C39.2689 51.6883 39.8457 51.4253 40.4349 51.1426C40.5816 51.0727 40.734 50.993 40.8832 50.919L41.1082 50.8056L41.2202 50.7489L41.334 50.6864C41.6372 50.5179 41.9413 50.3601 42.2413 50.1686C42.3912 50.0766 42.542 49.9853 42.6912 49.8908L43.1288 49.59C43.4254 49.3944 43.6949 49.1733 43.9734 48.9604C44.0418 48.9062 44.1127 48.8536 44.1794 48.7985L44.3756 48.6309L44.767 48.2947C44.8313 48.238 44.8989 48.1829 44.9607 48.1254L45.1444 47.952L45.512 47.6051L45.6957 47.4317L45.7419 47.3882L45.7905 47.3397L45.8877 47.2427C46.0138 47.1137 46.1374 46.9838 46.2544 46.8564C46.4901 46.6008 46.7077 46.3501 46.9137 46.1109C47.1205 45.8709 47.3158 45.6416 47.5054 45.4288C47.6001 45.3219 47.6932 45.2192 47.7831 45.1214C47.849 45.0532 47.919 44.9817 48.0031 44.906C48.3319 44.6011 48.7975 44.2592 49.3257 43.845C49.4567 43.7422 49.5944 43.6305 49.7336 43.5146L49.9454 43.3329L50.1555 43.1431L50.8338 42.5201C52.6508 40.8566 54.5132 39.1676 56.289 37.3356C58.0624 35.5036 59.7641 33.5294 61.1939 31.2823C61.6298 30.5911 62.0558 29.8868 62.4283 29.1405C62.6236 28.7739 62.7934 28.3893 62.9673 28.0079L63.0324 27.8649L63.0917 27.7178L63.2095 27.4235L63.3274 27.1293C63.3669 27.0315 63.4057 26.9329 63.4394 26.8318C63.5771 26.429 63.7237 26.0304 63.8333 25.6145C63.8902 25.4083 63.9553 25.2036 64.0039 24.9948L64.1465 24.3644C64.1976 24.1549 64.2314 23.9412 64.2668 23.7283C64.3014 23.5146 64.3401 23.3017 64.3698 23.0872L64.439 22.4396L64.472 22.1157L64.4876 21.7903L64.5157 21.1385C64.5181 20.9215 64.5115 20.7037 64.5082 20.4867C64.5107 20.0511 64.4662 19.6197 64.4333 19.1865C64.4209 18.9687 64.3846 18.7567 64.3558 18.5422L64.2643 17.8994L64.1481 17.2764C64.1036 17.0701 64.0616 16.863 64.013 16.6575C63.6281 15.0129 63.0563 13.4119 62.289 11.8848C61.5218 10.3594 60.556 8.90462 59.3644 7.59699C58.1762 6.29018 56.7456 5.13624 55.1181 4.27078C54.3055 3.83764 53.446 3.47765 52.5585 3.20314L52.2248 3.10205L51.9421 3.02068L51.3966 2.86534L50.2858 2.55384C49.5342 2.34755 48.7604 2.14701 47.9528 1.96866C47.1428 1.79277 46.2998 1.63908 45.4098 1.54456C46.28 1.64565 47.104 1.8051 47.8984 1.98345C48.6904 2.16427 49.4493 2.36892 50.1893 2.57686C50.5536 2.68206 50.9186 2.78726 51.2837 2.89246L51.821 3.05027L52.088 3.12835L52.238 3.17355L52.4019 3.22451C53.2754 3.49163 54.1234 3.84011 54.9277 4.26174C56.5387 5.10418 57.9619 6.23182 59.156 7.51398C60.3533 8.79777 61.329 10.2344 62.1094 11.7484C62.8898 13.2631 63.479 14.8568 63.882 16.4997C63.9347 16.7044 63.9792 16.9115 64.0237 17.1186C64.0707 17.3249 64.1077 17.5337 64.1481 17.7416L64.1778 17.8978L64.2017 18.0589L64.2487 18.3811C64.2792 18.5956 64.313 18.8101 64.3385 19.0254L64.3929 19.6772L64.4193 20.0027C64.4267 20.1111 64.4258 20.2213 64.43 20.3298L64.4431 20.9848C64.4481 21.0941 64.4407 21.2034 64.4366 21.3128L64.4242 21.6407L64.411 21.9686C64.4085 22.0229 64.4069 22.0779 64.4036 22.1322L64.3879 22.2957L64.322 22.9483L64.3055 23.1111C64.2989 23.1653 64.289 23.2187 64.2808 23.273L64.2297 23.596L64.1778 23.919C64.1605 24.0266 64.144 24.1343 64.1185 24.2403C64.0245 24.6644 63.9405 25.0926 63.8152 25.5069L63.7279 25.82C63.6982 25.9244 63.671 26.0296 63.6356 26.1307L63.4304 26.743C63.3653 26.9493 63.2829 27.1457 63.2054 27.3455C63.1255 27.5435 63.0521 27.7457 62.9664 27.9405C62.7909 28.3276 62.6253 28.7221 62.43 29.0953C62.06 29.8572 61.6323 30.5763 61.1939 31.2848C59.7476 33.5146 58.0369 35.4608 56.2594 37.26C54.4794 39.0583 52.6178 40.7094 50.7975 42.3327L50.1176 42.9401C50.0188 43.028 49.8556 43.1768 49.7213 43.2861C49.5812 43.4036 49.446 43.5113 49.3125 43.6157C48.7818 44.0266 48.3055 44.3628 47.9396 44.6767L47.8086 44.7918C47.7699 44.8288 47.7279 44.8666 47.6916 44.9019C47.629 44.9628 47.526 45.0704 47.4328 45.1723C47.2433 45.377 47.0488 45.5973 46.8461 45.8266C46.6434 46.0559 46.4316 46.2959 46.2058 46.54C46.0937 46.6616 45.9759 46.7857 45.8556 46.909L45.6702 47.0947C45.6067 47.1572 45.5433 47.2197 45.4839 47.2731L44.7588 47.9405L43.9907 48.5848C43.7204 48.7895 43.4518 48.9966 43.1757 49.1955L42.7497 49.4815L42.5363 49.6237C42.4654 49.6706 42.3904 49.7125 42.3179 49.7569L41.8787 50.0182C41.8053 50.0634 41.732 50.1029 41.6578 50.1423L41.4361 50.2607C41.2886 50.3379 41.1403 50.4218 40.9936 50.4933L40.5536 50.7078L40.3335 50.8138L40.1176 50.9124L39.6858 51.1097L38.8395 51.4861C39.0019 50.9839 39.142 50.4744 38.4407 50.3905C38.4407 50.3905 38.2701 50.4711 37.9924 50.6009C37.7139 50.73 37.3331 50.9133 36.9112 51.1179C36.6986 51.2182 36.4811 51.3316 36.2586 51.4434C36.0369 51.5568 35.8094 51.6653 35.5944 51.7836C35.1617 52.0171 34.7439 52.2291 34.4201 52.4182C34.0649 52.5513 33.732 52.6664 33.4238 52.7724C33.1181 52.8825 32.8354 52.977 32.5742 53.0576C32.0492 53.2154 31.6199 53.3321 31.2664 53.3937C30.5593 53.517 30.1605 53.4315 30.0072 53.194C29.8531 52.9557 29.9438 52.5645 30.2091 52.0771C30.3418 51.833 30.519 51.5658 30.7299 51.2815C30.9442 51.0004 31.1988 50.7078 31.4765 50.4037C31.6257 50.2599 31.7773 50.1095 31.9388 49.959C32.102 49.8095 32.2693 49.6558 32.4423 49.498C32.6162 49.3402 32.7942 49.1774 32.9813 49.0131C33.1716 48.8528 33.3661 48.6876 33.5663 48.5183L33.5688 48.5142Z" fill="#EF8D2B"/>
</g>
<defs>
<clipPath id="clip0_244_249">
<rect width="66" height="57" fill="white"/>
</clipPath>
</defs>
</svg>
