<svg width="126" height="118" viewBox="0 0 126 118" fill="none" xmlns="http://www.w3.org/2000/svg">
<path d="M37.3363 5.25826C37.3203 5.95832 37.3042 6.66006 37.2875 7.3618L37.2793 7.36454C37.2902 7.47467 37.3005 7.58426 37.3108 7.69331L37.3112 7.69698L37.3116 7.70165L37.3122 7.70785L37.3123 7.70893C37.3249 7.84169 37.3373 7.97366 37.3506 8.10484C37.3563 8.16806 37.3628 8.23129 37.3693 8.29412L37.3694 8.29525L37.3696 8.2969C37.3753 8.35278 37.3811 8.40905 37.3862 8.46402C37.3886 8.48012 37.3908 8.49811 37.3928 8.51632L37.3973 8.55932C37.4002 8.58757 37.4028 8.61296 37.4054 8.62853L37.4246 8.72997C37.4476 8.85745 37.4699 8.98316 37.4919 9.10708C37.5173 9.24969 37.5422 9.38995 37.5672 9.52785C37.6631 10.0433 37.7536 10.5314 37.8386 10.992C38.6802 14.592 39.8618 16.3989 40.7035 9.18512V4.87497H41.3203C41.7809 5.04222 41.9536 5.21495 42.0331 5.39043C42.0924 5.52594 42.0961 5.66145 42.0997 5.79569C42.1008 5.83529 42.1019 5.87477 42.1044 5.91412L43.5382 5.94976L45.2215 5.98541L53.9615 6.11976C54.442 6.12518 54.9218 6.13241 55.4028 6.13965C56.3793 6.15434 57.3607 6.16911 58.3617 6.16911C60.9193 6.16438 63.4564 6.06367 65.9697 5.96391C66.3686 5.94807 66.767 5.93226 67.1647 5.91686L67.2239 5.91462C68.6568 5.86054 70.0794 5.80685 71.4991 5.78251C71.944 5.77913 72.3881 5.77368 72.8321 5.76822C73.8299 5.75596 74.827 5.74371 75.8307 5.75509C83.0765 5.72767 90.306 5.96073 97.4531 6.2733C101.028 6.43781 104.584 6.62425 108.118 6.8436C109.085 6.9067 110.051 6.97063 111.016 7.03447L111.019 7.03467C111.813 7.08727 112.607 7.13982 113.401 7.19181C114.218 7.25314 115.036 7.31209 115.851 7.37088L116.03 7.38374L116.359 7.40841L116.523 7.42212L116.586 7.43035L116.827 7.46051L117.288 7.52357L116.814 7.47148L116.57 7.44132H116.54L116.479 7.43583L115.978 7.40293L113.302 7.2302L107.948 6.90666C104.378 6.69828 100.809 6.51732 97.2365 6.35281C90.0948 6.0375 82.9477 5.77977 75.8307 5.75783C74.8257 5.75404 73.8259 5.77386 72.8251 5.7937C72.379 5.80254 71.9324 5.81139 71.4854 5.81815C70.0406 5.8538 68.5876 5.9196 67.1263 5.98815C66.7015 6.00808 66.2757 6.02853 65.8491 6.04902C63.3414 6.16949 60.8038 6.29139 58.2383 6.31717C57.2557 6.32428 56.2961 6.31871 55.3402 6.31317C54.8212 6.31017 54.3033 6.30716 53.7833 6.3062C53.0441 6.30208 52.3043 6.29864 51.564 6.29521C50.8274 6.29179 50.09 6.28837 49.353 6.28427C48.1487 6.27599 46.9445 6.2684 45.7395 6.26082L45.7368 6.2608C44.5481 6.25331 43.3582 6.24582 42.1674 6.23765C42.2442 6.43781 42.4224 6.62699 42.7158 6.79699C43.0064 6.96972 43.4066 7.12052 43.8837 7.24116C43.9714 7.27406 44.0646 7.30148 44.1605 7.32616C44.2072 7.33713 44.2565 7.34809 44.3086 7.35906C44.3333 7.3618 44.3607 7.36729 44.3853 7.37277L44.3962 7.37463L44.4051 7.37643C44.4209 7.37978 44.4331 7.38236 44.5197 7.38648C45.2243 7.42212 46.0385 7.4468 46.9404 7.46051C48.7416 7.48793 50.8828 7.4797 53.1336 7.46051C54.2597 7.44955 55.4132 7.43859 56.5668 7.42763L56.5687 7.42761C57.7558 7.41938 58.9511 7.38648 60.0998 7.34535C61.1275 7.30742 62.1263 7.26239 63.0771 7.21952C64.2569 7.16633 65.3629 7.11647 66.3587 7.08762C66.7939 7.08003 67.228 7.07169 67.6614 7.06337C69.4207 7.02958 71.1693 6.99599 72.9356 7.01359H74.5888C74.8668 7.0177 75.1449 7.02113 75.423 7.02455C75.7012 7.02798 75.9801 7.03141 76.2584 7.03553L76.2747 7.03573C77.3824 7.04937 78.4955 7.06308 79.6167 7.09036C84.1156 7.18084 88.6775 7.31245 93.2531 7.47696C97.8287 7.64147 102.415 7.83066 106.974 8.05C109.253 8.1679 111.525 8.2858 113.784 8.4037C114.349 8.43386 114.914 8.46676 115.476 8.49966L116.32 8.54901L116.424 8.5545L116.474 8.55724H116.479L116.501 8.56272L116.542 8.57095C116.644 8.59288 116.734 8.61482 116.803 8.64224C116.778 8.75465 116.753 8.85062 116.729 8.92739L116.718 8.9548V8.98771L116.677 10.0461C116.666 10.3271 116.655 10.6081 116.645 10.8892L116.645 10.9071C116.634 11.1822 116.624 11.4572 116.614 11.7323C116.49 15.3625 116.433 18.9954 116.446 22.6393C116.466 26.2859 116.548 29.938 116.773 33.6395L116.86 35.0296L116.976 36.4334L117.036 37.1353L117.085 37.7659C117.092 37.8538 117.099 37.9415 117.105 38.0294C117.128 38.3195 117.152 38.6111 117.154 38.912C117.211 40.4611 117.129 42.1035 116.989 43.8226C116.929 44.5968 116.854 45.3893 116.778 46.1999C116.517 48.983 116.236 51.9794 116.424 55.1793C116.446 55.6536 116.499 56.1362 116.553 56.6215L116.625 57.2631C116.641 57.3727 116.652 57.5098 116.663 57.6551C116.681 57.9061 116.685 58.2041 116.69 58.5508C116.696 59.0334 116.704 59.6108 116.753 60.2873C116.775 60.5752 116.811 60.885 116.858 61.2031L116.94 61.6692L116.995 61.9543C117.069 62.3327 117.129 62.6919 117.178 63.0346C117.228 63.3773 117.261 63.7036 117.285 64.0271C117.296 64.1889 117.307 64.3507 117.31 64.5124L117.315 64.7537V65.0635C117.326 68.4662 117.321 71.8852 117.307 75.2878C117.295 78.6833 117.282 82.0562 117.269 85.353L117.263 86.9354C117.258 88.3688 117.252 89.7859 117.247 91.1822L117.126 91.1877L117.052 91.1931L117.014 91.1959H116.948L116.663 91.1904C115.388 91.1696 114.128 91.1508 112.888 91.1322L112.197 91.1219C112.075 91.1209 111.953 91.1194 111.832 91.1179C111.589 91.1148 111.347 91.1118 111.106 91.1136C110.928 91.1177 110.749 91.1211 110.571 91.1245C110.39 91.128 110.208 91.1314 110.029 91.1356C109.644 91.1444 109.261 91.1541 108.881 91.1636C108.555 91.1719 108.23 91.1801 107.907 91.1877C106.508 91.226 105.143 91.2727 103.813 91.3275C89.3409 92.002 94.7911 94.3627 109.192 95.2044L109.192 95.2179L109.192 95.2247L109.192 95.2288C109.189 95.405 109.184 95.7194 109.184 95.8789C99.013 95.6408 99.6096 96.4113 100.206 97.1811C100.454 97.5017 100.702 97.8222 100.173 98.0697C103.66 98.0697 107.15 98.108 110.637 98.2067C112.173 98.2672 113.707 98.3768 115.243 98.4865L115.857 98.5303L116.836 98.6043L117.433 98.6372L119.876 98.7743C120.744 98.8265 121.611 98.878 122.479 98.9295L122.506 98.9311C123.316 98.9791 124.126 99.0272 124.937 99.0759L124.981 97.9051V87.3683C124.975 80.3163 124.967 73.3329 124.956 66.4016V65.1019L124.951 64.3753C124.945 64.1094 124.934 63.8434 124.918 63.5775C124.849 62.5109 124.693 61.4827 124.523 60.5642L124.46 60.2215L124.435 60.0679L124.43 60.0275C124.418 59.932 124.404 59.8278 124.397 59.7033C124.375 59.4264 124.367 59.0727 124.367 58.6504L124.366 58.5269C124.364 58.135 124.361 57.6832 124.334 57.1753C124.32 56.8984 124.293 56.594 124.257 56.287L124.202 55.7304C123.917 52.9125 124.233 49.8172 124.573 46.485L124.602 46.1998C124.772 44.4752 124.942 42.6848 124.992 40.8121L124.993 40.6693C124.994 40.5405 124.996 40.4118 124.997 40.283C125.001 39.9886 125.004 39.694 125.003 39.3973C124.997 39.2258 124.993 39.055 124.989 38.8842V38.8831C124.981 38.5764 124.974 38.2692 124.956 37.9579L124.852 36.5376L124.751 35.312C124.493 32.0328 124.372 28.6768 124.293 25.3208C124.216 21.962 124.194 18.5923 124.205 15.2226C124.208 13.5391 124.224 11.8529 124.246 10.1667L124.317 6.34184L124.438 1.53542L115.794 1.12415C114.966 1.08933 114.137 1.05385 113.308 1.01836C112.44 0.981207 111.571 0.943996 110.703 0.907543C107.306 0.76771 103.904 0.636102 100.496 0.518204C93.678 0.285148 86.8352 0.0795113 79.9073 0.0137075C86.9284 0.112413 93.7849 0.359178 100.587 0.63336C103.986 0.770452 107.372 0.921252 110.75 1.07754C111.614 1.11826 112.479 1.1597 113.344 1.20112L113.345 1.20118C114.168 1.24062 114.991 1.28004 115.813 1.31882L124.216 1.7438L124.101 5.96347L124.021 9.67042C123.991 11.1921 123.972 12.7166 123.958 14.2438C123.931 17.2954 123.936 20.3526 123.983 23.4152C124.029 26.4778 124.117 29.5459 124.29 32.5976C124.305 32.8274 124.319 33.0577 124.333 33.2881C124.366 33.8192 124.399 34.351 124.441 34.8788C124.471 35.2513 124.502 35.6239 124.533 35.9968L124.533 35.9984C124.566 36.4016 124.6 36.8051 124.633 37.2093C124.781 38.9888 124.756 40.7353 124.663 42.4188C124.647 42.3821 124.63 42.3333 124.614 42.283C124.581 42.1868 124.547 42.0846 124.509 42.0487C124.452 41.9938 124.394 42.098 124.312 42.5998C124.372 40.919 124.369 39.1862 124.21 37.4287L124.153 36.7761L123.98 35.0652C123.928 34.5445 123.889 34.0174 123.851 33.4909L123.85 33.4881C123.833 33.2476 123.815 33.0072 123.796 32.7676C123.585 29.694 123.481 26.6039 123.429 23.5221C123.38 20.4403 123.385 17.364 123.429 14.2931C123.454 12.7577 123.481 11.225 123.522 9.69236L123.616 6.18008L123.744 2.19072C119.322 1.9467 114.903 1.70267 110.475 1.45591C107.01 1.27495 103.539 1.1077 100.049 0.976089C93.0694 0.704648 86.0209 0.545622 78.8135 0.67723V0.0082238C76.4091 -0.00822716 73.9911 -1.68011e-06 71.5457 0.0466094C69.6812 0.0820678 67.831 0.158781 66.0047 0.234501C65.4303 0.258318 64.8582 0.282036 64.2888 0.304341C61.9064 0.397563 59.5625 0.471593 57.2568 0.444174C54.847 0.405789 52.4317 0.367403 50.0082 0.329018C48.1495 0.326276 46.4113 0.39208 44.7938 0.501753L44.0537 0.535759C42.8852 0.58942 41.7497 0.641567 40.6487 0.693681C39.256 0.76771 37.9674 0.847223 36.7858 0.934961C36.8054 1.24935 36.826 1.55568 36.8464 1.85694C36.8575 2.02072 36.8684 2.183 36.879 2.34426C36.8873 1.91654 36.8955 1.49155 36.9064 1.05834L41.3395 1.15705C41.7066 1.16536 42.0736 1.17297 42.441 1.18059C42.8006 1.18805 43.1611 1.19553 43.5218 1.20366L44.5389 1.22559L45.1475 1.24753C46.7705 1.30237 48.4017 1.3572 50.0384 1.41204C50.9173 1.43854 51.7978 1.46425 52.6803 1.49002C53.4411 1.51224 54.2036 1.53451 54.9677 1.55736L55.505 1.57164C56.9798 1.6111 58.3891 1.64881 59.8421 1.63413C61.929 1.6218 64.0487 1.5495 66.2005 1.47611C67.3984 1.43526 68.6063 1.39406 69.824 1.36269C70.6739 1.33801 71.5292 1.32704 72.3818 1.32156C72.6862 1.3196 72.9912 1.3159 73.2963 1.31219C73.846 1.30552 74.3959 1.29884 74.9424 1.30237L75.4078 1.30382C76.9556 1.30858 78.505 1.31334 80.0499 1.34075C86.8571 1.43397 93.6725 1.65606 100.48 1.91654C103.885 2.04814 107.281 2.19346 110.673 2.35249L115.75 2.59925C116.291 2.62725 116.831 2.65461 117.371 2.68194C117.941 2.71082 118.511 2.73967 119.081 2.76924C119.441 2.78862 119.803 2.80712 120.164 2.82561C121.08 2.87253 121.995 2.9194 122.892 2.98036L122.891 2.99976V3.00225C122.856 4.13007 122.82 5.25787 122.788 6.38297C122.774 6.90529 122.761 7.42761 122.748 7.94992C122.735 8.47224 122.722 8.99456 122.708 9.51688C122.693 10.2712 122.677 11.0233 122.66 11.7744L122.66 11.7971C122.645 12.51 122.629 13.222 122.615 13.934C122.621 13.2769 122.628 12.6146 122.635 11.9477C122.643 11.1591 122.651 10.3641 122.659 9.56349C122.667 9.0671 122.675 8.56942 122.684 8.07047C122.693 7.53594 122.702 6.99995 122.711 6.46248C122.722 5.93445 122.735 5.40459 122.747 4.87319C122.761 4.27604 122.775 3.67695 122.788 3.07633C121.426 3.00124 120.044 2.9404 118.658 2.87942C118.121 2.85579 117.584 2.83214 117.047 2.80763C115.72 2.75279 114.388 2.69796 113.052 2.64312C111.687 2.58994 110.319 2.53602 108.952 2.48212L108.947 2.48195C107.708 2.43308 106.469 2.38425 105.234 2.33604C100.033 2.13314 94.8925 1.92476 90.0154 1.69445C85.5713 1.52445 81.2315 1.42301 76.9547 1.4093C74.8163 1.40107 72.6889 1.43123 70.5752 1.48333C69.0493 1.52885 67.5435 1.59723 66.0567 1.66475C65.4839 1.69076 64.9136 1.71666 64.3464 1.74106C62.3067 1.83154 60.2999 1.90283 58.3233 1.91379C57.8271 1.91654 57.3363 1.91379 56.8456 1.90831C56.3384 1.90008 55.8367 1.8946 55.3323 1.88912C54.3207 1.87267 53.3147 1.85896 52.3086 1.84525C47.3217 1.75203 42.3703 1.66155 37.4164 1.57107L37.3917 2.87892C37.3727 3.6682 37.3546 4.46214 37.3363 5.25826Z" fill="#EF8D2B"/>
<path fill-rule="evenodd" clip-rule="evenodd" d="M62.5464 116.821L62.5688 116.822C63.2374 116.838 63.9073 116.854 64.5767 116.87L64.5712 116.854C66.1821 116.688 67.6476 116.52 68.9767 116.368L69.5937 116.297C75.4222 115.456 78.3474 114.274 66.6685 113.432H57.9148C56.7634 113.098 57.4268 112.738 58.1177 112.396C49.3489 112.32 40.5775 112.244 31.8063 112.167C23.1146 112.091 14.4232 112.016 5.73528 111.941L5.75447 110.663L5.74625 111.932C13.2523 111.952 20.7961 111.973 28.3654 111.993L28.4836 111.994L28.6899 111.994C38.6656 112.021 48.6853 112.049 58.7208 112.075C59.3623 111.675 59.1951 111.315 55.0033 111.074C51.5127 110.773 42.8078 110.832 33.8752 110.892C27.8642 110.933 21.7501 110.974 17.0523 110.907L16.4224 110.895C15.65 110.88 14.8759 110.865 14.1001 110.85L14.0464 110.849C12.8619 110.826 11.6734 110.803 10.4809 110.781C10.2057 110.777 9.92989 110.772 9.65405 110.767C9.37746 110.762 9.10088 110.757 8.82498 110.753L7.99704 110.74L7.77771 110.726L7.00734 110.677L7.04573 110.04L7.06218 109.739L7.07863 108.519L7.08041 108.355C7.09901 106.627 7.11768 104.894 7.13895 103.156C7.17184 99.5722 7.20474 95.9694 7.23764 92.3584C7.28424 85.1337 7.33359 77.8679 7.38293 70.6212C7.47067 56.1279 7.56387 41.7087 7.78593 27.8323V27.5526C7.78593 27.4868 7.78868 27.506 7.78868 27.506V27.5005L7.79691 27.4786L7.81061 27.4375C7.81883 27.4155 7.8298 27.3936 7.83803 27.3799C7.89835 27.3963 7.94221 27.41 7.97237 27.4237L12.0189 27.4621L20.2078 27.5142C23.0727 27.5307 25.8828 27.4073 28.627 27.2647L32.6955 27.0563C34.0361 26.9878 35.3602 26.9439 36.6981 26.9138C42.0468 26.7822 47.4833 26.8178 52.9142 26.8864C58.3479 26.9631 63.7926 27.0892 69.24 27.2455C71.6827 27.3113 74.1419 27.3854 76.612 27.4758C77.1906 27.4982 77.7699 27.5198 78.3496 27.5414L78.3509 27.5414C78.9106 27.5623 79.4707 27.5832 80.0307 27.6047C80.1129 27.6047 80.2007 27.602 80.2884 27.6047V27.7802L80.2692 29.0908L80.2199 34.3441C80.2034 37.8482 80.2144 41.355 80.2829 44.8618C80.3542 48.3713 80.4693 51.8671 80.7462 55.4123L80.7983 56.0758L80.8394 56.6708C80.8455 56.7844 80.8531 56.8975 80.8608 57.0107C80.8775 57.2579 80.8943 57.5065 80.8943 57.7621L80.8969 57.8718L80.8987 57.9469C80.9063 58.255 80.9139 58.5631 80.9025 58.8807L80.9007 59.0077C80.8961 59.3412 80.8915 59.6759 80.8696 60.0213C80.8011 61.5595 80.6393 63.158 80.4666 64.814L80.4414 65.0556C80.2763 66.6367 80.1054 68.273 80.0115 69.9659C79.9128 71.7454 79.9046 73.5934 80.0938 75.4743L80.1596 76.1378L80.1651 76.1926C80.1748 76.2862 80.1851 76.3861 80.1897 76.5052C80.2062 76.7821 80.2116 77.1166 80.2116 77.5224L80.2124 77.6381C80.2146 78.0161 80.2172 78.4436 80.2445 78.9207C80.2583 79.1812 80.2829 79.4636 80.3158 79.7543L80.3224 79.8008L80.3272 79.8351L80.3404 79.9337C80.3522 80.0228 80.3641 80.1119 80.3789 80.2039L80.4529 80.6207C80.5954 81.35 80.7024 81.9971 80.7599 82.6003C80.7874 82.9046 80.8065 83.2007 80.8148 83.4996C80.8203 83.867 80.823 84.2371 80.8257 84.6045C80.8696 90.8367 80.9518 96.7975 81.0944 102.361C81.7688 125.718 84.1293 116.958 84.9709 93.6032H85.6453C85.4073 110.094 86.1777 109.121 86.9474 108.15C87.268 107.745 87.5884 107.341 87.8358 108.198C87.8358 102.363 87.8797 96.526 87.9839 90.6887L88.0743 86.3072L88.1292 84.1165L88.1429 83.5407C88.1484 83.3186 88.1484 83.0993 88.1429 82.8772C88.1347 82.4358 88.11 81.9916 88.0743 81.5584C88.0387 81.1252 87.9921 80.7002 87.9373 80.2917L87.8523 79.6885L87.77 79.1401C87.7316 78.8056 87.7344 78.2901 87.7618 77.5745L87.7639 77.5053C87.7745 77.1658 87.7863 76.7831 87.7837 76.3571C87.7837 76.1323 87.7755 75.891 87.7618 75.6388C87.7563 75.5154 87.7454 75.381 87.7344 75.2522C87.7262 75.1754 87.7262 75.148 87.7262 75.1069L87.7207 74.9917C87.7163 74.8678 87.7102 74.7447 87.704 74.6217C87.6948 74.4371 87.6856 74.2525 87.6823 74.065V73.119C87.6796 72.7982 87.6768 72.4363 87.6741 72.0442C87.6823 71.6439 87.6933 71.2135 87.7125 70.7556C87.7618 69.8343 87.8331 68.8144 87.94 67.756C87.9979 67.1646 88.0595 66.561 88.1204 65.9644L88.1205 65.9632C88.2758 64.4419 88.4264 62.9652 88.4993 61.8529C88.6172 60.1694 88.672 58.4174 88.5651 56.6105L88.4719 55.3191L88.3814 54.184C88.3361 53.6668 88.3051 53.1392 88.2741 52.611L88.274 52.6096C88.26 52.371 88.2459 52.1324 88.2306 51.8946C88.0551 48.8237 87.9674 45.7172 87.9153 42.6162C87.8633 39.5125 87.8523 36.406 87.8687 33.3077L87.8703 33.1562L87.8704 33.1444C87.8863 31.6473 87.9021 30.1552 87.9153 28.6631C87.9373 27.3771 87.9619 26.0912 87.9866 24.8053C88.0222 23.3138 88.0579 21.8249 88.0963 20.3361C86.7365 20.2725 85.378 20.2094 84.0203 20.1464C82.4545 20.0737 80.8899 20.001 79.3261 19.9276L74.2406 19.722C70.8548 19.5931 67.4745 19.4752 64.0969 19.3737C57.3418 19.1736 50.6086 19.0173 43.8535 19.0091C40.4814 18.9954 37.0847 19.0475 33.6687 19.1709C32.1744 19.2334 30.6974 19.3133 29.2365 19.3924C27.366 19.4936 25.5215 19.5934 23.7005 19.6534C22.8918 19.6808 22.0858 19.7 21.2852 19.7082L18.8288 19.7137H13.8283C12.3092 19.7128 10.7905 19.7116 9.27193 19.7104C6.23831 19.7079 3.20551 19.7055 0.172714 19.7055L0.16449 63.9997C0.145294 77.569 0.109665 91.1822 0.043869 104.897C0.0832977 98.6462 0.122726 92.4537 0.161926 86.3019L0.168747 85.2283C0.214432 78.057 0.259735 70.9398 0.304306 63.8489L0.386551 43.6115C0.403 35.737 0.416718 27.8624 0.43042 19.9605C5.20587 19.9659 9.9921 19.9741 14.7917 19.9822L14.9249 19.9824C16.7754 19.9852 18.6287 19.9852 20.4847 19.9852C22.2722 19.9852 24.0788 19.9249 25.9157 19.8399L26.2255 19.8239C27.9813 19.7332 29.7397 19.6424 31.5029 19.5492C32.4487 19.5026 33.4 19.456 34.3596 19.4204C35.2897 19.3964 36.2199 19.3698 37.1526 19.3431L37.2327 19.3408C41.0571 19.2613 44.8706 19.2558 48.7005 19.2942C48.6419 19.3134 48.5638 19.3333 48.4841 19.3535C48.12 19.4459 47.7233 19.5465 49.0076 19.6342C45.1557 19.6562 41.3203 19.7 37.4822 19.807C36.9923 19.8237 36.5024 19.8412 36.0129 19.8586L36.0083 19.8588C35.5378 19.8755 35.0676 19.8923 34.5981 19.9084C33.6413 19.955 32.6845 20.0044 31.7277 20.0537C29.847 20.1607 27.9718 20.2676 26.0993 20.3745C24.2461 20.4677 22.4147 20.5335 20.6053 20.539H15.0099C12.6942 20.5309 10.3812 20.5235 8.0708 20.516L8.06636 20.516C5.69551 20.5084 3.32748 20.5007 0.96228 20.4924C0.95816 21.8369 0.953354 23.1815 0.948547 24.5256L0.948502 24.5328C0.943726 25.8698 0.938965 27.2064 0.93486 28.5424L0.901962 33.708C0.88826 35.4268 0.875244 37.1456 0.862244 38.864C0.849213 40.5859 0.836182 42.3074 0.822464 44.0283C0.767624 50.9075 0.715546 57.7867 0.663452 64.6934C0.575714 78.5067 0.542816 92.427 0.707321 106.657H0.0383759C0.0314484 108.512 0.0252075 110.368 0.0189514 112.229L0.0186768 112.312L0.0185852 112.333L0.0185394 112.353C0.0125885 114.127 0.00660706 115.907 0 117.696C1.42644 117.7 2.85352 117.704 4.28163 117.709L4.37241 117.709C5.8235 117.714 7.27557 117.719 8.72902 117.723C10.363 117.731 11.9969 117.742 13.6336 117.753C15.3031 117.766 16.9741 117.778 18.6468 117.79C20.2565 117.801 21.8678 117.812 23.4812 117.825C26.3895 117.85 29.3048 117.876 32.227 117.902L32.2305 117.902C35.9183 117.935 39.6171 117.968 43.3271 118C49.8711 118 55.4913 117.682 60.193 117.284C51.0692 117.057 41.7754 116.876 32.3665 116.733C27.662 116.67 22.9274 116.607 18.1709 116.544C17.0005 116.532 15.8289 116.519 14.6563 116.506C13.4446 116.493 12.2317 116.48 11.0182 116.467L1.29674 116.402C1.36624 103.967 1.43573 91.4275 1.50523 78.8852L1.55994 69.0145C1.63121 53.5122 1.70248 38.0456 1.77377 22.8175C1.78719 33.3047 1.8006 44.5306 1.81403 55.7694V55.7711L1.8149 56.4844C1.8149 67.4298 1.77103 78.3751 1.60379 88.5912L1.57613 91.5009L1.57608 91.5045L1.57603 91.5072V91.5083C1.54428 94.8421 1.51289 98.1374 1.48317 101.398L1.44205 107.669C1.42871 110.477 1.41798 113.27 1.40732 116.047L1.4064 116.289C8.53462 116.322 15.536 116.354 22.4532 116.386L32.4542 116.432C41.822 116.495 51.0582 116.588 60.2944 116.766L61.0479 116.785C61.5461 116.797 62.0459 116.809 62.5464 116.821ZM5.75447 110.663C5.76889 107.97 5.78268 105.282 5.79645 102.6C5.81146 99.672 5.82646 96.7508 5.84219 93.8363C5.88881 87.977 5.93541 82.1396 5.98201 76.3325C6.09715 64.7181 6.25891 53.2243 6.4892 41.8814C6.32196 53.4793 6.18489 65.08 6.067 76.6834L5.75447 110.663Z" fill="#EF8D2B"/>
<path fill-rule="evenodd" clip-rule="evenodd" d="M67.0715 45.5253L67.077 45.528C67.3484 45.3909 67.5951 45.2539 67.8117 45.1332C68.6643 44.5382 69.0947 43.702 67.384 43.1043H66.1037C65.9365 42.8685 66.0325 42.6135 66.1339 42.3694C64.1074 42.2749 62.0808 42.1967 60.0543 42.1184C59.3174 42.0899 58.5804 42.0615 57.8435 42.0322C59.4668 42.0627 61.1004 42.0801 62.7404 42.0975L62.7418 42.0975C63.8989 42.1098 65.0593 42.1221 66.2216 42.1391C66.3148 41.854 66.2902 41.6017 65.6761 41.429C65.1655 41.2146 63.894 41.2562 62.588 41.2988C61.7061 41.3277 60.8085 41.357 60.119 41.3084C57.5184 41.0443 54.7859 40.9634 52.0676 40.8828C49.8742 40.8179 47.69 40.7531 45.5916 40.5927C42.1757 40.3542 38.757 40.4721 35.3383 40.5927C33.312 40.6956 31.2056 40.6654 29.1567 40.636C26.4545 40.5973 23.8524 40.5599 21.6663 40.8313C18.2476 41.3111 19.5307 42.9809 22.9493 43.5786V44.0557C20.5367 43.8873 20.6787 44.4318 20.8209 44.9769C20.8802 45.2042 20.9395 45.4317 20.8137 45.6075C22.5217 45.6075 24.2324 45.7254 25.9403 46.0846H27.6483C31.0603 46.0846 34.4033 46.0579 37.7146 46.0315L37.7157 46.0315H37.7168C44.1294 45.9802 50.4237 45.9299 56.8703 46.0764C50.573 45.8461 44.6787 45.7309 38.3732 45.8461C38.3813 45.8327 38.3922 45.8186 38.4033 45.8041C38.4557 45.7359 38.5143 45.6596 38.3266 45.6075C41.793 45.2842 45.1351 45.4158 48.4878 45.548C51.3318 45.66 54.1835 45.7724 57.1252 45.6075V46.0819C59.3815 46.134 61.6542 46.2107 63.9599 46.3232C64.9194 46.3232 65.7419 46.0983 66.43 45.8159C61.3312 45.198 55.8729 45.0889 50.4772 44.981C48.6663 44.9447 46.8625 44.9087 45.0817 44.8535C45.8115 44.8535 46.567 44.8465 47.3356 44.8394C49.7143 44.8172 52.2191 44.7939 54.4797 44.9742C56.2826 45.0748 58.0089 45.1115 59.6911 45.1473C61.9969 45.1963 64.2198 45.2436 66.4437 45.4513L67.0715 45.5253ZM47.6532 41.5113C50.9732 41.8375 54.3837 41.9664 57.8435 42.0322C54.4468 41.8979 51.05 41.7498 47.6532 41.5113Z" fill="#EF8D2B"/>
<path d="M65.3114 63.6131C65.2114 63.6008 65.1115 63.5878 65.0115 63.5748C64.9113 63.5617 64.8112 63.5487 64.711 63.5364C62.7811 63.3361 60.8526 63.254 58.8676 63.1694C57.0743 63.093 55.2347 63.0146 53.3063 62.8454C51.2077 62.6084 48.8832 62.551 46.6666 62.4962C45.8832 62.4769 45.1133 62.4579 44.3716 62.4314C46.4405 62.573 48.5429 62.6853 50.6519 62.798C55.4042 63.0518 60.1895 63.3075 64.6973 63.9038C64.0366 64.1862 63.2471 64.4 62.3287 64.3891C60.1217 64.2547 57.9504 64.1286 55.7983 64.0217L55.8093 63.5473C52.9387 63.6424 50.1711 63.4327 47.4125 63.2237C44.2855 62.9868 41.1699 62.7508 37.929 62.9606C38.1054 63.0194 38.0468 63.0931 37.9947 63.1586C37.9836 63.1726 37.9729 63.1861 37.9647 63.1991C37.9208 63.2649 37.9455 63.3197 38.3238 63.3307C37.9455 63.317 37.9236 63.2649 37.9647 63.1991C43.9494 63.2841 49.5504 63.6213 55.5516 64.0107C46.2304 63.5473 37.2738 63.3444 27.8018 63.1607L26.9955 63.1457C26.6922 63.1402 26.3888 63.1347 26.1871 63.1306C24.5778 62.7522 22.963 62.6096 21.3483 62.6096C21.4675 62.4348 21.412 62.2076 21.3565 61.9803C21.2231 61.4343 21.0896 60.8879 23.3798 61.066C23.3798 60.9481 23.3825 60.7068 23.3852 60.5889C20.1448 59.9747 18.9056 58.2995 22.1817 57.8361C24.4005 57.5589 27.0569 57.657 29.7976 57.7582C31.6116 57.8252 33.4626 57.8935 35.2478 57.8553C38.5103 57.8361 41.7672 57.8361 45.0022 58.187C47.1204 58.4323 49.3304 58.5714 51.5431 58.7107C53.9813 58.8642 56.4228 59.0178 58.7482 59.3139C59.4178 59.3786 60.2954 59.3611 61.1513 59.344C62.3631 59.3198 63.5314 59.2965 64.0037 59.5086C64.5822 59.6813 64.6041 59.9363 64.5137 60.2187L63.9241 60.2054C61.4599 60.15 59.0041 60.0947 56.5742 59.9829C53.3556 59.7718 50.1398 59.5196 46.924 59.1686C50.0658 59.6073 53.2953 59.8376 56.5742 59.9829C58.7017 60.1255 60.8291 60.2446 62.9566 60.3637C63.4473 60.3911 63.938 60.4186 64.4287 60.4463C64.33 60.6903 64.2368 60.9426 64.3958 61.1811C64.3958 61.1811 65.2073 61.1839 65.613 61.1866C67.236 61.7898 66.833 62.6233 66.016 63.2183C65.8076 63.3389 65.5746 63.4733 65.3114 63.6104V63.6131Z" fill="#EF8D2B"/>
<path d="M65.34 80.2889C65.1668 80.3924 64.9785 80.5051 64.7713 80.6179C64.5768 80.5933 64.3819 80.5686 64.1901 80.5439C62.1313 80.3363 60.0724 80.289 57.9373 80.2399C56.3793 80.2042 54.7805 80.1674 53.1116 80.0668C51.019 79.8865 48.6993 79.9098 46.4958 79.932C45.7836 79.9391 45.0836 79.9462 44.4073 79.9462C46.0563 80.0013 47.7264 80.0374 49.4029 80.0736C54.3992 80.1815 59.4524 80.2906 64.1737 80.9086C63.5349 81.191 62.7755 81.4158 61.8873 81.4158C59.7543 81.3034 57.6461 81.2266 55.5571 81.1745V80.7002C52.8331 80.865 50.1928 80.7527 47.5594 80.6406C44.4548 80.5085 41.3598 80.3768 38.1484 80.7002C38.3224 80.7522 38.2673 80.8284 38.218 80.8965C38.2074 80.9111 38.1972 80.9252 38.1895 80.9387C44.0262 80.8236 49.4873 80.9387 55.3158 81.169C49.3467 81.0226 43.5182 81.0729 37.5804 81.1241H37.5791C34.5126 81.1506 31.4162 81.1773 28.2569 81.1773H26.6751C25.0932 80.8181 23.5086 80.7002 21.9267 80.7002C22.0428 80.5245 21.988 80.2974 21.9333 80.0703C21.8018 79.5249 21.6705 78.9799 23.9061 79.1483V78.6712C20.7397 78.0735 19.5526 76.4037 22.7191 75.9239C24.7445 75.6526 27.1531 75.6899 29.6548 75.7286C31.5517 75.758 33.502 75.7882 35.3794 75.6854C38.5459 75.5647 41.7096 75.4468 44.8733 75.6854C46.8162 75.8458 48.8383 75.9105 50.8689 75.9755C53.3856 76.056 55.9153 76.137 58.3233 76.401C58.9609 76.4496 59.7918 76.4203 60.6083 76.3915C61.8175 76.3488 62.9951 76.3072 63.4664 76.5216C64.0339 76.6944 64.0585 76.9466 63.9708 77.2318C62.8953 77.2148 61.8212 77.2024 60.7499 77.1902L60.7476 77.1901C59.2284 77.1727 57.7152 77.1554 56.2123 77.1248C53.0678 76.9905 49.9205 76.8424 46.776 76.6039C49.852 76.9302 53.0074 77.059 56.2123 77.1248C56.8979 77.1542 57.5837 77.1828 58.2695 77.2115C60.1426 77.2896 62.0163 77.3678 63.8886 77.4621C63.7954 77.7061 63.7049 77.9611 63.8612 78.1969H65.0482C66.6301 78.7946 66.2353 79.6309 65.4458 80.2258L65.34 80.2889Z" fill="#EF8D2B"/>
<path d="M65.7199 97.2197C65.5225 97.1073 65.3827 97.0223 65.3197 96.9784C65.2621 96.9345 65.1963 96.8989 65.1223 96.8742C65.1003 96.8633 65.0236 96.8495 64.9496 96.8413C64.8755 96.8331 64.7851 96.8276 64.6918 96.8221C64.504 96.8142 64.2931 96.8165 64.0493 96.8191L64.0229 96.8194H63.6144L63.2224 96.8084C62.2985 96.77 61.3636 96.7563 60.4178 96.7536C59.7343 96.7506 59.0437 96.7534 58.3432 96.7561H58.3421C57.1017 96.7611 55.8297 96.7661 54.5126 96.7399C53.0678 96.6741 51.5215 96.707 49.9753 96.77C48.4373 96.8358 46.8993 96.9016 45.4628 96.9647C45.8818 96.962 46.3028 96.9586 46.7249 96.9552C47.1561 96.9517 47.5883 96.9483 48.0206 96.9455C48.4463 96.9388 48.8726 96.9314 49.2995 96.924L49.3052 96.9239L49.3103 96.9238L49.3149 96.9237C49.7519 96.9161 50.1895 96.9085 50.6278 96.9016L51.06 96.8934C52.6571 96.863 54.2556 96.8326 55.8449 96.8276C57.5776 96.8221 59.2993 96.8441 60.9908 96.9263L62.2546 97.0003C62.6823 97.0332 63.11 97.0662 63.5349 97.0963C63.7259 97.1047 63.8993 97.11 64.0572 97.1147C64.3617 97.1239 64.6085 97.1314 64.8125 97.1566L64.8562 97.163C64.9133 97.1711 64.9655 97.1786 65.0071 97.1895C65.0345 97.195 65.062 97.2032 65.0757 97.2087L65.1031 97.2279C65.1415 97.2553 65.1744 97.291 65.199 97.3266C65.1497 97.3842 65.1113 97.4445 65.0839 97.5021C65.0674 97.5295 65.062 97.5597 65.0482 97.5844C65.0154 97.609 64.9688 97.6337 64.9167 97.6556C64.807 97.7023 64.6507 97.7461 64.4561 97.7845C64.2587 97.8229 64.0229 97.8558 63.7049 97.8668L63.4116 97.8613L62.7975 97.8366C62.7251 97.8337 62.6528 97.831 62.5808 97.8284L62.2514 97.8167C62.161 97.8134 62.0708 97.8101 61.9805 97.8064C61.4349 97.79 60.8921 97.7763 60.3493 97.768C59.2609 97.7516 58.178 97.7461 57.0978 97.7571C57.0951 97.6364 57.0869 97.4006 57.0814 97.2827C54.0969 97.5548 51.1851 97.5466 48.2626 97.5384L48.0179 97.5377H45.7589C45.1283 97.535 44.4895 97.6008 43.7548 97.716C43.5554 97.746 43.3504 97.7788 43.1397 97.8126C42.5804 97.9023 41.9806 97.9985 41.3395 98.0642C41.1202 98.0888 40.8926 98.1053 40.6651 98.1217C40.6075 98.1255 40.5499 98.1291 40.4922 98.1326L40.3416 98.1416C40.2406 98.1475 40.1393 98.1535 40.0373 98.1601C39.6535 98.1848 39.2697 98.2177 38.8831 98.2534C39.0642 98.3054 39.006 98.3818 38.954 98.4501C38.943 98.4645 38.9323 98.4785 38.9242 98.4919C39.1185 98.4891 39.312 98.4856 39.5048 98.4821L39.5087 98.482C39.6928 98.4787 39.8764 98.4754 40.0592 98.4727L40.6898 98.4617C40.9201 98.4535 41.1503 98.4425 41.3697 98.4261C42.1324 98.3676 42.8292 98.2592 43.4635 98.1605L43.5663 98.1445C43.6401 98.133 43.7129 98.1218 43.785 98.1108C44.5032 97.9984 45.131 97.9216 45.7095 97.9079C46.4497 97.8914 47.1899 97.875 47.9274 97.8558C50.8855 97.7927 53.8272 97.7461 56.8483 97.7626C54.5043 97.7845 52.1713 97.8558 49.8355 97.9381C48.6649 97.9792 47.4942 98.0203 46.3264 98.0642L46.27 98.0661C45.6576 98.0868 45.2968 98.099 44.7966 98.1629C44.3793 98.2136 43.9271 98.2857 43.4335 98.3643L43.4318 98.3646L43.4299 98.3649L43.1489 98.4096C42.5458 98.5029 41.8796 98.5961 41.1695 98.64L41.0836 98.644L41.0315 98.6466C40.8981 98.6533 40.7655 98.6598 40.6267 98.6619L40.1305 98.6674L39.2532 98.6756C38.6612 98.6811 38.0685 98.686 37.4743 98.6908L37.4656 98.6909C36.8878 98.6956 36.3087 98.7004 35.7276 98.7058C33.3671 98.7167 30.9875 98.7277 28.5695 98.7387H26.9218C25.2742 98.3795 23.6237 98.2616 21.9761 98.2616C22.0969 98.086 22.04 97.859 21.9831 97.632C21.8463 97.0865 21.7095 96.5413 24.0405 96.7097V96.2326C20.7397 95.6349 19.5005 93.9651 22.804 93.4853C24.9151 93.2144 27.4257 93.2512 30.0332 93.2894C32.0175 93.3184 34.0579 93.3483 36.021 93.244C36.8489 93.2166 37.6741 93.1892 38.4993 93.159L39.7385 93.1261L40.358 93.1152L40.4595 93.1119C40.5787 93.1081 40.6909 93.1046 40.8131 93.096C41.2974 93.0679 41.838 92.9971 42.4577 92.916L42.7392 92.8793C42.8161 92.8693 42.8942 92.8593 42.9735 92.8492C43.3929 92.7971 43.8453 92.745 44.3278 92.7121C44.5718 92.6957 44.8158 92.6847 45.0707 92.682H45.4545C45.4821 92.682 45.5072 92.6822 45.5307 92.6826C45.5401 92.6827 45.5493 92.6829 45.5582 92.6831C45.5671 92.6833 45.5757 92.6835 45.5842 92.6838C45.6345 92.6853 45.6786 92.6876 45.7266 92.6901L45.7835 92.6929C47.7636 92.788 49.8304 92.7695 51.9147 92.7508C54.5775 92.7269 57.269 92.7028 59.8448 92.915C60.4536 92.9451 61.2292 92.9107 62.0102 92.8762C62.2982 92.8634 62.5874 92.8506 62.8687 92.841L64.171 92.7944C64.6124 92.7834 65.0702 92.8191 65.3992 92.9342C65.8872 93.0603 66.101 93.2331 66.175 93.3756C66.249 93.5182 66.1832 93.6416 66.0873 93.7622C65.8543 93.6964 65.6158 93.6553 65.3745 93.6361C65.1305 93.6169 64.9331 93.6142 64.733 93.6169C64.4841 93.6204 64.2529 93.6327 64.0401 93.6441C63.9176 93.6506 63.8013 93.6568 63.6912 93.6608C63.519 93.668 63.3013 93.6657 63.0761 93.6633C63.0112 93.6626 62.9456 93.6619 62.8802 93.6614L62.8327 93.6611L62.7289 93.6608H61.7091L57.6543 93.6937C56.9365 93.6865 56.2191 93.6809 55.5022 93.6753C52.9252 93.6552 50.3538 93.6351 47.7931 93.5429C50.9979 93.754 54.2987 93.7321 57.6543 93.6937C58.995 93.7074 60.3383 93.7266 61.6817 93.7622L63.6501 93.8226L64.6617 93.8116C64.8481 93.8116 65.0455 93.8198 65.2539 93.8363C65.4787 93.8555 65.7035 93.8938 65.9201 93.9487C65.7336 94.1598 65.5966 94.3929 65.7281 94.6588C65.7281 94.6588 65.953 94.7082 66.2134 94.8069C66.2771 94.8313 66.342 94.8574 66.4063 94.8838C66.4739 94.9116 66.5409 94.9398 66.605 94.9668C66.6554 94.988 66.7042 95.0086 66.7501 95.0276C66.8152 95.0545 66.8748 95.0785 66.9262 95.0975C67.1399 95.2991 67.3436 95.4524 67.5187 95.5843C67.8176 95.8093 68.0334 95.9718 68.0749 96.2052C68.1078 96.3779 68.0365 96.5781 67.8309 96.77C67.628 96.9592 67.2771 97.121 66.8768 97.1895C66.5908 97.2211 66.2905 97.2229 66.022 97.2244L65.967 97.2247L65.8823 97.2254C65.828 97.2259 65.7756 97.2267 65.7254 97.2279L65.7199 97.2197Z" fill="#EF8D2B"/>
<path d="M105.998 26.6122L105.834 26.5381C105.251 26.3304 104.667 26.2832 104.061 26.2341C103.62 26.1984 103.166 26.1616 102.692 26.0611C102.1 25.8808 101.441 25.9041 100.816 25.9262C100.615 25.9334 100.416 25.9404 100.225 25.9404C100.692 25.9955 101.166 26.0316 101.641 26.0678C103.058 26.1757 104.49 26.2848 105.828 26.9028C105.648 27.1852 105.431 27.41 105.181 27.41C104.576 27.2976 103.978 27.2209 103.386 27.1688V26.6944C102.613 26.8593 101.864 26.7469 101.117 26.6348C100.237 26.5027 99.3602 26.3711 98.451 26.6944C98.5015 26.7472 98.4848 26.825 98.4699 26.8939L98.4664 26.9106C98.4648 26.9182 98.4633 26.9257 98.462 26.933C100.118 26.8178 101.664 26.933 103.317 27.1633C101.625 27.0168 99.9719 27.0671 98.2883 27.1183C97.4191 27.1448 96.5416 27.1715 95.6465 27.1715H95.1968C94.7472 26.8123 94.3004 26.6944 93.8507 26.6944C93.8838 26.5186 93.8682 26.2913 93.8527 26.0641C93.8153 25.5189 93.778 24.9742 94.4128 25.1425V24.6655C93.5163 24.0678 93.1791 22.398 94.0755 21.9182C94.6494 21.6468 95.3323 21.6841 96.0415 21.7229C96.5793 21.7523 97.1322 21.7825 97.6642 21.6796C98.5607 21.559 99.4599 21.4411 100.356 21.6796C100.907 21.84 101.481 21.9047 102.056 21.9697C102.77 22.0502 103.487 22.1312 104.17 22.3952C104.351 22.4439 104.587 22.4145 104.818 22.3857C105.161 22.343 105.494 22.3015 105.628 22.5159C105.79 22.6886 105.796 22.9409 105.771 23.226C105.466 23.209 105.161 23.1967 104.858 23.1844C104.427 23.167 103.998 23.1496 103.572 23.1191C102.681 22.9847 101.787 22.8367 100.896 22.5981C101.768 22.9244 102.665 23.0533 103.572 23.1191C103.762 23.1478 103.953 23.1758 104.143 23.2037C104.678 23.2825 105.213 23.3612 105.749 23.4563C105.722 23.7003 105.697 23.9553 105.741 24.1911H106.078C106.528 24.7889 106.415 25.6251 106.19 26.2201L106.152 26.3014C106.105 26.4007 106.054 26.5078 105.998 26.6149V26.6122Z" fill="#EF8D2B"/>
<path d="M104.22 44.6978L104.225 44.7H104.219L104.22 44.6978Z" fill="#EF8D2B"/>
<path fill-rule="evenodd" clip-rule="evenodd" d="M102.119 41.174C102.475 41.2081 102.834 41.2299 103.194 41.2518C103.472 41.2687 103.751 41.2857 104.03 41.3084C104.052 41.026 104.046 40.771 103.907 40.5982C103.791 40.3841 103.502 40.4214 103.206 40.4597C103.005 40.4856 102.8 40.5121 102.643 40.4611C102.051 40.1874 101.428 40.0967 100.81 40.0066C100.313 39.9342 99.8185 39.8622 99.3448 39.6962C98.5775 39.4486 97.8049 39.5547 97.0322 39.6608L97.0145 39.6633C96.5519 39.7603 96.074 39.723 95.609 39.6868C94.9964 39.639 94.4062 39.593 93.9028 39.8579C93.1133 40.324 93.36 41.9993 94.1276 42.608L94.1167 43.0851C93.5668 42.9088 93.5858 43.4548 93.6048 44.0003C93.6127 44.2272 93.6206 44.454 93.5876 44.6287C93.9796 44.6342 94.3689 44.7576 94.7554 45.1222C94.7834 45.1222 94.8198 45.1227 94.86 45.1234C94.9579 45.125 95.0775 45.1277 95.1475 45.1277C95.9326 45.1389 96.7021 45.1231 97.4644 45.1074C98.9407 45.0771 100.39 45.0473 101.872 45.2155C100.425 44.9632 99.0734 44.8289 97.6203 44.9248C97.6226 44.9124 97.6253 44.8995 97.6281 44.8863C97.6425 44.8178 97.6585 44.7415 97.6149 44.6863C98.4159 44.3747 99.1824 44.5175 99.9514 44.6608C100.604 44.7823 101.257 44.9041 101.936 44.7494C101.933 44.8673 101.933 45.1031 101.933 45.2237C102.454 45.2868 102.977 45.3717 103.506 45.4897C103.728 45.4924 103.918 45.2703 104.077 44.9906C102.907 44.3554 101.657 44.2286 100.422 44.1033C100.004 44.0609 99.5883 44.0186 99.1775 43.957C99.348 43.9597 99.5245 43.955 99.7041 43.9501C100.247 43.9356 100.817 43.9203 101.332 44.1078C101.747 44.2143 102.144 44.2567 102.53 44.2981C103.059 44.3548 103.569 44.4094 104.079 44.6232L104.132 44.6513C104.161 44.6669 104.191 44.6828 104.22 44.6978C104.283 44.5641 104.34 44.4279 104.389 44.3079C104.587 43.7129 104.683 42.8794 104.293 42.2762C104.195 42.2735 104 42.2707 104 42.2707C103.962 42.0322 103.983 41.78 104.008 41.5359C103.542 41.4346 103.078 41.3498 102.612 41.2648L102.61 41.2644C102.447 41.2346 102.283 41.2047 102.119 41.174ZM99.8026 40.6202C100.554 40.9574 101.332 41.0972 102.119 41.174C101.346 41.0287 100.573 40.8697 99.8026 40.6202Z" fill="#EF8D2B"/>
<path fill-rule="evenodd" clip-rule="evenodd" d="M103.671 61.7048L103.667 61.7028C103.707 61.6081 103.743 61.5135 103.776 61.4243C103.791 61.386 103.805 61.3486 103.819 61.3127C103.997 60.7178 104.088 59.8815 103.728 59.2838H103.46C103.424 59.048 103.443 58.793 103.465 58.549C103.041 58.4545 102.617 58.3762 102.193 58.2979C102.038 58.2694 101.884 58.241 101.73 58.2117C102.07 58.2423 102.412 58.2597 102.756 58.2771C102.998 58.2894 103.241 58.3017 103.484 58.3187C103.504 58.0335 103.498 57.7813 103.369 57.6085C103.263 57.3942 102.998 57.4357 102.724 57.4783C102.54 57.5072 102.352 57.5365 102.207 57.4879C101.662 57.2239 101.09 57.1429 100.52 57.0624C100.061 56.9974 99.6033 56.9327 99.1638 56.7723C98.4483 56.5337 97.7328 56.6516 97.0172 56.7723C96.5928 56.8751 96.1521 56.8449 95.7234 56.8155C95.158 56.7768 94.6135 56.7395 94.1551 57.0108C93.4395 57.4906 93.7082 59.1604 94.4237 59.7581V60.2352C93.9193 60.067 93.949 60.6101 93.9787 61.1546C93.9911 61.3825 94.0036 61.6107 93.9769 61.7871C94.336 61.7871 94.6924 61.905 95.0515 62.2641H95.4107C96.1259 62.2641 96.8265 62.2374 97.5204 62.211C98.8638 62.1597 100.182 62.1095 101.533 62.2559C100.214 62.0256 98.9801 61.9104 97.6587 62.0256C97.6605 62.0135 97.6626 62.0009 97.6648 61.9879C97.6765 61.9186 97.6898 61.8402 97.6505 61.7871C98.3757 61.4637 99.0753 61.5953 99.7774 61.7274C100.373 61.8395 100.971 61.9519 101.587 61.7871V62.2614C102.059 62.3135 102.536 62.3903 103.018 62.5027C103.221 62.5027 103.391 62.2779 103.537 61.9954C102.469 61.3776 101.325 61.2684 100.195 61.1605C99.8159 61.1243 99.438 61.0882 99.0651 61.0331C99.2177 61.0331 99.3758 61.026 99.5368 61.0189C100.035 60.9967 100.561 60.9734 101.034 61.1537C101.411 61.2544 101.772 61.2911 102.125 61.3268C102.608 61.3759 103.073 61.4232 103.539 61.6308L103.667 61.7028L103.665 61.7076L103.671 61.7048ZM101.73 58.2117C101.017 58.0774 100.307 57.9293 99.597 57.6908C100.293 58.0171 101.006 58.1459 101.73 58.2117Z" fill="#EF8D2B"/>
<path fill-rule="evenodd" clip-rule="evenodd" d="M105.274 78.7179C105.299 78.7242 105.324 78.7306 105.349 78.737L105.351 78.7535C105.508 78.6219 105.634 78.4738 105.733 78.3477C105.924 78.0269 105.982 77.6513 105.911 77.3003C105.845 76.9439 105.661 76.6231 105.469 76.3297C105.443 76.3312 105.41 76.3293 105.376 76.3274C105.349 76.3258 105.322 76.3242 105.297 76.3242C105.239 76.316 105.192 76.3105 105.192 76.3105C105.195 76.1329 105.234 75.949 105.273 75.7659C105.286 75.706 105.299 75.6462 105.31 75.5867C105.24 75.5463 105.159 75.4943 105.059 75.4298C104.942 75.3543 104.799 75.2617 104.614 75.1507C104.529 75.1014 104.439 75.0493 104.334 74.9972C104.233 74.9451 104.11 74.8902 103.992 74.8436C103.753 74.7477 103.504 74.6791 103.249 74.6298C103.506 74.6627 103.761 74.7175 104.008 74.797L104.01 74.7978C104.13 74.8387 104.258 74.8823 104.365 74.9286C104.461 74.9662 104.543 75.0037 104.621 75.0395L104.661 75.0575C105.022 75.2302 105.234 75.3262 105.351 75.3591C105.385 75.1443 105.409 74.9472 105.428 74.7891C105.434 74.7414 105.44 74.6972 105.445 74.6572C105.477 74.4847 105.465 74.4817 105.268 74.432L105.247 74.4269C105.042 74.3748 104.652 74.2624 104.288 74.0924C104.057 73.9635 103.808 73.8538 103.545 73.7798C103.416 73.7414 103.276 73.7085 103.145 73.6838C103.024 73.6592 102.906 73.64 102.799 73.6235C102.448 73.573 102.144 73.5559 101.884 73.5413C101.819 73.5376 101.757 73.5341 101.697 73.5303C101.508 73.5207 101.394 73.5045 101.258 73.485C101.162 73.4712 101.054 73.4557 100.899 73.4398C100.584 73.3987 100.271 73.3466 99.9671 73.2643C99.0788 73.045 98.1933 73.1848 97.3106 73.3247C96.7879 73.4394 96.2412 73.4215 95.7097 73.404C95.009 73.3811 94.3348 73.359 93.7767 73.6427C92.9104 74.139 93.3052 75.8033 94.1989 76.3791C94.2044 76.497 94.2126 76.7382 94.2154 76.8561C93.5939 76.7012 93.6492 77.2465 93.7045 77.7908C93.7274 78.0172 93.7504 78.2434 93.7246 78.419C94.1578 78.408 94.5965 78.5177 95.0406 78.8659C95.0746 78.8651 95.1189 78.8637 95.167 78.8622C95.274 78.8588 95.4 78.8549 95.4737 78.8549C96.3338 78.8364 97.1762 78.7901 98.0104 78.7443C98.4074 78.7225 98.8025 78.7008 99.1967 78.6822C99.8081 78.652 100.419 78.6301 101.031 78.6246H101.582C101.697 78.6228 101.813 78.6198 101.93 78.6172C101.991 78.6159 102.053 78.6146 102.114 78.6137C102.426 78.6082 102.678 78.6164 102.827 78.6465C102.635 78.5835 102.275 78.5588 101.829 78.5451C101.767 78.5424 101.706 78.5403 101.645 78.5383C101.584 78.5362 101.523 78.5341 101.461 78.5314L101.11 78.5122C100.981 78.5067 100.851 78.5 100.722 78.4937C100.658 78.4906 100.593 78.4875 100.529 78.4848C99.756 78.4601 98.9801 78.4766 98.1824 78.5533C98.1933 78.4766 98.2235 78.3779 98.1659 78.3148C98.9747 77.9995 99.7642 78.0708 100.551 78.1722C100.746 78.1969 100.943 78.2243 101.14 78.249C101.195 78.2545 101.228 78.26 101.302 78.2654L101.502 78.2791C101.634 78.2846 101.749 78.2901 101.861 78.2901C102.306 78.2901 102.651 78.26 102.868 78.1777C102.862 78.2956 102.854 78.5314 102.851 78.652C102.885 78.661 102.887 78.6663 102.89 78.6725C102.891 78.6738 102.891 78.6752 102.892 78.6767C102.894 78.6808 102.896 78.6849 102.898 78.6891C102.9 78.6932 102.902 78.6973 102.903 78.7014C102.909 78.7205 102.914 78.7398 102.914 78.7617C102.917 78.7699 102.933 78.7891 102.969 78.8138L103.024 78.8522L103.101 78.9015C103.21 78.9728 103.358 79.0661 103.58 79.1812C103.956 79.3265 104.524 79.247 104.957 79.0057C104.469 78.8467 104.085 78.6246 103.816 78.4382C103.548 78.2517 103.375 78.0982 103.262 77.9967C103.234 77.9737 103.216 77.9542 103.2 77.9363C103.183 77.916 103.169 77.8978 103.15 77.8788C103.127 77.8544 103.104 77.8325 103.077 77.8131C103.066 77.8043 103.053 77.7961 103.04 77.7884C103.033 77.784 103.026 77.7798 103.019 77.7758C102.985 77.7548 102.958 77.7387 102.901 77.7226C102.832 77.7034 102.752 77.6869 102.662 77.6759C102.443 77.6463 102.188 77.6414 101.892 77.6357C101.695 77.6319 101.479 77.6277 101.245 77.6156C100.784 77.5909 100.329 77.5635 99.8766 77.5197C100.062 77.5157 100.254 77.5039 100.448 77.4918C100.653 77.4792 100.862 77.4663 101.072 77.4621C101.105 77.4621 101.137 77.4618 101.17 77.4615C101.241 77.4609 101.316 77.4602 101.409 77.4621L101.76 77.4703C101.979 77.4785 102.18 77.5032 102.358 77.5526C102.413 77.5623 102.467 77.5715 102.519 77.5803C102.7 77.6113 102.856 77.6378 102.958 77.6677C103.065 77.7034 103.164 77.7445 103.251 77.7966C103.441 77.909 103.63 78.0187 103.827 78.1311C104.104 78.2874 104.502 78.4958 105.009 78.6411C105.091 78.6712 105.183 78.6946 105.274 78.7179ZM98.1976 78.6479C98.2129 78.6636 98.2391 78.6724 98.2811 78.6712C98.239 78.6712 98.2129 78.6627 98.1976 78.6479ZM103.249 74.6298C102.921 74.5895 102.635 74.5711 102.375 74.5544C102.139 74.5393 101.925 74.5255 101.722 74.4982C101.617 74.4845 101.519 74.468 101.428 74.4461C101.379 74.4364 101.342 74.4247 101.303 74.4119C101.263 74.3993 101.221 74.3857 101.16 74.372C100.943 74.32 100.727 74.2541 100.513 74.1774C100.732 74.2322 100.951 74.2816 101.171 74.3254L101.253 74.3419L101.31 74.3583C101.346 74.3693 101.395 74.3775 101.437 74.3885C101.527 74.4077 101.623 74.4241 101.73 74.4378C101.887 74.4601 102.052 74.4768 102.228 74.4947C102.528 74.5251 102.862 74.5589 103.249 74.6298Z" fill="#EF8D2B"/>
</svg>
