<svg width="98" height="97" viewBox="0 0 98 97" fill="none" xmlns="http://www.w3.org/2000/svg">
<path d="M59.5459 44.5753C62.7108 41.509 65.8064 38.4487 68.3935 35.4287C69.0214 34.6959 69.909 33.9012 70.8162 33.0892C72.4731 31.6059 74.1951 30.0643 74.5181 28.7346L72.5866 30.6489C73.461 29.2195 74.6766 28.1274 75.8923 27.0352C76.7034 26.3065 77.5145 25.5778 78.2243 24.7489C77.909 24.4364 77.7514 24.2802 78.2382 23.4844C77.83 23.8889 77.3733 24.3729 76.8937 24.8812C75.8587 25.9779 74.7174 27.1873 73.729 27.9534L73.2561 27.4847C73.8223 26.7668 74.6679 26.0069 75.5133 25.2472C76.3569 24.4892 77.2002 23.7314 77.7653 23.0157L77.1338 22.3899C76.9773 22.2356 77.6119 21.6045 78.251 20.9711L75.6882 23.5111L75.0577 22.8861C74.9 22.729 75.5427 22.0921 76.188 21.4525C76.0763 21.3418 76.0455 21.151 76.0166 20.9721C75.964 20.6461 75.9177 20.3598 75.3998 20.6714L73.4674 22.5865C75.8866 19.8764 76.3863 17.8188 75.9134 17.3501C75.6699 17.7482 75.4299 17.8298 75.1899 17.9114C74.9502 17.9929 74.7106 18.0744 74.4678 18.4712C75.9264 16.0882 77.2291 13.5481 74.4956 15.9448C69.2372 20.9418 64.0039 26.0288 58.7923 31.1743C56.1869 33.747 53.5868 36.3343 50.9918 38.9328L47.1037 42.8378L45.2068 44.7504C39.7506 39.4873 34.2795 34.2454 28.8287 29.0229C23.7698 24.176 18.7284 19.3458 13.7328 14.531C12.661 13.7004 12.5652 14.0089 12.4589 14.3514C12.4218 14.4708 12.3834 14.5944 12.3019 14.6752C12.9552 15.3224 13.6187 15.9597 14.2716 16.5868C16.1924 18.4316 18.0214 20.1883 19.2276 21.8508C19.5221 22.1431 19.2802 22.1654 18.9626 22.1946C18.5862 22.2292 18.1033 22.2737 18.2809 22.7891L20.8586 25.3438C20.9438 25.8968 20.5466 25.9715 20.1493 26.0461C19.7517 26.1208 19.354 26.1956 19.4398 26.7499C19.534 27.3604 20.4578 28.3168 21.3217 29.2112C22.0225 29.9366 22.6837 30.6213 22.8308 31.0472C24.4496 33.2757 21.0699 30.2386 19.1384 28.3243C19.3025 28.7994 18.9805 28.4803 18.5781 28.0815C18.1757 27.6826 17.6928 27.204 17.5351 27.3603C16.9046 27.9852 16.274 28.6101 18.377 31.6318C18.701 32.1618 18.3128 32.2629 17.9245 32.364C17.7304 32.4145 17.5363 32.4651 17.4312 32.5692C25.1598 40.229 33.532 48.5267 41.8903 55.5607C42.0462 55.6954 42.2039 55.8311 42.3615 55.9675L46.6048 59.6296L49.2863 55.4302C49.5185 55.0671 49.7558 54.7022 49.9975 54.3365C50.0897 54.1974 50.1825 54.0582 50.2758 53.9183C50.3051 53.8744 50.3344 53.8304 50.3638 53.7863L50.4565 53.6481L50.4799 53.6137L50.4912 53.5966L50.4946 53.5905L50.5024 53.5751C50.5119 53.5545 50.5223 53.533 50.5327 53.5124C50.5405 53.5013 50.5488 53.4905 50.557 53.4798C50.5652 53.4691 50.5734 53.4584 50.5812 53.4472C50.5847 53.4429 50.5821 53.4446 50.5908 53.4352L50.6245 53.3991L50.6921 53.3279L50.8281 53.1854C51.0004 53.0065 51.1727 52.8269 51.3457 52.6465L51.3772 52.6137C51.7453 52.2325 52.1187 51.8514 52.4963 51.4694C53.2507 50.7054 54.0224 49.9405 54.8028 49.1748C55.8904 48.1083 56.996 47.0401 58.1015 45.972C58.5835 45.5064 59.0654 45.0408 59.5459 44.5753Z" fill="#EF8D2B"/>
<path d="M37.6042 68.2143C34.5367 65.081 31.4752 62.0164 28.4541 59.4551L28.4558 59.4525C27.7227 58.831 26.9278 57.9522 26.1154 57.0542C24.6315 55.4138 23.0894 53.709 21.7592 53.3893L23.6742 55.3015C22.2437 54.4355 21.1506 53.2315 20.0575 52.0275C19.3289 51.225 18.6004 50.4225 17.772 49.7202C17.4594 50.0323 17.3031 50.1884 16.507 49.7065C16.9117 50.1105 17.3959 50.5627 17.9043 51.0375C19.0014 52.0621 20.2113 53.192 20.9777 54.1705L20.5088 54.6387C19.7906 54.0782 19.0304 53.241 18.2705 52.4041C17.5121 51.5689 16.754 50.734 16.0381 50.1746L15.4121 50.7997C15.2572 50.9553 14.6219 50.322 13.9859 49.6869L16.5336 52.2309L15.9085 52.8551C15.7513 53.0112 15.1141 52.3749 14.4743 51.7361C14.3636 51.8467 14.1727 51.8772 13.9937 51.9058C13.6676 51.9579 13.3812 52.0037 13.6929 52.5164L15.6087 54.4294C12.8976 52.0345 10.8392 51.5397 10.3703 52.0079C10.7686 52.249 10.8502 52.4867 10.9319 52.7242C11.0134 52.9615 11.0949 53.1987 11.4919 53.4391C9.10793 51.9951 6.56686 50.7054 8.96452 53.4116C13.9634 58.6174 19.0524 63.7982 24.1998 68.9577C26.7735 71.537 29.3618 74.1111 31.9613 76.6801L35.8678 80.5294L39.4187 84.0116L39.4771 84.069C39.4788 84.0682 39.4806 84.0673 39.4814 84.0673H39.4857L39.496 84.081L39.5201 84.1136L44.6572 91L49.0909 86.47C55.7514 79.6643 62.3773 72.8205 68.9721 66.0088C73.8207 61.0008 78.6525 56.0101 83.4688 51.0647C84.2997 50.0037 83.9911 49.9089 83.6485 49.8036C83.529 49.7669 83.4054 49.7289 83.3246 49.6481C82.6771 50.2949 82.0396 50.9517 81.4123 51.5981C79.5667 53.4997 77.8093 55.3104 76.1462 56.5045C75.8538 56.7961 75.8315 56.5567 75.8023 56.2422C75.7676 55.8696 75.7232 55.3915 75.2076 55.5673L72.6519 58.1192C72.0986 58.2036 72.024 57.8104 71.9493 57.4171C71.8745 57.0234 71.7998 56.6297 71.2452 56.7146C70.6345 56.8079 69.6778 57.7225 68.7831 58.5777C68.0573 59.2714 67.3724 59.9261 66.9463 60.0716C64.7169 61.6743 67.7552 58.3284 69.6703 56.4162C69.1949 56.5787 69.5142 56.26 69.9132 55.8615C70.3122 55.4631 70.7909 54.9851 70.6346 54.829C70.0095 54.2048 69.3843 53.5805 66.3615 55.6625C65.8313 55.9832 65.7302 55.5989 65.629 55.2145C65.5785 55.0223 65.5279 54.8302 65.4237 54.7261C58.7262 61.4136 51.5413 68.5878 45.1391 75.8141C44.9265 75.6086 44.7138 75.4016 44.5009 75.1933C43.7366 74.4464 42.9714 73.6824 42.2054 72.9098C41.1383 71.833 40.0696 70.7382 39.0009 69.6436C38.5353 69.1666 38.0696 68.6897 37.6042 68.2143Z" fill="#EF8D2B"/>
</svg>
