<svg width="150" height="149" viewBox="0 0 150 149" fill="none" xmlns="http://www.w3.org/2000/svg">
<ellipse cx="74.5" cy="76" rx="70.5" ry="69" fill="white"/>
<path d="M11.3318 83.4072L11.2782 82.9911L11.2346 82.5728L11.1461 81.7374C11.5305 84.4235 12.0155 87.1673 12.6894 89.8969C12.7735 90.2378 12.8576 90.5799 12.9417 90.9219C13.0334 91.2617 13.1252 91.6027 13.2169 91.9436C13.2628 92.1135 13.3065 92.2856 13.3545 92.4555L13.5042 92.9642L13.8024 93.9826L14.1235 94.9946C14.177 95.1634 14.2283 95.3333 14.2851 95.501L14.4577 96.0032C14.5735 96.3376 14.6838 96.6742 14.8028 97.0086C14.9252 97.3408 15.0475 97.673 15.1698 98.0052C14.3889 94.9989 13.7783 91.8445 13.3294 88.6802C12.8762 85.5149 12.5813 82.3408 12.3584 79.2572C12.3333 78.8716 12.3049 78.4871 12.2733 78.1048C12.2503 77.7214 12.2285 77.3401 12.2012 76.9611C12.1881 76.7715 12.1739 76.582 12.1608 76.3936C12.1498 76.204 12.14 76.0156 12.1291 75.8272C12.104 75.4503 12.0788 75.0767 12.0537 74.7042C12.0177 73.9591 11.9532 73.2206 11.9139 72.4919C11.8921 72.127 11.8571 71.7643 11.8353 71.4048C11.8134 71.0454 11.7872 70.687 11.7566 70.3319C11.7217 69.9758 11.702 69.6239 11.6714 69.2732C11.643 68.9225 11.6059 68.5739 11.572 68.2275C11.5426 67.8822 11.5098 67.5391 11.4705 67.1982C11.4497 67.0272 11.429 66.8572 11.4093 66.6884C11.3907 66.5196 11.3722 66.3508 11.3547 66.183C11.3154 65.8475 11.2717 65.5142 11.2214 65.1831C11.1734 64.852 11.133 64.5252 11.0795 64.2006C11.0292 63.876 10.9681 63.5525 10.9123 63.2323C10.8588 62.9131 10.7988 62.5961 10.7332 62.2813C10.8654 62.2378 11.0008 62.1517 11.1373 62.0286C11.2739 61.9056 11.4115 61.7465 11.5589 61.5581C11.7042 61.3686 11.8495 61.1496 11.9969 60.9045C12.1455 60.6606 12.2842 60.3893 12.4425 60.1029C12.7527 59.5288 13.0476 58.8731 13.3687 58.1912C13.4452 58.0202 13.5227 57.847 13.6014 57.6717C13.6396 57.5845 13.6778 57.4963 13.7161 57.4081C13.7565 57.3209 13.7958 57.2327 13.8362 57.1445C13.9957 56.7927 14.1508 56.4365 14.3004 56.0803C14.4544 55.7263 14.6128 55.3756 14.758 55.0303C14.8301 54.8571 14.9022 54.6861 14.9732 54.5172C15.0464 54.3495 15.1196 54.1839 15.1906 54.0205C15.3315 53.6949 15.4614 53.3779 15.5849 53.0783C15.7137 52.781 15.8328 52.4978 15.9376 52.2353C16.143 51.7081 16.3221 51.2691 16.4259 50.9445C16.5307 50.6199 16.5679 50.413 16.522 50.364C17.0615 47.9949 17.8294 45.6388 18.7894 43.3209C18.6223 43.7185 18.4465 44.1106 18.2903 44.5104C18.1352 44.9101 17.979 45.3088 17.8239 45.7074C17.6808 46.1105 17.5388 46.5124 17.3968 46.9132L17.292 47.2139L17.1959 47.5178C17.1325 47.7204 17.0681 47.9219 17.0047 48.1245C17.0681 47.923 17.1325 47.7204 17.1959 47.5178L17.292 47.2139L17.3968 46.9132C17.5388 46.5124 17.6808 46.1105 17.8239 45.7074C17.979 45.3088 18.1341 44.9101 18.2903 44.5104C18.4465 44.1106 18.6223 43.7185 18.7894 43.3209C20.3142 39.6611 22.3632 36.1025 24.8742 32.7847C27.383 29.4647 30.3527 26.3865 33.6851 23.659C37.0174 20.9294 40.7124 18.5515 44.6608 16.6062C48.6081 14.6575 52.8022 13.1358 57.1252 12.0706C57.2748 12.0324 57.4277 11.9932 57.585 11.9518C57.7434 11.9148 57.905 11.8778 58.071 11.8386C58.402 11.7612 58.7493 11.6795 59.1097 11.5957C59.4723 11.5194 59.8481 11.4399 60.238 11.3582C60.6268 11.2711 61.032 11.1981 61.4482 11.1207C63.1138 10.8081 64.9848 10.5195 66.9977 10.3147C69.0107 10.1121 71.1645 9.9912 73.3861 9.98575C75.6077 9.97922 77.8959 10.0903 80.1655 10.3289C82.4362 10.5652 84.6895 10.9279 86.8521 11.3952C89.0147 11.8614 91.0855 12.4333 92.9991 13.065C94.9126 13.6957 96.6678 14.3852 98.2144 15.066C99.761 15.7478 101.091 16.4352 102.18 17.0244C102.494 17.1998 102.807 17.3741 103.12 17.5494C103.276 17.6377 103.434 17.7215 103.588 17.812L104.051 18.0843C104.359 18.2673 104.673 18.4415 104.979 18.63C105.285 18.8173 105.592 19.0058 105.9 19.1942C105.398 18.8663 105.025 18.6125 104.708 18.4121C104.389 18.2128 104.134 18.0538 103.879 17.8947C103.625 17.7324 103.365 17.5799 103.041 17.3893C102.715 17.2009 102.331 16.9602 101.801 16.6726C103.224 17.2009 104.607 17.7564 105.937 18.3653C106.105 18.4404 106.272 18.5145 106.438 18.5897C106.604 18.6648 106.766 18.7454 106.93 18.8239C107.258 18.9807 107.583 19.1365 107.908 19.2922C108.546 19.6223 109.19 19.9349 109.808 20.2813C111.061 20.949 112.258 21.67 113.428 22.4096C114.007 22.7876 114.587 23.1601 115.144 23.5577C115.423 23.7559 115.71 23.9433 115.982 24.1492C116.256 24.3518 116.53 24.5544 116.803 24.757C116.53 24.342 116.404 24.0544 116.158 23.6481C116.035 23.4466 115.877 23.2211 115.655 22.9336C115.432 22.6471 115.148 22.2964 114.747 21.8737C114.923 22.0295 115.102 22.1809 115.275 22.3388L115.793 22.8148L116.31 23.2898L116.816 23.7766C117.124 23.9063 117.471 24.0729 117.832 24.2875C118.192 24.5021 118.576 24.7526 118.975 25.0271C119.367 25.3103 119.774 25.6207 120.188 25.9442C120.595 26.2754 121.005 26.6261 121.416 26.9779C121.819 27.3385 122.22 27.7055 122.613 28.065C122.998 28.4342 123.375 28.7948 123.734 29.139C124.087 29.4908 124.423 29.8252 124.74 30.1291C125.055 30.4352 125.337 30.7206 125.6 30.9602C124.881 30.7783 126.259 32.5004 127.362 34.095L127.119 33.314C128.213 34.802 129.315 36.3748 130.374 38.0065C131.43 39.6382 132.439 41.332 133.364 43.0432C134.289 44.7544 135.129 46.4852 135.859 48.1844C135.948 48.3968 136.039 48.6092 136.127 48.8194C136.217 49.0296 136.305 49.2399 136.386 49.4512C136.55 49.8727 136.712 50.2888 136.871 50.7005C137.019 51.1155 137.164 51.5251 137.307 51.9281C137.38 52.1285 137.446 52.3311 137.509 52.5315C137.572 52.732 137.636 52.9302 137.699 53.1274C137.77 53.3463 137.829 53.5543 137.874 53.7504C137.914 53.9476 137.944 54.1327 137.965 54.3037C138.005 54.6458 138.01 54.9322 137.998 55.1512C138.687 57.1401 139.279 59.1672 139.771 61.2248C139.605 61.1322 139.56 61.4121 139.552 61.8402C139.541 62.2694 139.581 62.8434 139.612 63.339C139.65 64.3346 139.672 65.0055 139.286 63.5525C139.969 65.8192 140.258 68.1872 140.421 70.5302C140.585 72.8775 140.625 75.1987 140.832 77.4795C140.595 81.5217 140.005 85.6075 139.033 89.654C138.059 93.6984 136.709 97.7024 134.992 101.579C133.276 105.456 131.194 109.204 128.787 112.747C126.379 116.29 123.648 119.629 120.651 122.699L121.103 122.57C119.031 124.759 117.05 126.837 114.749 128.836C114.46 129.082 114.164 129.326 113.866 129.571C113.716 129.693 113.566 129.817 113.414 129.94C113.259 130.058 113.104 130.177 112.947 130.297C112.633 130.534 112.317 130.777 111.988 131.009C111.659 131.24 111.323 131.47 110.981 131.701C109.603 132.607 108.091 133.469 106.392 134.237C104.2 135.784 101.344 137.366 98.7638 138.648C96.1894 139.943 93.9067 140.976 92.9969 141.831C92.6146 141.938 92.2465 142.041 91.8916 142.14C91.5355 142.239 91.1947 142.344 90.8605 142.429C90.5274 142.52 90.2052 142.607 89.8917 142.694C89.7355 142.737 89.5804 142.781 89.4286 142.823C89.2757 142.863 89.125 142.903 88.9753 142.941C87.7837 143.262 86.7046 143.543 85.6222 143.81C85.0794 143.935 84.5387 144.074 83.9806 144.193C83.4214 144.309 82.848 144.434 82.244 144.544C81.9404 144.595 81.6302 144.649 81.3112 144.702C80.9912 144.753 80.6636 144.812 80.3217 144.854C79.9809 144.897 79.6281 144.942 79.2633 144.987C78.8985 145.035 78.5195 145.07 78.1252 145.103C78.5381 145.235 78.3655 145.36 77.9166 145.479C77.6927 145.539 77.4 145.596 77.0778 145.652C76.7556 145.705 76.405 145.748 76.0653 145.794C75.7256 145.838 75.3969 145.882 75.1195 145.925C74.8519 145.966 74.6378 146.006 74.5089 146.048C74.2522 146.133 74.3462 146.227 75.0976 146.341C76.1625 146.532 76.9828 146.644 77.6643 146.67C78.347 146.704 78.892 146.701 79.4152 146.667C79.9383 146.637 80.4429 146.615 81.0447 146.604C81.3462 146.597 81.6717 146.6 82.0387 146.614C82.2221 146.62 82.4155 146.63 82.6208 146.644C82.8261 146.655 83.0435 146.665 83.2751 146.681L83.1451 146.496C83.6759 146.461 84.2089 146.436 84.7397 146.392L86.3333 146.25L87.9246 146.067C88.19 146.039 88.4543 145.999 88.7187 145.961L89.5127 145.848C91.6283 145.532 93.7352 145.12 95.8235 144.613C97.9129 144.107 99.9805 143.496 102.021 142.793C104.061 142.089 106.074 141.292 108.05 140.403C112.005 138.631 115.803 136.473 119.395 133.99C122.986 131.507 126.371 128.694 129.477 125.575C133.382 121.188 137.093 116.321 140.22 111.01C140.42 110.681 140.609 110.345 140.799 110.01L141.368 109.002L141.914 107.982L142.187 107.471L142.449 106.954L142.971 105.92C143.143 105.573 143.304 105.223 143.47 104.874C143.808 104.179 144.114 103.47 144.426 102.764C144.586 102.412 144.725 102.053 144.875 101.698C145.02 101.34 145.172 100.986 145.311 100.627C145.448 100.268 145.585 99.907 145.723 99.5487C145.79 99.369 145.86 99.1892 145.926 99.0084L146.117 98.4649C146.244 98.1022 146.369 97.7405 146.496 97.3778C146.613 97.0129 146.73 96.648 146.846 96.2842C147.086 95.5577 147.288 94.8214 147.497 94.0905C147.612 93.6973 147.704 93.2964 147.808 92.8988C147.858 92.6995 147.908 92.5002 147.959 92.2998C148.011 92.1004 148.06 91.9 148.104 91.6985C148.286 90.8925 148.474 90.0853 148.628 89.2684C148.96 87.64 149.214 85.9898 149.432 84.3352C149.844 81.0228 150.043 77.6865 149.992 74.4177C149.927 67.8779 148.91 61.6136 147.402 56.2829C147.201 55.6511 147.063 55.0531 146.938 54.4802C146.81 53.9083 146.721 53.3561 146.639 52.8126C146.549 52.2712 146.476 51.7364 146.401 51.195C146.318 50.6559 146.225 50.1134 146.116 49.5503C144.374 44.7217 141.952 39.3909 138.791 34.3031C138.392 33.6713 137.996 33.0319 137.574 32.41C137.364 32.0974 137.159 31.7826 136.944 31.4721L136.295 30.5474L135.968 30.0855L135.632 29.6313L134.958 28.7229L134.263 27.8319C134.03 27.5356 133.801 27.2383 133.56 26.9496C133.32 26.6599 133.081 26.3701 132.843 26.0815C132.606 25.7907 132.355 25.514 132.111 25.2308C131.865 24.9508 131.624 24.6655 131.372 24.3921C131.12 24.1187 130.868 23.8453 130.618 23.573C130.493 23.4379 130.368 23.2996 130.24 23.1667C130.112 23.0338 129.984 22.902 129.856 22.7691C129.599 22.5055 129.343 22.243 129.088 21.9805C128.826 21.7245 128.566 21.4696 128.306 21.2158C128.045 20.9642 127.788 20.7082 127.521 20.4664C127.675 20.6189 127.817 20.7736 127.907 20.8782C127.358 20.3455 126.825 19.8303 126.305 19.3271C126.044 19.0766 125.786 18.8304 125.531 18.5864C125.404 18.4633 125.277 18.3413 125.152 18.2193C125.024 18.0995 124.897 17.9808 124.771 17.8621C124.519 17.6235 124.269 17.3872 124.022 17.153C123.777 16.9166 123.522 16.6922 123.275 16.4624C123.027 16.2336 122.781 16.006 122.534 15.7794C122.283 15.5572 122.032 15.3361 121.783 15.115C121.288 14.6684 120.775 14.2414 120.259 13.8112C120.13 13.7033 120 13.5955 119.871 13.4877C119.739 13.3831 119.607 13.2774 119.473 13.1729C119.206 12.9637 118.937 12.7546 118.666 12.5433C118.396 12.3298 118.114 12.1305 117.831 11.9246C117.546 11.722 117.258 11.5161 116.968 11.3092C116.672 11.1098 116.37 10.9105 116.063 10.7112C115.757 10.5119 115.446 10.3082 115.122 10.1175C115.056 10.2755 114.261 9.79295 113.832 9.62957C113.705 9.3431 111.721 8.07849 108.629 6.6603C108.242 6.48493 107.84 6.30411 107.424 6.11567C107.003 5.93922 106.57 5.75731 106.125 5.57105C106.014 5.52422 105.903 5.47847 105.789 5.43163C105.675 5.38697 105.561 5.34231 105.445 5.29765C105.214 5.20834 104.981 5.11793 104.746 5.02752C104.51 4.93711 104.273 4.84344 104.032 4.75412C103.789 4.66807 103.544 4.58093 103.298 4.4927C101.324 3.78905 99.193 3.13442 97.0304 2.58435C94.8689 2.03102 92.6758 1.59205 90.5918 1.25657C90.3308 1.21517 90.0741 1.16725 89.8163 1.13239C89.5586 1.09645 89.3041 1.0605 89.0507 1.02456C88.545 0.952667 88.0502 0.880777 87.5631 0.829583C87.0771 0.774031 86.603 0.714123 86.1421 0.667286C85.6801 0.623716 85.2323 0.581235 84.7987 0.540933C84.3662 0.495185 83.9468 0.47449 83.5459 0.441812C83.1451 0.414581 82.7617 0.378636 82.3969 0.360119C82.0321 0.339424 81.6859 0.319817 81.3615 0.3013C81.0371 0.282783 80.7346 0.259909 80.4538 0.250106C79.8924 0.225053 79.425 0.197822 79.0645 0.168413C78.7041 0.137914 78.4518 0.118308 78.3229 0.0834518C77.7091 0.10088 77.0734 0.0976119 76.4258 0.117218C76.0369 0.0997904 75.6481 0.0834518 75.2582 0.0660239C74.8682 0.0496853 74.4783 0.0464175 74.0884 0.0344359L73.5019 0.0180972L73.2081 0.00938331L72.9143 0.00720483L71.739 -0.00259835C71.3469 -0.010223 70.9548 -0.00150911 70.5616 0.00284786L69.382 0.0159188L68.2024 0.052953L67.6126 0.0703809L67.0228 0.10088C63.8783 0.255552 60.7371 0.565986 57.6756 1.09863C51.5483 2.13123 45.7355 4.01779 40.8948 6.56662C38.9463 7.97174 36.8121 9.58491 35.3813 11.0009C34.9335 11.185 34.6058 11.38 34.3295 11.5739C34.0543 11.771 33.8293 11.9682 33.6075 12.1904C33.3847 12.4104 33.1575 12.6446 32.8648 12.8995C32.7185 13.028 32.5546 13.1587 32.3701 13.3003C32.1866 13.4441 31.9801 13.5944 31.742 13.7534C31.3914 13.8885 31.0485 14.0214 30.7252 14.1641C30.403 14.3079 30.0917 14.4527 29.7946 14.5976C29.1961 14.8819 28.6674 15.1858 28.1901 15.4712C27.7107 15.7533 27.3 16.0376 26.9494 16.2968C26.5988 16.5571 26.305 16.7892 26.0833 16.9983C25.1953 17.8348 25.3274 18.1224 26.6392 17.3349C24.8916 18.9818 23.1692 20.6516 21.556 22.3367C19.9428 24.0206 18.4432 25.7242 17.1413 27.4071C16.0054 29.0246 14.9459 30.6748 13.9509 32.3915C13.1274 33.8608 12.4458 34.5329 11.6769 35.0666C11.4246 35.547 11.2094 35.9457 11.0205 36.2855C10.8304 36.6243 10.6808 36.9107 10.5388 37.1514C10.2603 37.6372 10.0353 37.9564 9.81467 38.2864C9.59076 38.6143 9.35266 38.9433 9.02827 39.4378C8.86881 39.6861 8.69515 39.9802 8.48872 40.3353C8.28338 40.6904 8.04528 41.1076 7.7897 41.6173C7.29711 41.9931 6.2868 44.6988 5.54191 47.4884C5.44143 47.8347 5.3606 48.1876 5.27214 48.5329C5.18585 48.8793 5.10175 49.2202 5.01874 49.5546C4.86911 50.2245 4.72603 50.8606 4.59933 51.4292C4.48246 51.9989 4.37542 52.4978 4.2804 52.8921C4.18538 53.2853 4.11766 53.5772 4.05322 53.7254C4.09254 53.4814 4.12749 53.2352 4.17009 52.9912C3.40553 55.4899 2.64754 57.5497 1.96927 59.641C1.29755 61.7302 0.70448 63.8542 0.444533 66.4379C0.418319 66.6623 0.392106 66.8856 0.365893 67.111L0.327665 67.4487L0.297083 67.7875C0.257763 68.2395 0.218444 68.6915 0.180216 69.1458C0.141988 69.6 0.123421 70.0564 0.0950229 70.5127C0.0830086 70.7415 0.0699019 70.9702 0.0567953 71.199C0.0458732 71.4277 0.0415043 71.6575 0.034951 71.8874C0.0229366 72.347 0.0120144 72.8067 0 73.2674C0 73.7282 0.00109222 74.19 0.00218444 74.653C-0.00109222 75.1159 0.0163833 75.5788 0.0305821 76.0428L0.0524264 76.7389L0.0644408 77.0874L0.0841008 77.436C0.111406 77.9 0.138712 78.3651 0.166017 78.8302C0.197691 79.2953 0.242472 79.7593 0.281792 80.2233L0.344049 80.9205L0.422688 81.6165C0.478391 82.0794 0.523172 82.5445 0.588705 83.0064C0.830085 84.8581 1.15666 86.6967 1.53457 88.5168C1.91903 90.3348 2.38103 92.1277 2.88782 93.8912C3.40226 95.6525 3.98332 97.3767 4.59824 99.0629C5.22626 100.746 5.90016 102.385 6.60573 103.979C6.78813 104.374 6.96835 104.768 7.14966 105.16C7.24031 105.357 7.33097 105.551 7.42053 105.746C7.51446 105.939 7.60839 106.132 7.70232 106.325C7.89127 106.708 8.07258 107.094 8.26372 107.472C8.45704 107.849 8.64927 108.223 8.84041 108.596C9.12548 108.517 8.75194 107.882 8.38496 107.203C8.03217 106.515 7.68484 105.783 7.99503 105.548C8.8284 107.323 9.70545 109.083 10.6306 110.826L10.9801 111.478C11.0958 111.696 11.2116 111.914 11.335 112.128L12.0614 113.422L12.8161 114.702C12.9406 114.917 13.0706 115.128 13.2027 115.338L13.5959 115.971C14.6521 117.654 15.7738 119.304 16.9807 120.897C18.1909 122.485 19.4808 124.02 20.8548 125.476C21.0798 125.761 21.3124 126.066 21.5418 126.375C21.7712 126.682 22.006 126.982 22.2179 127.271C22.432 127.559 22.6253 127.832 22.7924 128.066C22.9617 128.299 23.0982 128.497 23.1878 128.645C24.0561 129.606 24.3991 129.798 24.6754 129.93C24.8141 129.995 24.9397 130.042 25.1155 130.155C25.204 130.212 25.3045 130.284 25.4257 130.383C25.5481 130.481 25.6933 130.603 25.867 130.762L25.7239 131.323C26.0232 131.506 26.2908 131.69 26.5322 131.876C26.7768 132.059 26.9996 132.24 27.205 132.425C27.6145 132.793 27.9542 133.172 28.3005 133.538C28.6445 133.907 28.9765 134.285 29.3719 134.646C29.7695 135.005 30.2184 135.364 30.7842 135.701C30.9021 135.655 31.161 135.763 31.4854 135.949C31.647 136.043 31.8261 136.155 32.0107 136.279C32.1953 136.404 32.3886 136.535 32.5809 136.666C32.4465 136.907 33.0527 137.294 33.6436 137.662C34.2399 138.021 34.8243 138.355 34.6331 138.535L34.6779 138.514C35.1508 138.823 35.5146 138.994 36.0618 139.426C36.5664 139.627 39.1953 140.639 41.8571 141.449C42.1869 141.555 42.5244 141.647 42.8532 141.743C43.183 141.836 43.5074 141.93 43.8241 142.02C44.4609 142.191 45.0649 142.344 45.6001 142.48C46.1375 142.611 46.6093 142.713 46.9774 142.795C47.3465 142.875 47.6141 142.932 47.7496 142.951L48.1799 143.211C48.8702 143.464 49.3955 143.551 49.6566 143.514C49.9154 143.481 49.9045 143.343 49.5201 143.154L51.2075 143.778C51.1376 143.77 51.0688 143.757 50.9989 143.747C51.5603 143.947 52.1272 144.137 52.6908 144.332C52.9889 144.481 53.2762 144.827 52.7126 144.915C53.2314 144.969 53.771 145.052 54.3007 145.168C54.8304 145.285 55.3547 145.417 55.8331 145.6C55.5032 145.466 55.1625 145.327 54.814 145.186C54.4667 145.045 54.1172 144.883 53.7601 144.726C53.4051 144.565 53.0425 144.41 52.6842 144.236C52.3271 144.062 51.9655 143.885 51.604 143.709C51.2425 143.534 50.8875 143.342 50.5325 143.153C50.1787 142.963 49.8259 142.776 49.4829 142.58C49.14 142.382 48.8025 142.183 48.4715 141.986C48.3066 141.886 48.1428 141.789 47.9822 141.689C47.8228 141.587 47.6655 141.486 47.5093 141.385C48.0958 141.53 48.8724 141.842 49.6522 142.185C50.0443 142.352 50.4419 142.514 50.8176 142.664C51.0055 142.738 51.1879 142.809 51.3626 142.872C51.5374 142.935 51.7056 142.984 51.8629 143.029C52.2025 143.234 52.6416 143.47 53.1473 143.72C53.6563 143.958 54.2308 144.215 54.8381 144.472C55.4486 144.715 56.0887 144.972 56.7287 145.205C57.0498 145.319 57.3698 145.432 57.6822 145.543C57.9957 145.654 58.3037 145.763 58.604 145.858C58.8771 145.901 59.1392 145.792 59.4767 145.739C59.646 145.712 59.8328 145.7 60.0512 145.726C60.2697 145.752 60.5198 145.81 60.8114 145.935C61.0692 146.201 61.4165 146.263 61.8184 146.321C62.2215 146.374 62.6802 146.412 63.1673 146.65C61.9506 146.686 60.8158 146.369 59.6351 146.101C59.6602 146.232 59.8481 146.364 60.1331 146.478C60.4182 146.591 60.7994 146.695 61.2057 146.793C61.4088 146.842 61.6186 146.89 61.8261 146.935C62.0347 146.975 62.24 147.016 62.4344 147.054C62.8244 147.131 63.1695 147.205 63.4021 147.279C63.637 147.244 64.3305 147.335 65.1508 147.456C65.5604 147.519 66.0038 147.566 66.4374 147.61C66.871 147.651 67.2926 147.69 67.664 147.687C67.3199 147.897 67.6083 148 68.0921 148.093C68.3346 148.135 68.624 148.186 68.9069 148.235C69.0489 148.261 69.1887 148.29 69.3198 148.322C69.4508 148.351 69.5743 148.385 69.6824 148.424C70.6796 148.546 71.3284 148.391 70.933 148.197C71.1077 147.945 70.1236 147.808 69.2783 147.668C68.4329 147.512 67.7251 147.364 68.4351 147.151C68.7726 147.445 70.7145 147.5 71.7554 147.516C71.7805 147.23 71.0575 147.272 71.7412 147.024C72.3157 147.076 72.911 147.036 73.4429 147.003C73.9748 146.969 74.4434 146.962 74.7732 147.115C74.557 147.19 74.0829 147.135 73.7455 147.123C74.1201 147.135 73.799 147.253 73.1305 147.415C72.7963 147.489 72.3758 147.574 71.9105 147.663C71.6779 147.706 71.4354 147.753 71.1864 147.796C70.9374 147.835 70.684 147.875 70.4317 147.914C70.1783 147.954 69.9249 147.993 69.6791 148.031C69.5557 148.049 69.4334 148.069 69.3143 148.086C69.1953 148.102 69.0773 148.118 68.9637 148.132C68.5072 148.192 68.0976 148.248 67.7819 148.294C67.4663 148.342 67.2457 148.378 67.167 148.402C67.0873 148.427 67.1495 148.447 67.3986 148.451C67.1561 148.297 69.3722 148.101 71.4802 147.804C72.0066 147.726 72.5276 147.649 73.0071 147.577C73.4844 147.501 73.918 147.419 74.2697 147.353C74.6214 147.287 74.8912 147.231 75.0419 147.191C75.1905 147.151 75.2156 147.126 75.0998 147.123C74.6432 147.047 74.8082 146.921 74.9666 146.799C75.0463 146.738 75.1238 146.678 75.1227 146.627C75.1238 146.576 75.0452 146.532 74.8104 146.505L73.7629 146.838C73.1196 146.781 72.6707 146.604 72.4424 146.434C72.2131 146.262 72.2021 146.088 72.4304 145.998C72.9634 146.03 72.8487 146.153 72.4009 146.316C72.177 146.398 71.869 146.491 71.5173 146.585C71.1656 146.682 70.7691 146.765 70.3694 146.853C69.9697 146.938 69.5644 147.028 69.1985 147.094C68.8305 147.162 68.5017 147.222 68.2527 147.267C67.7524 147.362 67.5722 147.411 68.0452 147.381C67.7972 147.311 67.5493 147.25 67.3035 147.174C67.7066 147.125 68.4362 147.096 69.1614 147.137C69.8877 147.168 70.6119 147.241 71.0105 147.419C71.0324 147.146 72.0951 147.084 72.9733 147.016C73.0759 147.035 73.1797 147.056 73.2823 147.072C74.1911 146.942 75.4526 147.023 74.8661 146.643C73.5456 146.638 73.1065 146.46 73.1131 146.187C73.1185 145.921 73.5641 145.559 74.0043 145.193C74.8901 144.46 75.7486 143.701 73.2998 143.589C74.3232 143.913 74.1517 144.071 73.4429 144.153C73.089 144.195 72.6019 144.198 72.0678 144.201C71.5326 144.208 70.9505 144.184 70.4054 144.166C70.3072 144.053 70.021 143.906 69.5688 143.749C69.1177 143.582 68.4995 143.415 67.735 143.258C66.3926 143.154 66.9213 143.395 66.6471 143.524C66.4647 143.467 66.2408 143.409 66.0104 143.344C65.781 143.275 65.5451 143.204 65.3397 143.131C64.928 142.985 64.6385 142.832 64.7554 142.683C64.6189 142.713 64.4911 142.728 64.3688 142.732C64.2475 142.732 64.1328 142.721 64.0214 142.701C63.7997 142.662 63.5922 142.588 63.3814 142.505C63.1706 142.422 62.9543 142.331 62.713 142.256C62.4716 142.177 62.2062 142.109 61.8927 142.084C60.7732 142.054 61.9342 142.264 61.126 142.303C60.9217 142.26 60.7098 142.209 60.4903 142.154C60.2708 142.101 60.0447 142.045 59.8153 141.99C59.5859 141.933 59.3522 141.876 59.1174 141.818C58.8847 141.755 58.6521 141.69 58.4205 141.627C57.4965 141.383 56.626 141.103 55.998 140.896C55.7916 140.685 55.3591 140.327 55.1297 140.016C54.9003 139.704 54.8774 139.43 55.4792 139.359C55.773 139.455 55.9751 139.535 56.1105 139.601C56.2459 139.667 56.3147 139.718 56.3366 139.762C56.3825 139.852 56.2459 139.911 56.1149 139.965C55.8527 140.067 55.6026 140.165 56.8707 140.453C56.4251 139.968 56.9908 140.071 57.7379 140.245C58.4904 140.399 59.4287 140.629 59.7181 140.414C59.3533 140.173 58.7744 139.941 58.1136 139.753C57.7827 139.66 57.4365 139.555 57.0848 139.47C56.7342 139.381 56.3781 139.309 56.0417 139.231C56.1214 139.286 56.2012 139.344 56.282 139.397C55.9827 139.337 55.6103 139.25 55.2007 139.151C54.9953 139.101 54.7813 139.048 54.5628 138.989C54.3455 138.926 54.1249 138.858 53.9031 138.786C53.0163 138.511 52.1479 138.135 51.5909 137.742C51.9666 137.612 51.4915 137.248 52.35 137.485L51.5734 137.186L50.8045 136.869C50.5795 136.867 50.3469 136.865 50.7761 137.088C49.969 136.996 49.2776 136.591 48.7752 136.229C48.7391 136.081 46.5962 135.476 44.521 134.765C44.261 134.677 44.0022 134.588 43.7477 134.502C43.4954 134.411 43.2485 134.321 43.0104 134.233C42.5342 134.058 42.0897 133.899 41.7238 133.748C40.9866 133.451 40.5235 133.255 40.6032 133.253C39.5492 132.64 39.4957 132.167 38.3554 131.763C38.3281 131.777 38.469 131.872 38.7333 132.026C38.8655 132.102 39.0282 132.194 39.2183 132.296C39.4105 132.393 39.6268 132.503 39.8638 132.622C40.1008 132.74 40.3574 132.867 40.6283 133.001C40.9014 133.131 41.1908 133.262 41.4879 133.398C41.7861 133.532 42.0886 133.677 42.4032 133.806C42.7155 133.938 43.0312 134.07 43.3447 134.202C45.8513 135.247 48.2651 135.967 47.518 135.696C47.4164 135.61 47.1325 135.488 46.7251 135.314C46.5208 135.227 46.2838 135.131 46.0195 135.027C45.7563 134.922 45.4614 134.816 45.1523 134.688C43.905 134.196 42.3289 133.548 40.7801 132.84C39.2379 132.122 37.7263 131.345 36.5904 130.675C35.4567 130.002 34.6867 129.463 34.6091 129.248C34.241 128.99 33.8249 128.717 33.5103 128.541C33.1969 128.363 32.973 128.294 32.9773 128.464C32.4094 127.948 32.5798 127.919 32.8004 127.909C33.021 127.899 33.2919 127.909 32.9413 127.486C32.8965 127.504 32.9293 127.643 32.6628 127.428C32.4574 127.13 32.2619 126.822 32.0631 126.522C31.0146 125.956 29.9377 124.985 28.8597 124.003C27.7959 123.003 26.7288 121.996 25.6813 121.298C25.8572 121.375 26.0472 121.447 26.2536 121.525C26.4579 121.606 26.6818 121.689 26.9254 121.789C27.1678 121.89 27.4289 122.009 27.7107 122.159C27.8516 122.234 27.9957 122.318 28.1486 122.409C28.3026 122.498 28.4621 122.596 28.627 122.705L28.7319 122.992C28.8422 123.038 29.1458 123.265 29.4451 123.448C29.7476 123.627 30.0404 123.767 30.1146 123.656C29.6155 123.107 29.1436 122.61 28.6183 122.156C28.3551 121.929 28.0929 121.698 27.8057 121.476C27.5217 121.251 27.2148 121.035 26.8991 120.8C26.7484 120.544 26.566 120.255 26.4622 120.044C26.4415 120.072 26.4371 120.109 26.4044 120.133C26.1674 119.656 26.2252 119.677 26.4295 119.737C26.4601 119.741 26.4961 119.746 26.5474 119.772C26.5048 119.172 25.4345 118.219 24.2123 117.081C22.9966 115.941 21.651 114.589 21.0033 113.394C20.4474 112.82 20.8537 113.414 20.1503 112.702C20.0651 112.552 19.981 112.405 19.898 112.26C19.8183 112.113 19.7407 111.969 19.6643 111.827C19.5114 111.543 19.3628 111.268 19.2176 110.999C18.9369 110.456 18.6671 109.936 18.3962 109.412C18.133 108.886 17.8687 108.356 17.5902 107.799C17.4525 107.52 17.3127 107.232 17.1664 106.936C17.0921 106.788 17.0178 106.637 16.9403 106.485C16.866 106.33 16.7918 106.172 16.7142 106.011C15.977 105.382 15.8208 105.375 16.0589 106.517L15.5739 105.541C15.4145 105.214 15.2659 104.883 15.1108 104.555C15.539 104.888 15.681 104.803 15.6832 104.517C15.6832 104.374 15.6504 104.18 15.5991 103.962C15.5739 103.853 15.5444 103.739 15.5117 103.621C15.4822 103.503 15.4516 103.381 15.421 103.26C15.1731 102.288 14.9481 101.356 15.823 102.114C15.7716 101.794 15.6296 101.34 15.4167 100.843C15.3118 100.593 15.1818 100.335 15.0529 100.07C14.923 99.8057 14.7799 99.54 14.627 99.2829C14.3747 99.2622 13.9564 99.2393 13.3917 97.844C12.9111 95.7908 12.9854 96.2929 12.6806 94.5752C12.8215 94.0981 13.1405 94.6536 13.3371 94.5088C13.2606 94.3617 13.1907 94.2234 13.1328 94.0927C13.076 93.9609 13.028 93.8378 12.9854 93.7212C12.9013 93.4881 12.8434 93.2844 12.8041 93.0982C12.7647 92.913 12.7451 92.7464 12.7364 92.5895C12.7309 92.4316 12.7364 92.2845 12.744 92.1375C12.7779 91.5493 12.8445 90.9785 12.5037 89.8C12.377 89.4362 12.2492 88.9754 12.1072 88.4918C12.0351 88.2511 11.9609 88.0038 11.8888 87.7587C11.82 87.5136 11.749 87.2707 11.6769 87.0398C11.6048 86.8089 11.5327 86.59 11.4595 86.3917C11.3864 86.1935 11.323 86.0127 11.2542 85.8634C11.1188 85.5628 10.9833 85.3798 10.8545 85.3853C10.8086 85.1282 10.7715 84.9016 10.7496 84.7034C10.7299 84.5041 10.7201 84.332 10.7179 84.1849C10.7147 83.8908 10.7452 83.6937 10.7988 83.5662C10.9069 83.3113 11.1111 83.3331 11.3339 83.4007L11.3318 83.4072Z" fill="#2E2D2C"/>
<path d="M93.0432 41.6633C92.3374 41.638 91.6309 41.6136 90.9319 41.5883C84.676 41.4467 78.4232 41.5011 72.0079 41.5883C68.8 41.6343 65.5514 41.6802 62.2412 41.7271C60.5861 41.744 58.9152 41.7609 57.227 41.7778C57.0158 41.7796 56.8046 41.7806 56.5926 41.7824L56.2747 41.7843H56.0522C55.8651 41.7806 55.6764 41.7759 55.4885 41.7721C55.2953 41.7674 55.1006 41.7627 54.9067 41.7571C54.8075 41.7543 54.7075 41.7515 54.6083 41.7487L54.4572 41.744L54.3813 41.7421H54.343L54.3242 41.7402H54.3099C54.3092 41.7412 54.3099 41.744 54.3099 41.7449C54.2986 42 54.2866 42.2635 54.2746 42.528C54.2513 42.8731 54.2295 43.235 54.2084 43.6092C54.2039 43.7039 54.1987 43.7986 54.1934 43.8933L54.1897 43.9655L54.1874 44.0021L54.1851 44.0771L54.1769 44.3772C54.1671 44.7758 54.1566 45.1762 54.1468 45.5785C54.11 47.1821 54.0882 48.7941 54.1085 50.4033C54.1273 52.0134 54.1829 53.6226 54.2941 55.2177C54.4121 56.8101 54.5888 58.3874 54.8428 59.9272L54.9398 60.5039C54.9571 60.5996 54.9706 60.6971 54.9901 60.7918L55.2217 61.9265L55.2502 62.0681L55.284 62.2191C55.4637 63.0274 55.6426 63.8273 55.8252 64.6188C56.192 66.197 56.5708 67.7378 57.0053 69.2035C57.4345 70.6739 57.9238 72.0674 58.4762 73.3794C58.619 73.7029 58.7558 74.0311 58.9077 74.3434C58.9873 74.514 59.067 74.6847 59.1459 74.8554C59.2008 74.9754 59.2557 75.0945 59.3075 75.2155L59.4549 75.584C59.642 76.0792 59.7878 76.5827 59.9006 77.0422C60.0133 77.5027 60.0953 77.9144 60.1704 78.2576C60.0938 77.8862 60.0096 77.4361 59.8886 76.9325C59.7675 76.4299 59.6044 75.8804 59.3955 75.3552C59.3459 75.2221 59.2895 75.0926 59.2324 74.9651L59.0813 74.6285L58.8528 74.123C58.7746 73.9561 58.707 73.7798 58.6333 73.6091C58.5612 73.4375 58.4875 73.2668 58.4206 73.0896L58.2147 72.5635L58.0192 72.028C57.9523 71.8508 57.8915 71.6689 57.8298 71.486C57.7689 71.3032 57.7036 71.125 57.6464 70.9384C57.4059 70.2041 57.1879 69.4483 56.9767 68.683C56.7685 67.9141 56.5738 67.1311 56.3844 66.3368C56.198 65.5387 56.0161 64.7332 55.8395 63.9155L55.5742 62.6823L55.4419 62.0615L55.3284 61.4792C55.1698 60.713 55.048 59.9272 54.9308 59.1385C54.7023 57.5593 54.564 55.9361 54.47 54.294C54.3776 52.6511 54.3377 50.9847 54.328 49.3014C54.3189 47.6172 54.343 45.9142 54.37 44.1962C54.3903 43.4273 54.4099 42.6583 54.4302 41.8903C54.4302 41.8884 54.4302 41.8865 54.4302 41.8856H54.5602L54.694 41.8875L54.9601 41.8893L55.4862 41.894L56.0034 41.9006L56.1311 41.9025L57.0556 41.894C58.7017 41.8828 60.3456 41.8706 61.9849 41.8593C65.265 41.8425 68.5309 41.8396 71.7742 41.8565C78.2608 41.8893 84.6572 42.0009 90.8958 42.2335C88.5883 42.7887 85.8275 43.2557 82.606 43.3391C74.8499 43.3447 67.196 43.4066 59.6059 43.5098C59.6022 43.2979 59.5954 42.8852 59.5924 42.6771C58.4169 42.7371 57.2458 42.7962 56.0793 42.8552C55.7989 42.8852 55.5306 42.904 55.272 42.9256C55.2788 43.2547 55.2788 43.5698 55.275 43.8858C55.2698 44.4532 55.2645 45.0205 55.2592 45.5869C55.2517 46.3062 55.2495 47.0151 55.2465 47.7241C55.2427 50.5496 55.2848 53.3038 55.496 55.9586L55.5336 56.4575L55.5824 56.9498C55.6163 57.2771 55.6433 57.6081 55.6824 57.9316L55.8335 59.1432L55.944 59.8578L56.0169 60.3351C56.0394 60.4955 56.074 60.6483 56.1018 60.8049L56.2777 61.7436C56.4213 62.4319 56.5641 63.1193 56.7076 63.8067C56.9963 65.1655 57.2879 66.4943 57.6149 67.7697C57.9418 69.046 58.2973 70.2791 58.7085 71.4541L58.9453 72.1096L59.0287 72.3234L59.1948 72.752C59.2504 72.8945 59.3113 73.0324 59.3692 73.173C59.4286 73.3118 59.4842 73.4553 59.5466 73.5913L59.7315 74.002L59.9878 74.575C60.0419 74.695 60.09 74.8188 60.1381 74.9426C60.1855 75.0664 60.2366 75.1902 60.2772 75.3149C60.6334 76.3192 60.8146 77.2983 60.9424 77.9153C61.0062 78.2285 61.0619 78.4676 61.1152 78.6636L61.1551 78.8034L61.1964 78.9281C61.2084 78.9722 61.2257 79.0069 61.24 79.0462C61.2543 79.0847 61.2671 79.125 61.2859 79.1616C61.3024 79.1991 61.3189 79.2366 61.334 79.2751L61.4625 79.5526C61.5467 79.7383 61.6271 79.9202 61.703 80.0956L62.1187 81.0727C62.2457 81.371 62.3645 81.642 62.4772 81.8783C62.5336 81.9955 62.5884 82.108 62.6426 82.2112C62.6696 82.2618 62.6967 82.3143 62.723 82.3603L62.8583 82.6022C62.98 82.8254 63.071 83.0064 63.1619 83.1865C63.2514 83.3656 63.3333 83.5344 63.4137 83.7022C63.5738 84.0361 63.7257 84.3596 63.8752 84.6803C64.1684 85.3114 64.4615 85.9435 64.7554 86.5755C65.3364 87.8237 65.9182 89.054 66.5165 90.2506C66.8149 90.8489 67.1178 91.4378 67.4245 92.0108C67.7311 92.5828 68.0423 93.1408 68.3542 93.6575C68.4324 93.7869 68.5098 93.9135 68.5872 94.0354L68.703 94.2164L68.7173 94.2389L68.7278 94.2539L68.7398 94.2717C68.7466 94.282 68.7549 94.2905 68.7624 94.3008C68.8187 94.3805 68.8789 94.4546 68.9398 94.524C69.0014 94.5934 69.066 94.6581 69.1374 94.7068C69.1735 94.7312 69.2119 94.7509 69.2532 94.7584C69.2945 94.764 69.3374 94.7519 69.3787 94.7491L69.623 94.7162L69.6531 94.7115L69.6681 94.7097H69.6756C69.6756 94.7097 69.6786 94.7078 69.6846 94.7078H69.6989L70.3664 94.6797C70.9594 94.6525 71.554 94.6262 72.1493 94.599C71.3826 94.4874 71.8373 94.3158 71.9967 94.1808C72.05 94.1808 72.1004 94.1808 72.1493 94.1798C72.1004 94.1798 72.0493 94.1798 71.9967 94.1808C71.4036 94.1864 70.8113 94.192 70.2206 94.1967L69.7771 94.2005H69.6764L69.6576 94.2023L69.62 94.2042L69.4697 94.2108C69.4186 94.2211 69.3697 94.193 69.3299 94.1564C69.2893 94.1207 69.2532 94.0767 69.2179 94.0317C69.1818 93.9866 69.1517 93.9379 69.1171 93.8891L69.0262 93.7438L68.9165 93.5628C68.8428 93.4399 68.7691 93.3133 68.6947 93.1858C68.3971 92.6682 68.0972 92.1139 67.801 91.5428C67.5041 90.9717 67.2103 90.3838 66.9186 89.7874C66.3346 88.5936 65.7626 87.3679 65.1853 86.1216C64.8922 85.4896 64.5991 84.8575 64.3067 84.2264C64.1556 83.9038 64.003 83.5784 63.8369 83.2371C63.755 83.0674 63.6678 82.8901 63.5731 82.7035L63.5002 82.56L63.4205 82.4072L63.3311 82.2403L63.2251 82.0508L63.1477 81.912L63.074 81.7723C63.0236 81.6738 62.9718 81.5698 62.9177 81.4544C62.8094 81.2247 62.6922 80.9593 62.5644 80.6611C62.4359 80.3619 62.2961 80.03 62.1367 79.6689C62.0563 79.4879 61.9728 79.3013 61.8827 79.1081L61.8143 78.9628L61.7985 78.929L61.7849 78.8953C61.7722 78.8653 61.7586 78.8362 61.7444 78.8071C61.6978 78.6871 61.6527 78.5624 61.6045 78.3907C61.5564 78.2191 61.5023 77.98 61.4347 77.6593C61.3655 77.3376 61.2866 76.9372 61.1671 76.4561C61.0491 75.9807 60.895 75.4527 60.7026 74.9267C60.6011 74.665 60.5004 74.4015 60.3831 74.1502L60.1396 73.6175L59.9562 73.2209L59.7818 72.8148C59.5473 72.2756 59.3354 71.712 59.1257 71.1437C58.7175 69.9968 58.356 68.7918 58.0238 67.5352C57.6923 66.2777 57.3916 64.9648 57.0947 63.6163C56.9474 62.9336 56.8001 62.25 56.6528 61.5673C56.5378 60.9531 56.4055 60.3501 56.3145 59.7199L56.2394 59.252C56.2273 59.1742 56.2131 59.0963 56.2018 59.0175L56.171 58.7784L56.0469 57.8238C56.0086 57.5031 55.9793 57.1777 55.9447 56.8541L55.8951 56.3684L55.8568 55.8751C55.6403 53.2522 55.5982 50.5167 55.6163 47.7044C55.62 47.3518 55.623 46.9983 55.6268 46.6447C55.632 46.2884 55.6373 45.932 55.6426 45.5757C55.6486 45.2175 55.6546 44.8583 55.6606 44.4991L55.6659 44.2281L55.6681 44.0931L55.6696 44.0256C55.6696 44.0096 55.6696 44.0143 55.6704 44.0115V44.0077C55.6734 43.9852 55.6734 43.9637 55.6764 43.9421C55.6929 43.7705 55.7102 43.6139 55.726 43.4742C55.856 43.4873 55.9801 43.5051 56.089 43.522L56.1296 43.5285L56.1499 43.5323L56.1597 43.5342C56.1597 43.5342 56.1597 43.5342 56.1642 43.5342H56.2416C56.5182 43.5323 56.7956 43.5304 57.0729 43.5285C57.6276 43.5248 58.1846 43.521 58.7416 43.5173C58.1899 43.5248 57.6382 43.5332 57.0872 43.5407L56.2612 43.5529L56.1612 43.5548H56.1522L56.1334 43.552L56.0951 43.5482C55.9921 43.5398 55.8808 43.5304 55.7673 43.5257L55.7523 43.7658L55.7448 43.8924L55.741 43.9571C55.741 43.9684 55.7395 43.9787 55.7395 43.9899C55.7395 43.9956 55.7395 44.0012 55.7395 44.0068C55.7395 44.0115 55.7388 44.0087 55.738 44.019V44.0978C55.7155 45.7735 55.6967 47.4231 55.7102 49.0407C55.723 50.6593 55.7628 52.2507 55.8478 53.8092C55.9312 55.3687 56.074 56.8879 56.2747 58.3649L56.3499 58.9191C56.3754 59.1038 56.4092 59.282 56.4386 59.4639L56.5738 60.2788L56.628 60.5442L56.8452 61.6189L57.1098 62.8202C57.4623 64.4125 57.8171 65.9467 58.2087 67.4124C58.4056 68.142 58.6115 68.8547 58.8295 69.5477C59.052 70.235 59.2797 70.9121 59.5315 71.5592C59.7833 72.2062 60.0449 72.8401 60.3343 73.4441L60.441 73.6729L60.6319 74.0902C60.7018 74.2412 60.7642 74.3978 60.8259 74.5544L60.9183 74.7897L61.0017 75.0251C61.2242 75.6544 61.3858 76.278 61.5023 76.7891C61.6196 77.3039 61.697 77.7006 61.7624 77.9734C61.8278 78.2491 61.8759 78.4123 61.924 78.5408C61.9503 78.6036 61.9721 78.6655 62.0014 78.7237L62.0112 78.7462L62.0157 78.7574C62.0157 78.7574 62.0157 78.7574 62.0194 78.7668L62.03 78.7884L62.1111 78.96L62.266 79.2948C62.4622 79.7289 62.6313 80.1294 62.7824 80.4773C62.9319 80.8233 63.0665 81.1271 63.186 81.3719C63.2461 81.4957 63.3032 81.6054 63.3566 81.7048L63.4476 81.867C63.4904 81.943 63.5378 82.0264 63.5708 82.0883L63.6738 82.2806C63.8008 82.5225 63.9046 82.7307 64.0053 82.9361L64.2894 83.5259L64.8178 84.6503C65.5018 86.1207 66.1587 87.547 66.8299 88.9396C67.1644 89.6345 67.5011 90.3191 67.8401 90.983C68.1791 91.646 68.5211 92.2912 68.8593 92.8857C68.9435 93.0348 69.0277 93.1792 69.1111 93.319L69.2352 93.5243L69.3306 93.6781C69.3539 93.7128 69.3772 93.7466 69.4028 93.7775C69.4283 93.8085 69.4546 93.8385 69.4855 93.8601C69.517 93.8844 69.5554 93.8713 69.5899 93.8732L69.6433 93.8713H69.6696L69.871 93.8694L70.8842 93.8657C71.56 93.8629 72.2357 93.8601 72.9122 93.8572C75.618 93.846 78.3292 93.8347 81.0494 93.8235L78.2931 95.3361C78.4435 95.1382 78.5757 94.9563 78.7636 94.735L78.8967 94.5774C78.9433 94.524 78.9951 94.4677 79.044 94.4143C79.144 94.3055 79.2439 94.1967 79.3492 94.0964C79.7641 93.6838 80.2173 93.333 80.6931 93.0376L80.9577 92.8773L81.1493 92.7647L81.2891 92.6813L81.3478 92.6457L81.3959 92.6138C81.5199 92.5312 81.6206 92.4572 81.7476 92.3503L82.119 92.0202L82.2415 91.9011C82.3226 91.8204 82.4068 91.7454 82.4873 91.6619L82.7285 91.4087C83.0465 91.0608 83.3614 90.6989 83.6606 90.2956C84.8669 88.7033 85.9185 86.7087 86.8069 84.4974C87.6991 82.2862 88.4432 79.8724 89.0791 77.3564C89.2392 76.7281 89.391 76.0914 89.5384 75.449C89.612 75.1283 89.6842 74.8057 89.7548 74.4812C89.8262 74.1605 89.8969 73.8239 89.9653 73.5003C90.1021 72.8486 90.2299 72.2081 90.3456 71.5751L90.4305 71.1015L90.4704 70.8708L90.5012 70.6795C90.5418 70.4132 90.5816 70.131 90.6207 69.8112C90.6726 69.3732 90.7372 68.8256 90.8079 68.2235C90.8289 68.0547 90.8507 67.8813 90.8725 67.705C90.8845 67.6149 90.8966 67.523 90.9086 67.4311C90.9221 67.3364 90.9356 67.2398 90.9492 67.1442C90.9747 66.9548 91.0093 66.7456 91.0409 66.544C91.0589 66.439 91.077 66.333 91.0957 66.2271L91.1236 66.0686L91.1551 65.9035L91.2198 65.5734C91.2446 65.46 91.2694 65.3465 91.2942 65.233C91.3175 65.1214 91.3468 65.0033 91.3761 64.887C91.4024 64.781 91.4287 64.6751 91.455 64.57C91.4858 64.4472 91.5159 64.3262 91.546 64.2062C91.5745 64.0833 91.6023 63.9633 91.6302 63.8451C91.7376 63.3688 91.8218 62.9111 91.8857 62.5417C92.0691 61.843 92.2277 61.1069 92.3645 60.3501C92.4337 59.9722 92.496 59.5886 92.5547 59.2004C92.5832 59.0063 92.6118 58.8122 92.6381 58.6152L92.6772 58.3208L92.696 58.1726L92.705 58.0985L92.7095 58.062L92.7118 58.0432L92.7133 58.032L92.7163 57.9991C92.7486 57.6831 92.7907 57.3699 92.8486 57.0614L92.8937 56.8307L92.938 56.6244C92.953 56.555 92.9658 56.5053 92.9801 56.4443L93.0199 56.284C93.071 56.0833 93.1116 55.9351 93.1387 55.8385C93.165 55.7457 93.1785 55.7044 93.186 55.6988H93.1875L93.1883 55.6979L93.2244 55.7035L93.3732 55.7298C93.4138 55.7373 93.4551 55.7438 93.4957 55.7485L93.6085 55.7626C93.6573 55.7701 93.7069 55.7748 93.758 55.7776L94.9441 55.8601L94.872 55.8545L94.7277 55.846L94.3977 55.8385C94.2669 55.8367 94.1361 55.8385 94.0053 55.8432C93.8189 55.8442 93.6265 55.8489 93.4378 55.8582L93.2086 55.8714V55.8667C93.2086 55.8667 93.2108 55.862 93.2116 55.8545C93.2116 55.8348 93.2131 55.8235 93.2131 55.7898V55.7438L93.2101 55.6679C93.1778 55.0452 93.1815 54.4188 93.274 53.8073L93.3243 53.4698L93.3619 53.24L93.4318 52.8311C93.4792 52.5601 93.528 52.291 93.5777 52.0237C93.6769 51.4901 93.7798 50.9641 93.8851 50.4464L94.0437 49.6746L94.0722 49.5396C94.076 49.5199 94.082 49.5077 94.0858 49.4824L94.0993 49.4121L94.1128 49.3248C94.1504 49.0698 94.1744 48.6365 94.218 48.011C94.2413 47.6969 94.2729 47.3368 94.3263 46.9411C94.3518 46.746 94.3857 46.535 94.424 46.325L94.4879 46.0024C94.2932 45.9367 96.2151 46.5631 95.3868 46.2931L95.3012 46.2621L95.1869 46.2218L94.9584 46.143C94.8058 46.0914 94.6532 46.0417 94.4999 45.9939C94.4864 45.9902 94.4886 45.9902 94.4886 45.9902V45.9855L94.4901 45.9799C94.4901 45.9799 94.4924 45.9724 94.4939 45.9695C94.4954 45.9639 94.4969 45.9695 94.4992 45.9433L94.5149 45.8289L94.5315 45.7145C94.5367 45.6741 94.542 45.6179 94.5473 45.5701L94.5788 45.27L94.6066 44.9399L94.6209 44.7739L94.657 44.2544L94.6983 43.5436C94.7231 43.0634 94.7442 42.5777 94.7615 42.0881C94.9562 42.5308 95.2215 42.4389 95.4996 42.2635C95.7762 42.0881 96.0641 41.8275 96.3016 41.9503C96.5376 42.0722 96.733 42.5833 96.7886 43.9393C96.8022 44.2778 96.8052 44.6679 96.7947 45.1134C96.7871 45.3337 96.7804 45.5738 96.7623 45.8148C96.7541 45.9358 96.7465 46.0671 96.733 46.1862C96.727 46.2471 96.7202 46.3099 96.7142 46.3728C96.7105 46.4037 96.7082 46.4384 96.7037 46.4656C96.6992 46.4919 96.6954 46.5191 96.6909 46.5463C96.6827 46.6007 96.6744 46.656 96.6661 46.7122C96.6496 46.8023 96.633 46.8932 96.6165 46.9851C96.5872 47.1689 96.5609 47.3556 96.5414 47.544C96.5008 47.9201 96.479 48.2989 96.4572 48.6694C96.4354 49.037 96.4151 49.4017 96.37 49.7422C96.3595 49.8284 96.3459 49.9119 96.3324 49.9953C96.3264 50.0385 96.3174 50.0779 96.3098 50.1191C96.3008 50.1632 96.2926 50.2073 96.2835 50.2523C96.2399 50.4624 96.1956 50.6771 96.1505 50.8965C96.3144 50.9425 96.6428 51.0344 96.8067 51.0803C96.86 50.8647 96.9134 50.6518 96.966 50.4398C97.0164 50.2364 97.0622 50.0375 97.0976 49.8312C97.1705 49.4214 97.2171 49.0032 97.2704 48.5934C97.3223 48.1836 97.3832 47.7813 97.4734 47.4024C97.517 47.2111 97.5756 47.0367 97.623 46.8482C97.6771 46.6625 97.7124 46.4769 97.7552 46.2931C97.9101 45.5579 98.0266 44.8555 98.1453 44.1962C98.2626 43.537 98.3716 42.919 98.4806 42.346C98.6955 41.2001 98.9037 40.2333 99.1089 39.4662C99.3134 38.6981 99.5141 38.1327 99.708 37.7707C99.9019 37.434 100.095 37.3215 100.281 37.4537C100.327 37.4866 100.373 37.5353 100.418 37.6C100.463 37.6666 100.508 37.7388 100.553 37.8457C100.596 37.9489 100.64 38.0745 100.681 38.2096C100.723 38.3446 100.763 38.4975 100.802 38.6663C100.958 39.3396 101.092 40.2764 101.187 41.518C101.235 42.1388 101.271 42.8355 101.29 43.6223C101.301 44.0143 101.304 44.4335 101.303 44.878C101.301 45.1049 101.298 45.3319 101.293 45.5738C101.289 45.6967 101.285 45.8214 101.281 45.948C101.277 46.0736 101.273 46.1993 101.264 46.3418C101.257 46.4469 101.251 46.5528 101.244 46.6588L101.234 46.8173L101.217 47.002C101.204 47.1258 101.192 47.2486 101.18 47.3724C101.177 47.4062 101.175 47.4287 101.17 47.4709L101.152 47.5994L101.113 47.8563L101.071 48.1133L101.065 48.1433V48.1461L101.066 48.1508V48.1602L101.068 48.1798C101.068 48.1902 101.068 48.1995 101.068 48.2089C101.066 48.2708 101.065 48.3327 101.064 48.3946C101.059 48.6665 101.054 48.9404 101.05 49.2161C101.041 49.5968 101.025 50.0957 100.965 50.6855C100.95 50.8318 100.929 50.9903 100.909 51.1441C100.887 51.2904 100.864 51.4357 100.841 51.582C100.814 51.7499 100.788 51.9187 100.762 52.0884C100.71 52.4251 100.66 52.7599 100.611 53.0937C100.563 53.4276 100.517 53.7595 100.473 54.0896C100.453 54.2537 100.432 54.4178 100.412 54.5829L100.382 54.8286L100.378 54.8595C100.377 54.8698 100.375 54.882 100.376 54.8792V54.883C100.376 54.883 100.378 54.8895 100.378 54.8933C100.379 54.9177 100.386 54.9411 100.392 54.9636C100.392 54.9636 100.392 54.9655 100.392 54.9664L100.394 54.9983L100.4 55.0799L100.413 55.2768L100.419 55.3959L100.424 55.5263C100.427 55.6257 100.43 55.7194 100.43 55.8423C100.432 55.9501 100.429 56.0945 100.424 56.2277C100.419 56.3346 100.413 56.4303 100.407 56.5325C100.401 56.6347 100.392 56.7266 100.383 56.8232L100.369 56.9667L100.353 57.1017C100.31 57.4609 100.254 57.7835 100.205 58.0329C100.166 58.2233 100.128 58.4146 100.089 58.6059C100.064 58.7353 100.05 58.8159 100.054 58.8047V58.8356L100.035 59.1591L100.01 59.5136C99.9936 59.7499 99.9748 59.9881 99.9553 60.2263C99.9154 60.7036 99.8703 61.1857 99.817 61.6733C99.7117 62.6467 99.5772 63.6398 99.4013 64.6554C99.3126 65.1636 99.2157 65.6766 99.1014 66.197C99.0473 66.4559 98.9842 66.7194 98.9225 66.9819C98.8647 67.2117 98.8075 67.4424 98.7497 67.6721C98.6933 67.8944 98.6362 68.1776 98.5828 68.5058C98.5287 68.835 98.4776 69.2091 98.4265 69.6246C98.3212 70.4564 98.2243 71.4279 98.0409 72.5766L98.0048 72.7942L97.9702 72.9939L97.9033 73.3672C97.8567 73.6138 97.8109 73.8604 97.7643 74.1071C97.6696 74.5975 97.5703 75.0823 97.4689 75.5615C97.0667 77.4502 96.6195 79.3735 96.0941 81.2959C95.5687 83.2193 94.9712 85.1483 94.2669 87.0641C93.5611 88.979 92.7448 90.8808 91.7685 92.7244C90.7921 94.5652 89.6488 96.3526 88.2831 97.9618C87.6014 98.7655 86.864 99.5232 86.0733 100.208L86.0365 100.241L85.9936 100.277L85.9057 100.35L85.7298 100.496C85.6103 100.592 85.484 100.687 85.3608 100.781C85.2352 100.871 85.106 100.965 84.9812 101.048L84.7933 101.173L84.6174 101.284L84.313 101.471L84.1987 101.541L84.1258 101.588L84.1078 101.599C84.1078 101.599 84.107 101.601 84.1063 101.602C84.1063 101.604 84.1048 101.605 84.104 101.606C84.1018 101.607 84.1003 101.61 84.0995 101.613C84.0958 101.616 84.0943 101.625 84.0912 101.628C84.0867 101.639 84.0807 101.646 84.0762 101.657C84.0762 101.655 84.0679 101.669 84.0627 101.677C84.0567 101.687 84.0499 101.695 84.0431 101.703C84.0191 101.737 83.9898 101.779 83.962 101.816L82.7699 103.388L81.0456 103.417C78.2668 103.463 75.488 103.51 72.7092 103.556L70.6249 103.583L69.4952 103.595L68.4565 103.601C68.37 103.601 68.2828 103.602 68.1971 103.601L67.9401 103.587C67.7755 103.555 67.6139 103.515 67.4508 103.48L66.9622 103.371C66.8036 103.321 66.6473 103.251 66.4902 103.175C66.1775 103.021 65.8791 102.829 65.5957 102.607C65.0305 102.161 64.5179 101.595 64.0474 100.965C63.8121 100.65 63.5859 100.323 63.3679 99.9864L63.2055 99.7332L63.0823 99.5344L62.8898 99.2194C62.6388 98.802 62.4088 98.3969 62.1871 97.9956C61.7451 97.1929 61.3407 96.4079 60.9514 95.6268C60.5628 94.8466 60.1907 94.071 59.8277 93.2993C59.4654 92.5284 59.1129 91.7604 58.7664 90.9999L57.7532 88.7671L57.5119 88.2429L57.2871 87.7665L57.1428 87.472C57.1473 87.4673 57.1323 87.4805 57.1526 87.4617L57.4052 87.2329C57.7539 86.9206 57.0842 87.5189 57.1383 87.4626L57.0549 87.3107C57.0181 87.2432 56.979 87.1738 56.9452 87.1082C56.8753 86.975 56.8053 86.8409 56.7422 86.7124C56.4821 86.1901 56.2732 85.7081 56.092 85.2777L55.6268 84.1514C55.5606 83.9948 55.4975 83.8457 55.4396 83.7163L55.2487 83.2821C55.1751 83.1171 55.1104 82.9473 55.0458 82.7767C54.7872 82.0977 54.594 81.4 54.4625 80.8139C54.3295 80.225 54.249 79.7608 54.1874 79.4476C54.1265 79.1297 54.0867 78.9562 54.0529 78.8259C54.0393 78.763 54.022 78.7162 54.0078 78.6618C53.998 78.6364 53.989 78.6111 53.9807 78.5839L53.9777 78.5736C53.9777 78.5736 53.9777 78.5727 53.9754 78.5661L53.9672 78.5474L53.9333 78.4714L53.8665 78.3195C53.7778 78.116 53.6883 77.9134 53.5989 77.7099C53.5117 77.5055 53.4298 77.2992 53.3448 77.0938C53.1727 76.684 53.0216 76.2667 52.8623 75.8513C52.7856 75.6431 52.7134 75.434 52.639 75.2249C52.5646 75.0157 52.491 74.8066 52.4233 74.5966C52.3542 74.3865 52.285 74.1774 52.2159 73.9673L52.0204 73.3372L51.9235 73.0221L51.6506 72.0768C51.4199 71.2394 51.2004 70.401 51.0027 69.573C50.6021 67.9141 50.2616 66.2843 49.9301 64.691L49.776 63.9464L49.7437 63.7804L49.6791 63.4447L49.5506 62.7723C49.5092 62.5482 49.4619 62.3232 49.4295 62.1C49.3589 61.6517 49.2882 61.2035 49.2176 60.7543C49.1567 60.307 49.1018 59.8597 49.044 59.4114C48.8327 57.624 48.699 55.8479 48.6178 54.0943C48.5381 52.3407 48.5156 50.6124 48.5148 48.9057C48.5133 48.0504 48.5231 47.2074 48.5321 46.3643C48.5464 45.5175 48.5607 44.6707 48.5749 43.8249C48.5855 43.069 48.5967 42.3141 48.6073 41.5583C48.6163 40.8044 48.6253 40.0513 48.6343 39.2974C48.6493 37.7988 48.6644 36.3012 48.6787 34.8055C50.0376 34.7849 51.3951 34.7652 52.7503 34.7445C53.423 34.7352 54.0957 34.7267 54.7677 34.7173C55.1021 34.7127 55.4366 34.7089 55.7711 34.7042L56.1544 34.7014H56.431C57.9072 34.6995 59.379 34.7033 60.8424 34.7117C63.77 34.7295 66.6676 34.7717 69.5185 34.8496C75.273 34.9096 85.3247 34.0206 88.2102 34.5748C90.2802 34.8224 90.3697 35.2669 90.0615 35.7733C80.6104 35.9449 71.1894 36.1662 61.8729 36.3162L56.3273 36.3434L55.5524 36.35L50.9208 36.4016L50.4533 36.4063L50.2188 36.4091H50.1015L50.0429 36.4109H49.9993C49.9955 36.4128 49.9925 36.4147 49.9895 36.4166L49.9519 39.2674C49.9392 40.2239 49.9241 41.1832 49.9061 42.1444L49.879 43.5904L49.867 44.1822L49.8557 44.6604L49.8151 46.5838C49.8061 47.229 49.7918 47.8713 49.7888 48.5221L49.7813 49.4955L49.7836 50.4745C49.7813 51.1253 49.7978 51.7846 49.8061 52.441C49.8114 52.7692 49.8249 53.1012 49.8339 53.4304C49.846 53.7614 49.8505 54.0896 49.8693 54.4225C49.9023 55.0865 49.9286 55.7504 49.9805 56.419C50.0053 56.7529 50.0233 57.0867 50.0534 57.4215L50.1466 58.4277C50.1631 58.5956 50.1759 58.7634 50.1955 58.9313L50.2556 59.4358L50.3774 60.4448L50.5277 61.4557L50.6036 61.9612L50.6945 62.4657L50.8795 63.4757L51.0636 64.4097L51.2508 65.3437L51.4424 66.2843C51.7025 67.5427 51.9798 68.8181 52.2985 70.1047C51.9971 68.835 51.7333 67.5746 51.4853 66.3283C51.3643 65.7094 51.244 65.0895 51.123 64.4688C51.0644 64.1621 51.005 63.8545 50.9463 63.5469C50.887 63.214 50.8276 62.8802 50.769 62.5463C50.2977 59.8728 50.0775 57.1898 49.9602 54.5407C49.9422 54.2087 49.9339 53.8786 49.9241 53.5485C49.9143 53.2184 49.9053 52.8883 49.8956 52.5573C49.891 52.2282 49.8865 51.8999 49.8813 51.5708L49.8745 51.0775L49.873 50.5861C49.873 50.2589 49.8715 49.9316 49.8708 49.6034L49.8775 48.6243C49.8805 47.9707 49.8926 47.3227 49.9016 46.6729C49.9294 45.1987 49.9572 43.7227 49.985 42.2429C50.0023 41.2817 50.0151 40.3214 50.0263 39.3621C50.0369 38.4074 50.0474 37.4528 50.0579 36.4963C53.9754 36.4353 57.9178 36.3744 61.8759 36.3134C71.1729 36.2637 80.4759 36.1962 89.7751 36.1803C89.4421 36.6173 89.1227 37.0721 89.697 37.4716C89.697 37.4716 92.5705 37.3975 94.0076 37.36C99.7764 38.2593 98.3596 39.7644 95.5079 40.8878C94.7788 41.1194 93.9602 41.3811 93.0462 41.6446L93.0432 41.6633Z" fill="#EF8D2B"/>
<path d="M89.7564 121.558C89.6294 121.514 89.5016 121.469 89.3753 121.428C87.0385 120.799 84.7009 121.009 82.104 120.59C80.2865 120.171 78.209 120.38 76.3915 120.38C80.6992 120.766 85.227 120.62 89.3655 122.073C88.9469 122.568 88.447 122.962 87.8653 122.962C86.4642 122.767 85.082 122.63 83.711 122.537V121.704C79.816 122.333 76.1803 120.656 72.2853 121.704C72.4236 121.816 72.3417 121.987 72.3132 122.122C76.145 121.918 79.728 122.12 83.5546 122.527C77.6129 122.134 71.884 122.543 65.7942 122.543H64.7555C63.7167 121.914 62.6779 121.704 61.6399 121.704C61.8992 120.656 60.8605 118.558 62.938 118.977V118.139C60.8605 117.09 60.081 114.153 62.1586 113.315C64.4954 112.476 67.6117 113.315 70.4671 112.896C72.5447 112.686 74.6222 112.476 76.699 112.896C79.5552 113.525 82.6715 113.315 85.5277 114.154C86.5664 114.364 88.3846 113.735 88.904 114.364C89.2768 114.665 89.2919 115.112 89.2347 115.61C87.5278 115.536 85.8253 115.514 84.1424 115.422C82.0777 115.187 80.0129 114.926 77.9497 114.509C79.9678 115.083 82.0401 115.308 84.1424 115.422C85.8216 115.613 87.5022 115.788 89.1814 116.012C89.1197 116.439 89.0611 116.887 89.1633 117.3H89.942C90.9808 118.349 90.7207 119.817 90.2021 120.866C90.0698 121.079 89.921 121.319 89.7556 121.559L89.7564 121.558Z" fill="#EF8D2B"/>
<path d="M77.223 101.028C77.1876 101.103 77.1516 101.179 77.1192 101.253C76.993 101.598 76.9095 101.945 76.8487 102.292L76.8269 102.423L76.8171 102.488C76.8141 102.51 76.8111 102.519 76.8081 102.535C76.7968 102.593 76.7855 102.652 76.7765 102.711C76.769 102.772 76.7622 102.833 76.7547 102.894C76.7487 102.956 76.7457 103.022 76.7412 103.087C76.7111 103.615 76.7562 104.261 76.6908 105.106C76.6427 105.403 76.6254 105.723 76.6239 106.056C76.6239 106.222 76.6262 106.393 76.6307 106.566L76.6382 106.829L76.6472 107.07C76.6495 107.134 76.6532 107.203 76.657 107.244V107.253L76.321 107.286L75.6964 107.351L75.174 107.412L75.0643 107.426L75.0094 107.433C74.6366 107.486 78.1347 106.994 76.6547 107.203C76.6555 107.211 76.657 107.202 76.657 107.198L76.66 107.143C76.6638 107.069 76.6675 106.996 76.6713 106.925C76.675 106.854 76.6788 106.782 76.6795 106.714C76.6795 106.697 76.6795 106.679 76.6795 106.662C76.6795 106.661 76.6795 106.656 76.6788 106.658V106.704C76.6788 106.738 76.6795 106.772 76.6803 106.806L76.7096 106.689C76.7126 106.681 76.7141 106.665 76.7186 106.663C76.7224 106.674 76.7246 106.683 76.7269 106.693L76.7419 106.753C76.7607 106.832 76.778 106.91 76.7938 106.986L76.8163 107.098L76.8269 107.154C76.8284 107.162 76.8306 107.173 76.8306 107.18C76.8306 107.179 76.8306 107.172 76.8306 107.177C76.0204 107.291 78.6443 106.924 75.0147 107.433L75.0763 107.425L75.1996 107.409L75.4822 107.375L76.1519 107.303L76.8381 107.235C76.8411 107.231 76.8426 107.195 76.8441 107.164L76.8494 107.059C76.8539 106.996 76.8539 106.88 76.8554 106.781C76.8652 105.963 76.8186 105.213 76.8148 104.562C76.8088 103.908 76.8509 103.359 76.987 102.91C77.0554 102.674 77.1463 102.551 77.256 102.186C77.365 101.873 77.4906 101.564 77.6356 101.257C78.0325 101.505 78.3489 101.801 78.3489 102.145C78.3301 102.249 78.3113 102.352 78.2925 102.456L78.2858 102.494C78.2835 102.504 78.2813 102.507 78.2798 102.515L78.267 102.551L78.2422 102.625C78.2264 102.676 78.2136 102.73 78.1993 102.784C78.1866 102.84 78.176 102.901 78.1648 102.96C78.1242 103.208 78.1099 103.511 78.1159 103.873C77.9483 103.904 77.6206 103.966 77.456 103.998C77.5492 104.241 77.6198 104.518 77.6702 104.815C77.7206 105.114 77.7506 105.447 77.7634 105.795C77.7754 106.148 77.7679 106.522 77.7454 106.906C77.7446 106.933 77.7424 106.945 77.7401 106.962L77.7341 107.008L77.7221 107.095C77.7183 107.121 77.7138 107.145 77.7093 107.156L77.7078 107.158L77.0298 107.219C76.5533 107.263 76.0978 107.309 75.731 107.349L75.2138 107.409L75.1071 107.422L75.0537 107.429C76.2361 107.263 72.3313 107.811 77.6912 107.06C77.6912 107.058 77.6897 107.054 77.6897 107.053C77.6882 107.057 77.6882 107.056 77.6867 107.053C77.6664 107.021 77.6439 106.985 77.6221 106.947C77.6003 106.91 77.5792 106.871 77.5597 106.829L77.5304 106.766L77.5266 106.758C77.5266 106.758 77.5236 106.762 77.5229 106.764L77.5161 106.779L77.5041 106.809C77.4966 106.83 77.4898 106.848 77.4845 106.873C77.4785 106.943 77.474 107.011 77.4695 107.081C77.4612 107.219 77.4567 107.358 77.4567 107.497C77.4567 108.054 77.5304 108.617 77.7401 109.191C77.8295 109.111 77.9671 109.162 78.0753 109.18C78.0753 109.186 78.0753 109.192 78.0761 109.196C78.0761 109.191 78.0761 109.186 78.0753 109.18C78.0347 108.619 78.0137 108.067 78.0107 107.519C78.0107 107.383 78.0107 107.247 78.0122 107.11L78.0152 106.905V106.882L78.0159 106.877V106.868L78.0197 106.85C78.022 106.838 78.0235 106.826 78.0272 106.815L78.037 106.852C78.043 106.876 78.0505 106.9 78.0588 106.922C78.0671 106.945 78.0753 106.967 78.0851 106.988L78.0881 106.995V107.001C78.7541 106.909 72.2434 107.822 75.0267 107.431C75.283 107.397 75.6475 107.354 76.0414 107.314L76.6886 107.249L77.4079 107.183L78.1024 107.122C78.1024 107.122 78.1024 107.122 78.1031 107.12C78.1039 107.116 78.1054 107.107 78.1061 107.097L78.1152 106.935C78.1174 106.913 78.1174 106.854 78.1182 106.808L78.1197 106.663C78.1212 106.567 78.1219 106.469 78.1219 106.377V106.096L78.1197 105.825C78.1159 105.491 78.1122 105.154 78.1084 104.817C78.1084 104.667 78.1084 104.516 78.1084 104.365C78.1099 104.226 78.1114 104.083 78.1167 103.956C78.1257 104.356 78.1595 104.822 78.1963 105.352C78.2144 105.621 78.2332 105.898 78.2475 106.194C78.255 106.343 78.2625 106.49 78.267 106.645L78.2745 106.876L78.2775 107.022L78.279 107.079V107.104C78.2662 107.105 78.3068 107.101 78.2512 107.107L77.6213 107.162L76.4788 107.269L75.9835 107.319L75.5393 107.368L75.1635 107.413L75.0808 107.424C76.5127 107.223 71.7586 107.89 78.27 106.977V106.968L78.2692 106.959L78.2662 106.92C78.2655 106.895 78.2662 106.87 78.2662 106.844C78.2662 106.846 78.2677 106.867 78.2685 106.877L78.27 106.886L78.2745 107.125L78.2888 107.769C78.3316 109.488 78.4136 111.217 78.4136 112.998C78.4136 113.15 78.4136 113.454 78.4136 113.606C77.9092 114.21 77.7408 114.819 77.7408 115.427C76.9005 115.273 75.2191 115.883 75.5551 114.66C75.3875 114.66 75.0507 114.658 74.8831 114.658C74.0428 115.88 71.6887 116.35 71.0167 115.111C70.344 113.715 71.0167 111.861 70.6807 110.156C70.5965 109.535 70.5124 108.914 70.4913 108.293C70.4808 107.983 70.4861 107.673 70.5154 107.364C70.5297 107.209 70.5499 107.054 70.5778 106.901L70.5996 106.785L70.6116 106.727L70.6146 106.712L70.6176 106.684L70.6244 106.628C70.6424 106.478 70.6627 106.329 70.6905 106.181L70.7221 106.029L70.7303 105.992L70.7348 105.973C70.7348 105.973 70.7364 105.964 70.7371 105.967V105.977L70.7439 106.054C70.7521 106.157 70.7627 106.261 70.7739 106.364C70.7972 106.57 70.8213 106.778 70.8453 106.986L70.8626 107.141C70.8747 107.192 70.8799 107.244 70.8882 107.295C70.904 107.399 70.9167 107.501 70.9318 107.603C70.9461 107.705 70.9603 107.807 70.9769 107.908L70.9897 107.984L70.9987 108.04C70.9994 108.045 70.9987 108.031 70.9987 108.026C70.9987 108.019 70.9987 108.012 70.9972 107.989L70.9919 107.91L70.9897 107.858V107.821C70.9881 107.777 70.9881 107.747 70.9897 107.721C70.9927 107.621 70.9979 107.557 71.0024 107.489L71.0099 107.394L71.0137 107.348C71.0152 107.33 71.0167 107.329 71.0175 107.319C71.028 107.253 71.0408 107.192 71.0483 107.12C71.0558 107.048 71.0656 106.98 71.0708 106.9L71.0798 106.782L71.0866 106.656C71.1047 106.314 71.1107 105.909 71.1385 105.436C71.167 104.964 71.2204 104.428 71.3467 103.871C71.3595 103.771 71.3625 103.663 71.3595 103.545C71.3557 103.428 71.3444 103.308 71.3324 103.177C71.3053 102.924 71.2768 102.66 71.2497 102.408C71.2076 102.025 71.2076 101.68 71.4594 101.527C71.7007 101.308 72.0592 101.298 72.4583 101.333C72.4433 101.584 72.4313 101.837 72.42 102.088L72.4035 102.465L72.3975 102.691C72.396 102.769 72.393 102.847 72.3937 102.924C72.3907 103.541 72.4215 104.134 72.4478 104.674C72.4388 105.014 72.432 105.333 72.4185 105.636C72.405 105.94 72.3854 106.226 72.3516 106.489C72.3178 106.751 72.2757 106.998 72.2141 107.218L72.2028 107.26C72.199 107.273 72.1953 107.299 72.1923 107.318L72.1705 107.447C72.163 107.492 72.1562 107.538 72.1494 107.594C72.1464 107.623 72.1434 107.652 72.1412 107.696C72.1404 107.721 72.1397 107.744 72.1412 107.791L72.1434 107.837V107.874L72.1427 107.869C72.0878 107.632 72.0434 107.386 71.9893 107.138C72.0592 107.381 72.1171 107.62 72.1825 107.85L72.1855 107.86C72.1855 107.86 72.1878 107.871 72.1878 107.864C72.1878 107.855 72.1893 107.851 72.1893 107.836L72.1878 107.763C72.1878 107.742 72.1878 107.73 72.1893 107.715C72.1923 107.664 72.196 107.634 72.2005 107.604C72.2096 107.547 72.2186 107.502 72.2283 107.456L72.2562 107.327L72.2697 107.265L72.2832 107.222C72.3576 107.002 72.4065 106.753 72.4381 106.49C72.4696 106.226 72.4801 105.939 72.4794 105.636C72.4794 105.333 72.4651 105.014 72.4493 104.672C72.4629 104.127 72.4832 103.531 72.541 102.928C72.5553 102.779 72.5749 102.622 72.5921 102.478L72.6523 102.107C72.6929 101.859 72.7357 101.612 72.7808 101.364C73.1235 101.401 73.4821 101.435 73.8135 101.375V100.916C74.6539 100.302 75.8309 100.455 76.6713 100.763C76.8419 100.841 77.0343 100.929 77.2267 101.027L77.223 101.028Z" fill="#EF8D2B"/>
<path d="M59.963 89.0963C59.7247 89.0438 59.4887 88.9978 59.2519 88.9425C58.1605 88.7418 57.0601 88.5468 55.9462 88.3311C54.8323 88.1116 53.7018 87.8697 52.5511 87.5227C51.4011 87.1776 50.23 86.7397 49.0642 86.1273C48.7734 85.9745 48.484 85.801 48.1931 85.635C47.9052 85.454 47.6181 85.2637 47.3317 85.0705C47.1912 84.9655 47.0499 84.8595 46.9085 84.7545L46.6973 84.5941L46.5921 84.5135L46.4891 84.4262C46.3523 84.309 46.2148 84.1909 46.0772 84.0727L45.872 83.8936C45.8044 83.8317 45.739 83.7661 45.6721 83.7014C44.9325 82.9718 44.2132 82.1522 43.5299 81.2801C43.3593 81.0616 43.1849 80.8459 43.0256 80.6133C42.864 80.3836 42.6949 80.1604 42.537 79.9259C42.3814 79.6896 42.2259 79.4533 42.0703 79.217C41.9162 78.9788 41.7756 78.7322 41.6268 78.4902C41.0518 77.5112 40.5181 76.5022 40.0687 75.4781C40.0108 75.3506 39.9529 75.224 39.8958 75.0965C39.8424 74.968 39.789 74.8395 39.7364 74.712C39.6312 74.456 39.5267 74.2009 39.423 73.9477C39.3283 73.6917 39.2336 73.4366 39.1404 73.1844C39.0472 72.9312 38.9547 72.6808 38.8751 72.4285C38.96 72.7324 39.0637 73.0315 39.1614 73.3335C39.2621 73.6345 39.3561 73.9383 39.4711 74.2356C39.5823 74.5347 39.6936 74.8348 39.8056 75.134C39.9288 75.4303 40.0514 75.7266 40.1746 76.0239C40.685 77.2046 41.2728 78.3646 41.9545 79.4683C42.1304 79.7403 42.3003 80.0169 42.4829 80.2832L43.0459 81.0719L43.6449 81.8268C43.8516 82.0706 44.0651 82.3069 44.2763 82.546C45.1384 83.481 46.0817 84.3072 47.0671 85.0105C48.0525 85.7147 49.077 86.2971 50.1075 86.7847C51.138 87.2705 52.1753 87.6747 53.2012 88.0047C54.228 88.3386 55.2457 88.6218 56.2499 88.8787C57.2518 89.1263 58.244 89.3626 59.2181 89.583C58.8137 89.809 58.3702 90.0162 57.8779 90.1363C57.6321 90.1972 57.3788 90.2479 57.1113 90.2657C56.8437 90.2835 56.5671 90.2807 56.2822 90.2516C54.912 89.9965 53.5297 89.6786 52.1362 89.2313C50.7441 88.7831 49.3408 88.2045 47.9668 87.4318C48.033 87.2367 48.1615 86.856 48.2262 86.6647C47.2498 86.2333 46.2945 85.6772 45.403 84.9786C44.5116 84.2818 43.6818 83.4632 42.9339 82.5639C42.7505 82.335 42.5678 82.1053 42.3875 81.8746C42.2161 81.6355 42.0462 81.3945 41.8778 81.1535L41.7523 80.9725C41.7117 80.9115 41.6734 80.8487 41.6336 80.7859L41.3991 80.4117L41.1668 80.0366C41.0909 79.9109 41.0217 79.7806 40.9496 79.653C40.3618 78.6346 39.8762 77.5684 39.4305 76.5003L39.1088 75.6957C39.0051 75.4266 38.9119 75.1555 38.8127 74.8864C38.6097 74.3481 38.4444 73.8042 38.2617 73.265C38.1723 72.9949 38.0964 72.723 38.0122 72.452L37.8882 72.0459C37.8461 71.9109 37.8047 71.7749 37.7679 71.6399C37.6912 71.3689 37.6146 71.0978 37.5371 70.8268L37.4214 70.4208L37.3132 70.0147C37.2395 69.7437 37.1658 69.4736 37.0922 69.2026C37.0546 69.0695 37.0178 68.926 36.9809 68.7844C36.9434 68.6428 36.9073 68.5012 36.8719 68.3587C36.7276 67.7894 36.5901 67.2146 36.4585 66.6341C36.1947 65.4722 35.9549 64.2841 35.7407 63.05C35.6836 63.4176 35.5288 63.2282 35.4138 63.1672C35.4115 63.1419 35.4085 63.1184 35.4063 63.0959C35.4085 63.1194 35.4108 63.1428 35.4138 63.1672C35.3146 63.1119 35.2394 63.1653 35.3048 63.7974C35.2386 63.1663 35.3146 63.1119 35.4138 63.1672C35.5461 64.4097 35.7325 65.6148 35.9647 66.7898C36.0805 67.3778 36.2075 67.9582 36.345 68.5331C36.3796 68.6766 36.4134 68.82 36.4503 68.9626C36.4864 69.1042 36.5217 69.2523 36.5585 69.3846C36.6314 69.6556 36.7043 69.9256 36.7772 70.1967C36.9163 70.7377 37.0854 71.277 37.241 71.8162C37.3169 72.0863 37.4086 72.3544 37.4943 72.6236C37.5815 72.8927 37.6687 73.1619 37.7551 73.4301L38.1813 74.637L38.3361 75.0374L38.6473 75.8373C38.7578 76.1027 38.8728 76.3671 38.9855 76.6325L39.1562 77.0301L39.3403 77.424C39.4643 77.6866 39.5869 77.9491 39.7139 78.2108C39.9845 78.7275 40.2438 79.2498 40.5459 79.7543C40.8301 80.2673 41.1555 80.7587 41.4735 81.2557C41.6433 81.4967 41.814 81.7367 41.9846 81.9778L42.1131 82.1578C42.1567 82.2178 42.2033 82.2741 42.2476 82.3322L42.5205 82.6801L42.7948 83.0271C42.8888 83.1406 42.9865 83.2494 43.0827 83.361L43.3736 83.6929L43.5194 83.8589C43.5683 83.9142 43.6201 83.9649 43.6705 84.0174C43.8742 84.2265 44.0786 84.4356 44.2831 84.6447C44.4958 84.8407 44.7085 85.0377 44.922 85.2346C45.7879 85.9998 46.7064 86.675 47.6534 87.2583C46.1719 86.388 44.7416 85.2665 43.4653 83.9349C42.195 82.5929 41.0879 81.0578 40.1611 79.4439C39.2351 77.8272 38.488 76.1393 37.8536 74.4447C37.22 72.7474 36.7043 71.0416 36.2556 69.3302C35.7896 67.5278 35.4371 65.6767 35.2198 63.7524C35.0064 61.8281 34.9245 59.8297 35.0823 57.7301C35.1214 57.2059 35.1785 56.6742 35.2537 56.1387C35.3281 55.6023 35.4213 55.0612 35.5408 54.5145C35.6588 53.9687 35.7986 53.4182 35.967 52.8678C36.1368 52.3173 36.3338 51.7659 36.5623 51.222C37.0163 50.1333 37.6131 49.068 38.3369 48.119C39.0585 47.1662 39.9161 46.3494 40.8248 45.7108C41.1345 45.497 41.6073 45.196 42.0883 44.954C42.5678 44.713 43.0511 44.518 43.3706 44.4092C44.7205 44.2666 45.9457 44.3182 47.101 44.4232L47.8879 44.5067C48.1164 44.5301 48.3457 44.5489 48.5749 44.5639C49.0327 44.593 49.4912 44.6061 49.9497 44.6061C49.4836 45.6545 51.3259 47.7523 47.6256 47.3331C47.6233 47.5422 47.6181 47.9624 47.6158 48.1715C49.4649 48.6957 50.7441 49.6925 51.0959 50.6622C51.4454 51.6318 50.8652 52.5761 48.974 52.9953C48.7087 53.0478 48.4374 53.0938 48.1615 53.1332C48.0232 53.1529 47.8842 53.1716 47.7436 53.1885C47.673 53.1969 47.6023 53.2054 47.5316 53.2129C47.4918 53.2166 47.4738 53.2213 47.446 53.2251L47.3693 53.2363C46.9589 53.2935 46.5613 53.361 46.19 53.4492C45.8164 53.5345 45.4774 53.6499 45.1708 53.7793C44.8663 53.9134 44.601 54.0672 44.365 54.2491C44.2478 54.3419 44.1365 54.4404 44.0298 54.5482C43.9238 54.658 43.8231 54.7799 43.7254 54.9149C43.5284 55.1822 43.351 55.5198 43.1947 55.9202C42.885 56.7257 42.6986 57.8154 42.7092 58.9764C42.6956 59.8185 42.7452 60.7093 42.8414 61.6161C42.9376 62.523 43.0805 63.4467 43.2548 64.3694C43.342 64.8308 43.4367 65.2922 43.5382 65.7526C43.5893 65.9833 43.6412 66.2112 43.6953 66.4428C43.7562 66.6876 43.8163 66.9333 43.8742 67.1799L43.9599 67.5503C43.9884 67.6731 44.0215 67.7922 44.0508 67.9132C44.1117 68.1552 44.1703 68.3971 44.2275 68.6419L44.4101 69.3574L44.498 69.7175C44.5281 69.8366 44.5612 69.951 44.592 70.0691C44.9167 71.3726 45.3557 72.617 45.8938 73.7451C46.1577 74.3172 46.4606 74.8376 46.771 75.3487C46.8499 75.4744 46.9348 75.5916 47.0153 75.7144C47.098 75.8345 47.1754 75.9639 47.2648 76.0736C47.4384 76.3015 47.6068 76.5406 47.7932 76.7497C48.1502 77.1952 48.5464 77.5825 48.9485 77.9707L49.2619 78.2445L49.4183 78.3833L49.5821 78.5118L49.9076 78.7734C50.0211 78.855 50.1338 78.9366 50.2466 79.0182C50.4675 79.1907 50.7103 79.3323 50.9426 79.4936C51.0005 79.5349 51.0606 79.5715 51.1222 79.6071L51.3041 79.7168C51.4266 79.789 51.5446 79.8687 51.6694 79.9391C52.1677 80.2195 52.6736 80.4998 53.2005 80.7558C53.3944 80.8374 53.6056 80.919 53.8416 80.9762C53.9581 81.0072 54.0784 81.0362 54.2017 81.0644C54.2633 81.0784 54.3249 81.0934 54.3881 81.1056C54.452 81.116 54.5166 81.1272 54.5812 81.1385C55.0969 81.2294 55.6501 81.2838 56.1815 81.3326C56.4491 81.3532 56.7061 81.3823 56.9542 81.4057C57.203 81.4282 57.4375 81.4573 57.6517 81.4957C58.0824 81.5651 58.4341 81.6664 58.6461 81.8408C59.2677 82.1737 59.2835 82.6211 59.1692 83.1134L58.616 83.0731L58.0666 83.0205C57.699 82.9896 57.3367 82.9418 56.9737 82.8986C56.7918 82.8789 56.6122 82.8517 56.4325 82.8236L55.8936 82.743L55.3607 82.6454C55.1833 82.6117 55.0052 82.5835 54.8308 82.5413L54.3054 82.4251C54.1295 82.3894 53.9596 82.336 53.7868 82.2928L53.529 82.2244C53.4425 82.2028 53.3568 82.1784 53.2734 82.1503L52.7668 81.9918C52.0986 81.763 51.4417 81.5126 50.8223 81.1928C50.0662 80.7812 49.3514 80.302 48.6914 79.7496C48.0292 79.201 47.4287 78.5662 46.8845 77.8675C46.3403 77.1689 45.854 76.4009 45.4226 75.5775L45.1091 74.9492L44.7476 74.1324C44.7243 74.0781 44.7032 74.0199 44.6807 73.9636L44.4184 73.2866C44.3755 73.1731 44.3379 73.054 44.2974 72.9377C44.3334 73.054 44.3665 73.1731 44.4048 73.2866L44.5244 73.6251L44.6454 73.9655L44.7062 74.1362L44.7731 74.3003C44.8641 74.5197 44.9543 74.7392 45.0452 74.9586C45.1452 75.1696 45.2459 75.3806 45.3466 75.5916C45.7638 76.4234 46.2448 77.2017 46.7928 77.9069C47.8827 79.3267 49.2657 80.4126 50.8223 81.1928C51.4334 81.5361 52.0821 81.8118 52.7412 82.0697C53.0742 82.1897 53.4064 82.3163 53.7492 82.4166C53.9198 82.4682 54.0882 82.5282 54.261 82.5742L54.7797 82.7158C54.9518 82.7655 55.1277 82.8058 55.3028 82.8461L55.8297 82.9699L56.3619 83.0777C56.54 83.1134 56.7166 83.1528 56.8963 83.1809C57.2548 83.2409 57.6126 83.3103 57.9756 83.3591L58.5183 83.4397C58.6995 83.466 58.8821 83.4866 59.064 83.5101C58.9437 83.932 58.8227 84.3737 58.9903 84.7957C58.9903 84.7957 59.2203 84.807 59.5082 84.821C59.7961 84.8295 60.1426 84.8398 60.3726 84.8464C61.2888 85.3865 61.6429 86.0129 61.6429 86.6441C61.6429 87.2733 61.2881 87.8997 60.804 88.4192C60.5583 88.6321 60.2779 88.8628 59.963 89.0944V89.0963Z" fill="#EF8D2B"/>
<path d="M88.7692 83.0111C88.8714 83.028 88.9743 83.0449 89.0758 83.0618C89.178 83.0749 89.2795 83.0871 89.381 83.0993C89.6147 83.1161 89.8508 83.1396 90.0845 83.1443C90.3183 83.149 90.5528 83.1508 90.788 83.1508C91.2548 83.134 91.7246 83.1115 92.1891 83.0496C93.1204 82.9361 94.0494 82.741 94.9656 82.4597C96.7981 81.8886 98.5885 81.0268 100.345 79.848C100.654 79.6446 100.973 79.4401 101.271 79.1879C101.347 79.1269 101.423 79.065 101.499 79.0031L101.613 78.9093C101.65 78.8765 101.686 78.8418 101.723 78.8081C101.868 78.6712 102.014 78.5324 102.16 78.3936C102.235 78.3261 102.304 78.2501 102.373 78.1741L102.581 77.9463C102.72 77.7934 102.862 77.6424 102.989 77.4736C103.119 77.3086 103.249 77.1426 103.38 76.9776C103.505 76.805 103.625 76.6268 103.747 76.4515L103.93 76.187L104.099 75.9085C104.211 75.7219 104.325 75.539 104.434 75.3515C104.537 75.1583 104.64 74.9651 104.742 74.7729C104.793 74.6763 104.847 74.5835 104.894 74.4841C104.941 74.3846 104.987 74.2852 105.033 74.1858C105.126 73.987 105.22 73.792 105.31 73.5941C105.393 73.3916 105.477 73.1899 105.559 72.9893C105.601 72.8899 105.643 72.7895 105.684 72.6911C105.722 72.5888 105.758 72.4866 105.795 72.3853C105.87 72.1828 105.944 71.9821 106.018 71.7824C105.921 72.0131 105.825 72.2437 105.729 72.4754L105.658 72.6489L105.421 73.1524C105.316 73.3766 105.216 73.6044 105.097 73.8164C104.983 74.033 104.869 74.2487 104.756 74.4653C104.277 75.3102 103.749 76.1073 103.176 76.8491L102.733 77.3911C102.583 77.5683 102.423 77.7334 102.269 77.9059C102.118 78.0813 101.951 78.237 101.789 78.3973L101.545 78.6374C101.466 78.7199 101.376 78.7884 101.293 78.8653L101.038 79.0894C100.952 79.1625 100.871 79.2423 100.781 79.3088L100.252 79.7233C100.074 79.8574 99.8874 79.9793 99.707 80.1069C99.5281 80.2382 99.3372 80.3488 99.1493 80.4651C98.3984 80.9255 97.6182 81.3185 96.8117 81.6223C96.7109 81.6607 96.6132 81.7048 96.511 81.7386L96.2058 81.8408C96.0014 81.9064 95.8022 81.9814 95.594 82.033C95.3881 82.0884 95.1829 82.1446 94.9777 82.1999C94.7695 82.244 94.562 82.2881 94.3553 82.3322C92.6934 82.6557 91.0038 82.6923 89.366 82.456C89.523 82.3181 89.6869 82.1868 89.8583 82.0658C90.0281 81.9402 90.2048 81.8211 90.3889 81.7189C90.4814 81.6673 90.5753 81.6195 90.6715 81.5763C90.767 81.5304 90.864 81.4863 90.9639 81.4479C91.1624 81.3691 91.3721 81.3175 91.5878 81.2753C93.6961 81.0887 95.7173 80.5335 97.522 79.5855C97.5934 79.7768 97.7332 80.1519 97.8038 80.3404C97.9587 80.2231 98.1127 80.1078 98.2676 79.9962C98.3442 79.939 98.4239 79.8874 98.4991 79.8284L98.7238 79.6521C98.8727 79.5339 99.0267 79.427 99.1726 79.307C99.3176 79.186 99.4627 79.0678 99.6093 78.9525C100.18 78.4695 100.743 77.9903 101.263 77.4568L101.462 77.2626C101.528 77.1979 101.589 77.1257 101.653 77.0582C101.779 76.9213 101.907 76.7853 102.036 76.6503L102.401 76.2208L102.585 76.0079L102.759 75.7819L103.109 75.3318L103.439 74.8582C103.494 74.7794 103.551 74.7016 103.605 74.621L103.76 74.3715L104.072 73.8726C104.866 72.5035 105.519 70.9562 105.95 69.2588C106 69.0441 106.046 68.8275 106.094 68.6118L106.164 68.2873L106.198 68.1242L106.225 67.9572C106.26 67.735 106.294 67.5118 106.329 67.2886L106.378 66.9538L106.412 66.6115C106.499 65.7601 106.562 64.6207 106.59 63.5554C106.464 63.8386 106.351 63.6323 106.252 63.5479C106.196 64.0712 106.139 64.5926 106.083 65.1121L106.04 65.5012L106.03 65.5988L106.019 65.6822L105.997 65.8463C105.969 66.0648 105.94 66.2824 105.912 66.5L105.868 66.8263L105.812 67.1451C105.774 67.358 105.737 67.5699 105.7 67.7819L105.672 67.9404C105.661 67.9929 105.649 68.0435 105.638 68.0951L105.569 68.4045C105.523 68.6109 105.477 68.8162 105.431 69.0225C105.026 70.643 104.46 72.1396 103.75 73.4844C103.709 73.5716 103.661 73.6513 103.613 73.7329L103.472 73.9767L103.331 74.2205L103.261 74.3424L103.184 74.4578L102.88 74.922L102.804 75.0383L102.722 75.148L102.559 75.3674L102.396 75.5878L102.315 75.6985L101.797 76.323L101.705 76.4205L101.521 76.6165L101.339 76.8125C101.308 76.8453 101.279 76.8791 101.247 76.91L101.15 77.0019C101.022 77.1248 100.894 77.2467 100.765 77.3695C100.703 77.4333 100.634 77.4886 100.567 77.5458L100.365 77.7175C100.102 77.9547 99.8122 78.1554 99.5341 78.372C99.3913 78.4752 99.2425 78.5689 99.0974 78.6693L98.8787 78.8174C98.8042 78.8643 98.7276 78.9075 98.6517 78.9534C98.5006 79.0434 98.3488 79.1344 98.1977 79.2254C98.0413 79.3079 97.8842 79.3895 97.7272 79.472C99.4777 78.5192 101.006 77.1932 102.227 75.5372C103.452 73.8839 104.357 71.8855 104.973 69.6686L105.084 69.2495L105.141 69.0404L105.168 68.9353L105.192 68.8275L105.38 67.9657C105.398 67.8944 105.411 67.8213 105.423 67.7472L105.461 67.5259L105.579 66.8619C105.592 66.7888 105.605 66.7147 105.614 66.6387L105.675 66.1858L105.737 65.7338L105.752 65.6203L105.76 65.5641L105.768 65.4975L105.8 65.2255C105.842 64.8626 105.885 64.4997 105.928 64.1368C106.012 63.41 106.097 62.6823 106.183 61.9537L106.247 61.407L106.279 61.1332L106.288 61.0647L106.291 61.0309L106.294 61.0141V61.0103C106.294 61.0009 106.294 60.9916 106.294 60.9812C106.294 60.9625 106.297 60.9437 106.3 60.925C106.298 60.9072 106.297 60.8893 106.298 60.8715C106.298 60.8631 106.3 60.8546 106.3 60.8453C106.298 60.8359 106.297 60.8265 106.297 60.8162C106.294 60.7965 106.297 60.7796 106.295 60.7571C106.288 60.6727 106.273 60.5527 106.247 60.3876C106.214 60.2085 106.165 59.975 106.096 59.6843C106.023 59.3777 105.935 59.0194 105.839 58.5974L105.766 58.2655L105.73 58.0976L105.694 57.9157C105.67 57.7928 105.646 57.6747 105.624 57.5481L105.559 57.1561C105.537 57.0286 105.519 56.886 105.501 56.7491L105.474 56.5419L105.461 56.4378L105.449 56.3196C105.431 56.1574 105.419 56.0027 105.408 55.8564L105.388 55.5357C105.387 55.516 105.386 55.5216 105.386 55.515L105.385 55.5038C105.384 55.4963 105.383 55.4888 105.381 55.4803C105.379 55.4653 105.374 55.4503 105.37 55.4363C105.347 55.3866 105.336 55.3509 105.291 55.2768C105.256 55.2159 105.201 55.154 105.077 55.048C105.028 55.0021 104.922 54.9289 104.783 54.8483C104.65 54.7658 104.464 54.6879 104.342 54.6335C104.126 54.3794 103.84 54.1515 103.516 53.9583C103.192 53.7652 102.829 53.6057 102.444 53.4754C101.673 53.2138 100.815 53.0722 99.9189 52.9803C100.178 52.4804 99.8911 51.6618 99.9866 51.0672C100.035 50.77 100.178 50.528 100.532 50.4099C100.884 50.2945 101.453 50.2926 102.318 50.5233C102.338 50.3151 102.377 49.8988 102.396 49.6906C101.528 49.3005 100.785 48.8494 100.235 48.3543C99.6837 47.862 99.3274 47.3302 99.1959 46.8285C99.0583 46.3268 99.156 45.857 99.498 45.4829C99.8423 45.1096 100.436 44.8246 101.391 44.7158C102.11 44.6558 102.892 44.6539 103.766 44.7542C103.982 44.7767 104.209 44.8124 104.436 44.848C104.668 44.8902 104.899 44.9333 105.143 44.9924C105.627 45.1078 106.131 45.2522 106.67 45.4669C107.207 45.6798 107.772 45.9536 108.358 46.3268C108.942 46.7001 109.547 47.1774 110.125 47.7916C110.702 48.403 111.245 49.1551 111.681 49.9879C111.786 50.197 111.892 50.408 111.992 50.6284C112.088 50.8534 112.181 51.0804 112.271 51.3092C112.352 51.5427 112.431 51.778 112.507 52.0153C112.58 52.2535 112.646 52.4954 112.71 52.7383C112.829 53.2241 112.91 53.7258 112.952 54.2322C112.963 54.3588 112.972 54.4863 112.979 54.6129L112.996 54.9467C113 55.0461 113.003 55.094 113.006 55.1259C113.006 55.1427 113.017 55.2187 113.024 55.2778C113.03 55.335 113.044 55.4091 113.055 55.4785C113.064 55.5441 113.082 55.6294 113.098 55.7101C113.112 55.7851 113.136 55.8854 113.156 55.9773C113.242 56.359 113.375 56.8504 113.53 57.489C113.681 58.122 113.849 58.9228 113.942 59.8269C113.987 60.322 114.011 60.8415 113.997 61.3667C113.99 61.6292 113.982 61.8927 113.957 62.1506L113.898 62.7958L113.747 64.4566C113.695 65.0099 113.641 65.5622 113.584 66.1136L113.496 66.9407C113.484 67.0664 113.458 67.2483 113.438 67.4068L113.372 67.8963L113.303 68.3849C113.279 68.548 113.259 68.7103 113.227 68.8734C113.168 69.1998 113.108 69.5252 113.045 69.8506C113.014 70.0128 112.984 70.175 112.949 70.3373L112.834 70.823C112.756 71.1466 112.676 71.4692 112.595 71.7899C112.504 72.1096 112.407 72.4285 112.31 72.7464L112.162 73.2218C112.11 73.3794 112.05 73.535 111.995 73.6916C111.88 74.0039 111.764 74.3134 111.646 74.6219C111.52 74.9276 111.384 75.2296 111.25 75.5297C110.488 77.1698 109.608 78.7827 108.588 80.2775C107.571 81.7723 106.417 83.1443 105.165 84.3165C103.914 85.4896 102.565 86.4546 101.189 87.1992C99.8122 87.9447 98.4059 88.467 97.0236 88.7727C96.7748 88.8393 96.5072 88.9321 96.2246 89.0165C96.0833 89.0615 95.939 89.1094 95.7917 89.16C95.6444 89.2107 95.4948 89.265 95.343 89.311C95.0393 89.4057 94.7281 89.5154 94.4162 89.6101C94.1043 89.7011 93.7916 89.7939 93.4864 89.8774C92.2635 90.1972 91.1481 90.3303 90.637 90.0734C90.4558 90.0209 90.3175 89.9487 90.2123 89.8643C90.1078 89.7808 90.0364 89.687 89.9906 89.5848C89.8981 89.3804 89.9056 89.1431 89.944 88.8909C90.7264 88.8459 91.5089 88.7493 92.2906 88.6339C92.486 88.602 92.6807 88.5645 92.8753 88.5308C93.07 88.4933 93.2654 88.4651 93.4594 88.4192L94.0419 88.2898C94.1388 88.2673 94.2366 88.2476 94.3328 88.2232L94.6229 88.1463L95.2032 87.9916C95.3963 87.9372 95.588 87.8734 95.7804 87.8153C95.9721 87.7534 96.1653 87.7009 96.3562 87.6305L96.9289 87.4252C97.0244 87.3905 97.1198 87.3586 97.2145 87.3211L97.4987 87.2057L98.0661 86.9741C98.254 86.8934 98.4412 86.8034 98.6284 86.719L98.9087 86.5896L99.0493 86.5249L99.1876 86.4536L99.8761 86.1235C100.105 86.0101 100.33 85.8816 100.557 85.7606C100.671 85.6987 100.785 85.6387 100.897 85.574L101.232 85.3705L101.567 85.1661C101.679 85.0986 101.791 85.0301 101.9 84.9532L102.56 84.505C102.779 84.3512 102.992 84.1833 103.207 84.0211C103.315 83.9386 103.424 83.8598 103.53 83.7735L104.16 83.2437L104.318 83.1105L104.472 82.9689L105.084 82.3978C105.285 82.2009 105.48 81.9936 105.678 81.7911C105.776 81.6879 105.878 81.5895 105.973 81.4816L106.257 81.1572L106.685 80.6686L106.821 80.497L107.366 79.8077C107.545 79.5733 107.713 79.3276 107.887 79.0866L108.146 78.7218L108.39 78.3429L108.634 77.9631C108.715 77.8356 108.801 77.7118 108.875 77.5787C108.799 77.7062 108.711 77.8244 108.629 77.9472L108.132 78.6758C108.048 78.7959 107.958 78.9103 107.872 79.0275C107.697 79.2601 107.525 79.4964 107.349 79.7252C107.167 79.9484 106.985 80.1716 106.802 80.3948C106.625 80.6226 106.429 80.828 106.24 81.0418C106.05 81.2528 105.865 81.4713 105.664 81.6673C105.468 81.868 105.271 82.0687 105.074 82.2703C104.871 82.4597 104.668 82.6491 104.465 82.8386C104.265 83.0336 104.051 83.2034 103.843 83.3834C103.634 83.5606 103.428 83.7426 103.21 83.9039C102.996 84.0689 102.781 84.234 102.566 84.3999C102.347 84.5537 102.127 84.7075 101.908 84.8613L101.743 84.9767L101.576 85.0836L101.24 85.2964L100.904 85.5093C100.792 85.5806 100.677 85.6415 100.564 85.7072C100.336 85.8357 100.11 85.9716 99.8798 86.0945C99.6491 86.2126 99.4183 86.3317 99.1868 86.4508L99.047 86.5174L98.9057 86.5774L98.6231 86.6965C98.4344 86.7753 98.2473 86.8578 98.0579 86.9319L97.4889 87.141L97.2048 87.2451C97.1101 87.2789 97.0139 87.307 96.9191 87.3379L96.2043 87.563L95.7737 87.6783C95.582 87.729 95.3911 87.7815 95.1994 87.8293L94.6236 87.9559C94.2411 88.0469 93.8555 88.1041 93.4714 88.1735C93.2797 88.2101 93.0873 88.2316 92.8949 88.2579L92.3184 88.3338L91.7419 88.3873C91.5502 88.4023 91.3585 88.4267 91.1661 88.4332L90.5911 88.4623L90.304 88.4754L90.0169 88.4792C90.1041 88.0431 90.1785 87.5893 89.9733 87.1916C89.9733 87.1916 89.7448 87.2113 89.4592 87.2348C89.3163 87.2489 89.1593 87.2573 89.0089 87.2639C88.8586 87.2714 88.7158 87.2789 88.6015 87.2845C88.485 87.2245 88.3783 87.1635 88.2806 87.0979C88.1829 87.0313 88.0934 86.9619 88.0123 86.8925C87.8507 86.7528 87.7221 86.6074 87.6229 86.4583C87.4245 86.1601 87.3418 85.8469 87.3418 85.5318C87.3425 84.9026 87.6688 84.2677 88.0799 83.7369C88.2919 83.5241 88.5241 83.2634 88.7804 83.013L88.7692 83.0111Z" fill="#EF8D2B"/>
</svg>
