<svg width="150" height="150" viewBox="0 0 150 150" fill="none" xmlns="http://www.w3.org/2000/svg">
<ellipse cx="79" cy="75.5" rx="71" ry="69.5" fill="white"/>
<path d="M11.3318 84.4072L11.2782 83.9911L11.2346 83.5728L11.1461 82.7374C11.5305 85.4235 12.0155 88.1673 12.6894 90.8969C12.7735 91.2378 12.8576 91.5798 12.9417 91.9219C13.0334 92.2617 13.1252 92.6026 13.2169 92.9436C13.2628 93.1135 13.3065 93.2856 13.3545 93.4555L13.5042 93.9642L13.8024 94.9826L14.1235 95.9945C14.177 96.1634 14.2283 96.3333 14.2851 96.501L14.4577 97.0032C14.5735 97.3376 14.6838 97.6742 14.8028 98.0086C14.9252 98.3408 15.0475 98.673 15.1698 99.0052C14.3889 95.9989 13.7783 92.8445 13.3294 89.6802C12.8762 86.5149 12.5813 83.3408 12.3584 80.2572C12.3333 79.8716 12.3049 79.4871 12.2733 79.1048C12.2503 78.7214 12.2285 78.3401 12.2012 77.9611C12.1881 77.7715 12.1739 77.582 12.1608 77.3936C12.1498 77.204 12.14 77.0156 12.1291 76.8272C12.104 76.4503 12.0788 76.0767 12.0537 75.7041C12.0177 74.9591 11.9532 74.2206 11.9139 73.4919C11.8921 73.127 11.8571 72.7643 11.8353 72.4048C11.8134 72.0454 11.7872 71.687 11.7566 71.3319C11.7217 70.9757 11.702 70.6239 11.6714 70.2732C11.643 69.9224 11.6059 69.5739 11.572 69.2275C11.5426 68.8822 11.5098 68.5391 11.4705 68.1982C11.4497 68.0272 11.429 67.8572 11.4093 67.6884C11.3907 67.5196 11.3722 67.3508 11.3547 67.183C11.3154 66.8475 11.2717 66.5142 11.2214 66.1831C11.1734 65.852 11.133 65.5252 11.0795 65.2006C11.0292 64.876 10.9681 64.5525 10.9123 64.2323C10.8588 63.9131 10.7988 63.5961 10.7332 63.2813C10.8654 63.2378 11.0008 63.1517 11.1373 63.0286C11.2739 62.9056 11.4115 62.7465 11.5589 62.5581C11.7042 62.3686 11.8495 62.1496 11.9969 61.9045C12.1455 61.6605 12.2842 61.3893 12.4425 61.1029C12.7527 60.5288 13.0476 59.8731 13.3687 59.1912C13.4452 59.0202 13.5227 58.847 13.6014 58.6717C13.6396 58.5845 13.6778 58.4963 13.7161 58.4081C13.7565 58.3209 13.7958 58.2327 13.8362 58.1445C13.9957 57.7926 14.1508 57.4365 14.3004 57.0803C14.4544 56.7263 14.6128 56.3755 14.758 56.0303C14.8301 55.8571 14.9022 55.6861 14.9732 55.5172C15.0464 55.3495 15.1196 55.1839 15.1906 55.0205C15.3315 54.6949 15.4614 54.3779 15.5849 54.0783C15.7137 53.781 15.8328 53.4978 15.9376 53.2353C16.143 52.7081 16.3221 52.2691 16.4259 51.9445C16.5307 51.6199 16.5679 51.413 16.522 51.3639C17.0615 48.9948 17.8294 46.6388 18.7894 44.3209C18.6223 44.7185 18.4465 45.1106 18.2903 45.5104C18.1352 45.9101 17.979 46.3088 17.8239 46.7074C17.6808 47.1105 17.5388 47.5124 17.3968 47.9132L17.292 48.2139L17.1959 48.5178C17.1325 48.7204 17.0681 48.9219 17.0047 49.1245C17.0681 48.923 17.1325 48.7204 17.1959 48.5178L17.292 48.2139L17.3968 47.9132C17.5388 47.5124 17.6808 47.1105 17.8239 46.7074C17.979 46.3088 18.1341 45.9101 18.2903 45.5104C18.4465 45.1106 18.6223 44.7185 18.7894 44.3209C20.3142 40.6611 22.3632 37.1025 24.8742 33.7847C27.383 30.4647 30.3527 27.3865 33.6851 24.659C37.0174 21.9294 40.7124 19.5515 44.6608 17.6062C48.6081 15.6575 52.8022 14.1358 57.1252 13.0706C57.2748 13.0324 57.4277 12.9932 57.585 12.9518C57.7434 12.9148 57.905 12.8778 58.071 12.8386C58.402 12.7612 58.7493 12.6795 59.1097 12.5956C59.4724 12.5194 59.8481 12.4399 60.238 12.3582C60.6268 12.2711 61.032 12.1981 61.4482 12.1207C63.1138 11.8081 64.9848 11.5195 66.9977 11.3147C69.0107 11.1121 71.1645 10.9912 73.3861 10.9858C75.6077 10.9792 77.8959 11.0903 80.1655 11.3289C82.4362 11.5652 84.6895 11.9279 86.8521 12.3952C89.0147 12.8614 91.0855 13.4333 92.9991 14.065C94.9126 14.6957 96.6678 15.3852 98.2144 16.066C99.761 16.7478 101.091 17.4352 102.18 18.0244C102.494 18.1998 102.807 18.3741 103.12 18.5494C103.276 18.6377 103.434 18.7215 103.588 18.812L104.051 19.0843C104.359 19.2673 104.673 19.4415 104.979 19.63C105.285 19.8173 105.592 20.0058 105.9 20.1942C105.398 19.8663 105.025 19.6125 104.708 19.4121C104.389 19.2128 104.134 19.0538 103.879 18.8947C103.625 18.7324 103.365 18.5799 103.041 18.3893C102.715 18.2009 102.331 17.9602 101.801 17.6726C103.224 18.2009 104.607 18.7564 105.937 19.3653C106.105 19.4404 106.272 19.5145 106.438 19.5897C106.604 19.6648 106.766 19.7454 106.93 19.8239C107.258 19.9807 107.583 20.1365 107.908 20.2922C108.546 20.6223 109.19 20.9349 109.808 21.2813C111.061 21.949 112.258 22.67 113.428 23.4096C114.007 23.7876 114.587 24.1601 115.144 24.5577C115.423 24.7559 115.71 24.9433 115.982 25.1492C116.256 25.3518 116.53 25.5544 116.803 25.757C116.53 25.342 116.404 25.0544 116.158 24.6481C116.035 24.4466 115.877 24.2211 115.655 23.9336C115.432 23.6471 115.148 23.2964 114.747 22.8737C114.923 23.0295 115.102 23.1809 115.275 23.3388L115.793 23.8148L116.31 24.2897L116.816 24.7766C117.124 24.9063 117.471 25.0729 117.832 25.2875C118.192 25.5021 118.576 25.7526 118.975 26.0271C119.367 26.3103 119.774 26.6207 120.188 26.9442C120.595 27.2754 121.005 27.6261 121.416 27.9779C121.819 28.3385 122.22 28.7055 122.613 29.065C122.998 29.4342 123.375 29.7948 123.734 30.139C124.087 30.4908 124.423 30.8252 124.74 31.1291C125.055 31.4352 125.337 31.7206 125.6 31.9602C124.881 31.7783 126.259 33.5004 127.362 35.095L127.119 34.314C128.213 35.8019 129.315 37.3748 130.374 39.0065C131.43 40.6382 132.439 42.332 133.364 44.0432C134.289 45.7544 135.129 47.4852 135.859 49.1844C135.948 49.3968 136.039 49.6092 136.127 49.8194C136.217 50.0296 136.306 50.2398 136.386 50.4512C136.55 50.8727 136.712 51.2888 136.871 51.7005C137.019 52.1155 137.164 52.5251 137.307 52.9281C137.38 53.1285 137.446 53.3311 137.509 53.5315C137.572 53.732 137.636 53.9302 137.699 54.1274C137.77 54.3463 137.829 54.5543 137.874 54.7504C137.914 54.9476 137.944 55.1327 137.965 55.3037C138.005 55.6458 138.01 55.9322 137.998 56.1512C138.687 58.1401 139.279 60.1672 139.771 62.2248C139.605 62.1322 139.56 62.4121 139.552 62.8402C139.541 63.2694 139.581 63.8434 139.612 64.339C139.65 65.3346 139.672 66.0055 139.286 64.5525C139.969 66.8192 140.258 69.1872 140.421 71.5302C140.585 73.8775 140.625 76.1987 140.832 78.4795C140.595 82.5217 140.005 86.6075 139.033 90.654C138.059 94.6983 136.709 98.7024 134.992 102.579C133.276 106.456 131.194 110.204 128.787 113.747C126.379 117.29 123.648 120.629 120.651 123.699L121.103 123.57C119.031 125.759 117.05 127.837 114.749 129.836C114.46 130.082 114.164 130.326 113.866 130.571C113.716 130.693 113.566 130.817 113.414 130.94C113.259 131.058 113.104 131.177 112.947 131.297C112.633 131.534 112.317 131.777 111.988 132.009C111.659 132.24 111.323 132.47 110.981 132.701C109.603 133.607 108.091 134.469 106.392 135.237C104.2 136.784 101.344 138.366 98.7638 139.648C96.1894 140.943 93.9067 141.976 92.9969 142.831C92.6146 142.938 92.2465 143.041 91.8916 143.14C91.5355 143.239 91.1947 143.344 90.8605 143.429C90.5274 143.52 90.2052 143.607 89.8917 143.694C89.7355 143.737 89.5804 143.781 89.4286 143.823C89.2757 143.863 89.125 143.903 88.9753 143.941C87.7837 144.262 86.7046 144.543 85.6222 144.81C85.0794 144.935 84.5387 145.074 83.9806 145.193C83.4214 145.309 82.848 145.434 82.244 145.544C81.9404 145.595 81.6302 145.649 81.3112 145.702C80.9912 145.753 80.6636 145.812 80.3217 145.853C79.9809 145.897 79.6281 145.942 79.2633 145.987C78.8985 146.035 78.5195 146.07 78.1253 146.103C78.5381 146.235 78.3655 146.36 77.9166 146.479C77.6927 146.539 77.4 146.596 77.0778 146.652C76.7556 146.705 76.405 146.748 76.0653 146.794C75.7256 146.838 75.3969 146.882 75.1195 146.925C74.8519 146.966 74.6378 147.006 74.5089 147.048C74.2522 147.133 74.3462 147.227 75.0976 147.341C76.1625 147.532 76.9828 147.644 77.6643 147.67C78.347 147.704 78.892 147.701 79.4152 147.667C79.9383 147.637 80.4429 147.615 81.0447 147.604C81.3462 147.597 81.6717 147.6 82.0387 147.614C82.2222 147.62 82.4155 147.63 82.6208 147.644C82.8261 147.655 83.0435 147.665 83.2751 147.681L83.1451 147.496C83.6759 147.461 84.2089 147.436 84.7397 147.391L86.3333 147.25L87.9246 147.067C88.19 147.039 88.4544 146.999 88.7187 146.961L89.5127 146.848C91.6283 146.532 93.7352 146.12 95.8235 145.613C97.913 145.107 99.9805 144.496 102.021 143.793C104.061 143.089 106.074 142.292 108.05 141.403C112.005 139.631 115.803 137.473 119.395 134.99C122.986 132.507 126.371 129.693 129.477 126.575C133.382 122.188 137.093 117.321 140.22 112.01C140.42 111.681 140.609 111.345 140.799 111.01L141.368 110.002L141.914 108.982L142.187 108.471L142.449 107.954L142.971 106.92C143.143 106.573 143.304 106.223 143.47 105.874C143.808 105.179 144.114 104.47 144.426 103.764C144.586 103.412 144.725 103.053 144.875 102.698C145.02 102.34 145.172 101.986 145.311 101.627C145.448 101.268 145.585 100.907 145.723 100.549C145.79 100.369 145.86 100.189 145.926 100.008L146.117 99.4649C146.244 99.1021 146.369 98.7405 146.496 98.3778C146.613 98.0129 146.73 97.648 146.847 97.2842C147.086 96.5577 147.288 95.8214 147.497 95.0905C147.612 94.6973 147.704 94.2964 147.808 93.8988C147.858 93.6995 147.908 93.5002 147.959 93.2998C148.011 93.1004 148.06 92.9 148.104 92.6985C148.286 91.8925 148.474 91.0853 148.628 90.2684C148.96 88.64 149.214 86.9898 149.432 85.3352C149.844 82.0228 150.043 78.6865 149.992 75.4177C149.927 68.8779 148.91 62.6136 147.402 57.2829C147.201 56.6511 147.063 56.0531 146.938 55.4802C146.81 54.9083 146.721 54.3561 146.639 53.8126C146.549 53.2712 146.476 52.7364 146.401 52.195C146.318 51.6559 146.225 51.1134 146.116 50.5503C144.374 45.7217 141.952 40.3909 138.791 35.3031C138.392 34.6713 137.996 34.0319 137.574 33.41C137.364 33.0974 137.159 32.7826 136.944 32.4721L136.295 31.5474L135.968 31.0855L135.632 30.6313L134.958 29.7229L134.263 28.8319C134.03 28.5356 133.801 28.2383 133.56 27.9496C133.32 27.6599 133.081 27.3701 132.843 27.0815C132.606 26.7906 132.355 26.514 132.111 26.2308C131.865 25.9508 131.624 25.6655 131.372 25.3921C131.12 25.1187 130.868 24.8453 130.618 24.573C130.493 24.4379 130.368 24.2996 130.24 24.1667C130.112 24.0338 129.984 23.902 129.856 23.7691C129.599 23.5055 129.343 23.243 129.088 22.9805C128.826 22.7245 128.566 22.4696 128.306 22.2158C128.045 21.9642 127.788 21.7082 127.521 21.4664C127.675 21.6189 127.817 21.7736 127.907 21.8782C127.358 21.3455 126.825 20.8303 126.305 20.3271C126.044 20.0766 125.786 19.8304 125.531 19.5864C125.404 19.4633 125.277 19.3413 125.152 19.2193C125.024 19.0995 124.897 18.9808 124.771 18.8621C124.519 18.6235 124.269 18.3871 124.022 18.153C123.777 17.9166 123.522 17.6922 123.275 17.4624C123.027 17.2336 122.781 17.006 122.534 16.7794C122.283 16.5572 122.032 16.3361 121.783 16.115C121.288 15.6684 120.775 15.2414 120.259 14.8112C120.13 14.7033 120 14.5955 119.871 14.4877C119.739 14.3831 119.607 14.2774 119.473 14.1729C119.206 13.9637 118.937 13.7546 118.666 13.5433C118.396 13.3298 118.114 13.1305 117.831 12.9246C117.546 12.722 117.258 12.5161 116.968 12.3092C116.672 12.1098 116.37 11.9105 116.063 11.7112C115.757 11.5119 115.446 11.3082 115.122 11.1175C115.056 11.2755 114.261 10.793 113.832 10.6296C113.705 10.3431 111.721 9.07849 108.629 7.66029C108.242 7.48493 107.84 7.30411 107.424 7.11567C107.003 6.93922 106.57 6.75731 106.125 6.57105C106.014 6.52421 105.903 6.47847 105.789 6.43163C105.675 6.38697 105.561 6.34231 105.445 6.29765C105.214 6.20833 104.981 6.11793 104.746 6.02752C104.51 5.93711 104.273 5.84344 104.032 5.75412C103.789 5.66807 103.544 5.58093 103.298 5.4927C101.324 4.78905 99.193 4.13442 97.0304 3.58435C94.8689 3.03102 92.6758 2.59205 90.5918 2.25657C90.3308 2.21517 90.0741 2.16725 89.8163 2.13239C89.5586 2.09645 89.3041 2.0605 89.0507 2.02456C88.545 1.95267 88.0502 1.88078 87.5631 1.82958C87.0771 1.77403 86.6031 1.71412 86.1421 1.66729C85.6801 1.62372 85.2323 1.58124 84.7987 1.54093C84.3662 1.49519 83.9468 1.47449 83.5459 1.44181C83.1451 1.41458 82.7617 1.37864 82.3969 1.36012C82.0321 1.33942 81.6859 1.31982 81.3615 1.3013C81.0371 1.28278 80.7346 1.25991 80.4539 1.25011C79.8925 1.22505 79.425 1.19782 79.0646 1.16841C78.7041 1.13791 78.4518 1.11831 78.3229 1.08345C77.7091 1.10088 77.0734 1.09761 76.4258 1.11722C76.0369 1.09979 75.6481 1.08345 75.2582 1.06602C74.8683 1.04969 74.4783 1.04642 74.0884 1.03444L73.5019 1.0181L73.2081 1.00938L72.9143 1.0072L71.7391 0.997402C71.3469 0.989777 70.9548 0.998491 70.5616 1.00285L69.382 1.01592L68.2025 1.05295L67.6127 1.07038L67.0229 1.10088C63.8784 1.25555 60.7371 1.56599 57.6757 2.09863C51.5483 3.13123 45.7355 5.01779 40.8948 7.56662C38.9463 8.97174 36.8121 10.5849 35.3813 12.0009C34.9335 12.185 34.6058 12.38 34.3295 12.5739C34.0543 12.771 33.8293 12.9682 33.6075 13.1904C33.3847 13.4104 33.1576 13.6446 32.8648 13.8995C32.7185 14.028 32.5546 14.1587 32.3701 14.3003C32.1866 14.4441 31.9801 14.5944 31.742 14.7534C31.3914 14.8885 31.0485 15.0214 30.7252 15.1641C30.403 15.3079 30.0917 15.4527 29.7946 15.5976C29.1961 15.8819 28.6674 16.1858 28.1901 16.4712C27.7107 16.7533 27.3 17.0376 26.9494 17.2968C26.5988 17.5571 26.305 17.7892 26.0833 17.9983C25.1953 18.8348 25.3274 19.1224 26.6392 18.3349C24.8916 19.9818 23.1692 21.6516 21.556 23.3367C19.9428 25.0206 18.4432 26.7242 17.1413 28.4071C16.0054 30.0246 14.9459 31.6748 13.9509 33.3915C13.1274 34.8608 12.4458 35.5329 11.6769 36.0666C11.4246 36.547 11.2094 36.9457 11.0205 37.2855C10.8304 37.6242 10.6808 37.9107 10.5388 38.1514C10.2603 38.6372 10.0353 38.9564 9.81467 39.2864C9.59076 39.6143 9.35266 39.9432 9.02827 40.4378C8.86881 40.6861 8.69515 40.9802 8.48872 41.3353C8.28338 41.6904 8.04528 42.1076 7.7897 42.6173C7.29711 42.9931 6.28681 45.6988 5.54191 48.4883C5.44143 48.8347 5.36061 49.1876 5.27214 49.5329C5.18585 49.8793 5.10175 50.2202 5.01874 50.5546C4.86911 51.2245 4.72603 51.8606 4.59933 52.4292C4.48246 52.9989 4.37542 53.4978 4.2804 53.8921C4.18538 54.2853 4.11766 54.5772 4.05322 54.7253C4.09254 54.4814 4.12749 54.2352 4.17009 53.9912C3.40554 56.4899 2.64754 58.5497 1.96927 60.641C1.29755 62.7302 0.704481 64.8542 0.444533 67.4379C0.418319 67.6623 0.392106 67.8856 0.365893 68.111L0.327665 68.4487L0.297083 68.7875C0.257763 69.2395 0.218444 69.6915 0.180216 70.1457C0.141988 70.6 0.123421 71.0564 0.095023 71.5127C0.0830086 71.7415 0.069902 71.9702 0.0567953 72.199C0.0458732 72.4277 0.0415043 72.6575 0.034951 72.8874C0.0229366 73.347 0.0120144 73.8067 0 74.2674C0 74.7282 0.00109222 75.19 0.00218444 75.653C-0.00109222 76.1159 0.0163833 76.5788 0.0305821 77.0428L0.0524265 77.7388L0.0644409 78.0874L0.0841008 78.436C0.111406 78.9 0.138712 79.3651 0.166017 79.8302C0.197691 80.2953 0.242472 80.7593 0.281792 81.2233L0.344049 81.9204L0.422688 82.6165C0.478391 83.0794 0.523172 83.5445 0.588705 84.0063C0.830086 85.8581 1.15666 87.6967 1.53457 89.5168C1.91903 91.3348 2.38103 93.1277 2.88782 94.8911C3.40226 96.6525 3.98332 98.3767 4.59824 100.063C5.22626 101.746 5.90016 103.385 6.60573 104.979C6.78813 105.374 6.96835 105.768 7.14966 106.16C7.24031 106.356 7.33097 106.551 7.42053 106.746C7.51446 106.939 7.60839 107.132 7.70232 107.325C7.89127 107.708 8.07258 108.094 8.26372 108.472C8.45704 108.849 8.64927 109.223 8.84041 109.596C9.12548 109.517 8.75194 108.882 8.38496 108.203C8.03217 107.515 7.68485 106.783 7.99504 106.548C8.8284 108.323 9.70545 110.083 10.6306 111.826L10.9801 112.478C11.0958 112.696 11.2116 112.914 11.335 113.128L12.0614 114.422L12.8161 115.702C12.9406 115.917 13.0706 116.128 13.2027 116.338L13.5959 116.971C14.6521 118.654 15.7738 120.304 16.9807 121.897C18.1909 123.485 19.4808 125.02 20.8548 126.476C21.0798 126.761 21.3124 127.066 21.5418 127.375C21.7712 127.682 22.006 127.982 22.2179 128.271C22.432 128.559 22.6253 128.832 22.7924 129.066C22.9617 129.299 23.0982 129.497 23.1878 129.644C24.0561 130.606 24.3991 130.798 24.6754 130.93C24.8141 130.995 24.9397 131.042 25.1155 131.155C25.204 131.212 25.3045 131.284 25.4257 131.383C25.5481 131.481 25.6933 131.603 25.867 131.762L25.7239 132.323C26.0232 132.506 26.2908 132.69 26.5322 132.876C26.7768 133.059 26.9996 133.24 27.205 133.425C27.6145 133.793 27.9542 134.172 28.3005 134.538C28.6445 134.907 28.9765 135.285 29.3719 135.646C29.7695 136.005 30.2184 136.364 30.7842 136.701C30.9021 136.655 31.161 136.763 31.4854 136.949C31.647 137.043 31.8261 137.155 32.0107 137.279C32.1953 137.404 32.3886 137.535 32.5809 137.666C32.4465 137.907 33.0527 138.294 33.6436 138.662C34.2399 139.021 34.8243 139.355 34.6331 139.535L34.6779 139.514C35.1508 139.823 35.5146 139.994 36.0618 140.426C36.5664 140.627 39.1953 141.639 41.8571 142.449C42.1869 142.555 42.5244 142.647 42.8532 142.743C43.183 142.836 43.5074 142.93 43.8242 143.02C44.4609 143.191 45.0649 143.344 45.6001 143.48C46.1375 143.611 46.6093 143.713 46.9774 143.795C47.3466 143.875 47.6141 143.932 47.7496 143.951L48.1799 144.211C48.8702 144.464 49.3956 144.551 49.6566 144.514C49.9155 144.481 49.9045 144.343 49.5201 144.154L51.2075 144.778C51.1376 144.77 51.0688 144.757 50.9989 144.747C51.5603 144.947 52.1272 145.137 52.6908 145.332C52.989 145.481 53.2762 145.827 52.7126 145.914C53.2314 145.969 53.771 146.052 54.3007 146.168C54.8304 146.285 55.3547 146.417 55.8331 146.6C55.5032 146.466 55.1625 146.327 54.814 146.186C54.4667 146.045 54.1172 145.883 53.7601 145.726C53.4051 145.565 53.0425 145.41 52.6842 145.236C52.3271 145.062 51.9655 144.885 51.604 144.709C51.2425 144.534 50.8875 144.342 50.5326 144.153C50.1787 143.963 49.8259 143.776 49.4829 143.58C49.14 143.382 48.8025 143.183 48.4715 142.986C48.3066 142.886 48.1428 142.789 47.9822 142.689C47.8228 142.587 47.6655 142.486 47.5093 142.385C48.0958 142.53 48.8724 142.842 49.6522 143.185C50.0443 143.352 50.4419 143.514 50.8176 143.664C51.0055 143.738 51.1879 143.809 51.3626 143.872C51.5374 143.935 51.7056 143.984 51.8629 144.029C52.2026 144.234 52.6416 144.47 53.1473 144.72C53.6563 144.958 54.2308 145.215 54.8381 145.472C55.4486 145.715 56.0887 145.972 56.7287 146.205C57.0498 146.319 57.3698 146.432 57.6822 146.543C57.9957 146.654 58.3037 146.763 58.604 146.858C58.8771 146.901 59.1392 146.792 59.4767 146.739C59.646 146.712 59.8328 146.7 60.0512 146.726C60.2697 146.752 60.5198 146.81 60.8114 146.935C61.0692 147.201 61.4165 147.263 61.8184 147.321C62.2215 147.374 62.6802 147.412 63.1673 147.65C61.9506 147.686 60.8158 147.369 59.6351 147.101C59.6602 147.232 59.8481 147.364 60.1331 147.478C60.4182 147.591 60.7994 147.695 61.2057 147.793C61.4089 147.842 61.6186 147.89 61.8261 147.935C62.0347 147.975 62.24 148.016 62.4345 148.054C62.8244 148.131 63.1695 148.205 63.4022 148.279C63.637 148.244 64.3305 148.335 65.1508 148.456C65.5604 148.519 66.0038 148.566 66.4374 148.61C66.871 148.651 67.2926 148.69 67.664 148.687C67.3199 148.897 67.6083 149 68.0921 149.093C68.3346 149.135 68.624 149.185 68.9069 149.234C69.0489 149.261 69.1887 149.29 69.3198 149.322C69.4509 149.351 69.5743 149.385 69.6824 149.424C70.6796 149.546 71.3284 149.391 70.933 149.197C71.1077 148.945 70.1237 148.808 69.2783 148.668C68.4329 148.512 67.7252 148.364 68.4351 148.151C68.7726 148.445 70.7146 148.5 71.7554 148.516C71.7806 148.23 71.0575 148.272 71.7412 148.024C72.3157 148.076 72.911 148.036 73.4429 148.003C73.9748 147.969 74.4434 147.962 74.7732 148.115C74.557 148.19 74.083 148.135 73.7455 148.123C74.1201 148.135 73.799 148.253 73.1305 148.415C72.7963 148.489 72.3758 148.574 71.9105 148.663C71.6779 148.706 71.4354 148.753 71.1864 148.796C70.9374 148.835 70.684 148.875 70.4317 148.914C70.1783 148.953 69.9249 148.993 69.6791 149.031C69.5557 149.049 69.4334 149.069 69.3143 149.086C69.1953 149.102 69.0773 149.118 68.9637 149.132C68.5072 149.192 68.0976 149.248 67.7819 149.294C67.4663 149.342 67.2457 149.378 67.167 149.402C67.0873 149.427 67.1496 149.447 67.3986 149.451C67.1561 149.297 69.3722 149.101 71.4802 148.804C72.0066 148.726 72.5276 148.648 73.0071 148.577C73.4844 148.501 73.918 148.419 74.2697 148.353C74.6214 148.287 74.8912 148.231 75.0419 148.191C75.1905 148.151 75.2156 148.126 75.0998 148.123C74.6433 148.047 74.8082 147.921 74.9666 147.799C75.0463 147.738 75.1238 147.678 75.1227 147.627C75.1238 147.576 75.0452 147.532 74.8104 147.505L73.7629 147.838C73.1196 147.781 72.6707 147.604 72.4424 147.434C72.2131 147.262 72.2021 147.088 72.4304 146.998C72.9634 147.03 72.8487 147.153 72.4009 147.316C72.177 147.398 71.869 147.491 71.5173 147.585C71.1656 147.682 70.7692 147.765 70.3694 147.853C69.9697 147.938 69.5644 148.028 69.1986 148.094C68.8305 148.162 68.5017 148.222 68.2527 148.267C67.7525 148.362 67.5722 148.411 68.0452 148.381C67.7972 148.311 67.5493 148.25 67.3036 148.174C67.7066 148.125 68.4362 148.096 69.1614 148.137C69.8877 148.168 70.6119 148.241 71.0105 148.419C71.0324 148.146 72.0951 148.084 72.9733 148.016C73.0759 148.035 73.1797 148.056 73.2823 148.072C74.1911 147.942 75.4526 148.023 74.8661 147.643C73.5456 147.638 73.1065 147.46 73.1131 147.187C73.1185 146.921 73.5641 146.559 74.0043 146.193C74.8901 145.46 75.7486 144.701 73.2998 144.589C74.3232 144.913 74.1518 145.071 73.4429 145.153C73.089 145.195 72.6019 145.198 72.0678 145.201C71.5326 145.208 70.9505 145.184 70.4055 145.166C70.3072 145.053 70.021 144.906 69.5688 144.749C69.1177 144.582 68.4995 144.415 67.735 144.258C66.3926 144.154 66.9213 144.395 66.6471 144.524C66.4647 144.467 66.2408 144.409 66.0104 144.344C65.781 144.275 65.5451 144.204 65.3397 144.131C64.928 143.985 64.6385 143.832 64.7554 143.683C64.6189 143.713 64.4911 143.728 64.3688 143.732C64.2475 143.732 64.1328 143.721 64.0214 143.701C63.7997 143.662 63.5922 143.588 63.3814 143.505C63.1706 143.422 62.9543 143.331 62.713 143.256C62.4716 143.177 62.2062 143.109 61.8927 143.084C60.7732 143.054 61.9342 143.264 61.126 143.302C60.9217 143.26 60.7098 143.209 60.4903 143.154C60.2708 143.101 60.0447 143.045 59.8153 142.99C59.5859 142.933 59.3522 142.876 59.1174 142.818C58.8847 142.755 58.6521 142.69 58.4206 142.627C57.4965 142.383 56.626 142.103 55.998 141.896C55.7916 141.685 55.3591 141.327 55.1297 141.016C54.9003 140.704 54.8774 140.43 55.4792 140.359C55.773 140.455 55.9751 140.535 56.1105 140.601C56.2459 140.667 56.3148 140.718 56.3366 140.762C56.3825 140.852 56.2459 140.911 56.1149 140.965C55.8527 141.067 55.6026 141.165 56.8707 141.453C56.4251 140.968 56.9908 141.071 57.7379 141.245C58.4905 141.398 59.4287 141.629 59.7181 141.414C59.3533 141.173 58.7744 140.941 58.1136 140.753C57.7827 140.66 57.4365 140.555 57.0848 140.47C56.7342 140.381 56.3781 140.309 56.0417 140.231C56.1214 140.286 56.2012 140.344 56.282 140.397C55.9827 140.336 55.6103 140.25 55.2007 140.151C54.9954 140.101 54.7813 140.048 54.5628 139.989C54.3455 139.926 54.1249 139.858 53.9031 139.786C53.0163 139.511 52.1479 139.135 51.5909 138.742C51.9666 138.612 51.4915 138.248 52.35 138.485L51.5734 138.186L50.8045 137.869C50.5795 137.867 50.3469 137.865 50.7761 138.088C49.969 137.996 49.2776 137.591 48.7752 137.229C48.7391 137.081 46.5962 136.476 44.521 135.765C44.261 135.677 44.0022 135.588 43.7477 135.502C43.4954 135.411 43.2486 135.321 43.0104 135.233C42.5342 135.058 42.0897 134.899 41.7238 134.748C40.9866 134.451 40.5235 134.255 40.6032 134.253C39.5492 133.64 39.4957 133.167 38.3554 132.763C38.3281 132.777 38.469 132.872 38.7333 133.025C38.8655 133.102 39.0282 133.194 39.2183 133.296C39.4105 133.393 39.6268 133.503 39.8638 133.622C40.1008 133.74 40.3575 133.867 40.6283 134.001C40.9014 134.131 41.1908 134.262 41.4879 134.398C41.7861 134.532 42.0886 134.677 42.4032 134.806C42.7155 134.938 43.0312 135.07 43.3447 135.202C45.8513 136.247 48.2651 136.967 47.518 136.696C47.4165 136.61 47.1325 136.488 46.7251 136.314C46.5208 136.227 46.2838 136.131 46.0195 136.027C45.7563 135.922 45.4614 135.816 45.1523 135.688C43.905 135.196 42.3289 134.548 40.7801 133.84C39.2379 133.122 37.7263 132.345 36.5904 131.675C35.4567 131.002 34.6867 130.463 34.6091 130.248C34.241 129.99 33.8249 129.717 33.5103 129.541C33.1969 129.363 32.973 129.294 32.9773 129.464C32.4094 128.948 32.5798 128.919 32.8004 128.909C33.021 128.899 33.2919 128.909 32.9413 128.486C32.8965 128.504 32.9293 128.643 32.6628 128.428C32.4574 128.13 32.2619 127.822 32.0631 127.522C31.0146 126.956 29.9377 125.985 28.8597 125.003C27.7959 124.003 26.7288 122.996 25.6813 122.298C25.8572 122.375 26.0472 122.447 26.2536 122.525C26.4579 122.606 26.6818 122.689 26.9254 122.789C27.1678 122.89 27.4289 123.009 27.7107 123.159C27.8516 123.234 27.9957 123.318 28.1486 123.409C28.3026 123.498 28.4621 123.596 28.627 123.705L28.7319 123.992C28.8422 124.038 29.1458 124.265 29.4451 124.448C29.7476 124.627 30.0404 124.767 30.1146 124.656C29.6155 124.107 29.1437 123.61 28.6183 123.156C28.3551 122.929 28.0929 122.698 27.8057 122.476C27.5217 122.251 27.2148 122.035 26.8991 121.8C26.7484 121.544 26.566 121.255 26.4623 121.044C26.4415 121.072 26.4371 121.109 26.4044 121.133C26.1674 120.656 26.2252 120.677 26.4295 120.737C26.4601 120.741 26.4961 120.746 26.5474 120.772C26.5049 120.172 25.4345 119.219 24.2123 118.081C22.9966 116.941 21.651 115.589 21.0033 114.394C20.4474 113.82 20.8537 114.414 20.1503 113.702C20.0651 113.552 19.981 113.405 19.898 113.26C19.8183 113.113 19.7407 112.969 19.6643 112.827C19.5114 112.543 19.3628 112.268 19.2176 111.999C18.9369 111.456 18.6671 110.936 18.3962 110.412C18.133 109.886 17.8687 109.356 17.5902 108.799C17.4525 108.52 17.3127 108.232 17.1664 107.936C17.0921 107.788 17.0178 107.637 16.9403 107.485C16.866 107.33 16.7918 107.172 16.7142 107.011C15.977 106.382 15.8208 106.375 16.0589 107.517L15.5739 106.541C15.4145 106.214 15.2659 105.883 15.1108 105.555C15.539 105.888 15.681 105.803 15.6832 105.517C15.6832 105.374 15.6504 105.18 15.5991 104.962C15.5739 104.853 15.5444 104.739 15.5117 104.621C15.4822 104.503 15.4516 104.381 15.421 104.26C15.1731 103.288 14.9481 102.356 15.823 103.114C15.7716 102.794 15.6296 102.34 15.4167 101.843C15.3118 101.593 15.1818 101.335 15.0529 101.07C14.923 100.806 14.7799 100.54 14.627 100.283C14.3747 100.262 13.9564 100.239 13.3917 98.844C12.9111 96.7908 12.9854 97.2929 12.6806 95.5752C12.8215 95.0981 13.1405 95.6536 13.3371 95.5087C13.2606 95.3617 13.1907 95.2234 13.1328 95.0927C13.076 94.9609 13.028 94.8378 12.9854 94.7212C12.9013 94.4881 12.8434 94.2844 12.8041 94.0982C12.7648 93.913 12.7451 93.7463 12.7364 93.5895C12.7309 93.4316 12.7364 93.2845 12.744 93.1375C12.7779 92.5493 12.8445 91.9785 12.5037 90.7999C12.377 90.4361 12.2492 89.9754 12.1072 89.4918C12.0351 89.251 11.9609 89.0038 11.8888 88.7587C11.82 88.5136 11.749 88.2707 11.6769 88.0398C11.6048 87.8089 11.5327 87.59 11.4596 87.3917C11.3864 87.1935 11.323 87.0127 11.2542 86.8634C11.1188 86.5628 10.9833 86.3798 10.8545 86.3853C10.8086 86.1282 10.7715 85.9016 10.7496 85.7034C10.7299 85.5041 10.7201 85.332 10.7179 85.1849C10.7147 84.8908 10.7452 84.6937 10.7988 84.5662C10.9069 84.3113 11.1111 84.3331 11.3339 84.4007L11.3318 84.4072Z" fill="#2E2D2C"/>
<path fill-rule="evenodd" clip-rule="evenodd" d="M94.1332 46.7664C94.0872 46.6368 94.0267 46.4904 93.9498 46.3249C93.638 45.4961 92.5173 43.9418 91.0146 42.377C90.2622 41.5967 89.4105 40.8143 88.5295 40.1205C87.8841 39.612 87.2602 39.1791 86.714 38.8001C86.508 38.6572 86.3131 38.522 86.1322 38.3932C85.8126 38.1613 85.493 37.9272 85.1714 37.691C85.1205 37.6547 85.0748 37.6211 85.0286 37.587C84.9241 37.5101 84.8168 37.4311 84.6412 37.3156C84.4346 37.1785 84.2378 37.0541 84.0507 36.9402C83.4737 36.6049 82.852 36.2696 82.2381 35.9511L81.9564 35.8072C81.4288 35.5375 80.8968 35.2655 80.3592 35.0042C80.0987 35.2011 79.8379 35.398 79.5768 35.595C79.2033 35.8769 78.8289 36.1595 78.455 36.4425C77.9092 36.858 77.3635 37.2755 76.8178 37.6931C76.4494 37.9715 76.081 38.2541 75.7029 38.5535L75.4145 38.7855L75.1104 39.0365L74.5744 39.4878C73.1477 40.6962 71.7347 41.951 70.3528 43.2459C68.969 44.5365 67.6144 45.8694 66.2949 47.2254L64.3732 49.2352C63.7573 49.8805 63.1355 50.5132 62.5177 51.1374C58.6327 55.0721 54.9282 59.2137 51.2117 63.3686C50.7331 63.9036 50.2543 64.439 49.7749 64.9741C48.9329 65.9357 48.0656 66.8932 47.1807 67.8464L45.8456 69.272L45.1791 69.9743C45.1073 70.0451 45.037 70.1168 44.9666 70.1886C44.8421 70.3155 44.7171 70.443 44.5826 70.5669C44.1772 70.9592 43.7407 71.343 43.2982 71.7184C43.076 71.904 42.85 72.0896 42.6219 72.273L42.2068 72.602C42.0512 72.7236 41.894 72.841 41.7368 72.9584C41.6459 73.0262 41.5548 73.0943 41.4642 73.163C41.0797 73.4609 40.6746 73.7443 40.2709 74.0267L40.2695 74.0277L40.2659 74.0302C40.1596 74.1046 40.0535 74.1789 39.9478 74.2533L39.9039 74.2822C39.3867 74.6225 38.8723 74.9609 38.3379 75.2972C37.7407 75.6776 37.1459 76.056 36.554 76.4325L36.5463 76.4374C36.061 76.7461 35.5776 77.0536 35.0967 77.3598C35.8305 78.0972 36.5591 78.8281 37.2807 79.5522C37.7953 80.0685 38.3064 80.5813 38.8135 81.0904C39.408 81.702 39.9712 82.3073 40.5092 82.9146C40.6136 83.0292 40.6986 83.1282 40.7827 83.2262C40.8147 83.2635 40.8467 83.3007 40.8795 83.3385L41.1426 83.6422L41.1835 83.6907L41.2011 83.7139C41.2381 83.7634 41.2752 83.8094 41.3125 83.8558C41.3674 83.924 41.4229 83.993 41.4798 84.0746C41.8618 84.587 42.2516 85.1775 42.6258 85.7638C43 86.3543 43.3645 86.9469 43.7114 87.5269C44.4813 88.7774 45.0426 89.5556 45.4851 89.912C45.5961 90.0006 45.6994 90.066 45.7988 90.1082C45.9002 90.1525 45.9957 90.182 46.0815 90.1778C46.2549 90.1736 46.3991 90.0618 46.5122 89.853C46.7441 89.465 46.8494 88.691 46.7246 87.6133C46.6038 86.5399 46.2647 85.1712 45.6332 83.657C45.6965 83.6148 45.792 83.5515 45.8875 83.4883C45.983 83.425 46.0785 83.3617 46.1419 83.3196L46.1841 83.4038C46.9 84.8307 47.3456 85.719 47.705 86.232C48.0656 86.755 48.319 86.8921 48.5353 86.8436C48.7142 86.8052 48.8617 86.6364 49.0093 86.4676C49.2186 86.2281 49.4278 85.9887 49.7262 86.1223C49.0245 84.509 48.2936 82.9695 47.4614 81.3857C47.2509 80.9892 47.0326 80.5906 46.7968 80.1836C46.7499 80.1068 46.7053 80.0307 46.6605 79.9542C46.586 79.8269 46.5109 79.6987 46.4245 79.5657L46.2237 79.2493L46.177 79.1734L46.1653 79.1481L46.1438 79.0975C46.1402 79.0882 46.1353 79.0775 46.1305 79.0667C46.1198 79.0429 46.1087 79.0184 46.1087 79.0068V78.9562C46.1087 78.9225 46.1126 78.8908 46.1204 78.8634C46.136 78.8065 46.1633 78.7601 46.2101 78.7263L46.1087 78.6188L46.1965 78.5597L46.3075 78.4775L46.7129 78.1485C47.6641 77.3703 48.5938 76.5394 49.502 75.6199C49.8565 75.2597 50.1407 74.956 50.4255 74.6516C50.5259 74.5444 50.6263 74.437 50.7299 74.3271C51.1178 73.9117 51.5056 73.4983 51.8935 73.085C52.2825 72.6683 52.6715 72.2522 53.0599 71.8366L53.0719 71.8238C53.4522 71.417 53.832 71.0107 54.2109 70.6049C57.2904 67.3002 60.3309 64.0019 63.3382 60.6782C64.8429 59.0164 66.3378 57.3503 67.8269 55.6737L70.0449 53.1683C70.7543 52.3691 71.4833 51.5845 72.2258 50.8127C73.713 49.2668 75.2625 47.7737 76.8626 46.3228C77.2622 45.96 77.6656 45.5994 78.073 45.2409L78.685 44.7052L78.9929 44.4395L79.2716 44.2012C79.6458 43.8912 80.0766 43.5474 80.4995 43.2142L80.8211 42.9633L80.901 42.9L80.9244 42.881L80.9341 42.8747L80.9731 42.8473L80.9926 42.8346L81.016 42.822L81.0472 42.8072C81.0386 42.8113 81.0319 42.8136 81.0249 42.816C81.0067 42.8223 80.9864 42.8293 80.9244 42.8705C80.7918 42.9728 80.6588 43.0751 80.5258 43.1774C80.3928 43.2796 80.2598 43.3819 80.1273 43.4842C79.9957 43.5875 79.8647 43.6908 79.7337 43.7941C79.6026 43.8975 79.4714 44.0008 79.3398 44.1042C79.1763 44.2337 78.98 44.3999 78.7812 44.5682L78.7802 44.5691C78.7139 44.6252 78.6474 44.6816 78.5817 44.7369C77.5253 45.6332 76.4942 46.5421 75.4846 47.4637C73.4693 49.309 71.5456 51.2218 69.735 53.2316C66.8564 56.4379 63.9552 59.6295 61.0029 62.8772C60.0794 63.8932 59.1506 64.915 58.2162 65.9442C58.2148 65.9203 58.2162 65.8921 58.2177 65.8633C58.2246 65.7266 58.2324 65.5739 57.9491 65.7776C61.2427 61.7481 64.6759 58.0625 68.0866 54.4009C68.5834 53.8676 69.0798 53.3347 69.5752 52.8014C71.4638 50.7874 73.4576 48.8788 75.51 46.9892C76.5352 46.0423 77.576 45.1017 78.6284 44.1548L78.9988 43.8237L79.3749 43.4968C79.64 43.2691 79.907 43.0413 80.174 42.8135L80.5814 42.4656C80.615 42.4371 80.6223 42.43 80.6296 42.4229L80.6379 42.415L80.673 42.3812L80.7334 42.3222L80.9225 42.1197C80.9515 42.2437 81.0031 42.4587 81.0445 42.6311L81.0823 42.7882L81.1291 42.7671C81.1615 42.7866 81.1922 42.8133 81.2198 42.8372L81.2265 42.8431L81.2674 42.881L81.2772 42.8895L81.4019 42.9612C81.4857 43.0097 81.5656 43.0582 81.6339 43.1025C81.8205 43.2259 82.0067 43.3494 82.1928 43.4729L82.1971 43.4757C82.3847 43.6002 82.5723 43.7246 82.7604 43.849C83.1502 44.1084 83.5147 44.3594 83.8577 44.6082C84.1988 44.8592 84.5145 45.1059 84.8069 45.3569C84.8945 45.4328 84.9822 45.5132 85.0698 45.5936C85.1283 45.6472 85.1869 45.7011 85.2454 45.7534C85.3291 45.8306 85.4121 45.9127 85.4953 45.9949C85.5574 46.0563 85.6195 46.1178 85.682 46.1773C86.2609 46.7614 86.8261 47.4131 87.3718 48.1133C88.1504 49.0393 88.9502 49.8227 89.7172 50.4911C87.7406 52.2623 85.9002 54.0531 84.2358 55.8403C83.7076 56.4119 83.2379 56.9475 82.8208 57.4473C82.6123 57.6962 82.4174 57.9366 82.2342 58.1686C82.051 58.4006 81.8814 58.6199 81.7313 58.8202C81.1213 59.6301 80.6905 60.2838 80.4196 60.7858C79.8797 61.7896 79.9811 62.1924 80.6126 62.0553C81.2402 61.9182 82.3862 61.2434 83.9376 60.0898C85.493 58.9299 87.4732 57.363 89.8042 55.5156C89.9017 55.64 90.0927 55.8867 90.1882 56.0112C87.9429 57.9472 86.6507 59.299 85.9237 60.1932C85.2006 61.0916 85.0427 61.5386 85.1265 61.7706C85.1979 61.9614 85.434 62.0135 85.6701 62.0655C86.0081 62.1401 86.3462 62.2146 86.2005 62.6964C88.2138 60.5917 90.3597 58.6136 92.603 56.7556C93.7257 55.8277 94.8737 54.9293 96.0431 54.0604L96.9202 53.4193C97.1677 53.2485 97.4698 53.0418 97.7641 52.8478L98.6704 52.2552L99.1304 51.9599L99.3623 51.8123L99.4149 51.7807L99.4676 51.7617L99.6215 51.6478C99.6703 51.6668 99.7209 51.69 99.7697 51.7132L100.082 51.8629L100.458 52.0527L100.623 52.1413L100.758 52.2172L101.2 52.4724L101.278 52.5169C102.53 53.2363 103.622 53.8641 104.537 54.5729C105.018 54.9314 105.49 55.349 105.958 55.7729C106.42 56.2157 106.882 56.6649 107.326 57.1584C108.225 58.1264 109.078 59.1893 109.901 60.2965C110.725 61.4037 111.511 62.5678 112.271 63.7593L112.413 63.9829L112.483 64.0925L112.54 64.1853C112.555 64.2114 112.57 64.237 112.586 64.2626L112.628 64.3317C112.673 64.4065 112.719 64.4823 112.764 64.5628L112.984 64.9593L113.2 65.3727C113.485 65.9379 113.752 66.5347 114.005 67.1484C114.508 68.38 114.953 69.6812 115.327 71.0014C115.514 71.6615 115.689 72.3258 115.839 72.9901C115.982 73.5932 116.105 74.2807 116.225 74.9851L116.399 76.0522L116.526 76.8663C116.539 76.938 116.553 77.0139 116.563 77.0877L116.397 77.2164L114.916 78.2961L111.554 80.7193L110.729 81.2992L110.347 81.5628L109.914 81.8539L108.168 83.0349C107.008 83.8278 105.86 84.6271 104.724 85.42C102.45 87.0081 100.226 88.5497 97.959 89.988C97.3938 90.3486 96.8227 90.7029 96.2516 91.053L94.5131 92.099L90.96 94.2164C88.5861 95.6335 86.2102 97.0676 83.8402 98.5396L82.0646 99.651L80.3105 100.765C79.1566 101.494 77.997 102.215 76.8295 102.924C75.662 103.635 74.4887 104.335 73.3095 105.025L71.5359 106.052C70.9453 106.385 70.3548 106.72 69.7642 107.055C68.5928 107.709 67.4 108.338 66.1838 108.966L65.0378 109.555L65.0125 109.565L64.9696 109.582L64.8098 109.647L64.9676 109.597L65.0105 109.582L65.032 109.571H65.0378C65.0372 109.571 65.0371 109.572 65.0378 109.571L65.0415 109.569C65.0442 109.568 65.0482 109.566 65.0534 109.563L65.0807 109.548L65.1918 109.491L66.0825 109.04C67.2656 108.439 68.4233 107.838 69.5596 107.22L70.4094 106.752L71.2708 106.269L72.984 105.295C74.1242 104.641 75.2547 103.976 76.3793 103.308C77.5019 102.637 78.6187 101.958 79.7296 101.273C80.3657 100.877 81.001 100.481 81.6358 100.085L83.0976 99.1744C85.3643 97.7741 87.6388 96.4138 89.9095 95.0684C90.4765 94.7331 91.044 94.3984 91.6115 94.0637C92.1793 93.7288 92.7471 93.394 93.3144 93.0586L95.014 92.0568C95.1565 91.9719 95.2984 91.8879 95.4397 91.8041C95.8533 91.5591 96.2625 91.3166 96.6707 91.0635C98.8692 89.7286 101.013 88.2987 103.186 86.7951C103.816 86.36 104.449 85.9202 105.085 85.4778C106.646 84.3936 108.227 83.2945 109.834 82.2145L110.649 81.6641L111.439 81.1094C111.98 80.7193 112.524 80.3291 113.068 79.939C113.543 79.5921 114.019 79.2449 114.496 78.8971C115.115 78.4455 115.735 77.9929 116.356 77.539C116.342 77.5704 116.321 77.6078 116.3 77.6463C116.199 77.83 116.084 78.0367 116.648 77.7141C115.551 78.5703 114.454 79.4138 113.356 80.2405C113.032 80.4826 112.708 80.7238 112.385 80.9648L112.319 81.0136C112.118 81.1637 111.916 81.3137 111.715 81.4637L110.912 82.0479L108.211 83.9299C106.59 85.0594 104.976 86.1841 103.366 87.3054C101.155 88.8323 98.9569 90.2748 96.7058 91.6161C96.1435 91.9517 95.5908 92.2728 95.0133 92.6083L95.0043 92.6136L93.2696 93.6153C92.5737 94.0165 91.8785 94.4185 91.1835 94.8203L91.169 94.8286L91.1647 94.8311L89.7945 95.623C87.4751 96.9685 85.1577 98.333 82.8501 99.7438L81.3382 100.677C80.7026 101.069 80.0663 101.462 79.4295 101.855C78.2971 102.549 77.1589 103.236 76.0148 103.919C74.8726 104.603 73.7227 105.28 72.5669 105.955C71.9881 106.29 71.4092 106.625 70.8284 106.963C70.2495 107.296 69.6824 107.619 69.1015 107.943C67.9438 108.591 66.7666 109.226 65.5699 109.869L65.3457 109.989L65.2444 110.044L65.2191 110.059L65.1177 110.12L64.9092 110.246C64.7674 110.329 64.6257 110.424 64.4748 110.526L64.4667 110.531C64.5083 110.4 64.5761 110.189 64.6385 109.995L64.7435 109.668L64.6558 109.704C64.6445 109.645 64.6452 109.567 64.6458 109.5L64.646 109.46L64.648 109.348V109.287L64.6499 109.297L64.6489 109.291L64.648 109.287V109.285L64.6472 109.284L64.611 109.101L64.5291 108.698L64.2036 107.226L64.0438 106.486C63.9717 106.182 63.8957 105.879 63.8099 105.579C63.6384 104.978 63.4357 104.39 63.2408 103.877L62.7165 102.513C62.6385 102.308 62.5703 102.114 62.5021 101.92C62.4722 101.839 62.4423 101.757 62.4122 101.673L62.4112 101.67L62.4102 101.668C62.3427 101.48 62.2735 101.288 62.2 101.106C61.9934 100.562 61.7595 100.037 61.5198 99.5161C61.0325 98.4785 60.4848 97.4873 59.8865 96.5404C59.5863 96.068 59.2784 95.604 58.9549 95.1548C58.8134 94.9533 58.6674 94.7583 58.5209 94.5627L58.4637 94.4863L58.2123 94.1594L57.8166 93.668C57.7891 93.6351 57.7625 93.6021 57.736 93.5693C57.693 93.5161 57.6499 93.4628 57.6042 93.4107L57.0662 92.9552L57.0132 92.9129C57.4035 92.4166 57.7707 91.9337 58.1168 91.4663C57.6647 91.8796 57.212 92.2944 56.7585 92.7108C56.6637 92.6371 56.572 92.5677 56.4815 92.4997C56.4497 92.4756 56.4181 92.4518 56.3866 92.4284C56.8689 91.9744 57.352 91.5216 57.8361 91.0698C58.374 90.5785 58.9178 90.0808 59.4597 89.5831L59.4675 89.5873C60.0207 88.7877 60.5044 88.0573 60.937 87.4041L60.9604 87.3687C62.5742 84.6566 62.9192 82.7712 58.1655 86.426C57.1052 87.4868 54.9847 89.6063 54.9847 89.6063C54.3649 89.7897 54.3902 89.2962 54.435 88.8049L48.9485 94.1109L50.7026 95.1274C51.4861 95.5808 52.295 96.0849 53.0415 96.5994C53.2286 96.7302 53.4118 96.8609 53.5892 96.9938C53.6241 97.0213 53.6601 97.0485 53.696 97.0756C53.748 97.115 53.7999 97.1542 53.8484 97.1941L53.9653 97.289L53.991 97.3101C54.0131 97.3281 54.0331 97.3444 54.053 97.3629C54.1447 97.4274 54.2233 97.5295 54.3018 97.6316C54.3234 97.6597 54.345 97.6878 54.3668 97.715L54.4558 97.8307C54.5681 97.9765 54.6799 98.1217 54.7878 98.2718C55.889 99.7712 56.8207 101.399 57.5009 103.118C57.5847 103.331 57.6665 103.548 57.7426 103.766L58.0076 104.502L58.5514 105.923C58.721 106.37 58.8652 106.79 58.9821 107.214C59.0426 107.425 59.0932 107.64 59.1439 107.855L59.2998 108.589L59.3533 108.829C59.4472 109.249 59.5372 109.653 59.6175 110.05L59.6857 110.4L59.7306 110.643C59.7361 110.681 59.743 110.718 59.7498 110.755C59.7597 110.808 59.7696 110.862 59.7754 110.917L59.8943 112.039C60.0048 113.367 60.1658 114.675 60.329 116.001L60.339 116.082L60.3113 115.866C60.1501 114.606 59.9902 113.358 59.8787 112.085L59.7559 110.965C59.7489 110.898 59.7367 110.832 59.7247 110.767L59.7163 110.721L59.7111 110.691L59.6643 110.436L59.5941 110.09C59.5234 109.751 59.4445 109.408 59.3627 109.052L59.3621 109.049L59.3596 109.038C59.3296 108.908 59.2992 108.776 59.2687 108.641L59.1049 107.905C59.0562 107.692 59.0016 107.479 58.9412 107.271C58.8204 106.851 58.6761 106.438 58.5046 105.997L57.9492 104.588L57.6743 103.848C57.5944 103.633 57.5145 103.42 57.4268 103.207C56.7369 101.505 55.7974 99.8957 54.6845 98.4131C54.5852 98.2799 54.4828 98.1488 54.3804 98.0176C54.3401 97.966 54.2998 97.9144 54.2596 97.8627L54.1076 97.675C54.0666 97.6176 54.021 97.5798 53.9749 97.5414L53.9556 97.5252C53.8718 97.4557 53.6749 97.3017 53.5034 97.1773C53.328 97.0486 53.1448 96.92 52.9557 96.7935C52.2073 96.2873 51.3887 95.7917 50.6013 95.3488L48.5606 94.2016L50.2407 92.5377C51.6323 91.1626 53.0454 89.7644 54.4584 88.3641C54.4506 87.8495 54.1739 87.6597 52.5074 89.0094C51.8292 89.5029 50.7845 90.4646 49.5274 91.6962L46.7402 94.4251L50.1238 96.3696C50.9755 96.8588 52.0358 97.4831 52.9343 98.1179C53.0434 98.1938 53.1643 98.2823 53.2461 98.3456C53.2584 98.3548 53.2692 98.3627 53.2791 98.3698C53.3098 98.3921 53.3328 98.4088 53.365 98.4405L53.4293 98.5143L53.4397 98.5255C53.4577 98.5447 53.4696 98.5574 53.5209 98.6219C53.5569 98.6672 53.5935 98.7122 53.6301 98.7573C53.6905 98.8316 53.7512 98.9064 53.8094 98.9825C54.1914 99.4676 54.5578 99.9737 54.8989 100.49C55.583 101.526 56.1658 102.616 56.6004 103.683C56.655 103.816 56.7076 103.949 56.7563 104.082C56.8129 104.23 56.8674 104.377 56.922 104.525C57.0467 104.864 57.1715 105.191 57.2904 105.491C57.5282 106.094 57.725 106.594 57.8595 107.028C57.9511 107.332 58.0271 107.625 58.0914 107.924C58.1246 108.074 58.1538 108.228 58.1811 108.382L58.3039 109.006C58.3454 109.21 58.3864 109.415 58.4274 109.62L58.4279 109.622L58.4283 109.624C58.462 109.793 58.4958 109.962 58.53 110.13L58.6255 110.655L58.7015 111.111C58.7223 111.223 58.7309 111.341 58.7396 111.46C58.7439 111.519 58.7483 111.578 58.7541 111.636C58.8073 112.333 58.8753 113.03 58.9401 113.694L58.9451 113.745C59.0153 114.435 59.0971 115.124 59.1809 115.818C59.2294 116.212 59.2773 116.606 59.3253 117.001C59.3621 117.304 59.399 117.608 59.4363 117.912L59.6663 119.772C59.6678 119.781 59.6691 119.79 59.6703 119.799L59.6738 119.828C59.6769 119.855 59.68 119.882 59.6857 119.903L59.713 120.011C60.3519 119.661 60.9918 119.311 61.6325 118.96L61.6807 118.934L61.682 118.933C62.3559 118.564 63.0308 118.195 63.7066 117.826L65.7589 116.712C66.4324 116.371 67.1058 116.028 67.7792 115.684L67.7937 115.677C69.3315 114.909 70.8927 114.116 72.45 113.27C73.2332 112.845 73.9931 112.417 74.7529 111.989C75.133 111.771 75.5134 111.553 75.893 111.336L75.896 111.334C76.2746 111.117 76.6531 110.899 77.0322 110.683C78.5466 109.803 80.0551 108.907 81.552 107.998C82.0278 107.705 82.5036 107.413 82.9789 107.121L83.7895 106.623C84.274 106.322 84.7585 106.022 85.243 105.723L85.247 105.72L85.9763 105.269C87.4283 104.379 88.8882 103.51 90.348 102.654C91.8098 101.8 93.2716 100.959 94.7314 100.132C95.9788 99.4293 97.2206 98.7312 98.4521 98.039L99.1148 97.6665C101.153 96.5087 103.163 95.2582 105.112 93.9696C106.571 93.0066 107.993 92.0307 109.4 91.0648L109.402 91.0633L109.403 91.0627C109.877 90.7369 110.351 90.4119 110.823 90.0892L111.079 89.9144L111.084 89.9116C111.932 89.3341 112.779 88.757 113.629 88.1891L114.389 87.6724L115.124 87.1557L116.545 86.135L119.346 84.0872L124.006 80.6602C123.952 80.2716 123.9 79.8837 123.847 79.4962C123.714 78.5146 123.582 77.5355 123.435 76.5541L123.289 75.5925L123.203 75.0589L123.022 73.9834C122.895 73.26 122.764 72.5409 122.591 71.7479C122.523 71.4387 122.456 71.1676 122.389 70.8944C122.365 70.7987 122.342 70.7028 122.318 70.6049C122.223 70.2358 122.127 69.8668 122.024 69.5019C121.63 68.1079 121.174 66.7287 120.652 65.3495C120.125 63.9702 119.529 62.5952 118.779 61.2075L118.486 60.6866C118.415 60.5607 118.338 60.4337 118.261 60.3064L118.228 60.2522L118.174 60.1636C118.088 60.0198 118.016 59.9076 117.944 59.7947L117.88 59.6954L117.598 59.2526C117.219 58.6663 116.832 58.08 116.434 57.498C115.639 56.3338 114.803 55.1866 113.908 54.0667C113.011 52.9469 112.064 51.8545 111.025 50.8169C109.988 49.7835 108.85 48.7944 107.613 47.9256C106.581 47.2064 105.576 46.6224 104.662 46.0913L104.658 46.0894C104.491 45.992 104.326 45.8963 104.165 45.8019L103.96 45.6817L103.677 45.5235L103.42 45.3864L103.177 45.2599L102.709 45.0279L102.45 44.9035L102.038 44.7116C101.185 44.316 100.331 43.9515 99.4813 43.5887C99.2484 43.4893 99.0157 43.39 98.7834 43.2902C98.3567 43.6062 97.93 43.9211 97.5047 44.2349L97.0274 44.5871L96.5847 44.9177C96.1998 45.2051 95.8164 45.4914 95.433 45.7766C94.9968 46.105 94.5667 46.4312 94.1332 46.7664ZM93.2791 47.4373L93.5014 47.2607C92.0833 45.1976 90.5108 43.2157 88.6056 41.4912L88.4742 41.3774C88.2552 41.1872 88.0362 40.9971 87.8104 40.8143C87.5375 40.595 87.2627 40.3862 86.9859 40.1858C86.4343 39.7851 85.8808 39.4224 85.3429 39.0744L84.5477 38.562L84.3528 38.4354L84.115 38.2857C83.9591 38.1908 83.809 38.1043 83.6609 38.02L83.3997 37.8766L83.0995 37.7163L82.4934 37.4021C82.1543 37.2292 81.8139 37.0623 81.4733 36.8963C81.8135 37.0673 82.1512 37.2377 82.4875 37.4126L83.0859 37.731L83.3821 37.8934L83.6414 38.0411C83.7875 38.1275 83.9357 38.2161 84.0896 38.311L84.3255 38.4628L84.5165 38.5915L85.298 39.1145C85.8262 39.4688 86.3681 39.8379 86.906 40.2428C87.175 40.4452 87.4439 40.654 87.7071 40.8754C87.8844 41.0211 88.0539 41.1732 88.2232 41.3251C88.3088 41.4019 88.3944 41.4787 88.4808 41.5545C90.3672 43.3208 91.9042 45.3409 93.2791 47.4373ZM80.9916 36.658L80.8854 36.6049L80.5931 36.4594C80.5839 36.4553 80.5747 36.4504 80.5656 36.4455C80.5418 36.4328 80.5187 36.4205 80.4976 36.4235L77.643 38.6046C77.1127 39.0091 76.6113 39.3916 76.0713 39.8252L75.1767 40.5675L74.3035 41.3036C73.7227 41.797 73.1458 42.2969 72.5708 42.8009C70.2729 44.8191 68.0218 46.928 65.8505 49.1635C68.0179 47.0208 70.2554 44.9457 72.5533 42.9253C73.1283 42.4192 73.7052 41.9173 74.286 41.4174L75.1592 40.6709L76.0518 39.918C76.6347 39.4396 77.1841 39.0119 77.7481 38.5728L77.8839 38.4671C78.7532 37.7901 79.6263 37.111 80.4995 36.432C80.5196 36.4291 80.5414 36.44 80.5639 36.4513C80.5742 36.4565 80.5846 36.4617 80.595 36.4657L80.6925 36.5121L80.8874 36.607L80.9916 36.658ZM116.356 77.539L116.428 77.4861L116.466 77.4585L116.431 77.4845C116.407 77.5024 116.382 77.5207 116.356 77.539ZM60.428 116.787L60.4926 117.303L60.5745 117.948C60.5752 117.951 60.5758 117.954 60.5763 117.957L60.5774 117.964C60.5785 117.972 60.5792 117.98 60.5799 117.988C60.5821 118.012 60.5842 118.036 60.594 118.045L60.6349 118.096L63.3636 116.598C63.8177 116.345 64.2835 116.096 64.7513 115.848L65.449 115.474L66.1468 115.116L68.4057 113.975L70.3099 113C71.5807 112.345 72.8515 111.647 74.0911 110.953C75.3365 110.259 76.5761 109.552 77.8118 108.84C79.0475 108.125 80.2793 107.401 81.5052 106.667L85.1538 104.461C87.5648 103.013 90.005 101.608 92.4608 100.223C90.042 101.551 87.631 102.914 85.2337 104.337C84.2711 104.914 83.3073 105.493 82.3412 106.073L81.6066 106.513C80.3845 107.241 79.1566 107.964 77.919 108.679C76.6833 109.396 75.4398 110.105 74.1905 110.807C72.947 111.507 71.6723 112.216 70.3918 112.887L69.7077 113.241C69.2955 113.455 68.8828 113.669 68.4701 113.882C67.725 114.263 66.9781 114.644 66.2311 115.025L66.2267 115.027L65.5231 115.39L64.5523 115.914L64.5513 115.914C64.1689 116.121 63.787 116.327 63.4143 116.537C62.8582 116.847 62.3014 117.156 61.7444 117.465L61.7167 117.48C61.3575 117.68 60.9982 117.879 60.6388 118.079L60.5979 118.03C60.5979 118.03 60.5881 118.007 60.5862 117.988L60.5784 117.935L60.5511 117.722L60.4946 117.296L60.428 116.787ZM53.1033 91.4438C52.9325 91.3377 52.7637 91.2329 52.5698 91.1184L52.635 91.6291C52.7862 91.7182 52.9294 91.804 53.0785 91.8944L53.168 91.9498L53.1033 91.4438ZM55.3665 93.3913L55.6267 93.1452C55.7357 93.2262 55.8456 93.3094 55.9572 93.396L55.9882 93.4194L55.7291 93.6581C55.6073 93.566 55.4867 93.4776 55.3665 93.3913ZM53.5706 95.099C53.4241 95.2389 53.2777 95.3789 53.1313 95.519L53.1935 96.0068L53.6343 95.5969L53.5706 95.099ZM56.1508 93.9838C56.2663 94.0756 56.4058 94.1936 56.5333 94.3016L56.5497 94.3155C56.6923 94.4183 56.7949 94.5479 56.8969 94.6768C56.9162 94.7013 56.9356 94.7257 56.9551 94.7499L57.1403 94.9777L57.2202 95.0768L57.2845 95.159C57.456 95.3784 57.6237 95.6019 57.7893 95.8276C59.1088 97.6328 60.2588 99.6426 61.1046 101.855C61.1911 102.087 61.2629 102.286 61.3295 102.469C61.4369 102.766 61.5305 103.025 61.6484 103.323C61.7013 103.459 61.7566 103.6 61.8135 103.744C61.9519 104.095 62.0998 104.471 62.2448 104.873C62.4495 105.44 62.6385 106.052 62.7847 106.665L62.7868 106.675L62.7874 106.677C62.9073 107.209 63.0273 107.741 63.1472 108.277L63.3285 109.107L63.4162 109.54L63.4474 109.719C63.4649 109.829 63.4805 109.938 63.4903 110.052L63.5098 110.392C63.5249 110.613 63.5475 110.837 63.5702 111.062L63.5721 111.081L63.6092 111.431L63.6384 111.697L63.6442 111.741C63.6455 111.75 63.6544 111.744 63.6631 111.739C63.6676 111.736 63.6721 111.734 63.6754 111.733C63.8322 111.651 63.989 111.568 64.1463 111.485C64.2999 111.404 64.454 111.323 64.609 111.242C64.7901 111.155 64.9713 111.067 65.153 110.98L65.1542 110.979C65.316 110.901 65.4788 110.822 65.642 110.744C67.1876 109.968 68.7312 109.19 70.271 108.367C72.5104 107.188 74.8278 105.877 77.1413 104.497C78.2991 103.806 79.4607 103.097 80.6204 102.369C81.2327 101.982 81.8467 101.595 82.4612 101.208C83.0182 100.856 83.5756 100.505 84.1325 100.153C86.4909 98.6767 88.8609 97.23 91.1939 95.8233C92.3594 95.1232 93.5152 94.4294 94.6573 93.744C95.8073 93.0586 96.9046 92.3985 97.9843 91.7257C97.2418 92.177 96.4933 92.6199 95.7429 93.0564C94.9789 93.4993 94.213 93.9443 93.447 94.3893C91.9131 95.2814 90.3753 96.1798 88.8356 97.0929C87.2958 98.0061 85.7561 98.9319 84.2202 99.8746C82.698 100.821 81.1739 101.771 79.6497 102.72C76.6209 104.586 73.5415 106.4 70.4522 108.12C68.9183 108.97 67.3572 109.776 65.7745 110.577L65.3925 110.767L64.6636 111.117L63.7475 111.59C63.7475 111.59 63.7222 111.609 63.7203 111.598L63.7086 111.472L63.693 111.305L63.6618 110.976C63.6423 110.757 63.6247 110.541 63.6131 110.328C63.6079 110.259 63.6061 110.188 63.6044 110.118L63.6038 110.093C63.6031 110.066 63.6024 110.039 63.6014 110.012C63.5955 109.907 63.5838 109.805 63.5702 109.704L63.5487 109.552L63.4708 109.152L63.2973 108.319C63.2334 108.017 63.1688 107.715 63.1043 107.414C63.0548 107.182 63.0053 106.951 62.9562 106.72C62.8159 106.102 62.6366 105.476 62.4358 104.898C62.2849 104.456 62.1294 104.048 61.9848 103.669C61.939 103.548 61.8943 103.431 61.8511 103.316C61.7615 103.076 61.6777 102.85 61.5978 102.623L61.3268 101.849C60.5024 99.5899 59.3622 97.521 58.0447 95.661C57.879 95.429 57.7114 95.197 57.5399 94.9713L57.4034 94.7921L57.2105 94.5496C57.1718 94.5041 57.1358 94.4572 57.0997 94.4102C57.0102 94.2935 56.9206 94.1767 56.7914 94.0835L56.6838 93.9908C56.5758 93.8976 56.4652 93.8021 56.3659 93.7213C56.2949 93.8085 56.2232 93.896 56.1508 93.9838ZM89.9448 50.2877C89.4505 49.4334 88.9238 48.6038 88.3619 47.8096C87.6388 46.7825 86.8534 45.8272 86.0114 44.9815L85.9974 44.9679C85.7914 44.7677 85.5817 44.5639 85.3702 44.3763C85.1519 44.1843 84.9219 43.9945 84.6822 43.8068C84.2007 43.4315 83.6784 43.0645 83.121 42.6828L82.2848 42.1134L82.2108 42.0628L82.125 42.0079L81.9438 41.8941L81.7703 41.7886L81.6884 41.7359C81.6507 41.7126 81.6127 41.6889 81.5742 41.665C81.3862 41.5477 81.1889 41.4247 80.9868 41.3268L80.5346 41.6389L80.2851 41.816L80.2091 41.8709L80.0707 41.9784L79.794 42.1914C79.4275 42.4761 79.0611 42.7629 78.7122 43.0434C78.531 43.1889 78.3907 43.3028 78.2035 43.4652L77.6715 43.9207C76.2545 45.1418 74.8648 46.3987 73.5103 47.6873C72.1576 48.9779 70.8401 50.3023 69.5732 51.6647C69.2515 52.0149 68.9308 52.3645 68.6106 52.7137L68.6076 52.7169C68.2905 53.0626 67.9739 53.4078 67.6573 53.7525C67.3379 54.0971 67.019 54.4406 66.7006 54.7836L66.6836 54.8018L66.6816 54.804L66.6574 54.8301C66.3451 55.1664 66.0333 55.5023 65.7219 55.8382C66.6477 54.807 67.5949 53.7272 68.5539 52.6242C69.4952 51.536 70.46 50.4731 71.4657 49.4292C73.4713 47.3477 75.6035 45.3906 77.7104 43.7204C77.7944 43.652 77.8776 43.5836 77.9604 43.5154C78.0565 43.4364 78.1521 43.3577 78.2484 43.2796L78.4959 43.0814L78.7551 42.8789C78.9444 42.7339 79.1326 42.5889 79.32 42.4445C79.4896 42.3138 79.6586 42.1836 79.8271 42.0543C80.1801 41.781 80.3058 41.6922 80.4289 41.6052L80.4851 41.5654L80.521 41.5398C80.5965 41.4863 80.6721 41.4323 80.7477 41.3783L80.7488 41.3775C80.8249 41.3231 80.901 41.2688 80.977 41.215C81.1859 41.3121 81.391 41.4291 81.5886 41.5417C81.6399 41.571 81.6908 41.6 81.7411 41.6283L82.0256 41.7928C82.1562 41.8687 82.2751 41.9426 82.3725 42.0058C82.659 42.1935 82.9456 42.3812 83.2321 42.5668C83.7973 42.9337 84.3294 43.288 84.8205 43.6508C85.0661 43.8321 85.3019 44.0156 85.528 44.2033C85.7522 44.391 85.9744 44.5893 86.1927 44.7917C87.0678 45.6121 87.8864 46.5463 88.6426 47.5565C89.2246 48.3283 89.7723 49.1397 90.2884 49.9831L90.2135 50.0492C90.1237 50.1287 90.0341 50.2082 89.9448 50.2877ZM58.2472 66.0126C58.3017 66.0307 58.4446 65.929 58.8028 65.5414C58.4459 65.9246 58.302 66.0284 58.2472 66.0126Z" fill="#EF8D2B"/>
<path fill-rule="evenodd" clip-rule="evenodd" d="M59.1072 74.6687L59.304 74.7405C59.955 74.9746 60.604 75.2382 61.2472 75.525C61.8865 75.8266 62.5238 76.1429 63.1377 76.5141C64.3715 77.2417 65.537 78.1147 66.607 79.1165C67.6771 80.114 68.6652 81.2549 69.5423 82.4697C70.4252 83.6865 71.2185 84.9877 71.9454 86.3648C72.1072 86.677 72.267 86.9954 72.4249 87.316L72.5438 87.5543L72.612 87.704C72.6344 87.7536 72.6573 87.8026 72.6802 87.8516C72.7031 87.9006 72.726 87.9497 72.7485 87.9993C72.8927 88.3219 73.0447 88.6636 73.1909 89.0115L73.2045 89.0453L73.2318 89.0263L73.2883 88.9862L73.3994 88.9061L73.6255 88.7437L74.0816 88.4105C74.2938 88.2518 74.506 88.0935 74.718 87.9353L74.7199 87.9339C75.0114 87.7164 75.3024 87.4993 75.5921 87.2822C75.9657 87.0025 76.3373 86.724 76.706 86.4477C77.4991 85.8534 78.2784 85.2695 79.0341 84.7051C77.8666 85.5424 76.6894 86.3859 75.5083 87.2316L74.6234 87.8706L74.2434 88.1427L74.0368 88.2882L73.6294 88.5729L73.4287 88.7121L73.3293 88.7817L73.2805 88.8154L73.2552 88.8323L73.2435 88.8006C73.1636 88.6066 73.0817 88.4189 72.9979 88.2333C72.9122 88.0435 72.842 87.8917 72.7095 87.6281L72.6646 87.5395L72.6062 87.4235L72.4444 87.1177C72.3372 86.9132 72.23 86.7086 72.117 86.5061C71.8967 86.0991 71.6687 85.6984 71.4348 85.2998C70.9631 84.5048 70.4798 83.716 69.9516 82.9547C69.7554 82.6582 69.5442 82.3704 69.3332 82.0826L69.2403 81.9559C69.2077 81.9114 69.1752 81.8668 69.1427 81.8222C69.0586 81.7034 68.9675 81.5896 68.8763 81.4756C68.8219 81.4075 68.7671 81.339 68.7139 81.2697C68.6609 81.2047 68.6095 81.1389 68.5582 81.0731C68.4664 80.9554 68.3748 80.8379 68.2735 80.7256C68.2085 80.6508 68.1439 80.5757 68.0793 80.5006C67.8377 80.2198 67.5962 79.9391 67.3379 79.6796L66.8546 79.1755L66.3478 78.6947C66.1248 78.4733 65.8859 78.2719 65.6471 78.0706C65.5312 77.9729 65.4152 77.8751 65.3012 77.7752C65.184 77.6812 65.0653 77.5898 64.9469 77.4987C64.8824 77.4491 64.8174 77.399 64.7535 77.3492L64.4787 77.1362L64.1941 76.938C62.6914 75.8666 61.0367 75.0399 59.4053 74.4284C60.4188 74.4663 61.6682 74.6899 62.9896 75.3626C64.5566 76.2146 65.9931 77.3028 67.2658 78.5176C67.4817 78.7267 67.6912 78.9417 67.9006 79.1565C67.9974 79.2558 68.0943 79.3553 68.1916 79.4539C68.2817 79.5566 68.3728 79.6587 68.464 79.7607C68.6668 79.9877 68.8693 80.2144 69.0589 80.4472C69.1356 80.5433 69.2132 80.6387 69.2907 80.734L69.2913 80.7347C69.4875 80.976 69.6832 81.2166 69.8619 81.4658L70.2459 81.9825C70.3208 82.0847 70.3923 82.1884 70.4636 82.2919C70.5129 82.3634 70.5621 82.4348 70.6123 82.5055C70.5569 82.5508 70.4659 82.6276 70.3893 82.6922L70.3883 82.693L70.3005 82.767C71.16 83.8953 71.9162 85.0721 72.6003 86.2763C72.7153 86.4747 72.8242 86.6769 72.9329 86.8785C72.9882 86.9811 73.0434 87.0835 73.0993 87.1852L73.2006 87.3813L73.2494 87.4762L73.2727 87.5269C73.3332 87.6597 73.3916 87.801 73.4501 87.955L73.456 87.9718L73.4676 87.9634L73.493 87.9486L73.5437 87.917L73.647 87.8537L73.8672 87.7209L73.9841 87.6513L73.9997 87.6428L74.0095 87.6365L74.0387 87.6154L74.3778 87.375L75.4067 86.6511C76.5767 85.8275 77.7449 85.0053 78.9094 84.1652C80.1139 83.2964 81.3164 82.4148 82.5112 81.5017C82.8094 81.2718 83.1076 81.0419 83.4058 80.8099L83.8521 80.4599L84.0763 80.2827L84.1386 80.2258C84.2166 80.1499 84.2907 80.076 84.355 80.0065L84.4017 79.9537L84.4232 79.9284C84.4232 79.9284 84.4427 79.9137 84.431 79.8989C84.4056 79.8462 84.3784 79.7956 84.3511 79.7471C84.3237 79.7938 84.2579 79.7691 84.1948 79.7454C84.1726 79.737 84.1506 79.7288 84.1308 79.7239C84.1339 79.7323 84.1373 79.7407 84.1408 79.7491L84.1434 79.7555C84.1521 79.7766 84.1607 79.7977 84.1659 79.8188L84.0957 79.8778L83.9476 80.0001C83.7206 80.1706 83.4941 80.341 83.2681 80.5111C82.9432 80.7557 82.6189 80.9998 82.2948 81.2423C81.0923 82.1343 79.8995 83.0201 78.7106 83.9037L77.4559 84.8208C76.6811 85.3872 75.907 85.953 75.1321 86.5188L74.0114 87.3307L73.8984 87.4109L73.8691 87.432L73.8594 87.4383L73.7873 87.4826L73.6489 87.5648L73.5846 87.6028L73.53 87.6323L73.5261 87.6218L73.4326 87.3539L73.4209 87.3223C73.4209 87.3223 73.4209 87.3204 73.4196 87.3167C73.4186 87.3136 73.4166 87.3091 73.4131 87.3033L73.3955 87.2632L73.3234 87.1072L73.3059 87.0671L73.2494 86.9596L73.1344 86.7381L72.9024 86.2952C72.2729 85.1206 71.5927 83.9586 70.8345 82.8155C71.5946 83.9417 72.2826 85.0911 72.9239 86.2594L73.3585 87.0734L73.4326 87.2211C73.461 87.2771 73.4622 87.2805 73.4668 87.2935L73.4696 87.3012L73.5534 87.5037C73.5872 87.4942 73.6266 87.4656 73.6669 87.4363C73.6895 87.4199 73.7123 87.4034 73.7347 87.3898L73.7814 87.356L73.9237 87.2527L74.7326 86.6538C75.8104 85.8545 76.8863 85.0552 77.9621 84.2559L79.6562 82.9884C81.0634 81.9356 82.4723 80.8814 83.8853 79.8251L83.9652 79.7597C83.9834 79.7525 83.9776 79.7377 83.9719 79.723L83.9691 79.7154L83.9496 79.6627L83.9086 79.5636L83.9028 79.5509L83.8794 79.4877L83.7917 79.2557L83.6104 78.7938C83.1212 77.5622 82.5716 76.3559 81.9557 75.2044C81.3418 74.053 80.6654 72.95 79.9112 71.9588C79.1608 70.9676 78.3305 70.0924 77.4008 69.329C77.3418 69.2805 77.2721 69.2281 77.196 69.1709C77.1464 69.1336 77.0941 69.0943 77.0402 69.0527C76.9914 69.017 76.9421 68.9784 76.8917 68.939C76.7993 68.8666 76.7032 68.7913 76.5998 68.7258L76.596 68.7233L76.5944 68.7222L76.593 68.7213C76.4393 68.6173 76.2858 68.5135 76.1456 68.4179C76.0534 68.3537 75.962 68.3001 75.8799 68.2519C75.8353 68.2258 75.7935 68.2013 75.7558 68.1775C74.9645 67.5132 74.0621 66.967 73.0895 66.5136C72.117 66.0581 71.0742 65.6953 69.9789 65.341C70.1805 65.2418 70.1592 65.0209 70.1379 64.8C70.123 64.6451 70.108 64.4902 70.1699 64.3772C70.2459 64.2402 70.433 64.1642 70.8696 64.2233C71.3042 64.2845 71.9942 64.4679 73.035 64.9087C73.0681 64.8075 73.1324 64.6029 73.1636 64.5017C72.1345 63.9808 71.2613 63.5042 70.6259 63.0634C69.9906 62.6247 69.5988 62.2198 69.4741 61.9161C69.3396 61.6061 69.4916 61.4037 69.9204 61.3299C70.3472 61.2624 71.0781 61.313 72.2144 61.5724C73.4871 61.8761 74.9255 62.3253 76.4068 63.0254C77.89 63.7129 79.4005 64.7083 80.7707 65.9421C82.1526 67.1716 83.3415 68.6837 84.3472 70.2253C85.3548 71.7753 86.2183 73.3802 86.9862 74.9767C87.261 75.5608 87.5241 76.1492 87.7716 76.7461L87.8442 76.9225C87.943 77.1624 88.0419 77.4024 88.1342 77.6445L88.2745 78.0135L88.306 78.1007L88.3256 78.1549C88.3598 78.2491 88.394 78.3432 88.4265 78.4374L88.7189 79.2894C88.8658 79.735 88.9996 80.1806 89.1333 80.6261L89.1883 80.8092L89.3718 81.4194L89.4361 81.6345C89.4151 81.668 89.3792 81.6955 89.3433 81.723C89.3347 81.7295 89.3261 81.7361 89.3178 81.7427C89.3059 81.7521 89.2945 81.7617 89.2841 81.7716L88.6312 82.3073L87.9763 82.8429L87.2805 83.366L86.1598 84.2053C84.2965 85.6035 82.4118 86.9701 80.4842 88.2692C79.4025 88.9926 78.311 89.7433 77.2137 90.511C76.9389 90.7029 76.6641 90.8969 76.3893 91.0909L75.9155 91.4329C75.5987 91.6615 75.2811 91.8908 74.9626 92.1201C74.4519 92.4891 73.9413 92.8603 73.4306 93.2315L72.6685 93.784L72.2885 94.0603C72.2469 94.0891 72.2043 94.1207 72.1616 94.1524C72.0763 94.2156 71.9909 94.2789 71.9143 94.3197C71.5206 93.396 71.1269 92.4702 70.7331 91.5443L70.1991 90.3887L69.6086 89.2161C69.1642 88.3472 68.6964 87.4952 68.2033 86.6749C67.7102 85.8566 67.2054 85.0531 66.6675 84.3086C66.1295 83.56 65.5916 82.8514 64.9991 82.2039C64.2701 81.4068 63.1066 80.5252 61.982 79.8926C61.4411 79.5888 60.9115 79.3351 60.4571 79.1175C59.9652 78.8819 59.5614 78.6885 59.3274 78.5197C58.9941 78.3214 58.8284 78.1696 58.77 78.0409C58.7115 77.9102 58.7641 77.8005 58.8538 77.6951C60.5553 78.2392 62.1457 79.03 63.5782 80.0992C63.6947 80.1797 63.8048 80.2694 63.9151 80.3594C63.9783 80.4109 64.0419 80.4627 64.1064 80.5126C64.2818 80.6518 64.4553 80.791 64.621 80.947L65.1219 81.3983L65.8411 82.1196L66.0672 82.3727C66.122 82.4351 66.1777 82.4964 66.2333 82.5577L66.234 82.5585C66.3301 82.6643 66.4263 82.7703 66.5174 82.8809C66.5676 82.9426 66.618 83.0042 66.6684 83.0657C66.9076 83.3579 67.1473 83.6506 67.3711 83.9607C68.1994 85.1037 68.9556 86.3269 69.6436 87.5964L69.7484 87.7926C69.8839 88.0459 70.0199 88.3 70.1484 88.5581L70.2712 88.8006L70.4193 89.098L70.7643 89.7982C71.2043 90.7219 71.6286 91.742 72.0526 92.7616L72.2008 93.1176C72.207 93.1158 72.213 93.1148 72.2189 93.114L72.2304 93.1129C72.2486 93.1112 72.2669 93.1095 72.2885 93.0944L72.3898 93.0227L72.5945 92.8793L75.5102 90.821L75.9117 90.5405L76.1807 90.357L76.7206 89.9901L77.8004 89.2583C77.5422 89.4274 77.2841 89.5954 77.0252 89.7639L76.7167 89.9648L75.9039 90.5025L75.5102 90.7746C74.959 91.1597 74.4057 91.5448 73.8525 91.9299L73.8399 91.9387C73.7037 92.0345 73.5669 92.1304 73.4302 92.2262C73.2931 92.3223 73.156 92.4184 73.0194 92.5145L72.612 92.8013L72.308 93.0164C72.2868 93.0312 72.2688 93.0322 72.2509 93.0333C72.2408 93.0338 72.2308 93.0344 72.2203 93.0375L72.0866 92.7156C71.6697 91.711 71.2535 90.7079 70.815 89.7876L70.4759 89.098L70.3238 88.7943L70.2011 88.5539C70.0507 88.2539 69.8901 87.9594 69.7289 87.6635L69.6924 87.5964C68.9966 86.329 68.2247 85.1058 67.3711 83.9607C67.1575 83.6548 66.9287 83.3667 66.7001 83.0788L66.6993 83.0779C66.6446 83.009 66.5894 82.9394 66.5349 82.8704C66.4423 82.7537 66.3456 82.6442 66.2485 82.5342C66.1964 82.4753 66.1442 82.4161 66.0925 82.3558L65.8703 82.1006C65.8248 82.0514 65.778 82.003 65.731 81.9544L65.676 81.8974L65.6364 81.856L65.1667 81.3688L64.6755 80.9091L64.428 80.6813L64.1707 80.4683C64.1085 80.4176 64.0472 80.3658 63.9861 80.3141C63.877 80.2218 63.7678 80.1295 63.6542 80.0444C62.249 78.952 60.6878 78.1147 59.0116 77.5306C59.1929 77.3576 59.3781 77.1763 59.2202 76.9084C59.2202 76.9084 58.9493 76.8262 58.6121 76.725C58.2729 76.628 57.8617 76.5204 57.5869 76.4529C56.5344 75.9236 56.1875 75.5039 56.2615 75.1897C56.3356 74.8755 56.7936 74.6624 57.3998 74.5317C57.7077 74.4937 58.0566 74.4516 58.4542 74.4284L58.464 74.4389C58.6768 74.5114 58.892 74.59 59.1059 74.6682L59.1072 74.6687Z" fill="#EF8D2B"/>
<path fill-rule="evenodd" clip-rule="evenodd" d="M77.9438 77.5242C78.1364 77.3728 78.3244 77.2145 78.5132 77.0555C78.653 76.9377 78.7932 76.8197 78.9359 76.7039C78.8326 76.5478 78.7254 76.4192 78.587 76.396C78.4425 76.3392 78.3154 76.4937 78.1849 76.6522C78.0971 76.7588 78.0079 76.8673 77.9107 76.9148C77.509 77.0503 77.1666 77.2946 76.826 77.5375C76.5518 77.733 76.2789 77.9278 75.9773 78.0641C75.4998 78.2954 75.165 78.7077 74.83 79.1202L74.8176 79.1355C74.6301 79.4002 74.3794 79.6046 74.1356 79.8033C73.8143 80.0652 73.5049 80.3174 73.3675 80.6855C73.1745 81.2887 73.997 82.0141 74.6266 81.9635C74.6733 82.0246 74.7705 82.1466 74.8193 82.2079C74.4787 82.3728 74.7151 82.6376 74.9519 82.9026C75.0511 83.0137 75.1504 83.1249 75.2074 83.2289C75.4003 83.0517 75.642 82.9336 75.9812 82.9399C76.0299 82.8936 76.1254 82.805 76.1741 82.7607C76.5603 82.4038 76.9276 82.0406 77.2912 81.6809C77.9955 80.9843 78.6866 80.3008 79.4758 79.7028C78.6708 80.2405 77.9575 80.7973 77.2909 81.5164C77.2867 81.509 77.2824 81.501 77.2781 81.4928C77.2564 81.4518 77.2318 81.4053 77.1896 81.3983C77.451 80.8702 77.8823 80.5889 78.3148 80.3068C78.6821 80.0672 79.0502 79.8271 79.316 79.4349C79.3402 79.4654 79.376 79.5109 79.4119 79.5566L79.4127 79.5576L79.4633 79.6219L79.5089 79.6796C79.7857 79.4729 80.0741 79.2747 80.3801 79.0912C80.4893 78.9899 80.4912 78.7896 80.4542 78.5724C79.6284 78.7851 78.968 79.2982 78.3153 79.8053C78.0945 79.9768 77.8747 80.1476 77.6495 80.3059C77.7313 80.2302 77.8132 80.1483 77.8965 80.065C78.1568 79.8046 78.4313 79.5302 78.7605 79.3864C79.0063 79.2498 79.2173 79.088 79.4228 78.9302C79.7029 78.7152 79.9731 78.5079 80.308 78.3826C80.3359 78.3737 80.3652 78.3663 80.3935 78.3592L80.4034 78.3567C80.38 78.2578 80.3528 78.161 80.3275 78.0768C80.1813 77.6803 79.8909 77.2058 79.4563 77.0772C79.4404 77.0922 79.4186 77.1125 79.3967 77.1326C79.3544 77.1715 79.3121 77.21 79.3121 77.21C79.1976 77.1071 79.1063 76.9666 79.0189 76.8322L79.0178 76.8304C78.7567 76.9905 78.5016 77.1582 78.2468 77.3258C78.1459 77.3921 78.045 77.4584 77.9438 77.5242ZM76.5815 78.3214C77.0902 78.1422 77.5267 77.8511 77.9438 77.5242C77.5053 77.8111 77.0609 78.0894 76.5815 78.3214ZM77.3103 81.5443C77.3285 81.5643 77.3498 81.5683 77.3825 81.5375C77.3503 81.5678 77.3282 81.5633 77.3103 81.5443Z" fill="#EF8D2B"/>
<path d="M75.7474 72.4291C75.7312 72.4346 75.7151 72.4397 75.6991 72.4448C75.6784 72.4513 75.658 72.4578 75.6382 72.465C75.2742 72.6181 74.9736 72.8533 74.6623 73.0969C74.4335 73.2759 74.1988 73.4595 73.9289 73.6185C73.5708 73.7901 73.2646 74.0931 72.9729 74.3819C72.8773 74.4765 72.7832 74.5697 72.6893 74.6561C72.9383 74.4755 73.1822 74.2823 73.4269 74.0886C74.1535 73.5133 74.8878 72.9318 75.7844 72.6526C75.8117 72.8783 75.798 73.0892 75.6772 73.201C75.34 73.414 75.0204 73.6396 74.7124 73.8758C74.6883 73.8455 74.6527 73.8002 74.617 73.7548L74.6158 73.7533L74.5536 73.6743L74.5195 73.6312C74.2136 74.0599 73.8068 74.3358 73.4011 74.611C72.9226 74.9355 72.4457 75.259 72.1377 75.8308C72.1836 75.8361 72.2075 75.8832 72.229 75.9256C72.233 75.9336 72.237 75.9415 72.241 75.9489C72.9934 75.1517 73.7866 74.5211 74.6773 73.9032C73.8038 74.5796 73.0296 75.3397 72.2407 76.1142C71.8292 76.5182 71.4137 76.9261 70.9781 77.3281L70.7617 77.5285C70.3992 77.5453 70.1341 77.6824 69.9178 77.8828C69.8624 77.7783 69.7631 77.669 69.6638 77.5596C69.4243 77.2957 69.1844 77.0314 69.5592 76.8346C69.5103 76.7734 69.4129 76.651 69.3662 76.59C68.6918 76.6828 67.8499 75.9742 68.0896 75.3289C68.257 74.9329 68.6017 74.6476 68.9597 74.3513C69.2309 74.1267 69.5097 73.8959 69.7248 73.6059C70.1088 73.144 70.4947 72.6822 71.0248 72.4059C71.3552 72.2432 71.6576 72.0213 71.9613 71.7985C72.3386 71.5217 72.7178 71.2434 73.1551 71.0752C73.2617 71.0192 73.3633 70.8994 73.4631 70.7817C73.6115 70.6068 73.756 70.4364 73.9075 70.4868C74.0556 70.5037 74.1608 70.6302 74.2641 70.7884C74.1132 70.9132 73.9642 71.0401 73.8156 71.1667C73.5976 71.3524 73.3804 71.5374 73.159 71.7142C72.6737 72.0432 72.1845 72.3637 71.6563 72.64C72.2099 72.4207 72.6932 72.0853 73.159 71.7142L73.2734 71.6363L73.4021 71.5483C73.7145 71.3349 74.0272 71.1213 74.346 70.917C74.4318 71.0541 74.5234 71.1954 74.6403 71.2966C74.6403 71.2966 74.7494 71.1975 74.8021 71.1469C75.2601 71.2544 75.5447 71.7332 75.6791 72.1402L75.6904 72.1866C75.7091 72.2628 75.7293 72.3452 75.7454 72.4291H75.7474Z" fill="#EF8D2B"/>
<path d="M69.2858 68.0181L69.2888 68.0172L69.2869 68.0236L69.2858 68.0181Z" fill="#EF8D2B"/>
<path fill-rule="evenodd" clip-rule="evenodd" d="M65.7884 71.5349L65.7823 71.5235L65.7763 71.5117C65.7548 71.4692 65.7309 71.4221 65.6851 71.4168C65.9929 70.8464 66.469 70.5235 66.9465 70.1996C67.3517 69.9248 67.7578 69.6493 68.0629 69.2214C68.0872 69.252 68.1233 69.2979 68.1594 69.3438L68.2158 69.4155L68.2558 69.4661C68.5618 69.2299 68.8815 69.0042 69.2187 68.7912C69.3395 68.6794 69.3531 68.4686 69.3259 68.2429C68.4311 68.5204 67.6976 69.1009 66.9722 69.675C66.7275 69.8687 66.4835 70.0618 66.2347 70.2422C66.3271 70.1566 66.4198 70.0644 66.5142 69.9705C66.8059 69.6805 67.1131 69.375 67.4723 69.2046C67.7422 69.0456 67.9764 68.8625 68.2047 68.684C68.5156 68.4409 68.8156 68.2063 69.1797 68.0531C69.2138 68.0408 69.2498 68.0285 69.2858 68.0181C69.2704 67.9372 69.2514 67.8603 69.2337 67.7882L69.2206 67.7347C69.0861 67.3276 68.8016 66.8489 68.3435 66.7414L68.1818 66.8911C68.0648 66.7877 67.9732 66.6465 67.8875 66.5094C67.5997 66.6938 67.318 66.8858 67.0365 67.0776L67.0355 67.0782L67.0346 67.0788C66.924 67.1542 66.8134 67.2296 66.7025 67.3044C66.9099 67.1379 67.1142 66.9641 67.3192 66.7897C67.4802 66.6527 67.6419 66.5152 67.8056 66.3807C67.7023 66.2226 67.5971 66.096 67.4489 66.0791C67.2976 66.0288 67.1539 66.1989 67.0062 66.3737C66.9066 66.4915 66.8053 66.6115 66.6986 66.6675C66.2612 66.8358 65.8825 67.1135 65.5057 67.3897C65.2025 67.6121 64.9005 67.8335 64.5702 67.9962C64.042 68.2724 63.6581 68.7322 63.2741 69.194C63.0593 69.4827 62.781 69.7127 62.5104 69.9365C62.1522 70.2326 61.8073 70.5176 61.6408 70.9128C61.403 71.556 62.2431 72.2667 62.9174 72.1739C62.9642 72.2351 63.0617 72.3574 63.1104 72.4186C62.7355 72.6139 62.9756 72.8789 63.2152 73.1433C63.3144 73.2528 63.4136 73.3623 63.469 73.4667C63.6853 73.2663 63.9504 73.1272 64.311 73.1124L64.5273 72.9121C64.9621 72.511 65.3767 72.104 65.7874 71.7009C66.5749 70.9278 67.3485 70.1684 68.2208 69.4935C67.332 70.1093 66.5387 70.7378 65.7884 71.5349ZM65.7884 71.5349C65.8015 71.5594 65.816 71.5776 65.8369 71.5775C65.8167 71.5773 65.8025 71.5592 65.7884 71.5349ZM65.2036 68.2281C65.7572 68.0088 66.2386 67.6756 66.7025 67.3044C66.2191 67.6334 65.7279 67.954 65.2036 68.2281Z" fill="#EF8D2B"/>
<path d="M51.7413 115.337C51.7608 115.327 51.7823 115.306 51.8017 115.278C51.8204 115.261 51.8367 115.235 51.8534 115.208L51.8661 115.187C51.9791 114.993 52.0668 114.662 52.1194 114.31C52.1701 113.95 52.1877 113.555 52.1779 113.146C52.1682 112.737 52.1331 112.317 52.0766 111.898C52.0493 111.689 52.0161 111.48 51.9772 111.278C51.9421 111.083 51.8895 110.864 51.8661 110.782C51.4841 109.605 51.0416 108.43 50.5193 107.249C50.3068 106.726 50.0457 106.208 49.7436 105.704C49.6676 105.577 49.5915 105.451 49.5116 105.326L49.3908 105.138L49.2738 104.968C49.1179 104.744 48.9562 104.542 48.7885 104.362C48.6209 104.185 48.4514 104.033 48.2798 103.915C48.1941 103.856 48.1103 103.803 48.0245 103.761C47.9894 103.742 47.9193 103.709 47.8647 103.683L47.6932 103.607C47.4651 103.51 47.241 103.432 47.0266 103.375C46.9194 103.346 46.8142 103.325 46.7167 103.308L46.71 103.307C46.6403 103.297 46.5722 103.287 46.5023 103.285C46.6816 103.308 47.0461 103.403 47.3716 103.542C47.5373 103.612 47.7049 103.692 47.8725 103.78C47.968 103.831 48.0109 103.856 48.0752 103.9C48.1356 103.938 48.1941 103.983 48.2545 104.031C48.4923 104.221 48.732 104.476 48.962 104.784C49.0789 104.938 49.19 105.1 49.305 105.282C49.4259 105.47 49.5448 105.657 49.6598 105.849C50.1178 106.615 50.5232 107.412 50.874 108.243C51.2229 109.072 51.5211 109.94 51.7745 110.816L51.8115 111.016C51.8271 111.105 51.8427 111.202 51.8563 111.301C51.8856 111.501 51.9089 111.71 51.9265 111.917C51.9635 112.334 51.9752 112.754 51.9635 113.157C51.9518 113.559 51.9109 113.945 51.8427 114.285C51.7725 114.618 51.6692 114.92 51.5562 115.067C51.3808 114.776 51.2424 114.382 51.2385 113.817C51.2697 113.37 51.2541 112.87 51.2112 112.372C51.1898 112.123 51.1586 111.874 51.1235 111.636C51.1059 111.52 51.0865 111.402 51.067 111.303C51.0639 111.286 51.0606 111.269 51.0573 111.252C51.0535 111.233 51.0497 111.214 51.0462 111.197C51.0353 111.144 51.0277 111.107 51.0338 111.117C50.8623 110.563 50.6713 110.01 50.4686 109.485C50.5661 109.436 50.7551 109.344 50.8506 109.297C50.3205 108.236 49.8001 107.239 49.2271 106.275C49.0848 106.037 48.9347 105.792 48.7905 105.567C48.658 105.356 48.5254 105.166 48.3968 104.999C48.2681 104.833 48.1415 104.689 48.0226 104.577C47.9698 104.526 47.9185 104.484 47.8687 104.443L47.8472 104.426C47.8413 104.421 47.8354 104.417 47.8297 104.413L47.82 104.405C47.8006 104.391 47.7814 104.376 47.7614 104.364C47.7544 104.36 47.7496 104.357 47.7446 104.353C47.737 104.348 47.7291 104.342 47.7127 104.333L47.6386 104.291C47.4437 104.179 47.2468 104.084 47.0578 104.008C46.9642 103.972 46.8707 103.936 46.781 103.911C46.755 103.902 46.7296 103.896 46.7045 103.89C46.6864 103.885 46.6684 103.881 46.6504 103.875C46.6244 103.869 46.6101 103.865 46.5949 103.861L46.5783 103.856C46.4068 103.814 46.2061 103.822 46.0501 103.934C45.8923 104.046 45.8026 104.236 45.7773 104.438C45.7734 104.47 45.7695 104.502 45.7636 104.533L45.7363 104.712C45.7208 104.835 45.7091 104.953 45.7032 105.069C45.6915 105.301 45.7032 105.516 45.7363 105.714C45.7816 105.623 45.8456 105.651 45.9044 105.676C45.9189 105.683 45.9333 105.689 45.9468 105.693C45.941 105.51 45.9507 105.313 45.978 105.103C45.9917 104.997 46.0092 104.887 46.0306 104.776C46.0404 104.725 46.056 104.649 46.0638 104.618C46.0716 104.596 46.0755 104.573 46.0794 104.552C46.1047 104.436 46.1554 104.335 46.2431 104.27C46.3289 104.204 46.4399 104.192 46.5393 104.208L46.6816 104.238L46.7128 104.246C46.7814 104.265 46.8531 104.284 46.9292 104.31C47.1026 104.367 47.2878 104.447 47.4729 104.54L47.6113 104.613C47.6217 104.621 47.6321 104.627 47.6425 104.632C47.6555 104.64 47.6685 104.647 47.6815 104.658C47.7241 104.683 47.7683 104.719 47.8139 104.756L47.8335 104.771C47.9407 104.862 48.0557 104.978 48.1785 105.124C48.2993 105.267 48.426 105.442 48.5547 105.634L48.7612 105.961C48.8148 106.043 48.8653 106.128 48.9156 106.212C48.9349 106.244 48.9542 106.277 48.9737 106.309C49.5292 107.245 49.993 108.241 50.3984 109.312C50.073 108.485 49.7026 107.705 49.2816 106.961C49.0711 106.587 48.849 106.225 48.6112 105.87C48.3929 105.537 48.1941 105.284 48.005 105.088C47.9115 104.993 47.8238 104.915 47.7439 104.856C47.7049 104.826 47.6659 104.799 47.6308 104.778C47.6133 104.765 47.5958 104.757 47.5783 104.748L47.5509 104.734L47.4944 104.706C47.204 104.563 46.9136 104.455 46.6758 104.402C46.5503 104.376 46.5403 104.376 46.5209 104.376C46.5169 104.375 46.5123 104.375 46.5062 104.375C46.4789 104.375 46.4536 104.377 46.4283 104.383C46.3776 104.396 46.3308 104.428 46.2996 104.472C46.284 104.493 46.2723 104.518 46.2626 104.544C46.2613 104.548 46.2598 104.552 46.2582 104.556C46.2552 104.565 46.2522 104.573 46.2509 104.582L46.245 104.603C46.245 104.618 46.2411 104.632 46.2372 104.645L46.2347 104.653C46.2313 104.662 46.2269 104.674 46.2178 104.719L46.1905 104.847L46.1871 104.866C46.1727 104.944 46.1586 105.02 46.1495 105.092C46.1262 105.25 46.1125 105.4 46.1067 105.539C46.1028 105.678 46.1067 105.809 46.1184 105.936L46.1515 106.244C46.1632 106.355 46.1749 106.467 46.1905 106.577C46.2431 107.022 46.3133 107.456 46.3893 107.886C46.7089 109.601 47.2391 111.189 48.0771 112.57C48.124 112.655 48.1963 112.766 48.274 112.884C48.306 112.933 48.339 112.984 48.3714 113.034C48.4725 113.19 48.5855 113.347 48.6617 113.453L48.6911 113.494C48.8002 113.796 48.9055 114.042 49.0517 114.276C49.1257 114.394 49.2095 114.51 49.3089 114.631C49.4044 114.747 49.5292 114.877 49.6305 114.981C49.6348 114.987 49.6384 114.993 49.6419 114.998C49.656 115.021 49.6674 115.039 49.7065 115.069C49.7494 115.105 49.8079 115.141 49.8664 115.173C49.9852 115.234 50.1178 115.28 50.225 115.293C50.1763 115.43 50.1529 115.607 50.149 115.793C50.1473 115.844 50.1471 115.897 50.1468 115.949C50.1461 116.083 50.1455 116.215 50.1217 116.33C50.0905 116.491 50.0086 116.628 49.7923 116.659C49.6851 116.676 49.5448 116.664 49.3713 116.605C49.2017 116.546 48.9893 116.436 48.8061 116.261C48.7457 116.354 48.6229 116.541 48.5605 116.634C48.9873 117.123 49.4746 117.495 49.8956 117.8C50.047 117.911 50.1954 118.01 50.3334 118.102C50.5809 118.267 50.7948 118.409 50.9325 118.56C51.0124 118.68 51.0514 118.806 51.0455 118.935L51.0441 118.951C51.0391 119.011 51.0341 119.069 50.9948 119.131C50.9461 119.199 50.876 119.268 50.7805 119.336C50.4082 119.599 49.6325 119.808 48.6209 119.568C48.3617 119.502 48.1064 119.418 47.8413 119.3C47.586 119.188 47.2761 119.017 46.9974 118.811C46.9116 118.747 46.8239 118.684 46.7362 118.621C46.6524 118.56 46.5647 118.49 46.4789 118.42C46.3035 118.279 46.1223 118.123 45.941 117.95C45.5765 117.604 45.2237 117.195 44.9314 116.805C44.374 116.065 43.8477 115.2 43.415 114.295C42.9785 113.389 42.6198 112.431 42.3255 111.474C42.0293 110.514 41.8051 109.552 41.6024 108.618C41.5245 108.234 41.4582 107.851 41.3978 107.467C41.3685 107.275 41.3393 107.083 41.3159 106.893L41.2789 106.608L41.2614 106.459L41.2419 106.258C41.197 105.725 41.2068 105.197 41.2536 104.7C41.2769 104.451 41.3101 104.208 41.3491 103.972C41.3685 103.854 41.39 103.738 41.4134 103.626L41.466 103.373L41.4933 103.259C41.5342 103.103 41.5751 102.947 41.6219 102.791C41.6765 102.627 41.733 102.464 41.7954 102.304C41.8597 102.146 41.9318 101.99 42.0039 101.836C42.0799 101.684 42.1638 101.536 42.2495 101.391C42.6003 100.815 43.0564 100.324 43.5846 99.9484C44.1128 99.5751 44.717 99.3368 45.3368 99.225C45.9585 99.1175 46.6037 99.1407 47.2215 99.2693C47.295 99.2833 47.3498 99.2972 47.4021 99.3106C47.4289 99.3174 47.455 99.3241 47.4827 99.3305C47.5626 99.3516 47.6406 99.3727 47.7166 99.3959C47.8705 99.4422 48.0187 99.4929 48.1629 99.5456C48.4514 99.6531 48.7242 99.7712 48.9873 99.8999C49.1179 99.9653 49.2485 100.031 49.3732 100.1L49.5682 100.21L49.6174 100.238C49.6812 100.275 49.746 100.313 49.8079 100.351C50.1197 100.547 50.4043 100.767 50.6616 100.997C51.1761 101.458 51.5796 101.954 51.9226 102.435C52.0083 102.555 52.0902 102.675 52.1682 102.795L52.3806 103.131C52.519 103.35 52.6535 103.574 52.7841 103.799C53.3103 104.7 53.7722 105.645 54.1581 106.598C54.546 107.553 54.8481 108.508 55.0898 109.46C55.1761 109.769 55.2077 109.974 55.2402 110.185L55.2418 110.196C55.2737 110.383 55.3093 110.58 55.3464 110.786C55.4727 111.484 55.6156 112.275 55.6803 113.064C55.7232 113.57 55.731 114.07 55.692 114.504C55.653 114.939 55.5634 115.308 55.4464 115.523C55.3802 115.681 55.312 115.801 55.2476 115.881C55.1794 115.966 55.1151 116.014 55.0547 116.037C54.9319 116.084 54.8228 116.027 54.7156 115.942C54.8695 115.373 54.93 114.831 54.9572 114.306C54.9845 113.779 54.9709 113.27 54.9358 112.769C54.9007 112.267 54.8422 111.775 54.7662 111.284C54.7273 111.039 54.6824 110.795 54.6298 110.546L54.6286 110.54C54.5745 110.289 54.5238 110.054 54.4193 109.734C54.2712 109.291 54.1211 108.867 53.9613 108.439C53.4896 107.081 52.9127 105.735 52.2149 104.451C52.0395 104.13 51.8602 103.812 51.6731 103.5C51.488 103.183 51.2638 102.842 51.0163 102.513C50.7649 102.182 50.4803 101.853 50.1431 101.547C49.9755 101.393 49.7923 101.247 49.5993 101.11C49.5019 101.043 49.4025 100.975 49.2972 100.914L49.0302 100.756L49.2875 100.916C49.3888 100.98 49.4863 101.045 49.5798 101.115C49.767 101.254 49.9463 101.399 50.108 101.551C50.4355 101.857 50.7142 102.184 50.9598 102.513C51.2034 102.84 51.4217 103.179 51.6088 103.498C51.794 103.81 51.9752 104.124 52.1487 104.445C52.8503 105.723 53.4526 107.07 53.9613 108.439C54.1133 108.873 54.2536 109.306 54.3881 109.746C54.4856 110.065 54.5304 110.301 54.5772 110.554C54.622 110.801 54.659 111.046 54.6922 111.288C54.7545 111.773 54.7994 112.258 54.8189 112.752C54.8539 113.734 54.8286 114.74 54.5401 115.801C54.3569 115.643 54.1542 115.51 53.9184 115.599C53.9184 115.599 53.8794 115.778 53.8054 115.999C53.7293 116.219 53.6202 116.482 53.513 116.643C53.2031 116.896 52.9146 116.927 52.7314 116.877C52.5365 116.811 52.4332 116.681 52.3592 116.531C52.3113 116.433 52.2749 116.326 52.2393 116.221C52.2198 116.164 52.2006 116.108 52.1799 116.054C52.1214 115.898 52.0473 115.757 51.9655 115.645C51.9254 115.582 51.8785 115.522 51.8286 115.459C51.7984 115.42 51.767 115.38 51.7355 115.337H51.7413Z" fill="#EF8D2B"/>
<path fill-rule="evenodd" clip-rule="evenodd" d="M39.1541 95.2076C39.1638 95.3257 39.1736 95.4438 39.1775 95.564H39.1619C39.2572 95.6367 39.3526 95.7045 39.4431 95.7688C39.4969 95.8071 39.549 95.8441 39.5985 95.8803C39.9083 96.0574 40.2611 96.1798 40.5769 96.1123C40.8907 96.0448 41.1772 95.7812 41.3136 95.1654C41.2844 95.0283 41.2356 94.8237 41.1889 94.655C41.146 94.4863 41.107 94.3513 41.107 94.3513C41.2785 94.1763 41.5144 94.1615 41.7424 94.1615C41.5397 93.2294 41.2415 92.3036 40.8575 91.4284C40.6685 90.9897 40.458 90.5637 40.2397 90.1546C40.1305 89.9479 40.0194 89.7454 39.9064 89.5472L39.7388 89.2498L39.655 89.1022L39.6121 89.0284L39.5497 88.9314C39.3334 88.613 39.1443 88.3873 38.9475 88.1532C38.7526 87.9233 38.5557 87.7082 38.3569 87.4973C38.1581 87.2843 37.9554 87.0777 37.743 86.8731C37.5286 86.6685 37.3122 86.4661 37.0491 86.2552C37.0212 86.2348 36.9942 86.2141 36.967 86.1932C36.9237 86.1601 36.8798 86.1264 36.8308 86.0928C36.8124 86.0806 36.7934 86.068 36.7742 86.0552C36.7103 86.0127 36.6441 85.9687 36.5872 85.9346C36.4566 85.8545 36.3221 85.7743 36.1837 85.6984C35.8992 85.5445 35.6478 85.4137 35.2501 85.2703C34.4998 85.0004 33.6831 84.876 32.8938 85.0278C33.6968 84.8528 34.5329 84.9645 35.2969 85.2366C35.3944 85.2703 35.484 85.3062 35.5737 85.342C35.6554 85.3752 35.7133 85.4019 35.7786 85.432C35.7881 85.4364 35.7977 85.4408 35.8076 85.4454C35.9557 85.5128 36.098 85.5867 36.2383 85.6626C36.3786 85.7406 36.5092 85.8165 36.6496 85.903C36.7334 85.9557 36.8191 86.0127 36.899 86.0675C36.9254 86.0878 36.9519 86.1078 36.9779 86.1276C37.0249 86.1633 37.0708 86.1981 37.1134 86.232C37.3746 86.445 37.589 86.6474 37.7995 86.8562C38.008 87.0629 38.2068 87.2717 38.4017 87.4868C38.5947 87.7019 38.7857 87.9191 38.9728 88.1511C39.1638 88.3873 39.3451 88.6151 39.5517 88.9335L39.616 89.0305L39.7505 89.2456L39.9278 89.5367C40.0467 89.7307 40.1637 89.931 40.2806 90.1335C40.5145 90.5384 40.7425 90.9602 40.9511 91.3988C41.1596 91.8354 41.3526 92.2867 41.5222 92.7485C41.6898 93.2104 41.834 93.6807 41.9587 94.1552C42.218 94.1383 42.4362 94.0561 42.4557 93.5752C42.5201 93.2231 42.2998 92.5355 41.9607 91.8248C41.7747 91.4271 41.554 91.0293 41.35 90.6618C41.1863 90.3668 41.0334 90.0913 40.918 89.8509C40.7542 89.465 40.5749 89.0959 40.3898 88.7374L40.3196 88.6045C40.3137 88.5937 40.3085 88.5839 40.3032 88.574C40.2859 88.5416 40.2688 88.5095 40.2299 88.4464L40.1013 88.2418L39.9844 88.071C39.8343 87.858 39.692 87.6682 39.5497 87.4931C39.2652 87.1388 38.9787 86.8183 38.6707 86.5019C38.3589 86.1835 38.047 85.8819 37.6338 85.555C37.5344 85.4749 37.4077 85.3842 37.2791 85.2956C37.1388 85.2049 36.9634 85.1016 36.8756 85.0531C36.6613 84.9329 36.4371 84.819 36.2032 84.7136C36.0843 84.6608 35.9693 84.6123 35.8388 84.5617L35.6088 84.4795L35.3632 84.4014C35.0338 84.3023 34.6966 84.2306 34.3594 84.1927C33.6851 84.1125 33.0049 84.1716 32.3695 84.3867C31.7341 84.5997 31.1474 84.9709 30.6641 85.4601C30.3113 85.8144 30.0131 86.2404 29.7753 86.7107C29.5395 87.1852 29.3621 87.6998 29.2354 88.2334L29.1614 88.5645C29.1399 88.6615 29.1224 88.7585 29.1048 88.8576C29.0717 89.0558 29.0425 89.2604 29.023 89.4692C28.982 89.8889 28.9742 90.3296 29.0054 90.7725L29.0483 91.2449C29.0574 91.3461 29.07 91.4492 29.0825 91.5523C29.0888 91.6039 29.0951 91.6554 29.1009 91.7067C29.138 92.0146 29.1867 92.3247 29.2393 92.6347C29.3446 93.2547 29.4849 93.8789 29.6545 94.5011C30.0716 95.9351 30.5803 97.4493 31.3014 98.8328C31.3664 98.9541 31.4325 99.0753 31.4981 99.1959C31.5249 99.2451 31.5516 99.2942 31.5782 99.3431C31.6428 99.4514 31.7074 99.5588 31.7714 99.6653C31.8059 99.7227 31.8403 99.7798 31.8744 99.8366C32.0654 100.145 32.274 100.455 32.5195 100.777C32.7651 101.1 33.0497 101.418 33.3303 101.686C33.4687 101.819 33.6091 101.946 33.7416 102.055C33.7747 102.082 33.8079 102.108 33.841 102.135C33.8741 102.162 33.9073 102.189 33.9404 102.215C33.9755 102.243 34.0106 102.27 34.0456 102.297C34.0807 102.324 34.1158 102.35 34.1509 102.378C34.3049 102.494 34.4608 102.601 34.6226 102.694C34.7005 102.741 34.7882 102.787 34.8681 102.827C34.934 102.861 34.997 102.889 35.0608 102.917C35.0725 102.922 35.0843 102.927 35.0962 102.933C35.3963 103.061 35.6887 103.148 35.9849 103.207C36.8367 103.363 37.5091 103.154 37.7878 102.903C37.8619 102.84 37.9164 102.774 37.9535 102.709C37.983 102.651 37.9878 102.594 37.9926 102.536C37.9932 102.529 37.9938 102.522 37.9944 102.515C37.9983 102.386 37.9691 102.256 37.9067 102.129C37.7755 101.93 37.5443 101.737 37.2822 101.519C37.2171 101.465 37.1501 101.409 37.0822 101.351C36.7431 101.06 36.3747 100.729 36.02 100.345C36.0726 100.246 36.1798 100.045 36.2344 99.9442C36.3962 100.075 36.5619 100.157 36.6963 100.195C36.8328 100.233 36.9419 100.235 37.0257 100.21C37.1933 100.159 37.2577 100.022 37.2849 99.8577C37.304 99.7427 37.3079 99.6143 37.3118 99.4833C37.3134 99.4269 37.3151 99.3701 37.3181 99.3136C37.3259 99.128 37.3493 98.9467 37.3863 98.8075C37.3064 98.7948 37.1972 98.7611 37.0978 98.6957C37.0491 98.6641 37.0023 98.6261 36.9731 98.5924C36.9715 98.5895 36.9699 98.5865 36.9682 98.5834C36.9551 98.5594 36.9389 98.5295 36.9302 98.4996C36.9302 98.4935 36.912 98.4716 36.8949 98.4511L36.8932 98.449L36.8425 98.3857C36.8321 98.3716 36.8215 98.3576 36.8109 98.3436C36.7897 98.3154 36.7685 98.2873 36.749 98.2592C36.6905 98.1748 36.6379 98.0904 36.593 98.0082C36.5014 97.8416 36.443 97.6813 36.4001 97.5042C36.3475 97.4388 36.2675 97.3354 36.1798 97.2131C36.0941 97.0908 36.0005 96.9537 35.9382 96.8567C35.256 95.8128 34.7707 94.655 34.4491 93.3791C34.2893 92.7401 34.1704 92.0779 34.0827 91.3925C34.0681 91.2765 34.0553 91.1595 34.0425 91.0422C34.0365 90.9868 34.0305 90.9313 34.0242 90.8758L33.9794 90.3844C33.9638 90.2073 33.9716 90.0112 34.0028 89.7834C34.0076 89.756 34.0125 89.7265 34.0174 89.697C34.0223 89.6674 34.0271 89.6379 34.032 89.6105L34.0437 89.543C34.0456 89.5219 34.0515 89.4987 34.0573 89.4776C34.071 89.4333 34.0905 89.3912 34.1217 89.3595C34.1821 89.292 34.2795 89.2815 34.3594 89.3047C34.3765 89.3089 34.3847 89.3122 34.4002 89.3185C34.4077 89.3215 34.4169 89.3252 34.4296 89.33L34.4881 89.3511L34.5641 89.3806C34.6148 89.4017 34.6674 89.4249 34.72 89.4502C34.7558 89.4674 34.7916 89.4856 34.8281 89.5041C34.8452 89.5128 34.8624 89.5216 34.8798 89.5303L34.9597 89.5746C34.9675 89.5788 34.9675 89.5831 34.9734 89.5852C34.9929 89.5978 35.0845 89.6653 35.1839 89.7497C35.5893 90.0892 36.0999 90.6038 36.4527 91.0467C36.2344 90.7556 35.946 90.4308 35.6711 90.1461C35.5328 90.0006 35.3924 89.8678 35.2638 89.7476C35.1943 89.6829 35.1241 89.6235 35.074 89.581C35.0341 89.5473 35.0069 89.5242 35.0026 89.5177C35.0015 89.5165 35.0008 89.5154 35.0002 89.5144C34.9987 89.5119 34.9973 89.5095 34.989 89.505L34.9364 89.4734L34.835 89.4143C34.7687 89.3764 34.7025 89.3405 34.6362 89.3089L34.4608 89.2288C34.4378 89.2179 34.4286 89.2127 34.4176 89.2066C34.4136 89.2044 34.4094 89.202 34.4043 89.1992C34.338 89.1676 34.26 89.1444 34.1821 89.1528C34.1041 89.1613 34.0281 89.2035 33.9774 89.2709C33.9268 89.3363 33.8975 89.4228 33.88 89.5092L33.8644 89.5873L33.8449 89.7033C33.8332 89.7813 33.8235 89.8551 33.8176 89.9268C33.804 90.0723 33.802 90.2052 33.8098 90.3317L33.8176 90.4266L33.8332 90.5953L33.8683 90.9349C33.8956 91.1605 33.9229 91.3862 33.9579 91.6076C33.945 91.6046 33.9313 91.6 33.9174 91.5953C33.8533 91.5739 33.783 91.5503 33.7494 91.6646C33.687 91.441 33.6344 91.2111 33.5896 90.9813C33.5723 90.897 33.5581 90.8104 33.5441 90.724C33.5391 90.6937 33.5342 90.6634 33.5291 90.6333L33.4863 90.3486C33.4668 90.2031 33.4629 90.047 33.4746 89.8825C33.4804 89.8003 33.4882 89.7159 33.5019 89.6295L33.5233 89.4987L33.5408 89.408C33.574 89.2541 33.6344 89.1086 33.7338 89.001C33.8312 88.8934 33.9696 88.8386 34.1041 88.8428C34.2386 88.8449 34.3633 88.8934 34.4666 88.9504C34.492 88.9673 34.5095 88.9778 34.568 89.0052C34.6362 89.0368 34.7064 89.0706 34.7765 89.1064C34.7905 89.114 34.8045 89.1216 34.8186 89.1291C34.8754 89.1597 34.9332 89.1908 34.9909 89.2245L35.0962 89.2857C35.1028 89.2898 35.1081 89.2944 35.1131 89.2988C35.1183 89.3034 35.1233 89.3078 35.1293 89.311C35.1897 89.3553 35.3437 89.4776 35.4821 89.5957C35.6263 89.718 35.7822 89.8551 35.9362 89.9943C36.2461 90.2706 36.5716 90.5721 36.8406 90.8252C36.7626 90.9032 36.6067 91.0572 36.5268 91.1352C36.6028 91.2322 36.6476 91.306 36.6515 91.3229L36.9049 91.7552C37.0705 92.0421 37.2187 92.3204 37.3571 92.5967C37.6319 93.1492 37.8463 93.687 38.01 94.2459C38.1854 94.6909 38.4953 95.0156 38.8364 95.3003C38.776 94.3555 38.5635 93.4339 38.1815 92.5123C37.9905 92.0505 37.7586 91.5865 37.4974 91.1141L37.3103 90.7809L37.2888 90.7409C37.2836 90.7296 37.275 90.7165 37.2663 90.7034C37.262 90.6968 37.2577 90.6903 37.2538 90.6839C37.2304 90.646 37.2011 90.6038 37.168 90.5595C37.0413 90.3823 36.8834 90.1904 36.7197 90.0027C36.3923 89.6316 36.022 89.2562 35.6809 88.9651C35.5971 88.8934 35.5152 88.8281 35.4528 88.7817C35.4339 88.766 35.4195 88.7565 35.4054 88.7474C35.3949 88.7405 35.3846 88.7338 35.3729 88.7247L35.3125 88.6889L35.2424 88.6488C35.1468 88.5961 35.0513 88.5476 34.9578 88.5033L34.8175 88.44L34.6927 88.3894C34.453 88.2903 34.2055 88.2291 33.9443 88.2587C33.6851 88.2861 33.4414 88.44 33.2816 88.6657C33.4005 88.4611 33.5837 88.284 33.8118 88.2038C34.0378 88.1216 34.2912 88.13 34.529 88.1848C34.7103 88.2186 35.1546 88.4021 35.4451 88.5898C35.5347 88.653 35.6828 88.7753 35.8271 88.9166C35.9732 89.0579 36.1175 89.2098 36.252 89.3743C36.4527 89.5957 36.6515 89.8214 36.8367 90.0428C37.0199 90.2621 37.2011 90.4899 37.3181 90.6649L37.5052 90.9749C37.5272 91.0119 37.5492 91.0487 37.5712 91.0853C37.627 91.1786 37.6826 91.2713 37.7371 91.3651C37.8852 91.6224 38.0295 91.8755 38.1581 92.1264C38.6844 93.126 39.0332 94.1215 39.1541 95.2076ZM33.9618 91.6329C33.9618 91.6245 33.9599 91.6161 33.9579 91.6076C33.9579 91.6161 33.9599 91.6245 33.9618 91.6329Z" fill="#EF8D2B"/>
</svg>
