<svg width="63" height="59" viewBox="0 0 63 59" fill="none" xmlns="http://www.w3.org/2000/svg">
<path fill-rule="evenodd" clip-rule="evenodd" d="M43.5893 0.192158C43.5494 0.172119 43.5096 0.152115 43.4703 0.132049L43.4712 0.137161C42.5641 -0.00513475 41.6715 -0.0315477 40.8643 0.051956L40.8353 0.0563849C40.7959 0.0623892 40.7573 0.0682753 40.7181 0.0758131C40.6908 0.0814665 40.6634 0.0873793 40.6362 0.0932616L40.5704 0.107338C40.473 0.129494 40.379 0.1525 40.2877 0.176357L40.2252 0.193535C40.1564 0.212284 40.0895 0.230488 40.0212 0.254749C39.9332 0.285423 39.8486 0.317802 39.7674 0.350181C39.4437 0.472877 39.1661 0.640735 38.9535 0.800926C38.8467 0.878464 38.7552 0.969635 38.6802 1.05484C38.605 1.1409 38.5452 1.22526 38.5007 1.30706C38.4127 1.47151 38.3862 1.62573 38.4195 1.76888C38.4529 1.91203 38.5452 2.0441 38.6913 2.16509C38.8381 2.28779 39.0362 2.38834 39.2849 2.51615C39.3473 2.54682 39.4121 2.57664 39.4796 2.60561C39.5171 2.62121 39.5553 2.64048 39.5945 2.66022C39.6258 2.67607 39.658 2.69221 39.6907 2.70701C39.764 2.74195 39.8401 2.77688 39.9187 2.81096C39.9557 2.82881 39.9934 2.8482 40.0319 2.86794C40.0742 2.88967 40.1174 2.91183 40.1612 2.93281C40.2649 2.97974 40.3718 3.03743 40.4825 3.09721C40.5507 3.13404 40.6204 3.17165 40.6916 3.20803C40.7494 3.24251 40.8082 3.27666 40.8682 3.3114C41.0006 3.38828 41.1382 3.46807 41.2794 3.56079C41.3181 3.57367 41.3589 3.58534 41.4005 3.59884C41.4194 3.60499 41.4386 3.61153 41.4579 3.61873L41.5483 3.65289C41.5823 3.66562 41.6168 3.67858 41.6518 3.692C41.7768 3.73623 41.9064 3.7929 42.0397 3.85116L42.0712 3.86497C42.359 3.99108 42.6555 4.14445 42.9228 4.28931C43.056 4.36514 43.1816 4.43671 43.2961 4.50233C43.4097 4.57134 43.5113 4.63269 43.5968 4.68467C43.6822 4.73579 43.7505 4.7801 43.7975 4.80993C43.8453 4.83974 43.871 4.85679 43.871 4.85679C43.9874 5.3836 43.5764 5.60953 43.1809 5.82682L43.1663 5.83496C43.469 6.04017 43.7734 6.26224 44.0848 6.48949L44.1127 6.50981L45.0898 7.22981C45.7382 7.71038 46.3779 8.19265 47.005 8.68174C47.6311 9.17083 48.2435 9.66758 48.838 10.1754C49.4333 10.6824 50.0091 11.2022 50.5575 11.7381C51.1067 12.2732 51.6321 12.8237 52.1274 13.3903C52.6212 13.9612 53.0747 14.5406 53.4967 15.1447C53.9204 15.7463 54.3005 16.3717 54.6371 17.0107C54.9592 17.624 55.2482 18.2488 55.4801 18.8849C55.2374 18.2517 54.9366 17.6297 54.602 17.021C54.2518 16.387 53.8597 15.7676 53.4224 15.1728C52.9868 14.5755 52.5187 14.0046 52.0105 13.4423C51.5022 12.8833 50.9598 12.3439 50.3951 11.8182C49.266 10.7659 48.0282 9.78262 46.741 8.82233C46.0969 8.34261 45.4366 7.87057 44.7687 7.39767L43.7642 6.69215C43.437 6.46209 43.1201 6.25078 42.8049 6.04799C42.5965 6.19369 42.4538 6.36496 42.4718 6.60694C42.494 6.8549 42.6666 7.1659 43.1449 7.66351C43.3004 7.85863 43.5464 8.09381 43.8393 8.34602C44.1357 8.59909 44.486 8.87516 44.8763 9.16912C45.2496 9.45081 45.6572 9.74894 46.0834 10.0607C46.5466 10.3996 47.032 10.7546 47.5192 11.1221C48.457 11.8259 49.3872 12.5851 50.2056 13.3511C50.6088 13.7371 50.9906 14.1197 51.3229 14.5005L51.4088 14.5989C51.4625 14.6604 51.5159 14.7216 51.5688 14.7817L51.6465 14.8783C51.6952 14.9389 51.7434 14.999 51.7909 15.0586C51.9387 15.2384 52.0676 15.4208 52.189 15.5963L52.3103 15.7795L52.4247 15.9669C52.5007 16.0914 52.5776 16.2158 52.6537 16.3402C52.7945 16.5941 52.9475 16.842 53.0764 17.0994C53.1002 17.1456 53.1251 17.1916 53.1499 17.2376C53.1936 17.3185 53.2373 17.3993 53.2755 17.4819L53.4625 17.8679C53.5015 17.9456 53.5354 18.0248 53.5692 18.1039C53.5911 18.155 53.6129 18.206 53.636 18.2565L53.6623 18.3158C53.7109 18.4254 53.7594 18.5347 53.7999 18.6459L53.9546 19.0361L54.0903 19.4281C54.1399 19.5584 54.1758 19.6897 54.2151 19.82L54.2749 20.0151L54.3048 20.1131L54.3287 20.2111L54.4277 20.6014C54.4466 20.6788 54.4619 20.7566 54.477 20.8343C54.4873 20.8865 54.4976 20.9387 54.5089 20.9908L54.5499 21.185L54.5781 21.3785C54.5854 21.4332 54.5944 21.488 54.6034 21.5427C54.6155 21.6165 54.6276 21.6902 54.6354 21.7636C54.6977 22.2757 54.713 22.7801 54.7036 23.276C54.6841 23.7651 54.6226 24.2568 54.5217 24.7467C54.3236 25.7266 53.9469 26.7039 53.4343 27.6335C52.9202 28.5631 52.2582 29.4399 51.4971 30.223C50.7334 31.0035 49.8664 31.6851 48.9499 32.2321C47.0467 33.3586 44.8387 34.0419 42.5624 34.3078C41.7329 34.4041 40.8933 34.468 40.045 34.5004C39.1952 34.5293 38.3368 34.5191 37.4748 34.4833C35.7366 34.4083 34.0897 34.2038 32.6659 33.8196C31.956 33.6253 31.3043 33.3876 30.72 33.1072C30.6833 33.0902 30.6449 33.074 30.609 33.0561L30.5048 32.9999L30.2938 32.8899C30.2506 32.8681 30.2104 32.8434 30.1704 32.8188C30.1449 32.803 30.1194 32.7873 30.093 32.7724C30.0273 32.7323 29.9581 32.6957 29.894 32.6548L29.706 32.5287L29.6608 32.4991C29.6122 32.4678 29.5637 32.4366 29.5207 32.4009C29.4037 32.3114 29.2799 32.2296 29.1697 32.1299C28.7135 31.7524 28.2916 31.3196 27.9252 30.8066C27.5579 30.2962 27.2256 29.7245 26.9591 29.0872C26.7634 28.656 26.6072 28.1865 26.4747 27.6991C26.345 27.2109 26.2416 26.7013 26.18 26.1748C26.116 25.649 26.0835 25.1105 26.0809 24.5652C26.0826 24.019 26.1168 23.4686 26.1792 22.919C26.2399 22.3694 26.3364 21.8224 26.4602 21.2839C26.585 20.7454 26.7309 20.2137 26.9121 19.7007C26.954 19.5712 27.0061 19.4468 27.0513 19.319C27.0957 19.1937 27.1504 19.0625 27.2042 18.9313C27.2589 18.8009 27.3076 18.6689 27.3664 18.5402L27.5391 18.1534C27.5724 18.0786 27.6085 18.0049 27.6446 17.9313C27.6706 17.8782 27.6968 17.8252 27.7218 17.7716C27.7825 17.6447 27.8431 17.5177 27.9106 17.3933C27.9764 17.2689 28.0413 17.1437 28.1062 17.0193L28.313 16.652C29.4285 14.6999 30.8464 12.9711 32.3813 11.5413C32.4673 11.4572 32.5559 11.3781 32.6449 11.2988L32.6702 11.2763L32.9597 11.0156C33.04 10.9492 33.1188 10.8811 33.1973 10.8131C33.3135 10.7125 33.4293 10.6123 33.5491 10.5188L33.7402 10.3615L33.8437 10.2768C33.9012 10.2322 33.9587 10.1879 34.0161 10.1436L34.1427 10.0459C34.261 9.9501 34.3827 9.86114 34.504 9.77244C34.5834 9.71442 34.6626 9.65651 34.7406 9.59686C35.5419 9.01745 36.35 8.50621 37.1477 8.04609L37.4266 7.88255C38.6886 7.14307 39.5616 6.63136 40.0365 6.1545C40.1647 6.02924 40.2629 5.90483 40.3321 5.78469C40.3401 5.76917 40.3489 5.75358 40.3578 5.73798C40.3833 5.69366 40.4106 5.64924 40.4277 5.60576C40.4534 5.54697 40.4696 5.48903 40.4773 5.43279C40.5089 5.20614 40.4021 4.99823 40.1724 4.81333C39.7529 4.44524 38.8467 4.14616 37.5287 4.15638C37.1981 4.15383 36.847 4.18365 36.4695 4.22285C36.0953 4.27227 35.6955 4.33361 35.2814 4.43246C34.4502 4.62247 33.5465 4.91984 32.6095 5.35099C32.507 5.18398 32.3011 4.85082 32.1986 4.68382C33.1401 4.16973 33.9147 3.78137 34.5419 3.4669C35.1528 3.16061 35.6239 2.92442 35.9733 2.71042C36.3295 2.50081 36.5601 2.31165 36.7035 2.1489C36.8453 1.98275 36.894 1.82938 36.8829 1.68452C36.8647 1.4385 36.6711 1.21829 36.4781 0.99884C36.4438 0.959873 36.4095 0.920933 36.3763 0.881874C36.1577 0.622845 35.9835 0.357849 36.1868 0.0323561C33.9369 0.77792 31.8005 1.79189 29.7838 3.00353C27.7671 4.21774 25.864 5.62706 24.0651 7.21618C23.6739 7.66436 23.0922 8.34346 22.5618 9.06261C22.0295 9.77921 21.5256 10.518 21.2164 11.0266C21.0994 11.2107 20.9833 11.3964 20.8747 11.5856C20.8401 11.645 20.8053 11.7042 20.7705 11.7634C20.6947 11.8927 20.6189 12.0219 20.545 12.1522C20.335 12.5348 20.1239 12.9174 19.9309 13.3093L19.7831 13.6016C19.7352 13.6996 19.6899 13.7993 19.6431 13.8981L19.5642 14.0669C19.4978 14.2086 19.4315 14.3501 19.3679 14.4929L19.1091 15.0953C19.0496 15.2303 18.9958 15.3685 18.9421 15.5067C18.9166 15.5725 18.8911 15.6382 18.8649 15.7037L18.7452 16.0087L18.6317 16.3248C18.6111 16.3838 18.59 16.4427 18.569 16.5015C18.5143 16.6543 18.4596 16.8069 18.4121 16.9613C18.3937 17.0197 18.375 17.0781 18.3563 17.1365C18.3069 17.2912 18.2573 17.446 18.2114 17.6012L18.0294 18.2445C17.8014 19.1043 17.6195 19.9734 17.4836 20.8476C17.4736 20.9169 17.4631 20.986 17.4526 21.0552C17.4299 21.2047 17.4072 21.3542 17.3896 21.5046L17.3137 22.1641L17.2582 22.8261C17.2385 23.0468 17.2325 23.2692 17.2197 23.4899C17.1804 24.376 17.1881 25.2656 17.2462 26.1586C17.3086 27.0516 17.423 27.9471 17.5947 28.84C17.7672 29.733 17.9928 30.6251 18.2952 31.5062C18.5453 32.2414 18.8419 32.9694 19.1888 33.683C18.9612 33.9321 18.7342 34.1564 18.5098 34.3172C17.7956 34.7543 17.1217 35.2596 16.4589 35.7896C15.8011 36.3246 15.1605 36.8904 14.5284 37.4647C13.8989 38.0424 13.2685 38.6193 12.6399 39.1859C12.3247 39.4688 12.0061 39.7457 11.684 40.0141C11.3619 40.2834 11.0391 40.5475 10.7085 40.798C8.81396 42.2849 7.37035 44.1901 5.96276 46.1115C5.50231 46.7924 4.9779 47.4408 4.42943 48.0704C4.10619 48.4483 3.77233 48.8173 3.44103 49.1835C3.21642 49.4318 2.99303 49.6787 2.77489 49.9263C2.23424 50.5381 1.71142 51.1413 1.26476 51.7582C0.816275 52.3734 0.43273 52.9937 0.168814 53.637C-0.708383 55.976 2.01037 56.9755 4.23302 55.7834C4.35326 55.8806 4.56762 56.0538 4.72765 56.1834L4.84289 56.2768C3.59582 57.3806 4.35607 57.8652 5.1162 58.3498C5.43285 58.5517 5.74938 58.7535 5.92089 59C6.64013 58.1028 7.52416 57.3359 8.70629 56.8229L12.6245 52.1135C13.6802 50.8567 14.7274 49.611 15.7977 48.3917C17.9349 45.9505 20.1352 43.5886 22.5577 41.3664C19.3384 44.1313 16.4973 46.9185 13.8323 50.2194C13.8191 50.2003 13.8064 50.1792 13.7933 50.1575C13.7329 50.0572 13.6661 49.9464 13.5179 49.9842C14.578 48.0423 16.0958 46.5904 17.6565 45.193C17.8673 45.0042 18.0791 44.8166 18.2909 44.6289C19.6487 43.4258 21.0076 42.2216 22.1255 40.7069C22.1893 40.769 22.2823 40.8591 22.3779 40.9518C22.4908 41.0611 22.6074 41.1741 22.6841 41.2488C23.2128 40.7689 23.7466 40.2897 24.2978 39.8234C24.6257 40.0577 24.9571 40.2859 25.2977 40.4904C26.1219 40.9966 26.9728 41.4294 27.8303 41.7805C28.6879 42.1315 29.5489 42.4136 30.4048 42.6428C31.2616 42.8737 32.108 43.0373 32.9469 43.1702C33.7848 43.3023 34.6134 43.3917 35.4282 43.4488C36.2449 43.5076 37.0452 43.5357 37.8533 43.54H38.4589C38.5904 43.5411 38.7226 43.5368 38.8549 43.5324C38.9253 43.5301 38.9957 43.5278 39.0662 43.5264L39.6744 43.5076L40.2843 43.471C41.9089 43.3696 43.5438 43.1557 45.1727 42.8004C46.8008 42.44 48.4237 41.9381 50.004 41.2667C50.0738 41.2362 50.1438 41.2067 50.2136 41.1772C50.3412 41.1234 50.4686 41.0696 50.5951 41.0102L51.1793 40.7307C51.4772 40.5941 51.7676 40.4364 52.0579 40.2788C52.1497 40.229 52.2414 40.1791 52.3334 40.13C52.4281 40.0772 52.5255 40.0286 52.6186 39.9715L52.8997 39.8028L53.46 39.4628C53.5918 39.3836 53.7235 39.2959 53.8551 39.2084C53.9103 39.1717 53.9653 39.135 54.0204 39.099C54.1457 39.0133 54.2704 38.9263 54.3945 38.8388C54.453 38.7975 54.5113 38.7562 54.5696 38.7147C56.014 37.6658 57.3235 36.4465 58.4731 35.073C59.6195 33.696 60.6069 32.1614 61.3747 30.4811C62.1367 28.7991 62.6783 26.9663 62.8944 25.0466C62.9457 24.5661 62.9833 24.0829 62.9935 23.5964L63.0004 23.2317C63.0004 23.1509 62.9985 23.0704 62.9965 22.9898L62.9935 22.8696C62.9867 22.6284 62.9833 22.3865 62.9696 22.1462C62.9098 21.185 62.7696 20.2409 62.5741 19.3173C62.8252 20.5042 62.9645 21.7329 62.967 22.971C62.9722 23.5904 62.9397 24.2159 62.8713 24.8268C62.8423 25.1344 62.7927 25.4369 62.7491 25.7402C62.6945 26.041 62.6442 26.3426 62.5758 26.6374C62.0564 29.0113 61.0673 31.1773 59.8005 33.074C58.5278 34.9707 56.9741 36.6135 55.2136 37.9879C54.7754 38.3338 54.3176 38.6559 53.852 38.9661L53.4993 39.1944C53.4097 39.2514 53.3207 39.3039 53.2314 39.3569L53.1465 39.4074L52.4401 39.8241C52.3245 39.8847 52.2092 39.9462 52.0939 40.0077C51.7292 40.2022 51.3641 40.3969 50.9897 40.5646L50.6224 40.7367C50.5002 40.7946 50.378 40.8517 50.2534 40.9011L49.5085 41.2096C49.4025 41.2555 49.2953 41.2946 49.1877 41.3337L49.1335 41.3536L48.7577 41.4908L48.381 41.6271C48.301 41.6564 48.2207 41.6816 48.1403 41.7068C48.0945 41.7211 48.0486 41.7355 48.0027 41.7506L47.2441 41.9901L46.4813 42.1988C46.3541 42.2321 46.2268 42.2704 46.0995 42.2994L45.7168 42.3888C45.6317 42.4079 45.5466 42.4278 45.4615 42.4478C45.2913 42.4878 45.121 42.5277 44.9507 42.5601L44.1827 42.7084C44.1202 42.7212 44.0579 42.7327 43.9954 42.7433C43.9297 42.7545 43.864 42.7648 43.7983 42.7748L43.4139 42.8353C43.032 42.9001 42.65 42.9455 42.2681 42.9908C42.1376 43.0063 42.007 43.0218 41.8765 43.0381L41.1085 43.1071L40.7241 43.1395L40.3407 43.1617C39.3165 43.2298 38.2966 43.2358 37.2784 43.2162C36.2645 43.1949 35.2395 43.1319 34.1914 43.0143C33.1442 42.8958 32.0781 42.7203 30.9977 42.4621C29.918 42.2039 28.8229 41.8606 27.7346 41.3996C26.6473 40.9386 25.5668 40.3575 24.546 39.6367C24.5795 39.6342 24.6194 39.6353 24.6603 39.6363C24.8324 39.6408 25.0215 39.6458 24.809 39.3938C24.8221 39.3828 24.8352 39.3719 24.8484 39.3609C25.8274 39.9881 26.8476 40.4933 27.8688 40.8969C28.9562 41.3263 30.046 41.6433 31.1197 41.881C32.1935 42.1187 33.2535 42.2789 34.2948 42.3871C35.3369 42.4953 36.3584 42.5507 37.3715 42.5737C39.4036 42.6155 41.4476 42.5201 43.4934 42.2142L43.8769 42.1588L44.2605 42.0915C44.5159 42.0446 44.7712 42.002 45.0267 41.9517C45.5366 41.8401 46.0474 41.7379 46.5548 41.599C46.9702 41.4988 47.3828 41.3738 47.7953 41.2487C47.8883 41.2205 47.9813 41.1923 48.0743 41.1644C48.3264 41.0826 48.5767 40.9923 48.8278 40.9062C48.8721 40.8905 48.9165 40.8751 48.9611 40.8597C49.042 40.8317 49.1232 40.8036 49.2036 40.7733L49.576 40.6259C50.5729 40.2442 51.5483 39.7738 52.4982 39.2447L53.2063 38.8357C53.4412 38.6866 53.6787 38.5417 53.9076 38.3841C54.3705 38.0757 54.8181 37.7459 55.2529 37.4C56.9912 36.0153 58.5176 34.347 59.7279 32.4136C60.3319 31.4465 60.8572 30.4147 61.2766 29.3223C61.485 28.7753 61.673 28.2172 61.8241 27.6429C61.9779 27.0694 62.1059 26.4858 62.194 25.8902C62.2854 25.2954 62.3461 24.6922 62.3647 24.0838C62.378 23.8221 62.3754 23.5578 62.3727 23.2949L62.3716 23.1695C62.3634 22.9886 62.3544 22.8077 62.3446 22.6267C62.338 22.5052 62.331 22.3836 62.3238 22.2621C62.223 21.0572 61.9839 19.8797 61.6328 18.7566L62.3835 18.5487C62.1581 17.718 61.8942 16.9017 61.573 16.1237C61.4532 15.8125 61.3171 15.5128 61.1809 15.2127C61.144 15.1316 61.1072 15.0505 61.0707 14.9692C61.0104 14.8387 60.9463 14.7115 60.8822 14.5841C60.853 14.526 60.8237 14.4679 60.7948 14.4094C60.7017 14.2228 60.6095 14.0362 60.5078 13.8572L60.2089 13.3145C60.1063 13.1355 59.9988 12.9608 59.8937 12.7845C59.7438 12.5272 59.5823 12.2811 59.4204 12.0345C59.3581 11.9397 59.2959 11.8448 59.2342 11.7492L58.8849 11.2482L58.7089 10.9985L58.527 10.7548L58.1605 10.2691L57.7804 9.79625C55.7508 7.3099 53.4258 5.2743 51.1357 3.47047C50.1594 2.74876 49.2045 2.19406 48.3008 1.75184C48.0752 1.64192 47.8523 1.53882 47.632 1.44083C47.5149 1.38885 47.3995 1.33773 47.2851 1.28746C47.2505 1.27293 47.2161 1.25811 47.1819 1.24334L47.11 1.21248C47.0746 1.19807 47.0395 1.18338 47.0046 1.16874L46.9298 1.13749C46.4565 0.941517 45.9595 0.759174 45.4648 0.604099C45.9842 0.956001 46.4565 1.31047 46.8973 1.6547L47.2211 1.91032L48.129 2.6397C48.9423 3.29409 49.7707 3.96382 50.6028 4.66251C52.2642 6.06076 53.9469 7.57404 55.4997 9.31483C55.5651 9.39017 55.6309 9.46492 55.6966 9.53968C55.8237 9.6839 55.9508 9.82817 56.0746 9.97689L56.3564 10.316C56.4504 10.4285 56.5444 10.5418 56.6359 10.6611C57.0066 11.1289 57.3652 11.6077 57.7043 12.1037C58.3851 13.0929 59.0037 14.1384 59.5375 15.2435C60.0704 16.3478 60.5198 17.5126 60.8486 18.7311C61.18 19.9478 61.3807 21.2234 61.4252 22.5177C61.4474 23.1644 61.4329 23.8196 61.373 24.4664C61.3168 25.1139 61.2117 25.7538 61.0749 26.3818C60.9375 27.0098 60.7649 27.6275 60.5565 28.2283C60.3473 28.829 60.1063 29.4143 59.8373 29.9827C59.3009 31.1219 58.6398 32.1836 57.8992 33.1737C57.1517 34.1587 56.3215 35.0713 55.4109 35.8918C54.9565 36.3025 54.4841 36.6927 53.9947 37.0608C53.5052 37.4264 52.9945 37.774 52.4751 38.0867C51.4484 38.7241 50.3669 39.249 49.2694 39.6971C48.17 40.1411 47.0502 40.5075 45.921 40.781C44.7917 41.0553 43.6575 41.2547 42.5256 41.3885C43.4772 41.2513 44.4458 41.0843 45.4161 40.8347L45.7809 40.7452C45.9022 40.7111 46.0234 40.6762 46.1448 40.6421C46.2242 40.6189 46.3038 40.5964 46.3835 40.5739C46.5472 40.5276 46.7112 40.4812 46.8743 40.4291L47.1107 40.3506C47.274 40.2963 47.4379 40.242 47.602 40.1879L47.7839 40.1266L47.9651 40.0584L48.3273 39.9212L48.6894 39.7832C48.7565 39.7582 48.8227 39.7301 48.8888 39.7015C48.9423 39.6784 48.9955 39.6549 49.0489 39.6324C49.1277 39.5982 49.2065 39.5643 49.2854 39.5304C49.446 39.4615 49.6067 39.3925 49.7665 39.3205C49.8509 39.2793 49.9355 39.2384 50.0201 39.1975C50.408 39.0098 50.7961 38.822 51.1742 38.6065C51.5314 38.4202 51.8756 38.2078 52.2202 37.9951C52.3281 37.9286 52.436 37.862 52.5443 37.7962C52.9971 37.5022 53.436 37.1904 53.8649 36.864C55.5715 35.5501 57.062 33.9704 58.2648 32.2032C59.4665 30.4368 60.3779 28.4754 60.905 26.427C61.0826 25.6933 61.2057 24.9461 61.2698 24.1928C61.3339 23.4388 61.3364 22.6821 61.2843 21.9425C61.2775 21.8549 61.2715 21.767 61.2651 21.6792C61.2582 21.5819 61.2506 21.4846 61.2407 21.3878C61.2273 21.281 61.2135 21.1745 61.1998 21.0682L61.1706 20.84L61.1339 20.5664L61.0852 20.2972L60.9853 19.7595C60.9604 19.639 60.9318 19.5201 60.9031 19.4014C60.8893 19.3447 60.8756 19.288 60.8623 19.2312C60.8179 19.0566 60.7811 18.8785 60.7281 18.7081C60.7062 18.6338 60.6844 18.5593 60.6627 18.4848C60.5845 18.2158 60.5062 17.9469 60.4112 17.6873C59.9509 16.3478 59.3573 15.0902 58.662 13.9271C57.9684 12.7615 57.1868 11.6793 56.3403 10.6705C54.6533 8.67918 52.7757 6.99719 50.9017 5.4805C49.9639 4.72046 49.0251 3.9962 48.0991 3.28727L46.7111 2.22729C46.2242 1.8592 45.7023 1.47662 45.1249 1.1C44.9985 1.0182 44.8789 0.933849 44.7447 0.852051C44.6116 0.770252 44.4783 0.687599 44.3451 0.6058L43.9197 0.364666C43.8149 0.305527 43.7019 0.24871 43.5893 0.192158ZM23.147 38.9065C23.1296 38.8912 23.1123 38.8759 23.095 38.8606C23.0599 38.8296 23.0249 38.7987 22.9897 38.7678C22.8629 38.8832 22.7358 38.9992 22.6081 39.1158C21.8273 39.8288 21.0257 40.5608 20.1344 41.2667C18.7917 42.213 17.6014 43.5606 16.4849 44.8248C16.1999 45.1473 15.9198 45.4645 15.6432 45.7682C16.2833 45.1661 16.9197 44.5498 17.5586 43.9311C18.6673 42.8574 19.7838 41.7763 20.9408 40.7486C21.659 40.1094 22.3924 39.4904 23.147 38.9065ZM19.8511 34.9201C19.8302 34.8847 19.8094 34.8492 19.7889 34.8137C19.7793 34.8229 19.7698 34.832 19.7601 34.8412C19.2572 35.3195 18.7557 35.7965 18.2527 36.2684L18.1688 36.3396C16.4036 37.8361 14.635 39.3356 12.785 40.7699C14.7385 39.4509 16.511 37.8976 18.2527 36.2684C18.7839 35.8171 19.3163 35.367 19.8511 34.9201ZM55.5406 19.049C56.1101 20.6508 56.3599 22.3054 56.2062 23.881C56.1669 24.2832 56.1096 24.6845 56.0207 25.0816C55.9337 25.4786 55.8243 25.8723 55.6945 26.2617C55.428 27.0379 55.0803 27.7929 54.6525 28.5094C53.8008 29.9435 52.6537 31.2258 51.334 32.2611C51.0026 32.5184 50.6617 32.7613 50.3124 32.9879L50.0483 33.1541C49.9971 33.1859 49.9448 33.2166 49.8926 33.2473C49.8553 33.2692 49.818 33.2911 49.781 33.3134C49.7052 33.3601 49.6236 33.4036 49.5419 33.4472L49.225 33.6168C49.1844 33.6381 49.1444 33.6599 49.1044 33.6817C49.0515 33.7104 48.9986 33.7391 48.9448 33.7667L48.3682 34.0394C48.3513 34.0472 48.3346 34.0552 48.3177 34.0633C48.287 34.0781 48.256 34.0929 48.2239 34.1067L47.4858 34.4126L46.8811 34.6299L47.479 34.4305L48.0641 34.203C48.2632 34.1314 48.4493 34.0385 48.6407 33.9542L48.9277 33.8247C48.9895 33.7979 49.0485 33.7667 49.1077 33.7353C49.1409 33.7177 49.1741 33.7001 49.2079 33.6832C49.2772 33.6467 49.3475 33.6106 49.4178 33.5745C49.5343 33.5147 49.651 33.4549 49.7639 33.3927L50.0321 33.2401L50.2961 33.0791C50.6464 32.8593 50.9914 32.6267 51.3229 32.3727C52.6554 31.3647 53.8213 30.0883 54.6892 28.6466C55.557 27.2058 56.1276 25.5962 56.2703 23.9568C56.3429 23.1414 56.3113 22.3055 56.1822 21.4671C56.0583 20.6568 55.8382 19.8462 55.5406 19.049Z" fill="#EF8D2B"/>
</svg>
