<svg width="45" height="67" viewBox="0 0 45 67" fill="none" xmlns="http://www.w3.org/2000/svg">
<path d="M0.744468 32.022C0.715752 31.0333 0.727451 30.0362 0.810406 29.0624C0.895488 28.0887 0.985888 27.1118 1.09437 26.0689C1.4347 25.9871 1.78779 25.9137 2.13556 25.835C2.48014 25.7606 2.82579 25.6862 3.1725 25.6118C3.51921 25.5395 3.86591 25.4672 4.21369 25.3939C4.56465 25.3248 4.92731 25.2716 5.28572 25.2089C5.46333 25.1749 5.65264 25.1621 5.83663 25.1387L6.39285 25.076C6.57684 25.0516 6.76827 25.0452 6.95652 25.0303L7.52444 24.992C7.71375 24.9782 7.90412 24.9697 8.09662 24.9623L8.53692 24.9463C8.76345 24.94 8.98998 24.9336 9.21757 24.9261C9.43879 24.9219 9.66 24.9166 9.88228 24.9123L10.2067 24.9059C10.2343 24.9017 10.2545 24.9038 10.2779 24.9017C10.3683 24.8964 10.4587 24.89 10.5502 24.8847C10.7299 24.8719 10.9065 24.856 11.0819 24.8283C11.1032 24.7316 11.1021 24.6147 11.1064 24.5105C11.1085 24.4031 11.1085 24.2957 11.1064 24.1894C11.1 24.0002 11.0947 23.811 11.0883 23.6207C11.0724 23.0828 11.0522 22.5343 11.05 21.9422C11.0426 21.3607 11.0585 20.7367 11.0926 20.102L11.1309 19.6141L11.1511 19.3707L11.1808 19.1208L11.2436 18.6212C11.2659 18.4543 11.3 18.2821 11.3276 18.1131C11.3808 17.775 11.4627 17.4317 11.5435 17.0894L11.5967 16.8651L11.6307 16.729C11.653 16.6312 11.6764 16.5366 11.6977 16.4303C11.786 16.0114 11.8679 15.5288 11.9508 15.0132C12.1178 13.981 12.2858 12.8297 12.5751 11.5849C12.723 10.9598 12.9048 10.3061 13.1537 9.62148C13.4036 8.93794 13.7344 8.21188 14.1981 7.47838C14.2576 7.38589 14.3214 7.29341 14.3842 7.20198C14.4459 7.11056 14.5107 7.01914 14.582 6.92772L14.7936 6.65558L15.0276 6.3845C15.1074 6.29202 15.1903 6.20378 15.2765 6.11874C15.3616 6.03263 15.4466 5.94759 15.5349 5.86467L15.8072 5.62549L15.9412 5.51174L16.0337 5.43839C16.2666 5.25449 16.4953 5.06845 16.7346 4.8888L17.0909 4.61666L17.4556 4.34983C18.4298 3.63866 19.4689 2.96575 20.5835 2.36513C21.697 1.76451 22.886 1.23192 24.159 0.836469L24.6366 0.690832C24.7961 0.644058 24.9609 0.605789 25.1237 0.563267C25.2874 0.523934 25.448 0.47716 25.6139 0.444206L26.1117 0.343217L26.3605 0.294316L26.6137 0.256047L27.1188 0.181634C27.4475 0.142301 27.7623 0.116788 28.0834 0.0859596C29.3278 -0.00227316 30.47 -0.00758839 31.5984 0.00516816C32.7204 0.0232399 33.8158 0.0700139 34.8996 0.126355C35.1697 0.142301 35.4388 0.158247 35.7089 0.174192C36.0078 0.193327 36.3056 0.212462 36.6033 0.231597C37.0681 0.265614 37.5297 0.302821 37.9902 0.343217C38.4507 0.383612 38.9144 0.41763 39.3706 0.464404C40.2885 0.55051 41.1946 0.648311 42.0996 0.745048C42.5527 0.792885 43.0058 0.841785 43.4578 0.889622C43.6854 0.914072 43.9119 0.938522 44.1384 0.961909L44.2235 0.971476L44.2448 0.973602C44.2448 0.973602 44.2448 0.986359 44.2458 0.992737L44.2437 1.0342L44.2363 1.20109L44.2224 1.53595C44.1863 2.42997 44.1501 3.31974 44.115 4.20632C44.1055 4.42956 44.0991 4.64961 44.0874 4.87391C44.0746 5.10034 44.0608 5.32571 44.048 5.55107C44.0214 6.00287 43.9959 6.45466 43.9693 6.90539C43.8417 9.06975 43.8268 9.61297 43.78 10.6835C43.7683 10.9715 43.7577 11.2607 43.746 11.5498L43.729 11.9836L43.7205 12.2004L43.7045 12.5236C43.6471 13.593 43.5896 14.6656 43.5312 15.7393C43.5195 16.0125 43.4929 16.2698 43.4716 16.5355L43.4057 17.3275C43.361 17.8579 43.3163 18.3873 43.2717 18.9189L43.2376 19.3186L43.2206 19.5184L43.2121 19.6184C43.2121 19.6237 43.21 19.6247 43.2046 19.6247H43.1919L43.1674 19.6279L43.1174 19.6322L42.3262 19.6991C41.7976 19.7427 41.269 19.7874 40.7405 19.831C40.2076 19.8735 39.6737 19.916 39.1399 19.9585L38.3294 20.0117L37.5116 20.0553C36.9649 20.0797 36.414 20.102 35.861 20.1095L35.6536 20.1137L35.4664 20.1159H35.2133C35.0474 20.1201 34.8677 20.1159 34.6901 20.1137C34.3359 20.1084 33.9477 20.0914 33.4968 20.0489L33.1586 20.0223L32.8661 20.0106C32.4907 20.0032 32.1727 20.0319 31.9494 20.0818C31.726 20.1297 31.6016 20.1945 31.5601 20.2285C31.5516 20.2296 31.5473 20.237 31.5442 20.2434C31.5399 20.2487 31.5346 20.253 31.5282 20.2562C31.5176 20.2647 31.5144 20.2817 31.5006 20.2849C31.4942 20.2976 31.4899 20.3104 31.4772 20.3157C31.4718 20.3338 31.4644 20.3476 31.4495 20.3582C31.4399 20.3848 31.4261 20.4082 31.408 20.4284C31.3899 20.4699 31.3687 20.5177 31.3442 20.5581C31.3176 20.5921 31.2964 20.6591 31.2719 20.7175L31.2325 20.8047C31.2262 20.8196 31.2187 20.8323 31.2123 20.8494L31.1953 20.9046C31.1719 20.978 31.1464 21.0503 31.1198 21.1226C31.0943 21.198 31.0751 21.2905 31.0507 21.3724L31.0145 21.4989C31.0028 21.5425 30.9954 21.5924 30.9847 21.6392L30.9231 21.923L30.8741 22.2313L30.8486 22.3855L30.8295 22.5492L30.7912 22.8776L30.7646 23.221C30.755 23.3348 30.7455 23.4496 30.7433 23.5697L30.7359 23.7472V23.7866L30.7348 23.7993C30.7348 23.8057 30.7338 23.8195 30.7348 23.8195L30.7455 23.8748C30.7603 23.9449 30.7784 24.0045 30.7997 24.0523C30.8688 24.0449 30.9273 24.0332 30.9794 24.0225L31.0156 24.014C30.9624 24.014 31.1741 24.0098 31.2953 24.0066L31.709 23.997L33.3745 23.9577L35.0644 23.9237L35.6855 23.9141H36.5044L37.3234 23.912H37.7328L38.137 23.9237L38.9452 23.9481L39.3494 23.9609L39.5514 23.9673L39.7439 23.9864C40.2555 24.0406 40.7756 24.0895 41.2807 24.1469C42.29 24.2702 43.2993 24.3936 44.3075 24.5169C44.3373 24.8103 44.3596 25.1387 44.3852 25.4513L44.4564 26.3655L44.5936 28.1631C44.6032 28.3151 44.6213 28.4618 44.6234 28.6181L44.6298 29.089C44.6425 29.3984 44.6191 29.7279 44.6053 30.0511C44.5989 30.3721 44.5543 30.7091 44.5255 31.0397L44.5011 31.2885L44.4681 31.5393L44.4011 32.0422C44.3065 32.714 44.1895 33.389 44.0597 34.062L44.0119 34.3139L43.9757 34.4925L43.9215 34.7657L43.8109 35.3036L43.5865 36.3486L43.528 36.6143L43.4503 36.946C43.4237 37.0608 43.3993 37.1522 43.3727 37.2564L43.295 37.5562C43.1908 37.941 43.0855 38.312 42.9792 38.6692L42.7984 39.2677C42.6963 39.5994 42.591 39.9215 42.4868 40.2478C42.2773 40.8995 42.0603 41.5458 41.8401 42.19C41.6168 42.8299 41.3945 43.471 41.1712 44.1109L40.8362 45.0708L40.7522 45.3111C40.7522 45.3398 40.7234 45.3302 40.7032 45.3324H40.6394L40.5129 45.3355L40.0066 45.343C39.3313 45.3526 38.657 45.3621 37.9827 45.3717C37.6477 45.3791 37.3053 45.377 36.9639 45.3749L35.9397 45.3717C35.3356 45.3696 34.7315 45.3674 34.1275 45.3653C33.4404 45.3632 32.7545 45.3611 32.0685 45.3589L31.5548 45.3568H31.5176H31.5133H31.4984L31.4697 45.3589C31.4665 45.36 31.458 45.3568 31.458 45.3621V45.377V45.4057C31.4548 45.6885 31.4506 45.9712 31.4474 46.253C31.4325 47.586 31.424 48.9116 31.4229 50.2234C31.0666 50.2266 30.537 48.2334 30.3551 50.2234C30.2243 52.2071 30.1041 53.6932 30.0031 54.7371C29.9903 54.8647 29.9776 54.9869 29.9659 55.1049C29.9531 55.2112 29.9414 55.3133 29.9308 55.4111C29.9202 55.4982 29.9074 55.5833 29.8946 55.6651C29.8914 55.6864 29.8883 55.7066 29.8851 55.7268C29.884 55.7544 29.8819 55.7821 29.8808 55.8097C29.8776 55.8639 29.8744 55.9171 29.8712 55.9692C29.8425 56.3838 29.8053 56.7144 29.75 56.9844C29.5394 58.0602 29.1757 58.0953 28.8237 58.1314C28.7365 58.1399 28.6535 57.7593 28.5674 57.2215C28.5269 56.9514 28.4812 56.6432 28.4365 56.3221C28.4259 56.2424 28.4153 56.1605 28.4036 56.0797C28.3929 55.9989 28.3812 55.9139 28.3759 55.8469C28.3621 55.7045 28.3483 55.5631 28.3344 55.4249C28.3164 55.1251 28.2993 54.8402 28.2845 54.5968C28.2728 54.347 28.2611 54.1386 28.2451 54.0004C28.2132 53.724 28.1685 53.724 28.0973 54.2205C28.0462 52.7365 28.0281 50.9782 28.0101 49.2837C28.0016 48.4354 27.993 47.603 27.9845 46.8249C27.9792 46.4358 27.975 46.0605 27.9696 45.7034C27.9665 45.5386 27.9633 45.377 27.9611 45.2218C27.958 45.0857 27.9537 44.955 27.9505 44.8274C27.9207 43.8101 27.8803 43.0479 27.8176 42.8416C27.7548 42.6397 27.6687 42.9905 27.5581 44.3129C27.5102 44.5255 27.4719 44.8338 27.4411 45.2144C27.4347 45.3143 27.4273 45.4174 27.4198 45.5258C27.4134 45.6385 27.407 45.7554 27.4007 45.8756C27.3879 46.1169 27.3783 46.372 27.3688 46.6399C27.3315 47.7093 27.3188 48.968 27.3071 50.2266C27.2964 51.4853 27.2932 52.7418 27.273 53.8101C27.2698 54.077 27.2656 54.3321 27.2571 54.5734C27.2507 54.8136 27.2475 55.039 27.2379 55.2484C27.2284 55.4579 27.2199 55.6481 27.2124 55.8193C27.2018 55.9904 27.1869 56.1446 27.172 56.2732C27.0348 57.3076 26.7062 56.8377 26.3786 56.3795C26.3371 56.3221 26.2957 56.2647 26.2563 56.2105C26.217 56.1499 26.1776 56.0914 26.1383 56.0383C26.0606 55.933 25.9862 55.8522 25.916 55.8235C25.8458 55.7948 25.7809 55.8172 25.7245 55.9224C25.6958 55.9745 25.6703 56.0478 25.6458 56.1456C25.6341 56.1935 25.6224 56.252 25.6129 56.3094C25.6022 56.3614 25.5937 56.4188 25.5842 56.4826C25.716 57.4649 25.8873 58.9276 25.9713 60.3766C26.0627 61.8255 26.0394 63.2638 25.9915 64.2312C25.7586 65.1879 25.5214 64.6819 25.3247 64.1972C25.1226 63.7124 24.9641 63.2415 24.9248 64.1791C24.9056 64.3694 24.879 64.565 24.8567 64.7606C24.8354 64.9562 24.811 65.155 24.7844 65.3569L24.7652 65.5089L24.7557 65.5855L24.7535 65.6046L24.7514 65.6142L24.7482 65.6323C24.7408 65.6822 24.7333 65.7141 24.7248 65.7556C24.7099 65.8332 24.694 65.9118 24.678 65.9905C24.6153 66.303 24.5568 66.6113 24.5004 66.9249L24.4983 66.9387V66.9462C24.4983 66.9462 24.4919 66.9462 24.4898 66.9462L24.459 66.9483L24.3973 66.9526L24.2728 66.9611C24.1909 66.9653 24.108 66.9696 24.025 66.9749C23.8602 66.9823 23.6953 66.9876 23.5294 66.9908C23.4465 66.9919 23.3635 66.993 23.2806 66.994C23.1466 66.994 23.0104 66.9951 22.8754 66.9961C22.4063 66.9972 21.9267 66.993 21.4396 66.9845C20.6845 66.9674 19.9177 66.9515 19.1424 66.9334C18.7872 66.9281 18.4234 66.9239 18.0533 66.9292H18.0406V66.9143V66.8845L18.0385 66.825L18.0363 66.7059L18.0321 66.4668C18.0299 66.3062 18.0268 66.1447 18.0246 65.9841C18.0214 65.6588 18.0182 65.3335 18.014 65.0083C18.1916 65.0083 18.3671 64.5012 18.5224 64.4991C18.6 64.4991 18.6734 64.6234 18.7393 65.0008C18.8042 65.1039 18.8606 65.2474 18.9063 65.4569L18.9148 65.7651L18.9191 65.9182L18.9212 65.9948V66.033L18.9233 66.0522C18.9233 66.0596 18.9233 66.066 18.9297 66.0628C19.0807 66.0575 19.2275 66.0564 19.3721 66.0554H19.4795C19.4976 66.0554 19.5157 66.0532 19.5316 66.0522C19.4997 66.0522 19.6859 66.0575 19.7965 66.0607L21.2599 66.0915L21.9777 66.0989H22.6861L23.0349 66.0947L23.1498 66.0915L23.2508 66.0851C23.3178 66.0798 23.3837 66.0745 23.4486 66.067L23.5454 66.0543L23.5932 66.0468L23.6166 66.0426C23.6241 66.0405 23.6347 66.0426 23.6326 66.0309C23.6454 65.8842 23.6549 65.7418 23.6613 65.6036L23.6634 65.5515V65.5313L23.6677 65.4792L23.6815 65.291C23.7017 65.0391 23.7145 64.7924 23.7272 64.5448C23.7432 64.296 23.7506 64.0515 23.7592 63.807C23.7698 63.5614 23.7719 63.318 23.7762 63.0756C23.7879 62.1029 23.756 61.1388 23.6815 60.1523C23.6081 59.1668 23.4954 58.1601 23.3593 57.1364L23.3082 56.7526L23.2955 56.657L23.2891 56.6091L23.2816 56.539L23.2508 56.2562L23.2221 55.9734L23.2082 55.8321L23.2019 55.7629L23.1987 55.7045L23.17 55.2378C23.1615 55.0847 23.1487 54.9221 23.1434 54.7764L23.1264 54.3395C23.1147 54.0472 23.103 53.7549 23.0966 53.4753L23.0753 52.6259L23.0615 51.7872C23.0519 51.2269 23.0498 50.6752 23.0445 50.1192C23.0391 49.0137 23.0381 47.9092 23.0434 46.8089L23.054 45.0198L23.0987 41.9083L23.1561 38.7967L23.1859 37.2383L23.1902 37.0427L23.1923 36.9449V36.9205C23.1955 36.9152 23.2072 36.9184 23.2146 36.9173H23.2635L23.6507 36.9162L24.426 36.913L27.5325 36.9024L30.6614 36.9067C31.8962 36.9056 33.132 36.9045 34.3678 36.9024C34.4157 36.9024 34.4029 36.9024 34.4082 36.9024H34.4167L34.4338 36.9003L34.4667 36.8982L34.5316 36.8939C34.5741 36.8907 34.6167 36.8886 34.656 36.8843C34.6784 36.7982 34.7018 36.7111 34.7167 36.6366L34.8177 36.2986L34.9219 35.9382C34.99 35.7001 35.0527 35.4684 35.1102 35.2472L35.1506 35.0867C35.1644 35.0325 35.1782 34.9783 35.1878 34.9336L35.2591 34.6158L35.4271 33.8291L35.5845 33.0648L35.6494 32.7321L35.6526 32.7044C35.6557 32.6683 35.6589 32.6322 35.6611 32.5981C35.6632 32.5641 35.6632 32.5301 35.6611 32.4982C35.6611 32.4823 35.6589 32.4663 35.6568 32.4504C35.6557 32.4429 35.6547 32.4344 35.6536 32.427C35.6526 32.4195 35.6526 32.41 35.6398 32.4132C35.5653 32.411 35.4962 32.4185 35.4313 32.4249L35.3835 32.4302C35.376 32.4302 35.3675 32.4312 35.3601 32.4334C35.358 32.4334 35.3495 32.4344 35.3431 32.4334L35.1463 32.4366L33.501 32.4674L31.8324 32.5025L30.8635 32.5205C30.319 32.5301 29.7787 32.5344 29.2384 32.5322C28.1504 32.5482 27.0891 32.494 26.0511 32.4259L22.936 32.1942L22.6595 29.8831C22.568 29.1209 22.4776 28.3555 22.3968 27.5827L22.3064 26.4059L22.2617 25.21C22.2543 24.8092 22.266 24.4052 22.267 24.0034C22.267 23.8025 22.2713 23.5941 22.283 23.4166L22.3043 23.0201C22.3681 22.0187 22.4904 20.9854 22.7339 19.8947C22.9838 18.8062 23.3444 17.6475 24.0197 16.4303C24.1995 16.1231 24.36 15.8307 24.5993 15.5107C24.7142 15.3545 24.8195 15.2003 24.9482 15.0473C25.0769 14.8942 25.2087 14.7432 25.3427 14.5955L25.4438 14.4849L25.5523 14.3786L25.7724 14.1681C25.9202 14.0289 26.0681 13.8907 26.2297 13.7674C26.3892 13.6408 26.5498 13.5165 26.7136 13.3974C26.8827 13.2847 27.0529 13.1742 27.2252 13.0668C27.9229 12.6501 28.6609 12.3312 29.3682 12.1271C30.0754 11.923 30.7657 11.7997 31.4112 11.7401C32.0536 11.6848 32.6683 11.6753 33.2437 11.7019C33.3894 11.7072 33.5266 11.7189 33.6691 11.7274L33.8807 11.7423L34.0849 11.7624L34.4529 11.7997C34.5008 11.8028 34.5497 11.8071 34.5975 11.8124C34.8528 11.8273 35.1867 11.8379 35.5292 11.8369C35.559 11.8369 35.5473 11.8369 35.5515 11.8369H35.5547L35.5611 11.8347L35.5739 11.8315C35.5898 11.8273 35.6036 11.823 35.6153 11.8177C35.6175 11.8156 35.6228 11.8177 35.6217 11.8124L35.6196 11.7997L35.6153 11.7763L35.6111 11.7561L35.609 11.7465V11.7444L35.6164 11.6232L35.6366 11.3149L35.7951 8.84758L35.8344 8.23101L35.8387 8.16617V8.16404V8.16085L35.8334 8.15022C35.8302 8.14384 35.827 8.13959 35.8248 8.13746C35.8174 8.13853 35.81 8.14172 35.8046 8.14384C35.8025 8.14491 35.8004 8.14597 35.7983 8.1481C35.7983 8.14916 35.7961 8.1481 35.7961 8.15235C35.7961 8.15235 35.7983 8.15235 35.7887 8.15128L35.7515 8.14916L35.677 8.14384L35.3814 8.12258C33.8073 8.01947 32.2376 7.94824 30.7465 7.94824C30.3668 7.94293 30.0169 7.95887 29.6532 7.96419C29.5607 7.96419 29.4767 7.9695 29.3926 7.97482L29.1385 7.98864L28.8843 8.00246C28.8428 8.00458 28.7971 8.00565 28.7588 8.0099L28.6461 8.02159L28.1941 8.06518C28.0526 8.08325 27.9282 8.10664 27.7942 8.12471C27.5294 8.17361 27.2635 8.22782 26.9944 8.30224C25.9202 8.59032 24.8025 9.10165 23.6783 9.78944C23.1157 10.1328 22.5531 10.5229 21.9894 10.945C21.7076 11.1576 21.4268 11.3755 21.145 11.6041L21.0397 11.6891L21.0025 11.7189H21.0046C21.0046 11.7189 21.0036 11.7157 21.0078 11.7189C21.011 11.7189 21.0057 11.7157 21.011 11.7157C21.0131 11.7157 21.0068 11.7157 21.0025 11.7274C20.9802 11.7571 20.9227 11.8432 20.8536 11.9868C20.7845 12.1292 20.7058 12.3259 20.6292 12.5619C20.4739 13.0349 20.3346 13.6589 20.2102 14.3605C20.0836 15.0653 19.973 15.8445 19.8316 16.7237C19.7603 17.1638 19.6805 17.6305 19.5731 18.1407L19.487 18.534L19.387 18.9433C19.3615 19.0656 19.3338 19.1868 19.304 19.3079C19.2051 19.8065 19.1477 20.3657 19.1275 21.0109C19.1062 21.6551 19.1232 22.3823 19.1488 23.1891L19.1722 23.9131C19.186 24.3255 19.1871 24.738 19.1924 25.1504L19.1977 25.7681L19.1817 26.3793L19.1658 26.9906C19.1552 27.1915 19.136 27.3882 19.1211 27.5869C19.0679 28.3885 18.9701 29.1528 18.8903 29.9352L18.6372 32.3015C17.8013 32.394 16.9654 32.4865 16.1305 32.5801L14.8915 32.7172L13.6344 32.8363L12.3475 32.9022L11.0468 32.9309L9.37497 32.9447L8.76983 32.9532L8.62413 32.9574L8.55181 32.9596H8.53479C8.53479 32.9596 8.53904 32.9574 8.54011 32.9596L8.55712 32.9574C8.56776 32.9553 8.57839 32.9532 8.58797 32.95C8.58797 32.9362 8.58797 32.9224 8.58477 32.9096C8.58477 32.9064 8.58371 32.9032 8.58371 32.9V32.899V32.9192L8.58797 33.1116L8.59647 33.5049L8.61243 34.3224L8.61668 34.7476V34.9645C8.61668 35.041 8.61881 35.0952 8.61668 35.21L8.6103 35.5141L8.60073 35.7501L8.57839 36.1944L8.53798 36.862L8.53585 36.8896V36.8865L8.53373 36.8801C8.5316 36.8716 8.52947 36.8652 8.52734 36.8609C8.51777 36.8641 8.51033 36.8673 8.50395 36.8694L8.49969 36.8716H8.49757L8.52415 36.8737H8.55181C8.57308 36.8748 8.52096 36.8758 8.69219 36.8758H9.42071L10.1513 36.879L11.1489 36.8875L11.8158 36.895L12.1486 36.8992L12.3156 36.9013L12.4922 36.9067L13.9141 36.9492C14.1545 36.9513 14.3799 36.9779 14.6107 36.9938L15.3009 37.0491C15.7657 37.0821 16.2081 37.132 16.6591 37.1745L19.3732 37.4435C19.3976 38.2652 19.4221 39.0859 19.4455 39.9066L19.4817 41.1301C19.4934 41.5383 19.5082 41.9434 19.5104 42.3569C19.5199 43.1797 19.5295 44.0035 19.5401 44.8263L19.5423 45.444L19.538 45.9362L19.5338 46.5665C19.5189 48.243 19.4934 49.9077 19.4646 51.5639C19.4359 53.2148 19.4072 54.8647 19.3785 56.5124C19.3498 58.1548 19.3274 59.7898 19.32 61.395C19.3104 61.8797 19.3009 62.3102 19.2934 62.6919C19.2828 63.0565 19.2732 63.3744 19.2658 63.6476C19.2615 63.7772 19.2562 63.8963 19.2498 64.0058C19.2466 64.059 19.2434 64.1089 19.2402 64.1568C19.237 64.1897 19.2349 64.2216 19.2328 64.2514C19.2211 64.3715 19.203 64.4672 19.1817 64.5405C19.1605 64.7808 19.1137 64.8584 19.0467 64.7988C19.0126 64.7691 18.9744 64.7053 18.9307 64.6107C18.9254 64.599 18.9201 64.5862 18.9137 64.5735C18.9095 64.565 18.9052 64.5575 18.8999 64.549C18.8914 64.532 18.8818 64.5139 18.8723 64.4948C18.8531 64.4565 18.834 64.414 18.8138 64.3662C18.7946 64.3183 18.7733 64.2652 18.75 64.2088C18.7446 64.1929 18.7383 64.1833 18.7329 64.1621C18.7276 64.1408 18.7234 64.1195 18.718 64.0983C18.7085 64.0547 18.6978 64.0101 18.6872 63.9643C18.6457 63.7804 18.6032 63.5742 18.5585 63.3488C18.4809 62.8641 18.3937 62.3113 18.3203 61.6745C18.1661 60.417 18.0321 58.9117 17.9108 57.4075C18.0746 59.4103 17.5365 59.4124 17.7183 61.4013C17.4514 61.4035 17.0877 60.4138 16.7909 58.4025C16.491 56.3923 16.2666 53.3668 16.2177 49.3283C16.1954 51.3449 16.1741 53.3594 16.1518 55.3781C15.9529 57.3905 15.6179 55.3728 15.2626 55.3686C15.285 53.3509 15.3084 51.3364 15.1297 51.3343C14.9521 51.3322 14.5958 51.329 14.4182 51.3269C14.3959 53.3392 14.3448 57.3745 14.3384 59.3932C14.3491 57.3756 14.3735 55.359 14.1949 55.3569C14.0173 55.3547 13.661 55.3515 13.4823 55.3494C13.4164 53.3817 13.4898 50.9389 13.5525 48.4917C13.5663 47.8805 13.5802 47.2682 13.594 46.6633C13.5982 46.3656 13.6036 46.069 13.6078 45.7756C13.6131 45.5737 13.6153 45.3791 13.6153 45.1835C13.6216 44.4033 13.6036 43.6538 13.5429 43.0298C13.5408 43.0117 13.5397 42.9937 13.5387 42.9766C13.5397 42.9703 13.5344 42.9713 13.5291 42.9713H13.5153L13.4876 42.9703C13.4504 42.9692 13.4153 42.9681 13.3802 42.9671L12.8814 43.4858C12.9059 43.4901 12.9314 43.4954 12.958 43.4997C12.9697 43.5039 12.9888 43.4997 12.9942 43.5103C12.9942 43.5262 12.9942 43.5422 12.992 43.5592C12.9729 44.1279 12.9622 44.7126 12.9569 45.3207C12.9569 45.7586 12.9559 46.2083 12.9548 46.6622C12.9548 47.2671 12.9559 47.8783 12.9569 48.4885C12.9601 50.9335 12.9697 53.3775 12.9484 55.3452C12.7921 53.3222 12.6155 53.3222 12.2593 53.3179C12.2242 51.3556 12.2646 49.3974 12.3071 47.4489L12.338 45.9893L12.3411 45.8075C12.3411 45.7799 12.3411 45.7586 12.3433 45.7331C12.3465 45.6842 12.3486 45.6396 12.3507 45.5917L12.3614 45.309C12.3752 44.9295 12.3805 44.5393 12.3667 44.1587C12.3656 44.1471 12.3677 44.1311 12.3635 44.1226L12.3252 44.1194L12.2476 44.113C12.1954 44.1077 12.1433 44.1056 12.0912 44.1045C11.987 44.1003 11.8817 44.0982 11.7764 44.0992C11.5669 44.0992 11.3563 44.1088 11.1511 44.1247L10.8192 44.1545L10.6363 44.1736L10.5459 44.1843C10.5395 44.1864 10.4938 44.1875 10.464 44.1896L10.3662 44.1949C9.84293 44.2257 9.31861 44.264 8.79429 44.314L10.2864 44.3118L11.0405 44.3161C11.3765 44.3214 11.7126 44.3246 12.0476 44.3533C11.7328 44.4607 11.4584 44.5489 11.2106 44.6127C11.0841 44.6446 10.9735 44.6722 10.848 44.6924C10.7671 44.703 10.6863 44.7126 10.6044 44.7211L10.5438 44.7264H10.5257L10.4821 44.7296L10.3949 44.7328C10.2779 44.736 10.1599 44.7392 10.0397 44.7424C9.80038 44.7477 9.5579 44.753 9.31223 44.7583C9.05485 44.7626 8.79323 44.7658 8.52947 44.77C7.63824 44.7796 6.72467 44.7891 5.79515 44.7987C3.90739 44.8189 1.95689 44.8402 0 44.8614C0.131877 43.4359 0.263754 42.0061 0.394568 40.5933C0.456252 39.8938 0.517937 39.1986 0.578558 38.5097C0.637052 37.8251 0.691291 37.1373 0.737023 36.5091C0.751912 36.305 0.765738 36.103 0.780628 35.9021C0.791263 35.7299 0.802962 35.5481 0.809343 35.3971L0.81466 35.2791L0.816787 35.193L0.818914 35.1112V34.9857C0.818914 34.8199 0.816787 34.6519 0.813597 34.484C0.807216 34.147 0.79658 33.81 0.783818 33.4709C0.776373 33.271 0.767865 33.0744 0.760421 32.8798C0.751912 32.5928 0.742341 32.3111 0.733832 32.0337L0.744468 32.022Z" fill="#FFFFFF"/>
</svg>
