<svg width="186" height="152" viewBox="0 0 186 152" fill="none" xmlns="http://www.w3.org/2000/svg">
<g clip-path="url(#clip0_148_545)">
<path d="M63.372 3.30496C63.3578 3.43659 63.3436 3.57178 63.3294 3.70341C63.2088 6.11543 63.7763 8.41005 63.8756 11.0533C63.8402 12.921 64.3651 14.9559 64.6701 16.7632C64.2587 12.423 63.3684 7.94045 63.8579 3.62158C64.3332 3.96667 64.7411 4.41136 64.8404 4.98768C64.9184 6.40715 65.039 7.80171 65.195 9.17848C65.0213 9.20694 64.6843 9.26742 64.5141 9.29588C65.6881 13.0811 64.9326 16.9339 66.4506 20.6623C66.518 20.5093 66.6741 20.5662 66.7876 20.5769C66.7876 20.5876 66.7911 20.5947 66.7947 20.6053C66.7947 20.5982 66.7947 20.5876 66.7876 20.5769C66.8904 20.5876 66.9614 20.5555 66.9224 20.3172C66.9649 20.5591 66.8904 20.5876 66.7876 20.5769C65.9718 16.7952 65.5285 13.2021 65.2163 9.33857C65.9009 15.3046 67.2061 20.9433 68.2382 27.0018C68.2808 27.258 68.3695 27.7774 68.4156 28.0335C68.0751 29.1541 68.0822 30.2178 68.256 31.2495C67.3551 31.1393 65.8122 32.4662 65.8051 30.3388C65.6349 30.3673 65.2908 30.4277 65.117 30.4562C64.6098 32.669 62.3398 33.8572 61.3006 31.9077C60.2188 29.702 60.3784 26.4824 59.5485 23.7004C59.0235 21.6619 58.5021 19.627 58.4915 17.4996C58.5234 14.5717 57.8247 11.5016 58.0269 8.54168C58.0233 7.47797 57.2005 5.75967 57.6261 5.15489C57.8105 4.74221 58.1723 4.66395 58.5908 4.64972C58.8178 6.35734 59.0874 8.05429 59.3002 9.74057C59.4562 11.8289 59.5946 13.9171 59.6017 16.0303C59.7294 13.942 59.5627 11.8502 59.3002 9.74057C59.1725 8.04362 59.0306 6.34667 58.9313 4.64616C59.2931 4.64616 59.6691 4.64616 59.9883 4.48251C59.9883 4.48251 59.8996 3.96667 59.857 3.70696C60.538 2.52586 61.7865 2.57922 62.7335 2.94921C62.9286 3.05237 63.1521 3.16622 63.3755 3.29785L63.372 3.30496Z" fill="#FFFFFF"/>
<path d="M95.7259 2.19146C95.655 2.25905 95.577 2.3551 95.4989 2.45827C95.4102 2.58635 95.3251 2.72865 95.2294 2.89941L95.0733 3.18757L94.974 3.36901L94.9208 3.46506L94.8924 3.50775C94.7364 3.73899 94.5945 4.00937 94.4597 4.29753C94.1901 4.88097 93.9596 5.55334 93.7219 6.28264C93.2502 7.72345 92.7998 9.21762 92.2287 10.7723C91.3349 12.9282 90.8206 15.5394 90.207 17.7984C91.0689 15.1623 91.8102 12.4337 92.6685 9.79039C93.0977 8.47054 93.5588 7.16847 94.0695 5.91266C94.3249 5.29364 94.5874 4.72799 94.8747 4.25128C94.9456 4.13388 95.0201 4.02004 95.0946 3.91687L95.2045 3.7639L95.2613 3.69274C95.2861 3.65717 95.2861 3.6714 95.3322 3.58958C95.4883 3.3192 95.577 3.17334 95.6692 3.02392C95.7614 2.87806 95.8465 2.75711 95.9281 2.65038C96.0097 2.92076 96.0842 3.19469 96.0097 3.66784C95.9068 4.04494 95.9529 4.04138 95.9281 4.18369C95.9139 4.30109 95.882 4.42204 95.8359 4.54656C95.5344 5.12644 95.2506 5.88064 94.9598 6.71666C94.6761 7.53846 94.3959 8.35314 94.1405 9.18205C93.9915 9.13936 93.6971 9.06109 93.5482 9.0184C92.6969 13.8887 90.4198 18.1044 89.6821 23.1846C89.8133 23.0352 89.902 23.1739 89.9871 23.2415L89.9765 23.2771L89.9871 23.2415C90.0616 23.2984 90.1325 23.2984 90.2248 22.996C90.1325 23.2984 90.0616 23.302 89.9871 23.2415C91.303 18.3961 92.5196 13.9527 94.0802 9.3706C92.9558 12.9459 92.0549 16.5782 91.0583 20.2674C90.5653 22.1102 90.0261 23.9708 89.4444 25.8456C88.8486 27.7205 88.1818 29.606 87.4192 31.4986C87.2844 31.8188 87.0078 32.4627 86.873 32.7829C86.3942 33.3343 85.9543 33.8999 85.5748 34.4905C85.2024 35.0846 84.8513 35.6858 84.5356 36.3048C83.9929 35.6502 82.0315 36.1519 83.4964 33.8786C83.3581 33.811 83.0779 33.6794 82.9395 33.6118C81.0561 35.6894 78.7401 35.4261 79.3217 32.9216C79.5133 32.2314 79.7403 31.495 80.0559 30.7586C80.3432 30.008 80.6944 29.2431 81.0313 28.4426C81.723 26.856 82.3969 25.1483 82.8083 23.4336C83.4574 20.9504 84.0142 18.4281 84.9932 15.977C86.3764 12.6151 87.2064 8.68399 88.8202 5.28653C89.0756 4.66396 89.2458 3.75322 89.5225 2.83182C89.6608 2.37645 89.8204 1.9282 90.0119 1.55466C90.0581 1.46216 90.1077 1.37322 90.1574 1.2914C90.1786 1.25938 90.2141 1.19534 90.2248 1.19178C90.2354 1.18467 90.246 1.17755 90.2567 1.174C90.3134 1.12063 90.3915 1.04593 90.473 0.996119C90.8596 0.636806 91.1824 0.71863 91.4874 0.942756C91.3704 1.20246 91.2569 1.4835 91.1824 1.62936L90.9909 2.03137L90.8064 2.45827C90.5723 3.02392 90.3808 3.58246 90.207 4.12321C89.8843 5.17269 89.5579 6.22216 89.2387 7.26453C88.3662 9.77972 87.5221 12.2985 86.5538 14.7567C87.6214 12.3838 88.4407 9.85443 89.2387 7.26453C89.6005 6.23639 89.9446 5.22605 90.3312 4.18724C90.5262 3.66428 90.7391 3.12709 90.9909 2.58635C91.1186 2.31597 91.2533 2.0456 91.4023 1.77522C91.491 1.63292 91.6151 1.37322 91.7393 1.12775C91.9982 1.32341 92.2748 1.51908 92.6082 1.51196C92.6082 1.51196 92.8636 0.885835 93.041 0.569213C93.3815 0.345087 93.729 0.273936 93.9489 0.38422C94.0022 0.412681 94.0518 0.444699 94.0908 0.487389C94.1086 0.512292 94.1263 0.533637 94.1405 0.55854L94.1618 0.597673C94.1618 0.597673 94.1547 0.587001 94.1547 0.583443C94.1298 0.53008 94.1227 0.501619 94.1227 0.501619C94.1227 0.501619 94.1298 0.53008 94.1511 0.576328C94.1759 0.629691 94.2043 0.658152 94.2894 0.789781C94.332 0.846702 94.3781 0.900065 94.4384 0.956986C94.5094 1.04237 94.5909 1.12775 94.6831 1.20601C94.8002 1.30207 94.9137 1.40168 95.0272 1.49418C95.0946 1.54754 95.1655 1.6009 95.2365 1.65071L95.3464 1.72542C95.389 1.75388 95.3748 1.74676 95.389 1.76099C95.5131 1.85349 95.6266 2.01358 95.733 2.19146H95.7259Z" fill="#FFFFFF"/>
<path d="M145.534 5.54267C145.307 5.67786 145.08 5.80949 144.856 5.94112C144.619 6.09054 144.402 6.23639 144.207 6.38225C144.104 6.45696 144.023 6.521 143.924 6.60282C143.824 6.6882 143.725 6.77714 143.622 6.86964C143.214 7.24674 142.792 7.69499 142.327 8.18949C142.093 8.43496 141.849 8.69466 141.586 8.95436L140.838 9.66232C140.341 10.1212 139.845 10.6229 139.345 11.0604C138.344 11.9534 137.337 12.8783 136.291 13.7642C135.248 14.6642 134.173 15.5679 133.045 16.4537C129.839 18.8871 126.473 21.9892 123.433 24.5969C127.129 21.6157 130.839 18.4708 134.546 15.358C135.468 14.5717 136.394 13.7891 137.323 13.0206C138.252 12.2309 139.174 11.4447 140.097 10.662C140.561 10.2529 141.026 9.84375 141.49 9.43819C141.717 9.24964 141.98 8.99706 142.207 8.77649L142.87 8.12901C143.292 7.71634 143.679 7.34991 144.044 7.05463C144.133 6.98348 144.229 6.90521 144.31 6.84829C144.388 6.79137 144.473 6.73445 144.558 6.67753C144.732 6.56369 144.924 6.44629 145.133 6.32533C145.037 6.51744 144.945 6.70599 144.863 6.88031L144.743 7.13646C144.707 7.21828 144.675 7.29655 144.619 7.3926C144.417 7.76614 144.143 8.18593 143.728 8.66976L142.87 9.56982C142.718 9.7228 142.537 9.91135 142.388 10.0465L141.937 10.4663L141.036 11.3024L140.59 11.7186L140.15 12.1064C139.564 12.6222 138.979 13.138 138.394 13.6503C137.812 14.1519 137.231 14.6536 136.653 15.1516C136.55 15.0342 136.344 14.8101 136.241 14.6963C133.184 17.77 129.921 20.3528 126.675 22.9427C123.43 25.5397 120.195 28.1331 117.173 31.2033C117.461 31.0681 117.404 31.2816 117.418 31.399C117.404 31.4132 117.386 31.4274 117.372 31.4381C117.386 31.4239 117.4 31.4132 117.418 31.399C117.432 31.5021 117.5 31.5342 117.907 31.1855C117.5 31.5306 117.429 31.5021 117.418 31.399C120.589 28.6134 123.703 25.9701 126.835 23.3411C129.981 20.7192 133.131 18.0937 136.39 15.3829C131.407 19.6697 126.523 23.8712 121.607 28.1047C116.701 32.3275 111.771 36.5752 106.621 40.8692C106.182 41.2356 105.305 41.9685 104.866 42.3313C102.812 43.4377 100.953 44.7789 99.1907 46.2375C99.1375 45.277 96.3958 45.5402 100.113 42.8614C100.014 42.744 99.8185 42.5021 99.7192 42.3847C95.7077 44.7042 93.0192 44.1137 96.1369 40.7304C99.6944 36.9808 105.344 33.0746 109.945 28.7984C113.336 25.7425 116.709 22.6758 120.369 19.9508C125.416 16.226 130.502 11.6403 135.418 7.8871C135.854 7.53134 136.347 7.07598 136.805 6.58859C137.039 6.34312 137.277 6.09053 137.518 5.83795C137.635 5.71343 137.763 5.5818 137.866 5.46441C137.968 5.34345 138.071 5.22605 138.171 5.10865C138.582 4.61771 139.022 4.07696 139.465 3.62159C139.905 3.16623 140.345 2.80336 140.699 2.63615C141.604 2.12386 141.817 2.41558 141.944 2.77134C141.742 2.93499 141.537 3.10219 141.334 3.28718C141.129 3.47218 140.93 3.66428 140.753 3.84572C140.387 4.2157 140.058 4.58569 139.742 4.945C139.426 5.30076 139.128 5.64584 138.834 5.96246C138.557 6.26841 138.206 6.58859 137.89 6.90166L136.919 7.84797L135.901 8.78004C135.223 9.39906 134.549 10.0181 133.847 10.6193C130.396 13.5258 126.849 16.3505 123.221 19.072C126.849 16.5035 130.396 13.6468 133.847 10.6193C134.556 10.0323 135.244 9.43463 135.933 8.83341L136.968 7.9369L137.958 7.02617C138.277 6.72378 138.639 6.41427 138.926 6.119C139.228 5.8166 139.533 5.48575 139.852 5.14423C140.171 4.8027 140.504 4.4505 140.863 4.10186C141.214 3.75678 141.632 3.3868 142.03 3.08796C142.115 3.42593 142.228 3.76034 142.604 3.84572C142.604 3.84572 142.828 3.65717 143.115 3.4366C143.399 3.21959 143.743 2.95989 143.97 2.78557C145.094 2.41914 145.722 2.43693 146.045 2.77845C146.364 3.11286 146.314 3.80303 146.045 4.50387C145.889 4.8276 145.711 5.18692 145.53 5.54623L145.534 5.54267Z" fill="#FFFFFF"/>
<path d="M184.177 38.8129C183.829 38.9872 183.482 39.1651 183.138 39.3394C181.556 40.1505 179.953 40.9047 178.321 41.5949C177.913 41.7621 177.502 41.9329 177.094 42.1001C176.668 42.2708 176.225 42.438 175.799 42.5875C174.941 42.8898 174.097 43.1567 173.281 43.4164C172.465 43.6761 171.671 43.9322 170.919 44.2133C170.539 44.352 170.177 44.5014 169.816 44.6544C169.422 44.8358 169.028 45.0173 168.631 45.1987C166.932 45.9671 165.173 46.6324 163.375 47.2301C160.732 48.0874 157.866 48.6958 155.125 49.2543C153.748 49.5354 152.401 49.82 151.099 50.1295C150.773 50.2113 150.446 50.2896 150.124 50.3678C149.776 50.4496 149.432 50.5386 149.088 50.6097C148.403 50.7627 147.729 50.8908 147.07 51.0082C147.854 50.8908 148.648 50.7485 149.443 50.5884C150.202 50.4247 150.961 50.2611 151.723 50.0975C153.216 49.7915 154.752 49.5176 156.316 49.2081C157.881 48.8986 159.48 48.557 161.08 48.0946C161.481 47.9843 161.881 47.8562 162.282 47.7317C162.676 47.6 163.098 47.4577 163.463 47.3261C164.219 47.0557 164.974 46.7783 165.73 46.4865C166.485 46.1948 167.241 45.8924 167.993 45.5687L169.117 45.0742C169.521 44.8892 169.773 44.7754 170.11 44.6437C171.39 44.1279 172.827 43.7401 174.345 43.2954C175.104 43.0748 175.884 42.84 176.686 42.559L177.842 42.1356L178.963 41.6981C180.453 41.104 181.918 40.4529 183.35 39.7556C182.435 40.7269 181.208 41.7408 179.584 42.5199C178.583 42.9574 177.629 43.3523 176.526 43.7508C175.469 44.1243 174.469 44.4232 173.536 44.7113C172.603 44.9995 171.734 45.277 170.954 45.5794C170.756 45.6541 170.571 45.7323 170.383 45.8106L170.11 45.9316L169.794 46.0774C169.316 46.3015 168.833 46.5186 168.351 46.7285C168.287 46.5861 168.159 46.3087 168.099 46.1699C166.78 46.8316 165.449 47.4079 164.134 47.9238C163.499 48.1728 162.765 48.4503 162.055 48.6744C161.346 48.9057 160.636 49.1013 159.934 49.2828C157.114 49.9907 154.405 50.3643 151.844 50.8623L150.89 51.0544L149.879 51.2679C149.169 51.4173 148.467 51.5383 147.768 51.6592C146.375 51.8905 145.005 52.079 143.661 52.2818C142.317 52.4846 141.005 52.7051 139.728 52.9969C139.089 53.1392 138.465 53.3028 137.855 53.4878C137.245 53.6728 136.66 53.8791 136.011 54.1282C136.408 54.0961 136.223 54.2847 136.174 54.4021C136.149 54.4092 136.124 54.4163 136.099 54.4234C136.124 54.4163 136.149 54.4092 136.174 54.4021C136.124 54.5088 136.202 54.5551 136.826 54.3736C136.199 54.5551 136.124 54.5124 136.174 54.4021C136.819 54.1958 137.397 54.0285 137.993 53.872C138.596 53.719 139.206 53.5803 139.831 53.4558C141.079 53.2032 142.367 52.9969 143.686 52.7976C145.009 52.5949 146.36 52.3956 147.737 52.1502C148.425 52.0256 149.12 51.8905 149.822 51.7375L150.836 51.5062C151.141 51.4351 151.45 51.3639 151.762 51.2999C154.252 50.7592 156.909 50.3536 159.696 49.6883C160.392 49.5247 161.097 49.3361 161.803 49.1334C162.158 49.0266 162.513 48.9199 162.867 48.8025L163.91 48.4467C165.222 47.9843 166.56 47.4898 167.911 46.9277C166.868 47.3724 165.825 47.7815 164.797 48.1657L164.027 48.4503L163.229 48.7349C162.672 48.9341 162.115 49.112 161.559 49.2757C159.335 49.9374 157.16 50.3785 155.089 50.7947C154.053 51.0046 153.039 51.2074 152.053 51.428C151.56 51.5383 151.078 51.6521 150.592 51.7695C150.035 51.9047 149.478 52.0328 148.925 52.1466C146.719 52.602 144.583 52.8972 142.551 53.2281C140.508 53.5554 138.596 53.9111 136.784 54.459C135.844 54.7365 134.766 55.0923 133.599 55.384C132.787 55.5903 131.921 55.8963 130.974 56.2662C130.031 56.6327 129.009 57.056 127.878 57.4545C127.31 57.6501 126.721 57.8458 126.097 58.0094C125.569 58.1482 125.044 58.2869 124.515 58.4257C122.423 58.97 120.277 59.5214 118.049 59.991C117.677 60.0693 117.085 60.1938 116.535 60.2934C115.982 60.3966 115.425 60.5033 115.056 60.5744C113.534 60.6243 112.03 60.7523 110.537 60.9373C109.792 61.0298 109.04 61.1365 108.313 61.2504L107.192 61.4283C106.777 61.4923 106.338 61.5528 105.862 61.5955C106.284 61.165 105.547 60.6527 105.632 60.1938C105.671 59.9661 105.894 59.7669 106.476 59.5712C106.767 59.4716 107.146 59.3684 107.625 59.2653C108.083 59.1692 108.696 59.0589 109.434 58.9629C109.409 58.8099 109.356 58.5039 109.328 58.351C107.838 58.4292 106.522 58.4186 105.589 58.1767C105.125 58.0593 104.766 57.8814 104.55 57.6822C104.44 57.5825 104.373 57.4794 104.334 57.3798C104.291 57.2801 104.256 57.1699 104.245 57.0774C104.167 56.8639 104.174 56.6825 104.277 56.5366C104.32 56.4619 104.422 56.405 104.486 56.341C104.536 56.2698 104.607 56.2129 104.628 56.1346C104.72 55.85 105.21 55.6615 106.504 55.2595C106.852 55.1563 107.38 55.0282 107.771 54.9215C108.193 54.8183 108.618 54.7116 109.051 54.6013C109.92 54.3914 110.821 54.1958 111.747 54.0036C112.672 53.8115 113.619 53.6265 114.588 53.4451C115.574 53.2637 116.492 53.0858 117.461 52.8795C119.387 52.4703 121.387 51.9865 123.419 51.4707L124.182 51.275C124.402 51.2145 124.59 51.1683 124.803 51.1007C125.214 50.9762 125.643 50.8267 126.087 50.656C126.97 50.3216 127.913 49.9053 128.935 49.4856C129.68 49.1867 130.478 48.8914 131.336 48.6317L132.435 48.3187L133.411 48.0127C134.092 47.7957 134.837 47.5467 135.649 47.3226C136.454 47.0984 137.252 46.9063 138.039 46.7427C141.193 46.0881 144.168 45.807 146.924 45.4335C147.4 45.373 147.868 45.3019 148.336 45.2236L149.042 45.0955L149.854 44.9354C150.932 44.7255 152 44.5406 153.05 44.3556C155.146 43.9891 157.171 43.6227 159.072 43.1246C159.548 43.0001 160.016 42.8685 160.473 42.7262C160.704 42.6586 160.927 42.5768 161.158 42.5056C161.378 42.4345 161.644 42.3384 161.881 42.2566C162.86 41.9151 163.821 41.5664 164.758 41.2036C165.226 41.0221 165.691 40.8407 166.148 40.6521C166.634 40.4458 167.12 40.243 167.602 40.0403C168.72 39.5813 169.805 39.2576 170.834 38.9837C171.575 38.7666 172.415 38.4927 173.249 38.1832C173.66 38.0267 174.079 37.8666 174.469 37.6958C174.671 37.6104 174.856 37.5251 175.054 37.4361C175.257 37.3401 175.462 37.2476 175.661 37.1515C177.257 36.4009 178.64 35.6538 179.367 35.515C180.357 35.2127 180.559 35.4617 180.609 35.8637C179.584 36.4507 178.534 36.995 177.47 37.5002C176.938 37.7563 176.399 37.9947 175.856 38.2295C175.303 38.4714 174.803 38.667 174.249 38.8698C173.157 39.2647 172.004 39.6205 170.819 40.0225C170.227 40.2252 169.628 40.4387 169.025 40.6806C168.723 40.8016 168.422 40.9296 168.12 41.0613L167.273 41.4597C165.971 42.0432 164.637 42.5661 163.272 43.0535L162.243 43.4128L161.725 43.5871L161.232 43.7437C160.573 43.95 159.899 44.135 159.214 44.2986C156.48 44.9639 153.582 45.3161 150.574 45.8355C153.529 45.3872 156.409 45.0564 159.154 44.3947C160.534 44.0745 161.828 43.6405 163.233 43.1211C164.605 42.6159 165.957 42.0716 167.269 41.4562L168.12 41.0719C168.422 40.9439 168.723 40.8194 169.025 40.7055C169.628 40.4743 170.227 40.2715 170.816 40.0829C171.997 39.7023 173.146 39.3785 174.242 39.0086C174.799 38.8236 175.306 38.6386 175.852 38.4144C176.395 38.1974 176.934 37.9698 177.47 37.7314C178.541 37.2582 179.591 36.746 180.623 36.191C180.634 36.5503 180.651 36.9203 181.056 37.0412C181.056 37.0412 181.375 36.8598 181.772 36.6179C182.169 36.3795 182.638 36.0843 182.946 35.8815C184.393 35.3976 185.117 35.4261 185.39 35.8103C185.659 36.1874 185.461 36.9025 185.028 37.6602C184.783 38.0124 184.503 38.4073 184.173 38.8271L184.177 38.8129Z" fill="#FFFFFF"/>
<path d="M33.5818 73.5702C32.7305 75.1711 31.8793 76.772 31.0351 78.3587C26.8924 86.2137 22.7745 94.0653 18.646 101.995C16.5888 105.962 14.521 109.943 12.4426 113.952C11.4104 115.955 10.3783 117.965 9.33906 119.982C8.83186 120.985 8.32111 121.988 7.81391 122.992L7.6543 123.312C7.64366 123.337 7.62593 123.358 7.6011 123.376C7.55145 123.337 7.49115 123.639 7.43795 123.853L7.24996 124.738C7.21449 124.902 7.17548 125.066 7.12937 125.229C7.10454 125.311 7.07971 125.393 7.05134 125.471L7.03006 125.532C7.03006 125.532 6.99814 125.578 7.03006 125.582C7.06907 125.599 7.10809 125.61 7.1471 125.631C7.42021 125.781 7.6614 125.991 7.90258 126.201L8.21825 126.485L8.71836 126.941C9.05176 127.247 9.36743 127.549 9.68665 127.855C10.3215 128.463 10.9351 129.075 11.5452 129.687C12.744 130.907 13.9429 132.131 15.1488 133.358C16.3405 134.579 17.5323 135.795 18.724 136.966C19.3199 137.549 19.9193 138.118 20.501 138.641C20.6464 138.773 20.7918 138.901 20.9302 139.018C21.0756 139.147 21.2068 139.25 21.338 139.353L21.4374 139.431L21.5189 139.492L21.675 139.605C21.7034 139.62 21.7317 139.638 21.7566 139.659H21.7601C21.7601 139.659 21.7601 139.652 21.753 139.67L21.7211 139.719L21.5934 139.922C21.5118 140.061 21.4374 140.203 21.3664 140.345C21.2245 140.634 21.104 140.936 21.0082 141.249L22.2567 139.929C22.3773 140.007 22.5724 140.125 22.8064 140.246C23.037 140.367 23.2959 140.491 23.5619 140.616C24.0975 140.861 24.6685 141.103 25.2538 141.338C26.4207 141.808 27.6408 142.256 28.868 142.686C30.0952 143.113 31.3473 143.526 32.5851 143.903L33.0391 144.042L33.4718 144.163L33.6917 144.216C33.7627 144.223 33.8478 144.266 33.9116 144.216C34.0358 144.134 34.1564 144.045 34.277 143.953C34.5146 143.771 34.6919 143.629 35.0041 143.355C35.4545 142.957 35.9085 142.533 36.366 142.103C36.8271 141.655 37.2918 141.206 37.7564 140.755L38.5225 140.018C38.8808 139.687 39.0617 139.541 39.2957 139.328C40.4059 138.343 41.4629 137.258 42.5056 136.08C43.027 135.493 43.5449 134.885 44.0627 134.262L44.46 133.782L44.9104 133.255C45.2048 132.921 45.4956 132.597 45.7829 132.28C46.9428 131.01 48.1061 129.787 49.2837 128.556C50.0711 127.734 50.862 126.912 51.653 126.09C52.5361 125.18 53.4193 124.269 54.3096 123.355C56.1362 124.436 57.9664 125.528 59.7894 126.638C61.0521 127.414 62.2545 128.161 63.4923 128.94C64.7196 129.715 65.9468 130.505 67.174 131.32C67.7876 131.726 68.4012 132.145 69.0148 132.569L69.937 133.223C70.0895 133.33 70.2456 133.451 70.4016 133.565L70.813 133.874C70.9975 134.027 71.2138 134.134 71.4373 134.216C71.6146 134.283 71.8948 134.383 72.2176 134.529L72.4517 134.639L72.5687 134.696L72.661 134.746L73.0192 134.938C73.9626 135.454 74.8139 136.019 75.6155 136.574C77.2151 137.688 78.6303 138.773 80.0278 139.549C80.2016 139.645 80.3754 139.744 80.5491 139.826L80.8081 139.958L81.1025 140.096C81.4962 140.281 81.8934 140.459 82.2942 140.634C83.0922 140.979 83.9045 141.295 84.7202 141.587C86.3553 142.17 88.0224 142.647 89.7071 143.017C91.3919 143.387 93.0873 143.647 94.7862 143.8C95.6339 143.875 96.4816 143.924 97.3293 143.946C97.7514 143.956 98.1734 143.96 98.5955 143.956L99.2836 143.949L100.028 143.96C100.514 143.974 100.983 143.995 101.447 144.02C101.883 144.049 102.32 144.077 102.756 144.102L103.423 144.152C103.643 144.173 103.87 144.184 104.086 144.138C104.522 144.049 104.912 143.778 105.15 143.409C105.271 143.224 105.349 143.014 105.384 142.797C105.402 142.69 105.405 142.58 105.416 142.469C105.427 142.359 105.448 142.252 105.469 142.146C105.444 142.256 105.423 142.366 105.409 142.48C105.398 142.59 105.395 142.704 105.37 142.814C105.327 143.035 105.235 143.248 105.104 143.43C104.845 143.8 104.43 144.052 103.983 144.113C103.76 144.148 103.533 144.113 103.313 144.095L102.596 144.031C101.664 143.96 100.734 143.899 99.7411 143.871C99.4929 143.864 99.2304 143.864 98.9715 143.864H98.3366C97.911 143.86 97.4889 143.85 97.0633 143.832C96.2156 143.796 95.3643 143.736 94.5202 143.647C92.8283 143.469 91.1436 143.188 89.4801 142.797C87.8166 142.409 86.178 141.914 84.5748 141.32C83.7732 141.025 82.9823 140.701 82.1984 140.356C81.8083 140.182 81.4217 140.004 81.0351 139.819C80.8329 139.726 80.691 139.645 80.5137 139.556C80.347 139.47 80.1767 139.367 80.0065 139.275C78.648 138.492 77.2612 137.418 75.6793 136.308C74.8884 135.753 74.0371 135.187 73.0972 134.671L72.739 134.479C72.6113 134.411 72.434 134.323 72.2779 134.255C72.1112 134.18 71.9658 134.12 71.8345 134.07L71.5153 133.945C71.3167 133.871 71.1287 133.775 70.9656 133.636L70.5612 133.33C70.4052 133.213 70.2491 133.092 70.1001 132.985L69.1815 132.327C68.5714 131.903 67.9614 131.484 67.3513 131.078C66.1312 130.263 64.9075 129.47 63.6803 128.694C62.4496 127.915 61.2295 127.154 59.9845 126.389C58.0905 125.229 56.1752 124.091 54.2564 122.96L50.5038 126.848L47.7763 129.723C46.9711 130.58 46.1695 131.441 45.3644 132.341L44.7543 133.031C44.5557 133.259 44.3252 133.54 44.1372 133.764L43.059 135.07C42.3389 135.927 41.6118 136.749 40.8705 137.528C40.4981 137.916 40.1186 138.296 39.7356 138.663C39.544 138.848 39.3489 139.026 39.1539 139.203L38.4871 139.805C37.9728 140.289 37.5897 140.68 37.1712 141.089C36.7633 141.491 36.3661 141.879 35.9653 142.259L35.3658 142.822L34.809 143.323L34.504 143.583C34.4117 143.661 34.316 143.736 34.2202 143.811C34.1103 143.896 33.9968 143.978 33.8797 144.056C33.823 144.106 33.7449 144.067 33.6775 144.063L33.4718 144.017L33.0675 143.907L32.6383 143.778C32.0637 143.604 31.4146 143.401 30.8081 143.202C30.191 142.999 29.5738 142.793 28.9567 142.58C27.7295 142.153 26.5094 141.708 25.3353 141.235C24.7501 141 24.172 140.755 23.6329 140.506C23.3668 140.381 23.1044 140.257 22.8738 140.136C22.6397 140.015 22.4411 139.894 22.3276 139.819L21.0117 141.242C21.1075 140.932 21.2245 140.634 21.3629 140.349C21.4338 140.207 21.5083 140.064 21.5863 139.929L21.7105 139.726L21.7743 139.627L21.8098 139.556C21.8204 139.534 21.8098 139.549 21.8133 139.541C21.792 139.524 21.7672 139.506 21.7424 139.492C21.7105 139.47 21.6431 139.417 21.597 139.385C21.5473 139.349 21.4906 139.31 21.4232 139.253C21.2955 139.15 21.1678 139.051 21.0259 138.926C20.8876 138.809 20.7493 138.688 20.6038 138.556C20.0293 138.04 19.4369 137.475 18.8482 136.891C17.6671 135.724 16.4824 134.508 15.2978 133.284C14.0954 132.049 12.8965 130.815 11.6977 129.584C11.0841 128.965 10.4705 128.346 9.83562 127.727C9.5164 127.417 9.19718 127.108 8.86378 126.798L8.05155 126.051C7.83874 125.859 7.62593 125.667 7.38829 125.528C7.35637 125.507 7.3209 125.5 7.28898 125.482C7.2606 125.482 7.28898 125.454 7.28898 125.439L7.31026 125.386C7.33863 125.315 7.36346 125.24 7.38474 125.169C7.43085 125.023 7.46987 124.877 7.50179 124.728L7.68977 123.91C7.74298 123.707 7.80327 123.39 7.84938 123.458C7.87066 123.447 7.88485 123.436 7.89549 123.422L8.05155 123.12C8.56584 122.124 9.08368 121.128 9.59798 120.131C10.6514 118.125 11.7013 116.126 12.7511 114.13C14.8686 110.138 16.9719 106.164 19.0681 102.208C23.2888 94.3072 27.467 86.4877 31.5849 78.7713C29.3752 84.3247 26.5271 90.8528 22.7781 98.2205C20.2669 103.037 17.7628 107.84 15.2694 112.618C14.028 115.005 12.7937 117.392 11.5558 119.769C10.9529 120.946 10.3464 122.124 9.7434 123.301L9.3426 124.091C9.36034 124.048 9.36743 123.998 9.36388 123.949L9.35679 123.91V123.899L7.10809 123.28C6.32424 123.07 5.54038 122.867 4.75298 122.668C3.42646 122.323 13.6556 125.009 9.3497 123.881V123.895L9.30714 124.052L9.22201 124.411L9.17236 124.632C9.17236 124.632 9.16171 124.664 9.15462 124.682L9.12979 124.749C9.12979 124.77 9.09078 124.803 9.1227 124.806C9.15462 124.831 9.18654 124.863 9.21846 124.895C9.21846 124.895 9.2362 124.909 9.22556 124.902L9.4561 125.112L9.98104 125.596C10.3286 125.916 10.6549 126.233 10.9848 126.549C11.641 127.183 12.2652 127.809 12.8895 128.431C14.1025 129.669 15.312 130.904 16.5179 132.138C17.7061 133.358 18.8836 134.561 20.0434 135.696C20.6216 136.261 21.1962 136.809 21.7353 137.29C21.8736 137.414 22.0013 137.524 22.1219 137.627C22.2531 137.745 22.3595 137.823 22.4659 137.909C22.5262 137.958 22.5617 137.983 22.5936 138.008L22.6468 138.047C22.6468 138.047 22.6929 138.086 22.6788 138.072L22.6717 138.065L22.6504 138.101L22.4801 138.375C22.2567 138.741 22.0474 139.118 21.8488 139.502C21.824 139.545 21.7991 139.605 21.7779 139.638L21.714 139.737L21.5899 139.936C21.5118 140.072 21.4374 140.21 21.3664 140.353C21.2281 140.637 21.111 140.932 21.0188 141.238L20.7706 142.05L23.2214 138.488C23.3101 138.36 23.2782 138.414 23.2888 138.403H23.2959L23.3065 138.414L23.3314 138.431L23.4449 138.496C23.4768 138.517 23.5371 138.545 23.5903 138.577L23.7605 138.666C23.6612 138.866 23.4697 139.25 23.3739 139.445C24.2536 139.865 25.3673 140.299 26.4597 140.701C27.5663 141.103 28.6978 141.491 29.8363 141.857L31.5423 142.395L32.3936 142.651L33.0214 142.832C33.1774 142.871 33.298 142.903 33.4364 142.932L33.5392 142.95C33.5747 142.957 33.6101 142.957 33.635 142.928C33.6917 142.886 33.7449 142.843 33.7981 142.8L33.9471 142.672L34.128 142.508L34.66 142.018L35.2452 141.459L36.437 140.281L37.0612 139.655C37.2811 139.435 37.4939 139.225 37.7954 138.94L38.4445 138.346C38.6325 138.172 38.8169 137.994 39.0014 137.816C39.3702 137.457 39.732 137.087 40.0938 136.706C40.8138 135.941 41.5161 135.134 42.2219 134.287L43.2824 132.992C43.7151 132.462 44.1407 131.971 44.5415 131.523C45.3538 130.612 46.1518 129.748 46.9569 128.887C47.911 127.88 48.8616 126.877 49.8122 125.873C51.2344 124.401 52.6532 122.931 54.0719 121.458C56.2674 122.757 58.4629 124.055 60.63 125.379C61.875 126.144 63.1057 126.912 64.3365 127.698C65.5673 128.481 66.7945 129.281 68.0252 130.103C68.6388 130.512 69.256 130.939 69.8731 131.37L70.806 132.042C70.9585 132.149 71.1216 132.277 71.2812 132.394L71.6749 132.693C71.753 132.761 71.8416 132.811 71.9374 132.853L72.512 133.081C72.661 133.141 72.8454 133.227 73.0085 133.302L73.2497 133.422L73.4306 133.519C74.3599 134.017 75.1899 134.554 75.956 135.08C77.4811 136.137 78.7651 137.144 79.9639 137.905C80.2619 138.097 80.5562 138.275 80.84 138.431C81.1344 138.599 81.3756 138.72 81.748 138.898C82.4361 139.228 83.1348 139.538 83.8442 139.83C85.2594 140.409 86.7065 140.911 88.182 141.324C91.1294 142.153 94.1762 142.644 97.2335 142.765C97.6166 142.779 97.9996 142.789 98.3792 142.793H99.3262L99.695 142.8C100.653 142.825 101.529 142.882 102.408 142.946L102.869 142.982L103.057 142.999C103.182 143.01 103.306 143.031 103.433 143.035C103.685 143.035 103.941 142.942 104.125 142.768C104.313 142.597 104.427 142.348 104.441 142.096C104.441 142.032 104.455 141.968 104.469 141.907L104.522 141.662L104.682 140.979C104.7 140.861 104.717 140.758 104.739 140.651C104.888 139.794 104.724 138.915 104.309 138.136C104.09 137.756 103.816 137.407 103.497 137.108C103.171 136.816 102.799 136.592 102.408 136.418C102.306 136.382 102.206 136.343 102.107 136.301C102.004 136.272 101.898 136.251 101.791 136.222C101.688 136.183 101.578 136.18 101.468 136.165L101.305 136.14C101.273 136.137 101.259 136.13 101.217 136.126L101.046 136.112C100.145 136.034 99.2375 135.934 98.3047 135.799C97.3719 135.66 96.4178 135.489 95.3856 135.215C95.1267 135.148 94.8642 135.07 94.5876 134.977L94.2613 134.87C94.201 134.853 94.1478 134.831 94.0804 134.813C93.8321 134.739 93.5484 134.675 93.1866 134.604C92.8283 134.532 92.3956 134.461 91.8707 134.351C91.3493 134.241 90.7357 134.088 90.0902 133.839C89.927 133.771 89.7674 133.711 89.6043 133.636L89.3631 133.522L89.1503 133.415L88.5331 133.095C88.1252 132.878 87.7209 132.658 87.3236 132.43C85.7275 131.526 84.1989 130.552 82.7092 129.527C81.9643 129.015 81.2301 128.485 80.5066 127.94C80.1448 127.67 79.783 127.392 79.4248 127.115L78.8892 126.692L78.3146 126.226C78.2011 126.129 78.0983 126.026 77.9883 125.93C77.889 125.838 77.7507 125.71 77.701 125.656L77.2931 125.24L76.5448 124.457L75.0976 122.921C74.1471 121.9 73.193 120.879 72.2389 119.854L70.8095 118.317L68.9084 116.254C67.2662 114.457 65.6169 112.657 63.9676 110.857C64.7621 110.017 65.6134 109.174 66.4398 108.327C67.2733 107.477 68.121 106.627 68.99 105.777C67.7025 106.933 67.3761 107.161 67.4223 107.004C67.4684 106.851 67.9011 106.317 68.1068 106.019C68.2841 105.844 68.4579 105.681 68.6211 105.521C68.4544 105.681 68.2841 105.844 68.1068 106.019C66.4433 107.641 64.826 109.267 63.2724 110.832C65.0033 112.753 66.7342 114.671 68.4579 116.581C69.5823 117.819 70.7031 119.053 71.8204 120.284C72.7674 121.32 73.7144 122.351 74.6507 123.376C75.1296 123.892 75.6048 124.404 76.0801 124.916L76.825 125.703L77.2328 126.126L77.286 126.179L77.3676 126.258L77.5379 126.418C77.6549 126.521 77.7649 126.631 77.8819 126.734L78.4707 127.215L79.0098 127.645C79.3716 127.93 79.7334 128.211 80.0987 128.485C80.8294 129.036 81.5671 129.577 82.319 130.096C83.8229 131.142 85.3658 132.131 86.9831 133.049C87.3875 133.28 87.7989 133.504 88.2103 133.728L88.8346 134.056L89.0687 134.17L89.3311 134.294C89.5049 134.372 89.6787 134.44 89.8525 134.511C90.5477 134.778 91.2003 134.938 91.7395 135.052C92.2821 135.166 92.7184 135.237 93.0624 135.304C93.41 135.372 93.669 135.432 93.8853 135.497C93.9279 135.504 94.7224 135.781 95.2154 135.906C96.2901 136.19 97.2654 136.365 98.216 136.507C99.1666 136.646 100.089 136.745 101 136.823L101.171 136.838L101.238 136.852L101.373 136.873C101.461 136.884 101.554 136.888 101.635 136.92C101.72 136.944 101.805 136.959 101.891 136.984C101.969 137.019 102.05 137.051 102.135 137.08C102.451 137.225 102.756 137.403 103.026 137.642C103.284 137.891 103.511 138.175 103.696 138.488C104.036 139.129 104.178 139.844 104.058 140.552C104.036 140.648 104.029 140.715 104.012 140.833L103.852 141.53L103.816 141.694C103.809 141.729 103.802 141.768 103.802 141.804C103.795 141.953 103.731 142.099 103.621 142.199C103.515 142.302 103.366 142.359 103.217 142.359L102.447 142.299C101.564 142.238 100.681 142.185 99.7021 142.167H98.3792C98.0032 142.167 97.6272 142.16 97.2513 142.146C94.2435 142.042 91.2429 141.576 88.3309 140.776C86.8767 140.377 85.4438 139.89 84.0463 139.324C83.3476 139.04 82.656 138.737 81.975 138.417C81.6026 138.239 81.3827 138.129 81.0918 137.969C80.8152 137.82 80.5314 137.649 80.2406 137.46C79.0666 136.724 77.7862 135.724 76.2362 134.66C75.4594 134.13 74.6117 133.586 73.6612 133.077L73.4767 132.978L73.2214 132.85C73.0511 132.768 72.856 132.682 72.7 132.618L72.1289 132.394C72.0686 132.369 72.0119 132.337 71.9622 132.295L71.5721 131.999C71.4125 131.878 71.2458 131.75 71.0932 131.644L70.1533 130.971C69.5326 130.541 68.9119 130.11 68.2948 129.701C67.0605 128.876 65.8297 128.075 64.5954 127.296C63.3611 126.514 62.1268 125.742 60.8819 124.977C58.6083 123.586 56.3029 122.223 54.001 120.861C52.5113 122.401 51.0216 123.942 49.532 125.482C48.5601 126.503 47.5883 127.524 46.6164 128.545C45.8078 129.402 45.0062 130.267 44.1833 131.178C43.779 131.626 43.3498 132.12 42.9029 132.658L41.8388 133.942C41.133 134.781 40.4307 135.575 39.7143 136.322C39.356 136.695 38.9943 137.055 38.6289 137.407C38.4445 137.581 38.2601 137.756 38.0756 137.923L37.423 138.51C37.1038 138.801 36.891 139.015 36.6675 139.232L36.0362 139.855C35.6283 140.257 35.2346 140.641 34.8409 141.011L34.2557 141.559L33.7343 142.028L33.6598 142.089L33.6172 142.121L33.5428 142.174C33.4966 142.195 33.4576 142.256 33.4009 142.224C33.3477 142.21 33.298 142.192 33.2484 142.174L33.1384 142.138L32.5106 141.946L31.0777 141.487C29.1659 140.854 27.2294 140.164 25.4524 139.424C27.2258 140.153 29.1589 140.84 31.0742 141.466L32.5106 141.921L33.2519 142.149C33.298 142.163 33.3477 142.181 33.3973 142.192C33.4505 142.217 33.486 142.16 33.5286 142.138L33.596 142.089L33.7024 142L34.2131 141.537L34.7948 140.993C35.1849 140.619 35.5751 140.239 35.9794 139.837L36.6037 139.218C36.8236 139.001 37.0399 138.784 37.345 138.503L38.0118 137.901C38.1962 137.734 38.3807 137.56 38.5616 137.386C38.9233 137.037 39.2816 136.674 39.6398 136.304C40.3492 135.557 41.0479 134.764 41.7502 133.924L42.8071 132.636C43.0058 132.398 43.2576 132.088 43.4597 131.857L44.084 131.146C44.9033 130.228 45.7085 129.36 46.5136 128.495L49.4326 125.411L53.9762 120.694C56.3029 122.067 58.6403 123.436 60.9493 124.845C62.2084 125.614 63.4356 126.375 64.677 127.154C65.9149 127.933 67.1527 128.726 68.3906 129.552C69.0113 129.961 69.6355 130.388 70.2597 130.818L71.2067 131.491C71.3628 131.601 71.5295 131.726 71.6891 131.846L72.0793 132.138C72.1183 132.17 72.1609 132.192 72.207 132.209L72.7886 132.437C72.9482 132.505 73.1504 132.594 73.3242 132.675L73.5796 132.803L73.7676 132.903C74.7323 133.415 75.5907 133.963 76.3745 134.497C77.9387 135.564 79.2262 136.56 80.3895 137.282C80.6804 137.464 80.9606 137.631 81.2337 137.777C81.372 137.859 81.5033 137.916 81.638 137.987L81.7373 138.037L81.8615 138.097L82.1169 138.218C82.7979 138.538 83.4895 138.837 84.1882 139.115C85.5857 139.673 87.0186 140.15 88.4693 140.541C91.3777 141.324 94.3748 141.768 97.3683 141.854C97.7443 141.865 98.1167 141.868 98.4927 141.868H99.0885C99.3652 141.861 99.617 141.865 99.8617 141.868C100.841 141.889 101.727 141.943 102.614 142.003L102.972 142.028C103.022 142.028 103.072 142.039 103.121 142.035C103.221 142.032 103.316 141.985 103.384 141.911C103.451 141.84 103.487 141.74 103.487 141.64L103.497 141.566L103.565 141.256L103.646 140.908L103.685 140.737L103.692 140.673C103.703 140.591 103.717 140.509 103.738 140.431C103.767 140.111 103.763 139.798 103.707 139.485C103.632 139.175 103.515 138.876 103.359 138.592C103.018 138.037 102.515 137.585 101.937 137.378C101.862 137.361 101.798 137.307 101.717 137.3C101.639 137.286 101.564 137.265 101.49 137.24C101.412 137.222 101.33 137.225 101.252 137.208L101.124 137.183L100.78 137.154C99.8653 137.073 98.936 136.973 97.9748 136.827C97.0101 136.678 96.024 136.503 94.9174 136.194C94.6408 136.116 94.3535 136.03 94.0555 135.927L93.8534 135.859C93.8108 135.842 93.7541 135.831 93.7044 135.813C93.4916 135.753 93.2327 135.696 92.8745 135.628C92.5162 135.561 92.0622 135.486 91.4876 135.358C90.9166 135.233 90.2285 135.045 89.512 134.753C89.3347 134.682 89.1538 134.604 88.9729 134.515L88.7034 134.383L87.923 133.974C87.5116 133.75 87.1002 133.526 86.6994 133.294C85.0891 132.373 83.5498 131.384 82.0566 130.342C81.3082 129.822 80.574 129.285 79.8504 128.734C79.4851 128.46 79.1269 128.179 78.7686 127.898L78.2331 127.471L77.6443 126.99C77.5201 126.884 77.4031 126.766 77.2825 126.656C77.1725 126.553 77.0165 126.407 76.9704 126.354L76.5518 125.92L75.7964 125.119L74.3528 123.561L71.5153 120.459C68.614 117.243 65.7091 114.023 62.8007 110.8C64.4287 109.167 66.0461 107.538 67.7131 105.912L68.9758 104.702L70.1498 103.607L70.8769 102.948L71.5756 102.34C73.4377 100.714 75.2998 99.0885 77.1655 97.4627C81.0989 93.9585 85.0714 91.0449 88.4409 87.9142C88.863 87.5229 89.2744 87.1316 89.6752 86.7367L90.0973 86.3276C90.2569 86.1782 90.4094 86.0394 90.5655 85.9042C90.8705 85.6374 91.1684 85.3919 91.4522 85.1643C92.0232 84.7089 92.5517 84.3176 93.0163 83.9618L94.4563 82.8305C96.0844 81.5498 97.7159 80.2655 99.3475 78.9777C99.5319 78.8318 99.688 78.6966 99.8547 78.5543L100.096 78.348L100.124 78.3231C100.124 78.3231 100.099 78.3231 100.089 78.3195H100.004L99.8369 78.3053C99.7057 78.2946 99.5744 78.2875 99.4432 78.2733L99.2375 78.2519L98.8438 78.1986L98.7445 78.1843L98.2444 78.1025L97.0704 77.9068C96.2865 77.7788 95.5027 77.6507 94.7188 77.4906C93.935 77.3341 93.1511 77.1953 92.3673 77.021L90.0157 76.4909C83.7626 74.9754 77.4882 72.7697 71.643 69.4612C69.8873 68.5007 67.3336 66.882 64.9395 65.0463C62.5312 63.2213 60.3215 61.1757 58.9063 59.7669C57.3208 58.0379 55.8383 56.2378 54.4302 54.4057C53.0504 52.5557 51.7274 50.6845 50.4967 48.7741C50.1775 48.3009 49.8902 47.8171 49.5852 47.3368L48.9254 46.2838L48.8935 46.2162L48.6133 45.6185L48.1309 44.601L48.0458 44.4196L47.982 44.2809C47.982 44.2809 47.9713 44.3022 47.9642 44.3093L47.5457 45.1631L47.035 46.0845L46.2547 47.6072L45.2403 49.6279C44.5699 50.9762 43.9066 52.3316 43.254 53.6906C43.5555 51.8122 41.6367 53.9147 41.2642 53.2423C41.0798 52.9079 41.2749 51.8691 42.3567 49.2935C42.6262 48.6495 42.9561 47.9096 43.3462 47.0629C43.5449 46.6395 43.7577 46.1913 43.9847 45.7074C44.1939 45.2805 44.4138 44.8252 44.6479 44.3413C45.0629 43.4946 45.5453 42.5519 46.0809 41.5131C46.5881 40.46 47.0811 39.2789 47.6167 38.0231C47.6308 37.9875 47.6486 37.9449 47.6663 37.9022C47.645 37.4326 47.5989 36.4969 47.5776 36.0273C47.5564 36.0771 47.5351 36.1234 47.5138 36.1661C46.8541 37.614 46.2121 39.0584 45.4389 40.4423C44.6054 41.8724 43.8109 43.2421 43.0554 44.537C41.5161 47.1803 40.1257 49.5318 38.902 51.5525C36.4547 55.5939 34.66 58.3118 33.635 59.3507C32.617 60.3823 32.3475 59.7598 33.0781 57.1414C33.8123 54.5302 35.5432 49.9409 38.6715 43.1958L38.9552 42.5946L39.0971 42.2922L39.356 41.7586C39.7249 41.0115 40.0938 40.2608 40.4627 39.5066C40.8422 38.7595 41.1827 37.9449 41.5515 37.1586L41.8246 36.561L42.0871 35.9099C42.2645 35.4759 42.4383 35.0383 42.6156 34.6043C43.9989 31.0823 45.407 27.5034 46.8434 23.8569C47.0066 24.1131 47.1768 24.4297 47.3506 24.7357L47.8649 25.6535C48.209 26.269 48.5566 26.888 48.9006 27.507C49.6064 28.7664 50.3158 30.0364 51.0287 31.31C51.7452 32.6014 52.4723 33.875 53.2029 35.1593C53.5683 35.8032 53.9336 36.4471 54.3025 37.0946C54.682 37.7136 55.065 38.3326 55.4481 38.9516C55.8312 39.5742 56.2178 40.1968 56.6008 40.8194L56.7462 41.0542L56.8172 41.168L56.8562 41.2249L57.0052 41.449L57.3066 41.8973C57.7074 42.495 58.1047 43.0998 58.5268 43.6796C58.9453 44.2666 59.3532 44.8643 59.793 45.4371C60.2257 46.0134 60.6549 46.6004 61.1089 47.1589C64.6876 51.709 68.8694 55.818 73.8066 59.0554C78.7403 62.2963 84.4152 64.6728 90.4945 66.3092C93.5342 67.1275 96.6625 67.7892 99.8511 68.2837L100.234 68.3477L100.67 68.4011L105.324 68.9987L105.909 69.0699L106.548 69.1233L109.098 69.3331C112.46 69.6284 115.996 69.8561 119.437 70.1051L117.639 72.7199L117.337 73.154L116.989 73.5951C116.06 74.7762 115.131 75.9573 114.205 77.1349C113.279 78.316 112.354 79.4935 111.428 80.6711L109.757 82.8092L108.807 84.0294C108.683 84.2393 108.406 84.4136 108.179 84.6022L107.477 85.1536C105.182 86.9715 102.891 88.7858 100.61 90.5931L99.1524 91.7528C98.6239 92.162 98.1522 92.5177 97.7514 92.8415C97.3506 93.1616 97.0101 93.4569 96.7795 93.6917L96.1056 94.357C95.868 94.5953 95.6304 94.8159 95.3927 95.0436C91.4628 98.747 87.3946 101.75 83.947 104.866L77.6478 110.419C77.4031 110.633 77.2187 110.807 76.9952 111.01L76.8356 111.159C76.8356 111.159 76.8285 111.166 76.825 111.17V111.177L76.8179 111.188C76.8108 111.202 76.8072 111.213 76.8108 111.223C76.8285 111.234 76.8427 111.241 76.8533 111.245H76.8569C76.8569 111.245 76.8498 111.234 76.8888 111.28L77.5911 112.049L78.9921 113.586L81.7941 116.645L83.1845 118.146L83.8584 118.861L84.1563 119.171C84.2272 119.246 84.1953 119.206 84.2024 119.217L84.5997 119.544L85.0643 119.914L86.0078 120.644C86.6426 121.124 87.2882 121.594 87.9408 122.049C89.246 122.956 90.5796 123.814 91.9203 124.575C92.2538 124.767 92.5907 124.952 92.9241 125.126L93.1759 125.258C93.2114 125.286 93.2717 125.286 93.2894 125.34C93.3072 125.304 93.2965 125.329 93.3001 125.322C93.3001 125.322 93.3143 125.329 93.3462 125.343C93.41 125.368 93.5803 125.418 93.9066 125.482C94.2293 125.546 94.6904 125.628 95.2473 125.745C95.8041 125.863 96.4497 126.023 97.1094 126.25L97.3789 126.343C97.4215 126.361 97.4854 126.379 97.5386 126.396C97.6556 126.432 97.7833 126.467 97.9252 126.503C98.4927 126.645 99.1914 126.773 99.9256 126.877C100.291 126.93 100.667 126.976 101.053 127.015L101.632 127.076L101.926 127.104L102.454 127.172C103.909 127.335 105.352 127.798 106.668 128.47C109.328 129.801 111.407 132.088 112.602 134.757C113.184 136.101 113.542 137.549 113.655 139.015C113.673 139.381 113.687 139.751 113.691 140.118C113.68 140.484 113.652 140.851 113.62 141.217C113.599 141.583 113.528 141.939 113.464 142.299C113.4 142.633 113.308 143.095 113.276 143.202L113.212 143.473L113.18 143.601L113.116 143.903C113.06 144.33 113.035 144.771 112.939 145.187C112.861 145.614 112.74 145.991 112.613 146.365C112.556 146.557 112.471 146.735 112.396 146.92C112.325 147.105 112.23 147.279 112.137 147.457C111.403 148.869 110.247 150.072 108.86 150.858C108.222 151.224 107.534 151.502 106.824 151.69C106.115 151.886 105.391 151.964 104.622 151.961C103.852 151.954 103.065 151.854 102.284 151.794L101.078 151.698C100.326 151.644 99.617 151.602 99.007 151.598C98.099 151.598 97.1945 151.573 96.2901 151.52C92.6687 151.313 89.0616 150.698 85.5573 149.68C83.8052 149.172 82.0743 148.571 80.3824 147.866C79.5348 147.514 78.6977 147.137 77.8713 146.738L77.5521 146.582L77.1938 146.397C76.9526 146.276 76.7256 146.148 76.4986 146.02C76.0446 145.764 75.6119 145.5 75.2005 145.237C73.5548 144.177 72.207 143.11 71.0046 142.288C70.4052 141.875 69.8483 141.519 69.3269 141.242L69.2276 141.185C69.2276 141.185 69.2205 141.178 69.1779 141.16L68.5608 140.918C67.8337 140.626 67.1456 140.246 66.5285 139.762L66.0603 139.406C65.9361 139.314 65.8191 139.218 65.6808 139.122L64.8792 138.545C64.3259 138.158 63.769 137.773 63.1944 137.389C62.0488 136.621 60.8748 135.856 59.6866 135.098C58.5019 134.344 57.296 133.586 56.0972 132.85L55.5651 132.501L55.1998 132.85L55.0721 132.978L54.4763 133.6L53.2952 134.849C52.5149 135.678 51.7345 136.514 51.0039 137.329L50.4754 137.926C50.2945 138.133 50.181 138.271 49.9966 138.492L48.8368 139.89C48.0494 140.826 47.2123 141.772 46.3256 142.697C45.8822 143.159 45.4212 143.618 44.953 144.067C44.7189 144.291 44.4777 144.515 44.2365 144.735L43.6229 145.283L43.0873 145.796L42.4702 146.4C42.0481 146.813 41.6118 147.24 41.1614 147.667L40.4768 148.307L40.1222 148.627L39.7001 149.001L39.1397 149.488L38.5332 149.983C38.1324 150.321 37.7068 150.613 37.2918 150.926C37.0399 151.079 36.7881 151.224 36.5327 151.363C36.2738 151.47 36.0114 151.559 35.7489 151.655L35.6496 151.69L35.6248 151.701C35.607 151.634 35.6567 151.858 35.5822 151.545H35.5751L35.5609 151.552L35.5077 151.57L35.3055 151.626L34.9012 151.733L34.5926 151.808H34.4862C34.3408 151.794 34.1989 151.794 34.057 151.779C33.4754 151.723 32.8866 151.587 32.2978 151.441C32.0034 151.37 31.7126 151.281 31.4182 151.203L30.5811 150.961L29.5455 150.641L28.5452 150.317C27.882 150.1 27.2187 149.876 26.5626 149.645C25.2431 149.182 23.9379 148.699 22.6078 148.161C21.941 147.891 21.2742 147.606 20.579 147.286C20.2279 147.123 19.8732 146.952 19.4937 146.753C19.1177 146.553 18.7063 146.326 18.2133 145.998L19.0787 146.443C18.9262 146.383 18.7772 146.315 18.6283 146.244L18.4083 146.137C18.3445 146.105 18.2452 146.055 18.2133 146.034C18.0324 145.927 17.855 145.813 17.6777 145.7C17.5145 145.593 17.4046 145.507 17.2663 145.408L17.0712 145.262L16.9045 145.13C16.681 144.952 16.4647 144.778 16.2767 144.615C16.0781 144.444 15.8901 144.28 15.7127 144.116C14.9892 143.465 14.3366 142.829 13.6981 142.195C12.4284 140.932 11.226 139.677 10.0378 138.435C8.86023 137.208 7.68977 135.984 6.51931 134.767C5.93763 134.173 5.35949 133.579 4.7849 133.01C4.49761 132.729 4.21031 132.441 3.93011 132.174L3.50804 131.775L3.2633 131.551L3.05404 131.366C3.01148 131.345 3.00793 131.284 2.99729 131.231L2.96182 131.074C2.28437 129.876 1.6885 128.847 1.17776 128.09C1.13165 128.019 1.09263 127.969 1.05007 127.912C1.0146 127.851 0.950759 127.812 0.943665 127.727C0.90465 127.581 0.862088 127.424 0.815979 127.261C0.720214 126.93 0.610261 126.581 0.479028 126.183C0.351341 125.802 0.209467 125.404 0.0214844 124.902C0.149171 124.511 0.237842 124.119 0.315873 123.721C0.390357 123.358 0.464841 122.992 0.539324 122.622C0.599621 122.351 0.663464 122.067 0.741495 121.764C0.762776 121.643 0.858541 121.391 0.947212 121.17C1.03588 120.946 1.13165 120.722 1.23096 120.501L1.38347 120.174L1.64239 119.655C1.75944 119.423 1.87649 119.189 1.99353 118.954C2.22762 118.488 2.46526 118.015 2.70645 117.538C3.6641 115.642 4.66431 113.65 5.68935 111.615C7.72879 107.552 9.85335 103.311 11.8751 99.2806C15.922 91.2299 19.5717 84.0472 21.487 80.9663C24.1542 76.3878 24.6544 76.4056 24.7572 77.3625C20.8131 85.0896 16.869 92.8094 12.9427 100.501C10.9706 104.347 9.00565 108.182 7.04425 112.01C6.06532 113.927 5.08638 115.845 4.111 117.755C3.62508 118.723 3.13916 119.687 2.65325 120.654C2.60714 120.743 2.49719 120.982 2.41206 121.167C2.32694 121.362 2.24181 121.562 2.16378 121.761C2.06802 121.981 2.05738 122.099 2.01127 122.259L1.90841 122.7L1.81619 123.141L1.70269 123.71C1.62821 124.091 1.55018 124.472 1.44022 124.852C1.57855 125.457 1.68496 125.998 1.75235 126.489C1.78782 126.734 1.81264 126.962 1.82683 127.183L1.83747 127.343C1.84456 127.392 1.82683 127.46 1.88003 127.485C1.95452 127.556 2.03255 127.609 2.10703 127.695C2.69936 128.321 3.30232 129.157 3.95139 130.082L4.02233 130.263C4.06135 130.31 4.111 130.345 4.15356 130.384L4.37702 130.584L4.72106 130.893L5.40915 131.537C5.87024 131.971 6.32778 132.419 6.78178 132.867C7.69332 133.768 8.60131 134.685 9.50576 135.607C11.3182 137.45 13.1094 139.31 15.0034 141.153C15.6099 141.747 16.227 142.338 16.8974 142.932C17.2308 143.231 17.5819 143.526 17.9721 143.832C18.0608 143.907 18.1778 143.988 18.2878 144.067C18.4048 144.148 18.4899 144.22 18.6318 144.309L19.0432 144.565C19.2383 144.668 19.4511 144.767 19.6604 144.856L19.1425 144.59C19.9548 145.12 20.6074 145.426 21.2778 145.742C21.941 146.048 22.5901 146.322 23.2392 146.582C24.5373 147.105 25.8284 147.578 27.123 148.03C28.4282 148.482 29.7015 148.905 31.0671 149.318C31.9786 149.584 32.9824 149.887 33.9329 150.026L34.2911 150.061C34.4117 150.082 34.5217 150.043 34.6387 150.036C34.7522 150.022 34.8657 150.004 34.9792 149.986C35.036 149.976 35.0927 149.969 35.1495 149.951L35.192 149.94H35.1991C35.1814 149.851 35.2311 150.054 35.2275 150.033H35.2382L35.2594 150.018L35.3375 149.983C35.5503 149.887 35.7631 149.798 35.9723 149.691L36.5895 149.307C37.2705 148.802 37.9763 148.24 38.5864 147.695L38.9694 147.354L39.3099 147.044L39.9767 146.422C40.4165 146.006 40.8457 145.589 41.2678 145.177C41.6792 144.775 42.1119 144.341 42.456 144.028L43.0909 143.462C43.3214 143.252 43.552 143.039 43.779 142.825C44.2294 142.395 44.6728 141.957 45.1019 141.509C45.9567 140.616 46.7725 139.702 47.5457 138.787L48.6913 137.414C48.8758 137.197 49.0177 137.026 49.2021 136.816L49.7519 136.201C50.5038 135.372 51.2876 134.536 52.0786 133.703L53.2703 132.455L53.8698 131.832L54.1712 131.526L55.2779 130.42C55.8383 130.761 56.3809 131.114 56.92 131.459C58.1153 132.202 59.3248 132.971 60.513 133.736C61.7047 134.5 62.8858 135.28 64.0421 136.066C64.6238 136.457 65.1913 136.855 65.7552 137.254L66.5781 137.855C66.72 137.955 66.8441 138.054 66.9754 138.154L67.4294 138.503C67.9898 138.951 68.6282 139.292 69.2985 139.549L69.6355 139.68L69.8199 139.758C69.8625 139.78 69.898 139.798 69.9476 139.822L70.1817 139.954C70.8201 140.313 71.4799 140.747 72.1644 141.238C73.5406 142.217 75.0232 143.401 76.8179 144.479C77.2648 144.75 77.7401 145.006 78.226 145.255C78.6658 145.472 79.102 145.682 79.5418 145.885C80.425 146.29 81.3188 146.667 82.2268 147.019C84.0392 147.72 85.8978 148.307 87.7847 148.78C85.912 148.3 84.0676 147.706 82.2623 147.002C81.3614 146.649 80.4676 146.269 79.588 145.86C79.1481 145.653 78.7119 145.443 78.2792 145.226C77.7968 144.981 77.3215 144.721 76.8746 144.451C75.0835 143.369 73.6044 142.178 72.2211 141.189C71.5331 140.691 70.8698 140.249 70.2278 139.883L69.9902 139.748C69.9334 139.716 69.9015 139.698 69.8554 139.677C69.8164 139.659 69.7525 139.63 69.671 139.595L69.3411 139.463C68.6743 139.207 68.0394 138.869 67.4826 138.421L67.0321 138.076C66.9009 137.976 66.7767 137.877 66.6384 137.777L65.8191 137.176C65.2551 136.777 64.6912 136.379 64.113 135.984C62.9568 135.198 61.7792 134.415 60.5875 133.647C59.3957 132.878 58.1934 132.113 56.9839 131.359C56.4164 130.996 55.8453 130.63 55.2566 130.27L54.1038 131.423L53.8024 131.729L53.2065 132.348L52.0183 133.593C51.2309 134.422 50.447 135.258 49.6987 136.091C49.3191 136.51 48.968 136.912 48.6381 137.307L47.4961 138.677C46.7229 139.591 45.9142 140.509 45.0594 141.402C44.6302 141.847 44.1939 142.288 43.7399 142.718C43.513 142.935 43.2859 143.149 43.0554 143.359L42.4099 143.935C42.2503 144.081 42.0446 144.28 41.8459 144.476L41.2252 145.084C40.8067 145.497 40.374 145.917 39.9342 146.336L39.2638 146.963L38.9233 147.276L38.5438 147.614C37.9373 148.158 37.2386 148.72 36.5576 149.222L35.9475 149.602C35.7418 149.709 35.529 149.798 35.3233 149.894L35.2452 149.93L35.224 149.94H35.2133L35.2098 149.947C35.1672 149.762 35.1956 149.897 35.1814 149.855L35.1388 149.865C35.0821 149.883 35.0253 149.89 34.9686 149.901L34.6316 149.951C34.5181 149.958 34.4082 149.99 34.2876 149.976L33.9365 149.94C32.9965 149.805 32.0034 149.51 31.099 149.246L30.0846 148.937L29.1021 148.624C28.4495 148.414 27.8004 148.197 27.1513 147.973C25.8532 147.525 24.5621 147.055 23.2604 146.539C22.6078 146.279 21.9587 146.009 21.2919 145.707C20.618 145.394 19.9654 145.091 19.1496 144.561L19.6639 144.824C19.4547 144.735 19.2419 144.636 19.0468 144.536L18.6353 144.284C18.4935 144.195 18.4083 144.124 18.2913 144.045C18.1849 143.967 18.0679 143.885 17.9756 143.811C17.5855 143.508 17.2343 143.209 16.8974 142.914C16.227 142.323 15.6063 141.733 14.9963 141.142C13.0952 139.278 11.3005 137.396 9.49512 135.539C8.59422 134.611 7.69332 133.693 6.78887 132.793C6.33842 132.345 5.88443 131.896 5.43043 131.466L4.74943 130.825L4.40894 130.516L4.18549 130.317C4.14292 130.278 4.09327 130.246 4.0578 130.196L3.99041 130.018C3.34134 129.093 2.73837 128.268 2.15314 127.659C2.07511 127.574 2.00063 127.52 1.9226 127.453C1.86585 127.428 1.89422 127.36 1.88358 127.311L1.87649 127.15C1.8623 126.93 1.84102 126.699 1.81264 126.457C1.75235 125.969 1.65658 125.432 1.53244 124.845C1.63885 124.472 1.72043 124.098 1.79136 123.725L1.90486 123.166L2.00063 122.725L2.10348 122.287L2.16023 122.063C2.17088 122.024 2.17797 121.992 2.19216 121.949L2.24891 121.803C2.32694 121.611 2.40851 121.416 2.49364 121.227L2.62487 120.943L2.68871 120.807L2.73482 120.718L4.19613 117.851L7.13292 112.177L13.0207 100.857C16.9364 93.3111 20.8557 85.7619 24.7714 78.2199C24.7785 79.1982 24.814 80.1588 25.8532 79.0559C25.8532 79.0559 29.1482 72.4673 30.7939 69.1695C34.5536 62.8121 36.2738 60.5531 36.8803 60.8235C37.4762 61.0867 36.8945 63.9292 35.756 67.4939C35.1176 69.2833 34.4117 71.304 33.5782 73.5239L33.5818 73.5702Z" fill="#FFFFFF"/>
<path d="M29.978 112.632C29.8928 112.732 29.8042 112.842 29.719 112.931C28.2507 114.724 27.2788 116.649 25.7501 118.552C24.6045 119.825 23.7036 121.526 22.7885 122.938C23.9944 121.345 25.1223 119.641 26.307 117.983C27.4916 116.314 28.7153 114.72 30.1376 113.162C30.2688 113.689 30.2901 114.272 30.017 114.774C29.2296 115.884 28.4847 116.965 27.7576 118.025C27.6229 117.944 27.3639 117.787 27.2327 117.705C25.7359 121.074 22.8736 123.223 21.5081 126.652C21.6464 126.592 21.7103 126.727 21.7777 126.805C21.838 126.873 21.9018 126.901 22.0259 126.713C21.9018 126.901 21.8344 126.873 21.7777 126.805C23.6362 123.757 25.5586 121.06 27.6761 118.146C26.1084 120.455 24.6542 122.739 23.1858 125.041C21.7138 127.343 20.2383 129.659 18.5678 131.989C18.4223 132.188 18.135 132.586 17.9896 132.782C17.5108 133.042 17.0994 133.344 16.7163 133.686C16.3403 134.024 16.0105 134.394 15.6806 134.799C15.2231 134.12 13.4355 133.917 14.8648 132.579C14.7407 132.487 14.496 132.298 14.3754 132.202C13.4922 132.736 12.5026 132.761 11.8536 132.437C11.1939 132.113 10.8498 131.437 11.1442 130.573C11.8819 128.623 14.0065 126.688 15.2053 124.379C16.1346 122.743 17.0426 121.092 18.323 119.687C20.1177 117.769 21.4868 115.3 23.3134 113.411C23.9306 112.682 24.303 111.056 24.9131 110.885C25.2607 110.704 25.5621 110.843 25.8601 111.06C25.1188 112.365 24.3101 113.692 23.4766 114.966C22.3664 116.481 21.1995 117.968 19.9333 119.381C21.274 118.065 22.4232 116.556 23.4766 114.966C24.3739 113.735 25.2642 112.483 26.1013 111.241C26.3531 111.437 26.6191 111.636 26.9348 111.696C26.9348 111.696 26.9915 111.593 27.0589 111.462C27.1228 111.33 27.2008 111.174 27.254 111.067C28.3642 110.562 29.258 111.188 29.7226 111.999C29.8042 112.187 29.8964 112.401 29.9815 112.632H29.978Z" fill="#FFFFFF"/>
<path d="M38.5759 125.952C38.5049 126.062 38.4304 126.172 38.363 126.279C38.0474 126.713 37.7707 127.143 37.5012 127.563C37.2245 127.955 36.9691 128.364 36.7067 128.766C36.4371 129.15 36.1675 129.538 35.8909 129.936C35.6001 130.313 35.295 130.69 34.9581 131.057C33.9295 132.014 33.1563 133.362 32.3405 134.436C33.4152 133.245 34.419 131.939 35.4546 130.623C35.9796 129.975 36.4974 129.299 37.0543 128.634C37.3274 128.285 37.6111 127.947 37.902 127.606C38.1857 127.225 38.4872 126.859 38.7993 126.467C38.9873 126.958 39.0582 127.499 38.8277 127.997C38.4801 128.509 38.1467 128.997 37.8168 129.47C37.487 129.922 37.1607 130.37 36.8379 130.815C36.7067 130.729 36.4513 130.566 36.3236 130.48C35.6958 131.878 34.7098 132.942 33.7486 133.988C32.7874 135.034 31.8475 136.073 31.2623 137.446C31.3899 137.418 31.4502 137.542 31.5176 137.62C33.1527 135.283 34.8765 133.252 36.767 130.911C35.4121 132.747 34.1033 134.522 32.7768 136.318C31.4751 138.083 30.1627 139.837 28.7795 141.566C28.6624 141.712 28.4283 142.007 28.3113 142.153C27.492 142.441 26.8925 142.942 26.5024 143.469C26.2399 143.174 25.7008 142.928 25.3532 142.651C25.0056 142.373 24.8602 142.039 25.4419 141.541C25.3213 141.445 25.0766 141.256 24.956 141.16C24.1898 141.509 23.2889 141.516 22.6044 141.238C22.2745 141.089 21.9872 140.879 21.8347 140.577C21.6751 140.281 21.6538 139.879 21.7851 139.449C22.4129 137.613 24.3175 136.265 25.3568 134.451C26.1619 133.181 26.9564 131.918 28.0772 130.929C29.6591 129.584 30.7976 127.723 32.2979 126.414C32.5604 126.151 32.6881 125.713 32.8619 125.329C32.9541 125.133 33.0073 124.97 33.096 124.842C33.1811 124.714 33.284 124.628 33.4223 124.603C33.7202 124.489 34.0323 124.603 34.3551 124.774L33.9827 125.507C33.8586 125.752 33.6954 126.001 33.5571 126.247C33.284 126.741 32.9293 127.232 32.6065 127.713C31.6772 128.837 30.6877 129.929 29.5669 130.929C30.7621 130.025 31.7411 128.904 32.6065 127.713C32.9577 127.254 33.3513 126.791 33.6706 126.322C33.8337 126.087 34.0182 125.852 34.1671 125.621C34.3161 125.386 34.4686 125.155 34.6176 124.92C34.8907 125.076 35.178 125.244 35.4901 125.293C35.5007 125.293 35.6178 124.955 35.671 124.785C36.1534 124.564 36.6535 124.525 37.1004 124.639C37.5508 124.753 37.9481 125.027 38.2389 125.375C38.3489 125.542 38.473 125.735 38.5865 125.952H38.5759Z" fill="#FFFFFF"/>
<path d="M88.7102 70.685C88.7493 70.5 88.7883 70.3115 88.8202 70.1123C88.9089 69.4541 88.9479 68.7212 89.0046 67.903L89.0898 66.7753C89.1146 66.4373 89.1288 66.0887 89.1323 65.8396C89.1323 65.7507 89.1323 65.6973 89.1181 65.5799C89.0968 65.4554 89.0578 65.274 89.0046 65.0427L88.9195 64.6514L88.8769 64.4166C88.8699 64.381 88.8344 64.1249 88.8344 64.0822C88.8344 63.9968 88.8521 63.9114 88.8344 63.8261C88.8131 63.7798 88.7847 63.7656 88.7634 63.6873L88.6358 63.3173C88.5435 63.0327 88.4726 62.7695 88.4088 62.5275C88.2846 62.0473 88.1818 61.6488 88.0825 61.3678C87.9796 60.9551 87.3021 59.991 86.8198 58.9095C86.6495 58.5075 86.497 58.1269 86.3409 57.7818C86.2629 57.6075 86.1849 57.4438 86.1069 57.2873L85.9863 57.0596L85.8089 56.7536C85.5429 56.2769 85.3656 55.8749 85.2024 55.5725L85.0889 55.3733C85.0676 55.3413 85.0641 55.3271 85.0286 55.2808L84.9399 55.1563L84.5817 54.6582C84.3405 54.3274 84.0993 53.9965 83.8617 53.6692C83.6524 53.3918 83.4432 53.157 83.1949 52.915C83.0708 52.7941 82.9431 52.6731 82.8047 52.5522C82.6416 52.4063 82.4607 52.2391 82.3082 52.0968C81.9996 51.8051 81.7407 51.5561 81.5137 51.3711C81.691 51.5347 81.8897 51.7339 82.1096 51.9616L82.4642 52.3245L82.8296 52.6838C83.0317 52.883 83.2126 53.0787 83.3758 53.2744C83.4574 53.374 83.5354 53.47 83.6099 53.5732L83.7198 53.7262L83.8511 53.9218C84.1986 54.4341 84.5462 54.9464 84.8974 55.4587C84.9931 55.6223 85.1173 55.8785 85.2698 56.188C85.3478 56.3445 85.433 56.5153 85.5323 56.6967C85.6245 56.8675 85.7805 57.1236 85.8196 57.1948C86.0785 57.6466 86.3338 58.2051 86.6424 58.849L86.8907 59.3471C86.9865 59.5321 87.0858 59.7064 87.178 59.8701L87.6817 60.7381C87.7526 60.8662 87.8164 60.9871 87.8732 61.0974C87.9051 61.1579 87.9157 61.1935 87.9299 61.2255L87.976 61.3464C88.0363 61.5243 88.1002 61.7556 88.1711 62.0437C88.2421 62.3319 88.313 62.6556 88.4123 63.0363C88.462 63.2248 88.5187 63.4276 88.5897 63.6375C88.6322 63.7976 88.6464 63.8154 88.6712 63.8723C88.6748 63.9506 88.6499 64.0288 88.6429 64.1035C88.6429 64.0964 88.6428 64.1391 88.6464 64.1676L88.657 64.2743L88.6819 64.4522L88.7173 64.6941L88.7918 65.0997C88.8379 65.3345 88.8699 65.5159 88.8769 65.6368C88.884 65.7471 88.8699 65.7863 88.8557 65.861L88.8167 66.2843L88.7599 66.7788L88.618 67.9101C88.5294 68.739 88.4584 69.4683 88.3449 70.1051C88.1676 69.7814 87.9973 69.4114 87.8732 68.9667C87.8129 68.7426 87.7597 68.5042 87.7278 68.241C87.6923 67.9706 87.6781 67.6718 87.6852 67.4085C87.7065 67.1275 87.7313 66.8429 87.7526 66.5618C87.7668 66.3519 87.7774 66.1385 87.7916 65.9286C87.7952 65.9286 87.8022 65.9215 87.8058 65.9179C87.8058 65.9072 87.82 65.925 87.8129 65.8752C87.8058 65.7934 87.7703 65.6226 87.7171 65.3736L87.6249 64.9289L87.5752 64.6514L87.5398 64.4166L87.5256 64.2885V64.2316H87.522C87.5291 64.2209 87.5398 64.2067 87.5469 64.1925C87.5469 64.1783 87.554 64.1925 87.5362 64.1391L87.3908 63.6909C87.288 63.3565 87.2135 63.0647 87.1461 62.8157C87.0219 62.3177 86.9262 61.9726 86.873 61.8267C87.0148 61.7627 87.2915 61.6382 87.4334 61.5741L87.3341 61.4354L87.1532 61.1757C86.9971 60.9516 86.8446 60.7274 86.6885 60.5033C86.6034 60.3752 86.5112 60.2365 86.419 60.0871C86.3303 59.9412 86.2239 59.7633 86.1459 59.6246C85.9827 59.3329 85.8408 59.0589 85.7096 58.8063C85.4507 58.3012 85.245 57.8885 85.0534 57.5683C84.603 56.8284 84.3795 56.2627 84.2341 55.9923L84.1916 55.9105C84.1916 55.9105 84.1703 55.8749 84.1525 55.8465L84.0993 55.7646L83.8865 55.4409L83.4645 54.7899L83.0566 54.1566C82.9573 54.0036 82.8473 53.8542 82.7232 53.7048C82.599 53.5518 82.4607 53.3989 82.3046 53.2388L81.9925 52.9257L81.6804 52.6055C81.3044 52.2071 80.9852 51.9011 80.8291 51.7873C80.7724 51.7482 80.8149 51.7695 80.556 51.6201C80.4354 51.5489 80.2687 51.4458 80.1127 51.3319C80.0346 51.275 79.9602 51.2145 79.8892 51.154L79.7864 51.0651L79.7793 51.058C80.1198 50.6667 79.0203 51.9225 80.5383 50.1864V50.19L80.517 50.2113L80.478 50.2575L80.4 50.3536C80.3326 50.4354 80.2581 50.5279 80.1872 50.624L80.0346 50.8232L79.875 51.0438C79.8183 51.122 79.8396 51.09 79.836 51.0971L79.8183 51.0829L79.5665 50.9157C79.343 50.7627 79.1267 50.592 78.9316 50.4034C78.8713 50.3465 78.8429 50.3216 78.8074 50.2931L78.701 50.2113C78.6301 50.1579 78.5627 50.1117 78.4918 50.0726C78.4208 50.0334 78.357 49.9978 78.2967 49.9729C78.2648 49.9587 78.2364 49.948 78.208 49.9409L78.1655 49.9267L78.0626 49.8911C77.4738 49.6812 76.7467 49.4607 75.9132 49.0729C75.8387 49.0587 75.7642 49.0587 75.6933 49.0729C75.7252 49.1689 75.6472 49.2792 75.6117 49.3717C75.5798 49.4535 75.5656 49.5176 75.6117 49.5389C75.5656 49.5211 75.5798 49.4535 75.6117 49.3717C75.6543 49.3788 75.6933 49.3895 75.7323 49.4073C76.5729 49.852 77.3107 50.1117 77.8853 50.3394L78.0094 50.3892L78.0732 50.4176C78.1158 50.439 78.1655 50.4674 78.2187 50.4995C78.2719 50.5315 78.3286 50.5706 78.3854 50.6169L78.474 50.688L78.5875 50.7876C78.8004 50.994 79.0309 51.179 79.2721 51.3426L79.531 51.5169L79.5416 51.524L79.6551 51.3604L79.8892 51.0367C80.0027 50.8801 80.0914 50.7592 80.1943 50.624C80.2617 50.535 80.3397 50.4354 80.4035 50.3607L80.4816 50.2647L80.5206 50.2184L80.5312 50.2077V50.2006H80.5383C78.3499 52.6945 79.9318 50.8908 79.4423 51.4493L79.4565 51.46L79.57 51.5561C79.648 51.6201 79.7332 51.6877 79.8218 51.7517C79.9956 51.8798 80.1836 51.9936 80.3113 52.0683C80.595 52.2249 80.5135 52.1822 80.5596 52.2106C80.6624 52.2782 80.971 52.5486 81.3434 52.9222L81.6556 53.2281L81.9854 53.5412C82.1379 53.687 82.2763 53.8258 82.3969 53.961C82.5174 54.0961 82.6238 54.2278 82.7232 54.363L83.1204 54.9393L83.5425 55.5583L83.7553 55.8678L83.8617 56.0243C83.8759 56.0457 83.9043 56.0848 83.9078 56.0919L83.922 56.1204C84.032 56.3054 84.2377 56.8106 84.6456 57.5363L84.7874 57.7747L84.8513 57.8921L84.9896 58.1553L85.2982 58.7992L85.6741 59.589L85.9047 60.0444L86.1636 60.514C86.309 60.7666 86.4509 61.0156 86.5963 61.2682L86.7559 61.5634L86.8198 61.688C86.8375 61.7271 86.8588 61.7698 86.8552 61.7698C86.8552 61.7698 86.8375 61.7271 86.8198 61.6915L86.7559 61.5706L86.5928 61.286L86.153 60.5495C85.9863 60.2721 85.7876 59.9056 85.6493 59.6353L85.2592 58.849C85.1421 58.6107 85.0357 58.4008 84.9364 58.2122L84.791 57.9525L84.5888 57.6181C84.1596 56.8817 83.9397 56.3694 83.8227 56.1951L83.0034 55.0425L82.7835 54.7365L82.5919 54.4732C82.4926 54.3452 82.3862 54.2207 82.2656 54.0926C82.145 53.9645 82.0067 53.8329 81.8542 53.6906L81.5172 53.3811L81.198 53.0787C80.8185 52.7087 80.5135 52.4526 80.4354 52.4099L80.1943 52.2782C80.0595 52.2035 79.8609 52.0826 79.68 51.9474C79.5877 51.8798 79.4991 51.8122 79.4175 51.7446L79.3005 51.645L79.2934 51.6379C78.169 52.9186 80.8221 49.8911 80.5489 50.2042L80.5454 50.2113L80.5241 50.2326L80.4851 50.2789L80.4071 50.375C80.3361 50.4603 80.2687 50.5493 80.1907 50.6489L80.0382 50.8481L79.875 51.0722C79.7154 51.2892 79.5736 51.4956 79.4104 51.7304L79.1338 51.5454C78.8819 51.3746 78.6443 51.1861 78.4244 50.9726C78.3641 50.9157 78.3464 50.9015 78.318 50.8766L78.2364 50.8125C78.1832 50.7734 78.1335 50.7378 78.0874 50.7094C78.0413 50.6809 77.9988 50.6596 77.9633 50.6418L77.9136 50.6204L77.7895 50.5706C77.2185 50.3429 76.4736 50.0761 75.6259 49.6207C75.6011 49.6101 75.5763 49.603 75.5514 49.5958L75.1755 49.5211L74.4413 49.3788C74.2817 49.3539 74.1185 49.3255 73.9376 49.3077C73.2282 49.2294 72.3522 49.2401 71.3236 49.2543H70.4901L69.7027 49.2436C69.465 49.2401 69.2487 49.2365 69.0607 49.2436C68.8798 49.2436 68.6918 49.2579 68.6032 49.2686C68.3442 49.297 67.9399 49.3753 67.532 49.4713C67.4504 49.4927 67.2766 49.5283 67.1312 49.5567L66.6808 49.6492L66.0778 49.7702C66.0352 49.7808 65.8863 49.8271 65.6096 49.9338C65.3471 50.037 64.9605 50.1935 64.6449 50.3038C64.3257 50.3643 64.1873 50.3607 63.9781 50.3856C63.783 50.4105 63.5879 50.4319 63.3964 50.4568C63.0133 50.5101 62.6303 50.5742 62.2543 50.6453C62.0663 50.6845 61.8783 50.7236 61.6903 50.7627C61.4953 50.809 61.3002 50.8517 61.1087 50.8979C60.8817 50.9477 60.715 50.9797 60.6618 50.9868C60.6157 50.9868 60.5731 51.0011 60.5305 51.0153L60.0907 51.2074L59.6864 51.3924C59.6757 51.1327 59.4736 50.873 59.2749 50.6204C59.1331 50.4034 58.9735 50.1935 58.938 49.9836C58.9132 49.7453 59.087 49.482 59.6225 49.1761C59.8424 49.0266 60.112 48.9626 60.7043 48.8381C60.6618 48.6887 60.5731 48.3934 60.5305 48.244C60.0446 48.2867 59.619 48.2546 59.2005 48.3222C58.7926 48.3614 58.4272 48.3685 58.0761 48.3543C57.8349 48.3543 57.6044 48.3863 57.4022 48.3934C57.2213 48.3863 57.1078 48.3222 56.9801 48.2582C56.8595 48.1906 56.7567 48.1052 56.6751 48.0092C56.5793 47.9274 56.4942 47.842 56.4375 47.7424C56.3133 47.5502 56.3488 47.2941 56.2885 47.1091L56.2601 46.9597C56.2601 46.9063 56.2105 46.8814 56.2317 46.8138C56.2211 46.7676 56.3559 46.6182 56.4694 46.4972C56.59 46.3691 56.7283 46.2411 56.8879 46.1166C57.0085 46.0169 57.1326 45.9138 57.2639 45.807C57.3916 45.7039 57.537 45.6007 57.693 45.494C57.7179 45.4762 57.7463 45.4584 57.7746 45.4406C57.9803 45.3161 58.1967 45.2023 58.4237 45.0991C58.5372 45.0493 58.6507 44.9995 58.7677 44.9568L59.0515 44.8501C59.2146 44.7896 59.3281 44.7469 59.4062 44.7113C59.5268 44.6615 59.6474 44.6082 59.768 44.5583C60.2645 44.352 60.7788 44.1528 61.3108 43.9607C61.5768 43.8682 61.8464 43.7721 62.1195 43.6761L62.3962 43.58L62.7402 43.4448C63.0133 43.3381 63.368 43.1958 63.8291 43.0499C64.0632 42.9788 64.3221 42.9041 64.62 42.8436L65.1308 42.7476L65.5068 42.6835C65.6415 42.6586 65.7302 42.6515 65.9359 42.6017C66.3012 42.5234 66.6772 42.4487 67.0886 42.3847C67.2944 42.3527 67.5107 42.3242 67.7413 42.2993C67.9647 42.2744 68.2485 42.2566 68.4542 42.2459C68.8904 42.2282 69.2877 42.2353 69.6424 42.2424L70.5929 42.2637H71.0044L71.469 42.2531C72.1074 42.2353 72.7991 42.2104 73.5475 42.2068C74.3455 42.2175 75.2358 42.2815 76.1473 42.4558C76.3424 42.4879 76.6722 42.527 77.2114 42.6444C77.8321 42.7831 78.4776 43.0108 79.0557 43.3274C79.3395 43.4697 79.8183 43.6512 80.4674 43.9073L80.8114 44.0496C80.9533 44.1137 81.0916 44.1812 81.2299 44.2488C81.4995 44.3876 81.7549 44.537 81.9925 44.6971C82.2337 44.8536 82.4571 45.0208 82.67 45.1952C82.7764 45.2805 82.8792 45.3695 82.9821 45.4584C83.0814 45.5473 83.1878 45.647 83.2481 45.7039L83.241 45.7146C83.241 45.7146 83.241 45.7146 83.241 45.7181L83.3651 45.8035C83.4786 45.8853 83.6418 45.9992 83.8404 46.1664L83.9184 46.234L83.9575 46.2695L83.9752 46.2873H83.9787V46.2909C83.5354 46.796 84.9719 45.1596 82.9856 47.4257L82.9785 47.4364C82.936 47.4827 82.897 47.5325 82.8579 47.5787L82.7764 47.6783L82.7409 47.7246L82.865 47.536L83.1062 47.1376L83.6808 46.1415C83.7056 46.0988 83.6985 46.1059 83.6985 46.1059L83.7056 46.113L83.7411 46.1343L83.8936 46.2268C84.0284 46.3087 84.1632 46.3976 84.2944 46.4865C84.8796 46.9028 85.2521 47.2763 85.5784 47.6143C85.8444 47.8989 86.0572 48.1479 86.231 48.3436C86.3268 48.4503 86.3587 48.4966 86.5254 48.6638C86.6637 48.8061 86.802 48.9555 86.9439 49.112C87.2277 49.4251 87.515 49.763 87.7845 50.1259C88.086 50.5244 88.2314 50.777 88.43 51.0758L89.0082 51.9509L89.299 52.3885C89.3345 52.4383 89.4267 52.5913 89.4905 52.6945C89.5579 52.8083 89.6147 52.915 89.6679 53.0147C89.8807 53.4131 90.019 53.7262 90.1254 53.9432L90.246 54.1886C90.246 54.1886 90.246 54.1886 90.2638 54.2207L90.3063 54.2918L90.3879 54.4341L90.544 54.7116C90.9412 55.4409 91.2108 56.0741 91.4449 56.5686L91.6045 56.8995C91.6541 57.0027 91.718 57.1165 91.7854 57.241L92.2819 58.1304C92.3777 58.3083 92.4664 58.4755 92.5763 58.7067C92.7004 58.9593 92.7962 59.2012 92.8778 59.4325C93.0409 59.8914 93.1367 60.2863 93.2112 60.6349C93.2857 60.9836 93.3389 61.2753 93.3814 61.5136L93.4382 61.8303C93.4949 62.0224 93.6013 62.2821 93.6936 62.5098C93.7113 62.62 93.729 62.7232 93.7397 62.8299C93.7539 62.9687 93.7645 63.111 93.7716 63.2604C93.7716 63.3351 93.7716 63.4098 93.7751 63.4881V63.6055C93.7751 63.6055 93.7716 63.5984 93.768 63.5984V63.5913C93.2679 63.6553 92.7714 63.7158 92.2713 63.7798L92.2252 63.7869H92.2039L92.1932 63.794H92.1862C95.318 63.2568 93.0551 63.6446 93.7539 63.5272V63.5379L93.7574 63.5628L93.7716 63.6339C93.7822 63.6838 93.8 63.7585 93.8213 63.8367C93.8674 64.0075 93.9312 64.2281 94.0021 64.5198C94.0766 64.8222 94.144 65.2064 94.1724 65.5586L94.1972 65.9286L94.215 66.263C94.222 66.4729 94.2256 66.6792 94.2327 66.882C94.2362 67.2733 94.2327 67.6149 94.2256 67.9066C94.2114 68.4651 94.1688 69.0059 94.0234 69.3082C93.8071 69.9949 93.4737 70.034 93.1083 69.9237C93.1225 69.1837 93.1083 68.4829 93.1296 67.839C93.1473 67.1666 93.1935 66.4586 93.1615 65.6226C93.1509 65.3202 93.1012 64.9929 93.0409 64.7261C92.9842 64.4593 92.9239 64.2387 92.8813 64.0573L92.8281 63.8118L92.8104 63.7158V63.6944C92.9452 63.6695 91.6329 63.8972 92.1897 63.8012L92.2926 63.7869L92.8104 63.7229C92.8104 63.73 92.8104 63.7122 92.8104 63.6909C92.8033 63.3849 92.7962 63.0861 92.7253 62.7908C92.6721 62.6698 92.5976 62.5596 92.5444 62.4351L92.4734 62.2607C92.4486 62.2003 92.4486 62.186 92.4309 62.1469C92.3848 62.0117 92.3387 61.8623 92.2926 61.6986C92.2003 61.3749 92.1081 61.0014 91.984 60.5922C91.913 60.3397 91.8315 60.0693 91.7215 59.7847C91.6151 59.5036 91.4555 59.1799 91.3385 58.9629C91.0902 58.4933 90.8454 58.0913 90.6575 57.732C90.3099 57.0916 89.9977 56.2449 89.5083 55.2915C89.448 55.1741 89.3806 55.0531 89.3132 54.9286L89.2635 54.8397L89.2423 54.7934L89.1926 54.6903L88.9514 54.1531C88.8557 53.9432 88.7528 53.7048 88.6109 53.438L88.4974 53.2317L88.3804 53.036L88.1889 52.73L87.2383 51.1932C87.178 51.0936 87.0822 50.9548 87.0007 50.841C86.8304 50.5991 86.6531 50.3678 86.4722 50.1473C86.646 50.3714 86.8127 50.6026 86.9723 50.841C87.0503 50.9584 87.139 51.09 87.1993 51.1967L87.3802 51.5062L88.1073 52.7336L88.2917 53.0396C88.3449 53.1214 88.4442 53.2993 88.5116 53.4238C88.6499 53.6941 88.7599 53.9361 88.8521 54.146L89.0968 54.7009C89.1359 54.7863 89.1571 54.8326 89.2033 54.9179L89.4019 55.2773C89.8984 56.2271 90.2247 57.0845 90.5865 57.732C90.8206 58.1375 91.0583 58.5466 91.2924 58.9558C91.3597 59.0803 91.4165 59.1834 91.4945 59.34C91.569 59.4894 91.6328 59.6353 91.6931 59.7776C91.8102 60.0657 91.8989 60.3361 91.9769 60.5922C92.0904 61.0085 92.1755 61.3856 92.2571 61.7129C92.2997 61.8765 92.3387 62.0295 92.3812 62.1682C92.3954 62.2109 92.3954 62.2216 92.4202 62.2856L92.4841 62.46C92.5337 62.5809 92.6047 62.6876 92.6543 62.8086C92.7217 63.1039 92.7182 63.4027 92.7182 63.7051C92.7182 63.73 92.7182 63.7336 92.7182 63.7336L92.3032 63.7869H92.2961L92.2713 63.7905L92.2181 63.7976H92.1932L92.1791 63.8047C91.6967 63.8865 92.8317 63.6944 92.7146 63.7122V63.7371L92.7288 63.8403C92.7395 63.915 92.7537 63.9968 92.7749 64.0929C92.8139 64.2814 92.8636 64.502 92.9133 64.7652C92.9629 65.0321 93.0019 65.3451 93.009 65.6368C93.0161 66.448 92.9487 67.1417 92.9026 67.8034C92.8565 68.4402 92.8423 69.1232 92.8033 69.8312C92.4876 69.7174 92.1578 69.6177 91.8528 69.7992C91.8528 69.7992 91.8527 70.7277 91.8137 71.1973C91.3562 72.1187 90.8064 72.3322 90.3631 72.2397C89.9091 72.1436 89.5118 71.7807 89.1642 71.3859C89.0224 71.1831 88.8663 70.9554 88.7031 70.717L88.7102 70.685Z" fill="#FFFFFF"/>
</g>
<defs>
<clipPath id="clip0_148_545">
<rect width="185.518" height="152" fill="white"/>
</clipPath>
</defs>
</svg>
