<svg width="53" height="35" viewBox="0 0 53 35" fill="none" xmlns="http://www.w3.org/2000/svg">
<path d="M44.4855 16.4463C42.5302 18.763 40.1883 21.1118 37.7975 23.4655C36.6008 24.6423 35.3993 25.8265 34.2124 26.996C33.6227 27.5844 33.0402 28.1704 32.4676 28.7563C32.1837 29.0518 31.9023 29.3448 31.6209 29.6353C31.4814 29.783 31.3444 29.9283 31.2049 30.0735L31.1021 30.1843L31.0507 30.2385L31.0262 30.2656C31.0262 30.2656 31.0214 30.2705 31.0189 30.2754L30.9822 30.3246L30.9602 30.3739L30.9553 30.3862L30.9259 30.4305L30.8549 30.5364C30.762 30.6767 30.669 30.8195 30.5784 30.9574C30.3973 31.2405 30.2187 31.5187 30.0401 31.7969L27.9894 35L24.8056 32.2105C24.6857 32.1047 24.5683 32.0013 24.4484 31.8979C18.1299 26.4987 11.7991 20.1294 5.95537 14.2526C6.19274 14.0138 7.037 14.1443 6.66993 13.5337C5.0793 11.2145 5.55649 10.7344 6.03368 10.2543C6.27105 10.0155 7.49462 11.7241 7.24501 10.9954C8.70595 12.4652 11.2608 14.7967 10.0372 13.0856C9.78758 12.3544 7.60229 10.6359 7.47259 9.78652C7.3429 8.93712 8.67414 9.55755 8.54444 8.70815C8.05746 8.21821 7.0835 7.23833 6.59652 6.74839C6.34936 6.01963 7.79806 6.51942 7.31108 6.02948C6.08996 4.32084 4.02214 2.47926 2.07422 0.521956C2.31159 0.28314 2.06198 -0.448078 3.15585 0.411165C12.0708 9.13162 21.1765 17.9186 30.1942 26.7867L23.8659 27.2865L25.2192 25.3785C27.2552 23.2981 29.2912 21.2177 31.3248 19.1422C33.2874 17.1479 35.2524 15.1611 37.2224 13.1866C41.1623 9.23749 45.1193 5.33273 49.0959 1.49938C51.1613 -0.339749 50.1775 1.61017 49.0763 3.43944C49.4434 2.82886 49.8006 3.19078 50.1702 2.5802C50.5274 2.93965 50.1506 4.52027 48.3201 6.59821C48.8071 6.10827 49.2941 5.61833 49.7811 5.12839C50.388 4.75908 50.1384 5.48784 50.3757 5.72666C49.8887 6.2166 49.4018 6.70654 49.5217 6.82718C49.6416 6.94781 49.879 7.18663 49.9989 7.30727C50.4858 6.81733 51.4598 5.83745 51.9468 5.3475C51.4598 5.83745 50.9728 6.32739 51.0927 6.44556C51.2126 6.5662 51.45 6.80502 51.5699 6.92566C50.7159 8.02618 49.0151 9.25472 48.1611 10.3552L48.5183 10.7147C49.6122 9.85545 50.9532 8.26499 51.9272 7.28511C51.5601 7.89569 51.6776 8.01633 51.9174 8.25514C50.5764 9.8456 48.7582 10.9535 47.6545 12.7828L49.1155 11.313C48.7386 12.8911 45.8265 14.8607 44.4855 16.4512V16.4463Z" fill="white"/>
</svg>
