<svg width="90" height="78" viewBox="0 0 90 78" fill="none" xmlns="http://www.w3.org/2000/svg">
<rect width="60" height="59" transform="translate(18 13)" fill="#EF8D2B"/>
<rect width="90" height="78" fill="#2E2D2C"/>
<path d="M77.413 19.4389C77.1395 19.6378 76.866 19.8366 76.5965 20.0355C71.7212 23.8177 67.5418 28.2959 62.3567 32.7303C58.6238 35.729 54.9271 39.73 51.5442 43.0747C59.8869 35.4626 68.1974 27.0073 77.1154 20.5843C76.7493 21.7615 76.146 23.0103 75.0639 24.0802C72.2924 26.4982 69.6053 28.9322 66.9746 31.3781C66.7976 31.2031 66.4517 30.8611 66.2787 30.6901C59.549 38.3778 51.3833 43.6912 45.0035 51.7249C45.3535 51.5618 45.3455 51.8561 45.4018 52.0192C45.3857 52.0391 45.3656 52.055 45.3495 52.0709C45.3656 52.055 45.3817 52.0391 45.4018 52.0192C45.4541 52.1663 45.5587 52.2101 46.0092 51.7646C45.5587 52.2101 45.45 52.1623 45.4018 52.0192C52.3648 44.7968 59.2071 38.3659 66.6729 31.6565C55.2811 42.2713 44.9553 53.1566 33.6158 64.368C33.1331 64.8453 32.1636 65.7998 31.6809 66.281C29.2232 67.673 27.1114 69.4149 25.1805 71.3239C24.7904 69.9836 21.1057 70.1666 25.3254 66.6866C25.1524 66.5156 24.8024 66.1696 24.6254 65.9946C19.8829 68.9536 15.981 67.9673 19.1508 63.4533C22.8032 58.4581 29.3036 53.4151 34.2715 47.8114C37.9641 43.8145 41.6608 39.8175 45.8764 36.3375C51.7212 31.5969 57.3487 25.6869 63.3664 21.1212C65.4742 19.3793 68.3382 15.5175 69.8306 15.0761C70.7759 14.6386 71.1781 14.9806 71.4838 15.4937C68.2417 18.5759 65.0558 21.69 61.8459 24.7125C57.8072 28.3197 53.7445 31.9071 49.553 35.3592C53.7887 32.1179 57.8354 28.4868 61.8459 24.7125C65.1323 21.7774 68.4066 18.8304 71.7212 15.9232C71.9625 16.3885 72.228 16.8658 72.763 17.0209C72.763 17.0209 73.7284 16.0664 74.2151 15.5891C77.0229 14.5392 77.763 16.2294 77.6745 18.0509C77.6061 18.4685 77.5297 18.9418 77.4211 19.4469L77.413 19.4389Z" fill="#EF8D2B"/>
<path d="M25.5257 13.2585C25.7269 13.529 25.928 13.7994 26.1291 14.0659C29.9545 18.8861 34.4839 23.0183 38.969 28.1447C42.002 31.8355 46.0487 35.4904 49.4316 38.8351C41.7285 30.5867 33.1766 22.37 26.6802 13.5528C27.8709 13.9147 29.1339 14.5113 30.216 15.5811C32.6617 18.3214 35.1235 20.978 37.5973 23.5791C37.4203 23.754 37.0744 24.0961 36.9014 24.2671C44.681 30.9207 50.0511 38.9942 58.1766 45.3019C58.0116 44.9559 58.3093 44.9638 58.4742 44.9042C58.4944 44.9201 58.5104 44.936 58.5265 44.9559C58.5104 44.94 58.4944 44.9241 58.4742 44.9042C58.6231 44.8525 58.6673 44.7491 58.2168 44.3036C58.6673 44.7491 58.619 44.8564 58.4742 44.9042C51.1693 38.0198 44.6649 31.2548 37.8789 23.8734C48.615 35.1365 59.6247 45.3456 70.9642 56.557C71.4469 57.0343 72.4163 57.9888 72.899 58.47C74.3069 60.9 76.0688 62.988 77.9996 64.897C76.644 65.2827 76.829 68.9257 73.3093 64.7538C73.1363 64.9248 72.7864 65.2708 72.6094 65.4458C75.6022 70.1348 74.6046 73.9925 70.039 70.8586C64.9867 67.2474 59.8861 60.8204 54.2184 55.9087C50.1758 52.2578 46.1331 48.6029 42.6134 44.4349C37.8186 38.6562 31.8411 33.0922 27.2232 27.1425C25.4614 25.0546 21.5555 22.2268 21.109 20.7514C20.6665 19.8167 21.0125 19.419 21.5314 19.1168C24.6488 22.3223 27.7985 25.4721 30.8556 28.6459C34.504 32.6388 38.1323 36.6557 41.6239 40.7998C38.3455 36.612 34.673 32.611 30.8556 28.6459C27.887 25.3966 24.9063 22.1592 21.9658 18.8821C22.4364 18.6435 22.9191 18.381 23.076 17.8521C23.076 17.8521 22.1106 16.8976 21.6239 16.4203C20.566 13.6483 22.2755 12.9165 24.1138 13.008C24.5362 13.0756 25.0149 13.1512 25.5257 13.2585Z" fill="#EF8D2B"/>
</svg>
