<svg width="109" height="74" viewBox="0 0 109 74" fill="none" xmlns="http://www.w3.org/2000/svg">
<path d="M7.91476 29.8299C7.84563 31.315 7.86691 32.833 7.99878 34.3851C8.05834 35.16 8.1498 35.9445 8.25615 36.7354C8.2838 36.9332 8.31146 37.132 8.33911 37.3297C8.36995 37.5285 8.40187 37.7283 8.43271 37.9271C8.46249 38.127 8.49652 38.3268 8.53161 38.5277C8.56671 38.734 8.60287 38.9391 8.63796 39.1464C8.98255 41.1386 9.07187 43.0776 9.10378 44.9103C9.13462 46.743 9.11123 48.4906 9.19312 50.1277C9.27289 51.7658 9.45367 53.2956 9.84398 54.6786C10.0375 55.3717 10.2779 56.0308 10.5757 56.6601C10.8916 57.3064 11.2404 57.9124 11.6307 58.4673C12.0274 59.0147 12.4688 59.508 12.9569 59.9555C13.444 60.4031 13.9832 60.8028 14.5863 61.1525C15.1871 61.5044 15.8433 61.8148 16.5463 62.0891C17.2482 62.3633 18.0087 62.5908 18.7925 62.796C19.5753 63.0022 20.3995 63.1702 21.2386 63.3233C22.0767 63.4785 22.9445 63.6039 23.8177 63.7251C25.5725 63.9622 27.3762 64.1546 29.2055 64.3544C30.1254 64.4575 31.0443 64.5607 31.9621 64.6627C32.4248 64.718 32.8863 64.7733 33.3479 64.8285L34.0424 64.9178C34.271 64.9465 34.5157 64.9795 34.7156 65.0018C36.3864 65.2144 38.0912 65.3314 39.8109 65.3856C43.2514 65.4951 46.7494 65.3579 50.2505 65.2282C52.0021 65.1623 53.7559 65.0975 55.5118 65.0592C55.951 65.0518 56.3892 65.0433 56.8252 65.0358C57.2581 65.0305 57.6909 65.0252 58.1206 65.021C58.9789 65.0167 59.8318 65.0124 60.6784 65.0071C64.7357 64.9848 68.7856 65.0645 72.7547 64.9933C74.7392 64.9572 76.7046 64.8817 78.6339 64.719C80.5631 64.5575 82.4636 64.3225 84.3099 63.9547C88.012 63.2414 91.511 62.0072 94.7803 60.216L95.3897 59.8716L95.6949 59.7004C95.7928 59.6441 95.8725 59.592 95.9629 59.5378L96.2256 59.3772L96.4745 59.2103C96.5564 59.154 96.6436 59.1009 96.7212 59.0434L96.9563 58.8723C97.119 58.7617 97.2562 58.6395 97.4061 58.5247C97.4827 58.4683 97.5444 58.4056 97.6157 58.3461C97.6827 58.2855 97.7561 58.2281 97.8199 58.1675C97.9432 58.0442 98.0815 57.9272 98.1932 57.8018C98.2506 57.7402 98.3133 57.6796 98.3686 57.6179L98.5303 57.4308C98.7398 57.1789 98.9334 56.9269 99.0929 56.6622C99.2567 56.3986 99.4035 56.1318 99.5236 55.8437C99.6459 55.5567 99.7576 55.2601 99.8438 54.9348C99.932 54.6105 100.005 54.2661 100.065 53.8994C100.178 53.1584 100.231 52.3282 100.237 51.4129C100.243 50.9579 100.235 50.4796 100.223 49.9852L100.204 49.2315C100.197 48.9796 100.189 48.6819 100.179 48.5289C100.147 47.7901 100.019 46.9354 99.8512 45.9786L99.5747 44.4489C99.48 43.9067 99.3822 43.3476 99.2992 42.7459C99.2546 42.4536 99.2216 42.1378 99.1854 41.8327L99.1408 41.3576L99.1195 41.1194L99.1035 40.8749L99.0759 40.3849L99.0642 39.8831L99.0599 39.6322V39.4345L99.0578 39.0444C99.0557 38.0047 99.0525 36.9651 99.0503 35.9275C99.0472 33.8514 99.0429 31.7785 99.0397 29.7119C99.0419 28.6744 99.044 27.639 99.0451 26.6046C99.0482 25.5905 99.0376 24.6242 99.0078 23.6919C98.9674 22.7755 98.9004 21.9038 98.7877 21.0864C98.6632 20.2774 98.4952 19.5099 98.2719 18.7679C98.2123 18.5829 98.1442 18.4011 98.0826 18.2161C98.0507 18.1247 98.0219 18.0322 97.9879 17.9408L97.8741 17.6687C97.7975 17.4879 97.7284 17.3051 97.6486 17.1233L97.3881 16.5822C97.3434 16.4919 97.3051 16.4015 97.2573 16.3112L97.1084 16.0411L96.8127 15.5001L96.4809 14.9621L96.232 14.5571C96.2235 14.5486 96.2161 14.5412 96.2086 14.5316C96.2012 14.5231 96.1959 14.5135 96.1895 14.5029L96.181 14.487L96.1586 14.4636C96.1289 14.4317 96.1012 14.3987 96.0757 14.3637L95.9534 14.2393C95.9321 14.218 95.914 14.1968 95.8917 14.1744L95.8119 14.1032L95.6524 13.9576L95.4641 13.8056L95.3716 13.728L95.2653 13.6504L95.0547 13.492C94.4666 13.0689 93.7572 12.649 93.0117 12.261C93.0967 12.1004 93.6955 12.1717 94.0412 12.1366C94.2103 12.1206 94.3198 12.0749 94.2687 11.9516C94.2432 11.8899 94.1794 11.807 94.055 11.7039C93.9933 11.6518 93.9189 11.5934 93.8285 11.5285C93.7827 11.4966 93.7338 11.4615 93.6817 11.4254C93.6264 11.3914 93.5679 11.3542 93.5051 11.3148C92.4905 10.7132 91.5355 10.2242 90.6868 9.81276C89.837 9.40242 89.0894 9.06863 88.447 8.78054C87.158 8.21075 86.2859 7.83124 85.7148 7.52083C85.4287 7.37094 85.2171 7.23381 85.0618 7.11262C84.9065 6.99356 84.8087 6.88407 84.7481 6.78202C84.6279 6.57791 84.6619 6.40357 84.697 6.22923C84.714 6.14419 85.1979 6.18884 85.8733 6.32491C86.5476 6.46098 87.4133 6.68103 88.1907 6.91809C88.9692 7.15089 89.6616 7.3837 90.0136 7.48469C90.3645 7.5878 90.3826 7.54316 89.7966 7.24444C91.644 7.87802 93.7721 8.74015 95.6471 9.81701C95.7641 9.88398 95.88 9.95202 95.997 10.019C96.1108 10.0892 96.2235 10.1593 96.3362 10.2284C96.5649 10.3645 96.7755 10.5154 96.9924 10.6568C97.4093 10.9534 97.8145 11.25 98.1581 11.5647C98.2027 11.6029 98.2463 11.6412 98.2899 11.6795C98.3314 11.7188 98.3708 11.7592 98.4112 11.7985C98.4909 11.8783 98.5728 11.9548 98.6483 12.0335C98.7887 12.195 98.9365 12.3492 99.0472 12.5076C99.0769 12.5469 99.1067 12.5852 99.1365 12.6245C99.1514 12.6426 99.1663 12.6638 99.1812 12.6883L99.2269 12.7585C99.2875 12.852 99.3471 12.9434 99.4066 13.0348C99.5247 13.2156 99.6395 13.391 99.7502 13.56C99.8661 13.7269 99.9554 13.898 100.052 14.0564C100.147 14.2159 100.237 14.3679 100.323 14.5125C100.367 14.5848 100.408 14.6549 100.45 14.723C100.487 14.7931 100.523 14.8601 100.557 14.926C100.628 15.0568 100.695 15.179 100.755 15.2917C101.01 15.7382 101.154 16.0475 101.234 16.1453C101.371 16.3494 101.277 15.6957 100.417 13.9257C100.355 13.7726 100.286 13.5887 100.185 13.391C100.083 13.1932 99.965 12.9732 99.832 12.7351C99.765 12.616 99.6959 12.4916 99.6236 12.363C99.546 12.2461 99.4651 12.1259 99.3822 12.0016C99.2875 11.8836 99.1897 11.7613 99.0886 11.6359C98.9802 11.5158 98.8643 11.3956 98.7483 11.2702C97.7784 10.2954 96.3777 9.3886 94.9196 8.61683C94.1901 8.22776 93.4403 7.8727 92.7096 7.5506C91.98 7.22637 91.2696 6.93403 90.6113 6.67571C89.2968 6.15482 88.1981 5.7583 87.5877 5.45427C86.9761 5.14705 86.84 4.98653 86.9559 4.87491C87.0134 4.8207 87.1325 4.78137 87.2825 4.75054C87.4324 4.72183 87.6132 4.70164 87.7961 4.6825C88.1609 4.63998 88.5268 4.61128 88.648 4.5071C88.7086 4.45501 88.7065 4.38485 88.6119 4.28811C88.5161 4.19031 88.3279 4.06487 88.0099 3.91179C86.6677 3.54292 84.6311 3.0688 82.5168 2.82961C81.9882 2.77008 81.4554 2.72225 80.9258 2.69673C80.6609 2.68398 80.4004 2.67122 80.1377 2.67122C80.0069 2.67016 79.8782 2.66803 79.7506 2.66697C79.6283 2.67016 79.506 2.67228 79.3858 2.67547C79.2667 2.67866 79.1486 2.68079 79.0316 2.68398C78.9199 2.68398 78.8094 2.68398 78.6998 2.68398C78.4818 2.68398 78.2712 2.68398 78.067 2.68398C77.6597 2.68398 77.2843 2.68398 76.9503 2.68398C74.2777 2.32786 79.5963 1.61668 76.9269 1.61668C68.9154 1.26056 58.2461 1.43809 47.5789 1.43809C47.5789 1.26056 46.9089 1.08197 46.9078 0.926764C46.9068 0.771559 47.5747 0.637615 50.2399 0.54832C56.0722 0.524933 61.9153 0.501545 67.7678 0.478158C70.6936 0.465402 73.6215 0.453708 76.5515 0.440952L78.7498 0.431384H79.0253L79.3305 0.420754C79.5347 0.415439 79.7304 0.406935 79.9611 0.411187C80.1834 0.414376 80.41 0.41225 80.628 0.420754L81.2821 0.449456C82.1435 0.501545 82.9816 0.589778 83.8047 0.704587C84.6236 0.825774 85.433 0.96397 86.2285 1.13193C87.024 1.29989 87.8121 1.4838 88.5895 1.69428C89.3691 1.90051 90.1402 2.13119 90.907 2.37888C91.6738 2.62551 92.4342 2.89978 93.1914 3.18786C93.9476 3.48445 94.7016 3.7938 95.4525 4.14035C96.9552 4.83239 98.4452 5.62117 99.9533 6.68209L100.52 7.10199C100.711 7.25295 100.901 7.40921 101.09 7.56335C101.281 7.72494 101.473 7.90353 101.663 8.07468C101.71 8.11614 101.759 8.16291 101.807 8.21288L101.952 8.35851L102.239 8.65298C102.335 8.75184 102.432 8.87196 102.528 8.98146C102.624 9.09414 102.718 9.2047 102.813 9.32163C102.91 9.45026 103.005 9.58101 103.099 9.71177C103.19 9.83827 103.3 9.99454 103.342 10.0658L104.016 11.1479C104.888 12.6224 105.661 14.2361 106.226 15.9476C106.795 17.6548 107.144 19.4408 107.31 21.1289C107.481 22.8223 107.51 24.4243 107.52 25.9455C107.523 27.4242 107.527 28.9029 107.531 30.3827C107.545 33.3369 107.557 36.2932 107.571 39.2506C107.572 39.4303 107.571 39.6429 107.577 39.7545C107.582 39.8895 107.579 40.0192 107.592 40.1616C107.606 40.437 107.632 40.724 107.665 41.0206C107.732 41.6148 107.836 42.2537 107.961 42.9447C108.084 43.6357 108.229 44.3798 108.362 45.1856C108.493 45.9903 108.615 46.8588 108.676 47.7879L108.71 48.4949L108.727 49.0561L108.755 50.2138C108.768 51.0026 108.769 51.8286 108.731 52.6939C108.691 53.5581 108.615 54.4628 108.456 55.4015C108.299 56.338 108.064 57.3075 107.721 58.2685C107.38 59.2295 106.933 60.182 106.385 61.0654C105.84 61.9509 105.204 62.7684 104.52 63.4997C103.835 64.2332 103.102 64.8785 102.354 65.4504C101.604 66.0213 100.838 66.5305 100.067 66.9812C99.9682 67.0429 99.882 67.0886 99.7916 67.1396L99.5236 67.2895L98.9876 67.5882C98.6324 67.7923 98.2634 67.973 97.8996 68.1622L97.3519 68.4429L96.7946 68.7076C96.4213 68.8809 96.0533 69.0648 95.6726 69.2232C95.294 69.3848 94.9175 69.5527 94.5357 69.7069L93.3849 70.1565L92.2204 70.569C91.8322 70.7061 91.4376 70.822 91.0463 70.9485C87.9035 71.918 84.6821 72.5186 81.516 72.8492C78.3467 73.1788 75.2285 73.2702 72.1783 73.2734C69.1291 73.2734 66.1385 73.1926 63.1915 73.1352C61.7164 73.1054 60.253 73.081 58.7981 73.0714C58.0685 73.0639 57.3453 73.0661 56.6189 73.065C55.901 73.0714 55.1884 73.0746 54.4631 73.0905C51.5735 73.1426 48.6116 73.2723 45.5806 73.3361C44.0629 73.3659 42.5293 73.3818 40.9744 73.3595C39.4185 73.334 37.8434 73.2702 36.2503 73.149L35.0517 73.0438C34.6507 73.0023 34.2477 72.9534 33.8456 72.9077L31.6633 72.6441C30.2286 72.4772 28.7737 72.3262 27.2932 72.171C25.8128 72.0147 24.3069 71.8553 22.7648 71.6544C21.2237 71.4534 19.6412 71.2089 18.0108 70.8549C17.1983 70.6849 16.3666 70.4648 15.5317 70.2246C14.6905 69.9631 13.845 69.6867 12.991 69.322C12.5656 69.1551 12.1391 68.9425 11.7147 68.7448C11.5031 68.6385 11.2915 68.5237 11.0798 68.4121L10.7639 68.242C10.6587 68.1824 10.5544 68.1187 10.4502 68.0559L9.82591 67.6775L9.21545 67.2608C9.11442 67.1896 9.01233 67.1226 8.91236 67.0482L8.6167 66.8196C8.42101 66.6655 8.22213 66.5167 8.03176 66.3551C7.65634 66.0234 7.27345 65.7002 6.92674 65.3377L6.66193 65.0709C6.57472 64.9816 6.48539 64.8934 6.40456 64.7988L5.91214 64.2354C5.7441 64.0493 5.59947 63.8505 5.44739 63.6549C5.2985 63.4583 5.14217 63.2637 5.00391 63.0628L4.59444 62.4558C4.52744 62.3538 4.45723 62.2528 4.39448 62.1507L4.2105 61.8403L3.84784 61.2184C3.73511 61.0101 3.63088 60.7996 3.5224 60.5902C3.30438 60.1756 3.1055 59.7355 2.91726 59.2954C2.54396 58.4131 2.24297 57.5105 2.00368 56.6123C1.52403 54.8136 1.29751 53.0415 1.18584 51.3746C1.07523 49.7057 1.07416 48.1302 1.07097 46.6526C1.06884 45.176 1.06354 43.7941 0.97739 42.5184C0.934849 41.8806 0.873158 41.2704 0.784885 40.69L0.614737 39.6163C0.551989 39.224 0.498799 38.8265 0.441369 38.431C0.228664 36.8407 0.0808411 35.2185 0.0234107 33.5708C-0.0340196 31.923 0.0138276 30.2498 0.171229 28.5755L0.199947 28.2619L0.311622 27.3211C0.367989 26.9033 0.4318 26.4856 0.497739 26.0688L0.609414 25.4448C0.646637 25.2365 0.684913 25.0292 0.730645 24.823L0.97739 23.6749C1.12522 23.0211 1.25498 22.345 1.38473 21.6604C1.51129 20.9705 1.63464 20.2625 1.76332 19.5269C1.89414 18.7859 2.03241 18.0173 2.20151 17.2062C2.37274 16.3941 2.58332 15.5298 2.8726 14.6241C3.16188 13.7205 3.53943 12.7691 4.04354 11.8315C4.54233 10.8939 5.18256 9.9871 5.89193 9.18875C5.98127 9.08883 6.06742 8.98465 6.15888 8.89004L6.43647 8.60833C6.62259 8.42123 6.80762 8.23095 7.00118 8.06511C7.19368 7.89502 7.38514 7.71962 7.58083 7.5591L8.17 7.09562C8.2689 7.01695 8.36782 6.94573 8.46672 6.87769L8.76452 6.66933C8.9634 6.53114 9.16335 6.39082 9.36117 6.27176L9.95885 5.90182C10.1577 5.78382 10.3556 5.67751 10.5544 5.56589C12.1455 4.69101 13.7078 4.04786 15.2424 3.5004L16.39 3.1092C16.7718 2.98269 17.1504 2.87001 17.5301 2.74989C17.9076 2.62764 18.298 2.52771 18.6819 2.41822C19.0679 2.31297 19.453 2.19923 19.8401 2.10143L21.0036 1.82078L21.5853 1.68259L22.1681 1.56246L23.3348 1.32328C23.7241 1.25099 24.1133 1.18721 24.5015 1.11917C25.28 0.974601 26.0564 0.8768 26.8338 0.763055C27.0284 0.733289 27.222 0.709902 27.4156 0.688641L27.9963 0.620607C28.3834 0.578085 28.7716 0.525995 29.1576 0.491978C29.9287 0.423943 30.7029 0.341026 31.4686 0.295315L32.6194 0.215586L33.7637 0.157119C36.8161 0.00510338 39.8163 -0.00977922 42.7729 0.00404037C45.4763 0.0486883 46.9695 0.139047 47.597 0.240036C48.2234 0.343152 47.9714 0.464339 47.1354 0.59403C46.2995 0.723722 44.8776 0.859792 43.1515 1.00437C41.4275 1.14575 39.394 1.30308 37.3542 1.48805C40.0715 1.25099 40.0768 1.79102 42.775 1.60499C42.775 1.875 41.4307 2.2173 38.7347 2.57023C38.0614 2.65421 37.301 2.75733 36.4598 2.84662C35.6164 2.95186 34.6901 3.04329 33.6776 3.16447C31.6548 3.39622 29.2927 3.66942 26.6062 4.11058C29.2991 3.71301 32.0025 3.48445 34.7039 3.35901C37.4063 3.4313 34.7241 3.89266 34.7454 4.24665C34.0754 4.2828 33.4064 4.31788 32.7789 4.35934C32.1525 4.4093 31.5676 4.45607 31.0677 4.5071C30.069 4.6251 29.4075 4.73353 29.4171 4.82176C29.4362 4.99823 29.4745 5.35222 29.4926 5.52869C29.8223 5.4968 30.1935 5.46171 30.5955 5.42344C30.7965 5.40431 31.0049 5.38411 31.2208 5.36391C31.4367 5.34797 31.659 5.33096 31.8866 5.31501C32.3418 5.28419 32.8161 5.23954 33.3043 5.21615C33.7914 5.18957 34.2891 5.16194 34.7868 5.13536C36.7788 5.04287 38.7772 5.01311 40.1087 4.9961C39.443 5.00673 38.7772 5.01417 38.154 5.02906C37.5308 5.04819 36.949 5.06732 36.4502 5.09284C35.4548 5.15449 34.7932 5.22466 34.7975 5.31289C34.806 5.49042 34.822 5.84547 34.8305 6.02407C34.1743 6.08253 33.4755 6.12931 32.7491 6.18777C32.0238 6.25049 31.2655 6.30046 30.4934 6.37912C30.2998 6.39719 30.1052 6.4142 29.9095 6.43227C29.7138 6.44928 29.516 6.46736 29.3193 6.49074C28.9247 6.53433 28.5269 6.57791 28.126 6.62256C27.725 6.66402 27.3252 6.7278 26.9221 6.77883C26.7211 6.8054 26.519 6.83304 26.3169 6.85962C26.1149 6.8862 25.9149 6.9234 25.7139 6.95423C25.313 7.02014 24.911 7.08498 24.5111 7.15089C24.1144 7.2285 23.7177 7.30716 23.3242 7.3837C23.1285 7.4241 22.9296 7.45705 22.7371 7.50489C22.5436 7.5506 22.351 7.59525 22.1585 7.64096C21.9671 7.68667 21.7757 7.73132 21.5864 7.77596C21.3971 7.82167 21.2067 7.86313 21.0227 7.91841C19.538 8.31493 18.1374 8.76991 16.9505 9.25679L17.1355 9.75642C18.3352 9.3599 19.7295 8.94212 21.1929 8.55411C21.3747 8.50096 21.5619 8.4595 21.7491 8.41379C21.9363 8.36808 22.1245 8.32343 22.3128 8.27772C22.5021 8.23201 22.6914 8.18524 22.8817 8.13846C23.0711 8.08956 23.2667 8.05554 23.4603 8.01196C23.8474 7.92904 24.2377 7.84613 24.6291 7.76321C25.0237 7.69092 25.4193 7.61863 25.815 7.54528C26.0128 7.5102 26.2095 7.46874 26.4095 7.43898C26.6083 7.40815 26.8083 7.37732 27.0061 7.34649C27.4039 7.28696 27.7984 7.2168 28.1951 7.16684C28.5918 7.11581 28.9864 7.06479 29.3767 7.01376C29.5713 6.98718 29.767 6.96486 29.9616 6.94573C30.1563 6.92553 30.3488 6.90533 30.5413 6.88513C31.3081 6.79796 32.061 6.74268 32.7832 6.68315C33.5053 6.62894 34.2019 6.59386 34.856 6.55665C33.55 6.71611 32.9033 6.84048 32.5875 6.97974C32.2705 7.11475 32.2812 7.24763 32.2939 7.42516C30.3615 7.61438 28.4451 7.81423 26.5552 8.10126C24.6653 8.38828 22.7988 8.75078 20.9674 9.23234L19.94 9.50979L19.5987 9.61397L18.9169 9.82339C18.6883 9.89249 18.4692 9.97222 18.2458 10.0466C17.3503 10.3443 16.49 10.6866 15.6668 11.0608C14.0279 11.8092 12.5762 12.7606 11.6881 13.8768C12.0072 13.5313 12.4007 13.2177 12.8134 12.9073C13.0314 12.7585 13.2388 12.6022 13.4781 12.4619C13.5951 12.3906 13.7078 12.3162 13.8269 12.2461L14.1959 12.0409C15.185 11.4945 16.2932 11.0183 17.4482 10.592C17.1812 10.7536 16.8781 10.9109 16.5718 11.0905C16.4166 11.1777 16.2549 11.267 16.088 11.3563C15.9263 11.4477 15.7593 11.5423 15.5881 11.6401C14.9074 12.025 14.1725 12.447 13.4993 12.9285C12.8155 13.4069 12.2135 13.9384 11.7233 14.5231C11.4808 14.8197 11.2564 15.1248 11.0639 15.4788C10.8671 15.8296 10.6831 16.208 10.5236 16.6524C10.3619 17.0925 10.2109 17.5709 10.079 18.1056L10.028 18.3022L9.88441 18.922C9.82379 19.208 9.76105 19.4897 9.70362 19.7894C9.46858 20.9673 9.24735 22.2376 8.99423 23.4973C8.96232 23.6547 8.93149 23.812 8.89959 23.9683C8.86662 24.1256 8.83259 24.2829 8.79962 24.4403C8.73581 24.7528 8.6656 25.0653 8.59434 25.3747C8.56031 25.5256 8.52735 25.6755 8.49331 25.8243C8.46566 25.953 8.43801 26.0816 8.41035 26.2092C8.3827 26.3367 8.35505 26.4643 8.32846 26.5897C8.30506 26.7173 8.28274 26.8427 8.26041 26.9692C8.07854 27.9738 7.96901 28.9401 7.92221 29.8395L7.91476 29.8299Z" fill="#EF8D2B"/>
<path d="M56.4718 40.3858C56.6494 40.2497 56.8281 40.1126 57.0089 39.9744L57.1439 39.8713C57.161 39.8574 57.2014 39.8287 57.2354 39.8053L57.3407 39.732L57.5523 39.5864L57.6587 39.5141L57.747 39.4567C58.2224 39.1463 58.6648 38.8741 59.1104 38.6094C59.3316 38.4787 59.5582 38.3437 59.7794 38.2182C59.891 38.1544 60.0027 38.0907 60.1155 38.0269L60.275 37.9354C60.275 37.9354 60.2931 37.9227 60.3026 37.9152C60.3898 37.8557 60.477 37.8004 60.5643 37.7473C60.912 37.5379 61.2896 37.3614 61.7288 37.1637C61.7309 37.1615 61.7405 37.1605 61.7363 37.1584L61.7267 37.152L61.7086 37.1403L61.6724 37.1158L61.5991 37.0669L61.4502 36.9681L61.1385 36.765C60.9248 36.6279 60.6961 36.4876 60.4654 36.3568C60.1208 36.1623 59.7783 35.9688 59.438 35.7764C58.9168 35.483 58.3989 35.196 57.8831 34.9143C56.8515 34.3519 55.8316 33.8161 54.8276 33.3155C52.5793 32.2163 50.3097 31.0522 48.0327 29.8467C47.7488 29.6958 47.4637 29.5438 47.1787 29.3928L47.0724 29.3354C47.0596 29.3301 47.0639 29.3333 47.0586 29.3322H47.0405L47.0054 29.3301C46.9618 29.329 46.9256 29.3301 46.8969 29.3333C46.8384 29.3397 46.8065 29.3524 46.7852 29.3662C46.781 29.3716 46.7735 29.3684 46.7746 29.3811L46.7852 29.4311C46.7927 29.4619 46.799 29.4864 46.8054 29.5076C46.8182 29.5501 46.8267 29.5767 46.832 29.599L46.8341 29.6075V29.6118L46.8363 29.8308C46.8363 30.1518 46.8384 30.4718 46.8395 30.7918C46.8405 31.4317 46.8416 32.0685 46.8427 32.7042C46.8427 33.9745 46.8427 35.2353 46.8437 36.4823C46.4885 36.4823 45.9546 35.651 45.7759 36.4823C45.242 39.8085 44.5306 39.8085 43.8191 39.8085C43.4628 39.8085 43.819 37.3136 43.4628 38.1449C43.4628 35.6499 43.2852 31.4891 42.9289 33.9862C42.5726 34.8186 42.9289 38.1449 42.395 38.9762C41.8611 39.8085 41.3272 38.1449 40.7933 38.9762V40.6409C40.7774 41.2617 40.7614 41.8825 40.7508 42.2971C40.3722 43.121 39.7043 41.4658 39.683 42.2929C39.2618 44.7666 39.3533 48.0663 39.2672 51.3649C39.0896 51.3596 38.9056 51.5626 38.7503 51.5594C38.595 51.5552 38.4674 51.3426 38.3993 50.5187C38.4312 48.0992 38.4621 45.6734 38.494 43.2432C38.5014 42.6362 38.5089 42.0282 38.5163 41.4201C38.5184 41.115 38.528 40.8142 38.5227 40.5059L38.5099 39.5832C38.4918 38.3532 38.4738 37.1212 38.4567 35.8891C38.4387 34.657 38.4206 33.4239 38.4025 32.1897C38.3929 31.5731 38.3844 30.9555 38.3749 30.3379L38.3685 29.8744L38.3621 29.227L38.3344 25.6594L38.3291 24.7643C38.3313 24.4677 38.3398 24.1754 38.3504 23.8862C38.3738 23.3079 38.4078 22.7435 38.4472 22.1896L38.5716 20.5632C38.6588 19.4587 38.7471 18.3542 38.8343 17.2486L38.9747 15.5158C38.9747 15.5158 38.9715 15.4892 38.9811 15.4967L39.0268 15.519L39.1172 15.5637L39.298 15.6519L40.3871 16.1824C41.3581 16.6565 42.3301 17.1306 43.3022 17.6047L44.7656 18.318C44.8836 18.3712 45.0177 18.4509 45.1485 18.5253L51.0638 21.9058L51.9922 22.4309C54.1512 23.6513 56.3112 24.8717 58.4712 26.0921L63.3241 28.8485L65.5745 30.138C69.8967 32.6308 74.2167 35.1216 78.5336 37.6112C76.3385 38.7242 74.1444 39.8362 71.9514 40.9471C69.7531 42.0601 67.575 43.172 65.4192 44.302L64.612 44.7262L63.9367 45.0844L63.1699 45.4969L62.7923 45.7021L62.4297 45.904C62.1766 46.0422 61.9766 46.1624 61.7618 46.2846L61.6735 46.3399L61.6288 46.3665L61.6065 46.3792L61.6012 46.3824L61.598 46.3845C61.5852 46.3686 61.6214 46.4239 61.5693 46.3484L61.4619 46.1953C61.3747 46.0677 61.7405 46.6152 61.5874 46.392L61.5746 46.4005L61.1673 46.6705C60.895 46.8491 60.6217 47.0266 60.3473 47.1999C59.7975 47.5486 59.2434 47.8887 58.6829 48.2172C57.563 48.8763 56.424 49.4971 55.269 50.0786C54.6915 50.3699 54.1097 50.6516 53.5248 50.9227C52.9803 51.1778 52.4347 51.4329 51.8912 51.687C49.728 52.698 47.5648 53.6993 45.4037 54.6922C42.3407 55.97 44.2679 54.2521 46.279 52.6916C45.61 53.2114 45.3771 52.7309 44.706 53.2518C44.4731 52.7713 45.5824 51.2501 48.5018 49.647C47.753 50.0074 47.0043 50.3678 46.2545 50.7292C45.4282 50.9301 46.0227 50.2487 45.8695 49.9277C46.6204 49.5662 47.3691 49.2059 47.2915 49.0453C47.2149 48.8848 47.0607 48.5638 46.9841 48.4043C46.2343 48.7647 44.7337 49.4886 43.9839 49.849C44.7337 49.4886 45.4835 49.1272 45.4069 48.9667C45.3303 48.8061 45.1761 48.4862 45.0985 48.3246C46.5236 47.4412 48.9293 46.6779 50.3555 45.7935L50.1268 45.3119C48.5464 45.8753 46.3694 47.1212 44.8677 47.8441C45.543 47.3211 45.4664 47.1606 45.3122 46.8406C46.4013 46.2176 47.5669 45.7541 48.7145 45.2524C49.2856 45.0026 49.8609 44.7368 50.4033 44.4455C50.9298 44.166 51.4328 43.8417 51.8987 43.4516C51.5477 43.6323 51.1946 43.8088 50.8394 43.982L49.7471 44.5072C49.8173 44.4115 49.8992 44.318 49.9907 44.2244C50.0364 44.1787 50.0864 44.1309 50.1353 44.0873C50.1832 44.0437 50.2332 44.0001 50.2853 43.9565C50.4948 43.7843 50.7362 43.6153 51.0021 43.4495C51.5349 43.1178 52.1645 42.7925 52.8197 42.4608C54.1299 41.8017 55.5423 41.1023 56.4761 40.3836L56.4718 40.3858Z" fill="#EF8D2B"/>
</svg>
