<svg width="96" height="74" viewBox="0 0 96 74" fill="none" xmlns="http://www.w3.org/2000/svg">
<path d="M21.1312 16.3635C21.0036 16.238 20.8749 16.1126 20.7451 15.985C20.6111 15.8457 20.4739 15.7044 20.3325 15.5587C20.2336 15.4439 20.1347 15.3291 20.0379 15.2122L19.8932 15.0357C19.8475 14.9751 19.805 14.9135 19.7603 14.8529L19.6348 14.6732C19.5965 14.6169 19.5497 14.552 19.5178 14.501L19.3253 14.1927L19.2317 14.0407L19.153 13.9046L18.9956 13.6314C18.9074 13.472 18.818 13.3125 18.7287 13.152C18.399 12.5556 18.1257 12.0975 17.8353 11.702C17.546 11.3087 17.2472 10.977 16.9047 10.6751C16.5591 10.3785 16.1645 10.1106 15.7306 9.85655L20.7802 7.81338C20.4835 8.88599 20.1815 9.90014 19.9347 10.8569C19.6869 11.8147 19.4934 12.714 19.3923 13.5793C19.3423 14.0035 19.3051 14.4649 19.2923 14.9018C19.2796 15.3419 19.2828 15.7767 19.3115 16.1997C19.3402 16.6228 19.3891 17.0364 19.4604 17.4382C19.5338 17.8411 19.6274 18.2153 19.755 18.6352C20.0081 19.458 20.3612 20.3074 20.7919 21.1652C20.8983 21.38 21.0121 21.5947 21.1269 21.8105L21.3045 22.1337L21.4992 22.4802C21.781 22.9788 22.0458 23.4529 22.3032 23.8898C22.8148 24.7658 23.3157 25.5056 23.7677 25.9744L23.8474 26.0563C23.8549 26.0637 23.8581 26.0669 23.8602 26.068L23.8687 26.0754C23.8687 26.0754 23.8793 26.085 23.8836 26.0903C23.8953 26.0988 23.9059 26.1095 23.924 26.1243L23.991 26.1775C24.0942 26.2572 24.2505 26.3646 24.4451 26.489L25.1396 26.9259C25.4076 27.096 25.7107 27.2894 26.0617 27.5477L36.0599 34.8934L23.6964 33.9579C22.5669 33.8729 21.5045 33.69 20.4771 33.4519C19.4498 33.2127 18.4575 32.9151 17.4854 32.5674C16.5144 32.2177 15.5626 31.8191 14.6214 31.3609C14.5033 31.3024 14.3863 31.2482 14.2693 31.1866L13.7918 30.9389C13.6089 30.8421 13.4345 30.7433 13.2632 30.6359C13.0909 30.5307 12.9208 30.4222 12.7517 30.3106C12.5815 30.2032 12.4369 30.0576 12.2954 29.9162C12.1561 29.7716 12.0242 29.6186 11.8987 29.4591C11.836 29.3794 11.7743 29.2975 11.7137 29.2157L11.6254 29.0966L11.6371 29.1083L13.1888 27.7795C13.2494 27.7263 13.309 27.6732 13.3675 27.6179C13.8014 27.2203 14.0481 26.9524 14.1194 26.7792C14.1279 26.7643 14.1332 26.7494 14.1343 26.7313C14.1374 26.7239 14.1364 26.7122 14.1343 26.7079C14.1343 26.7058 14.1364 26.7164 14.1651 26.7366C14.1821 26.7494 14.1917 26.7494 14.2172 26.7622C14.2417 26.7739 14.2672 26.7824 14.2927 26.7887L14.3129 26.793L14.3395 26.8004C14.3565 26.8057 14.3746 26.81 14.3927 26.8132C14.4278 26.8206 14.464 26.8259 14.499 26.8281L17.5907 26.4688C17.6535 27.2533 17.9555 28.2887 18.4117 29.4145C18.6383 29.98 18.8967 30.57 19.1722 31.1866L19.5944 32.1316L19.8124 32.627L20.0283 33.1266C20.5867 34.4405 21.0663 35.6163 21.5917 36.5698C21.8523 37.0461 22.1203 37.4638 22.3936 37.8136L22.6031 38.0645C22.685 38.1506 22.7605 38.2409 22.8445 38.326C23.0126 38.4971 23.187 38.6672 23.3763 38.8309C24.1271 39.4868 25.046 40.0757 26.0872 40.6019C26.3488 40.7338 26.6137 40.8624 26.8891 40.9878C27.0263 41.0506 27.1635 41.1133 27.3049 41.1749L27.4921 41.2568C27.5134 41.2663 27.5453 41.2791 27.5889 41.295C27.674 41.3269 27.7963 41.3684 27.9877 41.4332C28.0856 41.4673 28.2036 41.5066 28.3717 41.5725L28.5131 41.6299L28.5982 41.6671L28.6907 41.7086L28.7949 41.7585L28.9204 41.8234C28.996 41.8627 29.1193 41.9339 29.2267 42.003C29.3682 42.0976 29.4894 42.1795 29.6894 42.3538C29.7351 42.3942 29.7755 42.4314 29.8234 42.4772C29.8819 42.5346 29.9393 42.5941 29.9935 42.6547C30.0488 42.7153 30.102 42.7791 30.1531 42.8428C30.2179 42.9258 30.285 43.0193 30.3445 43.1107C30.4062 43.2064 30.4594 43.2946 30.5157 43.402C30.5806 43.5253 30.638 43.6539 30.6891 43.7847C30.7146 43.8506 30.738 43.9165 30.7593 43.9824C30.7806 44.0462 30.8018 44.1196 30.821 44.1972C30.8593 44.3492 30.888 44.5044 30.9061 44.6607C30.9156 44.7383 30.922 44.8169 30.9263 44.8935C30.9294 44.9679 30.9316 45.0433 30.9305 45.1188C30.9284 45.2698 30.9177 45.4207 30.8986 45.5696C30.888 45.6482 30.8763 45.7152 30.8656 45.7715C30.8539 45.8321 30.8401 45.8927 30.8252 45.9533C30.7954 46.0745 30.7593 46.1936 30.7167 46.3105C30.6933 46.3753 30.6785 46.4136 30.6604 46.4572C30.6423 46.4997 30.6242 46.5422 30.6051 46.5848C30.5668 46.6698 30.5242 46.7527 30.4806 46.8346C30.4604 46.8718 30.4306 46.9239 30.4168 46.9462L30.3647 47.0302C30.3296 47.0865 30.2924 47.1407 30.2541 47.195L30.1956 47.2757L30.1403 47.348L30.051 47.4565L29.9584 47.5628C29.9287 47.5957 29.8904 47.6372 29.8702 47.6563C29.8234 47.7041 29.7745 47.752 29.7255 47.7977L29.6522 47.8657L29.5958 47.9146L29.4799 48.0114L29.4139 48.0635C29.3065 48.1453 29.2055 48.2219 29.0917 48.3048L28.8768 48.4504C28.8013 48.5004 28.746 48.5397 28.628 48.6067C28.5238 48.6673 28.4185 48.7257 28.311 48.781L28.2674 48.8033L28.21 48.8299L28.0941 48.882C28.0164 48.916 27.9377 48.949 27.858 48.9798L27.7389 49.0244C27.7219 49.0308 27.6953 49.0393 27.6676 49.0478L27.5889 49.0723C27.4836 49.1042 27.3762 49.1318 27.2677 49.1573C27.0603 49.2084 26.8157 49.2392 26.5775 49.2541C26.1095 49.2838 25.698 49.2211 25.4651 49.1754L25.3619 49.1552L25.3204 49.1467L25.2906 49.1393L25.1726 49.1106L24.996 49.0659L24.8174 49.0202L24.7206 48.9989C24.6908 48.9947 24.661 48.9904 24.6313 48.9841C24.5962 48.9809 24.56 48.9766 24.5249 48.9724C24.4898 48.967 24.4409 48.967 24.3994 48.9628L24.3345 48.9575H24.258L23.9081 48.9458C23.7581 48.9288 23.6071 48.9267 23.4571 48.9139C23.1572 48.8799 22.8605 48.8246 22.568 48.7523C22.4946 48.7353 22.4223 48.7183 22.3479 48.697L22.132 48.6343L21.9661 48.5854L21.8278 48.5418L21.3747 48.3994L21.212 48.3515C21.1727 48.343 21.1344 48.3324 21.095 48.3218C21.0727 48.3143 21.061 48.3133 21.0493 48.3122L21.0131 48.3058L20.9791 48.2973C20.9738 48.2973 20.9674 48.2973 20.9621 48.2973C20.9568 48.2973 20.9515 48.2963 20.9461 48.2941L20.9376 48.291V48.2931C20.9376 48.2941 20.9366 48.2941 20.9366 48.2941V48.2633L20.9344 48.1953C20.9323 48.1655 20.9344 48.1676 20.9344 48.1602V48.1411C20.9344 48.1283 20.9344 48.1145 20.9334 48.0996C20.9334 48.0879 20.9291 48.0635 20.9281 48.0592C20.9291 48.072 20.9312 48.0837 20.9334 48.0953C20.9355 48.107 20.9376 48.1166 20.9397 48.1262L20.944 48.14C20.9461 48.1464 20.9461 48.1421 20.9504 48.1655C20.9578 48.1995 20.9653 48.2335 20.9749 48.2654L20.9823 48.2899V48.291C20.9823 48.291 20.9823 48.2867 20.9802 48.2867C20.977 48.2909 20.9727 48.2931 20.9695 48.2963C20.9621 48.3016 20.9536 48.3037 20.944 48.3048C20.9408 48.3026 20.9302 48.3133 20.9227 48.3175C20.9142 48.3239 20.9057 48.3292 20.8972 48.3345C20.8802 48.3452 20.8621 48.3537 20.8419 48.3611L21.5289 43.0204C22.417 43.959 23.3444 44.8903 24.2941 45.8481C24.7684 46.3275 25.247 46.8112 25.7245 47.3044C26.1882 47.7881 26.6498 48.2718 27.1114 48.7534C27.5442 49.202 27.9548 49.6102 28.3493 49.9642C28.7439 50.3182 29.1204 50.6105 29.4852 50.8497C29.5309 50.8816 29.5766 50.9103 29.6213 50.9358L29.7745 51.0272L29.8478 51.0687L29.884 51.09C29.8946 51.0953 29.901 51.0985 29.9106 51.1027L30.0127 51.1495L30.2158 51.243L30.4189 51.3366L30.5211 51.3833L30.5721 51.4067C30.5902 51.4131 30.6104 51.4184 30.6285 51.4237C30.9348 51.513 31.2411 51.6023 31.5473 51.6916L31.6622 51.7246L31.7962 51.7448L32.0642 51.7852L32.6002 51.866L32.8683 51.9064C32.9097 51.9149 32.964 51.917 33.0171 51.9191L33.1756 51.9276L33.8084 51.9616C34.0222 51.9723 34.2253 51.9861 34.4465 51.9946L35.1942 51.9882C35.6972 51.9829 36.1694 51.9829 36.7448 51.9659C37.2989 51.9531 37.854 51.9393 38.4071 51.9266C38.9654 52.8397 39.3749 53.4074 39.7142 53.8156C40.0513 54.2227 40.3299 54.4662 40.5501 54.6511C40.6065 54.6958 40.6586 54.7341 40.7128 54.7766C40.7649 54.8149 40.8149 54.8457 40.8649 54.8808C40.9149 54.9137 40.9596 54.9392 41.0074 54.969L41.0244 54.9796C41.0244 54.9796 41.0276 54.9807 41.0287 54.9828L41.0351 55.0041L41.0489 55.0466L41.1042 55.2167C41.1435 55.3294 41.1723 55.4452 41.2031 55.5601C41.2648 55.7907 41.3095 56.0267 41.3403 56.2659C41.3679 56.5051 41.3828 56.7475 41.3701 56.976C41.3584 57.2035 41.3328 57.4108 41.2914 57.5724C41.2509 57.7372 41.2063 57.869 41.1606 57.987C41.0936 58.1571 41.0223 58.2985 40.9478 58.4356C40.8734 58.5727 40.7936 58.7067 40.7043 58.8502C40.6139 58.9926 40.515 59.15 40.3991 59.319C40.3363 59.4072 40.2778 59.4933 40.2023 59.5922C40.1353 59.6847 40.0502 59.791 39.9683 59.8941C39.6174 60.314 39.1196 60.8508 38.2603 61.3834C38.2125 61.4174 38.1518 61.4483 38.0923 61.4791L37.9136 61.5726L37.5563 61.7597C37.2968 61.8724 37.0256 61.9777 36.7597 62.0871C36.2162 62.2732 35.6728 62.4581 35.1293 62.6442L34.773 62.7898L34.5943 62.8632C34.5369 62.8887 34.4699 62.9089 34.4231 62.9397L33.8105 63.2799L33.2075 63.6286L32.5822 63.9645C31.7356 64.4057 30.8316 64.8107 29.8861 65.1647L29.1704 65.4187C28.929 65.4985 28.6843 65.5739 28.4408 65.6515C28.1983 65.7281 27.9548 65.7972 27.7091 65.862L27.1933 65.9938C26.536 66.1544 25.8734 66.2819 25.2268 66.3797C23.9283 66.5775 22.6765 66.6604 21.4832 66.705C20.8866 66.7273 20.3027 66.739 19.7327 66.7475C19.1658 66.7539 18.5979 66.7592 18.0299 66.7656C15.7274 66.7773 13.4153 66.7135 11.1075 66.5828L14.2885 59.7112C14.4161 59.8292 14.5416 59.9483 14.666 60.0684L15.0297 60.3725C15.2658 60.5457 15.4871 60.7105 15.6998 60.8157L15.7785 60.8615C15.8051 60.8763 15.8327 60.8859 15.8593 60.8987L16.0199 60.9752C16.1369 61.0177 16.2443 61.0677 16.3815 61.1091L16.4783 61.1432L16.591 61.1751L16.7048 61.208L16.7612 61.225L16.8271 61.242L17.0962 61.3111L17.411 61.3855C17.8545 61.4887 18.399 61.6109 18.9999 61.7746C19.3115 61.866 19.6157 61.9521 19.939 62.067L20.1783 62.1499L20.2921 62.1903L20.3867 62.2253L20.7621 62.3657C21.7555 62.7399 22.6999 63.1321 23.5028 63.4298C23.9038 63.5775 24.2686 63.7019 24.5749 63.7848C24.6483 63.8029 24.727 63.8274 24.7929 63.8401L25.0769 63.9039L25.8075 64.0665C26.7743 64.2823 27.6985 64.4864 28.5982 64.6597C29.0491 64.7469 29.4947 64.8266 29.9414 64.9L30.0254 64.9138L30.0467 64.917L30.0605 64.9191L30.0871 64.9223L30.1935 64.9372C30.2626 64.9489 30.3381 64.9531 30.4115 64.9616C30.5593 64.9765 30.7157 64.985 30.8805 64.9903C31.2102 65.001 31.5814 64.9935 32.0291 64.9712C32.4769 64.951 32.9927 64.9159 33.6255 64.9032C33.7914 64.9021 33.9445 64.8978 34.1253 64.9021L34.388 64.9063L34.6688 64.9191L34.8092 64.9265L34.9272 64.935L35.158 64.9521L35.6079 64.9925C36.195 65.0509 36.7374 65.1221 37.2361 65.1891C38.2327 65.3241 39.0452 65.424 39.8088 65.4528C40.5884 65.4804 41.4434 65.4602 42.3145 65.3975C43.1855 65.3348 44.0746 65.2401 44.9563 65.1105C45.8369 64.9818 46.7154 64.8234 47.547 64.6331L47.7034 64.5981L47.8682 64.5587L48.199 64.4779L48.8605 64.31C49.3008 64.1952 49.7411 64.0719 50.1803 63.9443C51.0577 63.6881 51.9309 63.4085 52.7955 63.1045C53.6687 62.7983 54.494 62.4847 55.3384 62.1307C56.1797 61.7799 57.0209 61.4025 57.8632 61.0028C58.2844 60.803 58.7045 60.5978 59.1256 60.3895L59.283 60.3108L59.3575 60.2736L59.417 60.2428C59.4968 60.2002 59.5755 60.162 59.6563 60.1173L59.8999 59.9834L60.1477 59.8388C60.8166 59.4412 61.5281 58.9512 62.3098 58.3931L63.5456 57.515C63.7615 57.363 63.987 57.2078 64.2178 57.0526L64.8431 56.6348C65.6057 56.1224 66.3267 55.6121 67 55.0891C67.336 54.8276 67.6604 54.5629 67.9731 54.294C68.1294 54.16 68.2826 54.024 68.4315 53.8879L68.9515 53.4085C69.6652 52.7494 70.3214 52.1339 70.8925 51.5396C71.1786 51.243 71.4434 50.9518 71.6848 50.6658C71.806 50.5223 71.9198 50.3809 72.0294 50.2395L72.441 49.6984C72.9972 48.9596 73.5013 48.2601 73.9203 47.5947C74.1298 47.2619 74.3191 46.9388 74.484 46.6262C74.5669 46.47 74.6424 46.3169 74.7126 46.1659L74.9945 45.5483C75.3795 44.6957 75.7432 43.8591 76.0676 43.0459C76.2303 42.6387 76.3824 42.238 76.5217 41.8446C76.5919 41.648 76.6578 41.4534 76.7206 41.26L76.812 40.9719C76.8408 40.8773 76.8737 40.7763 76.8929 40.7008C77.0832 40.0566 77.2194 39.3263 77.3374 38.4822C77.4565 37.6382 77.5523 36.6782 77.7075 35.5939L77.7703 35.1825L77.8341 34.7924L77.9649 34.0345C78.0542 33.5497 78.1425 33.066 78.2319 32.5834C78.4073 31.6415 78.5732 30.7507 78.7062 29.8886C78.8838 29.913 78.9827 30.6944 79.1103 31.1164C79.1752 31.3258 79.2507 31.4385 79.356 31.3088C79.4602 31.1791 79.5985 30.8017 79.7612 30.0533C79.7974 29.8663 79.8335 29.6823 79.8697 29.5016C79.8867 29.4113 79.9026 29.322 79.9197 29.2337L79.942 29.1126L79.9601 29.0052C79.9728 28.934 79.9856 28.8627 79.9973 28.7926C80.0079 28.7182 80.0175 28.6448 80.0271 28.5725C80.0366 28.4992 80.0473 28.4258 80.0569 28.3535C80.0643 28.2781 80.0728 28.2026 80.0803 28.1282C80.143 27.5307 80.1749 26.9131 80.2036 26.304C80.2324 25.6927 80.2568 25.0942 80.2972 24.5085C80.31 24.314 80.3227 24.1226 80.3355 23.9355C80.3419 23.8356 80.3493 23.7357 80.3557 23.6379C80.3653 23.5337 80.3759 23.4306 80.3855 23.3285C80.4068 23.1244 80.4248 22.9235 80.4482 22.729C80.478 22.5376 80.5067 22.3495 80.5344 22.1656C80.5588 21.9806 80.5971 21.8062 80.6333 21.6351C80.6705 21.465 80.7024 21.297 80.7407 21.1365C80.7928 20.9845 80.8449 20.8357 80.8949 20.6911C80.9204 20.6188 80.9449 20.5476 80.9694 20.4774L80.9874 20.4243L81.013 20.3775L81.064 20.285C81.131 20.1638 81.197 20.0448 81.2608 19.9289L81.3086 19.8428L81.332 19.8003L81.3384 19.7896L81.3416 19.7843C81.3831 19.812 81.3554 19.7886 81.365 19.7928L81.3778 19.7705C81.4161 19.7131 81.4501 19.6578 81.5022 19.6174C81.6947 19.4484 81.8936 19.3102 82.0978 19.1869C82.5061 18.9413 82.9316 18.7723 83.3229 18.6426C83.7154 18.5119 84.0717 18.4162 84.3833 18.3343C84.5385 18.295 84.6853 18.2589 84.8215 18.2248C84.8895 18.2089 84.9544 18.193 85.0182 18.1781C85.0501 18.1706 85.0809 18.1643 85.1107 18.1568C85.1288 18.1547 85.148 18.1526 85.165 18.1504C85.3054 18.1366 85.4128 18.1334 85.4606 18.1579C85.4649 18.1621 85.4766 18.1621 85.4744 18.1696C85.4691 18.1611 85.4851 18.1919 85.4968 18.2142L85.5319 18.2822C85.5553 18.3269 85.5787 18.3715 85.6021 18.4162C85.6499 18.5034 85.6978 18.5905 85.7457 18.6766C85.7946 18.7617 85.8435 18.8457 85.8924 18.9286C85.9275 18.9956 85.9637 19.0593 85.9998 19.1231C86.0732 19.2496 86.1509 19.3708 86.2306 19.4856C86.2859 19.5802 86.3391 19.6589 86.4029 19.7354L86.4508 19.7907L86.4571 19.7971C86.7177 20.1054 84.2142 17.1416 85.2745 18.396H85.2766L85.2809 18.3949L85.2979 18.3907C85.3213 18.3854 85.3426 18.3811 85.3639 18.3769C85.4489 18.3609 85.5234 18.3545 85.5882 18.3567C85.8488 18.3641 85.9669 18.497 86.0828 18.632C86.1115 18.666 86.0222 18.7861 85.8467 18.97C85.836 18.9817 85.8244 18.9934 85.8127 19.0051L85.8042 19.0136L85.7999 19.0179C85.6574 18.8499 87.0485 20.4966 86.454 19.7939L86.4444 19.7833L86.4253 19.762C86.3763 19.7057 86.3295 19.6451 86.2881 19.5802C86.2657 19.5462 86.2519 19.5186 86.2242 19.4782C86.1945 19.4346 86.1647 19.3899 86.1349 19.3453C86.0764 19.256 86.0201 19.1635 85.9669 19.0689L85.9275 18.9977C85.9147 18.9754 85.8967 18.9403 85.9031 18.9509L85.8999 18.953L85.8935 18.9583C85.8722 18.9754 85.8158 19.0094 85.7499 19.0434C85.684 19.0785 85.6106 19.1146 85.5159 19.1582C85.4 19.2092 85.2777 19.2624 85.1512 19.3187C84.6481 19.5377 84.0504 19.7652 83.491 20.0607C83.2134 20.2106 82.9443 20.3669 82.704 20.5646C82.6742 20.5891 82.6487 20.6188 82.6253 20.6518C82.6189 20.6592 82.6146 20.6688 82.6104 20.6773L82.6072 20.6837L82.6051 20.6869C82.6125 20.6932 82.5934 20.6815 82.5944 20.6837L82.5902 20.6975L82.5721 20.7528C82.5487 20.8261 82.5253 20.9005 82.5008 20.9739C82.454 21.1206 82.4019 21.263 82.3764 21.4204C82.1148 22.6407 82.1201 23.8537 82.1318 24.3905C82.1414 24.6382 82.1594 24.7477 82.1839 24.7052C82.1967 24.6828 82.2105 24.6191 82.2275 24.5085C82.2318 24.4809 82.236 24.449 82.2413 24.415C82.2467 24.3756 82.252 24.3331 82.2573 24.2874C82.2679 24.196 82.2796 24.0907 82.2945 23.9695C82.2935 24.061 82.2913 24.1524 82.2903 24.2438C82.2892 24.3342 82.286 24.433 82.2871 24.5074C82.2871 24.6669 82.2871 24.8285 82.2871 24.9911C82.2913 25.3122 82.2956 25.6375 82.3009 25.9681C82.3115 26.6218 82.3222 27.2809 82.3041 27.9336C82.2945 28.26 82.2786 28.5842 82.252 28.9053C82.2413 29.0668 82.219 29.2242 82.203 29.3836C82.186 29.5431 82.1595 29.7174 82.1382 29.8833C82.0446 30.5562 81.9372 31.2312 81.8213 31.9041C81.5915 33.2499 81.3352 34.584 81.1544 35.8682C80.9768 37.1641 80.8917 38.3249 80.7609 39.3093C80.6982 39.8015 80.6301 40.2501 80.5567 40.6498C80.4812 41.0484 80.4078 41.4014 80.3334 41.7001C80.1856 42.306 80.0696 42.7185 80.0547 42.8705C80.0356 43.0225 80.1143 42.9173 80.2972 42.491C80.478 42.0583 80.7673 41.3301 81.0257 40.1576C81.1427 39.7728 81.2618 39.2317 81.3725 38.5683C81.4852 37.905 81.5852 37.1194 81.7213 36.2541C81.9957 34.5213 82.4413 32.5302 82.7646 30.5253C82.8454 30.0246 82.922 29.5208 82.9741 29.0307C83.022 28.5364 83.0464 28.0431 83.0613 27.5563C83.0858 26.5825 83.0698 25.6385 83.0932 24.7668C83.0964 24.6584 83.0996 24.55 83.1028 24.4437C83.1081 24.3342 83.1124 24.2257 83.1177 24.1194C83.1262 23.9068 83.1432 23.6985 83.1581 23.4975C83.1719 23.2966 83.1985 23.1042 83.2187 22.9193C83.2411 22.7343 83.2719 22.5589 83.2985 22.3909C83.3283 22.224 83.3644 22.0667 83.3963 21.9179C83.4293 21.769 83.4718 21.6319 83.5069 21.5033C83.5165 21.4714 83.525 21.4395 83.5335 21.4087C83.541 21.3778 83.5506 21.3449 83.5814 21.3279C83.6356 21.2885 83.6962 21.263 83.7558 21.2386C83.8749 21.1918 83.9898 21.1567 84.0951 21.127C84.5194 21.0111 84.7938 20.976 84.9608 20.9792C85.1278 20.9834 85.1894 21.0302 85.1905 21.1025C85.1905 21.2471 84.9512 21.4841 84.763 21.718C84.7151 21.7765 84.6704 21.836 84.6332 21.8955C84.6141 21.9253 84.5971 21.9551 84.5832 21.9859C84.5694 22.0167 84.5545 22.0476 84.5577 22.088C84.596 22.257 84.6449 22.3909 84.7013 22.4664C84.7587 22.5429 84.8257 22.5621 84.9055 22.51C84.9257 22.4972 84.9459 22.4802 84.9682 22.4579C84.9927 22.4388 85.0012 22.4026 85.0576 22.3899C85.1575 22.3601 85.2841 22.3388 85.4277 22.3091C85.6616 22.2028 85.9307 22.0975 86.221 21.9806C86.2934 21.9508 86.3678 21.9211 86.4433 21.8913C86.522 21.8583 86.6018 21.8254 86.6826 21.7924C86.7518 21.7627 86.8209 21.7329 86.8911 21.7021L87.0059 21.65L87.1336 21.5894C87.1825 21.5649 87.224 21.5447 87.2888 21.5086C87.3197 21.4916 87.3431 21.4799 87.3909 21.4501L87.4547 21.4108L87.4867 21.3906L87.542 21.3523C87.5792 21.3257 87.6164 21.297 87.6526 21.2683L87.693 21.2343L87.7344 21.1992L87.8185 21.128C88.2641 20.7496 88.7363 20.3318 89.2106 19.8534C89.6839 19.3772 90.155 18.8318 90.5645 18.2504C90.975 17.6699 91.3217 17.064 91.6216 16.4783C91.9247 15.8904 92.1693 15.3206 92.4012 14.7785C92.5107 14.5084 92.6245 14.2427 92.7224 13.9875C92.7724 13.86 92.8213 13.7335 92.8702 13.6102C92.8947 13.5485 92.9181 13.4869 92.9425 13.4263L92.9766 13.3327C92.9904 13.2923 93.001 13.2626 93.0159 13.2137C93.0308 13.1605 93.0446 13.1073 93.0574 13.0542L93.067 13.0117L93.0776 12.9511C93.084 12.9107 93.0904 12.8692 93.0946 12.8288C93.1042 12.7704 93.1106 12.6088 93.101 12.4823C93.0989 12.4483 93.0957 12.4185 93.0914 12.3813C93.084 12.3281 93.0744 12.275 93.0627 12.2229C93.0382 12.1166 93.0074 12.0167 92.9649 11.9135C92.9053 11.7754 92.8245 11.6393 92.7309 11.5192C92.6416 11.4012 92.5203 11.2864 92.3895 11.1907C92.3235 11.1428 92.2555 11.0993 92.1864 11.062C92.1279 11.0312 92.0758 11.0068 92.0173 10.9834C91.9598 10.96 91.9013 10.9398 91.8428 10.9228C91.8131 10.9143 91.7833 10.9058 91.7546 10.8994L91.7099 10.8888L91.6801 10.8835C91.6025 10.8696 91.5227 10.8601 91.444 10.8548C91.4068 10.8526 91.36 10.8505 91.3302 10.8516L91.2547 10.8537C91.2047 10.8558 91.1537 10.8601 91.1037 10.8664L91.0665 10.8707L91.0409 10.875L90.991 10.8835C90.8442 10.91 90.7644 10.9366 90.6772 10.9632L90.5719 11.0004C90.5358 11.0131 90.5134 11.0227 90.4837 11.0355C90.4241 11.0589 90.3816 11.0791 90.3348 11.1003C90.2933 11.1205 90.2518 11.1397 90.2114 11.1598C90.1752 11.1779 90.1401 11.196 90.104 11.2151C89.837 11.3565 89.6456 11.4724 89.4722 11.5734C89.0926 11.7435 89.0001 11.7318 88.8703 11.7243C88.7618 11.7116 88.7246 11.6659 88.7342 11.5989C88.7384 11.5649 88.7544 11.5266 88.7756 11.4862C88.7969 11.4447 88.8288 11.4022 88.8511 11.3565C88.8777 11.3097 88.8948 11.2672 88.9522 11.2024C89.0032 11.1407 89.066 11.0706 89.1372 10.9972C89.2776 10.8505 89.4488 10.6879 89.6275 10.5358C89.72 10.4582 89.8115 10.386 89.9051 10.3179C90.0147 10.2403 90.0987 10.1808 90.1465 10.1468C90.2018 10.1053 90.2114 10.084 90.1625 10.0872C90.138 10.0894 90.0987 10.0979 90.0434 10.1138C89.9913 10.1287 89.9349 10.1478 89.8647 10.1755C89.5999 10.2765 89.2702 10.4519 88.932 10.6517L88.748 10.7484C88.6959 10.775 88.6406 10.8027 88.6193 10.8101C88.5683 10.8346 88.4938 10.8526 88.4119 10.8835L88.3524 10.9058L88.2715 10.9302L88.1056 10.9802L88.0227 11.0057L87.928 11.0302L87.7366 11.0801C87.2154 11.2141 86.6199 11.3384 86.003 11.4522C85.3841 11.5649 84.7374 11.6669 84.0812 11.7594C83.7537 11.8062 83.4219 11.8487 83.0954 11.887L82.8539 11.9135C82.7763 11.9221 82.6902 11.9327 82.621 11.938L82.5125 11.9476C82.4764 11.9508 82.4349 11.955 82.4211 11.955L82.3594 11.9593H82.3551H82.353C82.353 11.9593 82.352 11.9486 82.353 11.971L82.3658 12.2686C82.3658 12.2984 82.3711 12.3047 82.3732 12.3228L82.3828 12.3696L82.3998 12.4642C82.4445 12.7161 82.4743 12.9713 82.4902 13.2264C82.5221 13.7367 82.4955 14.2501 82.4105 14.7561L83.7228 17.4435C84.2386 17.1841 84.7577 16.8875 85.2596 16.5548C85.7627 16.2231 86.2466 15.8553 86.6954 15.4747C87.1453 15.0942 87.56 14.704 87.9461 14.3245C88.0407 14.2299 88.1365 14.1353 88.2311 14.0407C88.3236 13.9472 88.4151 13.8547 88.5076 13.7611C88.6799 13.5847 88.8522 13.4082 89.0266 13.2307C89.0479 13.2083 89.0713 13.1881 89.0936 13.1679L89.2138 13.067C89.3521 12.9543 89.4914 12.8405 89.6307 12.7268C89.9434 12.4695 90.2943 12.1719 90.6421 11.8306C91.3377 11.1535 92.046 10.2903 92.5554 9.23361C92.8107 8.70847 93.0149 8.1408 93.151 7.55825C93.2882 6.9757 93.3562 6.38146 93.3626 5.80316C93.3648 5.72981 93.3626 5.64158 93.3626 5.56079C93.3594 5.46937 93.3573 5.38432 93.3509 5.2844L93.3392 5.13132C93.335 5.08242 93.3265 5.01757 93.3201 4.96123L93.3084 4.87406L93.2924 4.77414L93.2744 4.67315C93.268 4.63913 93.2627 4.6083 93.252 4.56578C93.2339 4.48499 93.2148 4.40738 93.1925 4.32553C93.1648 4.22986 93.134 4.13525 93.0999 4.0417C93.0563 3.92795 93.0106 3.81846 92.9553 3.70365C92.9223 3.63668 92.8872 3.57077 92.85 3.50592C92.8128 3.44001 92.7788 3.38155 92.7234 3.30076C92.6724 3.22528 92.6192 3.15193 92.5639 3.0807L92.5214 3.02755L92.4693 2.96696C92.4342 2.92656 92.398 2.88723 92.3608 2.84896C92.2842 2.7703 92.2172 2.70226 92.1215 2.62147C92.03 2.54387 91.9354 2.47052 91.8365 2.40248C91.6344 2.26641 91.4025 2.14097 91.176 2.05593C91.0633 2.01234 90.9399 1.97195 90.8304 1.94325C90.7219 1.91561 90.6113 1.89222 90.4996 1.87415L90.4167 1.86139L90.3433 1.85289C90.2943 1.84757 90.2454 1.84438 90.1965 1.84119C90.1019 1.83482 89.9912 1.83163 89.9168 1.83482C89.8349 1.83694 89.752 1.84119 89.6701 1.84864L89.6084 1.85395L89.5573 1.86033L89.4563 1.87521C89.3904 1.88584 89.317 1.8986 89.2585 1.91136C89.2032 1.92305 89.1479 1.93687 89.0936 1.95069C88.9756 1.98045 88.899 2.00703 88.8065 2.03786C88.4672 2.15798 88.2545 2.27173 88.0695 2.37272C87.8876 2.47477 87.743 2.56832 87.6164 2.65442C87.4877 2.74159 87.376 2.82345 87.2729 2.89999C87.0655 3.05519 86.8879 3.19764 86.722 3.33371C86.5667 3.4634 86.4104 3.59203 86.254 3.72172C85.9584 3.96835 85.6861 4.19584 85.4245 4.40101C85.1639 4.60617 84.9161 4.78902 84.6896 4.93784C84.4641 5.08667 84.2567 5.20042 84.1089 5.2642L84.0568 5.28652L83.9451 5.32904C83.8685 5.35775 83.7952 5.38751 83.7175 5.41515C83.5633 5.47043 83.407 5.52571 83.2464 5.57886C82.9252 5.6841 82.5955 5.78509 82.2531 5.8797C81.9106 5.97431 81.5596 6.06574 81.1991 6.15397L80.6269 6.2911L80.4323 6.33787L80.3355 6.36232L80.3111 6.3687C80.3036 6.36977 80.2983 6.3602 80.2908 6.35595C80.2781 6.34532 80.2653 6.33362 80.2526 6.32406C80.143 6.23795 80.0207 6.17523 79.8931 6.11145L79.6655 5.99876L79.5549 5.94242L79.4581 5.8914C79.3369 5.82761 79.2528 5.77765 79.1944 5.73832C79.2879 5.598 78.7721 5.05053 78.7987 4.88894C78.8125 4.80815 78.9614 4.8241 79.3911 5.03458C79.4443 5.06116 79.5028 5.09092 79.5655 5.12281C79.607 5.1462 79.6017 5.13663 79.6144 5.14089C79.6251 5.14301 79.6304 5.14408 79.6463 5.14833C79.6942 5.16108 79.7761 5.19085 79.9207 5.24932C80.0079 5.28546 80.0994 5.32479 80.1983 5.36519C80.21 5.36944 80.2313 5.38007 80.2345 5.38007H80.244L80.2621 5.38539C80.2727 5.38751 80.2834 5.38964 80.2951 5.39176C80.3387 5.40027 80.3844 5.41196 80.428 5.43216C80.4344 5.43429 80.4418 5.43748 80.4493 5.44066C80.4567 5.44598 80.4695 5.43322 80.4801 5.43003C80.5025 5.42047 80.527 5.40877 80.5535 5.39708L80.5939 5.38645L80.9545 5.29715C81.299 5.21317 81.632 5.12707 81.9553 5.03883C82.2764 4.94954 82.5881 4.85705 82.888 4.76032C83.0347 4.71035 83.1847 4.66252 83.3251 4.61043C83.3963 4.58491 83.4686 4.5594 83.5367 4.53282L83.7356 4.45735C83.7962 4.4329 83.9451 4.35955 84.127 4.24368C84.3099 4.1278 84.5279 3.9726 84.7651 3.78976C85.0023 3.60691 85.2586 3.39643 85.5404 3.1615C85.8244 2.9255 86.1264 2.66718 86.5178 2.35996C86.6167 2.28236 86.722 2.20157 86.8411 2.11546C86.957 2.03042 87.0921 1.93581 87.2452 1.83482C87.3984 1.73489 87.5834 1.62114 87.827 1.49464L87.9195 1.44787L88.0258 1.39684C88.1003 1.36282 88.1673 1.33093 88.263 1.29266C88.3524 1.25652 88.4343 1.22356 88.5523 1.1853L88.7171 1.13214C88.7735 1.11513 88.849 1.09494 88.9139 1.07899C88.9841 1.06198 89.0458 1.0471 89.1234 1.03115C89.2074 1.01521 89.2915 1.00033 89.3755 0.988632L89.502 0.971623C89.5499 0.966308 89.6041 0.960993 89.6552 0.957804C89.7583 0.950362 89.8626 0.94611 89.9657 0.945047C90.4348 0.945047 90.9867 1.01308 91.5918 1.26396C91.8779 1.38196 92.1747 1.54779 92.4193 1.72532C92.5426 1.81462 92.6618 1.91029 92.7756 2.01128C92.8798 2.10589 92.9734 2.19944 93.0659 2.30043C93.1116 2.35039 93.1563 2.40142 93.1999 2.45351C93.2393 2.50135 93.2722 2.54387 93.3073 2.59064C93.3765 2.68206 93.4424 2.77667 93.5051 2.87235L93.5466 2.93826L93.5828 2.99885L93.653 3.1211L93.7189 3.24548C93.7391 3.28587 93.7636 3.33371 93.7774 3.36454C93.8093 3.43364 93.8402 3.50273 93.8689 3.57289L93.9114 3.67814L93.9316 3.73129L93.9465 3.77487C93.9859 3.88756 94.0263 4.01406 94.055 4.1193C94.0805 4.21604 94.105 4.31277 94.1262 4.41057C94.1443 4.49562 94.1581 4.57428 94.172 4.65614C94.2209 4.96017 94.239 5.20892 94.2464 5.4109C94.2549 5.62351 94.2528 5.79891 94.2464 5.95624C94.2411 6.11782 94.2369 6.27941 94.2198 6.44418C94.206 6.60789 94.1922 6.7716 94.1667 6.93743C94.1443 7.1022 94.1199 7.26698 94.0858 7.43175C93.9593 8.09084 93.7529 8.74355 93.4828 9.35373C93.2116 9.96286 92.8787 10.5241 92.5171 11.0291C92.1555 11.533 91.7641 11.9752 91.3759 12.3675C90.9878 12.7565 90.5985 13.0967 90.254 13.3827L89.8094 13.7494C89.6711 13.8653 89.6999 13.8419 89.6722 13.8695L89.1777 14.3819L88.9064 14.6605L88.6236 14.9454C88.2386 15.3302 87.8195 15.7341 87.3516 16.1392C86.8847 16.5431 86.371 16.9449 85.8307 17.3117C85.2905 17.6795 84.7268 18.0122 84.1621 18.3035L82.4083 14.7551C82.4838 14.3033 82.5125 13.8451 82.4955 13.3891C82.487 13.1605 82.4668 12.933 82.436 12.7066C82.4051 12.4823 82.3498 12.2899 82.3477 11.8806L82.3052 10.9898H82.3137L82.3296 10.9866C82.3349 10.9866 82.4179 10.977 82.4732 10.9717L82.5625 10.9621L82.6646 10.9494L82.8709 10.9228L83.3027 10.8622L83.743 10.7952C84.3322 10.7027 84.9225 10.5964 85.4957 10.4816C86.07 10.3668 86.6326 10.2382 87.1293 10.1C87.191 10.083 87.258 10.066 87.3154 10.049L87.4845 9.99688L87.6536 9.94585L87.7919 9.89589L87.928 9.84805C87.9642 9.83423 87.9801 9.8236 88.0078 9.81191L88.0397 9.79915C88.0482 9.79596 88.0641 9.79171 88.0652 9.78958L88.0982 9.77151C88.1652 9.7343 88.2864 9.66308 88.4279 9.5791L88.6693 9.43772C88.7576 9.38669 88.8597 9.32928 88.9777 9.26444C89.0936 9.20172 89.2372 9.12624 89.434 9.03695C89.4861 9.01356 89.5297 8.99336 89.5999 8.96466L89.6967 8.92533C89.7254 8.91363 89.7647 8.89875 89.8104 8.88174L89.9402 8.83603C89.9774 8.82327 90.0359 8.80414 90.0997 8.785C90.1603 8.76693 90.222 8.74992 90.2827 8.73398C90.339 8.7191 90.4549 8.69358 90.539 8.67764C90.6474 8.6585 90.6836 8.64894 90.8538 8.62874C90.9984 8.61279 91.1441 8.60322 91.2888 8.6011C91.4653 8.59791 91.745 8.61385 91.9651 8.65C92.1342 8.66807 92.616 8.78288 92.9255 8.92426C93.219 9.03907 93.7221 9.33247 94.0645 9.65989C94.4283 9.99475 94.691 10.353 94.9122 10.774C95.1366 11.2268 95.177 11.4118 95.2653 11.7637C95.3408 12.1315 95.3419 12.2718 95.3525 12.4685C95.361 12.6343 95.3493 12.9086 95.3397 12.9819C95.3291 13.0946 95.3153 13.2062 95.2972 13.3178C95.2759 13.4443 95.2589 13.5209 95.2451 13.5815C95.2291 13.6495 95.2121 13.7186 95.193 13.7866C95.1727 13.861 95.1547 13.9195 95.1419 13.9567L95.0962 14.0907L95.0483 14.2214L95.0366 14.2522L94.8473 14.7391L94.7526 14.9826L94.6527 15.2302L94.4506 15.7267L94.2326 16.2338C93.9327 16.9141 93.5998 17.621 93.1808 18.3567C92.7649 19.0891 92.2449 19.8524 91.6674 20.5348C91.091 21.2205 90.4858 21.8084 89.9221 22.3165C89.7828 22.4409 89.6382 22.5727 89.5031 22.6875L89.2978 22.865L89.1947 22.9533L89.1691 22.9756L89.0947 23.0373C89.0054 23.1095 88.9128 23.1786 88.8182 23.2445C88.6991 23.3264 88.7054 23.32 88.6416 23.3604L88.5002 23.4465L88.4055 23.4997C88.3502 23.5305 88.2779 23.5688 88.2439 23.5858L88.1162 23.6496L88.0142 23.6985L87.8334 23.7824L87.677 23.8515L87.5122 23.9228C87.4441 23.9536 87.376 23.9812 87.3112 24.0142C87.2686 24.0248 87.2761 24.0737 87.2697 24.1077C87.2654 24.1449 87.2633 24.1811 87.2612 24.2183C87.2601 24.2555 87.259 24.2895 87.259 24.3288L87.2612 24.888L87.2899 26.8472C87.2941 27.552 87.2867 28.31 87.2272 29.1232L87.2037 29.4283C87.1952 29.5303 87.1814 29.6377 87.1708 29.7429L87.1357 30.0587L87.1261 30.1363L87.1176 30.2022L87.0995 30.334C87.0527 30.6869 87.0006 31.0356 86.9464 31.3822C86.7305 32.7652 86.4731 34.0844 86.2561 35.3144C86.2019 35.6226 86.1498 35.9245 86.103 36.2222L86.0679 36.4444L86.0371 36.6517C86.0158 36.7867 85.9977 36.9344 85.9775 37.0769C85.9009 37.6584 85.8307 38.2983 85.7478 38.9829C85.6638 39.6697 85.5617 40.4053 85.4181 41.1728C85.3819 41.3652 85.3415 41.5597 85.3011 41.7543C85.2554 41.952 85.216 42.1465 85.1639 42.3464C85.1139 42.5452 85.0639 42.744 85.0054 42.9449L84.9204 43.2425L84.8374 43.5147C84.3886 44.9615 83.86 46.2946 83.3187 47.5702C83.0475 48.208 82.771 48.8299 82.4934 49.4444L82.3828 49.6867L82.2488 49.9727C82.1573 50.1608 82.0648 50.3469 81.9701 50.5287C81.7808 50.8933 81.583 51.242 81.382 51.5821C80.5759 52.9343 79.7112 54.1037 78.8987 55.1805C78.8072 55.3028 78.669 55.4814 78.5456 55.6387C78.419 55.7961 78.2925 55.9544 78.1638 56.1065C77.9075 56.4137 77.648 56.7039 77.3885 56.9888C76.8684 57.5511 76.3462 58.0742 75.8379 58.5621C75.3284 59.0522 74.8307 59.5114 74.3574 59.9526L73.948 60.3278C73.8065 60.4533 73.6651 60.5808 73.5226 60.7031C73.2375 60.9518 72.9493 61.1889 72.6611 61.4238C71.504 62.3582 70.3246 63.1863 69.1738 63.9507C68.2347 64.5747 67.1999 65.3634 65.9939 66.1841C65.3908 66.5934 64.7474 67.008 64.0476 67.4045C63.8689 67.5023 63.6956 67.6022 63.5116 67.6968C63.3329 67.7893 63.1298 67.8967 62.9894 67.9647L62.0641 68.4208C60.823 69.0235 59.5521 69.6008 58.2429 70.1386C57.9153 70.2726 57.5856 70.4044 57.2528 70.533C56.922 70.6617 56.5817 70.7882 56.2541 70.9072C55.5937 71.1486 54.9279 71.3771 54.2589 71.594C52.92 72.0287 51.5629 72.4189 50.1856 72.7569L49.6677 72.8813L49.1242 73.0046C48.7626 73.0822 48.4032 73.1566 48.0448 73.2236C47.3279 73.3586 46.6154 73.4745 45.9007 73.5744C44.4692 73.77 43.0356 73.9093 41.5392 73.9571C40.7905 73.9805 40.0236 73.9805 39.2228 73.9412C38.8219 73.921 38.4284 73.8901 38.0476 73.8529C37.6647 73.8157 37.2968 73.7721 36.9447 73.7275L35.9397 73.5936C35.6238 73.551 35.3229 73.5117 35.0463 73.4798C34.7688 73.449 34.5071 73.4224 34.2625 73.4064C34.2264 73.4033 34.2136 73.4043 34.1923 73.4033L34.1317 73.4011C34.0956 73.3979 34.0424 73.399 33.9945 73.3979H33.9222H33.8382C33.7797 73.399 33.7308 73.3979 33.6638 73.4011C32.6736 73.4235 30.9263 73.6042 29.0778 73.3491L28.7311 73.298L28.5748 73.2736L28.4429 73.2513L27.9154 73.1598C27.5655 73.096 27.2156 73.0312 26.871 72.9621C26.1797 72.825 25.5023 72.6772 24.845 72.5305L22.8828 72.0851C22.417 71.9767 21.9894 71.8502 21.5928 71.7205C21.195 71.5908 20.8217 71.4568 20.475 71.325C20.1272 71.1932 19.7954 71.0624 19.4827 70.937L18.5713 70.5724L17.7088 70.2343L17.2919 70.077C17.1951 70.0451 17.0994 70.0121 17.0047 69.9781C16.6069 69.8484 16.1135 69.7347 15.4137 69.5678C15.0627 69.4827 14.6767 69.3881 14.2449 69.2585L13.9215 69.1596C13.8163 69.1288 13.6961 69.0831 13.5844 69.0448L13.2441 68.9236C13.1303 68.8811 13.0133 68.8311 12.8984 68.7833L12.5528 68.6376C12.4379 68.5866 12.3241 68.5292 12.2103 68.4739L11.87 68.3049C11.7573 68.2475 11.6499 68.1826 11.5403 68.121C11.0968 67.8754 10.6906 67.6012 10.2971 67.3216L9.73551 66.8911C9.55365 66.7454 9.38987 66.5976 9.21758 66.4499L8.96339 66.2266L8.73049 66.0023L8.26784 65.5506L0 57.4842L11.6584 58.224C13.0792 58.3144 14.498 58.3782 15.9157 58.4133C16.625 58.4313 17.3344 58.442 18.0438 58.4441C18.7404 58.4462 19.4976 58.4441 20.1974 58.4388C21.6023 58.425 22.8998 58.375 24.0516 58.2102C24.342 58.1709 24.6185 58.1209 24.8918 58.0678L25.2938 57.9795L25.5001 57.9285L25.5788 57.9094L25.5842 57.9073C25.6076 57.8988 25.6118 57.8945 25.6246 57.8881C25.6459 57.8754 25.6607 57.8615 25.6735 57.8488C25.6863 57.8371 25.698 57.8339 25.7033 57.8254C25.7075 57.8212 25.7033 57.8105 25.6937 57.8052C25.6852 57.7999 25.6703 57.8052 25.6597 57.8052C25.6373 57.8073 25.6193 57.8073 25.6044 57.8073H25.5874L25.581 57.8063C25.5778 57.8063 25.5831 57.8073 25.5746 57.8041C25.3704 57.6787 25.1662 57.5533 24.9758 57.4214C24.1984 56.8984 23.5114 56.3339 22.9083 55.7801C22.3032 55.2263 21.7672 54.6799 21.2822 54.1728L20.5867 53.4393L19.9305 52.7547C19.488 52.2976 19.036 51.8383 18.5755 51.3727C17.6535 50.4415 16.6942 49.4762 15.7349 48.4642L11.9051 44.4193L16.6144 41.6288C16.759 41.5427 16.9058 41.4588 17.0536 41.3769L17.2759 41.2557C17.3504 41.2153 17.4227 41.176 17.5088 41.1388C17.6758 41.0633 17.8438 40.99 18.014 40.9198C18.0991 40.8847 18.182 40.8496 18.2703 40.8177L18.5489 40.7274C18.7361 40.6689 18.9233 40.6147 19.1126 40.5647C19.3094 40.5222 19.5082 40.4839 19.7082 40.4499C19.8082 40.434 19.9071 40.4148 20.0081 40.4053L20.3102 40.3787L20.6122 40.3596C20.7132 40.3532 20.8143 40.35 20.91 40.3521C21.7108 40.3468 22.4191 40.4754 22.9956 40.6126L23.204 40.6657C23.2721 40.6838 23.3476 40.7029 23.4007 40.7189L23.7496 40.822L24.2473 40.9783L24.2973 40.9942L24.3218 41.0016L24.3356 41.0059L24.3643 41.0133L24.3717 41.0155H24.3707C24.3643 41.0155 24.3675 41.0133 24.3675 41.0123C24.3675 41.0123 24.3675 41.0144 24.3675 41.0123C24.3675 41.0123 24.3675 41.0144 24.3675 41.0123C24.3675 41.0112 24.3675 41.0144 24.3675 41.0133C24.3675 41.0133 24.3611 41.0123 24.3717 41.0123H24.4207L24.6142 41.0176C24.7429 41.0208 24.8897 41.0325 25.0258 41.042L25.2343 41.0569L25.4565 41.0814C25.7469 41.1122 26.0649 41.1632 26.368 41.226L26.5956 41.2749L26.7955 41.3237L27.0625 41.3929L27.0518 41.3897H27.0508C27.0508 41.3897 27.0518 41.3801 27.0476 41.3982L26.8795 42.1178L26.7179 42.8397L26.5647 43.5487C26.4658 43.9016 26.3967 44.2631 26.3574 44.6309C26.3542 44.6607 26.3531 44.6628 26.352 44.6702L26.3478 44.6915L26.3403 44.734C26.3361 44.7627 26.3329 44.7914 26.3297 44.8212C26.3244 44.8775 26.3244 44.9434 26.3276 44.9944C26.3276 44.9987 26.3254 45.004 26.3254 45.0115V45.0221L26.3265 45.0274C26.3265 45.0295 26.3265 45.0338 26.3265 45.021C26.318 44.9541 26.301 44.8966 26.2744 44.8371C26.234 44.6968 26.1797 44.5639 26.1127 44.4395L26.0872 44.3938L26.0734 44.3704L26.0543 44.3279C26.0287 44.2716 26.0011 44.2152 25.9734 44.16C25.9181 44.0494 25.8586 43.9399 25.7969 43.8336C25.7341 43.7273 25.6682 43.6231 25.5991 43.5221L25.5725 43.4839C25.5629 43.469 25.5576 43.4647 25.5438 43.4403L25.4672 43.3116L25.3108 43.0565C25.0992 42.7185 24.8759 42.39 24.6398 42.0711L24.4611 41.834C24.4611 41.834 24.4611 41.834 24.4632 41.833L24.477 41.8213L24.5058 41.8L24.5132 41.7947L24.5164 41.7926C25.4438 42.9715 22.4436 39.152 26.5956 44.4353L26.6222 44.4714C26.6583 44.5193 26.6966 44.566 26.737 44.6118L26.7977 44.6787L26.8476 44.7361C26.8806 44.7733 26.9168 44.8095 26.9529 44.8435C26.9901 44.8775 27.0114 44.903 27.0444 44.9296L27.1305 44.9976C27.1529 45.0157 27.188 45.0338 27.206 45.0455C27.2996 45.0997 27.3411 45.0774 27.3028 45.0891C27.2667 45.1007 27.1773 45.1698 27.0763 45.3102C26.9816 45.4431 26.8434 45.6663 26.7051 45.9554C26.62 46.1223 26.5626 46.2595 26.4573 46.4891C26.4105 46.5943 26.3659 46.6996 26.3233 46.8059L26.2382 47.0089L26.1521 47.2194L25.9787 47.6606C25.9011 47.8551 25.8256 48.0507 25.7511 48.2474L25.5108 48.8958C25.4725 48.9989 25.4736 48.9958 25.4757 48.9872H25.4736L25.3257 48.9373L25.0354 48.8384C24.9216 48.7991 24.7972 48.7544 24.6578 48.7002L24.4419 48.6141L24.259 48.5365L23.9921 48.4206C23.8155 48.3452 23.6347 48.2601 23.4561 48.1793L22.9158 47.9253L22.3713 47.6553C20.9174 46.9132 19.4221 45.9916 18.0278 44.7659C17.8534 44.6128 17.6832 44.4512 17.512 44.2928C17.344 44.1281 17.1759 43.9601 17.0111 43.7911C16.8484 43.6136 16.6878 43.4445 16.5251 43.2585L16.2815 42.9683C16.1996 42.8715 16.1199 42.7737 16.0465 42.6759C15.4381 41.8946 14.9478 41.1058 14.5331 40.3489C13.7057 38.8309 13.1558 37.4362 12.6368 36.2477C12.5049 35.9416 12.3911 35.6843 12.2497 35.3707L11.8285 34.4373C11.5403 33.7974 11.2393 33.1213 10.9447 32.3931C10.6512 31.6639 10.3619 30.8804 10.1131 30.0151C9.86633 29.1508 9.65788 28.1994 9.56429 27.1459L9.51962 26.6357L9.59513 26.1265C9.61002 26.0244 9.6281 25.9213 9.64937 25.8192L9.6834 25.6672L9.70255 25.5917L9.73871 25.4631C9.78976 25.2877 9.85144 25.1144 9.9227 24.9465L9.94928 24.8838L9.98863 24.7966C10.0237 24.7222 10.061 24.6478 10.1003 24.5744C10.179 24.4277 10.2651 24.2842 10.3587 24.1471C10.4055 24.078 10.4545 24.011 10.5034 23.9451C10.5268 23.9143 10.5502 23.8834 10.6002 23.8228C10.6438 23.7697 10.6884 23.7176 10.7342 23.6666C10.9192 23.4614 11.1266 23.269 11.3468 23.0989C11.4563 23.0139 11.5701 22.9352 11.685 22.8618C11.8211 22.7757 11.9753 22.6896 12.1295 22.6142C12.4411 22.4621 12.7761 22.3452 13.109 22.2687C13.1898 22.2495 13.2813 22.2315 13.3515 22.2198C13.4206 22.2081 13.4898 22.1974 13.561 22.1889C13.7014 22.1719 13.845 22.1602 13.9875 22.156C14.2725 22.1475 14.5671 22.1666 14.8341 22.2081C15.1829 22.2634 15.5349 22.3612 15.8614 22.4951C16.0603 22.577 16.2422 22.6673 16.424 22.7715L16.5474 22.8448L16.6261 22.8948C16.6782 22.9288 16.7303 22.9639 16.7814 22.999C16.8324 23.0351 16.8824 23.0713 16.9324 23.1095L17.0356 23.1903C17.0972 23.2403 17.1579 23.2913 17.2185 23.3445L17.2876 23.4072L17.3472 23.4625L17.461 23.5741C17.5141 23.6283 17.5716 23.6889 17.6184 23.741L17.7343 23.8717L17.8098 23.9621C17.8183 23.9727 17.8162 23.9695 17.8162 23.9695L17.8151 23.9674C17.814 23.9653 17.8119 23.9621 17.8098 23.961L17.8023 23.9557C17.8023 23.9557 17.7938 23.9493 17.7885 23.9472C17.7885 23.9472 17.7832 23.9451 17.7885 23.9472L17.8183 23.9632L17.8779 23.994C17.9576 24.0354 18.0416 24.0737 18.1235 24.1141C18.7797 24.432 19.4732 24.7211 20.174 24.9709C20.8749 25.2207 21.5864 25.4302 22.2809 25.5907C22.9732 25.7512 23.6528 25.8596 24.2601 25.9053L21.2588 34.0366C21.1865 33.9834 21.0365 33.8824 20.8398 33.7591L20.1145 33.3041C19.8305 33.1224 19.5082 32.9108 19.1424 32.6366L19.0052 32.5324L18.8606 32.4165C18.7659 32.3421 18.6649 32.256 18.5606 32.1646C18.4554 32.0753 18.3543 31.9775 18.2533 31.8828L18.1788 31.8116L18.1193 31.751L18.0044 31.633C17.7003 31.3248 17.4365 31.0165 17.1823 30.7092C16.9388 30.4052 16.7059 30.1001 16.4995 29.8046C16.0805 29.2114 15.7253 28.6395 15.4073 28.1016C15.0882 27.5626 14.8032 27.0513 14.5352 26.5751L14.3321 26.2136L14.1013 25.7969C13.9481 25.5184 13.7993 25.2314 13.6514 24.9433C13.0665 23.7846 12.5273 22.5482 12.1029 21.2003C11.9955 20.8644 11.8987 20.52 11.8073 20.1702C11.7158 19.8067 11.6328 19.4431 11.5648 19.0795C11.4276 18.3535 11.334 17.6285 11.2851 16.9152C11.2351 16.2019 11.2223 15.496 11.2436 14.805C11.2553 14.4595 11.2713 14.1162 11.2978 13.7771C11.3095 13.607 11.3255 13.439 11.3404 13.2711L11.3967 12.7523C11.5616 11.3693 11.8541 10.066 12.171 8.87962C12.489 7.69113 12.824 6.61427 13.1111 5.61394L14.7256 0L19.7061 2.94889C20.5696 3.46021 21.4194 4.05126 22.2053 4.75606C22.986 5.46405 23.6911 6.2709 24.2707 7.09264C24.8525 7.91012 25.3119 8.74248 25.6607 9.39732L25.9 9.84486L25.9958 10.0171C26.0266 10.0713 26.0617 10.1383 26.0798 10.1648L26.1436 10.2722C26.1563 10.2967 26.1563 10.2903 26.1617 10.2988C26.1659 10.3041 26.1702 10.3105 26.1691 10.3094C26.1691 10.3094 26.1691 10.3105 26.168 10.3126C26.168 10.3126 26.1691 10.3105 26.1691 10.3094C26.1691 10.3073 26.1659 10.3094 26.1648 10.3094L26.3988 10.5571C26.4903 10.6475 26.5764 10.7399 26.6711 10.8303C26.8583 11.0121 27.0529 11.1939 27.2571 11.3746C27.6655 11.736 28.109 12.0964 28.5822 12.4568C29.0555 12.8171 29.5575 13.1796 30.085 13.5485L30.8922 14.1077L31.7165 14.6721C32.7981 15.4088 33.8392 16.0903 34.8592 16.6739C35.3686 16.9662 35.8727 17.233 36.3704 17.4733C36.6193 17.5934 36.8671 17.705 37.1138 17.8103C37.1798 17.84 37.2255 17.856 37.2808 17.8783L37.4403 17.9431L37.7754 18.0665C38.6953 18.3864 39.8109 18.6309 41.0797 18.8659L43.0972 19.2358L44.065 19.4208L44.5255 19.5016L44.9978 19.5813C45.6316 19.6865 46.2814 19.7875 46.9355 19.8843L47.1791 19.9204C47.1908 19.9225 47.1822 19.9204 47.1844 19.9215C47.1844 19.9215 47.1844 19.9236 47.1844 19.9247C47.1844 19.9278 47.1875 19.9321 47.1929 19.9353C47.1961 19.9374 47.2003 19.9353 47.2046 19.93C47.2046 19.93 47.2046 19.9183 47.2046 19.914L47.2088 19.779L47.2397 19.1454C47.2673 18.7202 47.3014 18.2939 47.3513 17.8634C47.3971 17.4339 47.463 16.9992 47.5353 16.5633C47.5428 16.5123 47.5566 16.4464 47.5683 16.3868L47.6045 16.2029L47.68 15.8362C47.7331 15.5917 47.8001 15.3493 47.8618 15.1069C48.1288 14.1396 48.4989 13.1977 48.9424 12.3249C49.3859 11.4522 49.8985 10.6496 50.4324 9.92459C50.9663 9.19853 51.5204 8.54582 52.0553 7.9537L52.452 7.52211L52.8466 7.1022C53.1146 6.8205 53.39 6.53666 53.6793 6.25177C54.2568 5.68091 54.8832 5.10262 55.5873 4.5392C56.2903 3.97579 57.072 3.42407 57.9579 2.94038C58.1812 2.82132 58.4014 2.70013 58.6375 2.5917L58.9874 2.42693L59.35 2.27492C59.5893 2.1718 59.8414 2.08357 60.0913 1.99534L60.2774 1.93049L60.4316 1.88159L60.7411 1.78592C61.5685 1.53716 62.414 1.33306 63.2691 1.17785C64.1242 1.02371 64.9867 0.918471 65.8471 0.863193C66.0619 0.84831 66.2768 0.838743 66.4916 0.830238C66.599 0.824923 66.7054 0.82386 66.8128 0.820671L67.101 0.814293L68.1358 0.791969C68.8654 0.777086 69.6747 0.764329 70.5681 0.81323C71.4604 0.863193 72.4452 0.974812 73.4843 1.24164C74.0969 1.40109 74.6329 1.59244 75.1125 1.79123C75.5922 1.98896 76.0176 2.19306 76.3898 2.39185C77.1428 2.78837 77.7097 3.15512 78.1712 3.46446C78.6307 3.77487 78.9827 4.03319 79.2571 4.24261C79.3953 4.34785 79.5113 4.43928 79.6155 4.52326C79.7155 4.60405 79.8016 4.67634 79.8729 4.73905C80.4536 5.24719 80.1313 5.17916 79.2071 4.72205C78.737 4.4903 78.0904 4.13418 77.2247 3.70046C76.7918 3.48466 76.3015 3.25186 75.7432 3.02224C75.1848 2.79262 74.5563 2.56725 73.8544 2.38547C73.7661 2.36315 73.6789 2.34083 73.5896 2.3185C73.4981 2.2983 73.4066 2.27917 73.3152 2.25897C73.1301 2.21751 72.9461 2.18668 72.7611 2.15586C72.575 2.12184 72.3941 2.10483 72.2091 2.07932C72.0262 2.05912 71.8443 2.04211 71.6625 2.02829C70.9382 1.9762 70.2352 1.98045 69.5663 2.00916C68.8994 2.03998 68.2613 2.09314 67.6604 2.14416C67.352 2.16968 67.0414 2.19413 66.7309 2.21964C66.3799 2.24834 66.0279 2.28448 65.6759 2.33019C66.1438 2.27066 66.5554 2.23877 66.9213 2.22814C67.0032 2.22602 67.0829 2.22389 67.1595 2.22176C67.2318 2.22176 67.3009 2.21964 67.369 2.21964C67.5094 2.21858 67.6381 2.21964 67.7668 2.2207C68.2783 2.22921 68.7112 2.26216 69.1579 2.30468C69.6226 2.35039 70.0874 2.3961 70.6691 2.45351C71.2721 2.51729 72.0219 2.5747 73.0908 2.79262C73.0738 2.85747 72.9238 2.89042 72.6505 2.91062C72.3761 2.92656 71.9826 2.93613 71.4838 2.95633C70.9861 2.97759 70.3894 3.01905 69.7173 3.09027C69.0451 3.15937 68.2985 3.26355 67.4956 3.36241C67.2903 3.3858 67.0787 3.41025 66.8607 3.43576C66.6245 3.46127 66.3831 3.49104 66.1343 3.52506C65.6376 3.59416 65.1154 3.68133 64.5719 3.79401C64.0285 3.90669 63.4616 4.04382 62.8788 4.21391C62.5863 4.29789 62.2907 4.39144 61.9908 4.49243C61.8408 4.54239 61.6898 4.59661 61.5377 4.64976C61.4622 4.6774 61.3856 4.7061 61.3101 4.73374L61.1952 4.77626L61.0719 4.82622C60.4072 5.08561 59.7531 5.42472 59.1278 5.82761C58.5013 6.23051 57.9015 6.69612 57.3261 7.20532C56.7518 7.71452 56.2009 8.2673 55.6575 8.8456C55.1151 9.42708 54.5801 10.0181 54.0292 10.6783C54.5886 10.0256 55.1502 9.42496 55.7415 8.81796C56.3328 8.21415 56.9592 7.62416 57.642 7.0735C58.3205 6.52072 59.0703 6.01896 59.8818 5.60118C60.0892 5.50445 60.2912 5.39708 60.5061 5.3131C60.6124 5.26951 60.7177 5.22274 60.8251 5.18128L61.1516 5.06435C61.2633 5.02289 61.3654 4.991 61.4686 4.95911C61.5717 4.92615 61.6749 4.8932 61.7791 4.86343C61.9865 4.80071 62.196 4.74331 62.4055 4.68697C63.2564 4.51156 63.6935 4.49668 63.8626 4.52751C64.0327 4.56259 63.9381 4.64976 63.7445 4.76776C63.5509 4.88469 63.2574 5.03033 63.0224 5.17703C62.7863 5.32054 62.6097 5.46193 62.6321 5.54697C62.2311 5.65434 61.8365 5.77021 61.4473 5.90415C61.3505 5.93923 61.2527 5.97431 61.157 6.00833C61.0612 6.04447 60.9687 6.08593 60.8751 6.12527C60.6869 6.19968 60.5093 6.29216 60.3317 6.37614C59.6297 6.73014 59.0278 7.14685 58.5396 7.53061C58.0525 7.91756 57.6739 8.26943 57.4261 8.532C57.1762 8.79138 57.0549 8.96147 57.0847 8.9923C57.2081 9.12093 57.4538 9.37712 57.5771 9.50575C58.1504 8.95828 58.8874 8.29707 59.7765 7.71983C60.22 7.43069 60.7018 7.16492 61.2133 6.94806C61.3409 6.89385 61.4696 6.83857 61.6026 6.79498C61.7334 6.74821 61.8642 6.69931 62.0078 6.65679C62.2875 6.56643 62.5725 6.48564 62.8575 6.4091C64.0008 6.10613 65.1728 5.92435 66.2555 5.85738C66.5256 5.83824 66.7915 5.82974 67.0489 5.8223C67.3169 5.81592 67.5764 5.80954 67.8263 5.80316C68.324 5.78934 68.7782 5.77765 69.177 5.77552C68.7782 5.77765 68.374 5.78828 67.9731 5.79891C67.5732 5.8106 67.1797 5.82124 66.799 5.83187C66.0598 5.86057 65.3738 5.93604 64.791 6.03384C63.6265 6.23157 62.882 6.49946 62.9054 6.58025C62.9511 6.75246 63.0415 7.09583 63.0873 7.26804C62.9075 7.32226 62.7257 7.37753 62.5427 7.43813C62.4502 7.46683 62.3587 7.49872 62.2662 7.53061L62.1269 7.57845L62.0035 7.62629C61.6717 7.74428 61.342 7.90268 61.007 8.07914C60.3391 8.43739 59.6648 8.91576 58.9948 9.48874C58.6587 9.77257 58.3248 10.083 57.9898 10.4083C57.6548 10.7325 57.3198 11.0759 56.9847 11.4299C56.3083 12.14 55.6777 12.849 55.1353 13.5889C54.5993 14.3298 54.1547 15.0995 53.8452 15.9042C53.6825 16.3039 53.5687 16.7174 53.4687 17.1299C53.3783 17.5328 53.306 17.9942 53.2528 18.4343C53.1986 18.8776 53.1646 19.3208 53.1476 19.7588C53.1422 19.8683 53.138 19.9778 53.1358 20.0862C53.1327 20.234 53.1295 20.3913 53.1295 20.5455C53.1348 20.8559 53.1348 21.162 53.155 21.4703C53.1805 22.0826 53.2465 22.6971 53.3156 23.303C53.3879 23.9089 53.4634 24.5053 53.5485 25.0857L54.1536 25.5758C54.0877 24.9529 54.0186 24.3108 53.9484 23.6517C53.8824 22.9894 53.8133 22.3101 53.791 21.6351C53.7718 21.2949 53.775 20.9569 53.7708 20.6124C53.7708 20.4413 53.7772 20.267 53.7825 20.1054C53.7857 19.9991 53.791 19.8938 53.7974 19.7875C53.8186 19.3634 53.8548 18.936 53.9069 18.5097C53.9579 18.0888 54.0271 17.638 54.1079 17.2702C54.1983 16.8875 54.2983 16.5038 54.445 16.1317C54.7226 15.3812 55.1246 14.653 55.6224 13.9365C56.1265 13.2211 56.7252 12.5184 57.3836 11.8051C57.709 11.449 58.0334 11.1067 58.3567 10.7846C58.68 10.4604 59.0012 10.1542 59.3234 9.87569C59.9658 9.31334 60.6071 8.8541 61.2357 8.52031C61.5505 8.35553 61.8599 8.21096 62.1684 8.10678L62.2832 8.06426L62.4194 8.02068C62.5098 7.99197 62.5991 7.96221 62.6895 7.9367C62.8682 7.88142 63.0458 7.83252 63.2213 7.78574C62.8756 7.90055 62.5789 8.0143 62.3215 8.12167C62.2088 8.17375 62.1152 8.22053 62.0227 8.26411C61.9323 8.31089 61.8514 8.36085 61.7759 8.40337C61.7004 8.44483 61.6345 8.49373 61.5728 8.53519C61.5122 8.57771 61.4569 8.61704 61.409 8.65531C61.3133 8.73717 61.2388 8.80627 61.1846 8.86686C60.9666 9.12305 61.04 9.2368 61.1325 9.38775C60.0583 10.0819 58.9757 11.1237 57.8717 12.3111C57.3144 12.9064 56.8135 13.473 56.3785 14.0386C55.9489 14.6041 55.582 15.1643 55.3012 15.7405C55.1544 16.0265 55.0396 16.3199 54.929 16.6143C54.8311 16.913 54.7365 17.2118 54.6748 17.5232L54.6248 17.7582L54.5791 18.025C54.5514 18.2046 54.5216 18.3843 54.5004 18.5661C54.4514 18.9296 54.4206 19.3006 54.3961 19.6748L54.3802 19.9565L54.3674 20.3265C54.3578 20.672 54.3717 21.0217 54.3749 21.3693C54.4057 22.072 54.4557 22.7768 54.5482 23.5082C54.7205 24.9646 54.9173 26.4507 55.1225 27.8858L54.8375 27.9687L54.7662 27.99C54.7535 27.9921 54.745 27.9985 54.728 27.9985L54.6748 27.9942L54.461 27.9783L53.6208 27.9102L51.9383 27.7721C50.8152 27.6902 49.6507 27.569 48.4755 27.4298L46.7047 27.2182L45.9358 27.1268L45.3806 27.0651L43.1302 26.81C43.8874 26.9397 44.6276 27.0566 45.3657 27.1661L45.9188 27.248L46.6962 27.3596C47.3003 27.4457 47.9033 27.5276 48.5074 27.6083C49.7134 27.771 50.9173 27.9113 52.0798 28.0049L53.8218 28.159L54.6918 28.2334L54.9141 28.2515L54.9694 28.2557C54.9875 28.2557 54.997 28.2515 55.0108 28.2494L55.0895 28.2334L55.4044 28.1686L55.1619 26.3943C55.2214 26.6877 55.2831 26.9907 55.3469 27.3086C55.4086 27.6243 55.4735 27.9549 55.5415 28.3046C55.4224 28.3408 55.2991 28.3748 55.1714 28.4088C55.1544 28.412 55.1427 28.4194 55.1204 28.4194H55.0534C55.0087 28.4173 54.963 28.4163 54.9172 28.4152C54.8279 28.4131 54.7365 28.4099 54.6461 28.4078C54.2781 28.3939 53.8984 28.3801 53.507 28.3652C52.7168 28.3291 51.8628 28.2908 50.9386 28.2281C50.0112 28.1611 49.0115 28.0495 47.9692 27.9262C47.4481 27.8667 46.9142 27.7965 46.3718 27.7274C46.0134 27.6806 45.6486 27.6339 45.2796 27.586C44.6287 27.4989 43.9566 27.4011 43.2578 27.2894C43.0813 27.2597 42.9037 27.2299 42.7239 27.2001C42.54 27.1672 42.3549 27.1332 42.1698 27.0991C41.8444 27.0386 41.5147 26.9769 41.1829 26.9152C39.8407 26.6686 38.3273 26.422 36.6874 25.9755C35.8685 25.7501 35.0208 25.4716 34.1689 25.1113C33.3745 24.7721 32.6226 24.3979 31.8951 24.0046C30.4434 23.2169 29.1225 22.3537 27.8973 21.5192C27.5942 21.3109 27.2943 21.1036 26.9955 20.8984C26.703 20.6954 26.4126 20.4934 26.1244 20.2935C25.5427 19.8885 24.9599 19.476 24.3856 19.054C23.237 18.21 22.1256 17.3138 21.1323 16.3666L21.1312 16.3635Z" fill="#FFFFFF"/>
</svg>
