<svg width="73" height="74" viewBox="0 0 73 74" fill="none" xmlns="http://www.w3.org/2000/svg">
<path d="M7.87116 30.3429C7.85628 32.7486 7.99772 35.2382 8.26786 37.8055C8.30189 38.1265 8.33486 38.4475 8.37315 38.7718C8.39123 38.9333 8.41037 39.0949 8.42845 39.2576C8.44759 39.4404 8.46568 39.6243 8.48482 39.8082C8.56671 40.5556 8.61351 41.2912 8.65605 42.0257C8.73368 43.4917 8.74432 44.9225 8.75282 46.3204C8.76771 49.1141 8.76133 51.793 9.10485 54.255C9.15058 54.5601 9.20376 54.861 9.25162 55.165C9.27289 55.3191 9.31011 55.4616 9.33989 55.6104L9.43348 56.0526C9.44944 56.126 9.46326 56.2004 9.48028 56.2737L9.53877 56.4874L9.65363 56.9158C9.7217 57.2028 9.8238 57.4835 9.91101 57.7673C9.95355 57.9119 10.0088 58.0416 10.0567 58.1787C10.1078 58.3127 10.1524 58.454 10.2077 58.5816C10.3183 58.8378 10.4204 59.1036 10.5438 59.3396C10.6555 59.5904 10.7884 59.8105 10.9107 60.0412C11.0458 60.2527 11.1723 60.4749 11.318 60.6641C11.5999 61.0574 11.9009 61.4051 12.2337 61.708C12.5698 62.0089 12.9367 62.2725 13.3547 62.5106C14.1885 62.9847 15.235 63.3547 16.4506 63.6417C17.0547 63.7873 17.6939 63.916 18.3533 64.0382C19.0169 64.1594 19.7018 64.2742 20.3984 64.3922C21.0972 64.5091 21.8118 64.6314 22.5319 64.76C22.8945 64.8281 23.2551 64.8918 23.6198 64.9663L23.8932 65.0205C23.9825 65.0375 24.0835 65.0587 24.1463 65.0694L24.5749 65.1459C25.7192 65.3479 26.9359 65.4287 28.1941 65.4436C29.4522 65.4595 30.7508 65.4074 32.0802 65.3362C33.4096 65.2639 34.773 65.1725 36.1662 65.114C36.5151 65.0991 36.8629 65.0843 37.2181 65.0768C37.3946 65.0715 37.5712 65.0672 37.7466 65.0619C37.9189 65.0598 38.0902 65.0566 38.2614 65.0545C38.6049 65.0481 38.9452 65.0449 39.2834 65.0439C39.6206 65.0439 39.9566 65.0417 40.2927 65.0417C43.4982 65.0311 46.6239 65.1714 49.489 65.0045C50.2069 64.9652 50.9035 64.9014 51.582 64.8132C52.2638 64.7292 52.9189 64.6101 53.557 64.4645C54.1972 64.3242 54.8098 64.1403 55.4086 63.9298C56.0095 63.7246 56.5838 63.4674 57.1496 63.1888L57.5708 62.972L57.9845 62.736L58.1919 62.6191L58.395 62.4904L58.8013 62.2342L59.2001 61.9568L59.4 61.8196L59.5957 61.6708L59.9882 61.3742C60.1168 61.2711 60.2445 61.1627 60.3731 61.0574C60.6326 60.8533 60.8805 60.6195 61.1336 60.3973C61.2718 60.2793 61.358 60.1879 61.459 60.0911C61.5622 59.9976 61.6473 59.8945 61.743 59.7977C62.1099 59.4033 62.4151 58.9877 62.6789 58.5476C62.8139 58.3297 62.9277 58.099 63.0426 57.8662C63.1479 57.627 63.2542 57.3867 63.3404 57.1284C63.5222 56.6192 63.6626 56.0622 63.769 55.4616C63.9838 54.2603 64.0508 52.8805 64.0487 51.3827C64.0487 50.6343 64.0327 49.8572 64.0147 49.0503L64.0083 48.7474L63.9913 48.2446L63.9764 47.9894C63.9679 47.8215 63.954 47.6461 63.9413 47.4707C63.9296 47.2984 63.9104 47.1145 63.8955 46.936C63.7615 45.4923 63.5148 43.8584 63.3712 42.0491C63.3531 41.8238 63.3361 41.5963 63.3234 41.3645L63.3032 41.018L63.2893 40.665C63.2787 40.4312 63.2734 40.1931 63.2713 39.9528L63.267 39.6041V39.3012C63.2638 38.4932 63.2617 37.6864 63.2585 36.8806C63.2553 35.268 63.251 33.6596 63.2478 32.0544C63.2478 30.4449 63.2468 28.8408 63.2457 27.2409C63.2479 25.6517 63.2489 24.1145 63.1883 22.6688C63.1245 21.2241 62.9926 19.8751 62.7512 18.5835C62.5119 17.2919 62.1631 16.046 61.694 14.799C61.8631 14.7353 62.2152 15.0786 62.481 15.2274C62.7448 15.3752 62.916 15.3242 62.6938 14.4259C62.6246 14.2037 62.5576 13.9879 62.4927 13.7796C62.4608 13.6743 62.43 13.5712 62.3992 13.4702C62.3896 13.4405 62.3811 13.4096 62.3715 13.3809C62.3641 13.3544 62.3577 13.3288 62.3502 13.3033C62.3417 13.2523 62.313 13.1949 62.2949 13.1396C62.2747 13.0843 62.2577 13.028 62.2279 12.9695C62.2013 12.9121 62.1769 12.8547 62.1524 12.7963C62.1216 12.7367 62.0918 12.6793 62.062 12.6219C61.8206 12.1563 61.5175 11.7183 61.2378 11.3441C61.1697 11.2495 61.0963 11.1602 61.0304 11.072C60.9655 10.9838 60.8985 10.8998 60.8336 10.819C60.7698 10.7371 60.7092 10.6585 60.6507 10.5841C60.5901 10.5086 60.5337 10.4374 60.4784 10.3683C60.3721 10.2279 60.2689 10.1036 60.1817 9.9845C60.0956 9.86544 60.0147 9.75914 59.9467 9.65921C59.8127 9.4583 59.7159 9.29246 59.6553 9.14895C59.5946 9.00544 59.5702 8.88212 59.5681 8.77901C59.5638 8.56959 59.6585 8.41864 59.7542 8.26875C59.802 8.19327 60.136 8.34954 60.571 8.62912C61.007 8.90658 61.5377 9.31479 61.9844 9.71343C62.4343 10.1099 62.7969 10.4948 62.9915 10.6744C63.0894 10.7637 63.1415 10.8052 63.1447 10.769C63.1457 10.751 63.1341 10.7148 63.1064 10.6563C63.0777 10.5989 63.0309 10.5213 62.966 10.4193C63.0266 10.4841 63.0883 10.5511 63.15 10.617C63.2085 10.6851 63.2681 10.7541 63.3276 10.8243C63.451 10.9614 63.5573 11.1103 63.6754 11.2559C63.7318 11.3303 63.7828 11.4069 63.837 11.4823C63.8923 11.5578 63.9466 11.6343 63.9934 11.7141C64.0423 11.7927 64.0923 11.8714 64.1423 11.9501C64.1869 12.0309 64.2305 12.1117 64.2752 12.1924C64.3241 12.2732 64.356 12.3562 64.3965 12.438L64.455 12.5613C64.4741 12.6028 64.4943 12.657 64.5145 12.7048C64.5943 12.9015 64.674 13.0992 64.7538 13.297C64.9218 13.6903 65.0548 14.0953 65.2026 14.4918C65.7758 16.0843 66.1364 17.6714 66.3661 18.9077C66.4842 19.5253 66.5597 20.0579 66.632 20.4566C66.6958 20.8563 66.7437 21.1242 66.7862 21.2166C66.8266 21.3091 66.8564 21.2273 66.8723 20.9296C66.8915 20.6309 66.884 20.1196 66.8341 19.3531C66.85 18.8365 66.7777 17.9393 66.5544 16.872C66.3395 15.8036 65.9854 14.5684 65.5482 13.3597C65.4334 13.0599 65.3185 12.7591 65.2047 12.4614C65.1505 12.3083 65.0867 12.1722 65.0261 12.033L64.9803 11.9288L64.9282 11.8278C64.8931 11.7609 64.8591 11.6939 64.824 11.6269C64.5368 11.0975 64.1933 10.6191 63.8573 10.196C63.5191 9.77296 63.1915 9.3977 62.9022 9.08092C62.6172 8.76094 62.3768 8.49305 62.2152 8.27938C62.0556 8.06145 61.9631 7.91263 61.9312 7.8042C61.8993 7.69577 61.9259 7.63305 61.9918 7.59903C62.1237 7.53312 62.4215 7.58415 62.715 7.65431C63.0118 7.71809 63.3085 7.79888 63.4489 7.74467C63.519 7.71703 63.5499 7.65537 63.5201 7.54163C63.4903 7.42682 63.3989 7.25992 63.2181 7.03136C62.7746 6.67418 62.2067 6.25109 61.559 5.83012C60.9113 5.40809 60.1849 4.98607 59.433 4.60868C58.6821 4.23024 57.9068 3.89432 57.1741 3.62643C56.4413 3.35854 55.75 3.15657 55.181 3.02475C54.9056 2.91738 54.7333 2.83234 54.6439 2.75899C54.5525 2.68776 54.5429 2.62929 54.5918 2.57827C54.6886 2.47515 55.0087 2.41775 55.3342 2.37523C55.6532 2.33908 55.9787 2.31782 56.068 2.27105C56.1595 2.22321 56.0297 2.13179 55.4235 1.98403C55.1948 1.92237 54.9641 1.86071 54.7237 1.8065C54.4802 1.75547 54.2387 1.70019 53.9782 1.66299C53.4698 1.57688 52.9157 1.52692 52.3191 1.52585L52.1351 1.52904L52.0777 1.52585C51.9734 1.52267 51.8692 1.51948 51.7639 1.51629C51.5501 1.50991 51.3353 1.50459 51.1183 1.49821C50.6855 1.48865 50.2452 1.47908 49.7985 1.46845C48.0139 1.4355 46.1325 1.4238 44.1863 1.4238C40.2938 1.43762 36.1418 1.45357 31.993 1.46845C31.993 1.11233 29.9117 0.757273 34.0647 0.578681C38.607 0.555294 43.1568 0.531907 47.714 0.50852C48.853 0.502142 49.9931 0.495763 51.1332 0.489385L51.9883 0.485133H52.0777L52.0915 0.483007C52.0777 0.483007 52.1329 0.483007 52.0617 0.483007L52.1478 0.478755L52.3191 0.471313L52.4903 0.465998H52.653L52.9785 0.472377C53.8346 0.500016 54.6078 0.612698 55.3427 0.763651C56.8103 1.06768 58.1185 1.53117 59.3745 2.07651C60.6252 2.62823 61.8132 3.27031 62.9575 4.01976C63.5307 4.39182 64.0902 4.79791 64.64 5.23376C65.1898 5.6696 65.729 6.13947 66.2534 6.66568C66.7777 7.19082 67.2892 7.76486 67.7742 8.42608C67.8944 8.59723 68.0146 8.75988 68.1316 8.94059C68.2475 9.1245 68.3634 9.30203 68.474 9.49444C68.5835 9.69323 68.6931 9.8867 68.7973 10.0951L68.9483 10.4182L69.0217 10.5809L69.0579 10.6627L69.0824 10.7212C69.5737 11.9065 70.0151 13.1343 70.3841 14.3983C70.7468 15.6644 71.0222 16.9634 71.22 18.2539C71.4179 19.5445 71.5348 20.8276 71.5965 22.0639C71.6603 23.3034 71.6827 24.5078 71.6933 25.6825C71.705 27.9776 71.7167 30.2738 71.7273 32.571C71.7412 34.8651 71.7539 37.1602 71.7678 39.4564V39.6679L71.7731 39.8454C71.7763 39.9645 71.7752 40.0804 71.7816 40.2016C71.7912 40.4429 71.8018 40.6842 71.8199 40.934C71.8528 41.4304 71.8986 41.9396 71.9571 42.4743C72.0708 43.5374 72.2272 44.6865 72.3516 45.9292C72.4122 46.5533 72.4654 47.1975 72.4973 47.8651L72.5154 48.3711L72.5271 48.8335L72.5452 49.7084C72.5665 50.8884 72.576 52.1257 72.5186 53.4248C72.458 54.7238 72.325 56.0941 72.0304 57.5132C71.7401 58.9292 71.2636 60.4015 70.5606 61.8026C70.2097 62.5021 69.8066 63.1857 69.3514 63.8267C68.8973 64.4688 68.3974 65.0736 67.8689 65.636L67.4669 66.0495L67.0531 66.4428L66.9489 66.5406C66.9138 66.5736 66.8851 66.598 66.8521 66.6267L66.6628 66.7926L66.2831 67.1242C66.0343 67.3475 65.7642 67.5569 65.5004 67.7706C65.3675 67.8769 65.2366 67.9842 65.1016 68.0884L64.6879 68.3946C63.585 69.2099 62.3949 69.9541 61.1357 70.5876C59.8775 71.2223 58.5513 71.7442 57.2081 72.1397C55.8649 72.5373 54.5067 72.8105 53.1773 72.988C51.8458 73.1666 50.543 73.2527 49.2806 73.2878C46.7526 73.3558 44.3799 73.2431 42.105 73.1719C40.967 73.1347 39.8535 73.1028 38.7581 73.0943C38.2103 73.0911 37.6626 73.09 37.1415 73.0996C36.6108 73.1081 36.0705 73.1251 35.5175 73.1474C33.3096 73.2325 30.9475 73.4068 28.4036 73.3888C27.1316 73.3781 25.8128 73.3165 24.4536 73.1506C24.1112 73.1028 23.7719 73.0613 23.4284 73.005L22.4106 72.82C21.8895 72.7169 21.3652 72.618 20.8238 72.5234C19.7422 72.3332 18.6245 72.1609 17.4323 71.9547C16.2422 71.7474 14.9883 71.5157 13.6419 71.1489C13.4749 71.1043 13.3068 71.0586 13.1345 71.0054L12.6209 70.8491C12.271 70.729 11.9264 70.6195 11.569 70.475C11.217 70.3442 10.8575 70.1847 10.5013 70.0253C10.3226 69.9434 10.1418 69.8499 9.96312 69.7617L9.69511 69.6256L9.4271 69.4757C7.99773 68.689 6.63003 67.5728 5.55268 66.3078C4.47746 65.0396 3.65748 63.6608 3.05658 62.315L2.83856 61.8101C2.76624 61.641 2.69286 61.472 2.6333 61.3062L2.44506 60.8044L2.35147 60.5536L2.26852 60.3048L2.10579 59.8084C2.05155 59.6425 1.99731 59.4767 1.95371 59.3077L1.6772 58.2956C1.35176 56.9498 1.11884 55.6115 0.977394 54.3114C0.840199 53.0155 0.758307 51.742 0.724275 50.5163C0.650891 48.0628 0.703005 45.7528 0.651956 43.5991C0.623241 42.5254 0.584957 41.4783 0.482859 40.495L0.448825 40.1123L0.403094 39.6637C0.371189 39.3649 0.342473 39.0652 0.315885 38.7633C0.288233 38.4624 0.260577 38.1616 0.238243 37.8586C0.213782 37.5567 0.189326 37.2548 0.170182 36.9508C0.00214522 34.5238 -0.0563497 32.0523 0.0627651 29.5626C0.121259 28.3178 0.223354 27.0698 0.371183 25.8249C0.405216 25.5135 0.447757 25.202 0.490298 24.8916L0.611541 24.0231C0.649828 23.7573 0.687056 23.4894 0.722152 23.2184C0.758312 22.9494 0.792343 22.6783 0.826375 22.4051C0.961443 21.3134 1.08056 20.1972 1.21775 19.0246C1.28901 18.4336 1.36027 17.8383 1.45173 17.2121C1.49321 16.9049 1.54745 16.5818 1.59743 16.2639C1.62296 16.1045 1.65486 15.9376 1.68358 15.7749C1.71229 15.6112 1.74207 15.4486 1.77823 15.2785L1.88245 14.7746L2.00476 14.2569C2.04305 14.0857 2.09197 13.9082 2.14089 13.7317C2.19194 13.5531 2.23342 13.3809 2.29297 13.1992C2.50568 12.4837 2.78751 11.7407 3.12572 11.0061L3.39373 10.4554L3.69363 9.91115C3.79148 9.72937 3.90741 9.55397 4.01801 9.37751C4.12969 9.20104 4.24029 9.02457 4.36473 8.85661C4.83799 8.16563 5.38677 7.54163 5.95044 6.96439C7.0916 5.82481 8.32316 4.93079 9.53026 4.21536C9.83124 4.04208 10.1365 3.85499 10.4364 3.70084C10.7374 3.54245 11.0394 3.37555 11.3383 3.23417C11.9274 2.93439 12.5592 2.66863 13.1803 2.39861C14.4384 1.89473 15.7242 1.46845 17.0175 1.14209C18.3097 0.824244 19.6029 0.585059 20.8781 0.419224C22.1501 0.261894 23.405 0.160904 24.6344 0.104563C25.8586 0.0545998 27.0625 0.0344019 28.2387 0.036528C30.3881 0.0737346 31.5303 0.171535 32.0206 0.271461C32.5067 0.374576 32.311 0.495763 31.6612 0.624392C31.0124 0.754083 29.9063 0.886964 28.5429 1.03473C27.1805 1.18462 25.5618 1.3547 23.9208 1.59708C24.1931 1.55775 24.4324 1.53223 24.6472 1.51629C24.862 1.50034 25.0471 1.5014 25.2183 1.50459C25.5586 1.51416 25.833 1.54499 26.1042 1.5822C26.6456 1.65873 27.1858 1.73208 28.2494 1.63641C28.2494 1.90961 27.1944 2.2466 25.0684 2.64524C24.0048 2.85466 22.6744 3.07896 21.0833 3.41807C19.4944 3.76144 17.6439 4.2228 15.6051 4.985C17.6577 4.26638 19.7869 3.8029 21.9161 3.56371C22.1841 3.55521 22.3862 3.55627 22.534 3.5669C22.6818 3.58178 22.7754 3.60304 22.8286 3.63068C22.9339 3.68596 22.8743 3.76356 22.7499 3.8518C22.501 4.0272 21.999 4.2717 22.0203 4.44604C21.5002 4.49919 20.9834 4.5853 20.4984 4.65971C20.2559 4.69692 20.0241 4.75007 19.8039 4.79259C19.5838 4.8383 19.3753 4.87764 19.1849 4.92547C18.8053 5.02434 18.4905 5.11363 18.2746 5.19017C18.0576 5.26565 17.9427 5.34006 17.9534 5.38046C17.9991 5.55161 18.0895 5.89603 18.1342 6.06825C18.3756 5.9949 18.6553 5.93962 18.9552 5.86839C19.1052 5.83331 19.2615 5.79717 19.4221 5.76103C19.5848 5.7302 19.7518 5.69831 19.923 5.66641C20.0943 5.63452 20.2697 5.60157 20.4484 5.56755C20.6271 5.53566 20.81 5.51227 20.9951 5.48357C21.1801 5.45593 21.3662 5.42829 21.5534 5.39959C21.7417 5.37408 21.932 5.35494 22.1213 5.33156C23.6401 5.15084 25.1779 5.08174 26.2042 5.04879C25.1779 5.08174 24.1537 5.13383 23.3933 5.22525C22.6308 5.30604 22.133 5.42085 22.1426 5.50696C22.1639 5.68342 22.2054 6.03742 22.2256 6.21388C21.7321 6.28511 21.2184 6.3861 20.6781 6.47327C20.1442 6.58276 19.5848 6.6795 19.0222 6.81663C17.8938 7.07708 16.7239 7.40556 15.5945 7.84459C14.4757 8.28895 13.3462 8.81409 12.389 9.40727C12.155 9.56035 11.9126 9.7028 11.6988 9.86438C11.5892 9.94304 11.4818 10.0206 11.3744 10.0982C11.2734 10.1801 11.1723 10.2609 11.0734 10.3417C11.0235 10.3821 10.9745 10.4214 10.9256 10.4618C10.8799 10.5033 10.8341 10.5458 10.7884 10.5872C10.698 10.6702 10.6087 10.7531 10.5204 10.8339C10.4364 10.9179 10.3577 11.004 10.2779 11.0869C10.1982 11.1698 10.1195 11.2527 10.0525 11.3399L10.4417 11.7045C10.513 11.6301 10.5938 11.5599 10.6757 11.4876C10.7565 11.4154 10.8384 11.342 10.9214 11.2676C11.0096 11.1964 11.0979 11.1241 11.1883 11.0507C11.233 11.0135 11.2776 10.9763 11.3234 10.9391C11.3712 10.903 11.4201 10.8679 11.468 10.8318C11.5648 10.7595 11.6616 10.6851 11.7605 10.6117C11.8647 10.5405 11.9689 10.4693 12.0753 10.397C12.2805 10.2481 12.5145 10.1131 12.7389 9.96643C13.6567 9.39983 14.75 8.86086 15.8231 8.40057C16.909 7.94346 18.0395 7.58627 19.1403 7.31201C19.688 7.1685 20.2378 7.06857 20.7622 6.96333C21.295 6.88147 21.8012 6.79218 22.2894 6.74328C21.8065 6.83895 21.4545 6.94207 21.1929 7.02924C20.9313 7.11641 20.76 7.19082 20.6526 7.27055C20.4378 7.42469 20.4622 7.55545 20.4941 7.73085C19.1169 8.0285 17.7864 8.38887 16.5006 8.86193L16.0178 9.03839L15.5456 9.23825L15.0723 9.43704C14.9149 9.50826 14.7575 9.5848 14.6001 9.65709L14.364 9.76764C14.2863 9.80485 14.2119 9.84524 14.1353 9.88351L13.6801 10.1174C13.3898 10.2822 13.092 10.4416 12.8219 10.6181C12.2699 10.9636 11.7626 11.3335 11.3234 11.7343C10.8873 12.1361 10.5193 12.5656 10.2194 13.0323C9.91845 13.4989 9.68554 14.0081 9.50793 14.5747C9.33032 15.1403 9.21014 15.7611 9.1357 16.4255C9.23141 15.995 9.33245 15.5761 9.45688 15.1924C9.51431 14.9946 9.58557 14.8139 9.65044 14.6289C9.68341 14.5365 9.72383 14.4525 9.75999 14.3642C9.79615 14.276 9.83124 14.1878 9.87378 14.107L9.9929 13.8572L10.1248 13.6191L10.1896 13.5L10.262 13.3873C10.3109 13.3118 10.3556 13.2342 10.4055 13.1598C10.514 13.0163 10.6076 12.8654 10.7278 12.7282C10.7863 12.6591 10.8384 12.5858 10.9001 12.5177L11.0873 12.3136C11.0458 12.4008 11.0001 12.489 10.9511 12.5783C10.9065 12.6698 10.8629 12.7644 10.8139 12.8579C10.7618 12.9504 10.7193 13.0514 10.6714 13.1513C10.647 13.2002 10.6214 13.2502 10.597 13.3012C10.5746 13.3533 10.5512 13.4064 10.5278 13.4596C10.3364 13.8827 10.1482 14.3557 9.97269 14.9287C9.79721 15.5006 9.63555 16.1757 9.49198 16.9538C9.35053 17.733 9.2261 18.609 9.10379 19.5381C8.86344 21.3995 8.61669 23.4629 8.30189 25.4337C8.26892 25.657 8.23489 25.8792 8.20192 26.0981C8.16789 26.315 8.14023 26.5297 8.11471 26.7445C8.05834 27.1718 8.01687 27.5928 7.97858 28.0052C7.91052 28.8302 7.86585 29.6158 7.86585 30.345L7.87116 30.3429Z" fill="#FFFFFF"/>
<path d="M19.0014 42.5933C19.1461 43.9859 19.3109 45.471 19.4513 47.0326C19.5215 47.8129 19.5832 48.6133 19.6268 49.4287C19.6395 49.6317 19.6481 49.8369 19.6566 50.0431C19.6651 50.2483 19.6746 50.4545 19.6789 50.6618C19.6832 50.8691 19.6917 51.0764 19.6927 51.2858L19.698 51.9215C19.698 52.0289 19.6917 52.1543 19.6842 52.2383L19.6629 52.4658L19.6491 52.5944L19.6427 52.6338C19.6353 52.6859 19.6278 52.7379 19.6236 52.7922C19.6183 52.8453 19.6151 52.8995 19.6183 52.9537C19.6225 53.0048 19.6268 53.0707 19.6778 53.0951C19.7395 53.1196 19.8076 53.1206 19.8746 53.1228C19.9416 53.1228 20.0086 53.1206 20.0756 53.1164C20.2851 53.0994 20.4936 53.0824 20.702 53.0664C20.8562 53.0537 21.0051 53.0398 21.1891 53.0282L21.3433 53.0197L21.489 53.0165L21.6475 53.0133C22.0686 53.0037 22.4823 52.992 22.8844 52.975C23.0811 52.9654 23.2768 52.9559 23.4704 52.9463C23.5193 52.9357 23.565 52.9272 23.6001 52.8963C23.6278 52.8719 23.6267 52.8209 23.6171 52.7805C23.6129 52.7603 23.6076 52.7401 23.6033 52.7209L23.5959 52.6922C23.5959 52.6922 23.5937 52.6667 23.5916 52.6444L23.5874 52.5774C23.5682 52.2245 23.5491 51.8705 23.5289 51.5144C23.4927 50.8085 23.4597 50.108 23.4321 49.4106C23.4172 49.0226 23.4012 48.6335 23.3863 48.2434C23.3683 47.8182 23.3438 47.3908 23.3161 46.9624C23.2608 46.1045 23.1907 45.2382 23.112 44.3654C23.0279 43.4863 22.945 42.6061 22.861 41.728L22.7971 41.0498L22.7387 40.3662C22.7046 39.9187 22.6706 39.4722 22.6376 39.0257C22.5727 38.1455 22.51 37.2876 22.4228 36.4627C22.3802 36.0481 22.3303 35.6442 22.2739 35.2455C22.2186 34.8469 22.1516 34.4631 22.0761 34.0666C22.058 33.9646 22.0389 33.8625 22.0282 33.7594C22.0155 33.6584 22.0069 33.5457 22.0027 33.4564C21.9931 33.2672 21.9952 33.1109 21.9995 32.9642C22.0038 32.8186 22.0123 32.6932 22.0197 32.5805L22.0303 32.4232L22.0346 32.3541V32.3392C22.0527 32.3392 22.074 32.3402 22.1048 32.3424C22.1293 32.3455 22.1558 32.3402 22.1792 32.3711C22.2282 32.4157 22.2771 32.4742 22.3239 32.5167C22.3717 32.5571 22.4175 32.5826 22.4589 32.5539C22.4802 32.5412 22.5004 32.5167 22.5196 32.4763C22.5291 32.455 22.5376 32.4348 22.5462 32.4083C22.5504 32.3976 22.5547 32.3764 22.5589 32.3711C22.5621 32.3668 22.5653 32.3626 22.5685 32.3583C22.6376 32.2074 22.7206 32.0405 22.8067 31.8757C22.8918 31.7109 22.9748 31.5493 23.0566 31.4037C23.1385 31.2581 23.2204 31.1294 23.3066 31.0178C23.3927 30.9051 23.4831 30.8105 23.5735 30.718C23.6182 30.6713 23.6544 30.7276 23.6735 30.835C23.6926 30.9413 23.6937 31.0954 23.6884 31.2336C23.6767 31.5079 23.6586 31.7364 23.765 31.4653C23.7565 31.611 23.7447 31.7651 23.7405 31.9256C23.7341 32.0862 23.7437 32.2509 23.7341 32.4168C23.7192 32.808 23.6746 33.2927 23.7798 33.7403C23.8979 34.242 23.9894 34.6353 24.0468 34.7735C24.1021 34.9117 24.1361 34.7906 24.1 34.2622C24.118 34.1336 24.1 33.9327 24.0681 33.685C23.9851 33.1694 24.1095 32.5093 24.1117 31.9767C24.1266 31.7003 24.1616 31.4345 24.1999 31.1964C24.2372 30.9593 24.284 30.7446 24.3329 30.5862C24.3924 30.3874 24.4456 30.2981 24.5052 30.2694C24.5658 30.2407 24.6296 30.2737 24.6977 30.3109C24.7647 30.3481 24.8327 30.3927 24.8976 30.3715C24.9614 30.3513 25.0252 30.2652 25.0625 30.0366C25.0103 29.7018 24.9487 29.3786 24.8466 29.0416C24.8221 28.9576 24.7934 28.8726 24.7625 28.7875L24.7519 28.7556C24.7477 28.7461 24.7402 28.7503 24.7338 28.7471L24.619 28.7184C24.5147 28.6876 24.4063 28.6462 24.2914 28.5845C23.9479 28.711 23.5948 28.8332 23.2438 28.947C23.0471 28.9619 23.0067 28.9183 23.0566 28.8407C23.1056 28.7641 23.2449 28.6525 23.3927 28.5441C23.6863 28.3251 24.0085 28.1125 23.481 28.3028C23.2896 28.3591 23.0939 28.4165 22.895 28.4761C22.794 28.509 22.6982 28.526 22.5972 28.5526C22.5472 28.5643 22.4972 28.5781 22.4472 28.5877C22.3973 28.5962 22.3483 28.6047 22.2984 28.6132C22.1984 28.6313 22.0963 28.6504 21.9953 28.6578C21.9442 28.6632 21.8932 28.6685 21.8421 28.6749L21.7645 28.6834L21.6804 28.6897C21.6251 28.6919 21.5688 28.694 21.5113 28.6961C21.456 28.6972 21.3997 28.6993 21.3433 28.7004C21.1136 28.7046 20.8764 28.7046 20.618 28.7036C20.3457 28.7014 20.083 28.7014 19.8267 28.6951C19.3141 28.6823 18.8206 28.6451 18.3091 28.5569C17.7996 28.4718 17.2743 28.3368 16.7478 28.1688C16.7755 28.0838 16.6585 27.953 16.6819 27.8786C16.6936 27.8414 16.7404 27.8191 16.8584 27.8234C16.9648 27.8212 17.1339 27.851 17.3923 27.8988C17.8666 28.0296 18.3282 28.1221 18.7877 28.1795C19.2482 28.2358 19.7065 28.2528 20.2319 28.2486L20.6403 28.2433C20.7701 28.2401 20.8945 28.2379 21.0168 28.2326C21.1402 28.2273 21.2593 28.2209 21.3752 28.2124C21.4337 28.2082 21.4922 28.2039 21.5475 28.1975L21.6581 28.1869C21.7241 28.1805 21.79 28.1688 21.8559 28.1593C21.9878 28.138 22.1197 28.1253 22.2537 28.0902C22.3877 28.0572 22.5185 28.0349 22.6568 27.9871C22.928 27.9095 23.2119 27.7957 23.5012 27.6862C24.0861 27.4587 24.6711 27.2302 25.2571 27.0027L25.3485 27.2057L25.4283 27.3758L25.4687 27.4609L25.5028 27.53L25.5708 27.6671C25.5761 27.6745 25.5836 27.7 25.59 27.7181L25.6102 27.7755L25.6516 27.8914L25.7293 28.1136L25.875 28.5398C25.9675 28.8194 26.0654 29.0873 26.1419 29.3839C26.2132 29.6826 26.2621 30.009 26.2759 30.3619C26.2919 30.7138 26.2781 31.088 26.2557 31.4653C26.2462 31.6535 26.2323 31.8427 26.2291 32.0298C26.2291 32.2169 26.2249 32.404 26.2132 32.5911C26.1994 32.8282 26.1887 32.9929 26.1877 33.1173C26.1877 33.1758 26.1887 33.2215 26.1909 33.2481C26.193 33.264 26.1951 33.2672 26.1972 33.2789L26.2876 33.7403L26.3706 34.2091C26.4216 34.5216 26.4695 34.8331 26.512 35.1424C26.5961 35.7611 26.6631 36.3745 26.7194 36.9794C26.8332 38.1891 26.9109 39.368 27.0151 40.5076C27.0715 41.0891 27.1278 41.6716 27.1853 42.2531C27.2427 42.8442 27.298 43.4384 27.3501 44.0369C27.4533 45.2328 27.5383 46.4436 27.5851 47.6693C27.6085 48.2944 27.6213 48.8525 27.6213 49.6179L27.6351 53.9498V54.493L27.6372 54.6291C27.6255 54.6918 27.6117 54.7577 27.5979 54.8215C27.5851 54.8864 27.5702 54.9491 27.55 55.0075L27.4937 55.1851C27.4086 55.4115 27.3044 55.6114 27.1672 55.807C27.0342 56.0036 26.8343 56.2003 26.646 56.3491C26.4535 56.4958 26.2504 56.6096 26.0249 56.7042C25.9069 56.7446 25.7995 56.7967 25.6676 56.8232L25.4783 56.87L25.4304 56.8817C25.4145 56.8849 25.4049 56.8838 25.3911 56.8849L21.4699 56.9944C21.4667 57.1485 21.4571 55.4838 21.4614 56.2821V56.4618L21.4656 56.8222L21.4699 56.9954H21.4709L21.3316 57.005L20.4563 57.0762L20.0394 57.1049C19.8916 57.1145 19.7448 57.1219 19.5981 57.1283C19.011 57.1517 18.4207 57.1506 17.8922 57.0539C17.6273 57.0071 17.3827 56.9306 17.1605 56.8317C16.9339 56.7361 16.7563 56.5904 16.5532 56.4522C16.5138 56.4182 16.4756 56.3831 16.4362 56.3459L16.4213 56.3321L16.4181 56.3289L16.416 56.3268C16.4266 56.3151 16.4181 56.3225 16.4203 56.3204L16.4128 56.3119L16.3267 56.2258C16.248 56.1514 16.182 56.0695 16.1225 55.9855C16.0023 55.8186 15.9034 55.6443 15.8226 55.4551C15.6598 55.0788 15.5726 54.6429 15.5471 54.172C15.5226 53.7011 15.5524 53.2057 15.6003 52.7114L15.6641 52.0842L15.6747 51.9524C15.6747 51.9375 15.6758 51.929 15.6747 51.9322L15.6641 51.3124L15.6428 50.6756C15.6247 50.2494 15.6024 49.8209 15.5747 49.3883C15.5194 48.524 15.4482 47.6491 15.3737 46.7615C15.2259 44.9873 15.0685 43.162 15.0313 41.2826L15.0249 40.6841L14.9781 40.0845C14.943 39.6412 14.909 39.1969 14.8739 38.7536C14.8058 37.8596 14.7378 36.9677 14.6697 36.0758C14.6006 35.0266 14.6442 34.1166 14.6197 33.3374C14.608 32.9515 14.5846 32.5922 14.5389 32.2754C14.4974 31.9745 14.4017 31.5844 14.2985 31.0593C14.2368 30.6957 14.2049 30.364 14.2017 30.1089C14.1975 29.8527 14.2177 29.6731 14.2411 29.5699C14.2656 29.4987 14.2932 29.4775 14.323 29.4977C14.3379 29.5072 14.3538 29.5274 14.3698 29.5572C14.3857 29.5891 14.4038 29.6518 14.4219 29.7166C14.457 29.8463 14.5048 30.0196 14.5612 30.2258C14.6197 30.4236 14.6899 30.6447 14.7686 30.8626C14.9271 31.3038 15.1111 31.7184 15.2408 32.0692C15.1525 31.8321 15.1632 31.6833 15.1749 31.5323C15.1855 31.3761 15.194 31.223 15.0823 30.9009C15.21 30.8722 15.462 31.1847 15.7364 31.7024C15.8034 31.8321 15.8683 31.9745 15.9278 32.1372C15.9863 32.302 16.0438 32.4891 16.0895 32.6995C16.1852 33.1194 16.2416 33.6329 16.2682 34.2356C16.2629 33.6318 16.2533 33.044 16.1937 32.4742C16.2075 32.185 16.2682 32.1765 16.3564 32.2382C16.4436 32.2998 16.5468 32.437 16.6361 32.4285C16.6989 33.0248 16.7032 33.6276 16.7936 33.6255C16.8818 33.6233 17.0605 33.6191 17.1488 33.618C17.1413 33.3119 17.1286 32.8494 17.0786 32.3828C17.0552 32.1499 17.0211 31.9161 16.9829 31.7024C16.9435 31.4898 16.902 31.3016 16.868 31.1528C16.935 31.4494 16.9977 31.7587 17.0413 31.9926C17.0871 32.2244 17.1222 32.3785 17.1668 32.3743C17.2551 32.3647 17.4327 32.3466 17.521 32.337C17.6359 32.9834 17.622 33.7775 17.605 34.5269C17.5976 34.9022 17.5933 35.2689 17.6093 35.6102C17.6252 35.9408 17.6635 36.2873 17.7103 36.5871L17.9762 36.5648C17.9751 36.4128 17.9698 36.2522 17.9613 36.0843C17.9539 35.9259 17.9464 35.7622 17.9379 35.5932C17.9241 35.2604 17.9145 34.899 17.9049 34.5248C17.889 33.7775 17.8581 32.9759 17.7858 32.3105C17.8635 32.6379 17.9156 32.7984 17.9762 32.8781C18.0368 32.9579 18.1027 32.9536 18.1921 32.9494C18.2878 33.9412 18.2091 34.8469 18.2378 35.6633C18.2421 35.7686 18.2463 35.8589 18.2538 35.9727L18.2782 36.3128C18.2963 36.5393 18.3176 36.7657 18.3431 36.9911C18.3952 37.4429 18.4654 37.8915 18.5707 38.339C18.5207 37.7363 18.4697 37.1324 18.4197 36.5297C18.6919 37.1144 18.8025 38.1678 18.8749 39.3011C18.8908 39.5849 18.9078 39.873 18.9238 40.16L18.9366 40.3854C18.9408 40.4481 18.9451 40.5108 18.944 40.5735V40.7138C18.9408 40.8499 18.9387 40.9849 18.9376 41.1189C18.9344 41.3857 18.9419 41.6493 18.9482 41.8981C18.9589 42.1479 18.9748 42.3871 18.9961 42.6061L19.0014 42.5933Z" fill="#FFFFFF"/>
<path d="M18.3241 18.1421C18.3326 18.1719 18.3357 18.2048 18.3432 18.2303C18.3538 18.2527 18.3623 18.2739 18.3687 18.2952C18.3719 18.3133 18.3879 18.3473 18.3964 18.3749C18.4081 18.4057 18.4091 18.4291 18.4251 18.4653C18.4517 18.5333 18.4676 18.5992 18.5017 18.6758C18.5176 18.713 18.5272 18.7502 18.5442 18.7895C18.5623 18.8288 18.5793 18.8671 18.5963 18.9075C18.7314 19.2264 18.9303 19.5591 19.1589 19.8323C19.3876 20.1055 19.6503 20.3235 19.9087 20.4298C19.9417 20.4404 19.9736 20.451 20.0055 20.4627C20.0374 20.4734 20.0682 20.4904 20.1012 20.4914C20.1331 20.4967 20.165 20.5021 20.1959 20.5084L20.2427 20.518C20.2597 20.5201 20.2777 20.5191 20.2948 20.5201C20.4362 20.535 20.566 20.5095 20.6829 20.4755C20.9616 20.3745 21.1956 20.2182 21.4178 20.0131C21.5274 19.9099 21.6306 19.7941 21.7178 19.6729C21.822 19.5326 21.8305 19.4773 21.8379 19.4348C21.8433 19.4252 21.8358 19.4167 21.8401 19.4103C21.8358 19.4029 21.8401 19.3986 21.8358 19.3922C21.8358 19.3816 21.8305 19.371 21.8284 19.3529C21.8284 19.337 21.8177 19.3093 21.8124 19.2764C21.8028 19.2413 21.789 19.1977 21.7699 19.1456C21.7284 19.0414 21.6603 18.9075 21.5657 18.765C21.4689 18.6215 21.3487 18.4706 21.2115 18.3239C21.3381 18.1995 21.6359 18.1293 21.6008 17.9582C21.4859 17.6457 21.4593 17.4182 21.5029 17.2374C21.5465 17.0546 21.6582 16.9164 21.772 16.7803C21.8284 16.7123 21.9379 16.8037 22.0251 16.8835C22.1134 16.9621 22.1804 17.0291 22.174 16.8983C22.3846 17.0939 22.6558 17.3597 22.8345 17.5223C22.9227 17.6042 22.9961 17.6552 23.0323 17.651C23.0695 17.6467 23.0759 17.5851 23.0227 17.4394C23.0344 17.3065 22.8781 17.1067 22.7122 16.9164C22.5473 16.724 22.375 16.539 22.3857 16.3689C22.3942 16.201 22.5207 16.1329 22.6505 16.0692C22.7792 16.0054 22.9121 15.9469 22.9153 15.7694C22.7441 15.6121 22.3814 15.3293 22.19 15.1996C22.0889 14.9136 22.6983 14.903 22.4952 14.7616C22.2261 14.4672 21.8241 14.1971 21.3211 14.0015C20.8212 13.8038 20.2193 13.689 19.5971 13.6901C19.5971 13.6008 19.545 13.5125 19.545 13.4349C19.545 13.3956 19.5577 13.3595 19.596 13.3276C19.6577 13.2967 19.7662 13.267 19.9364 13.2574C20.6787 13.2967 21.3689 13.504 21.9634 13.7857C22.2623 13.9271 22.5409 14.0866 22.8004 14.2577C23.0482 14.4225 23.2748 14.5873 23.5034 14.7701C23.9554 15.1347 24.3851 15.5472 24.7786 16.033C25.1689 16.5231 25.5305 17.0886 25.7868 17.787C25.9134 18.1357 26.0112 18.5174 26.0559 18.9277C26.1016 19.337 26.092 19.7728 26.0144 20.2023C25.9378 20.6318 25.7943 21.0495 25.606 21.4237C25.5124 21.6129 25.4071 21.7873 25.2955 21.9542C25.2391 22.035 25.1817 22.1179 25.1242 22.1944L24.9573 22.4028C24.501 22.9471 23.9586 23.4116 23.3258 23.772C22.6994 24.1366 21.9719 24.3801 21.2222 24.4768C21.0339 24.4938 20.8457 24.5182 20.6574 24.5161H20.3745C20.2809 24.514 20.1874 24.5066 20.0948 24.5002C19.9066 24.4906 19.7258 24.4598 19.5429 24.4311C19.4525 24.4194 19.3578 24.3949 19.2653 24.3726L18.9856 24.3014C18.2475 24.0898 17.5806 23.7305 17.0223 23.2989C16.4618 22.8652 16.0002 22.3635 15.6184 21.8213C15.2377 21.277 14.9325 20.6934 14.7102 20.0386C14.6017 19.7069 14.5092 19.3657 14.4539 18.9787L14.4177 18.6864C14.4082 18.5854 14.406 18.4738 14.4018 18.3675C14.3911 18.1442 14.4092 17.9561 14.4241 17.7594C14.4975 16.9759 14.7474 16.235 15.1314 15.5717C15.5185 14.9104 16.0385 14.3162 16.699 13.8676C17.3531 13.4169 18.1401 13.1139 18.942 13.0246C19.0334 13.014 19.1153 13.015 19.1876 13.0182C19.26 13.0203 19.3227 13.0257 19.3759 13.032C19.4833 13.0448 19.5556 13.065 19.5971 13.0884C19.6216 13.1128 19.629 13.1415 19.6216 13.1713C19.6184 13.1862 19.6109 13.2021 19.6013 13.2181C19.5896 13.234 19.5641 13.251 19.5386 13.2691C19.4322 13.3414 19.2557 13.4179 19.0547 13.5136C18.8537 13.6167 18.6282 13.7251 18.4198 13.8612C18.5602 13.7772 18.6484 13.7942 18.7346 13.8261C18.8207 13.8559 18.9026 13.8857 19.0483 13.8176C19.0568 13.8835 19.0292 13.9665 18.9707 14.0579C18.9409 14.1036 18.9037 14.1514 18.8601 14.2003C18.8154 14.2482 18.7644 14.2992 18.708 14.3577C18.5953 14.4703 18.4549 14.5788 18.2985 14.7106C18.2592 14.7425 18.2177 14.7733 18.1752 14.8052C18.1337 14.8392 18.0922 14.8732 18.0475 14.9094C17.9593 14.9795 17.8635 15.0465 17.7689 15.1273C17.8699 15.0561 17.9795 14.9987 18.0901 14.9413C18.1975 14.8796 18.3155 14.8382 18.4315 14.7914C18.5623 14.7861 18.5825 14.8541 18.5793 14.936C18.5772 15.021 18.5559 15.1252 18.5867 15.2081C18.3825 15.2804 18.1954 15.3909 18.239 15.4664C18.2815 15.544 18.3687 15.7003 18.4113 15.7779C18.5655 15.6758 18.9143 15.5589 19.0919 15.5217C19.0026 15.5398 18.9164 15.5695 18.8537 15.5972C18.7909 15.6237 18.759 15.6684 18.7739 15.7077C18.8048 15.7906 18.8675 15.9575 18.8984 16.0415C18.8377 16.0915 18.7612 16.1213 18.6835 16.1648C18.6442 16.185 18.6006 16.1989 18.5591 16.2212C18.5187 16.2435 18.4761 16.2648 18.4325 16.2871C18.3879 16.3062 18.3496 16.3349 18.3092 16.3615C18.2698 16.3891 18.2283 16.4136 18.1943 16.4444C18.1603 16.4763 18.1284 16.5093 18.1007 16.5422C18.0869 16.5592 18.0731 16.5752 18.0614 16.5922C18.0507 16.6103 18.0412 16.6294 18.0326 16.6485L18.2337 16.8239C18.2485 16.8144 18.2634 16.8037 18.2783 16.792C18.2943 16.7825 18.3102 16.7718 18.3262 16.7612C18.357 16.7389 18.3879 16.7144 18.4166 16.6879C18.4464 16.6613 18.4804 16.64 18.5112 16.6124C18.5421 16.5858 18.5708 16.555 18.6059 16.5326C18.6389 16.5082 18.6708 16.4827 18.7016 16.4561C18.7335 16.4306 18.7686 16.4125 18.8005 16.3902C18.8633 16.3434 18.9313 16.3158 18.9909 16.2913C18.9037 16.4232 18.9462 16.4986 19.0196 16.6613C18.9005 16.7697 18.7484 16.8186 18.6048 16.9185C18.4623 17.0131 18.3464 17.1737 18.3751 17.3873C18.3996 17.3363 18.4347 17.2917 18.4666 17.246C18.4953 17.1971 18.5357 17.1598 18.5687 17.1163C18.6612 17.3416 18.5931 17.4809 18.4942 17.6414C18.3964 17.7977 18.2847 17.989 18.3198 18.14L18.3241 18.1421Z" fill="#FFFFFF"/>
<path d="M34.6581 52.7784C34.7304 52.8135 34.8123 52.8231 34.89 52.8231C34.9676 52.8231 35.0452 52.8146 35.1176 52.805C35.4196 52.7752 35.7227 52.7455 36.0279 52.7157L36.1694 52.7051L36.3215 52.6955L36.4012 52.6913L36.4895 52.6891L36.6288 52.687C36.7905 52.6849 36.9521 52.6828 37.1149 52.6796C37.2776 52.6774 37.4403 52.6753 37.603 52.6732L37.8476 52.67H37.8997L37.9114 52.6689H37.9348C37.9997 52.6647 38.0657 52.6615 38.1316 52.6583C38.1656 52.6583 38.1986 52.6604 38.2326 52.6604C38.2656 52.6604 38.3028 52.6551 38.323 52.6243C38.3603 52.5637 38.3549 52.4893 38.3517 52.4212C38.2954 51.5719 38.2369 50.7119 38.1795 49.8455C38.139 49.2364 38.0986 48.623 38.0667 47.9947L38.0444 47.5185L38.0295 47.0263L38.0263 46.7669V46.6287C38.0263 46.5713 38.0263 46.516 38.0295 46.4629C38.0369 46.2471 38.055 46.06 38.071 45.8984C38.0869 45.7379 38.1007 45.6039 38.1071 45.4966C38.1103 45.4434 38.1135 45.3945 38.1135 45.3541V45.1468C38.1156 44.8343 38.1167 44.5207 38.1188 44.2071C38.122 43.8861 38.1295 43.5586 38.1444 43.2217C38.1603 42.8847 38.1816 42.5402 38.2262 42.166C38.2496 41.9768 38.2773 41.7834 38.322 41.5654C38.3592 41.3666 38.4453 41.0615 38.5113 40.883C38.6453 40.512 38.7793 40.2015 38.9324 39.8731C39.0079 39.7104 39.0888 39.5478 39.177 39.3809C39.2185 39.299 39.2696 39.2118 39.3164 39.1268C39.3398 39.0843 39.3674 39.0407 39.3951 38.9929C39.4312 38.9323 39.4674 38.8717 39.5057 38.8153C39.6567 38.5857 39.8215 38.3646 40.014 38.169C40.063 38.1212 40.114 38.0755 40.164 38.0287C40.215 37.983 40.2735 37.9468 40.3288 37.9075C40.4331 37.8203 40.5554 37.7565 40.6745 37.6864C40.7277 37.6513 40.7659 37.6268 40.8276 37.5822C40.8553 37.5631 40.8851 37.5407 40.918 37.5163L41.0169 37.4419L41.4764 37.0836C41.6487 36.9518 41.8359 36.8104 42.0666 36.6605C42.1283 36.6223 42.1836 36.5851 42.2506 36.5468C42.3144 36.5107 42.4016 36.4596 42.4761 36.4224C42.5537 36.3852 42.6303 36.3459 42.7101 36.3129L42.9504 36.2194L43.2844 36.1109L43.596 36.0163C43.8044 35.9557 44.0129 35.8983 44.2224 35.8462C44.4319 35.7942 44.6425 35.7453 44.8531 35.7006L45.17 35.6368L45.5231 35.573C45.8102 35.5284 46.1006 35.5135 46.3899 35.538C46.5356 35.5475 46.676 35.5677 46.8227 35.5943C46.9716 35.6219 47.0865 35.6507 47.2141 35.6847C47.7044 35.8239 48.133 36.0185 48.5414 36.2651C48.5924 36.2959 48.6392 36.3267 48.7073 36.3703C48.77 36.4118 48.8264 36.4522 48.8849 36.4947C49.0008 36.5798 49.1114 36.6712 49.2135 36.7722L49.2912 36.8476L49.3592 36.9167L49.4624 37.0252L49.6517 37.2325C49.774 37.3685 49.8899 37.5035 50.009 37.646C50.0686 37.7172 50.1292 37.7916 50.193 37.8735C50.2228 37.9117 50.2739 37.9777 50.3132 38.034C50.3557 38.0914 50.394 38.1509 50.4323 38.2105L50.595 38.489C50.6461 38.574 50.6897 38.6665 50.7354 38.7547C50.829 38.9323 50.9056 39.1194 50.9843 39.3033C51.1321 39.6764 51.2438 40.058 51.3267 40.4312C51.4905 41.1795 51.5352 41.8769 51.565 42.4913C51.5777 42.7858 51.5905 43.0781 51.6033 43.3694C51.6182 43.6543 51.633 43.9392 51.6479 44.222C51.683 44.796 51.7171 45.3658 51.7522 45.9292C51.7958 46.6128 51.8341 47.3069 51.8617 48.0054C51.8894 48.7112 51.9032 49.3905 51.933 50.0432C51.9617 50.697 52.0095 51.3199 52.0946 51.911C52.1159 52.0598 52.1403 52.2012 52.1659 52.35C52.1946 52.5084 52.2297 52.6923 52.2627 52.9198C52.2956 53.1462 52.3222 53.4131 52.3265 53.6714L52.3286 54.2189C52.3297 54.288 52.3318 54.3571 52.335 54.3974C52.335 54.407 52.336 54.4155 52.3371 54.4176C52.3371 54.4176 52.3371 54.4208 52.3371 54.4198L52.0691 54.4389C51.866 54.457 51.7 54.4676 51.5246 54.4867L51.28 54.5123C51.2034 54.5208 51.1268 54.5303 51.0513 54.542C50.9822 54.5505 50.9194 54.559 50.8535 54.5697L50.6769 54.6016C50.6248 54.6122 50.5663 54.6281 50.5302 54.6356C50.4898 54.6462 50.4451 54.6632 50.4217 54.6707C50.3908 54.6855 50.3728 54.694 50.3664 54.7047C50.3664 54.7047 50.3643 54.7068 50.3643 54.7079C50.3792 55.1469 50.2335 50.9107 50.2962 52.703H50.3004C50.3834 52.6976 50.4887 52.6838 50.6121 52.6636C50.8609 52.6243 51.1874 52.5499 51.6011 52.4765C51.8075 52.4404 52.0383 52.4064 52.2903 52.3851C52.352 52.3787 52.419 52.3755 52.4839 52.3713L52.6402 52.3638L52.9199 52.3521C53.2921 52.3383 53.6591 52.332 54.0207 52.3277C54.3769 52.3256 54.7332 52.3245 55.0895 52.3224H55.6117L55.7404 52.3203C55.7542 52.3203 55.7585 52.3203 55.7574 52.3203H55.7638L55.7797 52.3171C55.801 52.3128 55.8201 52.3128 55.8372 52.3096C55.8531 52.3064 55.8765 52.3011 55.8754 52.2777C55.8744 52.2607 55.868 52.2448 55.8659 52.2299C55.8638 52.215 55.8606 52.198 55.8584 52.198C55.8542 51.6707 55.8499 51.1424 55.8457 50.6151C55.8403 50.0655 55.8265 49.5234 55.7989 48.9897L55.7755 48.5911L55.7627 48.404L55.7468 48.2254C55.7234 47.9862 55.6925 47.7375 55.6553 47.4802C55.6181 47.2219 55.5745 46.954 55.5277 46.6755L55.3873 45.8112C55.2958 45.2287 55.2118 44.6451 55.1352 44.0604C55.0608 43.4757 54.9853 42.8921 54.931 42.3053C54.8842 41.7217 54.8375 41.1391 54.7907 40.5577C54.7726 40.3504 54.7385 40.0921 54.7013 39.788C54.6832 39.636 54.6641 39.4723 54.6481 39.2958C54.6396 39.2087 54.6333 39.1162 54.6269 39.0216L54.6194 38.877L54.6141 38.7452C54.5492 38.2615 54.4844 37.7778 54.4205 37.2952C54.3844 37.022 54.3472 36.7498 54.311 36.4766L54.2568 36.0684L54.2429 35.9664L54.2366 35.9153C54.2344 35.8973 54.2323 35.8813 54.2302 35.8707L54.2036 35.7219C54.1238 35.3137 54.0015 34.8906 53.8441 34.4962C53.6878 34.0997 53.4963 33.7255 53.2762 33.3821C53.056 33.0387 52.8082 32.7251 52.5275 32.453C52.4615 32.3797 52.386 32.318 52.3137 32.2532C52.2403 32.1894 52.1712 32.1203 52.0904 32.065L51.8585 31.8875C51.7766 31.8343 51.699 31.7769 51.6118 31.7259C51.2757 31.5143 50.9013 31.3326 50.5153 31.188C50.5312 31.1465 50.6004 31.1199 50.6865 31.0966C50.7716 31.0753 50.8705 31.0615 50.9439 31.0381C51.0896 30.9934 51.1343 30.9073 50.7035 30.6894C50.2664 30.4864 49.8623 30.3503 49.506 30.2493C49.1497 30.1494 48.8381 30.0814 48.5712 30.0367C48.4361 30.0112 48.317 29.9963 48.1989 29.9772C48.0724 29.9644 47.9575 29.9517 47.8512 29.9368C47.7459 29.923 47.6501 29.907 47.5629 29.8911C47.4757 29.8783 47.397 29.8666 47.3268 29.8528C46.7642 29.7412 46.7344 29.5722 46.7121 29.3957C46.6983 29.3032 47.5544 29.2001 48.2564 29.182C48.5956 29.1725 48.904 29.2012 49.0583 29.2033C49.2125 29.2065 49.2178 29.1841 48.9455 29.115C49.774 29.1778 50.7376 29.4095 51.6022 29.7911C52.034 29.9814 52.4413 30.2036 52.7997 30.4396C52.8912 30.4959 52.972 30.564 53.0571 30.6224C53.1401 30.6841 53.2241 30.7404 53.3007 30.8021C53.3762 30.8659 53.4495 30.9275 53.5208 30.9871C53.5921 31.0477 53.6633 31.1029 53.725 31.1646C53.8484 31.2868 53.9717 31.3921 54.0706 31.5005C54.1717 31.6068 54.261 31.7014 54.3376 31.7822C54.4822 31.9534 54.5843 32.0639 54.6301 32.0969C54.6758 32.1298 54.6641 32.0841 54.5801 31.9406C54.5365 31.8705 54.4822 31.7695 54.3961 31.6515C54.3525 31.593 54.3036 31.5282 54.2493 31.4559C54.1951 31.3836 54.1366 31.3039 54.0632 31.2252C53.9771 31.1104 53.859 30.9467 53.6835 30.784C53.5963 30.7022 53.508 30.6054 53.4006 30.5183C53.2921 30.4311 53.1783 30.3397 53.0582 30.2429C52.5636 29.8762 51.9213 29.5201 51.2395 29.2617C50.8992 29.131 50.5514 29.0183 50.2111 28.9322C49.8708 28.8472 49.539 28.7802 49.2316 28.7334C48.6169 28.6377 48.1 28.6239 47.8001 28.5782C47.1971 28.4783 47.4779 28.3284 47.7767 28.1785C48.0724 28.0286 48.3882 27.8777 47.7554 27.7788C47.4396 27.7884 47.0535 27.833 46.627 27.8787C46.4165 27.9096 46.1963 27.9414 45.9708 27.9744C45.7454 28.0063 45.5199 28.0552 45.2923 28.0956C44.3851 28.271 43.5003 28.5091 42.9153 28.6803C42.307 28.7717 42.558 28.5559 42.8217 28.3603C43.0866 28.1679 43.362 27.9978 42.7643 28.1689C42.2464 28.2965 41.7093 28.4464 41.1573 28.626C40.8819 28.7164 40.6011 28.8121 40.3161 28.9163C40.1736 28.9673 40.03 29.0236 39.8853 29.0778C39.7365 29.1363 39.6003 29.1895 39.4302 29.2628L41.4732 30.4268C41.3339 29.115 41.1786 27.7373 41.0159 26.3192C38.3326 26.585 35.459 26.8688 32.5864 27.1527C32.5694 26.9751 31.3697 26.9124 33.7212 26.5967C36.2789 26.3416 38.841 26.0864 41.4115 25.8313C41.5902 27.3398 41.7688 28.8557 41.9475 30.3726L39.2355 28.828L39.5599 28.6888C39.662 28.6452 39.763 28.6037 39.863 28.5644C40.064 28.4815 40.264 28.406 40.465 28.3284C40.867 28.1785 41.269 28.0329 41.6763 27.8989C42.4889 27.6278 43.3163 27.3876 44.1618 27.1835C45.0083 26.9805 45.8773 26.821 46.7738 26.7168L47.28 26.6626L47.4523 26.652L48.1447 26.6126C48.6594 26.5978 49.1667 26.6275 49.6645 26.6924C50.661 26.8242 51.6192 27.091 52.5285 27.4875C52.9837 27.6863 53.4283 27.917 53.859 28.1849C54.0749 28.3188 54.2887 28.4623 54.4918 28.6197L54.7992 28.8535C54.9002 28.9333 54.9949 29.0204 55.0916 29.1044C55.8648 29.7826 56.5242 30.5852 57.0315 31.4527C57.5452 32.3191 57.9227 33.2375 58.1801 34.19C58.245 34.4281 58.3003 34.6705 58.3503 34.9182C58.363 34.9788 58.3737 35.0436 58.3854 35.1064C58.396 35.1691 58.4088 35.2371 58.4141 35.2828L58.8193 38.22L58.8363 38.3444C58.8437 38.3922 58.8501 38.4411 58.8491 38.4869L58.8512 38.6272V38.6856L58.8576 38.7845C58.8671 38.9238 58.8852 39.0885 58.9086 39.2735L58.9863 39.8975C58.999 40.0134 59.0118 40.1346 59.0224 40.2632L59.1426 41.7313L59.166 42.0236L59.199 42.317L59.2692 42.9027C59.317 43.2929 59.3691 43.683 59.4244 44.0732C59.4797 44.4622 59.5382 44.8524 59.5989 45.2404L59.7945 46.4395C59.8615 46.8594 59.9254 47.3027 59.9711 47.7672C60.0179 48.252 60.037 48.6698 60.0572 49.1014C60.0753 49.5319 60.0849 49.9582 60.0902 50.3813L60.0966 51.6038L60.0987 52.2416V52.8454C60.0998 52.9464 60.0966 53.0463 60.1019 53.1473C60.1147 53.2494 60.1232 53.3514 60.1317 53.4535C60.1678 53.8596 60.1498 54.2784 60.0732 54.5973C60.0349 54.7589 59.9881 54.9098 59.9243 55.0438L59.7169 55.435C59.6659 55.5083 59.6084 55.5838 59.5404 55.6614L59.534 55.6689C59.5414 55.6805 59.5159 55.6614 59.517 55.6657L59.4787 55.7103L59.4266 55.7688L59.3223 55.8846C59.1671 56.0197 59.0086 56.1292 58.8395 56.2206C58.5045 56.4045 58.1205 56.5193 57.6824 56.5714C57.4633 56.5969 57.2304 56.6033 56.9911 56.598C56.7507 56.5926 56.5029 56.5714 56.2594 56.5554C56.1371 56.5459 56.018 56.5522 55.8967 56.5501H55.6255L55.2512 56.548C54.7556 56.5459 54.2706 56.5416 53.7994 56.5459C53.5633 56.548 53.3304 56.5512 53.0997 56.5565L52.7572 56.5671L52.6785 56.5703L52.6338 56.5735C52.604 56.5746 52.5689 56.5799 52.5349 56.582C52.3892 56.599 52.2063 56.6288 51.9744 56.6724C51.7436 56.7149 51.4725 56.7691 51.1502 56.8148C50.9917 56.8382 50.8163 56.8563 50.6344 56.8701L50.494 56.8775L50.4589 56.8797H50.4408C50.3717 56.8658 50.661 56.9147 49.9878 56.8499C49.5539 56.8233 48.9264 56.379 48.8977 56.3173C48.7647 56.1972 48.6435 56.0558 48.5435 55.9059C48.4191 55.7082 48.4435 55.7348 48.401 55.6561C48.3733 55.5998 48.3478 55.5424 48.3255 55.4839C48.2978 55.4127 48.2904 55.3882 48.2829 55.3648C48.2659 55.3127 48.251 55.2596 48.2372 55.2064L48.2159 55.1129L48.2 55.0321L48.1904 54.9757L48.1777 54.8843L48.1702 54.8142L48.1649 54.7557C48.1585 54.6834 48.1564 54.6313 48.1543 54.5803C48.1458 54.3858 48.1468 54.2444 48.1468 54.0987L48.1511 53.749C48.15 53.631 48.1415 53.5396 48.1106 53.3429L48.0532 52.9953C48.0319 52.855 48.0086 52.7115 47.9894 52.5711C47.9139 52.0077 47.866 51.4539 47.8395 50.9192C47.7842 49.8465 47.7927 48.8441 47.7693 47.9033C47.7469 46.9455 47.7033 45.9856 47.6576 44.9969L47.5948 43.5002C47.5768 42.9825 47.5683 42.5094 47.5385 42.1044C47.5108 41.6941 47.4576 41.3603 47.3811 41.0732C47.3385 40.9319 47.2971 40.7979 47.2386 40.6725C47.213 40.6076 47.1801 40.546 47.1492 40.4843C47.1354 40.4524 47.1173 40.4216 47.0982 40.3908L47.0716 40.344C47.0652 40.3334 47.0641 40.3302 47.0599 40.3227C47.0599 40.3227 47.0663 40.3312 47.0482 40.3078L46.9376 40.1707C46.8546 40.0719 46.7642 39.9666 46.6749 39.8677L46.5462 39.7274L46.4898 39.6679C46.4771 39.6551 46.4866 39.6647 46.4845 39.6626C46.4845 39.6626 46.4845 39.6626 46.4845 39.6636C46.4803 39.6605 46.5026 39.6743 46.4622 39.6498C46.3548 39.5839 46.2229 39.5318 46.1399 39.5084C46.1304 39.5074 46.1219 39.5052 46.1123 39.5021C46.1038 39.4999 46.0953 39.4999 46.1027 39.501C46.107 39.5031 46.1048 39.501 46.1059 39.5031C46.1059 39.5031 46.107 39.5042 46.107 39.5031L45.9092 39.5403L45.6667 39.5892C45.5061 39.6232 45.3455 39.6615 45.186 39.7019C45.0264 39.7423 44.868 39.7859 44.7106 39.8337L44.4745 39.906L44.2713 39.973H44.2735C44.2873 39.9666 44.2713 39.973 44.2735 39.973L44.2288 40.0017C44.1543 40.0506 44.0405 40.1346 43.9097 40.2356L43.4535 40.5949L43.244 40.7543L43.1642 40.8128L43.0844 40.8702L42.9951 40.9319C42.9345 40.9733 42.8728 41.0148 42.8122 41.052C42.8143 41.052 42.8164 41.0499 42.8186 41.0477C42.8186 41.0477 42.8196 41.0477 42.8207 41.0445L42.8079 41.0658C42.8026 41.0754 42.7973 41.0839 42.7909 41.0956C42.7664 41.1413 42.742 41.1806 42.7165 41.2316C42.6654 41.3284 42.6133 41.4336 42.5633 41.5442C42.5123 41.6537 42.4633 41.7674 42.4155 41.8801C42.3697 41.9907 42.323 42.1076 42.2921 42.1979C42.2825 42.2245 42.2772 42.2394 42.273 42.2553L42.2687 42.267L42.2666 42.2734V42.2766C42.29 42.2851 42.0294 42.2033 42.1507 42.2415L42.1709 42.249L42.2506 42.2766C42.2698 42.283 42.2645 42.2819 42.2655 42.2819V42.2862C42.2655 42.2915 42.2634 42.2957 42.2613 42.3L42.2528 42.3457C42.2464 42.3702 42.2389 42.4191 42.2326 42.4616C42.2251 42.5009 42.2198 42.5604 42.2123 42.6104C42.1868 42.8251 42.1687 43.0835 42.1581 43.3513C42.1464 43.6203 42.1411 43.9009 42.139 44.1901V45.3222L42.1368 45.4944L42.1305 45.6645C42.1188 45.8846 42.1007 46.0674 42.0868 46.2194C42.073 46.3693 42.0624 46.4873 42.0592 46.5692L42.0571 46.6266V46.6861L42.0603 46.8785C42.0656 47.1411 42.0783 47.4324 42.0932 47.7237C42.1241 48.3105 42.1634 48.9121 42.2038 49.5181L42.3261 51.354L42.3549 51.8196L42.3761 52.1821C42.3836 52.3351 42.3921 52.4893 42.3963 52.6413L42.4123 53.0995L42.4208 53.3291C42.425 53.4067 42.4155 53.4768 42.4133 53.5513C42.3953 53.8436 42.3921 54.1466 42.3442 54.4198C42.3017 54.576 42.2645 54.7366 42.2038 54.8748L42.1219 55.0906C42.09 55.1597 42.0549 55.2256 42.0209 55.2936C41.9475 55.4275 41.8614 55.5594 41.7667 55.6827C41.6699 55.8039 41.5572 55.9261 41.4349 56.0345C41.185 56.2514 40.9744 56.3758 40.7085 56.4906C40.4458 56.6011 40.1119 56.683 39.7365 56.6947C39.5514 56.7053 39.3568 56.6915 39.1643 56.6766C38.9728 56.6575 38.7835 56.6681 38.5921 56.6649H36.5608C36.4874 56.6649 36.3534 56.6724 36.1853 56.6851L35.6217 56.7319L35.4643 56.7436L35.2484 56.7574C35.0612 56.7659 34.874 56.7734 34.6879 56.7723C34.3157 56.7723 33.9466 56.7447 33.5925 56.6798C32.8831 56.5533 32.2439 56.2642 31.7281 55.8017C31.4697 55.5732 31.2527 55.2957 31.0826 55.0013C30.9081 54.7047 30.8007 54.3921 30.7135 54.0562C30.6763 53.834 30.6678 53.597 30.6465 53.3674C30.638 53.2536 30.6242 53.1324 30.621 53.0251L30.6093 52.1278V51.7664L30.6189 50.3387C30.6295 49.4022 30.6401 48.4657 30.6497 47.5302L30.6529 46.8445V46.5139L30.6508 46.3513L30.6444 46.1472V46.1206V46.1386L30.6465 46.1567V46.161C30.6284 46.1642 30.6869 46.1578 30.7348 46.1525L30.8741 46.1376C31.0602 46.1163 31.2463 46.0929 31.4324 46.0664C31.6186 46.0398 31.8036 46.0111 31.9887 45.9803L32.2663 45.9314L32.4045 45.9058C28.9108 46.4767 31.4356 46.06 30.655 46.1865L30.6465 46.1355C30.6252 45.9994 30.605 45.8623 30.588 45.7219C30.5529 45.4424 30.5253 45.1553 30.5093 44.863C30.5008 44.7163 30.4965 44.5675 30.4944 44.4186V44.0285L30.5019 41.9269C30.521 38.1828 30.5402 34.4483 30.5593 30.7224C30.6476 25.9844 31.0039 29.5392 31.2708 33.0919C31.1815 31.9087 31.4484 31.9087 31.3601 30.7224C31.6271 30.7224 32.0716 33.0919 32.161 37.831V34.2761C32.2503 33.0908 32.4279 34.2761 32.6055 34.2761C32.6055 35.4625 32.6055 36.6457 32.6949 36.6457H33.0501V31.9077C33.0501 33.0908 33.0501 34.2761 33.1394 34.2761H33.4957C33.584 36.6457 33.4064 40.1994 33.4957 42.57H33.7626C33.852 40.1994 33.7626 36.6457 33.7626 34.2761C33.852 35.4625 33.9402 35.4625 34.1189 35.4625C34.1636 37.2388 34.1189 39.0163 34.0966 40.7926C34.0859 41.6813 34.0796 42.5679 34.0934 43.4598L34.1072 44.1274C34.1104 44.2475 34.1136 44.3304 34.12 44.4229C34.1264 44.5143 34.1349 44.6079 34.1444 44.7004C34.1657 44.8864 34.1955 45.0745 34.2327 45.2648C34.2519 45.3594 34.2731 45.4551 34.2955 45.5518L34.304 45.588C34.304 45.588 34.3072 45.6071 34.3093 45.6199L34.3157 45.6592L34.3369 45.8187L34.3529 45.9611L34.3625 46.0568L34.3582 45.925C34.3529 45.8538 34.3476 45.7815 34.3401 45.7102L34.3284 45.6029L34.305 45.4509C34.2859 45.3222 34.2689 45.1947 34.255 45.0692C34.2274 44.8173 34.2114 44.5717 34.2083 44.3304C34.2083 43.7436 34.2083 43.1568 34.2083 42.57C34.2582 42.8336 34.2976 43.143 34.3284 43.4885C34.3444 43.6607 34.3582 43.8425 34.3699 44.0328C34.3752 44.1221 34.3805 44.2135 34.3869 44.307C34.3933 44.3857 34.3997 44.4644 34.4071 44.5462C34.422 44.7099 34.4433 44.8811 34.4678 45.0607C34.4816 45.1511 34.4954 45.2436 34.5103 45.3361C34.5177 45.3828 34.5262 45.4307 34.5348 45.4785L34.5475 45.5508L34.5582 45.6316L34.5677 45.7198L34.5837 45.8973C34.5869 45.9335 34.5858 45.9388 34.5869 45.959L34.589 46.01C34.5911 46.0781 34.5943 46.145 34.5964 46.2131C34.6007 46.3481 34.6007 46.4629 34.6028 46.5915C34.6049 46.8403 34.6049 47.0837 34.6028 47.3314C34.5943 48.3168 34.5645 49.3331 34.5401 50.326C34.5284 50.8214 34.5177 51.3114 34.5124 51.7834C34.5114 51.9599 34.5092 52.1332 34.5082 52.3033C34.5082 52.3437 34.5082 52.383 34.5082 52.4223C34.5082 52.4521 34.5082 52.4818 34.5114 52.5105C34.5135 52.5669 34.5188 52.6222 34.5443 52.6689C34.5688 52.7157 34.6081 52.7519 34.6528 52.7731L34.6581 52.7784Z" fill="#FFFFFF"/>
</svg>
