<svg width="67" height="47" viewBox="0 0 67 47" fill="none" xmlns="http://www.w3.org/2000/svg">
<path d="M64.9252 8.66915C64.6385 8.6265 64.3511 8.58296 64.0668 8.54298C58.8017 7.9308 53.5366 8.13516 47.687 7.72644C43.5918 7.31773 38.9121 7.52209 34.8185 7.52209C44.5231 7.89881 54.7226 7.75577 64.0468 9.16937C63.1043 9.65094 61.9776 10.0357 60.6667 10.0357C57.5108 9.84552 54.3966 9.71225 51.3081 9.62162V8.81042C42.5332 9.42348 34.3428 7.78953 25.568 8.81042C25.8803 8.9197 25.6953 9.08585 25.6304 9.21735C25.6088 9.21735 25.588 9.21735 25.568 9.21824C25.588 9.21824 25.6088 9.21824 25.6304 9.21735C25.572 9.33286 25.608 9.4226 26.1541 9.4226C25.608 9.4226 25.572 9.33286 25.6304 9.21735C34.2628 9.01833 42.3346 9.21557 50.9557 9.61096C37.57 9.2289 24.6647 9.62695 10.9442 9.62695H8.60515C6.26529 9.01477 3.92382 8.81042 1.58556 8.81042C2.16933 7.78953 -0.170535 5.74775 4.51079 6.15646V5.33993C-0.172137 4.31904 -1.92743 1.46073 2.75389 0.644192C8.01818 -0.172341 15.0386 0.644192 21.472 0.235481C26.1533 0.0311256 30.833 -0.17323 35.5112 0.235481C41.9462 0.847659 48.9658 0.643304 55.4 1.46073C57.7407 1.66508 61.8366 1.0529 63.0066 1.66508C63.8474 1.95829 63.8802 2.39276 63.7521 2.87789C59.906 2.80592 56.0711 2.78371 52.2794 2.69486C47.6277 2.46651 42.976 2.21151 38.3275 1.80635C42.8735 2.36611 47.5428 2.58379 52.2794 2.69486C56.0622 2.88144 59.8475 3.05026 63.6312 3.26972C63.4926 3.68642 63.3597 4.1209 63.5903 4.52428H65.3448C67.6855 5.54517 67.0993 6.97477 65.931 7.99566C65.6331 8.20268 65.2976 8.43725 64.9244 8.67003L64.9252 8.66915Z" fill="#EF8D2B"/>
<path d="M65.3966 26.8559C65.17 26.8132 64.9434 26.7697 64.7192 26.7297C60.5632 26.1175 56.4079 26.3219 51.7907 25.9132C48.5588 25.5045 44.8648 25.7088 41.6337 25.7088C49.2931 26.0855 57.3433 25.9425 64.7032 27.3561C63.9592 27.8377 63.0704 28.2224 62.035 28.2224C59.5446 28.0323 57.0862 27.899 54.6486 27.8084V26.9972C47.7227 27.6102 41.2581 25.9763 34.333 26.9972C34.5788 27.1064 34.4331 27.2726 34.3818 27.4041C34.365 27.4041 34.3482 27.4041 34.333 27.405C34.349 27.405 34.365 27.405 34.3818 27.4041C34.3354 27.5196 34.3642 27.6093 34.795 27.6093C34.3642 27.6093 34.3362 27.5196 34.3818 27.4041C41.1948 27.2051 47.5658 27.4023 54.37 27.7977C43.8054 27.4156 33.6195 27.8137 22.7898 27.8137H20.9432C19.0967 27.2015 17.2485 26.9972 15.4027 26.9972C15.8639 25.9763 14.0165 23.9345 17.7113 24.3432V23.5267C14.0165 22.5058 12.6312 19.6475 16.326 18.8309C20.4812 18.0144 26.0218 18.8309 31.0995 18.4231C34.7942 18.2187 38.4882 18.0144 42.1806 18.4231C47.2591 19.0353 52.8005 18.8309 57.8782 19.6483C59.7256 19.8527 62.9583 19.2405 63.8824 19.8527C64.5454 20.1459 64.5718 20.5804 64.4701 21.0655C61.4344 20.9935 58.4083 20.9713 55.415 20.8825C51.7434 20.6541 48.0719 20.3991 44.4035 19.994C47.9918 20.5537 51.677 20.7714 55.415 20.8825C58.4003 21.0691 61.3888 21.2379 64.3748 21.4573C64.2659 21.874 64.161 22.3085 64.3428 22.7119H65.7274C67.5747 23.7328 67.1119 25.1624 66.1902 26.1833C65.9548 26.3903 65.6905 26.6249 65.3958 26.8577L65.3966 26.8559Z" fill="#EF8D2B"/>
<path d="M65.7726 45.6335C65.6157 45.5908 65.4587 45.5473 65.3034 45.5073C62.4238 44.8951 59.5442 45.0995 56.3443 44.6908C54.1045 44.2821 51.5453 44.4864 49.3055 44.4864C54.613 44.8631 60.192 44.7201 65.2921 46.1337C64.7765 46.6153 64.1607 47 63.4432 47C61.7175 46.8098 60.0142 46.6766 58.3246 46.5859V45.7747C53.5256 46.3878 49.0452 44.7539 44.2462 45.7747C44.4168 45.884 44.3159 46.0502 44.2798 46.1817C44.2678 46.1817 44.2566 46.1817 44.2462 46.1826C44.2574 46.1826 44.2686 46.1826 44.2798 46.1817C44.2478 46.2972 44.2678 46.3869 44.5657 46.3869C44.267 46.3869 44.2478 46.2972 44.2798 46.1817C49.0012 45.9827 53.4159 46.1799 58.1308 46.5753C50.8093 46.1932 43.7513 46.5913 36.2465 46.5913H34.9668C33.6872 45.9791 32.4067 45.7747 31.1279 45.7747C31.4474 44.7539 30.1678 42.7121 32.7279 43.1208V42.3042C30.1678 41.2834 29.2076 38.425 31.7677 37.6085C34.6473 36.792 38.4862 37.6085 42.0056 37.2007C44.5657 36.9963 47.1258 36.792 49.6843 37.2007C53.2037 37.8129 57.0434 37.6085 60.562 38.4259C61.8424 38.6303 64.0822 38.0181 64.7228 38.6303C65.1824 38.9235 65.2009 39.358 65.1304 39.8431C63.0268 39.7711 60.9295 39.7489 58.8555 39.6601C56.3115 39.4317 53.7674 39.1767 51.2249 38.7716C53.7113 39.3313 56.265 39.549 58.8555 39.6601C60.9247 39.8467 62.9947 40.0155 65.0639 40.2349C64.9879 40.6516 64.9158 41.0861 65.0415 41.4895H66.0008C67.2813 42.5104 66.9602 43.94 66.3219 44.9609C66.1586 45.1679 65.976 45.4025 65.771 45.6352L65.7726 45.6335Z" fill="#EF8D2B"/>
</svg>
