<svg width="170" height="152" viewBox="0 0 170 152" fill="none" xmlns="http://www.w3.org/2000/svg">
<g clip-path="url(#clip0_148_534)">
<path d="M99.6602 112.937L99.6424 112.666C99.6353 112.531 99.6281 112.389 99.6246 112.243C99.6246 111.944 99.6388 111.616 99.6886 111.285C99.7349 110.954 99.8132 110.63 99.8914 110.367L99.9199 110.278C99.9306 110.246 99.927 110.264 99.9306 110.253L99.9413 110.228L99.9662 110.182C100.041 110.054 100.084 109.911 100.073 109.765V109.666V109.698V109.673L100.069 109.641L100.048 109.363C100.034 109.164 100.03 108.908 100.048 108.619L100.066 108.391L100.091 108.192C100.105 108.096 100.123 108.003 100.141 107.911C100.18 107.726 100.244 107.512 100.308 107.334L100.39 107.135L100.436 107.039C100.468 106.989 100.521 106.957 100.55 106.907C100.575 106.857 100.582 106.804 100.596 106.751L100.624 106.587L100.635 106.501L100.642 106.452L100.656 106.274C100.703 105.711 100.806 105.088 100.977 104.522L101.076 104.202L101.165 103.932L101.354 103.398C101.482 103.045 101.617 102.7 101.756 102.362L101.863 102.106L102.008 101.768C102.112 101.543 102.218 101.323 102.343 101.102C102.581 100.664 102.855 100.234 103.165 99.8349C103.777 99.034 104.506 98.34 105.25 97.7954C105.62 97.5213 105.997 97.2722 106.371 97.0551C106.702 96.8629 107 96.6991 107.303 96.5318C108.502 95.8805 109.573 95.3324 110.427 94.7629C110.644 94.6205 110.836 94.4817 111.021 94.3393C111.195 94.2005 111.373 94.0581 111.58 93.8659C111.989 93.4993 112.466 93.0224 113.085 92.4813C113.697 91.9475 114.486 91.3531 115.429 90.8939C115.547 90.837 115.668 90.7836 115.789 90.7302L116.041 90.6198L116.369 90.481C116.579 90.3743 116.792 90.2746 116.995 90.1571C117.813 89.6944 118.564 89.0787 119.297 88.2921C120.026 87.5197 120.749 86.5409 121.446 85.5336C121.659 85.2275 121.862 84.836 122.065 84.3448C122.268 83.8607 122.474 83.2556 122.698 82.6221C122.727 82.5402 122.752 82.4584 122.77 82.3765C122.78 82.3338 122.787 82.2946 122.794 82.2519C122.805 82.2092 122.809 82.1487 122.816 82.0989C122.841 81.8746 122.851 81.5863 122.844 81.2553C122.837 80.9207 122.812 80.5363 122.784 80.1128C122.759 79.6821 122.73 79.2479 122.706 78.8136C122.624 77.1052 122.538 75.386 122.453 73.6526C122.371 71.9406 122.279 70.2393 122.14 68.5486L122.086 67.9151L122.026 67.3954C122.012 67.221 121.969 67.0466 121.944 66.8722C121.916 66.6978 121.884 66.5198 121.841 66.3418C121.691 65.6335 121.467 64.911 121.193 64.1813C120.677 62.7292 119.923 61.2414 119.069 59.718C118.639 58.9563 118.18 58.1839 117.71 57.3938L117.351 56.7958L116.974 56.1444C116.742 55.7244 116.507 55.3009 116.273 54.8773C115.824 54.048 115.401 53.265 114.963 52.546C114.746 52.1865 114.522 51.8448 114.294 51.528C114.049 51.1863 113.786 50.8375 113.515 50.4958C112.441 49.1291 111.199 47.8157 109.893 46.4418C108.605 45.0857 107.356 43.815 106.057 42.7935C105.734 42.5337 105.406 42.3023 105.083 42.0781C104.919 41.9749 104.755 41.8645 104.592 41.7649L104.029 41.4338C103.133 40.9142 102.35 40.4016 101.596 39.9496C100.849 39.4976 100.141 39.1061 99.4823 38.8284C99.1549 38.6932 98.8347 38.5722 98.5358 38.501C98.3828 38.4547 98.2405 38.4369 98.0982 38.4013L97.5218 38.3159C95.9598 38.1095 94.3089 38.1023 92.6331 38.1806C93.9068 38.1379 95.1486 38.1451 96.337 38.2483C96.9347 38.291 97.5076 38.38 98.0697 38.4761C98.4789 38.5544 98.9237 38.7003 99.3933 38.9067C100.343 39.3196 101.375 39.9745 102.517 40.7042L103.407 41.2666L104.318 41.8182C104.78 42.0959 105.243 42.4162 105.698 42.7757C106.613 43.4947 107.513 44.3454 108.409 45.2672C108.861 45.7264 109.31 46.2104 109.772 46.7016L111.135 48.1716C112.021 49.1433 112.846 50.1007 113.597 51.0902L113.874 51.464L114.01 51.6526L114.131 51.8235C114.291 52.0512 114.447 52.2968 114.607 52.5495C114.921 53.0585 115.23 53.6031 115.55 54.1833L116.554 56.0056C116.732 56.3188 116.92 56.6427 117.112 56.9666L117.646 57.8458C118.347 59.0061 119.023 60.1344 119.624 61.252C120.222 62.3697 120.745 63.4802 121.151 64.5764C121.553 65.6727 121.816 66.7547 121.93 67.8047C121.948 67.9222 121.962 68.1108 121.976 68.2674L122.019 68.7586L122.097 69.7445C122.147 70.403 122.19 71.065 122.229 71.7306C122.307 73.0618 122.364 74.4037 122.424 75.7633C122.485 77.1194 122.545 78.4862 122.624 79.8743C122.666 80.5755 122.702 81.177 122.688 81.6397C122.681 81.8711 122.663 82.0633 122.634 82.2128C122.613 82.3373 122.577 82.4619 122.531 82.5794C122.303 83.2023 122.094 83.8002 121.891 84.2736C121.684 84.7541 121.482 85.1278 121.275 85.4126L120.752 86.1351C120.571 86.3807 120.393 86.6156 120.211 86.8434C119.852 87.3026 119.489 87.719 119.123 88.0999C118.39 88.8651 117.65 89.4488 116.853 89.8795C116.657 89.9898 116.447 90.0859 116.244 90.182C115.995 90.2853 115.956 90.2888 115.323 90.57C114.333 91.0327 113.494 91.6449 112.857 92.1859C112.209 92.7341 111.718 93.211 111.306 93.5669C111.096 93.752 110.921 93.8873 110.754 94.0119C110.573 94.14 110.388 94.2717 110.174 94.4034C109.338 94.9373 108.263 95.4641 107.043 96.1012C106.734 96.2649 106.431 96.4251 106.086 96.6208C105.695 96.8415 105.3 97.0978 104.908 97.3825C104.125 97.9484 103.35 98.671 102.695 99.5181C102.368 99.9381 102.076 100.39 101.82 100.853C101.688 101.084 101.574 101.319 101.464 101.554L101.197 102.163C101.051 102.504 100.913 102.853 100.777 103.213L100.582 103.757L100.486 104.035L100.379 104.369C100.194 104.967 100.08 105.619 100.027 106.217L100.009 106.398C100.009 106.437 100.005 106.434 100.005 106.437V106.452L99.9875 106.501L99.959 106.598C99.9484 106.63 99.9377 106.662 99.9199 106.69C99.9021 106.719 99.8665 106.736 99.8416 106.761L99.8345 106.772L99.7349 106.993C99.7029 107.067 99.6744 107.131 99.6353 107.256C99.5605 107.477 99.5 107.708 99.4645 107.914C99.4431 108.021 99.4289 108.128 99.4147 108.238L99.4004 108.388L99.3791 108.641L99.372 108.865C99.3684 109.021 99.372 109.139 99.372 109.271L99.3898 109.602L99.4004 109.74V109.776L99.404 109.794C99.404 109.804 99.3969 109.726 99.3969 109.748V109.755L99.3898 109.801L99.3435 109.762H99.3364V109.755C99.3364 109.762 99.3364 109.733 99.3364 109.772C99.3399 109.812 99.3364 109.801 99.3364 109.794L99.3115 109.666C99.2972 109.587 99.2795 109.47 99.2652 109.37C99.251 109.26 99.2403 109.132 99.2296 109.004C99.2225 108.854 99.2154 108.73 99.219 108.555L99.2296 108.306C99.2296 108.306 99.2403 108.157 99.2545 108.053C99.2688 107.947 99.2866 107.84 99.3079 107.733C99.3506 107.516 99.4147 107.284 99.4894 107.067L99.5783 106.843C99.6068 106.776 99.6566 106.665 99.6388 106.694C99.6281 106.637 99.6032 106.58 99.557 106.526C99.5356 106.501 99.5143 106.477 99.4929 106.455L99.4467 106.409H99.4431V106.363L99.4396 106.267C99.4396 106.142 99.4396 105.957 99.4467 105.782C99.4538 105.608 99.468 105.43 99.4858 105.252C99.5178 104.896 99.5783 104.54 99.6566 104.184C99.6993 103.989 99.742 103.793 99.7882 103.593C99.8309 103.419 99.8701 103.245 99.9128 103.07C100.002 102.721 100.094 102.38 100.197 102.038C100.251 101.867 100.304 101.696 100.358 101.522C100.446 101.276 100.535 101.027 100.646 100.778C100.859 100.28 101.115 99.7779 101.418 99.2939C102.019 98.3222 102.805 97.4217 103.645 96.7027C104.065 96.3396 104.499 96.0122 104.933 95.7239C105.043 95.6491 105.15 95.5815 105.257 95.5139L105.549 95.3324C105.716 95.2363 105.883 95.1366 106.05 95.0369C107.04 94.4924 107.897 94.0546 108.594 93.6488C108.943 93.4459 109.249 93.2573 109.509 93.0793C109.637 92.9903 109.754 92.9049 109.861 92.8266C109.957 92.7519 110.071 92.6593 110.213 92.5347C110.487 92.2963 110.829 91.9653 111.281 91.5524C111.725 91.1431 112.28 90.6519 112.989 90.1571C113.334 89.9115 113.732 89.6659 114.141 89.4417C114.355 89.3314 114.565 89.221 114.789 89.1214L115.283 88.9043C115.547 88.7975 115.799 88.6836 116.038 88.5483C116.525 88.2849 116.981 87.9397 117.457 87.5019C117.931 87.0641 118.418 86.5053 118.92 85.8646C119.172 85.5372 119.425 85.1955 119.685 84.8289L119.955 84.4445C120.005 84.3733 120.055 84.2843 120.112 84.1775C120.226 83.9675 120.35 83.6792 120.489 83.3233L120.709 82.7289L120.948 82.0562C120.959 82.0348 120.969 82.0135 120.976 81.9885C120.991 81.9245 121.001 81.7963 121.005 81.6112C121.015 81.2375 120.976 80.6467 120.927 79.9028C120.838 78.4791 120.77 77.0838 120.702 75.7099C120.923 75.6957 121.353 75.6708 121.571 75.6601C121.421 73.7737 121.279 71.9299 121.104 70.1325L120.966 68.7942L120.891 68.1322L120.816 67.6232C120.706 66.9683 120.532 66.2956 120.3 65.6086C119.827 64.2276 119.123 62.7897 118.283 61.309C117.863 60.5687 117.415 59.8141 116.945 59.0417L116.23 57.8671L115.839 57.2193L115.458 56.5573C115.017 55.7529 114.572 54.9521 114.131 54.1512C113.924 53.7882 113.725 53.4465 113.526 53.1262C113.426 52.9695 113.33 52.8165 113.23 52.667C113.131 52.5211 113.045 52.3929 112.917 52.2221C111.982 50.9265 110.9 49.6807 109.694 48.3674L107.876 46.4026C107.285 45.7798 106.701 45.1889 106.125 44.6515C105.549 44.114 104.972 43.6371 104.407 43.2313C104.264 43.1245 104.122 43.0391 103.983 42.9394L103.514 42.6511C103.047 42.3771 102.638 42.1101 102.233 41.8538C101.439 41.3413 100.728 40.8715 100.076 40.4977C99.4218 40.1133 98.8383 39.8428 98.3437 39.6756C98.2263 39.6435 98.1018 39.5972 97.995 39.5794L97.9132 39.5581C97.8883 39.551 97.8598 39.5439 97.8064 39.5367L97.536 39.4905C97.1802 39.4264 96.8031 39.3837 96.4259 39.3445C95.6645 39.2662 94.8639 39.2378 94.0385 39.2378C92.3876 39.2378 90.6334 39.3623 88.7975 39.4976C87.8795 39.5652 86.9367 39.6364 85.9653 39.6898L85.3106 39.7325C85.1078 39.7467 84.905 39.7574 84.7022 39.7752C84.2966 39.8144 83.8874 39.85 83.4818 39.9105C80.2298 40.3376 76.9884 41.3306 73.9072 42.7828C73.5229 42.9643 73.1386 43.153 72.7579 43.3452L72.1886 43.6406L71.6727 43.9254C70.9931 44.3169 70.2993 44.776 69.577 45.2779C68.136 46.2781 66.5847 47.4775 64.7452 48.6272C65.8589 48.104 65.3287 48.6272 65.1793 48.8799C65.1046 48.9226 65.0334 48.9653 64.9658 49.008C65.0334 48.9689 65.1046 48.9262 65.1793 48.8799C65.1117 48.9938 65.1188 49.0507 65.3786 48.944C65.1153 49.0507 65.1081 48.9938 65.1793 48.8799C67.0259 47.773 68.5701 46.6304 69.9898 45.6943C70.6978 45.2245 71.3774 44.7974 72.0285 44.445C72.1993 44.356 72.3381 44.2742 72.5302 44.1816L73.0852 43.904C73.4588 43.7225 73.8289 43.5445 74.206 43.3772C77.2054 42.014 80.3294 41.0708 83.4533 40.6437C84.2432 40.5262 84.9975 40.4728 85.8123 40.4194C86.7837 40.3661 87.7159 40.2913 88.6267 40.2237C90.4449 40.0778 92.1563 39.9461 93.7716 39.914C94.5722 39.9033 95.3478 39.9176 96.0843 39.971C96.4544 39.9959 96.8066 40.0386 97.1589 40.0778L97.6677 40.1596C97.7709 40.1739 97.7993 40.1845 97.8456 40.1952C97.8918 40.2059 97.931 40.2094 97.9843 40.2272C98.3722 40.3305 98.8845 40.5333 99.4858 40.8608C100.08 41.174 100.76 41.6047 101.51 42.0816C101.898 42.3272 102.286 42.5764 102.727 42.8433L103.385 43.2349C103.517 43.3203 103.649 43.3879 103.78 43.4804C104.314 43.8293 104.862 44.2493 105.417 44.7333C106.538 45.7086 107.669 46.9081 108.9 48.2321C110.117 49.5313 111.217 50.745 112.16 51.9872C112.668 52.6492 112.989 53.119 113.383 53.7882C113.771 54.4395 114.173 55.1941 114.618 56.0127C114.842 56.4221 115.081 56.8527 115.337 57.2977L115.728 57.9632L116.08 58.5505C116.547 59.3229 116.998 60.0775 117.422 60.8142C118.262 62.2842 118.994 63.7044 119.489 65.0498C119.738 65.7225 119.934 66.3774 120.065 67.0039C120.119 67.3135 120.183 67.6232 120.208 67.9222L120.236 68.1571L120.322 69.1323C120.464 70.8764 120.556 72.6667 120.638 74.5033C120.578 73.3394 120.517 72.1933 120.439 71.065L120.311 69.3886L120.236 68.5593L120.197 68.1464L120.158 67.8545C119.969 66.3312 119.34 64.6191 118.411 62.8181C117.948 61.9176 117.418 60.9922 116.845 60.0348L115.49 57.8031C115.312 57.5112 115.145 57.2229 114.988 56.9453C114.351 55.8277 113.825 54.8204 113.319 53.9768C113.067 53.5533 112.825 53.1724 112.586 52.8378C112.323 52.4677 112.003 52.0512 111.693 51.6668C111.06 50.8802 110.366 50.0972 109.616 49.2892L108.452 48.0506L107.299 46.844C106.549 46.0752 105.819 45.3704 105.104 44.7725C104.748 44.4699 104.396 44.203 104.054 43.9609C103.884 43.8364 103.713 43.7332 103.546 43.6228L102.898 43.242C101.727 42.5515 100.777 41.9144 99.9484 41.4374C99.1229 40.9569 98.4149 40.633 97.9488 40.5227C97.8847 40.5013 97.8349 40.4977 97.7815 40.4835L97.7033 40.4657L97.5431 40.4408C97.3261 40.4088 97.1197 40.3732 96.892 40.3518C96.6714 40.3269 96.4473 40.302 96.2124 40.2878C95.9847 40.2664 95.7463 40.2557 95.5044 40.2486C94.5437 40.2094 93.5226 40.2272 92.4587 40.2842C91.3949 40.3376 90.2848 40.4266 89.1284 40.5227L87.3601 40.665L85.5633 40.7861C83.5921 40.9035 81.6103 41.2594 79.6534 41.7862C77.6929 42.313 75.7644 43.0462 73.8822 43.9218C73.4161 44.1389 72.9358 44.3774 72.4911 44.6052C72.0926 44.8116 71.6763 45.0537 71.2564 45.3064C70.4061 45.826 69.513 46.4347 68.5416 47.1003C67.5667 47.7623 66.5207 48.4777 65.3465 49.1718C65.0583 49.3462 64.7488 49.517 64.4464 49.6879L63.7739 50.0652C63.3434 50.3143 62.9306 50.567 62.5357 50.8304C61.7422 51.3536 61.0271 51.9089 60.4044 52.4926C60.0913 52.788 59.8138 53.0728 59.5327 53.3967C59.1947 53.7917 58.8602 54.1868 58.5507 54.5783C57.3018 56.1587 56.3305 57.7319 55.7363 59.3336C55.4339 60.1451 55.2204 60.9246 55.0852 61.8037C54.8824 63.0637 54.6369 64.3558 54.306 65.6869C54.2989 65.7261 54.2989 65.7012 54.2775 65.9468C54.2597 66.1746 54.2419 66.6693 54.1743 67.2495C54.1138 67.7869 54.0213 68.2888 53.9822 68.5451C53.9395 68.8191 53.9431 68.8476 53.9431 68.8939L54.0747 70.7162L54.1138 71.275L54.1565 71.9335C54.1814 72.382 54.1921 72.7913 54.1992 73.1757C54.217 73.9409 54.2312 74.5994 54.2739 75.1333C54.2953 75.4003 54.3202 75.6316 54.3522 75.8167C54.3593 75.8665 54.3665 75.9057 54.3771 75.9484L54.3878 76.0089L54.4163 76.1264L54.5337 76.6211L54.9927 78.6001L55.0496 78.8492C56.7254 78.3972 52.7689 79.4721 53.1745 79.3618H53.1816L53.1923 79.3582L53.2314 79.344L53.3346 79.3084L53.5019 79.2479L53.726 79.1589L54.153 78.988L54.7614 78.7282L54.9749 78.6357L55.0852 78.8706C55.3947 79.5113 55.6296 80.1911 55.7648 80.8923L55.8715 81.3941L55.964 81.7821C56.0316 82.0419 56.0992 82.3018 56.1775 82.558C56.3305 83.0777 56.5084 83.5938 56.7076 84.1134C57.1133 85.1456 57.6007 86.1778 58.1771 87.1994C58.2803 87.3844 58.4048 87.5944 58.5365 87.8222C58.6041 87.9361 58.6752 88.0536 58.7499 88.1746C58.814 88.2778 58.8816 88.3846 58.9528 88.4914C59.2303 88.9149 59.579 89.3954 59.9668 89.8795C60.7424 90.8476 61.6782 91.8264 62.3258 92.4813C63.6565 94.0795 65.0868 95.5673 66.6915 97.144L68.5239 98.9557L68.933 99.3651C69.0825 99.5217 69.2283 99.6818 69.3635 99.8384C69.9044 100.465 70.342 101.081 70.7547 101.739C70.9611 102.074 71.1461 102.398 71.3489 102.786C71.5766 103.227 71.7759 103.682 71.9502 104.145C72.1957 104.821 72.3309 105.53 72.3843 106.245C72.4412 107.067 72.4199 107.448 72.4306 107.605C72.4306 107.633 72.4306 107.626 72.4306 107.687L72.4626 107.996C72.4768 108.132 72.4911 108.299 72.5017 108.523C72.5053 108.633 72.5088 108.765 72.5053 108.918C72.5053 109.078 72.4911 109.263 72.4733 109.424C72.4377 109.755 72.3701 110.075 72.2918 110.353C72.2527 110.488 72.2135 110.612 72.1744 110.723L72.1602 110.758V110.765L72.1495 110.78C72.1317 110.815 72.1103 110.854 72.1032 110.894L72.0819 111.015C72.0819 111.015 72.0783 111.061 72.0748 111.097L72.0605 111.271C72.0463 111.392 72.0463 111.538 72.0392 111.677C72.0321 111.815 72.025 111.954 72.0285 112.107C72.0143 113.289 72.0997 114.617 72.2171 115.962C71.6122 115.076 70.9469 116.46 70.3207 116.4C70.0076 116.368 69.6944 115.959 69.4276 114.709C69.2995 114.086 69.1785 113.246 69.1358 112.164C69.1216 111.89 69.1287 111.613 69.1287 111.31C69.1358 111.164 69.143 111.015 69.1501 110.862C69.1536 110.719 69.1714 110.591 69.1856 110.452C69.1999 110.313 69.2106 110.168 69.271 110.032C69.2995 109.965 69.328 109.893 69.3529 109.826L69.3742 109.772L69.4098 109.669C69.4347 109.598 69.4561 109.52 69.4738 109.438C69.513 109.274 69.5379 109.096 69.545 108.911C69.5521 108.733 69.5415 108.594 69.5308 108.463C69.5094 108.199 69.4774 108 69.4703 107.843C69.4596 107.637 69.4561 107.377 69.4525 107.092C69.4454 106.765 69.4312 106.412 69.3778 106.06C69.1643 106.103 68.7338 106.188 68.5203 106.231C68.5488 106.533 68.5488 106.836 68.5381 107.124C68.5274 107.398 68.5203 107.665 68.5096 107.918C68.5096 108.139 68.5274 108.37 68.5274 108.609C68.531 108.847 68.4918 109.107 68.4029 109.32C68.3175 109.534 68.1965 109.715 68.1218 109.922C68.0613 110.128 68.0257 110.342 67.9795 110.552C67.8194 111.395 67.734 112.214 67.6593 112.99C67.5276 114.538 67.4102 115.919 67.3106 117.119C67.1967 118.308 67.0615 119.297 66.8907 120.059C66.7199 120.828 66.5136 121.34 66.293 121.65C65.8482 122.291 65.3572 121.91 64.8306 120.578C64.5638 119.888 64.2756 118.906 63.9838 117.571C63.7027 116.222 63.3896 114.578 63.258 112.31C63.2331 111.897 63.2295 111.445 63.2295 110.997C63.2402 110.733 63.2473 110.47 63.258 110.207C63.2829 109.872 63.3185 109.523 63.3647 109.182C63.4038 108.836 63.4928 108.498 63.5995 108.167L63.6849 107.918L63.7312 107.793C63.7312 107.79 63.7454 107.758 63.7312 107.793L63.7205 107.826V107.833L63.717 107.836C63.1548 107.658 68.5915 109.392 66.293 108.658H66.3001L66.3641 108.683L66.4958 108.722L66.6844 108.772L66.8018 108.797L66.8694 108.811H66.9014L67.1006 108.829C66.9654 108.819 66.8516 108.819 66.6879 108.815H66.1862C65.834 108.829 65.3608 108.851 64.7808 108.9L64.2685 108.943L63.717 108.993L63.5497 109.007C63.5426 108.982 63.5319 108.918 63.5177 108.808L63.4857 108.58L63.4572 108.313C63.4003 107.637 63.3825 107.188 63.3683 107.281C63.354 107.245 63.3362 107.217 63.3149 107.188L63.2651 107.135C63.2082 107.046 63.1156 106.904 63.0303 106.783C62.8488 106.53 62.6282 106.267 62.4574 106.099C62.4147 106.06 62.3756 106.021 62.3471 106L62.0945 105.775C61.8846 105.59 61.6746 105.405 61.4647 105.22C61.0271 104.839 60.5894 104.458 60.1483 104.074C59.2481 103.291 58.3052 102.469 57.3445 101.579C56.3945 100.693 55.4623 99.7993 54.5017 98.7991C53.5481 97.8025 52.591 96.7347 51.6695 95.5139C51.2069 94.9052 50.7551 94.261 50.321 93.5598C49.9296 92.9227 49.5702 92.2998 49.2109 91.6449C48.5064 90.3351 47.8624 88.9541 47.3216 87.5019C47.0476 86.7758 46.8056 86.0319 46.5886 85.2738C46.4783 84.8965 46.3822 84.5121 46.2862 84.1241L46.151 83.5439L46.0905 83.2521L46.062 83.1062L46.0549 83.0706V83.0741C46.0549 83.0528 46.0478 83.0279 46.0371 83.0065L46.0193 82.9638L45.9268 82.768C45.8556 82.6043 45.7738 82.4228 45.692 82.2057C45.6101 81.9957 45.5354 81.7572 45.4678 81.5187C45.4465 81.444 45.45 81.444 45.4394 81.4155L45.4216 81.3407L45.3895 81.1948C45.2116 80.4118 45.0337 79.6287 44.8558 78.8457L44.7242 78.2584C44.6851 78.1053 44.6175 77.7494 44.5748 77.4896C44.4822 76.9379 44.4324 76.4289 44.3933 75.952C44.3221 74.9981 44.315 74.1723 44.3008 73.4533C44.2937 73.0903 44.2866 72.7664 44.2723 72.471L44.2474 72.0296L44.0909 69.8371L44.0624 69.4135C44.0553 69.2427 44.0482 69.0718 44.0517 68.8939C44.0482 68.1927 44.1371 67.4737 44.2118 67.0074C44.2901 66.5269 44.3293 66.2991 44.3506 66.1069C44.3684 65.9574 44.3791 65.7225 44.4146 65.2171C44.4324 64.9679 44.4609 64.6583 44.5072 64.3202C44.557 63.9713 44.6246 63.619 44.71 63.2737C44.8843 62.5619 45.0337 61.8215 45.1689 61.0527L45.265 60.4725L45.3113 60.1807L45.3824 59.7749C45.4714 59.2232 45.5995 58.6787 45.7276 58.1341C46.2755 55.9665 47.1437 53.9021 48.1826 52.0762C48.8017 50.9941 49.4742 49.9868 50.1787 49.0365C50.5309 48.5631 50.8867 48.104 51.2496 47.6591C51.4311 47.4313 51.6125 47.2177 51.794 47.0006L52.0786 46.666L52.4131 46.2887C54.2206 44.3062 56.2664 42.7971 58.2874 41.5691C58.54 41.4125 58.7962 41.2666 59.0488 41.1206L59.7355 40.7327C60.0771 40.5405 60.4329 40.3198 60.7958 40.092C61.5217 39.6293 62.3009 39.0918 63.1334 38.5152C63.966 37.9422 64.8733 37.3193 65.866 36.7071C66.8338 36.0949 68.0293 35.4649 68.9935 34.9986C73.0568 33.0303 77.4723 31.5888 82.1155 30.9873C82.6955 30.909 83.279 30.852 83.8625 30.8022C84.1543 30.7737 84.4496 30.7631 84.7414 30.7417L85.5384 30.699C86.467 30.6563 87.4383 30.5958 88.4488 30.5317C90.4698 30.4071 92.6437 30.2754 94.9814 30.3644C95.7108 30.3893 96.4722 30.4463 97.2407 30.5281C97.625 30.5673 98.0235 30.6278 98.4113 30.6776L99.009 30.7809C99.2118 30.8164 99.3862 30.8414 99.6708 30.909C101.784 31.3681 103.393 32.2366 104.709 33.0161C106.022 33.8063 107.1 34.5715 107.975 35.0947C109.466 35.9739 110.768 37.0132 111.896 38.0383C113.024 39.0705 114.02 40.1133 114.945 41.1099C115.842 42.0816 116.767 43.0676 117.717 44.1638C118.187 44.7084 118.66 45.2743 119.123 45.8616C119.354 46.1535 119.582 46.4525 119.806 46.7586L120.14 47.2177C120.261 47.3921 120.389 47.5665 120.5 47.7374C121.428 49.1184 122.097 50.414 122.709 51.5387C123.015 52.1011 123.296 52.6136 123.588 53.0941L124.62 54.8168C125.317 55.9949 126.032 57.2265 126.705 58.5541C127.374 59.8817 128.003 61.3054 128.505 62.8502C128.63 63.2346 128.74 63.6368 128.854 64.0283C128.95 64.4376 129.057 64.8363 129.135 65.2563C129.213 65.6763 129.295 66.0891 129.341 66.5234L129.42 67.164L129.466 67.6801C129.701 70.4386 129.797 73.1188 129.893 75.717C129.943 76.9984 129.992 78.2726 130.042 79.5433C130.071 80.1804 130.12 80.9385 130.088 81.8497C130.071 82.3053 130.032 82.8036 129.946 83.3375C129.854 83.8999 129.715 84.4445 129.523 84.9712L129.256 85.6831L128.961 86.4483C128.747 86.9822 128.498 87.5588 128.181 88.1604C128.025 88.4593 127.85 88.7654 127.655 89.0715C127.559 89.2246 127.455 89.3776 127.349 89.5271L127.107 89.8617C126.801 90.2781 126.473 90.7017 126.139 91.1253C125.467 91.9795 124.677 92.9441 123.673 93.9122C122.677 94.8803 121.446 95.8413 120.048 96.5995C119.695 96.7845 119.343 96.9696 118.977 97.1262L118.703 97.2508L118.621 97.29C118.578 97.3078 118.536 97.3363 118.489 97.3612C118.304 97.4715 118.059 97.6601 117.717 97.9805C117.283 98.4005 116.849 98.824 116.418 99.244L115.999 99.632C115.842 99.7673 115.682 99.9061 115.525 100.034C115.212 100.29 114.896 100.529 114.586 100.746C113.348 101.618 112.209 102.234 111.252 102.782C111.021 102.914 110.793 103.045 110.569 103.174C110.462 103.234 110.359 103.298 110.256 103.359L110.035 103.494C109.772 103.668 109.566 103.828 109.409 103.978C109.092 104.28 108.929 104.512 108.744 104.886C108.605 105.206 108.473 105.505 108.352 105.782C108.296 105.918 108.239 106.046 108.185 106.17C108.16 106.231 108.132 106.291 108.107 106.348L108.071 106.43C108.061 106.452 108.057 106.455 108.05 106.466C108.004 106.537 107.965 106.598 107.929 106.651C107.901 106.719 107.879 106.736 107.851 106.857L107.84 106.9L107.826 106.989C107.819 107.053 107.808 107.114 107.801 107.178C107.783 107.299 107.765 107.416 107.748 107.53C107.673 107.982 107.584 108.363 107.474 108.673C107.363 108.982 107.235 109.231 107.089 109.406C106.947 109.577 106.808 109.694 106.691 109.787C106.662 109.808 106.634 109.829 106.609 109.847C106.595 109.808 106.595 109.726 106.584 109.676V109.655L106.581 109.651C107.086 109.833 102.169 108.057 104.25 108.811H104.254L104.268 108.815C104.303 108.822 104.314 108.822 104.314 108.822C104.314 108.822 104.293 108.822 104.261 108.811H104.254H104.25C105.068 109.107 102.421 108.153 106.082 109.473L106.075 109.481L106.022 109.555L106.008 109.573C106.008 109.573 106.008 109.562 106.001 109.559L105.993 109.523C106.09 109.352 106.193 109.21 106.278 109.046C106.367 108.883 106.417 108.694 106.452 108.509C106.531 108.139 106.563 107.758 106.591 107.377L106.623 106.818C106.63 106.701 106.637 106.626 106.645 106.551C106.662 106.402 106.691 106.252 106.734 106.106L106.851 105.722L106.99 105.306C107.086 105.028 107.189 104.747 107.299 104.466C107.36 104.309 107.399 104.22 107.442 104.12C107.488 104.024 107.534 103.928 107.584 103.836C107.684 103.65 107.797 103.48 107.922 103.316C108.175 102.988 108.488 102.693 108.868 102.412C109.064 102.269 109.256 102.148 109.502 102.002L110.313 101.54C111.427 100.913 112.661 100.269 113.907 99.3971C114.522 98.97 115.18 98.4111 115.678 97.9342C116.194 97.4466 116.628 97.0159 117.02 96.6884C117.411 96.361 117.749 96.1368 118.087 95.9979L118.56 95.7879C118.742 95.7096 118.92 95.6278 119.094 95.5352C119.45 95.3644 119.791 95.1651 120.13 94.9657C121.474 94.14 122.659 93.0971 123.641 91.9902C124.136 91.4385 124.588 90.8761 125.015 90.3137C125.225 90.0326 125.431 89.7514 125.63 89.4702L125.926 89.0502C126.022 88.9078 126.111 88.7832 126.242 88.5875C126.712 87.8649 127.061 87.121 127.342 86.427C127.623 85.7258 127.836 85.0887 128.05 84.4765C128.146 84.1882 128.231 83.8963 128.295 83.6009C128.327 83.455 128.356 83.3019 128.377 83.1524C128.402 83.0065 128.416 82.8677 128.434 82.7218C128.494 82.1594 128.498 81.6433 128.487 81.1628C128.477 80.6823 128.445 80.2409 128.416 79.828L128.338 78.625L128.067 72.6204C128.018 71.606 127.964 70.5881 127.893 69.563L127.776 68.0218L127.705 67.2352L127.594 66.349C127.228 63.9963 126.409 61.8464 125.474 59.8853C124.534 57.917 123.456 56.1266 122.439 54.4004C122.172 53.9519 121.958 53.5853 121.731 53.1724L121.044 51.8911C120.574 51.0048 120.073 50.058 119.461 49.0828C118.82 48.0684 118.176 47.2213 117.5 46.3635C116.824 45.5164 116.127 44.7084 115.436 43.936L113.376 41.6652C112.672 40.8999 111.928 40.124 111.117 39.3588C110.313 38.5935 109.427 37.8425 108.441 37.1413C108.189 36.9705 107.943 36.7925 107.676 36.6323L107.004 36.2123C106.63 35.9774 106.239 35.7176 105.823 35.44C106.228 35.7176 106.605 35.9739 106.972 36.2088L107.616 36.6181C107.876 36.7783 108.118 36.9527 108.363 37.1235C109.327 37.814 110.192 38.5579 110.985 39.3125C111.779 40.0706 112.512 40.8394 113.206 41.5976C113.882 42.3486 114.558 43.0996 115.234 43.8506C115.913 44.6159 116.6 45.4096 117.269 46.246C117.603 46.6625 117.934 47.0931 118.254 47.5274L118.731 48.1894C118.898 48.4279 119.066 48.6735 119.219 48.9155C119.838 49.8836 120.347 50.834 120.823 51.7273L121.517 53.0265L121.855 53.6387L122.211 54.2509C123.229 55.97 124.31 57.7604 125.271 59.7144C126.224 61.6649 127.078 63.8005 127.473 66.1603C127.673 67.4096 127.726 68.3742 127.811 69.4242C127.89 70.46 127.954 71.4921 128.011 72.5208C128.117 74.5496 128.224 76.5855 128.331 78.6214L128.398 79.8352C128.423 80.248 128.448 80.6965 128.459 81.177C128.466 81.6575 128.459 82.1736 128.395 82.7324C128.363 83.0029 128.317 83.309 128.249 83.6009C128.185 83.8928 128.099 84.1775 128.003 84.4587C127.779 85.078 127.562 85.7187 127.27 86.4199C126.982 87.1139 126.626 87.8543 126.146 88.5732C126.014 88.769 125.933 88.8793 125.829 89.0288L125.527 89.4488C125.328 89.73 125.114 90.0076 124.901 90.2888C124.467 90.8512 124.008 91.41 123.506 91.9546C122.513 93.0473 121.318 94.0688 119.973 94.8661C119.635 95.0619 119.293 95.2505 118.941 95.4178C118.767 95.5068 118.589 95.5815 118.411 95.6598L117.97 95.8485C117.61 95.9944 117.251 96.2329 116.842 96.5674C116.433 96.9056 115.988 97.3362 115.465 97.8167C114.956 98.2901 114.309 98.824 113.697 99.2333C112.462 100.077 111.234 100.696 110.117 101.308L109.302 101.764C109.06 101.903 108.854 102.031 108.648 102.177C108.246 102.465 107.908 102.778 107.63 103.127C107.491 103.302 107.367 103.487 107.257 103.686C107.2 103.782 107.15 103.889 107.096 103.992L107.025 104.152L106.94 104.355C106.826 104.636 106.719 104.918 106.616 105.199L106.47 105.619L106.342 106.014C106.296 106.156 106.264 106.302 106.243 106.452C106.232 106.526 106.221 106.594 106.214 106.679L106.203 106.825L106.189 107.06C106.171 107.373 106.146 107.687 106.104 107.996C106.054 108.302 106.022 108.619 105.872 108.893C105.808 108.53 105.602 108.167 105.403 108.025C105.189 107.875 104.979 107.943 104.67 108.299C104.624 108.423 104.545 108.527 104.464 108.626C104.424 108.676 104.382 108.73 104.35 108.783L104.325 108.826C104.325 108.826 104.318 108.829 104.314 108.833C104.168 108.779 104.275 108.819 104.239 108.808H104.246L104.275 108.815C104.275 108.815 104.307 108.815 104.314 108.826V108.854C104.311 108.872 104.311 108.893 104.311 108.915C104.311 108.957 104.311 109.004 104.314 109.05C104.314 109.096 104.321 109.15 104.328 109.199L104.357 109.399C104.396 109.659 104.435 109.918 104.439 110.182C104.446 110.445 104.382 110.705 104.314 110.958C104.278 111.082 104.236 111.207 104.197 111.335C104.154 111.463 104.111 111.591 104.093 111.673C104.051 111.858 104.033 112.033 104.044 112.232C104.047 112.324 104.061 112.442 104.072 112.556L104.118 112.947C104.147 113.207 104.172 113.471 104.165 113.734C104.165 113.848 104.154 113.962 104.136 114.076C104.058 114.346 103.912 114.581 103.795 114.805C103.731 114.933 103.706 114.976 103.67 115.079C103.638 115.168 103.613 115.272 103.585 115.368C103.489 115.77 103.417 116.161 103.35 116.517C103.218 117.229 103.097 117.806 102.966 118.258C102.706 119.165 102.414 119.568 102.083 119.593C101.756 119.617 101.4 119.265 101.044 118.639C100.692 118.002 100.329 117.137 100.055 115.951C100.037 115.852 100.02 115.738 100.005 115.624C99.9875 115.514 99.9733 115.393 99.9626 115.257L99.9448 115.054L99.9377 114.809V114.684C99.9377 114.642 99.9412 114.57 99.9448 114.513C99.9555 114.389 99.9626 114.286 99.9804 114.143L100.02 113.915C100.03 113.862 100.055 113.762 100.044 113.777L100.034 113.72C100.027 113.684 100.02 113.645 100.012 113.606C99.9982 113.531 99.9697 113.453 99.927 113.378C99.8879 113.328 99.8416 113.271 99.7954 113.211C99.774 113.182 99.7491 113.157 99.7242 113.125L99.6886 113.086C99.6886 113.086 99.6673 113.075 99.6459 112.99L99.6602 112.937Z" fill="#FFFFFF"/>
<path d="M80.233 147.85C80.7881 147.69 81.3325 147.554 81.859 147.43C83.3427 147.07 84.8229 146.707 86.3066 146.348C87.0538 146.17 87.801 145.995 88.5517 145.818L88.7936 145.764L88.8968 145.746L89.1032 145.707C89.242 145.682 89.3843 145.654 89.5302 145.636C90.1137 145.568 90.7328 145.529 91.3554 145.39C91.665 145.319 91.9852 145.234 92.2556 145.045C92.3837 144.953 92.4976 144.81 92.5011 144.65C92.5118 144.493 92.4477 144.34 92.3446 144.227C92.0955 143.96 91.7326 143.849 91.3874 143.735C91.2095 143.678 91.0316 143.625 90.8502 143.568C90.6687 143.5 90.4873 143.433 90.3058 143.365C89.9358 143.233 89.5479 143.112 89.1388 142.999L88.8186 142.913L88.7332 142.892L88.5695 142.856L88.2315 142.785C87.7796 142.692 87.3242 142.607 86.8652 142.529C86.5379 142.472 86.2319 142.422 85.8796 142.372C85.5238 142.319 85.168 142.262 84.8087 142.208C84.1291 142.102 83.5989 142.045 83.0012 142.07C82.3251 142.094 81.5886 142.155 80.7952 142.18C80.3967 142.194 79.984 142.198 79.5534 142.18C79.3364 142.169 79.1194 142.155 78.8952 142.134L78.3259 142.066C76.9739 141.909 75.5969 141.913 74.163 141.991L73.6756 142.023L73.1419 142.08C72.9248 142.102 72.6758 142.13 72.3022 142.109C72.2203 142.109 72.0923 142.091 71.9926 142.077C71.8894 142.062 71.7365 142.023 71.6119 141.988C71.4732 141.945 71.2988 141.87 71.1494 141.792C70.975 141.685 70.8078 141.578 70.6548 141.422C70.5018 141.269 70.3595 141.091 70.2705 140.92C70.2207 140.831 70.1745 140.742 70.1353 140.649C70.0998 140.564 70.0784 140.493 70.0535 140.411C70.0322 140.333 70.0108 140.251 69.993 140.172C69.9788 140.098 69.9752 140.044 69.9646 139.977L69.9468 139.788V139.692C69.9432 139.628 69.9468 139.564 69.9468 139.503C69.9503 139.446 69.961 139.361 69.9646 139.332L69.9859 139.222L70.0108 139.112L70.0322 139.033C70.0606 138.923 70.0891 138.848 70.114 138.767C70.1674 138.617 70.2172 138.492 70.2705 138.379C70.3239 138.261 70.3702 138.158 70.4307 138.044C70.4947 137.916 70.5587 137.802 70.6263 137.681C70.7616 137.442 70.9145 137.215 71.0889 137.008C71.3344 136.727 71.6119 136.471 71.9072 136.247C72.2026 136.019 72.5334 135.819 72.8145 135.674C73.4052 135.364 73.9922 135.157 74.5829 135.004C74.8782 134.926 75.1735 134.866 75.4688 134.819C75.604 134.798 75.7962 134.769 75.9563 134.759C76.1199 134.745 76.2765 134.737 76.4224 134.73C77.0094 134.716 77.472 134.737 77.8029 134.716C77.4613 134.73 76.9917 134.698 76.3904 134.709C76.2409 134.709 76.0808 134.72 75.9136 134.734C75.7463 134.748 75.5649 134.769 75.4261 134.791C75.1273 134.837 74.8284 134.894 74.5331 134.969C73.9389 135.118 73.3482 135.321 72.754 135.624C72.4694 135.77 72.1349 135.969 71.8361 136.193C71.5372 136.417 71.2597 136.67 71.0106 136.948C70.7153 137.289 70.4805 137.699 70.2777 138.094C70.1887 138.272 70.0998 138.457 70.0108 138.695C69.9646 138.827 69.9183 138.945 69.8649 139.19L69.8471 139.286C69.8436 139.315 69.8365 139.347 69.8293 139.407C69.8187 139.51 69.8116 139.642 69.8151 139.72C69.8187 139.827 69.8293 139.938 69.84 140.044C69.8471 140.14 69.8756 140.283 69.9147 140.418C69.9539 140.553 69.9895 140.678 70.0749 140.845C70.1567 141.002 70.2314 141.144 70.3559 141.294C70.4734 141.436 70.6086 141.586 70.7473 141.685C71.3379 142.137 71.8681 142.201 72.1812 142.237C72.8359 142.283 73.1775 142.212 73.4692 142.191C73.6222 142.176 73.7112 142.169 73.8215 142.162L74.2591 142.144L75.1237 142.119C75.6965 142.109 76.2587 142.112 76.8138 142.137C77.3688 142.162 77.9203 142.208 78.4682 142.28L78.977 142.337C79.1621 142.354 79.3471 142.365 79.5285 142.376C79.8879 142.39 80.2366 142.39 80.5746 142.383C81.2506 142.369 81.8804 142.319 82.4675 142.283C83.0972 142.244 83.4993 142.23 83.9974 142.272C84.4849 142.312 85.0613 142.408 85.7088 142.49L86.5877 142.603C86.8688 142.643 87.1498 142.685 87.4309 142.735C87.712 142.781 87.9895 142.835 88.2706 142.888L88.6905 142.974L88.9075 143.023C89.1566 143.084 89.395 143.148 89.6298 143.219C90.0994 143.351 90.5264 143.543 90.9463 143.682C91.3554 143.824 91.7753 143.928 92.0386 144.241C92.1168 144.344 92.1595 144.483 92.1346 144.622C92.1133 144.764 91.9994 144.892 91.8678 144.974C91.5938 145.138 91.2771 145.205 90.9783 145.259C90.377 145.358 89.8077 145.362 89.3167 145.387C89.1957 145.394 89.0783 145.408 88.9644 145.419L88.8008 145.433L88.7225 145.44H88.7047L88.6335 145.458L88.4912 145.486C87.7334 145.65 86.979 145.814 86.2283 145.974C84.7375 146.309 83.2538 146.643 81.7808 146.978C82.5956 146.558 83.4424 146.156 84.4173 145.761C85.385 145.373 86.4596 145.002 87.648 144.696L88.4165 144.518L88.4663 144.508C88.4663 144.508 88.4663 144.508 88.4699 144.508V144.515L88.477 144.522C88.477 144.522 88.5019 144.54 88.5197 144.547C88.5588 144.561 88.6122 144.575 88.6833 144.582C88.7509 144.59 88.8363 144.593 88.9253 144.579C89.0178 144.572 89.1032 144.497 89.0854 144.447C89.0676 144.369 88.9822 144.348 88.8826 144.291C89.0925 144.191 89.4981 143.999 89.7045 143.899C89.427 143.839 89.1779 143.792 88.9431 143.753L88.5624 143.693C88.1034 143.607 87.6408 143.532 87.1819 143.468C86.7122 143.401 86.2852 143.351 85.7871 143.294C85.2925 143.233 84.798 143.173 84.3034 143.112C83.8871 143.066 83.5598 143.052 83.2075 143.063L82.898 143.077L82.5457 143.098L81.795 143.144C81.2755 143.177 80.7134 143.205 80.1121 143.201C79.8096 143.201 79.4965 143.187 79.1727 143.166C79.0091 143.152 78.8454 143.137 78.6782 143.116L78.301 143.07C77.4329 142.959 76.5647 142.906 75.6538 142.899C75.1984 142.899 74.7359 142.902 74.2662 142.917L73.9104 142.927H73.7894L73.6649 142.942C73.4657 142.956 73.1881 142.995 72.7363 143.009H72.5584L72.3449 143.006C72.2168 143.006 72.0104 142.981 71.829 142.949C71.4162 142.867 70.8327 142.724 70.1994 142.194C69.5625 141.653 69.2458 140.891 69.1533 140.365C69.1249 140.222 69.1177 140.133 69.1071 140.016L69.0964 139.849V139.763L69.0893 139.72V139.639C69.0893 139.518 69.1 139.4 69.1142 139.279C69.1284 139.172 69.1355 139.133 69.1498 139.058C69.1782 138.909 69.2031 138.831 69.228 138.745C69.4309 138.126 69.5518 137.93 69.7582 137.531C69.9646 137.158 70.1923 136.791 70.4734 136.471C70.7865 136.122 71.1387 135.805 71.523 135.535C71.7115 135.399 71.9144 135.268 72.11 135.157C72.2951 135.051 72.473 134.962 72.6544 134.873C73.3803 134.535 74.0919 134.317 74.8035 134.175C75.1628 134.104 75.4973 134.047 75.942 134.015C76.3477 133.986 76.6963 133.99 76.9881 133.997C77.5752 134.015 77.9239 134.004 78.0555 133.976C78.3152 133.933 78.8596 133.702 79.621 133.417C79.8132 133.346 80.0267 133.275 80.2615 133.207L80.5426 133.132L80.7845 133.068L81.7594 132.815C83.0581 132.474 84.3603 132.128 85.6661 131.769L86.1571 131.634L86.3777 131.573L86.4489 131.552L86.7229 131.463L87.2566 131.281C87.591 131.167 87.8757 131.061 88.0607 130.954C87.7547 130.943 87.5804 130.861 87.3811 130.811C87.2103 130.765 87.0538 130.737 86.9399 130.762C87.0538 130.737 87.2139 130.765 87.3811 130.811C86.7442 130.986 86.1144 131.157 85.4882 131.328C84.186 131.673 82.8909 132.015 81.6029 132.356L80.6351 132.609L80.3931 132.673L80.0943 132.755C79.8523 132.826 79.6282 132.904 79.4325 132.976L78.4718 133.349C78.2227 133.445 78.0342 133.502 77.9523 133.52C77.8954 133.538 77.5823 133.559 76.9881 133.545C76.6963 133.545 76.3334 133.541 75.9029 133.574C75.4297 133.613 75.0846 133.677 74.711 133.751C73.9673 133.908 73.2273 134.139 72.4694 134.502C72.2773 134.595 72.0923 134.691 71.8966 134.809C71.6902 134.926 71.4732 135.068 71.2739 135.214C70.8683 135.506 70.4983 135.844 70.1674 136.218C69.8792 136.553 69.6443 136.93 69.4308 137.318C69.2102 137.738 69.0964 137.944 68.8936 138.535C68.8687 138.617 68.8402 138.717 68.8153 138.809L68.7691 139.016L68.7513 139.122L68.7442 139.176L68.7335 139.268C68.7192 139.4 68.7121 139.532 68.7086 139.66C68.7086 139.742 68.7086 139.749 68.7086 139.785V139.873C68.7192 139.994 68.7335 140.112 68.7477 140.233C68.7584 140.336 68.7904 140.503 68.8331 140.66C68.8758 140.82 68.9185 140.963 68.9861 141.13C69.1498 141.504 69.3419 141.845 69.6586 142.183C69.8116 142.351 69.9717 142.497 70.1353 142.614C70.2954 142.732 70.4911 142.86 70.6406 142.934C70.79 143.009 70.9466 143.077 71.1067 143.137C71.2632 143.194 71.3664 143.219 71.4981 143.251L71.6902 143.294L71.8432 143.319C71.9428 143.333 72.0424 143.344 72.1385 143.354C72.2951 143.365 72.4658 143.372 72.5904 143.372C73.1027 143.365 73.3981 143.319 73.6186 143.301C73.7289 143.29 73.8037 143.283 73.8535 143.283L74.1773 143.269C74.6362 143.248 75.081 143.237 75.5222 143.233C76.401 143.226 77.2372 143.265 78.0697 143.362C78.3722 143.401 79.1905 143.508 79.7776 143.511C80.3931 143.525 80.966 143.508 81.489 143.479L82.9478 143.397L83.2396 143.387C83.3214 143.387 83.3997 143.387 83.4815 143.387C83.6416 143.387 83.8017 143.401 83.9796 143.415C84.3283 143.447 84.766 143.515 85.2854 143.586L86.0504 143.685L86.7086 143.778C87.1498 143.846 87.5875 143.924 88.0287 144.009L88.3596 144.077L88.5126 144.109L88.541 144.116C88.5837 144.13 88.6051 144.138 88.6264 144.148C88.7154 144.184 88.7901 144.223 88.847 144.262C88.7794 144.23 88.7047 144.198 88.6193 144.17C88.5517 144.152 88.6549 144.166 88.0607 144.049C87.6231 143.967 87.1854 143.892 86.7478 143.828C86.2995 143.764 85.9188 143.721 85.3352 143.65C84.8086 143.582 84.3675 143.518 84.0152 143.486C83.8373 143.472 83.6772 143.461 83.5171 143.458H83.2787L83.0012 143.472L81.5531 143.568C81.0265 143.6 80.4572 143.625 79.8381 143.618C79.525 143.611 79.2048 143.6 78.8703 143.568L78.0947 143.483C77.2621 143.394 76.4295 143.362 75.5507 143.376C75.113 143.383 74.6647 143.397 74.2057 143.422L73.8713 143.44L73.6542 143.461C73.4407 143.483 73.1454 143.529 72.6224 143.54H72.4054L72.1634 143.529C72.0745 143.522 71.9606 143.508 71.861 143.497C71.7614 143.483 71.6617 143.468 71.5159 143.436C71.0747 143.354 70.2278 143.045 69.591 142.369C69.4308 142.201 69.2743 142.009 69.1604 141.831C69.0466 141.653 68.9434 141.461 68.858 141.265C68.8118 141.162 68.7833 141.084 68.7584 141.005C68.7299 140.923 68.705 140.842 68.6837 140.76C68.6623 140.678 68.641 140.596 68.6232 140.511L68.5983 140.39L68.584 140.297C68.5662 140.172 68.552 140.048 68.5449 139.92L68.5342 139.731C68.5342 139.61 68.5378 139.457 68.552 139.325C68.5591 139.265 68.5698 139.169 68.5734 139.137L68.5912 139.023L68.6374 138.799C68.6659 138.688 68.6908 138.599 68.7192 138.5C68.8224 138.183 68.9043 137.991 68.9897 137.798C69.0786 137.606 69.1462 137.467 69.2672 137.24C69.4842 136.837 69.7262 136.446 70.025 136.101C70.3631 135.716 70.7438 135.364 71.16 135.061C71.3664 134.912 71.587 134.762 71.8005 134.641C71.9997 134.524 72.1919 134.424 72.384 134.328C73.1597 133.954 73.914 133.716 74.6683 133.552C75.049 133.474 75.4012 133.406 75.8887 133.367C76.3299 133.331 76.6963 133.331 76.9881 133.335C77.5859 133.346 77.8776 133.321 77.899 133.307C77.9879 133.289 78.269 133.193 78.6568 133.033C78.8525 132.954 79.0802 132.862 79.3471 132.762C79.4823 132.712 79.6246 132.662 79.7776 132.609L80.0195 132.534L80.2401 132.47L86.2283 130.879L86.3528 130.84C86.7122 130.737 87.036 130.666 87.3171 130.569C87.3847 130.548 87.4701 130.584 87.5163 130.509C87.5732 130.441 87.4985 130.342 87.4131 130.313C87.3277 130.274 87.2317 130.281 87.1463 130.278C87.0573 130.278 86.9755 130.249 86.8937 130.238C86.7264 130.224 86.5734 130.181 86.4204 130.189L86.1927 130.203C85.8013 130.224 85.4064 130.242 85.0115 130.263C83.9796 130.313 81.9089 130.42 80.8735 130.47C80.0871 130.416 79.1194 130.527 77.931 130.644C77.3403 130.701 76.6963 130.747 76.0345 130.755C75.4902 130.755 74.9458 130.755 74.405 130.755C72.2773 130.765 70.1496 130.833 68.0254 130.933C69.0501 130.142 64.7307 128.872 73.2451 128.754C73.2379 128.608 73.2237 128.309 73.2166 128.163C64.6773 127.836 61.3861 125.921 69.8649 124.917C71.0569 124.786 72.3022 124.668 73.5866 124.565C74.2306 124.515 74.8817 124.469 75.5471 124.419C76.031 124.383 76.5327 124.309 77.1411 124.198C77.746 124.088 78.4576 123.942 79.2759 123.825C79.6815 123.764 80.1192 123.718 80.571 123.686C80.9482 123.664 81.3253 123.647 81.7025 123.625C83.2075 123.558 84.7375 123.486 86.2888 123.419C87.7049 123.344 89.1494 123.241 90.53 123.234C91.9069 123.237 93.0562 123.462 94.1165 123.654C94.6466 123.753 95.2123 123.85 95.8208 123.946C96.4149 124.045 96.9771 124.184 97.5606 124.316C98.1157 124.458 98.9874 124.455 99.6919 124.547C100.407 124.633 100.951 124.793 101.393 124.96C102.243 125.277 102.937 125.736 103.428 126.152C103.937 126.597 104.111 126.772 104.339 127.007C104.541 127.224 104.876 127.654 105.129 128.341C105.246 128.679 105.353 129.107 105.367 129.559C105.392 130.014 105.335 130.402 105.267 130.698C105.221 130.9 105.171 131.05 105.146 131.118C105.118 131.192 105.111 131.196 105.1 131.217C105.082 131.242 105.043 131.377 104.951 131.595C104.862 131.808 104.702 132.089 104.531 132.363C104.346 132.637 104.107 132.922 103.816 133.218C103.495 133.517 103.115 133.826 102.535 134.122C102.382 134.193 102.183 134.26 102.008 134.328C101.916 134.36 101.834 134.399 101.731 134.428L101.329 134.499C101.051 134.542 100.813 134.599 100.503 134.631L99.5638 134.723C99.4891 134.73 99.4037 134.737 99.3325 134.748L98.8522 134.887L98.2046 135.068L97.5428 135.25L96.849 135.424C95.9133 135.656 94.9348 135.876 93.9457 136.093C92.9601 136.311 91.9567 136.524 90.9889 136.752C90.0212 136.976 89.0676 137.247 88.1034 137.492L85.1645 138.254L82.3323 138.962L81.9765 139.048C81.9409 139.055 81.8982 139.066 81.8341 139.087C81.7096 139.122 81.5353 139.187 81.3147 139.268C80.8699 139.429 80.2686 139.685 79.3755 139.884C78.7315 140.019 78.1516 140.044 77.7104 140.044C77.2621 140.044 76.9241 140.023 76.6963 140.012L76.4046 140.002C76.3619 140.002 76.3797 139.994 76.3121 140.002L76.152 140.019C75.9385 140.048 75.725 140.087 75.54 140.14C75.3621 140.19 75.1877 140.261 75.1023 140.301C75.0668 140.308 75.0383 140.322 75.0063 140.336C74.9814 140.354 74.9671 140.365 74.9422 140.4L74.9031 140.471L74.8924 140.489L74.7999 140.45C74.654 140.39 74.5046 140.336 74.3552 140.283C74.0563 140.172 73.7716 140.066 73.4692 139.98C73.3269 139.934 73.1988 139.891 73.06 139.856L72.6687 139.756C72.5512 139.728 72.4338 139.706 72.3129 139.696C72.2203 139.674 72.1278 139.663 72.0353 139.671C72.4658 139.663 71.0213 139.688 72.9924 139.656H72.8679C72.8181 139.656 72.7718 139.66 72.722 139.667C72.3449 139.696 72.1919 139.852 72.2524 139.799C72.3022 139.745 72.4409 139.486 72.505 138.859C72.505 138.749 72.537 138.507 72.5406 138.311C72.5406 138.208 72.5406 138.108 72.5406 138.005V137.578C72.5406 137.421 72.5406 137.265 72.5299 137.108C72.5299 137.069 72.5263 137.097 72.5228 137.09H72.5584C72.6153 137.09 72.7291 137.079 72.8964 137.065C73.0422 137.051 73.2771 137.03 73.5119 137.019L73.9887 137.001L74.9636 136.98C75.6218 136.973 76.2978 136.98 76.981 137.012C77.6677 137.044 78.3579 137.104 79.0482 137.193L79.4147 137.24C79.5107 137.25 79.6104 137.257 79.7171 137.265C79.9306 137.275 80.1654 137.279 80.4145 137.275C80.9162 137.268 81.4855 137.232 82.1188 137.193C82.6916 137.154 83.6203 137.115 84.3852 137.193C85.168 137.261 85.7978 137.371 86.3315 137.439L87.2779 137.563C87.6053 137.61 87.9326 137.663 88.2599 137.72C88.5873 137.777 88.9111 137.838 89.2313 137.902L89.7223 138.005L90.5086 138.179C91.576 138.428 92.6221 138.717 93.6112 139.041C94.1165 139.197 94.579 139.379 95.0985 139.518C95.6037 139.667 96.1232 139.817 96.6 139.991C97.0874 140.158 97.5286 140.361 97.9271 140.56C98.3292 140.767 98.6174 140.966 98.9056 141.158C99.4357 141.546 99.8235 141.909 100.151 142.29C100.311 142.482 100.471 142.678 100.596 142.899C100.717 143.112 100.845 143.362 100.973 143.639C101.119 144.049 101.215 144.582 101.161 145.12C101.101 145.668 100.898 146.12 100.66 146.458C100.368 146.892 100.009 147.259 99.5674 147.619C99.1226 147.974 98.5889 148.323 97.8844 148.654C97.1835 148.985 96.2833 149.291 95.2159 149.53C94.6822 149.651 94.1129 149.758 93.5258 149.854C92.9387 149.953 92.3232 150.042 91.7504 150.153C91.174 150.256 90.6296 150.398 90.0923 150.537C89.7721 150.623 89.459 150.704 89.153 150.783C88.5695 150.932 88.0144 151.078 87.5092 151.206C86.4916 151.459 85.6519 151.641 85.1146 151.68C83.5918 151.893 83.4566 151.605 83.5776 151.206C85.0008 150.808 86.4311 150.413 87.8508 150.039L88.9146 149.765L90.0923 149.473C90.6118 149.345 91.1313 149.231 91.6792 149.142L93.3017 148.875C94.362 148.704 95.3297 148.494 96.1552 148.234C96.9735 147.971 97.6638 147.679 98.2687 147.341C98.87 146.992 99.4215 146.633 99.8413 146.013C100.048 145.711 100.194 145.291 100.179 144.857C100.179 144.426 100.033 144.024 99.852 143.714C99.5496 143.262 99.24 142.949 98.8664 142.668C98.4999 142.39 98.105 142.144 97.6603 141.895C97.2084 141.642 96.7031 141.376 96.0449 141.087C95.408 140.799 94.6573 140.571 93.9208 140.354C93.1878 140.133 92.4869 139.888 91.7361 139.685C90.9925 139.478 90.2133 139.286 89.4661 139.126C88.9217 139.009 88.3774 138.905 87.8259 138.809C87.5519 138.763 87.2744 138.72 87.0004 138.678L86.1963 138.567C85.7088 138.5 85.1822 138.407 84.5809 138.339C83.9867 138.268 83.3036 138.243 82.7059 138.275C81.5851 138.322 80.5782 138.4 79.7207 138.343C79.5072 138.329 79.3044 138.307 79.1158 138.279C78.8312 138.24 78.543 138.201 78.2583 138.169C77.6855 138.105 77.1091 138.058 76.5362 138.033C75.9634 138.008 75.3977 137.998 74.8391 138.001L74.0065 138.012L73.5937 138.023L73.3269 138.037L73.0885 138.055C72.8003 138.08 72.5761 138.09 72.5406 138.083V138.115V138.183C72.5406 138.272 72.537 138.361 72.5299 138.45C72.5263 138.539 72.5157 138.631 72.5085 138.717C72.5085 138.777 72.505 138.838 72.4979 138.902C72.4908 139.019 72.4587 139.162 72.4409 139.258C72.4303 139.34 72.4089 139.425 72.3805 139.507C72.3057 139.785 72.1954 139.834 72.2666 139.785C72.3022 139.756 72.6366 139.628 72.9853 139.653C73.2024 139.653 71.128 139.681 72.0211 139.667H72.1172C72.1599 139.667 72.199 139.674 72.2417 139.678C72.3093 139.696 72.4374 139.703 72.537 139.724C72.6473 139.742 72.7327 139.774 72.8572 139.802C72.9818 139.831 73.1027 139.863 73.2201 139.898C73.4407 139.973 73.7432 140.059 73.9673 140.14C73.9673 140.148 73.9709 140.133 73.9745 140.13L74.0634 139.962C74.0954 139.909 74.1168 139.881 74.1452 139.838C74.1168 139.877 74.0919 139.909 74.0598 139.955L73.9638 140.123L73.9531 140.14C73.946 140.14 73.9709 140.144 73.9353 140.133L73.7432 140.069L73.3625 139.952C72.8928 139.799 72.4054 139.696 72.11 139.671H72.0175C72.4516 139.663 71.0035 139.688 72.9818 139.656H72.9213C72.8786 139.653 72.8394 139.656 72.7967 139.656C72.7149 139.66 72.6188 139.681 72.5512 139.696C72.4516 139.696 72.3093 139.767 72.2879 139.774C72.1883 139.827 72.2524 139.841 72.352 139.585L72.3627 139.546L72.384 139.486C72.3982 139.446 72.4089 139.404 72.416 139.364L72.4694 139.066C72.4907 138.941 72.4979 138.831 72.5014 138.695C72.5192 138.517 72.5299 138.343 72.5299 138.169V138.115H72.5406L72.5655 138.119H72.6722L73.0173 138.097C73.1525 138.087 73.3162 138.076 73.5048 138.069L73.9246 138.062L74.743 138.055C75.2945 138.055 75.8531 138.065 76.4153 138.094C76.981 138.122 77.5503 138.161 78.1196 138.226C78.4042 138.258 78.6888 138.293 78.9699 138.336L79.3008 138.382C79.4004 138.393 79.5036 138.407 79.6104 138.414C80.4572 138.485 81.457 138.414 82.5671 138.361C82.8304 138.35 83.172 138.339 83.4851 138.347C83.8053 138.354 84.1219 138.375 84.4244 138.403C85.0364 138.464 85.5772 138.557 86.0718 138.624L86.8687 138.731L87.7013 138.856C88.2564 138.944 88.8079 139.044 89.3558 139.162L89.886 139.276C90.0745 139.315 90.2667 139.357 90.4588 139.407C90.8431 139.496 91.2238 139.596 91.6009 139.696C92.3588 139.898 93.074 140.137 93.814 140.358C94.5612 140.571 95.3262 140.799 95.9844 141.084C96.6604 141.368 97.187 141.639 97.6531 141.895C98.0943 142.148 98.4857 142.393 98.8451 142.675C99.2116 142.959 99.5175 143.269 99.8093 143.714C99.9872 144.024 100.126 144.422 100.126 144.846C100.137 145.273 99.9908 145.689 99.7773 145.988C99.3503 146.597 98.781 146.949 98.1691 147.288C97.5535 147.615 96.8561 147.889 96.0413 148.131C95.223 148.373 94.2801 148.565 93.259 148.718C92.2378 148.875 91.1491 149.024 90.1742 149.256L87.9255 149.79C86.5201 150.135 85.1111 150.498 83.7021 150.868C83.8587 150.509 84.0045 150.138 83.5206 149.975C83.5206 149.975 81.4783 150.548 80.5141 150.939C79.4752 151.142 78.7386 151.302 78.2192 151.363C77.6997 151.42 77.4008 151.37 77.2727 151.181C77.0166 150.829 77.5218 149.911 78.4931 149.064C78.9984 148.661 79.5819 148.249 80.2366 147.843L80.233 147.85Z" fill="#FFFFFF"/>
<path d="M90.0824 96.45C90.0789 95.8271 90.0753 95.1971 90.0824 94.5671C90.0824 93.3605 90.1144 92.1326 90.2176 90.8797C90.3172 89.6375 90.4952 88.3348 90.7798 87.0997C90.8154 86.9538 90.8296 86.8968 90.826 86.516C90.826 86.338 90.8154 86.1138 90.8225 85.8219C90.8296 85.5051 90.8581 85.1919 90.915 84.8823C91.3171 82.7965 91.7511 80.7535 92.3524 78.6464C92.6549 77.5964 92.9929 76.5393 93.4127 75.4715C93.8397 74.4037 94.3307 73.3216 95.085 72.2147C95.8713 71.1078 96.8818 70.072 98.2339 69.3744C99.5646 68.6768 101.226 68.3707 102.845 68.7266C103.656 68.8796 104.421 69.2534 105.119 69.709C105.282 69.8335 105.442 69.9688 105.603 70.104C105.759 70.2429 105.926 70.371 106.054 70.5312C106.318 70.8444 106.613 71.1505 106.805 71.5064C107.684 72.8838 107.944 74.4855 107.908 75.8701C107.869 77.187 107.563 78.6464 106.816 79.974C106.065 81.3052 104.873 82.3551 103.624 83.0243C102.368 83.7077 101.066 84.0672 99.7923 84.3057C98.515 84.5334 97.2554 84.626 96.0137 84.6402C93.5302 84.6687 91.1214 84.4053 88.7873 84.028C86.4568 83.6472 84.2081 83.1311 82.0626 82.5402C84.2081 83.1631 86.3927 83.697 88.6307 84.1028C90.8688 84.505 93.1566 84.7897 95.5226 84.8253C96.7039 84.8431 97.9101 84.7862 99.1376 84.6189C100.365 84.4445 101.625 84.1597 102.881 83.6151C104.13 83.0813 105.4 82.227 106.346 81.0026C106.819 80.3975 107.2 79.7106 107.46 79.0023C107.723 78.294 107.883 77.575 107.969 76.8667C107.997 76.5179 108.033 76.1655 108.029 75.8274C108.029 75.653 108.04 75.4928 108.026 75.3077L107.979 74.7525C107.962 74.5674 107.947 74.3823 107.922 74.1972L107.794 73.6349C107.748 73.4462 107.709 73.2611 107.652 73.0725L107.431 72.5137C107.35 72.3286 107.293 72.14 107.186 71.9656L106.869 71.4352C106.674 71.0757 106.368 70.7696 106.097 70.4493C105.965 70.2856 105.788 70.161 105.631 70.0186C105.467 69.8834 105.307 69.741 105.133 69.62C104.951 69.5061 104.766 69.3957 104.581 69.289L104.3 69.1323C104.204 69.0861 104.105 69.0505 104.005 69.0078C102.425 68.3315 100.632 68.3493 99.1234 68.8832C97.6077 69.4242 96.373 70.4066 95.455 71.5135C94.5228 72.6632 93.9607 73.8057 93.459 74.9269C92.9715 76.0481 92.5837 77.1586 92.2386 78.262C91.5519 80.4758 91.0538 82.6257 90.5877 84.8253C90.5236 85.1528 90.4916 85.4838 90.4809 85.8148C90.4702 86.1173 90.4774 86.3451 90.4738 86.5231C90.4738 86.9004 90.4489 86.9075 90.4133 87.0214C90.3422 87.3382 90.2674 87.6478 90.2034 87.9682C90.1465 88.2885 90.0789 88.6124 90.0291 88.9327C89.9259 89.5734 89.844 90.2105 89.7871 90.8405C89.6661 92.1005 89.6199 93.3356 89.6021 94.5315C89.3886 93.5242 89.2107 92.3853 89.1467 91.0932C89.1324 90.7729 89.1218 90.4419 89.1253 90.1002C89.1253 89.7621 89.136 89.4097 89.1609 89.0502C89.2036 88.3312 89.3068 87.5731 89.4491 86.8292H89.4562C89.4562 86.8292 89.4598 86.8256 89.4633 86.7865C89.4669 86.7189 89.4633 86.6014 89.4633 86.4128C89.4633 86.2206 89.4527 85.9963 89.4633 85.6511C89.474 85.3165 89.5131 84.9819 89.5701 84.658L89.8049 83.4799L90.0468 82.3302C90.2176 81.5614 90.392 80.7962 90.5912 80.0238C90.9826 78.4826 91.438 76.9308 92.0465 75.3433C92.356 74.5496 92.694 73.7488 93.1423 72.9159C93.3487 72.5066 93.6191 72.0759 93.886 71.6559C94.1919 71.2181 94.5051 70.7767 94.8929 70.3781C95.0815 70.1752 95.2629 69.9688 95.4622 69.7766C95.6792 69.5879 95.8962 69.4029 96.1204 69.2178L96.4549 68.9473L96.8285 68.7052C97.0811 68.5486 97.3301 68.3885 97.5934 68.2425C98.6786 67.6908 99.9133 67.3278 101.219 67.2708C101.226 67.4274 101.237 67.7335 101.24 67.8866C103.14 67.7869 105.204 68.513 106.581 69.9261C106.905 70.2856 107.257 70.6451 107.492 71.0544C107.62 71.2537 107.744 71.4566 107.865 71.663C107.979 71.8694 108.058 72.0794 108.15 72.293C108.235 72.503 108.332 72.7166 108.399 72.9301L108.566 73.5672C108.613 73.7808 108.68 73.9979 108.705 74.2043L108.773 74.8272C108.791 75.0337 108.815 75.2508 108.823 75.4465V76.0125C108.826 76.1976 108.808 76.3969 108.798 76.5891C108.787 76.7813 108.773 76.977 108.741 77.1764C108.648 77.963 108.445 78.7852 108.115 79.5825C107.787 80.3797 107.325 81.1486 106.762 81.8141C106.2 82.4797 105.549 83.0457 104.877 83.4906C103.521 84.3768 102.112 84.8716 100.778 85.167C99.4365 85.4695 98.1414 85.587 96.8854 85.6262C94.3663 85.6938 91.9753 85.434 89.6412 85.0495C87.3072 84.6616 85.0265 84.1312 82.7778 83.5155C80.5291 82.8962 78.3089 82.1843 76.0923 81.3657C74.9821 80.9528 73.8792 80.5186 72.7513 80.0096C71.6163 79.4935 70.467 78.9062 69.3213 78.116C68.1863 77.3259 67.0406 76.3115 66.1511 74.9554C66.0444 74.781 65.9376 74.6172 65.8309 74.4286C65.7313 74.2364 65.621 74.0442 65.532 73.8484C65.3506 73.4533 65.1976 73.0511 65.0802 72.6383C64.8418 71.8125 64.7172 70.9476 64.735 70.0506C64.671 70.5596 64.6354 70.6628 64.5785 70.613C64.518 70.5667 64.4646 70.3568 64.4184 70.2429C64.4184 70.1681 64.4219 70.1005 64.4255 70.0328C64.4255 70.1005 64.4219 70.1717 64.4184 70.2429C64.3792 70.1432 64.3401 70.1218 64.3045 70.3603C64.276 70.5988 64.2476 71.1006 64.397 72.0047C64.2476 71.1006 64.2796 70.5988 64.3045 70.3603C64.3401 70.1218 64.3792 70.1432 64.4184 70.2429C64.4006 71.1576 64.5251 72.0367 64.7706 72.8839C64.8951 73.3074 65.0517 73.7238 65.2331 74.1296C65.3328 74.3289 65.436 74.5354 65.5391 74.7276C65.6459 74.9055 65.7491 75.0871 65.8629 75.2615C66.7667 76.6532 67.923 77.6996 69.0651 78.5111C70.2179 79.3262 71.3707 79.9277 72.5022 80.4509C73.6265 80.967 74.7224 81.4048 75.8254 81.8141C78.0243 82.6292 80.2267 83.3197 82.4576 83.9248C84.692 84.5228 86.9478 85.0317 89.2641 85.4055C91.5804 85.7756 93.9464 86.0248 96.4406 85.9856C97.6895 85.9572 98.9668 85.8646 100.301 85.6048C101.628 85.3521 103.027 84.9321 104.425 84.1562C105.122 83.7611 105.812 83.2663 106.442 82.6577C107.072 82.049 107.631 81.323 108.058 80.5364C108.926 78.9489 109.221 77.2191 109.225 75.7028C109.232 74.1083 108.876 72.1933 107.723 70.5276C107.591 70.3176 107.41 70.1254 107.25 69.9296C107.079 69.7374 106.923 69.5381 106.727 69.3637C106.531 69.1893 106.332 69.022 106.129 68.8583C106.026 68.7764 105.926 68.691 105.82 68.6198L105.485 68.4134C105.261 68.2781 105.03 68.1464 104.798 68.0218C104.56 67.9151 104.315 67.819 104.069 67.7264C103.582 67.52 103.066 67.4417 102.557 67.342C103.094 67.4417 103.631 67.5342 104.147 67.7513C104.403 67.8546 104.667 67.94 104.909 68.0717C105.151 68.2034 105.393 68.3422 105.627 68.4881C105.869 68.6234 106.079 68.8049 106.293 68.9757C106.503 69.1537 106.723 69.3246 106.908 69.5203C107.264 69.9225 107.652 70.3247 107.905 70.7803C108.043 71.0045 108.179 71.2288 108.307 71.4601C108.421 71.6915 108.513 71.9228 108.609 72.1578C108.698 72.3927 108.812 72.6311 108.865 72.8625C108.926 73.0974 108.986 73.3288 109.04 73.5637C109.168 74.0406 109.185 74.4855 109.232 74.9411C109.282 75.4181 109.26 75.7918 109.257 76.2118C109.218 77.0447 109.093 77.9167 108.837 78.7994C108.581 79.6786 108.175 80.5684 107.631 81.3657C107.086 82.163 106.414 82.8641 105.695 83.4194C104.976 83.9782 104.218 84.4053 103.471 84.7399C101.97 85.409 100.511 85.7294 99.1127 85.9216C97.7144 86.1067 96.3659 86.1529 95.0494 86.128C92.4201 86.0711 89.9081 85.7365 87.4495 85.2845C84.9909 84.8253 82.5892 84.2309 80.216 83.5297C77.8392 82.8214 75.5123 82.0277 73.1462 81.0133C71.9614 80.5008 70.7267 79.9028 69.4957 79.1091C68.2681 78.3153 67.0086 77.2831 65.9732 75.8665C65.717 75.5106 65.4822 75.1404 65.2616 74.7347C65.0339 74.304 64.8346 73.8662 64.6817 73.4177C64.3721 72.5208 64.1978 71.5847 64.1764 70.6166C64.1515 69.652 64.2903 68.6376 64.6567 67.6268C65.0303 66.5874 65.6601 65.5873 66.4785 64.8114C67.2648 64.0639 68.2255 63.5051 69.2608 63.1776C70.282 62.8573 71.2604 62.7683 72.2069 62.8217C74.0891 62.9498 75.8112 63.5941 77.3198 64.7793C78.6932 65.8756 79.6752 67.2566 80.3583 68.6056C81.045 69.9617 81.4755 71.3035 81.7958 72.5956C82.9486 77.2404 83.7776 81.9957 84.3042 86.8043C84.4536 88.0678 84.6813 90.6056 84.7632 91.8692C84.7418 93.1398 84.7205 94.4034 84.6991 95.6634C84.6849 96.9056 84.6849 98.1442 84.6991 99.3864C84.7311 101.867 84.8201 104.341 84.9482 106.815C84.112 105.619 82.8205 110.648 82.6177 100.732C82.4647 100.739 82.1551 100.757 81.9986 100.764C81.7353 110.705 79.7606 114.528 78.6327 104.661C78.3338 101.885 78.1025 98.8739 77.9033 95.7061C77.7112 92.5917 77.4763 89.3705 77.0849 86.0889C76.6971 82.8107 76.167 79.4828 75.434 76.2011C75.3451 75.7918 75.249 75.3825 75.1529 74.9732L75.0071 74.361C74.9572 74.1616 74.9181 73.9979 74.8683 73.8235C74.6762 73.133 74.4484 72.503 74.1887 71.962C73.9254 71.421 73.6301 70.9832 73.3241 70.6593C73.1782 70.4956 73.0003 70.3532 72.8722 70.2606C72.7691 70.1823 72.6232 70.1183 72.4809 70.0613C72.1713 69.9367 71.8013 69.8869 71.5913 69.9296C71.481 69.9474 71.4063 69.9652 71.4206 69.9795C71.4134 69.9937 71.4063 70.0044 71.3992 70.0115C71.3957 70.0257 71.3992 70.04 71.3992 70.0506C71.3957 70.0756 71.3636 70.1895 71.3636 70.3212C71.3458 70.5952 71.4348 71.0045 71.5842 71.2715C71.6091 71.3249 71.6767 71.4388 71.7408 71.5313C71.8048 71.6274 71.8795 71.7235 71.9614 71.8232C72.125 72.0189 72.3279 72.2218 72.5662 72.4247C73.043 72.834 73.6728 73.2433 74.3951 73.6277C75.1102 74.0121 75.9286 74.3823 76.7861 74.7418C77.64 75.1013 78.5259 75.4394 79.419 75.7669C81.2123 76.4182 83.0411 77.0126 84.8841 77.5501C87.9796 78.4506 91.2317 79.1447 94.4019 79.3582C95.9781 79.4614 97.5401 79.4365 98.9099 79.1945C100.283 78.9667 101.401 78.4755 101.924 77.9345C102.19 77.6569 102.379 77.3721 102.514 76.9557C102.585 76.7528 102.632 76.5108 102.667 76.2509C102.674 76.1121 102.703 75.9876 102.699 75.8345C102.699 75.6886 102.713 75.532 102.692 75.4323C102.699 74.9411 102.56 74.6101 102.439 74.3645C102.304 74.126 102.155 73.9801 101.952 73.8769C101.749 73.7772 101.482 73.7274 101.155 73.7737C101.073 73.8022 100.988 73.7986 100.902 73.8271C100.817 73.8662 100.728 73.8983 100.632 73.9267C100.454 74.0371 100.258 74.1118 100.077 74.2791C99.8777 74.393 99.714 74.6208 99.5183 74.7845C99.4365 74.8913 99.3511 74.9981 99.2621 75.1013L99.0024 75.4821C98.6537 76.0303 98.3228 76.6852 98.0168 77.3686C97.5863 78.3972 97.1842 79.7355 96.8462 81.1877C96.6826 81.9174 96.5225 82.6719 96.3801 83.4336C96.3125 83.818 96.2449 84.1989 96.1773 84.5797C96.1168 84.9534 96.0528 85.3272 95.9923 85.6938C95.9852 85.7507 95.9816 85.8041 95.9852 85.8611C95.9923 86.0177 95.9994 86.1743 96.003 86.3309C96.0279 86.7367 96.0243 87.4948 95.8891 88.0928C95.7006 88.9968 95.6045 89.7905 95.512 90.506C95.4195 91.2143 95.3554 91.8122 95.2629 92.2287C95.1419 93.0509 95.0174 93.4993 94.868 93.6987C94.715 93.898 94.5406 93.8588 94.3556 93.7307C94.32 91.7019 94.4125 89.7443 94.8146 87.8792C94.9356 87.3382 94.9356 86.7189 94.9178 86.3309C94.9107 86.1316 94.9035 85.9607 94.9071 85.8362C94.9071 85.7294 94.9178 85.6226 94.9391 85.5158C95.3946 82.9851 95.9354 80.4402 96.7146 78.0911C97.1095 76.9272 97.5578 75.7776 98.1271 74.845C98.3975 74.3538 98.7142 74.0086 99.0522 73.642C99.223 73.4711 99.4151 73.3394 99.5895 73.1793L99.8777 73.0049C99.9737 72.9444 100.063 72.8767 100.166 72.8447C100.913 72.5101 101.71 72.4354 102.336 72.7166C102.664 72.8233 102.923 73.0476 103.165 73.2825C103.265 73.4249 103.397 73.5352 103.468 73.7096C103.51 73.7915 103.564 73.8591 103.603 73.9445C103.631 74.0371 103.667 74.126 103.699 74.2115L103.752 74.3432C103.767 74.3894 103.774 74.4428 103.784 74.4927L103.848 74.7881C103.88 74.8806 103.877 74.9945 103.884 75.1013L103.909 75.4216C103.923 75.8879 103.88 76.3862 103.795 76.8133C103.606 77.6818 103.226 78.3474 102.624 78.8777C102.027 79.4081 101.176 79.8067 100.205 80.063C99.2337 80.3228 98.152 80.4474 97.0455 80.483C94.8217 80.547 92.4983 80.2836 90.1963 79.8494C92.4414 80.3014 94.7292 80.5897 96.9423 80.5506C98.0417 80.5257 99.1269 80.4153 100.109 80.1662C101.095 79.9206 101.973 79.5326 102.603 78.9987C103.236 78.4684 103.642 77.7957 103.838 76.9201C103.937 76.4859 103.98 76.0054 103.98 75.5071L103.927 74.8486L103.856 74.546C103.831 74.4464 103.824 74.336 103.777 74.2506C103.51 73.5103 103.044 72.9372 102.379 72.6952C101.735 72.4105 100.924 72.4852 100.166 72.8376C100.063 72.8661 99.9702 72.9372 99.8706 72.9942L99.5752 73.165C99.4009 73.3252 99.2017 73.4533 99.0273 73.6277C98.6822 73.9908 98.3584 74.3396 98.0773 74.8343C97.4902 75.7704 97.0277 76.9237 96.6185 78.0876C95.8073 80.4367 95.238 82.9674 94.7506 85.4767C94.7256 85.5906 94.715 85.708 94.7079 85.8255C94.7043 85.9572 94.7079 86.1351 94.7079 86.3345C94.7185 86.7224 94.715 87.3133 94.594 87.8222C94.1777 89.6482 94.0496 91.531 94.0461 93.4744C93.7223 93.1968 93.3878 92.9192 93.0925 93.4068C93.0925 93.4068 93.1032 94.019 93.1352 94.7878C93.1708 95.5566 93.2277 96.482 93.2704 97.0978C93.0569 99.6 92.6371 100.55 92.1745 100.572C91.7084 100.593 91.1996 99.7139 90.7264 98.5144C90.5272 97.8986 90.2995 97.201 90.0717 96.4037L90.0824 96.45Z" fill="#FFFFFF"/>
<path d="M12.4885 92.5775C12.5988 92.5632 12.7091 92.549 12.8159 92.5312C14.7834 92.1325 16.5055 91.1431 18.6226 90.481C20.1454 90.1002 21.6682 89.2032 23.0594 88.5412C19.6402 89.8439 16.2138 91.62 12.6237 92.097C12.7874 91.6164 13.04 91.1822 13.4812 90.9722C14.602 90.6092 15.7014 90.1963 16.7759 89.7656C16.8435 89.908 16.9752 90.182 17.0392 90.3209C19.8145 88.4878 23.1235 88.2743 25.7991 86.1672C25.6568 86.1422 25.6675 85.9963 25.6461 85.8966L25.6675 85.886L25.6461 85.8966C25.6283 85.8077 25.5892 85.7507 25.4006 85.8397C25.5892 85.7507 25.6283 85.8077 25.6461 85.8966C22.7499 87.42 19.9461 88.5982 16.8969 89.7158C19.2274 88.769 21.4547 87.6976 23.6999 86.5943C24.8278 86.0426 25.9592 85.4873 27.0978 84.9285C27.6742 84.6509 28.2577 84.3733 28.8554 84.0992C29.1294 83.9746 29.4069 83.8465 29.6809 83.7219C29.9478 83.5938 30.2182 83.4621 30.485 83.3339C30.6878 83.2343 31.1148 83.0278 31.3639 82.9211C32.5024 82.9246 33.641 82.615 35.0784 82.4833C34.9397 82.8819 35.2457 83.4407 35.235 83.8892C35.235 84.117 35.1638 84.2985 34.9824 84.4445C34.7974 84.5833 34.4949 84.6687 34.0004 84.7292C34.0431 84.8787 34.1284 85.1741 34.1747 85.3236C34.6657 85.3805 35.0891 85.6048 35.3595 85.9038C35.6371 86.1992 35.758 86.58 35.79 86.9324C35.8221 87.1139 35.8292 87.2919 35.8043 87.4627C35.7936 87.5482 35.7687 87.63 35.7509 87.7119C35.7367 87.7938 35.7224 87.8721 35.7082 87.9504C35.6442 88.2529 35.5908 88.5021 35.4627 88.68C35.3062 88.8651 35.0642 89.0182 34.712 89.1961C34.3597 89.3741 33.8936 89.5876 33.3314 89.8404C33.0397 89.9685 32.7408 90.1037 32.3779 90.2497C32.0968 90.3671 31.8122 90.4846 31.5311 90.602C30.9832 90.8441 30.4388 91.111 29.93 91.4314C28.4214 92.2963 26.9056 93.1861 25.1907 93.6559C22.8139 94.2681 20.4976 95.5495 18.0355 96.03C17.1709 96.2684 15.9647 97.3469 15.3598 97.112C14.9756 97.0444 14.8261 96.749 14.7158 96.3966C16.0501 95.82 17.3772 95.2505 18.6937 94.681C20.3518 94.0866 22.0134 93.5064 23.7212 93.0366C21.9956 93.3854 20.3411 93.9941 18.6937 94.681C17.3452 95.1651 16.0003 95.6598 14.6304 96.1083C14.5451 95.7986 14.4525 95.4783 14.2462 95.2363C14.2462 95.2363 13.8441 95.4213 13.6449 95.5139C12.5205 95.1757 12.2821 94.0902 12.3533 93.2075C12.3889 93.0188 12.428 92.8053 12.4778 92.5881L12.4885 92.5775Z" fill="#FFFFFF"/>
<path d="M1.9569 48.6948C2.08854 48.7731 2.22019 48.8514 2.34828 48.9297C3.57224 49.5526 4.86381 50.0046 6.21586 50.3357C7.56791 50.6702 8.97689 50.9194 10.4997 51.2184C12.6239 51.7345 15.207 51.6811 17.4806 51.859C14.7907 51.5067 12.0617 51.3821 9.53194 50.9407C6.99151 50.5207 4.61119 49.7163 2.50128 48.4777C3.07412 48.2713 3.69322 48.1574 4.32299 48.3353C5.79601 48.8977 7.27971 49.2963 8.80966 49.5775C8.78831 49.7341 8.74562 50.0367 8.72427 50.1862C10.9658 50.2609 13.1825 50.5563 15.5308 50.8624C17.872 51.1614 20.2487 51.4711 22.7643 51.4248C22.6006 51.3216 22.7216 51.2077 22.7714 51.1151H22.8069H22.7714C22.8176 51.0333 22.8034 50.9621 22.4938 50.9229C22.8034 50.9621 22.8141 51.0333 22.7714 51.1151C20.3234 50.8589 17.9431 50.6631 15.634 50.4638C13.3177 50.2645 11.1117 50.0402 8.98045 49.6131C10.6385 49.905 12.3677 50.0545 14.1681 50.1755C15.9684 50.2965 17.8328 50.3997 19.7079 50.5634L21.1204 50.6951C21.5901 50.7485 22.0633 50.8019 22.5365 50.8517C23.483 50.9621 24.433 51.0973 25.3438 51.229C27.1762 51.4995 28.941 51.77 30.6524 51.9409C30.9442 51.9694 31.5241 52.0192 31.8052 52.0334C32.9153 52.5673 34.0646 52.7311 35.1426 52.6207C35.043 53.0229 35.3063 53.5746 35.3205 54.0231C35.3241 54.2473 35.2601 54.4466 35.0359 54.5748C34.8117 54.7065 34.431 54.7777 33.8084 54.7136C33.8084 54.8702 33.819 55.1799 33.8226 55.3329C34.4595 55.5144 35.0181 55.7493 35.4735 56.0341C35.9254 56.3046 36.2741 56.6285 36.4555 56.9666C36.6192 57.3048 36.6548 57.6607 36.4306 57.9917C36.21 58.3192 35.7475 58.6466 35.011 58.8459C33.3423 59.2802 31.4067 59.1912 29.5245 58.9492C27.6352 58.7071 25.7708 58.312 24.0274 58.1946C22.7642 58.0665 21.5723 57.9846 20.3519 57.8565C19.1351 57.7426 17.9253 57.586 16.6943 57.3439C15.0042 56.9844 13.1754 56.8243 11.2718 56.5822C9.37183 56.3438 7.39357 55.9949 5.60032 55.3187C4.94564 55.1051 4.00276 54.9877 3.16663 54.799C2.32337 54.6317 1.59398 54.3933 1.33424 54.0765C0.932185 53.7241 1.01758 53.4038 1.19904 53.0728C3.25914 53.7917 5.40819 54.3149 7.543 54.6994C10.151 55.2795 12.7769 55.5821 15.2675 56.0519C12.8374 55.4682 10.2151 55.1977 7.543 54.6994C5.42242 54.2402 3.33741 53.6138 1.35559 52.8094C1.52638 52.5317 1.6936 52.2363 1.66514 51.9089C1.66514 51.9089 1.50859 51.8662 1.32001 51.7985C1.12788 51.7345 0.900162 51.6562 0.747167 51.6028C-0.224175 50.4531 0.473199 49.5455 1.29866 49.008C1.49791 48.9084 1.71851 48.798 1.9569 48.6913V48.6948Z" fill="#FFFFFF"/>
<path d="M33.1004 9.07977C33.1858 9.20435 33.2676 9.32537 33.3495 9.44638C34.9684 11.6176 37.0463 13.3153 38.9961 15.6609C40.2947 17.3623 42.0738 19.0173 43.4792 20.587C41.9208 18.6329 40.1524 16.7216 38.4197 14.853C36.6869 12.9808 35.0324 11.1193 33.6839 9.10825C34.2817 9.16876 34.8972 9.34672 35.3811 9.80231C36.4485 11.0054 37.5408 12.1621 38.6509 13.3189C38.5442 13.4328 38.3307 13.6535 38.224 13.7638C40.0243 15.1626 41.4724 16.896 42.853 18.6223C43.5468 19.4836 44.2299 20.345 44.9593 21.1743C45.3222 21.5872 45.7029 21.9929 46.0979 22.3844C46.2936 22.5802 46.4964 22.7724 46.7063 22.9611C46.9233 23.1533 47.1439 23.3455 47.3681 23.5448C47.3183 23.3561 47.482 23.3561 47.5816 23.3205L47.6065 23.3455L47.5816 23.3205C47.6705 23.2885 47.7097 23.2316 47.5069 22.9931C47.7097 23.2316 47.6705 23.2921 47.5816 23.3205C47.2009 22.9005 46.8237 22.4841 46.4466 22.0712C46.0801 21.6619 45.7172 21.2561 45.3543 20.8504C44.632 20.0282 43.9168 19.2167 43.1981 18.4016C41.7606 16.7607 40.2876 15.1092 38.7755 13.4506C39.9781 14.7035 41.1949 15.967 42.3797 17.2377C43.5681 18.5084 44.7245 19.7755 45.8666 21.0461C46.4359 21.6833 47.0087 22.3239 47.5816 22.9646C48.2114 23.6836 48.7949 24.4168 49.3464 25.15C50.4494 26.6236 51.4171 28.1042 52.3636 29.5173C52.5237 29.7558 52.8439 30.2291 53.004 30.4676C53.0574 30.731 53.1357 30.9908 53.2068 31.2222C53.1428 31.2507 53.2638 31.4891 53.3812 31.7027C53.5057 31.9269 53.648 32.1618 53.8046 32.4217C54.107 32.9378 54.4948 33.5108 54.8186 34.3757C54.5945 34.3223 54.381 34.4469 54.1639 34.5822C53.9505 34.721 53.7299 34.8705 53.5128 34.9203C53.2922 34.9737 53.0894 34.931 52.8581 34.7103C52.6304 34.5003 52.3885 34.1444 52.0611 33.5891C51.9366 33.6817 51.6911 33.8703 51.5666 33.9629C51.7801 34.5608 51.8085 35.1659 51.6057 35.5717C51.4171 35.9952 51.0364 36.2515 50.6877 36.3689C50.5241 36.4508 50.3568 36.4971 50.1896 36.5042C50.1078 36.5113 50.0188 36.4935 49.9406 36.49C49.8658 36.49 49.7911 36.49 49.7164 36.49C49.5776 36.4864 49.4424 36.4828 49.3072 36.4757C49.2432 36.4828 49.1827 36.4579 49.1364 36.4935C49.0973 36.5256 49.0439 36.522 48.9941 36.5078C48.8731 36.4579 48.7095 36.3191 48.5102 36.1305C48.4106 36.0344 48.3003 35.9276 48.1722 35.7923C48.037 35.6464 47.9018 35.5147 47.6456 35.1695C46.1513 33.2154 45.0411 30.8485 43.529 29.1898C43.1767 28.777 42.8209 28.3819 42.4687 28.001L41.9208 27.4173L41.3266 26.7695C40.5438 25.8975 39.8037 25.0005 39.1419 24.036C38.2453 22.6977 37.1743 21.4412 36.0749 20.2026C34.979 18.964 33.8476 17.7218 32.8762 16.3835C32.1219 15.4616 30.2824 14.3725 30.165 13.625C30.0049 13.1694 30.2184 12.9167 30.5208 12.696C31.9085 14.077 33.3246 15.4224 34.6624 16.7892C36.2457 18.5297 37.7365 20.2987 39.0779 22.2065C37.8575 20.256 36.3382 18.4941 34.6624 16.7892C33.3779 15.3726 32.0579 13.9631 30.7699 12.5216C31.0367 12.3401 31.3143 12.1443 31.4388 11.8418C31.4388 11.8418 31.0047 11.4325 30.7912 11.2296C30.4568 9.84858 31.421 9.26486 32.3817 9.10825C32.5987 9.09757 32.8442 9.08333 33.104 9.08689L33.1004 9.07977Z" fill="#FFFFFF"/>
<path d="M87.7623 0.836442C87.7267 0.939661 87.6911 1.03932 87.6555 1.13898C87.1289 3.01118 87.2392 4.89405 86.9617 6.96556C86.6735 8.42487 86.9083 10.0728 87.0258 11.5143C87.0258 8.08318 86.9368 4.46693 88.1288 1.1639C88.4846 1.51271 88.7585 1.92203 88.7478 2.38474C88.5735 3.4988 88.4561 4.59506 88.3885 5.67709C88.2319 5.67709 87.9259 5.67709 87.7729 5.67709C88.0042 7.22183 87.8583 8.69182 87.7943 10.1832C87.7303 11.6674 87.7587 13.173 88.3209 14.6892C88.392 14.5682 88.5237 14.6216 88.6269 14.6323V14.6537V14.6323C88.7158 14.643 88.7834 14.6216 88.7621 14.4294C88.7834 14.6216 88.7194 14.643 88.6269 14.6323C88.1252 11.5855 88.0825 8.81996 88.3849 5.79811C88.2462 8.14369 88.3529 10.3932 88.6233 12.696C88.8866 14.9953 89.2744 17.3908 89.5591 19.8823C89.584 20.0958 89.6302 20.5194 89.6551 20.7329C89.2922 21.637 89.2282 22.5055 89.3207 23.3597C88.5272 23.2316 87.0791 24.2424 87.2037 22.5126C87.0507 22.5304 86.7411 22.5624 86.5881 22.5802C86.001 24.3599 83.9089 25.2034 83.1119 23.5946C82.2971 21.7794 82.6138 19.2096 82.0303 16.9067C81.678 15.2267 81.3258 13.4933 81.4966 11.6888C81.7563 9.21504 81.5571 6.542 82.2082 4.15727C82.3719 3.29236 81.9449 1.76186 82.4288 1.34542C82.6636 1.04288 82.991 1.04288 83.3574 1.09983C83.2507 2.50575 83.2116 3.91524 83.1368 5.3176C82.9625 7.03675 82.8095 8.77724 82.6138 10.5391C82.9305 8.80572 83.0514 7.06878 83.1368 5.3176C83.2863 3.92236 83.4393 2.53067 83.6527 1.15322C83.9659 1.21373 84.2968 1.27424 84.6027 1.19949C84.6027 1.19949 84.617 0.772374 84.6241 0.562375C85.4282 -0.259823 86.5027 5.60842e-06 87.2641 0.448478C87.4171 0.562375 87.5915 0.686951 87.7623 0.825764V0.836442Z" fill="#FFFFFF"/>
<path d="M147.434 15.5684C147.299 15.6467 147.164 15.7286 147.032 15.8069C145.84 16.5792 144.744 17.4691 143.588 18.3802C142.431 19.2914 141.215 20.2168 139.838 21.0319C137.863 22.1033 135.856 23.6017 134.02 24.7692C136.265 23.5056 138.532 22.0784 140.766 20.5585C143.008 19.0423 145.157 17.4406 147.345 16.1664C147.221 16.775 146.971 17.3979 146.441 17.8713C145.075 18.9035 143.698 19.9606 142.293 20.9714C142.197 20.8468 142.008 20.6084 141.912 20.4873C140.14 22.1745 138.094 23.3419 136.105 24.4489C134.113 25.5594 132.145 26.6449 130.416 28.2004C130.597 28.1826 130.583 28.3427 130.608 28.4424L130.58 28.4602L130.608 28.4424C130.629 28.5314 130.683 28.5812 130.921 28.4282C130.679 28.5812 130.629 28.5349 130.608 28.4424C134.33 25.8904 138.126 23.8153 142.129 21.0853C139.08 23.2778 136.063 25.1821 133.131 27.0827C130.199 28.9763 127.306 30.8627 124.57 32.8808C124.325 33.0659 123.837 33.4325 123.592 33.6176C122.756 33.8596 121.998 34.2156 121.297 34.6427L122.019 33.8561C121.585 34.4754 120.984 35.1339 120.197 35.6179C120.236 35.3723 120.076 35.2015 119.902 35.0342C119.721 34.8669 119.525 34.6996 119.425 34.5039C119.322 34.3081 119.319 34.0981 119.454 33.8383C119.585 33.5749 119.866 33.2581 120.236 32.7385L120.034 32.9627C120.112 32.9129 120.201 32.8559 120.297 32.8025C120.204 32.678 120.016 32.4324 119.923 32.3078C119.817 32.3469 119.713 32.379 119.61 32.4075L119.642 32.3719C119.151 32.7598 118.593 32.8132 118.233 32.6459C117.856 32.4822 117.685 32.1441 117.55 31.8308C117.468 31.6742 117.422 31.5105 117.419 31.3468C117.415 31.2649 117.433 31.1795 117.408 31.1047L117.383 31.0051L117.397 31.0549C117.419 31.1225 117.454 31.1973 117.454 31.1973C117.454 31.2044 117.443 31.1795 117.419 31.1439C117.386 31.1012 117.333 31.0336 117.233 30.941C117.109 30.8164 116.878 30.6349 116.618 30.4748L116.586 30.4534L117.461 29.5529C117.938 29.0617 118.489 28.5883 119.08 28.1221C119.375 27.8907 119.681 27.6593 119.995 27.428C120.308 27.1966 120.621 26.9688 120.984 26.7232C122.378 25.7658 123.798 24.8831 125.075 23.8829C127.107 22.3773 129.135 20.9465 131.341 19.9036C132.875 19.2024 134.355 18.3233 135.792 17.4263C137.23 16.5258 138.614 15.6075 140.055 14.7925C141.065 14.1553 142.325 12.3935 143.086 12.3223C143.559 12.1906 143.794 12.422 143.993 12.7387C142.471 14.0592 140.98 15.3691 139.425 16.5223C137.464 17.8713 135.401 19.0601 133.209 20.1172C135.419 19.1882 137.486 17.9709 139.425 16.5223C141.022 15.4296 142.57 14.2159 144.146 13.0021C144.307 13.2833 144.477 13.5752 144.773 13.7211C144.773 13.7211 145.228 13.3047 145.452 13.0982C146.883 12.8348 147.395 13.8386 147.463 14.8281C147.452 15.0523 147.441 15.3014 147.416 15.5648L147.434 15.5684Z" fill="#FFFFFF"/>
<path d="M168.224 54.7812C168.067 54.7599 167.911 54.7385 167.758 54.7172C166.335 54.5748 164.979 54.5214 163.634 54.5072C162.962 54.5 162.289 54.5072 161.617 54.5143C160.948 54.525 160.261 54.5392 159.546 54.5499C157.457 54.4965 155.127 54.9378 153.077 55.1905C154.301 55.1122 155.54 55.0055 156.781 54.9022C157.4 54.8489 158.023 54.799 158.646 54.7456C159.261 54.6994 159.909 54.6424 160.474 54.6211C162.812 54.5285 165.224 54.8133 167.776 55.1905C167.288 55.5892 166.694 55.9095 166.004 55.9344C164.342 55.849 162.823 55.7707 161.392 55.8099C161.382 55.6533 161.357 55.3507 161.346 55.1977C160.827 55.2938 160.354 55.3721 159.834 55.4468C159.293 55.5251 158.756 55.5856 158.219 55.6319C157.144 55.7244 156.073 55.7707 154.999 55.8241C154.461 55.8526 153.928 55.881 153.39 55.9202L152.519 55.9914L151.597 56.0555C150.384 56.1302 149.231 56.1765 148.178 56.3793C148.331 56.4612 148.242 56.5894 148.21 56.689H148.181H148.21C148.181 56.778 148.199 56.8456 148.466 56.8421C148.203 56.8421 148.185 56.7744 148.21 56.689C149.245 56.6427 150.387 56.6427 151.604 56.568C151.907 56.5502 152.22 56.5253 152.529 56.4968L153.405 56.4007L154.977 56.237C156.023 56.1373 157.073 56.0483 158.133 55.9736C158.663 55.938 159.194 55.9024 159.731 55.8668C160.008 55.849 160.25 55.8383 160.489 55.8312C160.734 55.8277 160.98 55.8241 161.229 55.817C160.841 55.8312 160.464 55.8526 160.087 55.881C159.67 55.9202 159.254 55.9594 158.838 55.9985C158.005 56.0804 157.176 56.1729 156.347 56.2655C155.522 56.3651 154.696 56.4683 153.867 56.568L152.533 56.7353C152.038 56.7851 151.544 56.8243 151.078 56.8456C149.185 56.9346 147.562 56.8741 146.221 57.0378C145.417 57.1446 144.609 57.2514 143.798 57.3617C142.944 57.4721 142.087 57.5824 141.222 57.6927C140.927 57.7283 140.336 57.8031 140.041 57.8387C138.803 57.5219 137.603 57.5148 136.426 57.6607C136.625 56.8563 135.259 55.461 137.653 55.4788C137.635 55.3258 137.596 55.0161 137.579 54.8631C135.127 54.3861 133.989 52.3395 136.259 51.4355C137.539 50.9656 139.08 50.7734 140.699 50.6133C141.507 50.5314 142.336 50.4602 143.161 50.3641C143.574 50.3143 143.987 50.2609 144.396 50.1968C144.855 50.1185 145.314 50.0438 145.773 49.9655C147.185 49.7697 148.484 49.7163 149.612 49.6879C150.138 49.6807 150.661 49.6736 151.188 49.6665C151.693 49.6665 152.199 49.6665 152.718 49.6665C154.376 49.695 156.087 49.5633 157.799 49.4494L159.083 49.3711C159.51 49.3497 160.005 49.3284 160.453 49.3319C161.368 49.3319 162.257 49.396 163.1 49.517C163.712 49.5704 164.534 49.4707 165.264 49.4102C165.993 49.3497 166.626 49.3213 166.922 49.5384C167.338 49.7412 167.377 50.0652 167.334 50.4389C165.452 50.4994 163.509 50.478 161.51 50.535C160.898 50.535 160.275 50.535 159.653 50.5599C159.058 50.5812 158.461 50.6026 157.863 50.624C156.678 50.6595 155.486 50.6809 154.294 50.6738C155.468 50.745 156.65 50.745 157.838 50.7058C158.436 50.688 159.016 50.6524 159.631 50.6168C160.261 50.5777 160.887 50.5563 161.51 50.535C163.509 50.5492 165.42 50.6809 167.292 50.7379C167.242 51.0582 167.192 51.3928 167.327 51.6882C167.327 51.6882 167.914 51.649 168.206 51.6277C169.441 52.3004 169.291 53.3967 168.726 54.2295C168.58 54.4004 168.416 54.589 168.224 54.7812Z" fill="#FFFFFF"/>
<path d="M160.823 94.6347C160.698 94.5813 160.573 94.5279 160.474 94.4746C159.478 94.051 158.592 93.7769 157.656 93.51C156.727 93.243 155.784 92.9832 154.827 92.581C154.169 92.2464 153.436 92.0293 152.692 91.8549C152.322 91.7695 151.949 91.6912 151.589 91.62C151.248 91.5524 150.91 91.4847 150.586 91.4207C150.967 91.5417 151.347 91.6591 151.728 91.7802C152.134 91.9047 152.543 92.0258 152.949 92.1503C153.77 92.3995 154.6 92.6486 155.425 92.9191C156.25 93.1932 157.069 93.4886 157.884 93.8303C158.705 94.172 159.485 94.56 160.385 95.0084C160.168 95.1864 159.922 95.3395 159.677 95.4356C159.442 95.5317 159.193 95.5708 158.944 95.5245C157.805 95.1366 156.752 94.7878 155.699 94.4674C155.738 94.293 155.816 93.9513 155.856 93.7805C154.286 93.6986 152.888 93.1363 151.515 92.6379C150.796 92.3781 150.291 92.1895 149.561 92.072C148.853 91.9546 148.017 91.9083 147.032 91.8869C147.142 92.0115 147.028 92.1325 146.971 92.2358L146.943 92.2286L146.971 92.2358C146.921 92.3247 146.918 92.4102 147.156 92.4635C146.921 92.4066 146.921 92.3247 146.971 92.2358C147.918 92.428 148.757 92.5312 149.451 92.6451C150.173 92.759 150.643 92.8729 151.365 93.0757C152.735 93.4602 154.133 93.9264 155.582 94.4283C154.447 94.0866 153.322 93.7805 152.212 93.5064C151.664 93.3712 151.098 93.2359 150.593 93.1291C150.18 93.0402 149.654 92.9619 149.088 92.88C148.508 92.7946 147.846 92.6985 147.117 92.5419C146.398 92.3924 145.598 92.1468 144.943 91.9047C143.619 91.4171 142.602 90.9437 141.748 90.6412C141.598 90.5842 141.332 90.4988 141.204 90.4597C140.851 89.8012 140.396 89.552 140.033 89.5592C140.072 89.1178 139.972 88.4487 139.962 87.9397C139.962 87.6798 139.997 87.4698 140.125 87.3382C140.189 87.2741 140.278 87.2278 140.392 87.2171C140.506 87.2136 140.648 87.2314 140.819 87.2954C140.841 87.121 140.887 86.7651 140.908 86.5907C140.727 86.4626 140.556 86.3095 140.389 86.1458C140.222 85.9892 140.065 85.8148 139.916 85.6297C139.617 85.2773 139.353 84.8822 139.204 84.4836C139.14 84.2843 139.104 84.0849 139.097 83.8856C139.083 83.6899 139.111 83.4977 139.211 83.3161C139.396 82.9531 139.809 82.6185 140.467 82.4619C141.196 82.316 142.001 82.3267 142.733 82.4655C143.47 82.6007 144.164 82.8392 144.797 83.099C146.046 83.6222 147.096 84.2273 147.96 84.359C148.263 84.4231 148.501 84.4587 148.764 84.4907C149.028 84.5263 149.312 84.5583 149.64 84.6082C150.291 84.7114 151.134 84.868 152.088 85.2453C152.707 85.5122 153.226 85.7293 153.785 85.9287C154.336 86.128 154.891 86.3095 155.443 86.4982C156.546 86.8683 157.638 87.2563 158.627 87.8329C158.994 88.0037 159.545 88.0287 160.026 88.0785C160.506 88.1283 160.919 88.2031 161.047 88.4914C161.257 88.7832 161.214 89.1605 161.107 89.5698C159.905 89.3136 158.606 89.0075 157.357 88.6515C155.838 88.107 154.336 87.5232 152.821 86.8078C154.272 87.6443 155.788 88.1995 157.357 88.6515C158.585 89.0893 159.833 89.5164 161.015 89.9009C160.915 90.2532 160.808 90.6198 160.833 90.9758C160.833 90.9758 160.933 90.99 161.054 91.0114C161.175 91.0256 161.321 91.0469 161.417 91.0576C161.737 91.5417 161.922 92.072 161.926 92.6095C161.929 93.1434 161.719 93.6702 161.342 94.0902C161.175 94.2574 161.022 94.439 160.826 94.6205L160.823 94.6347Z" fill="#FFFFFF"/>
</g>
<defs>
<clipPath id="clip0_148_534">
<rect width="169.149" height="152" fill="white"/>
</clipPath>
</defs>
</svg>
