<svg width="52" height="40" viewBox="0 0 52 40" fill="none" xmlns="http://www.w3.org/2000/svg">
<g clip-path="url(#clip0_227_571)">
<path d="M3.78651 16.2685C3.7143 17.8906 3.85111 19.5734 4.13234 21.347C4.45347 23.5257 4.31475 25.5484 4.39836 27.333C4.43827 28.2252 4.52757 29.0568 4.71189 29.8127C4.74989 30.0076 4.8183 30.1808 4.8677 30.3671C4.92661 30.5468 4.99691 30.7179 5.05962 30.8955C5.20973 31.2485 5.37695 31.5777 5.56317 31.8809C5.9451 32.4743 6.39924 32.9616 6.97689 33.3449C7.55074 33.7304 8.2348 34.0227 8.98727 34.2415C10.4979 34.6811 12.2233 34.8695 13.9657 35.0904C14.836 35.1987 15.7348 35.3156 16.6012 35.4434C17.3993 35.5604 18.2145 35.6232 19.0373 35.6535C20.6828 35.7141 22.355 35.6383 24.029 35.5669C24.867 35.5322 25.7049 35.4954 26.5448 35.4737C26.9667 35.4629 27.3809 35.4586 27.7913 35.4542C28.2018 35.4521 28.6103 35.4477 29.015 35.4456C30.9551 35.4326 32.8895 35.4737 34.7878 35.4347C36.6879 35.4023 38.5406 35.2572 40.3115 34.8652C42.0863 34.4884 43.7527 33.7975 45.3166 32.8229L45.6111 32.641L45.7574 32.5501C45.803 32.5198 45.841 32.4894 45.8828 32.4591C46.0406 32.3357 46.2211 32.2274 46.356 32.0953L46.5745 31.9069C46.6448 31.8441 46.7018 31.7748 46.7664 31.7098C46.9032 31.5842 46.9982 31.4412 47.1103 31.3091C47.3023 31.0298 47.4733 30.7569 47.5854 30.4429C47.7013 30.1289 47.7868 29.7823 47.8457 29.3839C47.897 28.9789 47.9217 28.5219 47.9274 28.026V27.6448L47.9217 27.2463L47.9122 26.8349C47.9084 26.6984 47.9065 26.5403 47.9008 26.4559C47.8856 26.0531 47.8248 25.5874 47.745 25.0655C47.6633 24.5392 47.5607 23.9545 47.4809 23.3026C47.441 22.98 47.4068 22.6378 47.3878 22.2826C47.3764 22.105 47.3707 21.9253 47.3688 21.7412V21.4965L47.365 21.2842C47.365 20.7168 47.3631 20.1516 47.3612 19.5842C47.3612 18.4515 47.3574 17.3232 47.3555 16.1949C47.3517 15.0471 47.3707 13.9209 47.3403 12.9139C47.3213 12.4136 47.289 11.9394 47.2358 11.4932C47.1768 11.0514 47.0951 10.6335 46.9887 10.2285C46.8709 9.82566 46.7436 9.42934 46.565 9.03735C46.4871 8.84027 46.3788 8.64536 46.2895 8.44829L46.1299 8.15592L46.05 8.00866L46.0101 7.93502C46.0101 7.93502 46.0025 7.92636 45.9987 7.92203C45.993 7.90687 45.9588 7.86789 45.936 7.83107C45.8942 7.78776 45.8657 7.74228 45.8087 7.68814C45.7156 7.58418 45.5807 7.4694 45.4458 7.35462C45.1646 7.12289 44.8244 6.8955 44.4691 6.68326C44.509 6.59447 44.7959 6.63345 44.9613 6.61613C45.119 6.60097 45.1798 6.51217 44.7047 6.16783C43.728 5.51163 42.8958 5.10016 42.2858 4.78613C41.6702 4.47644 41.2521 4.26854 40.9804 4.09961C40.4313 3.76827 40.4598 3.58851 40.494 3.39577C40.5092 3.29831 41.4212 3.51055 42.1642 3.77043C42.9072 4.02382 43.4886 4.27936 42.9319 3.94802C43.8155 4.29236 44.832 4.76231 45.7289 5.35137C46.1774 5.64374 46.5954 5.96426 46.9298 6.30427C47.097 6.47319 47.2453 6.64645 47.3555 6.8197C47.4125 6.8955 47.4714 7.01028 47.5265 7.10773C47.5835 7.20736 47.6386 7.30265 47.6899 7.3936C48.0984 8.1386 48.3265 8.69301 48.3987 8.80129C48.4652 8.91174 48.4196 8.55657 48.0072 7.59068C47.954 7.41959 47.8552 7.20086 47.7279 6.94098C47.6956 6.87601 47.6633 6.80887 47.6272 6.7374C47.5892 6.6746 47.5512 6.60746 47.5113 6.54033C47.4657 6.47536 47.4182 6.40822 47.3707 6.34109C47.3175 6.27612 47.2643 6.20898 47.2073 6.14184C46.7436 5.61125 46.0729 5.11748 45.3755 4.69517C43.9751 3.84623 42.453 3.29831 41.8697 2.9713C41.2825 2.64645 41.6189 2.5923 41.9685 2.54899C42.3162 2.50568 42.6735 2.47536 42.0692 2.12885C41.4269 1.92744 40.4541 1.66973 39.4432 1.53979C38.9415 1.47482 38.4133 1.44017 37.9458 1.45533C37.4936 1.46399 37.1041 1.45749 36.781 1.45966C35.5041 1.26475 38.0465 0.877091 36.7696 0.877091C32.9389 0.68218 27.8388 0.779635 22.7388 0.779635C22.7388 0.584725 21.4619 0.39198 24.0119 0.294524C26.8013 0.28153 29.5946 0.268536 32.3916 0.255542C33.7902 0.249045 35.1906 0.242548 36.591 0.236051L37.6418 0.23172H37.7729L37.9192 0.225223C38.0161 0.223057 38.1092 0.21656 38.2214 0.220892C38.4361 0.220892 38.6451 0.229554 38.8522 0.242548C39.6769 0.298856 40.456 0.433128 41.2179 0.615044C42.7381 0.985374 44.1917 1.50947 45.6282 2.25446C46.3465 2.63129 47.059 3.06226 47.7792 3.64049C48.1402 3.93502 48.5032 4.26854 48.8718 4.71467C48.963 4.82945 49.0561 4.95506 49.1454 5.0785L49.2822 5.29073C49.324 5.36004 49.3791 5.4445 49.3981 5.48348L49.7212 6.07254C50.1373 6.87601 50.5078 7.75527 50.7777 8.68868C51.0494 9.61992 51.2166 10.5923 51.2964 11.5127C51.3781 12.4353 51.3914 13.3102 51.3971 14.1397L51.4028 16.5587C51.4085 18.17 51.4161 19.7813 51.4218 21.3925C51.4218 21.6199 51.4256 21.7325 51.4313 21.8885C51.4389 22.0379 51.4503 22.196 51.4655 22.3562C51.4978 22.6789 51.5472 23.0276 51.6061 23.4044C51.722 24.1559 51.8874 25.0287 51.9482 26.0444L51.9653 26.4299L51.9729 26.7396L51.9862 27.3698C51.9938 27.7964 51.9919 28.2512 51.9748 28.7212C51.9406 29.6567 51.8209 30.7092 51.4902 31.7596C51.1672 32.81 50.618 33.817 49.9606 34.6075C49.305 35.4044 48.5697 36.0152 47.8343 36.5111C46.4681 37.4077 45.0221 38.1375 43.519 38.6681C42.0179 39.2009 40.4769 39.5322 38.9643 39.712C35.9317 40.0606 33.0168 39.9264 30.2045 39.8679C28.7984 39.8397 27.398 39.8116 26.0299 39.8441C24.6485 39.8722 23.2328 39.9437 21.783 39.9783C20.3332 40.013 18.8472 40.0108 17.3233 39.8765L16.7495 39.8202L16.1737 39.7466L15.1305 39.6037L13.0422 39.346C11.6266 39.1705 10.1654 39.0103 8.60533 38.6291C7.82817 38.4364 7.02059 38.183 6.20542 37.7932C5.39215 37.4142 4.56938 36.8728 3.83401 36.1776C3.10435 35.4737 2.47159 34.6205 2.00605 33.7174C1.53861 32.8316 1.18518 31.8462 0.955257 30.8673C0.725337 29.8885 0.615127 28.9204 0.560022 28.013C0.506818 27.1034 0.504917 26.2436 0.504917 25.438C0.504917 24.6345 0.501117 23.8809 0.459313 23.1857C0.438412 22.8392 0.409909 22.5035 0.366205 22.1895L0.204691 20.9551C0.00137281 19.2247 -0.0803344 17.4098 0.0754794 15.582C0.111583 15.1251 0.166687 14.6703 0.231293 14.2155C0.269297 13.9881 0.299699 13.7607 0.343403 13.5355L0.461214 12.9074C0.601826 12.1927 0.715836 11.4434 0.837447 10.6486C0.966658 9.83865 1.09967 8.96155 1.37139 7.974C1.4512 7.72279 1.51201 7.47807 1.61082 7.22252C1.71342 6.9648 1.81223 6.70925 1.92814 6.45587C2.05925 6.20248 2.19417 5.95343 2.33288 5.70654C2.48299 5.47049 2.65021 5.24309 2.81362 5.01786C2.89343 4.90091 2.98274 4.80129 3.07394 4.70384L3.34567 4.40931C3.43688 4.31402 3.52808 4.21223 3.62119 4.1256L3.90242 3.88305L4.18744 3.64482C4.28245 3.56686 4.37746 3.48456 4.47247 3.42609L5.04252 3.04276C5.23444 2.90633 5.42065 2.81537 5.60877 2.71142L6.17312 2.40822C6.54365 2.23497 6.91418 2.07687 7.28472 1.91228L8.37921 1.50514C8.74405 1.3752 9.11648 1.26258 9.48511 1.14997C10.2262 0.942061 10.9691 0.751482 11.714 0.615044C13.2018 0.322678 14.684 0.173247 16.1414 0.0909511C17.6026 0.00215851 19.0373 -0.00650419 20.451 0.00215851C23.0276 0.0563004 23.3316 0.184075 22.5374 0.324844C21.7393 0.469944 19.8144 0.610713 17.8611 0.812121C19.1608 0.68218 19.1627 0.976712 20.4529 0.874925C20.4529 1.02219 19.8106 1.20844 18.5204 1.40118C17.8763 1.49864 17.0706 1.59826 16.1034 1.72603C15.1362 1.85164 14.0075 2.00108 12.723 2.24147C14.0113 2.0249 15.3034 1.89929 16.5936 1.83215C17.8858 1.87114 16.6031 2.12235 16.6126 2.31726C16.2915 2.33892 15.9723 2.35841 15.6721 2.3779C15.3718 2.40606 15.0925 2.42988 14.8531 2.45803C14.3761 2.523 14.0588 2.58148 14.0645 2.62912C14.074 2.72441 14.0911 2.91932 14.1006 3.01461C14.7296 2.94098 15.6778 2.84785 16.6316 2.80021C17.5836 2.7504 18.5394 2.73307 19.176 2.72441C17.9029 2.73307 16.6316 2.80021 16.6373 2.89766C16.6411 2.99512 16.6487 3.18787 16.6525 3.28532C15.3965 3.40227 13.8308 3.51272 12.2936 3.79209C11.5221 3.92203 10.7639 4.11261 10.0514 4.31835C9.69793 4.43313 9.3502 4.53491 9.02717 4.66919C8.70414 4.79913 8.38492 4.90958 8.10559 5.05034L8.1949 5.32322C8.47612 5.20627 8.79725 5.11315 9.11838 4.99404C9.43951 4.87276 9.78344 4.7753 10.1331 4.66486C10.838 4.46345 11.5829 4.25987 12.343 4.11477C13.8574 3.80292 15.4117 3.64482 16.6639 3.57552C15.4155 3.74661 15.4269 3.85922 15.4383 4.0498C13.5914 4.24905 11.7748 4.50676 10.0229 5.03518C9.14878 5.29723 8.28041 5.63508 7.48994 6.03356C6.70327 6.44071 6.01921 6.9648 5.58787 7.56902C6.22442 6.83269 7.23341 6.23497 8.34121 5.77801C8.2139 5.8668 8.07519 5.95776 7.92317 6.05089C7.84717 6.09637 7.76926 6.14401 7.68755 6.19165C7.60775 6.24147 7.53364 6.29777 7.45383 6.34975C7.29422 6.4537 7.1251 6.56415 6.94839 6.67677C6.79067 6.80021 6.62346 6.92365 6.45054 7.0471C6.30233 7.18137 6.14842 7.31781 5.9907 7.46074C5.9261 7.53654 5.85959 7.61234 5.79119 7.68597L5.68858 7.79642L5.60687 7.91986C5.35795 8.22955 5.19453 8.60855 5.02922 9.08283C4.71189 10.0292 4.53897 11.4456 4.29385 12.81C4.23875 13.15 4.16464 13.4986 4.10194 13.8322C4.07343 13.9859 4.04493 14.1375 4.01643 14.2869C3.98793 14.4255 3.96512 14.5641 3.94422 14.7006C3.85681 15.2485 3.80551 15.7748 3.78271 16.2664L3.78651 16.2685Z" fill="#EF8D2B"/>
<path d="M15.5715 13.8733C16.3905 14.445 17.2513 15.0514 18.1482 15.6557C18.6061 15.9588 19.0697 16.2664 19.5372 16.5761C19.6854 16.6779 19.8393 16.784 19.9571 16.8749C20.0825 16.9702 20.2136 17.0655 20.3315 17.1586C20.5728 17.347 20.8103 17.5355 21.0421 17.7239C21.9713 18.4775 22.8701 19.242 23.7613 19.9805C24.2059 20.3487 24.6467 20.7125 25.0838 21.0633L25.156 21.1218L25.175 21.1348L25.2111 21.1565L25.2795 21.1976C25.3251 21.2214 25.3669 21.2409 25.4049 21.2539C25.4239 21.2344 25.4391 21.2128 25.4543 21.1911C25.498 21.1305 25.5341 21.0763 25.5626 21.0287L25.574 21.0114L25.5797 21.0027V20.9984L25.6025 20.981L25.7944 20.8208L26.1783 20.5003C26.6913 20.0736 27.212 19.6492 27.7364 19.2269C28.7872 18.3822 29.857 17.5441 30.9325 16.7147C33.0835 15.0579 35.2573 13.4423 37.3456 11.8917C37.4387 12.0541 37.2297 12.5566 37.6249 12.379C39.1564 11.5885 39.3407 11.9134 39.527 12.2382C39.6201 12.4006 38.4838 13.0135 38.9246 12.9182C37.8814 13.6936 36.1865 15.0688 37.3247 14.4537C37.7655 14.3584 39.0633 13.1608 39.5517 13.1456C40.04 13.1305 39.4833 13.8906 39.9697 13.8776C40.3174 13.6178 41.0148 13.1023 41.3625 12.8424C41.8034 12.7472 41.2941 13.5896 41.6418 13.3297C42.7781 12.7168 44.1235 11.6015 45.5144 10.5685C45.6075 10.7309 46.0483 10.6335 45.4004 11.2333C42.2803 13.6199 39.1374 16.026 35.9831 18.4385C34.406 19.6448 32.827 20.8533 31.246 22.0639L28.8708 23.8744L27.6338 24.8143L25.2586 26.5988L23.1228 24.797L21.9352 23.8116L19.788 22.0596C19.4308 21.7715 19.0735 21.4856 18.722 21.2106C18.3724 20.9356 18.0095 20.6584 17.7149 20.4526L17.618 20.3855L17.5686 20.3508L17.4926 20.3032L17.1905 20.1083L16.5881 19.7098C16.1872 19.4413 15.7901 19.164 15.3967 18.8803C14.6082 18.3129 13.8367 17.7109 13.0804 17.0763C12.7023 16.7601 12.3299 16.431 11.9631 16.0953L10.9237 15.1489C9.54991 13.8971 8.18369 12.641 6.82887 11.3828C5.58046 10.1418 6.76426 10.7093 7.89866 11.3546C7.52053 11.1402 7.67824 10.9107 7.30011 10.6941C7.45782 10.4645 8.3718 10.6681 9.72852 11.7596C9.40169 11.4672 9.07676 11.1749 8.74994 10.8825C8.47631 10.5143 8.90765 10.6529 9.01216 10.5014C9.33899 10.7937 9.66582 11.0861 9.71712 11.0103C9.77033 10.9345 9.87484 10.7829 9.92804 10.7049C9.60121 10.4126 8.94755 9.82783 8.62072 9.53546C8.94755 9.82783 9.27438 10.1202 9.32569 10.0444C9.37889 9.96859 9.4834 9.81483 9.53661 9.73903C10.2435 10.248 11.1194 11.2788 11.8263 11.7899L11.984 11.5625C11.3817 10.8998 10.348 10.0964 9.69432 9.51164C10.0744 9.7282 10.1276 9.65241 10.2321 9.50081C11.2677 10.3043 12.0904 11.4109 13.2305 12.0628L12.2481 11.1835C12.708 11.2875 13.2932 11.7813 13.8956 12.3508C14.1825 12.628 14.4808 12.9161 14.764 13.1911C15.0471 13.4553 15.3245 13.6957 15.5791 13.8733H15.5715Z" fill="#EF8D2B"/>
</g>
<defs>
<clipPath id="clip0_227_571">
<rect width="52" height="40" fill="white"/>
</clipPath>
</defs>
</svg>
