<?xml version="1.0" encoding="UTF-8"?>
<svg width="53px" height="26px" viewBox="0 0 53 26" version="1.1" xmlns="http://www.w3.org/2000/svg" xmlns:xlink="http://www.w3.org/1999/xlink">
    <title>icon_arrow_white_left</title>
    <g id="Page-1" stroke="none" stroke-width="1" fill="none" fill-rule="evenodd">
        <g id="icon_arrow_white_left" transform="translate(26.500000, 12.972849) rotate(-180.000000) translate(-26.500000, -12.972849) translate(0.000001, -0.000977)" fill="#FFFFFF" fill-rule="nonzero">
            <path d="M32.1293991,14.6905766 C31.9875991,14.6702766 31.8452991,14.6495766 31.7046991,14.6309766 C29.0991991,14.3414766 26.4937991,14.4381766 23.5985991,14.2452766 C21.5720991,14.0523766 19.2562991,14.1486766 17.2301991,14.1486766 C22.0325991,14.3263766 27.0803991,14.2590766 31.6944991,14.9273766 C31.2279991,15.1551766 30.6707991,15.3368766 30.0214991,15.3368766 C28.4597991,15.2470766 26.9188991,15.1840766 25.3903991,15.1409766 L25.3903991,14.7578766 C21.0480991,15.0473766 16.9946991,14.2754766 12.6523991,14.7578766 C12.8065991,14.8091766 12.7149991,14.8881766 12.6829991,14.9502766 C16.9549991,14.8561766 20.9492991,14.9493766 25.2152991,15.1366766 C18.5912991,14.9558766 12.2045991,15.1439766 5.41491909,15.1439766 L4.25745909,15.1439766 C3.09956909,14.8544766 1.94082909,14.7578766 0.783793087,14.7578766 C1.07262909,14.2754766 -0.0852622132,13.3103766 2.23136909,13.5031766 L2.23136909,13.1174766 C-0.0848362132,12.6350766 -0.953890913,11.2837766 1.36273909,10.8980766 C3.96776909,10.5123766 7.44185909,10.8980766 10.6257991,10.7052766 C12.9424991,10.6085766 15.2581991,10.5123766 17.5735991,10.7052766 C20.7579991,10.9947766 24.2320991,10.8980766 27.4155991,11.2842766 C28.5739991,11.3808766 30.6008991,11.0913766 31.1797991,11.3808766 C31.5955991,11.5193766 31.6121991,11.7251766 31.5487991,11.9542766 C29.6453991,11.9201766 27.7478991,11.9098766 25.8713991,11.8675766 C23.5695991,11.7592766 21.2674991,11.6393766 18.9670991,11.4473766 C21.2167991,11.7122766 23.5274991,11.8149766 25.8713991,11.8675766 C27.7431991,11.9555766 29.6167991,12.0358766 31.4890991,12.1389766 C31.4204991,12.3356766 31.3548991,12.5414766 31.4690991,12.7317766 L32.3372991,12.7317766 C33.4955991,13.2140766 33.2054991,13.8897766 32.6273991,14.3721766 C32.4795991,14.4700766 32.3142991,14.5800766 32.1293991,14.6905766 Z" id="Path"></path>
            <path d="M25.5356991,23.6824766 C25.7388991,23.5948766 25.9425991,23.5068766 26.1440991,23.4200766 C26.3787991,23.3165766 26.5968991,23.2052766 26.8209991,23.0947766 L27.1545991,22.9273766 L27.4710991,22.7539766 L27.6295991,22.6667766 L27.7087991,22.6227766 C27.7351991,22.6081766 27.7581991,22.5930766 27.7828991,22.5779766 L28.0759991,22.3975766 C28.1002991,22.3824766 28.1253991,22.3677766 28.1488991,22.3522766 L28.2156991,22.3056766 L28.3503991,22.2124766 C28.4419991,22.1524766 28.5266991,22.0838766 28.6135991,22.0165766 C28.6966991,21.9548766 28.7971991,21.8673766 28.8909991,21.7896766 C28.9995991,21.6981766 29.1086991,21.6067766 29.2172991,21.5152766 C29.3403991,21.4181766 29.4651991,21.3189766 29.5904991,21.2231766 C29.7182991,21.1329766 29.8464991,21.0428766 29.9746991,20.9526766 C30.1020991,20.8676766 30.2281991,20.7912766 30.3551991,20.7101766 L30.5455991,20.5906766 L30.7325991,20.4832766 C30.8573991,20.4116766 30.9821991,20.3399766 31.1074991,20.2683766 L31.2011991,20.2144766 L31.2940991,20.1648766 L31.4801991,20.0660766 C31.6041991,20.0000766 31.7285991,19.9339766 31.8529991,19.8679766 L32.0399991,19.7687766 L32.2261991,19.6751766 C32.4744991,19.5508766 32.7241991,19.4257766 32.9746991,19.3001766 C33.0998991,19.2363766 33.2251991,19.1780766 33.3507991,19.1176766 C33.4764991,19.0577766 33.6025991,18.9977766 33.7286991,18.9377766 C33.9817991,18.8182766 34.2343991,18.6961766 34.4907991,18.5779766 C35.5212991,18.1024766 36.5684991,17.6542766 37.6517991,17.2136766 C39.1798991,16.6247766 40.7858991,15.9370766 42.3851991,15.2337766 C42.5849991,15.1457766 42.7847991,15.0577766 42.9845991,14.9697766 C43.0871991,14.9239766 43.1894991,14.8778766 43.2916991,14.8320766 C43.4914991,14.7419766 43.6904991,14.6521766 43.8876991,14.5633766 C44.2795991,14.3864766 44.6561991,14.2164766 45.0306991,14.0554766 C44.5394991,14.2427766 44.0785991,14.4226766 43.6354991,14.5978766 C43.4190991,14.6836766 43.2022991,14.7699766 42.9849991,14.8562766 C42.5465991,15.0409766 42.1073991,15.2260766 41.6677991,15.4115766 C39.8580991,16.1777766 38.0445991,16.9556766 36.2344991,17.7439766 C36.0078991,17.8436766 35.7815991,17.9428766 35.5553991,18.0420766 L35.2158991,18.1913766 L34.8754991,18.3436766 C34.4200991,18.5447766 33.9714991,18.7539766 33.5220991,18.9597766 C32.6214991,19.3735766 31.7268991,19.7937766 30.8105991,20.2830766 C30.6954991,20.3447766 30.5808991,20.4068766 30.4662991,20.4685766 C30.3487991,20.5384766 30.2315991,20.6079766 30.1139991,20.6778766 L29.9380991,20.7826766 C29.8792991,20.8188766 29.8187991,20.8611766 29.7591991,20.9000766 L29.5797991,21.0195766 C29.5201991,21.0596766 29.4600991,21.0988766 29.4021991,21.1433766 L29.2274991,21.2736766 L29.0971991,21.3715766 L29.0579991,21.4026766 C28.9569991,21.4824766 28.8564991,21.5627766 28.7558991,21.6425766 L28.5599991,21.7956766 L28.5011991,21.8375766 L28.3839991,21.9212766 C28.3452991,21.9492766 28.3064991,21.9773766 28.2655991,22.0019766 C27.6376991,22.4118766 26.8260991,22.7975766 26.0174991,23.1521766 C26.0835991,23.0852766 26.1508991,23.0171766 26.2198991,22.9467766 C26.2867991,22.8773766 26.3557991,22.8078766 26.4268991,22.7388766 C26.4980991,22.6693766 26.5713991,22.6003766 26.6475991,22.5317766 C26.6859991,22.4976766 26.7242991,22.4635766 26.7630991,22.4290766 C26.7826991,22.4122766 26.8022991,22.3949766 26.8222991,22.3781766 C26.8405991,22.3613766 26.8592991,22.3440766 26.8776991,22.3268766 C26.9521991,22.2586766 27.0288991,22.1908766 27.1085991,22.1244766 C27.1481991,22.0912766 27.1885991,22.0580766 27.2299991,22.0252766 C27.2708991,21.9924766 27.3142991,21.9596766 27.3500991,21.9277766 C27.4974991,21.7995766 27.6708991,21.6761766 27.8131991,21.5609766 C27.8599991,21.5277766 27.9093991,21.4979766 27.9549991,21.4626766 L28.0925991,21.3573766 L28.1270991,21.3310766 C28.1390991,21.3219766 28.1492991,21.3146766 28.1637991,21.3021766 L28.2455991,21.2343766 L28.4154991,21.0932766 L28.6242991,20.9189766 L28.6762991,20.8754766 C28.6936991,20.8607766 28.7154991,20.8443766 28.7350991,20.8288766 L28.8551991,20.7347766 C28.9356991,20.6726766 29.0153991,20.6083766 29.0966991,20.5492766 L29.3424991,20.3770766 L29.4656991,20.2916766 C29.5064991,20.2631766 29.5482991,20.2342766 29.5870991,20.2109766 L29.8243991,20.0629766 L30.0615991,19.9158766 C30.0811991,19.9037766 30.1016991,19.8908766 30.1203991,19.8800766 L30.1774991,19.8481766 L30.2912991,19.7838766 C30.4428991,19.6984766 30.5945991,19.6129766 30.7461991,19.5279766 C30.8228991,19.4835766 30.8948991,19.4486766 30.9689991,19.4093766 L31.1896991,19.2941766 C31.3366991,19.2173766 31.4836991,19.1409766 31.6305991,19.0646766 C31.7766991,18.9904766 31.9202991,18.9218766 32.0651991,18.8497766 C32.2095991,18.7785766 32.3539991,18.7078766 32.4979991,18.6366766 L32.7139991,18.5300766 L32.9286991,18.4282766 C33.5007991,18.1594766 34.0673991,17.8863766 34.6432991,17.6257766 C34.6841991,17.7137766 34.7642991,17.8858766 34.8047991,17.9721766 C36.8734991,16.8840766 38.9344991,15.9879766 40.9980991,15.1297766 C41.5139991,14.9166766 42.0294991,14.7048766 42.5453991,14.4964766 L42.7387991,14.4179766 L42.7506991,14.4131766 L42.7566991,14.4110766 L42.7583991,14.4110766 L42.7647991,14.4084766 L42.7774991,14.4045766 L42.8030991,14.3963766 L42.9091991,14.3631766 L43.1327991,14.2919766 C43.2865991,14.2423766 43.4509991,14.1875766 43.6214991,14.1284766 L43.8808991,14.0365766 L44.0124991,13.9886766 L44.0785991,13.9640766 L44.1117991,13.9515766 L44.1198991,13.9484766 C44.1223991,13.9476766 44.1266991,13.9463766 44.1228991,13.9450766 L44.1104991,13.9372766 C43.8395991,13.7685766 43.5102991,13.5774766 43.1800991,13.4052766 C43.0978991,13.3625766 43.0160991,13.3207766 42.9359991,13.2814766 C42.9261991,13.2762766 42.9159991,13.2715766 42.9048991,13.2663766 L42.8886991,13.2581766 L42.8609991,13.2422766 C42.7945991,13.2038766 42.7276991,13.1649766 42.6599991,13.1239766 C42.5248991,13.0428766 42.3910991,12.9660766 42.2517991,12.8793766 C42.1205991,12.7991766 41.9889991,12.7188766 41.8568991,12.6381766 C41.7333991,12.5639766 41.6097991,12.4893766 41.4858991,12.4146766 C41.2353991,12.2697766 40.9852991,12.1230766 40.7292991,11.9845766 C40.9047991,12.1584766 40.7424991,12.1471766 40.6674991,12.1726766 C40.9119991,12.3245766 41.1518991,12.4811766 41.3925991,12.6360766 C41.6425991,12.8008766 41.8918991,12.9647766 42.1406991,13.1287766 L42.2428991,13.1956766 L42.5427991,13.3845766 L42.6420991,13.4462766 L42.7301991,13.5006766 C42.7429991,13.5097766 42.7570991,13.5148766 42.7672991,13.5213766 C42.8128991,13.5468766 42.8579991,13.5722766 42.9031991,13.5972766 C43.0859991,13.6991766 43.2712991,13.8035766 43.4411991,13.9014766 L43.4488991,13.9057766 C43.4509991,13.9066766 43.4497991,13.9070766 43.4480991,13.9075766 L43.4437991,13.9092766 L43.4262991,13.9161766 L43.3909991,13.9303766 L43.3206991,13.9584766 L43.1800991,14.0132766 C43.0867991,14.0494766 42.9947991,14.0839766 42.9052991,14.1163766 L42.7736991,14.1633766 L42.7097991,14.1853766 L42.6786991,14.1961766 L42.6671991,14.2000766 L42.6437991,14.2099766 L42.5495991,14.2496766 C42.0468991,14.4614766 41.5441991,14.6733766 41.0402991,14.8855766 C40.0314991,15.3118766 39.0188991,15.7394766 37.9993991,16.1704766 C36.9782991,16.6049766 35.9502991,17.0428766 34.9044991,17.5040766 C36.9560991,16.5777766 38.9732991,15.7023766 40.9865991,14.8221766 C41.4896991,14.6029766 41.9919991,14.3842766 42.4941991,14.1655766 L42.7885991,14.0390766 L42.9645991,13.9618766 L43.0501991,13.9234766 L43.0923991,13.9044766 L43.1131991,13.8949766 L43.1234991,13.8902766 C43.1234991,13.8902766 43.1289991,13.8889766 43.1263991,13.8876766 L43.1208991,13.8846766 L42.8758991,13.7564766 L42.7587991,13.6943766 L42.7020991,13.6637766 L42.6743991,13.6486766 C42.6692991,13.6460766 42.6662991,13.6434766 42.6594991,13.6408766 C42.6564991,13.6395766 42.6530991,13.6378766 42.6505991,13.6356766 L42.6462991,13.6326766 L42.6156991,13.6136766 C42.5295991,13.5614766 42.4409991,13.5049766 42.3531991,13.4493766 L42.2215991,13.3656766 L42.1555991,13.3237766 L42.0877991,13.2793766 L41.8172991,13.1011766 L41.5812991,12.9436766 C41.2723991,12.7361766 40.9592991,12.5329766 40.6453991,12.3309766 C40.0169991,11.9275766 39.3783991,11.5358766 38.7304991,11.1539766 C37.4349991,10.3898766 36.1027991,9.66379655 34.7382991,8.96225655 C34.5674991,8.87510655 34.3962991,8.78751655 34.2249991,8.70036655 C34.0528991,8.61407655 33.8807991,8.52735655 33.7086991,8.44063655 C33.3563991,8.26589655 33.0035991,8.09072655 32.6500991,7.91512655 C31.9249991,7.55227655 31.2126991,7.18252655 30.5059991,6.81579655 C30.0939991,6.60136655 29.2773991,6.17940655 28.8730991,5.97662655 C28.1262991,5.43817655 27.3602991,4.95883655 26.5747991,4.54852655 C26.3808991,4.44584655 26.1725991,4.34272655 25.9770991,4.24867655 C25.7810991,4.15504655 25.5902991,4.06875655 25.4040991,3.99109655 C25.2191991,3.91516655 25.0393991,3.84871655 24.8638991,3.79219655 C24.6892991,3.73740655 24.5196991,3.69425655 24.3539991,3.66017655 C24.4600991,3.55921655 24.4719991,3.40820655 24.4617991,3.24684655 C24.4527991,3.08634655 24.4208991,2.91937655 24.4693991,2.78692655 C24.4940991,2.72177655 24.5396991,2.66223655 24.6210991,2.62426655 C24.6619991,2.60484655 24.7117991,2.58931655 24.7722991,2.57853655 C24.8327991,2.56903655 24.9043991,2.56645655 24.9882991,2.56903655 C25.1556991,2.57853655 25.3733991,2.61563655 25.6515991,2.70494655 C25.9297991,2.79382655 26.2675991,2.93490655 26.6803991,3.13768655 C26.7174991,3.04881655 26.7915991,2.87105655 26.8286991,2.78217655 C26.4256991,2.54444655 26.0588991,2.31577655 25.7158991,2.11213655 C25.3738991,1.90719655 25.0568991,1.72426655 24.7684991,1.56591655 C24.1924991,1.24794655 23.7353991,1.02056655 23.5296991,0.795784552 C23.4418991,0.684901552 23.4124991,0.574019552 23.4461991,0.467451552 C23.4546991,0.440701552 23.4669991,0.414382552 23.4836991,0.388064552 C23.4917991,0.375121552 23.5010991,0.362177552 23.5112991,0.349234552 C23.5164991,0.342762552 23.5215991,0.336290552 23.5274991,0.329818552 C23.5347991,0.323347552 23.5419991,0.317306552 23.5496991,0.310835552 C23.6118991,0.260786552 23.6961991,0.212896552 23.8048991,0.168025552 C24.0203991,0.0834613516 24.3364991,0.0114092516 24.7471991,0.0019173836 C25.1578991,-0.0110260484 25.6600991,0.0411792516 26.2138991,0.170182552 C26.8311991,0.322484552 27.4105991,0.527854552 27.9485991,0.731498552 C28.5058991,0.943771552 29.0685991,1.18408655 29.6313991,1.44338655 C30.7576991,1.96199655 31.8853991,2.55782655 33.0099991,3.15494655 C33.5727991,3.45351655 34.1350991,3.75250655 34.6978991,4.04114655 C34.9887991,4.18956655 35.2806991,4.33841655 35.5728991,4.48769655 C35.8693991,4.64085655 36.1666991,4.79402655 36.4636991,4.94718655 C37.0579991,5.25481655 37.6517991,5.56545655 38.2426991,5.87782655 C38.8347991,6.19105655 39.4231991,6.50299655 40.0054991,6.81104655 C40.7837991,7.23516655 41.5565991,7.67481655 42.3195991,8.13430655 C42.5108991,8.24820655 42.7008991,8.36512655 42.8899991,8.48291655 C43.0799991,8.59940655 43.2686991,8.71891655 43.4565991,8.83929655 C43.6452991,8.95837655 43.8322991,9.08047655 44.0188991,9.20386655 L44.2940991,9.38507655 L44.5288991,9.53737655 L44.7763991,9.69313655 L44.9019991,9.77165655 L45.0932991,9.88857655 L45.2278991,9.97271655 L45.3659991,10.0563766 L45.6432991,10.2220766 L46.1995991,10.5525766 L47.0430991,11.0422766 L47.8951991,11.5280766 L48.4680991,11.8503766 C50.0046991,12.7063766 51.5532991,13.5726766 52.9999991,14.4045766 C52.8712991,14.4593766 52.7294991,14.5154766 52.5931991,14.5710766 L52.1807991,14.7376766 L51.3564991,15.0685766 C50.1329991,15.5552766 48.9303991,16.0371766 47.7511991,16.5186766 C47.1606991,16.7593766 46.5749991,16.9997766 45.9942991,17.2413766 C45.4200991,17.4807766 44.8436991,17.7210766 44.2655991,17.9622766 C43.0437991,18.4571766 41.8142991,18.9701766 40.5882991,19.4861766 C39.3677991,20.0025766 38.1467991,20.5186766 36.9394991,21.0294766 C36.6412991,21.1562766 36.3434991,21.2831766 36.0469991,21.4091766 C35.7509991,21.5329766 35.4573991,21.6645766 35.1634991,21.7905766 C35.0164991,21.8535766 34.8695991,21.9164766 34.7229991,21.9790766 C34.6496991,22.0101766 34.5764991,22.0411766 34.5031991,22.0722766 C34.4311991,22.1037766 34.3595991,22.1356766 34.2880991,22.1671766 C34.0008991,22.2918766 33.7145991,22.4161766 33.4304991,22.5399766 C33.2319991,22.6361766 33.0172991,22.7474766 32.7927991,22.8691766 C32.7650991,22.8842766 32.7356991,22.8997766 32.7087991,22.9153766 C32.6819991,22.9312766 32.6551991,22.9472766 32.6282991,22.9631766 C32.5741991,22.9955766 32.5196991,23.0283766 32.4646991,23.0615766 C32.4097991,23.0947766 32.3543991,23.1288766 32.2981991,23.1629766 C32.2700991,23.1802766 32.2423991,23.1970766 32.2142991,23.2142766 C32.1860991,23.2315766 32.1571991,23.2488766 32.1324991,23.2665766 C32.0293991,23.3372766 31.9249991,23.4088766 31.8201991,23.4809766 C31.7651991,23.5167766 31.7204991,23.5538766 31.6735991,23.5900766 L31.5330991,23.6996766 C31.4848991,23.7350766 31.4418991,23.7743766 31.3979991,23.8127766 C31.3540991,23.8511766 31.3102991,23.8890766 31.2663991,23.9270766 C31.1662991,24.0202766 31.0665991,24.1130766 30.9681991,24.2049766 C30.9106991,24.2579766 30.8535991,24.3110766 30.7968991,24.3632766 C30.7704991,24.3882766 30.7346991,24.4184766 30.7035991,24.4456766 C30.6712991,24.4732766 30.6392991,24.5013766 30.6073991,24.5284766 C30.5429991,24.5832766 30.4803991,24.6385766 30.4164991,24.6902766 C30.3512991,24.7407766 30.2865991,24.7908766 30.2226991,24.8399766 C30.1582991,24.8887766 30.0952991,24.9366766 30.0326991,24.9841766 C29.9699991,25.0302766 29.9099991,25.0686766 29.8498991,25.1100766 C29.7297991,25.1907766 29.6134991,25.2671766 29.5013991,25.3387766 C29.2807991,25.4712766 29.0796991,25.5786766 28.9011991,25.6670766 C28.8564991,25.6886766 28.8133991,25.7093766 28.7720991,25.7279766 C28.7311991,25.7447766 28.6915991,25.7602766 28.6536991,25.7740766 C28.5778991,25.8016766 28.5087991,25.8237766 28.4470991,25.8383766 C28.1083991,25.9539766 27.9098991,25.9691766 27.7935991,25.9242766 C27.6772991,25.8767766 27.6431991,25.7723766 27.6341991,25.6472766 L28.4086991,25.2114766 C28.4947991,25.1635766 28.5807991,25.1079766 28.6668991,25.0565766 L28.9249991,24.8991766 C29.0110991,24.8456766 29.0966991,24.7968766 29.1831991,24.7368766 L29.4417991,24.5634766 C29.5277991,24.5047766 29.6138991,24.4503766 29.6994991,24.3839766 C30.0436991,24.1384766 30.3836991,23.8424766 30.6605991,23.5974766 C30.7274991,23.5400766 30.7951991,23.4787766 30.8607991,23.4239766 L31.0537991,23.2686766 C31.0852991,23.2419766 31.1189991,23.2177766 31.1530991,23.1935766 L31.2544991,23.1206766 L31.3553991,23.0477766 C31.3886991,23.0231766 31.4222991,22.9990766 31.4597991,22.9757766 L31.6787991,22.8350766 L31.7877991,22.7647766 L31.8422991,22.7293766 L31.9002991,22.6952766 C32.0553991,22.6046766 32.2103991,22.5140766 32.3654991,22.4238766 C32.4412991,22.3777766 32.5251991,22.3358766 32.6048991,22.2918766 L33.0892991,22.0303766 L33.2102991,21.9652766 L33.3346991,21.9022766 C33.5003991,21.8181766 33.6656991,21.7344766 33.8313991,21.6502766 L34.0792991,21.5247766 L34.2032991,21.4621766 L34.3293991,21.4013766 C34.6658991,21.2395766 35.0015991,21.0777766 35.3372991,20.9159766 C36.1671991,20.5406766 37.0076991,20.1773766 37.8558991,19.8205766 C38.2788991,19.6414766 38.7048991,19.4662766 39.1295991,19.2894766 L40.4093991,18.7673766 C41.2638991,18.4221766 42.1205991,18.0813766 42.9802991,17.7469766 L43.6252991,17.4967766 L43.9886991,17.3569766 L44.0380991,17.3375766 L44.4269991,17.1804766 L46.5484991,16.3322766 C45.8319991,16.6062766 45.1367991,16.8767766 44.4538991,17.1433766 C44.2915991,17.2067766 44.1287991,17.2706766 43.9660991,17.3345766 C43.8595991,17.3741766 43.7526991,17.4134766 43.6456991,17.4531766 C43.4326991,17.5334766 43.2188991,17.6136766 43.0053991,17.6939766 C42.1508991,18.0179766 41.2962991,18.3540766 40.4412991,18.7004766 C40.0135991,18.8730766 39.5871991,19.0503766 39.1589991,19.2281766 C38.7325991,19.4076766 38.3044991,19.5879766 37.8788991,19.7726766 C37.0255991,20.1410766 36.1769991,20.5198766 35.3381991,20.9151766 L34.3259991,21.3819766 C34.1559991,21.4587766 33.9927991,21.5415766 33.8257991,21.6209766 L33.3273991,21.8621766 C33.1590991,21.9410766 33.0010991,22.0269766 32.8378991,22.1097766 C32.6768991,22.1934766 32.5115991,22.2754766 32.3535991,22.3608766 L31.8853991,22.6210766 C31.8052991,22.6633766 31.7345991,22.7099766 31.6599991,22.7548766 L31.4388991,22.8898766 C31.3626991,22.9338766 31.2974991,22.9826766 31.2279991,23.0292766 C31.1598991,23.0766766 31.0895991,23.1223766 31.0222991,23.1707766 L30.7760991,23.3596766 L30.7248991,23.4019766 L30.6230991,23.4865766 L30.4070991,23.6673766 C30.3321991,23.7303766 30.2592991,23.7932766 30.1749991,23.8588766 C30.0931991,23.9235766 30.0121991,23.9887766 29.9299991,24.0521766 L29.6764991,24.2342766 L29.5495991,24.3248766 C29.5073991,24.3537766 29.4643991,24.3800766 29.4217991,24.4076766 L29.1661991,24.5716766 L29.0383991,24.6531766 C28.9957991,24.6794766 28.9531991,24.7032766 28.9105991,24.7282766 L28.6549991,24.8766766 L28.3993991,25.0246766 C28.3141991,25.0721766 28.2289991,25.1165766 28.1437991,25.1622766 L27.6320991,25.4349766 C27.6359991,25.2062766 27.6282991,24.9741766 27.3760991,24.9003766 C27.3760991,24.9003766 27.3257991,24.9306766 27.2422991,24.9763766 C27.1587991,25.0216766 27.0433991,25.0841766 26.9150991,25.1540766 C26.6577991,25.2921766 26.3510991,25.4630766 26.1440991,25.5695766 C25.2051991,25.7848766 24.7692991,25.6852766 24.6410991,25.4263766 C24.5132991,25.1674766 24.6917991,24.7498766 24.9882991,24.3252766 C25.0696991,24.2286766 25.1561991,24.1259766 25.2477991,24.0172766 C25.2937991,23.9637766 25.3409991,23.9084766 25.3895991,23.8524766 C25.4372991,23.7963766 25.4862991,23.7385766 25.5365991,23.6793766 L25.5356991,23.6824766 Z" id="Path"></path>
        </g>
    </g>
</svg>