<svg width="28" height="29" viewBox="0 0 28 29" fill="none" xmlns="http://www.w3.org/2000/svg">
<path d="M27.9184 15.6427C27.9064 15.4159 27.904 15.1443 27.916 14.8403C27.916 14.2313 27.9384 13.4882 27.8839 12.7044C27.8303 11.9223 27.7119 11.1027 27.5206 10.3637C27.3349 9.62222 27.0563 8.9718 26.7826 8.50593C26.4696 7.8555 26.1543 7.39614 25.9814 7.22459C25.8934 7.13922 25.8437 7.12296 25.8445 7.18963C25.8445 7.25549 25.899 7.40183 25.9974 7.65306C25.5412 6.79775 25.3691 6.47986 25.2338 6.18229C25.1594 6.03838 25.0874 5.90342 24.9721 5.72374C24.9161 5.63268 24.8408 5.53674 24.7496 5.4221C24.6567 5.30909 24.5519 5.17413 24.4118 5.02616C24.5759 5.12697 24.7288 5.23998 24.8905 5.34893C24.816 5.23511 24.7408 5.11559 24.6631 4.99282C24.5831 4.87168 24.4959 4.75054 24.4054 4.62452C24.359 4.56192 24.3118 4.4985 24.2645 4.43427C24.2157 4.37004 24.1613 4.30988 24.1061 4.24727C23.9956 4.12288 23.8788 3.99605 23.7483 3.87328L23.3969 3.65783C23.2801 3.58628 23.1656 3.51473 23.0447 3.45132C22.7158 3.08708 22.3844 2.80089 22.0539 2.55617C21.8858 2.43747 21.7217 2.32283 21.5544 2.21876C21.3847 2.11876 21.215 2.02201 21.0446 1.92526C20.3506 1.55777 19.6246 1.23255 18.6698 0.793518C19.2805 1.10979 19.1228 1.07483 18.8291 0.98702C18.5369 0.891082 18.0959 0.776444 18.1447 0.869943C18.0759 0.828478 17.9518 0.768314 17.8093 0.705711C17.6645 0.650425 17.5028 0.589447 17.3627 0.535787C17.2923 0.508957 17.2283 0.483753 17.173 0.462615C17.1178 0.443915 17.0738 0.426841 17.045 0.413833C16.9873 0.387816 16.9921 0.376433 17.1002 0.387816C16.8873 0.331717 16.6752 0.277244 16.4639 0.236592C16.2518 0.200819 16.0421 0.169923 15.8364 0.141467C15.6291 0.123581 15.4258 0.108133 15.2281 0.0934986C15.0304 0.079677 14.8359 0.0829291 14.6494 0.0764249C14.5557 0.0756119 14.4645 0.0691076 14.374 0.0707337C14.2836 0.0715467 14.1948 0.0723597 14.1083 0.0731728C14.0211 0.0723597 13.9362 0.0715467 13.853 0.0707337C13.7697 0.0682946 13.6881 0.0658555 13.6089 0.0674816C13.2903 0.0691076 13.0022 0.0398385 12.7476 0C12.5347 0.0455297 12.3226 0.0804901 12.1137 0.139841C11.8448 0.202445 11.5887 0.243096 11.3421 0.295943C11.2189 0.319521 11.0972 0.339847 10.9764 0.358547C10.8563 0.380498 10.737 0.40245 10.6186 0.424402C10.4993 0.444728 10.3817 0.465054 10.2632 0.485379C10.1455 0.510583 10.0287 0.535787 9.91023 0.560991C9.79177 0.587008 9.67251 0.610586 9.55246 0.641481C9.434 0.674816 9.31394 0.708963 9.19228 0.745549L9.09223 0.885391C9.05381 0.901651 9.01379 0.919538 8.97137 0.937425C8.92975 0.956937 8.88653 0.977263 8.8417 0.997589C8.75206 1.03905 8.65601 1.08133 8.55676 1.12442C8.35506 1.20572 8.14616 1.30898 7.93405 1.40085C7.72115 1.48947 7.51785 1.59435 7.32735 1.67647C7.13606 1.75696 6.96878 1.83826 6.83111 1.89111C6.05392 2.30982 5.25993 2.92772 4.56118 3.644C4.47154 3.73019 4.3875 3.82368 4.30345 3.91718C4.22021 4.00987 4.13617 4.10255 4.05293 4.19524C3.89045 4.38386 3.73837 4.5798 3.5839 4.76843C3.53187 4.83997 3.48065 4.90989 3.42862 4.97981C2.53938 6.01236 1.79821 7.18069 1.23954 8.44983C1.27715 8.30674 1.42603 7.9303 1.5789 7.60021C1.63173 7.47338 1.69016 7.35712 1.73658 7.25874C1.7822 7.16036 1.81742 7.07987 1.83183 7.03272C1.86144 6.93841 1.81182 6.97499 1.61492 7.25549C1.30997 7.9303 1.01382 8.65065 0.762499 9.40677C0.508773 10.1613 0.312676 10.9532 0.182211 11.7483C0.0501458 12.5434 -0.00988394 13.3426 0.00132161 14.1069C0.0133276 14.5833 0.0541478 15.0451 0.11978 15.4834C0.145393 15.7476 0.178209 16.0086 0.218229 16.2679C0.144593 16.4029 0.227033 17.1452 0.466352 17.9875C0.50237 18.1086 0.531184 18.2347 0.575206 18.3574C0.617627 18.481 0.660849 18.6054 0.70327 18.729C0.72488 18.7908 0.746491 18.8526 0.768102 18.9144C0.792914 18.9745 0.816926 19.0347 0.841738 19.0948C0.890562 19.2144 0.939387 19.3314 0.98661 19.4461C1.03143 19.5615 1.08746 19.6688 1.13628 19.7737C1.18591 19.8778 1.23393 19.9786 1.27956 20.0729C1.3708 20.2615 1.46445 20.4201 1.53328 20.551L1.50367 20.6526C1.55489 20.7697 1.61172 20.8786 1.66855 20.986C1.72538 21.0933 1.7814 21.199 1.83743 21.3047C1.95189 21.5152 2.08395 21.7161 2.22162 21.9356C2.51777 22.36 2.86834 22.8421 3.43582 23.4137C4.07774 24.1308 4.7901 24.7682 5.51686 25.3218C6.24362 25.8763 6.97838 26.3536 7.67392 26.7812C8.70804 27.3959 9.98627 27.8057 11.1172 27.9333C11.2589 27.9488 11.3974 27.9634 11.5326 27.9788C11.6679 27.9935 11.8016 27.9943 11.9304 28.0008C12.0593 28.0048 12.1842 28.0089 12.305 28.013C12.4259 28.0089 12.5419 28.0057 12.654 28.0024C12.7652 27.9975 12.8717 27.9927 12.9726 27.9886C13.0318 27.9845 13.0878 27.9788 13.143 27.9723C13.3327 27.9805 13.5224 27.9853 13.7145 27.9853C14.6406 27.9853 15.545 27.891 16.4199 27.713C16.4119 27.7162 16.4047 27.7195 16.3966 27.7227C16.4199 27.7162 16.4439 27.7105 16.4671 27.704C16.8169 27.6317 17.1618 27.5447 17.5012 27.4455C17.6004 27.4203 17.6989 27.3951 17.7989 27.3699L17.7805 27.3609C18.4313 27.1552 19.0612 26.9008 19.6671 26.6024C19.6527 26.6113 19.6375 26.6211 19.623 26.63L19.479 26.7121L19.1892 26.8764C19.8992 26.5951 19.3549 26.9341 19.1676 27.0495C18.9867 27.1178 18.8323 27.1682 18.7034 27.2178C18.5737 27.2658 18.4681 27.3113 18.3752 27.343C18.1919 27.4113 18.0743 27.4666 17.9686 27.5227C17.8638 27.5804 17.7669 27.63 17.6277 27.6902C17.558 27.7203 17.4772 27.7536 17.3779 27.7902C17.3283 27.8081 17.2747 27.8276 17.2155 27.8487C17.1554 27.8674 17.0898 27.8845 17.0186 27.904C16.8857 27.9244 16.6944 27.9585 16.5591 27.9756C16.4223 27.9894 16.3406 27.9845 16.4279 27.9431C16.2582 27.9805 16.0173 28.0276 15.7491 28.0634C15.6147 28.078 15.4738 28.0935 15.3321 28.1089C15.2617 28.1162 15.1904 28.1236 15.12 28.1317C15.0496 28.1357 14.9791 28.1406 14.9103 28.1447C14.635 28.165 14.3788 28.1845 14.1884 28.1992C13.9979 28.2171 13.8714 28.2447 13.8562 28.2878C13.7954 28.2813 13.7729 28.274 13.7177 28.2675C13.8346 28.4162 14.0931 28.5618 14.4645 28.7008C14.6494 28.7618 14.8623 28.8203 15.0984 28.8748C15.2169 28.9049 15.3401 28.9228 15.4682 28.9431C15.5971 28.9634 15.7307 28.9821 15.8692 29C16.0621 28.965 16.2494 28.9138 16.4319 28.8699C16.5231 28.8463 16.6128 28.8236 16.7016 28.8008C16.7896 28.7732 16.8761 28.7463 16.9609 28.7195C17.1306 28.6634 17.2963 28.613 17.4532 28.5528C17.6092 28.4902 17.7597 28.4284 17.903 28.3666C18.7194 28.178 19.4117 27.9089 20.0232 27.5959C20.1769 27.5195 20.3218 27.4317 20.4667 27.3495C20.5387 27.3073 20.6099 27.2658 20.6804 27.2243C20.7508 27.1821 20.818 27.1349 20.8861 27.091C21.0205 26.9999 21.1542 26.9105 21.2871 26.8203C21.4159 26.7251 21.5432 26.6276 21.6697 26.5308L21.8602 26.3853C21.9218 26.3341 21.9826 26.282 22.0442 26.23C22.1667 26.1267 22.2908 26.0227 22.4156 25.917C22.655 25.6934 22.9087 25.4779 23.1536 25.2316C23.4073 24.9958 23.6546 24.7332 23.9244 24.4649C24.0532 24.3251 24.1869 24.182 24.3262 24.0364C24.4654 23.8909 24.5991 23.7316 24.7448 23.5738C25.7165 22.3933 26.36 21.2364 26.8634 20.0502L26.9587 19.8282C26.9899 19.7542 27.0163 19.6778 27.0459 19.6022C27.1036 19.4518 27.1604 19.3005 27.218 19.1485C27.2692 18.9948 27.3205 18.8404 27.3725 18.6851C27.3981 18.6078 27.4245 18.5298 27.4509 18.4517C27.4733 18.3729 27.4966 18.2932 27.519 18.2135C27.5646 18.0534 27.6134 17.8932 27.6582 17.7298C27.6991 17.5655 27.7399 17.3989 27.7815 17.2306C27.8271 17.0631 27.8583 16.8899 27.8951 16.7151C27.9296 16.5403 27.9744 16.3639 28 16.1809C27.9512 16.0525 27.9264 15.8695 27.9208 15.6427H27.9184ZM23.1088 24.247C23.0159 24.3397 22.9215 24.434 22.815 24.5218C22.6822 24.621 22.5573 24.7202 22.4404 24.8178C22.3204 24.9121 22.2059 25.0015 22.0987 25.0901C21.8882 25.2714 21.6897 25.4218 21.5208 25.5584C21.3535 25.6967 21.199 25.7942 21.0726 25.865C20.9837 25.9129 20.9061 25.943 20.8389 25.9511C21.9514 25.2584 22.9591 24.4096 23.8315 23.4332C23.6891 23.612 23.5394 23.7925 23.3761 23.9747C23.2897 24.0649 23.2 24.156 23.1072 24.2478L23.1088 24.247Z" fill="#EF8D2B"/>
</svg>
