<svg width="98" height="97" viewBox="0 0 98 97" fill="none" xmlns="http://www.w3.org/2000/svg">
<g clip-path="url(#clip0_220_172)">
<path fill-rule="evenodd" clip-rule="evenodd" d="M46.8431 2.04967C46.8904 2.01792 46.9777 1.98682 47.0928 1.95638C47.2391 1.91724 47.4303 1.87951 47.6408 1.84322C47.8 1.81685 47.9698 1.79456 48.1391 1.77233C48.1937 1.76516 48.2482 1.758 48.3023 1.75071C48.5242 1.72154 48.739 1.69307 48.9203 1.6646C49.0951 1.63827 49.235 1.61194 49.3192 1.58419C49.4869 1.52867 49.4255 1.46748 48.9345 1.39276C48.2388 1.26822 47.7029 1.19493 47.2576 1.17784C46.8117 1.15578 46.4556 1.15792 46.1138 1.17998C45.772 1.19991 45.4423 1.21414 45.0491 1.22126C44.8522 1.22552 44.6395 1.2241 44.3998 1.21485C44.2799 1.21058 44.1536 1.20417 44.0194 1.19492C43.8853 1.18781 43.7433 1.18141 43.592 1.17073L43.6769 1.29171C43.5608 1.29933 43.4445 1.30623 43.3282 1.31314C43.0971 1.32688 42.8658 1.34062 42.6351 1.36003L41.594 1.45253L40.5543 1.57209C40.3809 1.59059 40.2082 1.61621 40.0355 1.64112L39.5167 1.71513C38.1345 1.9215 36.758 2.1905 35.3937 2.52212C34.0286 2.85232 32.6778 3.25154 31.3448 3.71126C30.0119 4.17098 28.6968 4.6919 27.4059 5.27258C24.822 6.43041 22.3402 7.84017 19.9939 9.46198C17.6477 11.0845 15.4363 12.9227 13.4069 14.9601C10.8559 17.8265 8.43113 21.0061 6.38815 24.476C6.26674 24.6758 6.15149 24.8794 6.03609 25.0831L6.00995 25.1293L5.63818 25.7876L5.103 26.7881L4.93174 27.1254L4.59064 27.8015C4.51365 27.957 4.43969 28.1139 4.36575 28.2707C4.33211 28.3421 4.29846 28.4135 4.26454 28.4847C4.08245 28.8596 3.91447 29.2409 3.74654 29.622C3.71112 29.7024 3.6757 29.7828 3.64016 29.8631C3.57117 30.0153 3.5078 30.1697 3.44447 30.3241C3.41218 30.4028 3.3799 30.4814 3.34688 30.5598C3.31462 30.6391 3.28187 30.7182 3.24913 30.7973C3.18554 30.9508 3.12198 31.1043 3.06216 31.2593C3.02267 31.3625 2.98332 31.4658 2.94398 31.569C2.89376 31.7008 2.84356 31.8325 2.79314 31.9638C2.77926 32.0007 2.76523 32.0375 2.7512 32.0744C2.72052 32.155 2.68979 32.2357 2.66041 32.3168L2.53554 32.6719C2.49381 32.7914 2.45225 32.9107 2.4107 33.03C2.36983 33.1473 2.32896 33.2646 2.28792 33.3821L2.28071 33.4046C2.20676 33.6355 2.13282 33.8664 2.05887 34.0966C1.93186 34.4824 1.82088 34.8724 1.71022 35.2612C1.68471 35.3509 1.65923 35.4404 1.63357 35.5298C1.58416 35.6993 1.54126 35.8709 1.49833 36.0426C1.47616 36.1313 1.45399 36.2199 1.43091 36.3084C1.39809 36.4386 1.36527 36.5688 1.33173 36.6998C1.29819 36.83 1.26608 36.9609 1.23754 37.0926C1.22252 37.159 1.20743 37.2254 1.19234 37.2918C1.08777 37.7523 0.982946 38.2138 0.895017 38.6802C0.67809 39.7441 0.511823 40.8223 0.369824 41.9032C0.100804 44.0673 -0.0297807 46.247 0.00375791 48.3827C0.0465737 52.6553 0.710918 56.7479 1.69566 60.2307C1.82695 60.6434 1.91758 61.0341 1.99893 61.4084C2.08242 61.782 2.14093 62.1428 2.19445 62.4979C2.24847 62.8245 2.29336 63.1474 2.33869 63.4734L2.35 63.5547C2.40423 63.907 2.46488 64.2614 2.53624 64.6293C3.6744 67.7839 5.25641 71.2667 7.3215 74.5907C7.37197 74.6705 7.42233 74.7504 7.47274 74.8304C7.68318 75.1645 7.89436 75.4997 8.11714 75.8275C8.16281 75.8956 8.20816 75.9639 8.25352 76.0321C8.34422 76.1686 8.43493 76.305 8.52817 76.4403L8.95275 77.0444L9.1661 77.3462L9.82616 78.2364L10.28 78.8185C10.3072 78.8532 10.3344 78.8879 10.3615 78.9225C10.4859 79.0815 10.6101 79.2401 10.7395 79.395L11.2077 79.9621C11.3107 80.0886 11.4179 80.211 11.525 80.3333C11.5788 80.3947 11.6326 80.4561 11.6858 80.5179C11.7397 80.5791 11.7932 80.6407 11.8466 80.7022C11.9529 80.8247 12.0591 80.947 12.1688 81.0659C12.3337 81.2445 12.4978 81.4231 12.6612 81.601C12.6884 81.6302 12.7154 81.6596 12.7425 81.6891C12.7973 81.7487 12.8522 81.8084 12.9081 81.8665C12.9923 81.9533 13.0758 82.0394 13.1593 82.1262C13.2142 82.1826 13.2691 82.2389 13.3239 82.2951C13.4366 82.4107 13.5491 82.5261 13.6609 82.6414C13.7454 82.7239 13.8295 82.8062 13.9134 82.8883C13.9997 82.9727 14.0858 83.057 14.1719 83.141C14.2158 83.1834 14.2596 83.226 14.3034 83.2686C14.4294 83.391 14.5552 83.5134 14.6849 83.6306C14.5843 83.531 14.4915 83.4299 14.4323 83.3616C14.6807 83.6024 14.9239 83.8377 15.1627 84.0688C15.269 84.1716 15.3745 84.2737 15.4791 84.375C15.6497 84.5387 15.8181 84.6995 15.9851 84.8589C16.0272 84.8998 16.0693 84.9406 16.1114 84.9812C16.1519 85.0204 16.1924 85.0596 16.2327 85.0987L16.4817 85.3321C16.5726 85.4184 16.6633 85.5043 16.7535 85.5898C16.8262 85.6586 16.8986 85.7271 16.9705 85.7954C17.0695 85.8906 17.1706 85.9828 17.2714 86.0747C17.3341 86.1319 17.3967 86.189 17.4586 86.2466C17.6206 86.396 17.7818 86.5448 17.9431 86.6928L17.9975 86.7409C18.1433 86.8699 18.2886 86.9984 18.4333 87.1269C18.7573 87.4186 19.092 87.6976 19.4295 87.9787C19.4716 88.0139 19.5139 88.0491 19.5562 88.0844C19.5984 88.1196 19.6407 88.1548 19.6828 88.19C19.7138 88.2146 19.7448 88.2392 19.7759 88.2639C19.8313 88.3079 19.8868 88.3519 19.9426 88.3957C20.0546 88.4833 20.167 88.5709 20.2799 88.6589C20.343 88.7081 20.4064 88.7575 20.4699 88.807C20.6079 88.9163 20.7512 89.0198 20.8956 89.1242C20.9356 89.1531 20.9757 89.1821 21.0158 89.2112C21.1234 89.2877 21.2315 89.3649 21.3402 89.4426C21.4196 89.4993 21.4994 89.5562 21.5795 89.6133C21.7729 89.7435 21.9698 89.8738 22.1703 90.004L22.225 90.0395C22.4077 90.1583 22.5927 90.2786 22.7855 90.3918C22.8141 90.3228 23.0562 90.4411 23.2973 90.559C23.4165 90.6172 23.5354 90.6753 23.6282 90.7107C23.711 90.8978 25.0075 91.724 27.0277 92.6506C27.1654 92.713 27.3061 92.7766 27.4497 92.8414C27.5694 92.8955 27.6911 92.9504 27.8148 93.0064L28.6632 93.3622C28.7256 93.3884 28.788 93.4142 28.8513 93.4403L28.883 93.4533C28.9572 93.4825 29.0321 93.5116 29.1078 93.5408C29.2583 93.5992 29.411 93.6582 29.5645 93.7173C29.6138 93.7362 29.6632 93.7553 29.7128 93.7745C29.818 93.8153 29.9239 93.8563 30.0311 93.8959C30.1895 93.9522 30.3494 94.0091 30.5107 94.0667C31.8001 94.5264 33.1923 94.9541 34.6052 95.3135C36.0173 95.675 37.4502 95.9618 38.8117 96.181C38.8721 96.1906 38.9322 96.2007 38.9921 96.2108C39.1012 96.2291 39.2096 96.2474 39.3184 96.2621C39.4868 96.2856 39.653 96.3091 39.8186 96.3326L39.8913 96.3429C40.1964 96.3864 40.4956 96.429 40.7905 96.46C40.8965 96.4721 41.0017 96.4845 41.106 96.4968C41.3139 96.5214 41.5183 96.5456 41.7188 96.566L41.926 96.5855C42.155 96.6072 42.3785 96.6283 42.5965 96.6485C42.7788 96.6678 42.9576 96.6803 43.1318 96.6924C43.2276 96.6991 43.3221 96.7057 43.415 96.7133C43.5162 96.7202 43.6157 96.7279 43.7135 96.7355C43.8687 96.7475 44.0195 96.7592 44.1657 96.7667L44.8422 96.8051C44.9119 96.8091 44.98 96.8134 45.0466 96.8175C45.1826 96.8261 45.3121 96.8342 45.4352 96.8385C45.8019 96.8549 46.1073 96.8727 46.3428 96.8919L46.3877 96.8957C46.5993 96.9135 46.7486 96.9261 46.8273 96.9474C47.0197 96.942 47.2154 96.9396 47.4136 96.9372C47.6286 96.9346 47.8467 96.932 48.0668 96.9254C48.1967 96.9312 48.3265 96.9368 48.4564 96.9425C48.5807 96.9478 48.7051 96.9532 48.8296 96.9588C48.9825 96.9652 49.1353 96.9685 49.2882 96.9719C49.3901 96.9741 49.492 96.9763 49.5939 96.9794L49.9771 96.9901L50.169 96.9958L51.1288 97.0036C51.3309 97.0076 51.533 97.0049 51.7354 97.0021C51.7896 97.0014 51.8438 97.0007 51.898 97.0001L52.6687 96.9915L53.4394 96.9673L53.8247 96.956L54.21 96.936C56.2644 96.835 58.3167 96.6322 60.3168 96.2842C64.32 95.6096 68.1177 94.377 71.2802 92.7118C72.5533 91.7938 73.9476 90.7398 74.8824 89.8147C75.175 89.6944 75.389 89.5671 75.5696 89.4404C75.7494 89.3116 75.8964 89.1828 76.0412 89.0376C76.0675 89.0117 76.0939 88.9854 76.1206 88.9588C76.2418 88.8382 76.3698 88.7108 76.5265 88.5743C76.6221 88.4904 76.7291 88.405 76.8497 88.3125C76.9696 88.2185 77.1045 88.1203 77.26 88.0164C77.4891 87.9282 77.7132 87.8414 77.9244 87.7481C78.1349 87.6542 78.3382 87.5595 78.5323 87.4649C78.9234 87.2792 79.2688 87.0806 79.5806 86.8942C79.8938 86.7099 80.1622 86.5241 80.3912 86.3548C80.6203 86.1847 80.8122 86.0331 80.9571 85.8965C81.5372 85.3499 81.4509 85.1621 80.5939 85.6766C81.7356 84.6006 82.8609 83.5096 83.9149 82.4087C84.9688 81.3086 85.9486 80.1956 86.7991 79.0961C87.5413 78.0393 88.2334 76.9612 88.8835 75.8396C89.4215 74.8797 89.8668 74.4406 90.3692 74.0919C90.534 73.778 90.6746 73.5176 90.798 73.2956C90.8483 73.206 90.8942 73.122 90.9373 73.0433C91.0005 72.9276 91.0575 72.8234 91.1127 72.7298C91.2645 72.4651 91.3919 72.2761 91.5137 72.0956C91.5379 72.0596 91.5619 72.0241 91.5858 71.9883C91.6322 71.9203 91.6796 71.8523 91.7293 71.7808C91.8365 71.6268 91.9549 71.4567 92.0996 71.2361C92.2038 71.0738 92.3173 70.8817 92.4521 70.6497C92.5863 70.4177 92.7418 70.1452 92.9088 69.8121C93.2306 69.5666 93.8907 67.7989 94.3774 65.9764C94.4227 65.8201 94.4619 65.6618 94.5009 65.5045C94.5183 65.434 94.5357 65.3637 94.5536 65.2939C94.5882 65.155 94.6223 65.0175 94.656 64.8814C94.6772 64.7958 94.6982 64.7108 94.7192 64.6264C94.7628 64.4309 94.8057 64.2398 94.8471 64.055C94.8983 63.8262 94.9474 63.6072 94.9932 63.4017C95.0695 63.0295 95.1395 62.7036 95.2015 62.446C95.2068 62.4243 95.2119 62.4031 95.2169 62.3824C95.2711 62.1576 95.3114 61.9902 95.35 61.9016C95.3404 61.9607 95.3313 62.02 95.3222 62.0794C95.3067 62.1801 95.2911 62.2809 95.2736 62.3812C95.5796 61.381 95.8841 60.4885 96.1759 59.6329C96.3604 59.092 96.5398 58.5659 96.7115 58.0367C97.1503 56.6718 97.5378 55.2841 97.7076 53.5961L97.759 53.1563L97.784 52.9357L97.804 52.7144C97.8296 52.4191 97.8553 52.1237 97.8803 51.827C97.897 51.6287 97.9079 51.4299 97.9189 51.2308C97.9244 51.1319 97.9298 51.0329 97.936 50.9339C97.9438 50.7845 97.9524 50.6351 97.9609 50.4857C97.9663 50.3735 97.9692 50.2607 97.9722 50.148C97.9732 50.1106 97.9741 50.0732 97.9752 50.0358C97.9792 49.8837 97.983 49.7317 97.9868 49.5796C97.9905 49.4312 97.9942 49.2828 97.9981 49.1342C97.9981 48.8338 97.9973 48.5328 97.9966 48.2311L97.9966 48.229C97.9985 47.9681 97.9902 47.7073 97.982 47.446C97.9807 47.4043 97.9793 47.3626 97.9781 47.3209L97.9638 46.8662L97.956 46.6385L97.9431 46.4107L97.8896 45.4998C97.8749 45.2849 97.856 45.0703 97.8371 44.8558C97.8293 44.7671 97.8215 44.6784 97.8139 44.5897L97.7733 44.1342L97.7219 43.6795C97.7093 43.5749 97.6976 43.4701 97.6858 43.3653C97.6636 43.1671 97.6414 42.9688 97.6134 42.7714C97.4557 41.5617 97.2424 40.3604 96.9955 39.1713C96.7443 37.9836 96.4425 36.8122 96.1114 35.6601C95.7753 34.5094 95.3956 33.3828 94.9939 32.2812C94.5836 31.1818 94.1433 30.1107 93.6823 29.0696C93.6292 28.9545 93.5764 28.8394 93.5236 28.7246C93.458 28.5819 93.3926 28.4395 93.327 28.2975C93.3084 28.2573 93.2898 28.2171 93.2712 28.177C93.2306 28.0894 93.1901 28.002 93.15 27.9146L92.9659 27.5368C92.9176 27.4387 92.87 27.3404 92.8225 27.2423C92.7487 27.0898 92.6751 26.9377 92.5991 26.7874L92.2223 26.053C92.0509 26.1002 92.244 26.4553 92.4627 26.8578C92.4817 26.8926 92.5008 26.9278 92.5199 26.9632C92.7504 27.4122 92.9773 27.8905 92.7747 28.0442C92.2302 26.8849 91.6572 25.7349 91.0528 24.5963L90.8244 24.17C90.7488 24.0277 90.6732 23.8854 90.5925 23.7452L90.118 22.8998L89.6249 22.0636C89.5436 21.9234 89.4587 21.7853 89.3723 21.648L89.1154 21.2345C88.4254 20.1351 87.6926 19.0569 86.9041 18.0165C86.1134 16.979 85.2707 15.9763 84.373 15.0248C84.226 14.8384 84.074 14.6391 83.9241 14.4377C83.8597 14.3514 83.7946 14.2658 83.7302 14.1814C83.6451 14.0695 83.5613 13.9595 83.4824 13.852C83.362 13.6903 83.2517 13.5355 83.1537 13.3979C83.1378 13.3756 83.1223 13.3539 83.1071 13.3326C82.9965 13.1803 82.9073 13.0507 82.8488 12.9547C82.2815 12.3263 82.0574 12.2011 81.8769 12.115C81.8566 12.1054 81.8368 12.0965 81.8169 12.0875C81.7479 12.0564 81.6785 12.0251 81.5893 11.9676C81.5315 11.9306 81.4659 11.8837 81.3867 11.8189C81.3067 11.7549 81.2118 11.6752 81.0984 11.5713L81.1919 11.2048C80.9963 11.0852 80.8215 10.965 80.6638 10.8433C80.504 10.7237 80.3584 10.6056 80.2242 10.4846C80.0075 10.2898 79.8207 10.0903 79.6374 9.89447C79.5944 9.84852 79.5515 9.80276 79.5085 9.75731C79.4609 9.70639 79.4137 9.65517 79.3663 9.60383C79.19 9.4127 79.0121 9.21982 78.8085 9.03358C78.5488 8.79945 78.2555 8.5646 77.8858 8.34471C77.8088 8.3746 77.6397 8.30415 77.4277 8.18246C77.3221 8.12127 77.2051 8.04796 77.0845 7.96684C76.9639 7.885 76.8376 7.7996 76.712 7.7142C76.7998 7.55622 76.4037 7.30359 76.0177 7.06306C75.9977 7.05105 75.9778 7.03909 75.9579 7.02718C75.5903 6.8068 75.2527 6.60444 75.3712 6.49305L75.3419 6.50656C75.2412 6.44064 75.148 6.38434 75.0558 6.32862C74.8652 6.21348 74.6787 6.10082 74.4378 5.91092C74.1082 5.77927 72.3906 5.11817 70.6516 4.58942C70.497 4.53938 70.3398 4.49447 70.1839 4.44996C70.1226 4.43243 70.0615 4.41497 70.0008 4.39728C69.8725 4.36085 69.7455 4.32443 69.6201 4.28845C69.5348 4.26398 69.4502 4.23973 69.3664 4.21582C68.992 4.11526 68.6349 4.0245 68.3124 3.94251L68.2062 3.9155C67.9042 3.84205 67.6339 3.78228 67.4111 3.73304C67.3749 3.72503 67.34 3.7173 67.3063 3.70984C67.0651 3.65718 66.8903 3.62018 66.8018 3.60808L66.5207 3.43799C66.0697 3.2729 65.7265 3.21596 65.5559 3.24016C65.3868 3.26151 65.3939 3.35189 65.6451 3.475L64.5426 3.06723C64.5686 3.07048 64.5943 3.07464 64.6201 3.07879C64.6397 3.08194 64.6592 3.0851 64.6789 3.08787C64.4367 3.00139 64.1929 2.91802 63.9492 2.83468C63.8239 2.79183 63.6986 2.74898 63.5736 2.70572C63.3788 2.60823 63.1911 2.38193 63.5593 2.325C63.2204 2.28942 62.8679 2.23533 62.5218 2.15919C62.1757 2.08305 61.8332 1.99693 61.5206 1.87738L62.1864 2.1478C62.3455 2.21216 62.5053 2.28352 62.667 2.35574C62.736 2.38653 62.8053 2.41748 62.875 2.44811C62.9482 2.48136 63.0219 2.51418 63.0959 2.54712C63.2562 2.6185 63.4177 2.69043 63.5779 2.76835L64.2836 3.11278C64.4807 3.20781 64.6749 3.31125 64.8685 3.41443C64.9069 3.4349 64.9453 3.45534 64.9836 3.47571C65.0298 3.50057 65.0759 3.52531 65.1219 3.55002C65.3066 3.64908 65.49 3.74751 65.6694 3.85003C65.8934 3.97955 66.1139 4.10978 66.3302 4.23858C66.3545 4.25322 66.3788 4.26778 66.4031 4.28232C66.4862 4.33208 66.5687 4.38147 66.6498 4.43215L66.9588 4.6307C66.5756 4.53605 66.0683 4.33252 65.5588 4.10836C65.3026 3.99948 65.0429 3.89344 64.7974 3.79524C64.6747 3.74685 64.5555 3.70059 64.4413 3.65931C64.3271 3.61804 64.2173 3.58602 64.1145 3.55684C63.8926 3.42305 63.6057 3.26862 63.2753 3.10566C62.9428 2.94981 62.5675 2.78187 62.1707 2.61393L62.0599 2.56981C61.6947 2.4244 61.3151 2.27324 60.9355 2.13499C60.7257 2.06098 60.5166 1.98697 60.3126 1.91439C60.1078 1.8418 59.9065 1.77063 59.7103 1.70872C59.5888 1.68934 59.4707 1.71615 59.3381 1.74624C59.2759 1.76034 59.2105 1.77517 59.1401 1.7863C59.0295 1.80409 58.9075 1.81192 58.7648 1.79483C58.6221 1.77775 58.4587 1.74003 58.2682 1.6582C58.0998 1.48456 57.8728 1.444 57.6102 1.40628C57.5833 1.40271 57.5559 1.39924 57.5282 1.39573C57.2853 1.36494 57.0146 1.33062 56.729 1.19137C57.4139 1.17114 58.0592 1.32209 58.7181 1.47623C58.8238 1.50098 58.93 1.52581 59.0367 1.55003C59.0203 1.46392 58.8975 1.37782 58.7113 1.30381C58.525 1.22979 58.276 1.16148 58.0105 1.09743C57.8778 1.0654 57.7408 1.0341 57.6052 1.00493C57.477 0.98016 57.3507 0.955387 57.2304 0.931797L57.2078 0.927349C56.953 0.87682 56.7275 0.828434 56.5755 0.780041C56.4221 0.802815 55.969 0.743748 55.4331 0.664761C55.1655 0.623486 54.8758 0.592884 54.5925 0.563702C54.3094 0.537388 54.0337 0.511761 53.7912 0.513897C54.0159 0.376545 53.8276 0.308941 53.5114 0.248455C53.414 0.231388 53.305 0.212437 53.1925 0.192928C53.3612 0.170437 53.5097 0.149174 53.6308 0.128979C53.6596 0.124828 53.6874 0.120762 53.7141 0.116795C53.9203 0.0854835 54.0645 0.0620002 54.1158 0.0463447C54.1679 0.0299797 54.1273 0.0171699 53.9646 0.0143242C54.0187 0.0488701 53.8851 0.0865745 53.6308 0.128979C53.4993 0.147999 53.3474 0.168888 53.1818 0.191067C53.127 0.181553 53.0714 0.171924 53.0159 0.162319L52.9791 0.155941C52.8863 0.138859 52.795 0.11964 52.7094 0.0990027C52.6237 0.0797919 52.5431 0.0577353 52.4725 0.0321158C51.821 -0.0475886 51.3971 0.0534627 51.6554 0.180134C51.6054 0.252491 51.7008 0.31036 51.8702 0.36021C51.6811 0.384632 51.4888 0.410198 51.2979 0.437031C51.0985 0.466739 50.9003 0.496212 50.7078 0.524883C50.5684 0.545665 50.432 0.566028 50.3003 0.585765C50.026 0.628971 49.7737 0.676029 49.5605 0.715793C49.5314 0.721225 49.503 0.72652 49.4754 0.731647C49.2457 0.775058 49.0694 0.811351 48.9709 0.83768C48.8739 0.864009 48.8575 0.880382 48.9331 0.881801C49.1328 0.915142 49.1505 0.963161 49.1094 1.01516C49.0166 1.03611 48.9692 1.0661 48.9947 1.11355C48.9527 1.14651 48.9175 1.17839 48.9181 1.20631C48.9174 1.23976 48.9688 1.26822 49.1222 1.28601L49.3854 1.20225C50.0163 1.22946 50.2349 1.33773 50.2311 1.49382C50.2282 1.63442 50.0368 1.81608 49.8114 2.00707C49.5411 2.00239 49.2704 2.00004 48.999 2.00004C48.2764 2.00004 47.5576 2.0167 46.8431 2.04967ZM50.7376 1.39439C50.7234 1.39936 50.7097 1.40427 50.6964 1.40912C50.4038 1.51587 50.3289 1.59629 50.6771 1.61692C50.7987 1.56935 50.8164 1.4849 50.7376 1.39439ZM50.2826 0.944591C50.2286 0.934208 50.1743 0.923816 50.1205 0.915256C49.9504 0.939724 49.7614 0.9528 49.5872 0.96484C49.5657 0.966327 49.5444 0.9678 49.5234 0.96928C49.3798 0.960254 49.2522 0.936389 49.1465 0.8875C49.2551 0.84975 49.4632 0.862049 49.6539 0.87331C49.7072 0.876461 49.7592 0.879535 49.8073 0.881404C49.5795 0.871677 49.7895 0.795543 50.2197 0.691089C50.4381 0.642696 50.7128 0.587192 51.0168 0.529545C51.0474 0.523815 51.0782 0.518001 51.1093 0.512142C51.2327 0.48888 51.3599 0.464901 51.4899 0.44273C51.5662 0.430713 51.6431 0.418537 51.7204 0.406353C51.7875 0.395756 51.8548 0.385151 51.9221 0.374637C52.1076 0.423549 52.3617 0.464901 52.6106 0.505398C52.6528 0.512272 52.6949 0.519123 52.7365 0.525982C53.1646 0.604862 53.5387 0.680744 53.4693 0.775844C53.4493 0.779713 53.4284 0.783726 53.4065 0.787868L53.2185 0.822307C52.8748 0.666439 51.7457 0.634807 51.1181 0.625614C51.1113 0.702282 51.1872 0.742847 51.2479 0.775272C51.2923 0.799007 51.3285 0.818378 51.3182 0.844349C51.1226 0.886226 50.8507 0.911045 50.5796 0.932399C50.4793 0.93481 50.3799 0.939266 50.2826 0.944591ZM52.9133 0.878185L53.2185 0.822307C53.2472 0.835323 53.2704 0.849201 53.2874 0.86401C53.3917 0.832645 53.4491 0.803432 53.4693 0.775844C53.5392 0.762272 53.5968 0.750439 53.6392 0.740612C53.6644 0.747425 53.6895 0.754177 53.7146 0.760921C53.819 0.788959 53.9231 0.816944 54.0266 0.849071C53.7819 0.878826 53.353 0.896908 52.9133 0.878185ZM52.6478 0.262462C52.8441 0.23801 53.0279 0.214878 53.1925 0.192928C53.189 0.19231 53.1854 0.191685 53.1818 0.191067C53.1046 0.201397 53.0245 0.212002 52.942 0.222828C52.8678 0.232082 52.7907 0.242756 52.7129 0.25272C52.6914 0.255871 52.6697 0.259136 52.6478 0.262462Z" fill="#EF8D2B"/>
<path d="M39.0535 52.5576C36.8464 54.708 34.6877 56.8542 32.8835 58.9721C32.4456 59.486 31.8266 60.0433 31.194 60.6128C30.0385 61.653 28.8376 62.7341 28.6124 63.6666L29.9594 62.3241C29.3496 63.3266 28.5019 64.0925 27.6541 64.8584C27.0885 65.3694 26.5228 65.8805 26.0278 66.4618C26.2477 66.6809 26.3576 66.7905 26.0181 67.3486C26.3027 67.0649 26.6213 66.7255 26.9557 66.369C27.6775 65.5999 28.4734 64.7517 29.1627 64.2145L29.4925 64.5432C29.0976 65.0467 28.5079 65.5796 27.9184 66.1123C27.33 66.644 26.7419 67.1754 26.3479 67.6773L26.7883 68.1161C26.8974 68.2244 26.4549 68.6669 26.0091 69.1112L27.7964 67.3299L28.2361 67.7682C28.346 67.8783 27.8978 68.325 27.4478 68.7735C27.5257 68.8512 27.5472 68.985 27.5674 69.1104C27.6041 69.3391 27.6363 69.5399 27.9975 69.3214L29.3451 67.9783C27.658 69.8789 27.3095 71.3219 27.6393 71.6506C27.8091 71.3714 27.9765 71.3141 28.1439 71.2569C28.311 71.1998 28.4781 71.1426 28.6474 70.8644C27.6303 72.5356 26.7218 74.3169 28.6281 72.6361C32.2951 69.1317 35.9446 65.5642 39.579 61.9557C41.396 60.1514 43.2092 58.337 45.0189 56.5147L47.7303 53.7761L49.0531 52.4348C52.8581 56.1258 56.6735 59.8019 60.4747 63.4644C64.0026 66.8636 67.5183 70.251 71.0022 73.6276C71.7496 74.2101 71.8164 73.9937 71.8905 73.7536C71.9164 73.6698 71.9431 73.5832 72 73.5265C71.5444 73.0726 71.0817 72.6257 70.6264 72.1859C69.2869 70.8921 68.0114 69.6601 67.1702 68.4942C66.9649 68.2892 67.1335 68.2736 67.355 68.2531C67.6175 68.2288 67.9543 68.1977 67.8304 67.8362L66.0329 66.0446C65.9734 65.6568 66.2504 65.6044 66.5274 65.5521C66.8047 65.4997 67.0821 65.4473 67.0222 65.0585C66.9565 64.6304 66.3123 63.9596 65.7099 63.3324C65.2212 62.8237 64.76 62.3435 64.6575 62.0448C63.5286 60.482 65.8855 62.6119 67.2324 63.9544C67.118 63.6212 67.3425 63.845 67.6232 64.1247C67.9038 64.4044 68.2406 64.74 68.3505 64.6305C68.7902 64.1922 69.2299 63.7539 67.7634 61.6348C67.5375 61.2632 67.8082 61.1923 68.079 61.1214C68.2143 61.0859 68.3497 61.0505 68.423 60.9774C63.0333 55.6056 57.1948 49.7865 51.366 44.8536C51.2572 44.7591 51.1473 44.6639 51.0374 44.5682L48.0783 42L46.2082 44.9451C46.0463 45.1997 45.8808 45.4556 45.7123 45.712C45.6479 45.8096 45.5833 45.9072 45.5182 46.0053C45.4978 46.0361 45.4773 46.067 45.4568 46.0979L45.3922 46.1949L45.3759 46.2189L45.368 46.231L45.3656 46.2352L45.3602 46.246C45.3535 46.2605 45.3463 46.2755 45.339 46.29C45.3336 46.2978 45.3278 46.3053 45.3221 46.3129C45.3164 46.3204 45.3106 46.3279 45.3052 46.3357C45.3028 46.3387 45.3046 46.3375 45.2985 46.3442L45.275 46.3694L45.2279 46.4194L45.133 46.5193C45.0129 46.6448 44.8927 46.7708 44.7721 46.8973L44.7501 46.9203C44.4934 47.1876 44.233 47.4549 43.9697 47.7228C43.4436 48.2586 42.9054 48.795 42.3612 49.332C41.6028 50.0799 40.8318 50.829 40.0608 51.578C39.7247 51.9046 39.3886 52.2312 39.0535 52.5576Z" fill="white"/>
<path d="M54.355 35.9796C56.4942 38.1769 58.6291 40.3262 60.736 42.1224L60.7348 42.1242C61.246 42.5601 61.8004 43.1764 62.3669 43.8062C63.4017 44.9565 64.4771 46.1521 65.4048 46.3763L64.0693 45.0353C65.0669 45.6426 65.8292 46.487 66.5915 47.3314C67.0996 47.8942 67.6076 48.4569 68.1853 48.9495C68.4033 48.7306 68.5123 48.6211 69.0675 48.9591C68.7853 48.6758 68.4476 48.3586 68.0931 48.0257C67.328 47.3071 66.4842 46.5147 65.9498 45.8285L66.2767 45.5002C66.7776 45.8932 67.3077 46.4804 67.8377 47.0673C68.3665 47.653 68.8952 48.2385 69.3945 48.6308L69.831 48.1924C69.9391 48.0833 70.3821 48.5275 70.8257 48.9728L69.0489 47.1887L69.4849 46.751C69.5945 46.6415 70.0389 47.0877 70.485 47.5357C70.5622 47.4582 70.6954 47.4368 70.8202 47.4167C71.0476 47.3802 71.2473 47.3481 71.03 46.9885L69.6939 45.6469C71.5845 47.3264 73.02 47.6734 73.347 47.3451C73.0693 47.176 73.0123 47.0093 72.9554 46.8428C72.8986 46.6764 72.8417 46.51 72.5649 46.3414C74.2274 47.3541 75.9994 48.2585 74.3274 46.3607C70.8413 42.7099 67.2924 39.0766 63.7028 35.4582C61.908 33.6494 60.103 31.8441 58.2902 30.0425L55.5659 27.3431L53.0896 24.901L53.0489 24.8607C53.0477 24.8613 53.0465 24.8619 53.0459 24.8619L53.0429 24.8619L53.0357 24.8523L53.0189 24.8294L49.4365 20L46.3445 23.1769C41.6997 27.9497 37.079 32.7492 32.48 37.5263C29.0987 41.0384 25.7292 44.5384 22.3704 48.0066C21.791 48.7507 22.0062 48.8172 22.2451 48.891C22.3284 48.9167 22.4147 48.9434 22.471 49C22.9226 48.5465 23.3671 48.0858 23.8046 47.6325C25.0916 46.2989 26.3172 45.0291 27.477 44.1916C27.6809 43.9872 27.6964 44.1551 27.7168 44.3756C27.741 44.6369 27.772 44.9722 28.1316 44.8489L29.9138 43.0593C30.2996 43.0001 30.3517 43.2758 30.4038 43.5517C30.4559 43.8277 30.5081 44.1038 30.8948 44.0443C31.3207 43.9789 31.9879 43.3375 32.6118 42.7377C33.1179 42.2512 33.5955 41.7921 33.8927 41.69C35.4474 40.5661 33.3286 42.9125 31.9931 44.2536C32.3246 44.1396 32.102 44.3631 31.8237 44.6425C31.5455 44.922 31.2116 45.2572 31.3206 45.3666C31.7566 45.8044 32.1925 46.2422 34.3006 44.7821C34.6703 44.5572 34.7408 44.8268 34.8113 45.0963C34.8466 45.2311 34.8819 45.3658 34.9545 45.4388C39.6251 40.7489 44.6357 35.7177 49.1004 30.6498C49.2486 30.794 49.397 30.9391 49.5455 31.0852C50.0784 31.609 50.612 32.1448 51.1462 32.6866C51.8904 33.4418 52.6357 34.2095 53.381 34.9772C53.7057 35.3117 54.0304 35.6462 54.355 35.9796Z" fill="white"/>
</g>
<defs>
<clipPath id="clip0_220_172">
<rect width="98" height="97" fill="white" transform="translate(98 97) rotate(-180)"/>
</clipPath>
</defs>
</svg>
