<svg width="109" height="8" viewBox="0 0 109 8" fill="none" xmlns="http://www.w3.org/2000/svg">
<g clip-path="url(#clip0_228_1412)">
<path d="M105.696 6.90975C105.228 6.87535 104.762 6.84094 104.299 6.80919C95.727 6.32225 87.1574 6.48368 77.6326 6.15818C70.9652 5.83267 63.3481 5.9941 56.6834 5.9941C72.4823 6.29314 89.0864 6.17935 104.267 7.3067C102.731 7.69043 100.899 7.99741 98.7637 7.99741C93.6268 7.84657 88.5567 7.74071 83.5294 7.66661V7.0209C69.2449 7.51048 55.9102 6.20846 41.6257 7.0209C42.134 7.10823 41.8317 7.24055 41.7274 7.3464C41.6926 7.3464 41.6578 7.3464 41.6257 7.3464C41.6578 7.3464 41.6926 7.3464 41.7274 7.3464C41.631 7.43902 41.6899 7.51048 42.5782 7.51048C41.6899 7.51048 41.631 7.43902 41.7274 7.3464C55.7818 7.18762 68.9212 7.3464 82.9542 7.66132C61.1622 7.35699 40.1542 7.67455 17.8164 7.67455H14.0091C10.1992 7.18762 6.38931 7.02354 2.58207 7.02354C3.53187 6.2111 -0.27537 4.58358 7.34446 4.90909V4.25808C-0.280721 3.44299 -3.13816 1.16446 4.48435 0.513453C13.054 -0.137556 24.4811 0.513453 34.9557 0.187948C42.5755 0.0265193 50.1953 -0.137556 57.8125 0.187948C68.2871 0.674882 79.7168 0.513453 90.1914 1.16446C94.0013 1.32589 100.669 0.838957 102.574 1.32589C103.941 1.55877 103.997 1.90545 103.786 2.29182C97.525 2.2336 91.283 2.21772 85.108 2.14627C77.5363 1.96367 69.9619 1.76254 62.3956 1.43704C69.7961 1.88428 77.3972 2.05629 85.108 2.14627C91.267 2.29446 97.4287 2.42943 103.588 2.60409C103.363 2.93753 103.146 3.28156 103.521 3.60442H106.378C110.188 4.41686 109.236 5.55745 107.333 6.36989C106.849 6.53396 106.303 6.72186 105.693 6.9071L105.696 6.90975Z" fill="#2E2D2C"/>
</g>
<defs>
<clipPath id="clip0_228_1412">
<rect width="109" height="8" fill="white"/>
</clipPath>
</defs>
</svg>
