<svg width="54" height="177" viewBox="0 0 54 177" fill="none" xmlns="http://www.w3.org/2000/svg">
<g clip-path="url(#clip0_220_558)">
<path d="M28.9688 0.148824C28.9688 0.148824 28.9688 0.148824 28.9688 0.149674C28.9706 0.145425 28.9724 0.140327 28.9742 0.136078C28.9724 0.140327 28.9715 0.144576 28.9697 0.148824H28.9688Z" fill="#EF8D2B"/>
<path d="M28.9654 0.156815C28.957 0.171749 28.9458 0.184195 28.9355 0.19747C28.9477 0.183365 28.9589 0.167601 28.9682 0.150177C28.9672 0.152666 28.9663 0.155155 28.9654 0.157644V0.156815Z" fill="#EF8D2B"/>
<path d="M28.9336 0.200075C28.9336 0.200075 28.9336 0.200075 28.9336 0.200937C28.9345 0.200075 28.9353 0.19835 28.9362 0.196625C28.9362 0.197487 28.9353 0.199212 28.9345 0.200075H28.9336Z" fill="#EF8D2B"/>
<path d="M-23.4598 0.169436L-23.801 0.00266648L-26.6324 0.226686L-25.261 0.232493C-25.3682 0.249087 -25.4969 0.263192 -25.646 0.275638C-31.0591 0.262363 -34.738 0.248258 -34.738 0.248258V12.4158C-34.849 19.5919 -35.0821 25.6412 -34.9655 35.518C-35.165 41.9648 -34.4332 53.1989 -34.4416 56.8612C-34.4322 64.3443 -34.6756 66.8475 -34.504 72.6612L-34.6607 71.873C-34.6737 89.1623 -34.4173 87.4796 -34.6989 94.7661L-34.7511 94.4948L-34.3278 106.82C-34.4723 112.301 -34.8658 110.344 -34.7623 123.241C-34.863 132.659 -34.7847 133.047 -34.8275 140.275L-34.7315 144.455L-34.6448 141.177C-34.6299 146.203 -34.4602 153.24 -34.5786 158.835C-34.6896 160.515 -34.7902 162.49 -34.8602 165.203C-34.8956 166.559 -34.9226 168.1 -34.9403 169.881C-34.9459 170.772 -34.9515 171.722 -34.9581 172.74C-34.9581 174.027 -34.9581 175.397 -34.9581 176.862C-34.0789 176.86 -33.155 176.858 -32.1956 176.857C-31.5709 176.853 -30.923 176.851 -30.2564 176.847C-18.2173 176.704 -14.171 176.947 -3.80551 176.847L3.72578 176.979L2.64056 176.93C5.65288 176.941 8.29321 176.951 10.7191 176.96C11.9321 176.968 13.09 176.974 14.2144 176.981C14.7766 176.984 15.3294 176.989 15.8767 176.992C16.8025 176.995 17.718 176.999 18.6271 177.002C18.6327 175.43 18.6382 173.885 18.6438 172.32C18.6457 171.089 18.6438 169.843 18.6354 168.545C18.6187 165.947 18.5804 163.138 18.4863 159.818C18.5003 158.357 18.5096 156.895 18.5086 155.431C18.4751 154.186 18.4359 152.921 18.3763 151.635C18.3632 151.313 18.3436 150.989 18.3268 150.665L18.3138 150.422L18.3045 150.187C18.2979 150.03 18.2924 149.874 18.2858 149.717C18.2793 149.56 18.2737 149.403 18.2672 149.246C18.2607 149.089 18.2616 148.926 18.2579 148.767C18.2532 148.446 18.2485 148.125 18.2448 147.802C18.2252 145.217 18.2662 142.568 18.3073 139.905C18.4108 134.573 18.5161 129.176 18.6187 123.95C18.7156 123.789 18.7725 121.952 18.8275 119.436C18.8406 118.807 18.8536 118.135 18.8676 117.438C18.8797 116.738 18.8928 116.012 18.9049 115.275C18.9114 114.907 18.9179 114.535 18.9189 114.159C18.9198 113.784 18.9301 113.407 18.9254 113.033C18.9217 112.287 18.9179 111.546 18.9142 110.825C18.793 108.05 18.7445 107.312 18.7007 106.16C18.6569 105.009 18.6103 103.446 18.4686 99.0282C18.4956 98.0583 18.3669 92.0787 18.49 94.7727L18.338 90.8358L18.3138 95.1038C18.2234 93.6169 18.1534 90.0766 18.0798 86.4068C18.1106 85.9853 18.1497 85.5979 18.1767 84.7225C18.187 84.2869 18.2001 83.7294 18.2178 82.9851C18.2327 82.2376 18.2513 81.3025 18.2756 80.1136L18.3483 71.2938L18.256 72.1227L18.3716 64.7666L18.1712 62.3903C18.4546 54.5895 18.104 48.7102 18.3735 40.9202L18.0872 45.993C18.0509 43.1496 18.1534 39.7362 18.1581 37.1708C18.2607 32.5236 18.2756 36.458 18.3073 37.944C18.3185 35.8175 18.3203 33.6835 18.311 31.557C18.366 30.5904 18.4397 29.0148 18.5003 28.5103C18.531 28.2581 18.5562 28.273 18.5767 28.7642C18.5972 29.2562 18.6075 30.2245 18.628 31.8806C18.6326 27.7661 18.7268 23.6549 18.945 19.5504C18.9067 19.2899 18.8051 20.2797 18.7184 21.1185C18.6326 21.9574 18.5562 22.646 18.5422 21.7765C18.4742 22.9074 18.4136 24.0391 18.3641 25.1716C18.3707 23.7794 18.3856 22.3872 18.4191 20.9949C18.1693 24.9476 18.0779 27.1023 18.0127 29.5558C17.9828 30.7829 17.9735 32.083 17.9651 33.7275C17.9576 35.3695 17.9483 37.3491 17.9371 39.9312C17.7973 34.4029 17.663 28.1444 17.9893 21.4164C18.0677 19.7346 18.1684 18.0238 18.2952 16.288C18.3259 15.8541 18.3595 15.4185 18.3949 14.9821C18.4285 14.5448 18.4658 14.1067 18.504 13.667C18.5404 13.2273 18.5814 12.7859 18.6233 12.3436C18.642 12.1213 18.6671 11.9031 18.6811 11.6766L18.7044 11.338L18.7175 11.0012C18.7734 9.2057 18.7436 7.39613 18.7277 5.56664C18.7194 4.65231 18.7119 3.73383 18.7035 2.8112C18.7035 2.58055 18.7035 2.34989 18.7035 2.11923C18.7054 1.88858 18.7072 1.65709 18.71 1.4256C18.7175 1.19495 18.7175 0.96263 18.7305 0.732803L18.7492 0.386818L18.7576 0.313804L18.7725 0.307996L18.7995 0.29638C18.8107 0.291402 18.8219 0.286424 18.8322 0.280616C18.8499 0.271489 18.8844 0.249917 18.9049 0.230004C18.9114 0.224196 18.9142 0.221707 18.9226 0.212581C18.9254 0.210092 18.9273 0.205943 18.9301 0.202624C18.9235 0.210092 18.9161 0.217559 18.9161 0.217559L18.9086 0.225026C18.8881 0.24328 18.8639 0.260703 18.8387 0.273979C18.8135 0.286424 18.7967 0.293062 18.7772 0.299699C18.7706 0.302188 18.7641 0.303848 18.7576 0.305507L18.7865 0.0466406C18.7725 0.1321 18.7566 0.219218 18.7417 0.309656C18.7324 0.312145 18.724 0.314634 18.7184 0.315464C18.6914 0.322101 18.6718 0.32542 18.6532 0.328739C18.6653 0.210092 18.6783 0.109698 18.6942 0.031706C18.6942 0.184371 11.7074 0.254895 2.82236 0.282276L-7.81822 0.00100708C-11.7414 0.184371 -18.8886 0.117995 -23.4644 0.170266L-23.4598 0.169436ZM2.41959 0.283105C0.656576 0.288083 -1.1773 0.292232 -3.04194 0.293891C-1.15958 0.281446 0.685478 0.273979 2.41959 0.283105ZM18.572 2.94478C18.5804 1.82801 18.6028 0.892935 18.656 0.346992C18.6746 0.341184 18.6942 0.335376 18.7119 0.329568L18.7399 0.319612L18.7455 0.317953C18.7333 0.392626 18.7231 0.468958 18.7166 0.549439C18.7072 0.639047 18.6979 0.731143 18.6877 0.824899C18.6802 0.919485 18.6727 1.01573 18.6653 1.11446C18.6504 1.31193 18.6364 1.5177 18.6261 1.73093C18.6149 1.945 18.6019 2.16653 18.5935 2.39635C18.586 2.57474 18.5786 2.75727 18.572 2.94478ZM17.6472 108.646C17.5866 106.203 17.5027 103.189 17.4141 100.083C17.4328 100.172 17.4505 100.188 17.4682 100.121C17.5829 102.8 17.6369 105.663 17.6472 108.646ZM17.4085 161.686C17.3386 156.781 17.2323 152.751 17.0953 150.5C16.9862 148.705 17.0057 145.083 17.085 140.751C17.1018 140.452 17.1148 140.454 17.1232 140.912C17.1652 137.042 17.2827 134.853 17.4048 132.716C17.5279 130.578 17.664 128.492 17.774 124.824C17.8383 128.044 17.4169 137.197 17.4122 142.475C17.3852 143.515 17.3694 144.361 17.3451 145.065C17.3237 145.769 17.3097 146.33 17.2892 146.799C17.2687 147.268 17.2519 147.644 17.237 147.977C17.2202 148.311 17.2062 148.601 17.1922 148.898C17.1745 149.196 17.1754 149.5 17.1736 149.861C17.1745 150.041 17.1764 150.236 17.1773 150.451C17.182 150.666 17.1913 150.902 17.2015 151.164C17.2416 152.214 17.2976 153.69 17.3852 155.99C17.4048 157.823 17.4113 159.732 17.4085 161.685V161.686ZM-5.28417 0.263192L-5.48928 0.295551C-9.50199 0.29804 -13.5865 0.295551 -17.3689 0.289743L-17.9647 0.280616C-14.7705 0.221707 -8.04943 0.261533 -5.28417 0.263192Z" fill="#EF8D2B"/>
<path d="M28.9746 0.136063C28.9821 0.121128 28.9886 0.105364 28.9923 0.0895996C28.9886 0.105364 28.9811 0.120299 28.9746 0.136063Z" fill="#EF8D2B"/>
<path d="M28.9922 0.0896094C28.9968 0.0688669 28.9996 0.0489541 28.9996 0.0307007C28.9996 0.0489541 28.9968 0.0696966 28.9922 0.0896094Z" fill="#EF8D2B"/>
</g>
<defs>
<clipPath id="clip0_220_558">
<rect width="54" height="177" fill="white"/>
</clipPath>
</defs>
</svg>
