<svg width="271" height="278" viewBox="0 0 271 278" fill="none" xmlns="http://www.w3.org/2000/svg">
<path d="M153.506 277.016C155.372 276.682 157.184 276.192 158.95 275.773C159.833 275.548 160.7 275.33 161.559 275.113C162.411 274.849 163.248 274.593 164.069 274.336C165.71 273.8 167.313 273.319 168.831 272.744C170.341 272.146 171.797 271.556 173.183 270.966C181.082 269.164 187.781 266.594 193.697 263.604C195.184 262.874 196.585 262.035 197.987 261.251C198.684 260.847 199.373 260.451 200.055 260.055C200.736 259.651 201.387 259.201 202.045 258.781C203.346 257.912 204.639 257.05 205.925 256.195C207.171 255.287 208.403 254.355 209.626 253.431L211.469 252.041C212.066 251.551 212.654 251.054 213.25 250.557C214.435 249.571 215.636 248.577 216.844 247.567C219.159 245.432 221.614 243.374 223.984 241.021C226.438 238.769 228.831 236.26 231.441 233.698C232.688 232.362 233.981 230.995 235.328 229.605C236.676 228.215 237.969 226.693 239.379 225.186C248.78 213.91 255.006 202.867 259.877 191.529L260.798 189.409C261.1 188.702 261.356 187.972 261.642 187.25C262.2 185.813 262.75 184.369 263.307 182.917C263.803 181.449 264.299 179.974 264.802 178.49C265.05 177.752 265.305 177.007 265.561 176.261C265.778 175.508 266.002 174.747 266.219 173.986C266.661 172.456 267.133 170.926 267.567 169.365C267.962 167.797 268.356 166.205 268.759 164.597C269.201 162.997 269.503 161.343 269.859 159.674C270.192 158.004 270.625 156.319 270.873 154.571C270.401 153.344 270.161 151.597 270.107 149.43C269.99 147.264 269.967 144.67 270.083 141.766C270.083 135.949 270.3 128.851 269.774 121.365C269.255 113.894 268.109 106.066 266.258 98.999C264.461 91.9166 261.766 85.7039 259.118 81.2541C256.09 75.0414 253.039 70.6537 251.366 69.0151C250.514 68.1997 250.034 68.0443 250.042 68.6811C250.042 69.3102 250.569 70.708 251.521 73.0999C247.107 64.9302 245.442 61.8938 244.133 59.0515C243.413 57.6769 242.716 56.3878 241.601 54.6716C241.059 53.8018 240.331 52.8854 239.448 51.7904C238.55 50.711 237.536 49.4218 236.18 48.0085C237.768 48.9714 239.247 50.0509 240.811 51.0915C240.091 50.0043 239.363 48.8627 238.612 47.6901C237.838 46.533 236.993 45.3758 236.118 44.1721C235.669 43.5742 235.212 42.9684 234.755 42.3549C234.283 41.7414 233.756 41.1668 233.222 40.5688C232.153 39.3806 231.023 38.1691 229.761 36.9965L226.361 34.9385C225.23 34.2552 224.123 33.5718 222.954 32.966C219.771 29.4869 216.565 26.7533 213.367 24.4158C211.74 23.282 210.153 22.187 208.534 21.193C206.893 20.2378 205.251 19.3137 203.601 18.3895C196.887 14.8794 189.864 11.773 180.625 7.57947C186.534 10.6004 185.008 10.2664 182.166 9.42774C179.34 8.51137 175.073 7.41638 175.545 8.30946C174.879 7.9134 173.679 7.33873 172.3 6.74076C170.899 6.21268 169.334 5.63024 167.979 5.11769C167.298 4.86142 166.678 4.62068 166.144 4.41877C165.61 4.24015 165.184 4.07707 164.905 3.95282C164.347 3.70431 164.394 3.59559 165.439 3.70431C163.379 3.16847 161.327 2.64815 159.283 2.25986C157.231 1.91816 155.202 1.62306 153.211 1.35126C151.206 1.18041 149.239 1.03286 147.326 0.893072C145.413 0.761053 143.532 0.792116 141.727 0.72999C140.821 0.722224 139.938 0.660097 139.063 0.675629C138.188 0.683395 137.329 0.69116 136.492 0.698926C135.648 0.69116 134.827 0.683395 134.022 0.675629C133.217 0.652331 132.427 0.629034 131.66 0.644565C128.578 0.660097 125.79 0.380527 123.328 0C121.268 0.434887 119.215 0.768819 117.194 1.33573C114.592 1.9337 112.114 2.32199 109.729 2.82677C108.537 3.05198 107.359 3.24612 106.19 3.42474C105.029 3.63442 103.875 3.84409 102.729 4.05377C101.575 4.24792 100.436 4.44206 99.2903 4.63621C98.1519 4.87695 97.0213 5.11769 95.8752 5.35843C94.7291 5.60694 93.5752 5.83215 92.4136 6.12725C91.2675 6.44565 90.1059 6.77182 88.9288 7.12128L87.9608 8.45701C87.5891 8.61232 87.2019 8.78317 86.7915 8.95402C86.3888 9.1404 85.9706 9.33455 85.537 9.52869C84.6697 9.92475 83.7404 10.3286 82.7801 10.7402C80.8287 11.5168 78.8075 12.503 76.7553 13.3806C74.6954 14.227 72.7285 15.2288 70.8854 16.0132C69.0346 16.782 67.4161 17.5586 66.0842 18.0634C58.5648 22.0628 50.8827 27.9648 44.1223 34.8065C43.2549 35.6297 42.4418 36.5228 41.6287 37.4159C40.8233 38.3012 40.0102 39.1865 39.2049 40.0718C37.6328 41.8734 36.1615 43.745 34.6669 45.5467C33.273 47.4416 31.8636 49.2743 30.5548 51.1303C29.3003 53.0252 28.0071 54.8346 26.861 56.6674C25.5213 58.3448 24.4526 59.7427 23.5853 60.9308C22.7722 62.1578 22.1681 63.1674 21.6958 64.0216C20.7432 65.7379 20.3483 66.8484 20.0928 67.9822C19.8217 69.1005 19.6204 70.1955 19.0473 71.8574C18.7453 72.6728 18.4201 73.6746 17.9554 74.8861C17.4985 76.1053 16.8558 77.5187 16.1124 79.2738C13.7969 83.5217 11.4195 89.7188 9.68486 95.5976C9.22023 97.0576 8.87949 98.5253 8.47681 99.9076C8.08961 101.29 7.67918 102.602 7.39265 103.845C7.07515 105.08 6.7499 106.213 6.42466 107.208C6.26203 107.705 6.09941 108.17 5.93679 108.598C5.78965 109.025 5.65026 109.421 5.50313 109.762C5.57282 109.343 5.63477 108.939 5.69672 108.551C5.77416 108.163 5.8516 107.774 5.92904 107.409C6.07618 106.664 6.20008 105.957 6.31624 105.282C6.5563 103.93 6.68021 102.688 6.87381 101.546C7.261 99.2708 7.4546 97.2905 7.75662 95.3025C8.11284 93.3377 8.46906 91.3264 9.1273 88.9811C9.49127 87.824 9.91718 86.5814 10.436 85.2069C10.6993 84.5235 10.9626 83.8013 11.2956 83.0635C11.6363 82.3257 12.0081 81.5569 12.4107 80.7493C10.9084 83.1101 13.0535 77.3634 15.276 72.6184C15.7871 71.407 16.3524 70.2964 16.8016 69.3568C17.2507 68.4171 17.5837 67.6561 17.7231 67.2056C18.0096 66.3048 17.5295 66.6543 15.6245 69.3335C12.674 75.7791 9.80877 82.6597 7.37716 89.8819C4.92233 97.0886 3.02506 104.653 1.76279 112.248C0.492782 119.827 -0.0957597 127.461 0.0126558 134.761C0.206255 142.068 1.09681 149.011 2.56042 155.239C1.18199 154.463 1.83249 162.5 4.5119 171.827C4.86038 172.984 5.13916 174.188 5.56508 175.361C5.97551 176.541 6.39368 177.729 6.80411 178.91C7.0132 179.5 7.22228 180.09 7.43137 180.68C7.67143 181.255 7.90375 181.83 8.14382 182.404C8.6162 183.546 9.08858 184.664 9.54547 185.759C9.97914 186.862 10.5212 187.887 10.9936 188.889C11.4737 189.883 11.9384 190.846 12.3798 191.747C13.2626 193.548 14.1686 195.063 14.8346 196.313L14.5481 197.284C15.0437 198.402 15.5935 199.442 16.1433 200.468C16.6932 201.493 17.2352 202.502 17.7773 203.512C18.8847 205.523 20.1624 207.441 21.4944 209.538C24.3597 213.592 27.7515 218.197 33.242 223.656C39.4527 230.506 46.3448 236.594 53.3763 241.883C60.4078 247.179 67.5168 251.738 74.2463 255.823C84.2515 261.693 96.6186 265.607 107.561 266.827C108.931 266.974 110.271 267.114 111.58 267.262C112.889 267.401 114.182 267.409 115.429 267.471C116.675 267.51 117.884 267.549 119.053 267.588C120.222 267.549 121.345 267.518 122.429 267.487C123.506 267.44 124.536 267.394 125.511 267.355C126.487 267.293 127.409 267.168 128.268 267.075C129.995 266.873 131.474 266.679 132.69 266.493C125.775 265.864 119.061 265.134 112.525 264.14C106.012 263.068 99.7162 261.678 93.7301 259.938C90.7796 258.944 87.8447 258.075 85.0878 256.886C83.7094 256.304 82.3155 255.799 80.999 255.147C79.6825 254.51 78.3816 253.866 77.1116 253.213C75.8261 252.592 74.6412 251.808 73.4409 251.093C72.2638 250.348 71.0713 249.664 69.9871 248.833C67.8033 247.202 65.7047 245.61 63.9081 243.754C65.8131 245.137 67.602 246.201 69.1895 247.171C69.9871 247.653 70.7383 248.119 71.4585 248.523C72.1941 248.903 72.8988 249.268 73.5571 249.61C74.8968 250.278 76.0816 250.899 77.2277 251.396C78.3816 251.87 79.458 252.289 80.5034 252.677C82.5865 253.501 84.6387 254.021 86.9851 254.673C87.5736 254.836 88.1777 254.999 88.8204 255.17C89.4632 255.318 90.1369 255.465 90.8493 255.621C92.2665 255.923 93.7998 256.327 95.5577 256.677C94.3883 256.203 93.2655 255.621 92.1271 255.093C90.9965 254.541 89.8426 254.052 88.7352 253.462C90.6945 253.998 92.6847 254.44 94.6439 254.929C93.3197 253.99 94.6129 254.021 96.154 254.036C97.7105 254.036 99.4993 254.091 99.1896 253.524C92.2897 251.575 85.5525 249.027 79.0863 245.913C84.1663 248.678 84.9097 249.509 83.9108 249.587C82.9118 249.656 80.1704 248.965 78.3816 248.693C76.7089 247.8 75.0594 246.868 73.4022 245.96C71.7605 245.028 70.173 243.987 68.5545 243.009C70.5989 244.702 76.5308 248.569 69.0424 244.896C67.0676 243.716 64.7909 242.294 62.46 240.842C61.2829 240.128 60.191 239.273 59.0914 238.458C58.0149 237.619 56.9385 236.812 56.0557 235.872L57.1012 236.377L58.1698 236.835L60.2994 237.744L62.4135 238.644C63.1182 238.94 63.8539 239.188 64.5663 239.46C62.9943 238.722 61.5927 237.821 60.2375 236.913C59.5637 236.462 58.8978 235.996 58.255 235.53C57.6045 235.072 57.016 234.536 56.4119 234.039C55.2271 233.014 54.0578 232.012 52.9736 230.941C51.9204 229.838 50.8673 228.751 49.8218 227.656C45.7485 223.159 42.0082 218.546 37.0288 213.794L36.0918 209.251C33.4588 205.935 31.0427 202.448 28.7582 198.883L30.1367 199.707L29.1454 198.091C28.8125 197.555 28.5337 196.988 28.2239 196.437L26.4041 193.113C25.8078 192.003 25.289 190.846 24.7314 189.72C24.1893 188.578 23.593 187.468 23.1284 186.295C22.2223 184.462 21.4325 183.057 20.782 181.923C20.1779 180.781 19.6668 179.942 19.2177 179.306C18.3271 178.024 17.6689 177.551 17.0804 176.984C16.5383 175.477 16.0117 173.978 15.5006 172.549C15.3689 172.192 15.245 171.835 15.1134 171.493C15.005 171.136 14.8966 170.787 14.7959 170.445C14.5868 169.754 14.3855 169.086 14.1996 168.449C13.8356 167.168 13.4562 166.011 13.2703 164.978C13.069 163.953 12.9373 163.083 12.8986 162.43C13.3942 163.588 13.8356 164.752 14.3622 165.886L15.973 169.264L15.2373 165.948C14.974 164.853 14.8423 163.72 14.6333 162.609C14.9508 164.916 14.4474 163.588 13.7582 161.483C12.9993 159.386 12.3643 156.443 11.9461 155.659C11.8067 154.711 11.6286 153.849 11.5512 153.034C11.466 152.226 11.3885 151.488 11.3111 150.805C11.164 149.446 11.0401 148.335 10.9394 147.396C10.831 145.509 10.7845 144.336 10.769 143.334C10.769 142.332 10.738 141.517 10.8619 140.337C10.9704 139.164 11.102 137.65 11.3188 135.25C11.2027 134.015 11.2027 132.742 11.1872 131.46V129.534C11.1872 128.89 11.2104 128.253 11.2724 127.624C11.3808 126.358 11.4892 125.116 11.5899 123.92C11.6441 123.322 11.6906 122.731 11.7602 122.165C11.8454 121.598 11.9229 121.038 12.0003 120.503C12.1552 119.431 12.2946 118.429 12.3953 117.528C12.4417 117.078 12.4882 116.651 12.5269 116.247C12.5811 115.851 12.6276 115.478 12.6663 115.136C12.8057 113.777 12.7437 112.884 12.3643 112.675C14.4629 103.853 17.2972 94.9452 21.0917 86.5814C24.8553 78.2098 29.4165 70.3353 34.4346 63.4237L35.3174 61.7385L36.2776 60.0999L38.2059 56.7994C39.0887 55.8753 39.9405 54.9822 40.7691 54.1202C41.59 53.2504 42.3566 52.3884 43.1775 51.6196C43.9674 50.8275 44.7418 50.0509 45.493 49.2976C45.8724 48.9248 46.2209 48.5365 46.6003 48.1793C46.9798 47.8221 47.3515 47.4726 47.7232 47.1232C49.2101 45.7408 50.5575 44.3275 52.0056 43.0849C52.7103 42.4404 53.4073 41.8036 54.1042 41.1745C54.4527 40.8561 54.7935 40.53 55.1419 40.2193L56.2183 39.3107C59.0604 36.8489 62.0031 34.4571 65.4027 32.0264C67.1296 30.8459 68.8875 29.5335 70.9009 28.3609C71.8999 27.7551 72.9221 27.1261 73.983 26.4815C75.0671 25.8836 76.2055 25.2856 77.3826 24.6643L76.1126 25.8603C77.7388 24.7963 79.3418 23.6548 81.0377 22.6996C82.7259 21.7211 84.3831 20.6416 86.141 19.7641C87.1013 19.4534 88.0228 19.1428 88.9056 18.8322C89.347 18.6769 89.7807 18.5215 90.2066 18.3662C90.6403 18.2342 91.0662 18.1022 91.4844 17.9702C93.157 17.4421 94.6981 16.8907 96.1849 16.3782C99.1973 15.4696 101.908 14.4522 104.781 13.699C110.488 12.0914 116.722 10.647 126.146 10.8334C136.252 10.7169 143.547 11.1129 149.216 11.2682C154.892 11.3925 158.957 11.276 162.489 10.9964C163.116 11.0741 163.751 11.1595 164.394 11.2605C165.029 11.3847 165.672 11.5323 166.314 11.6876C167.607 11.9905 168.916 12.3399 170.24 12.7127C171.549 13.1243 172.85 13.6135 174.159 14.0872L176.118 14.825C176.769 15.0735 177.396 15.3841 178.031 15.6637C179.293 16.2384 180.548 16.8131 181.787 17.38C183.003 17.9779 184.18 18.6303 185.341 19.2205C187.68 20.3776 189.786 21.6822 191.776 22.7229L188.996 21.7288C188.075 21.4027 187.161 21.0532 186.216 20.7892C187.293 21.4027 188.307 22.1482 189.345 22.8238C190.375 23.5228 191.412 24.1906 192.427 24.9051C195.222 26.4349 197.391 27.561 199.149 28.7492C200.922 29.9063 202.463 30.8537 204.004 32.0108C205.553 33.1524 207.272 34.2629 209.332 35.8704C210.362 36.6626 211.562 37.478 212.848 38.4953C214.133 39.5126 215.574 40.662 217.215 41.9589C221.242 46.0359 224.053 48.9637 226.245 51.0915C228.39 53.2582 230.047 54.5085 231.371 55.5258C232.727 56.5121 233.888 57.1411 235.166 57.972C236.389 58.8418 237.714 59.9213 239.425 61.7773C243.072 68.3938 246.108 75.2744 248.516 82.3024L248.741 81.6656C249.686 83.0402 250.538 84.1973 251.173 85.2845C251.808 86.364 252.35 87.3269 252.83 88.2588C253.829 90.0993 254.448 91.8467 255.207 94.1454C255.393 94.72 255.594 95.3335 255.804 95.9859C256.013 96.646 256.175 97.3682 256.384 98.137C256.586 98.9136 256.802 99.7445 257.035 100.645C257.267 101.546 257.546 102.517 257.747 103.589C257.972 104.653 258.22 105.802 258.483 107.052C258.615 107.673 258.769 108.318 258.893 108.994C259.009 109.669 259.126 110.376 259.25 111.106C259.482 112.566 259.807 114.127 260.032 115.828C260.249 117.528 260.481 119.353 260.729 121.303L261.929 119.718C261.766 125.123 262.107 128.89 262.51 133.107C262.905 137.308 263.307 141.96 262.61 148.864C262.216 152.234 260.884 159.029 258.653 166.197C258.421 167.105 258.119 167.999 257.817 168.907C257.53 169.816 257.236 170.724 256.95 171.633C256.423 173.466 255.742 175.236 255.176 176.999C254.897 177.884 254.619 178.754 254.348 179.609C254.046 180.455 253.759 181.286 253.496 182.101C252.946 183.724 252.567 185.316 252.125 186.745C251.42 188.097 250.762 189.401 250.135 190.675C249.508 191.948 248.811 193.144 248.207 194.34C247.022 196.74 245.76 198.93 244.644 201.073C244.358 201.609 244.102 202.145 243.808 202.665C243.514 203.178 243.227 203.69 242.941 204.195C242.383 205.213 241.833 206.214 241.291 207.201C240.207 209.173 239.053 211.021 237.992 212.916C236.877 214.772 235.692 216.558 234.539 218.391C233.323 220.177 232.03 221.932 230.698 223.742C229.296 225.481 227.809 227.244 226.198 229.03C225.362 229.892 224.495 230.762 223.596 231.64C222.698 232.525 221.784 233.426 220.754 234.265C219.469 235.212 218.261 236.159 217.13 237.091C215.969 237.992 214.861 238.846 213.823 239.693C211.787 241.425 209.866 242.861 208.232 244.166C206.614 245.486 205.119 246.418 203.896 247.094C202.664 247.746 201.658 248.072 200.845 247.886C201.487 247.482 202.115 247.055 202.75 246.643C201.882 246.736 201.038 246.845 200.179 246.915L197.584 247.086L197.925 248.794C197.066 249.198 196.175 249.641 195.261 250.115C194.332 250.557 193.364 251.015 192.38 251.481C191.397 251.955 190.398 252.437 189.399 252.918C188.369 253.353 187.331 253.788 186.309 254.215C185.279 254.634 184.257 255.061 183.243 255.426C182.213 255.76 181.198 256.079 180.215 256.351C179.231 256.622 178.279 256.863 177.365 257.057C176.436 257.213 175.553 257.306 174.724 257.352C169.621 260.257 164.208 262.625 158.64 264.846C160.739 264.287 162.946 263.697 165.246 263.216C167.522 262.649 169.861 262.059 172.207 261.476L171.603 261.173C172.695 260.824 174.151 260.272 175.824 259.682C176.652 259.372 177.551 259.092 178.449 258.719C179.347 258.354 180.277 257.981 181.206 257.601C182.143 257.236 183.08 256.863 184.001 256.498C184.915 256.11 185.806 255.722 186.665 255.357C188.385 254.634 189.98 254.06 191.219 253.563C190.762 253.842 190.313 254.137 189.856 254.401L188.462 255.186L185.659 256.754C192.528 254.067 187.262 257.306 185.45 258.401C183.699 259.053 182.205 259.535 180.958 260.008C179.704 260.466 178.681 260.901 177.783 261.204C176.01 261.857 174.871 262.385 173.849 262.921C172.835 263.472 171.898 263.946 170.55 264.52C169.876 264.808 169.094 265.126 168.134 265.475C167.654 265.646 167.135 265.833 166.562 266.035C165.981 266.213 165.346 266.376 164.657 266.563C163.372 266.757 161.521 267.083 160.212 267.246C158.888 267.378 158.098 267.331 158.942 266.935C157.3 267.293 154.969 267.743 152.375 268.085C151.074 268.225 149.711 268.372 148.341 268.52C147.659 268.59 146.97 268.659 146.288 268.737C145.607 268.776 144.925 268.823 144.259 268.861C141.596 269.056 139.117 269.242 137.274 269.382C135.431 269.553 134.208 269.817 134.061 270.228C133.472 270.166 133.255 270.096 132.721 270.034C133.852 271.455 136.353 272.845 139.946 274.173C141.735 274.756 143.795 275.315 146.079 275.835C147.225 276.122 148.418 276.293 149.657 276.487C150.904 276.682 152.197 276.86 153.537 277.031L153.506 277.016Z" fill="white"/>
</svg>
