<svg width="1620" height="18" viewBox="0 0 1620 18" fill="none" xmlns="http://www.w3.org/2000/svg">
<path fill-rule="evenodd" clip-rule="evenodd" d="M-23.9361 18H1644.59C1644.89 8.30316 1645.25 2.75696 1645.69 2.53894L1645.71 2.53436V2.53229C1645.7 2.53229 1645.7 2.53448 1645.69 2.53894C1644.95 2.66479 1644.02 2.77667 1642.92 2.87604C1642.95 2.72089 1642.98 2.55389 1643.04 2.34375L1643.05 2.29913C1643.06 2.24957 1643.08 2.1991 1643.09 2.1427C1643.16 2.13385 1643.23 2.12482 1643.29 2.11548C1643.37 2.10419 1643.45 2.09369 1643.53 2.08356L1643.7 2.06091C1643.83 2.04462 1643.96 2.02838 1644.09 2.01044C1644.21 1.99261 1644.34 1.97308 1644.46 1.95001C1644.7 1.90668 1644.95 1.86426 1645.19 1.8222L1645.58 1.75311C1644.78 1.86786 1643.96 1.95343 1643.13 2.02026C1643.15 1.96832 1643.17 1.91077 1643.19 1.84528C1643.22 1.78693 1643.24 1.7196 1643.27 1.65491L1643.28 1.64001C1643.28 1.62946 1643.29 1.61725 1643.3 1.60413C1643.3 1.58594 1643.31 1.56598 1643.32 1.54596L1643.35 1.49548L1643.39 1.42218L1643.44 1.33417C1643.48 1.25671 1643.53 1.1792 1643.59 1.1059L1643.63 1.04303L1643.71 0.948792C1643.76 0.885986 1643.82 0.825256 1643.88 0.768677C1643.94 0.691162 1644.23 0.446106 1644.49 0.316284C1644.56 0.278564 1644.61 0.251343 1644.7 0.215698C1644.81 0.171753 1644.91 0.134033 1645.03 0.1026C1645.25 0.0397949 1645.49 0.00836182 1645.72 0.00836182C1645.48 0.00836182 1645.22 0.0418701 1644.98 0.113098C1644.93 0.126038 1644.88 0.142517 1644.83 0.159973C1644.76 0.185059 1644.7 0.212341 1644.65 0.234558C1644.58 0.268066 1644.5 0.303711 1644.43 0.343506C1644.29 0.423096 1644.15 0.517334 1644.03 0.617859C1643.97 0.665039 1643.96 0.679688 1643.93 0.703186L1643.93 0.703918L1643.91 0.722595L1643.82 0.816833C1643.79 0.842285 1643.77 0.868042 1643.74 0.894104C1643.71 0.93457 1643.67 0.975891 1643.64 1.01794L1643.58 1.09332L1643.53 1.15405L1643.53 1.16071C1643.5 1.20038 1643.47 1.24005 1643.45 1.27972L1643.38 1.39282C1643.31 1.49548 1643.24 1.62952 1643.22 1.69025L1643.12 1.89972C1643.1 1.9444 1643.08 1.98621 1643.07 2.0257C1641.76 2.12982 1640.43 2.18781 1639.12 2.24115C1636.94 2.33118 1634.76 2.3689 1632.58 2.40448C1628.21 2.46527 1623.85 2.46527 1619.5 2.45056C1612.5 2.427 1605.53 2.36005 1598.57 2.29333H1598.57L1598.46 2.29224C1596.81 2.27637 1595.15 2.26056 1593.5 2.2453C1584.87 2.16364 1576.29 2.08612 1567.74 2.06726C1559.2 2.05469 1550.7 2.06311 1542.23 2.32489C1541.55 2.34387 1540.86 2.3725 1540.18 2.40112H1540.17C1539.8 2.41669 1539.42 2.43231 1539.05 2.44641L1537.46 2.53015L1537.14 2.54761L1537.13 2.54816C1536.71 2.57074 1536.29 2.59338 1535.86 2.62653L1534.27 2.74384L1529.56 3.13129C1527.79 3.27875 1526.03 3.42468 1524.26 3.57037L1523.31 3.64862C1521.23 3.80994 1519.15 3.97119 1517.08 4.13251C1515 4.29169 1512.93 4.45087 1510.86 4.61005C1508.8 4.75665 1506.73 4.90326 1504.67 5.04987C1503.78 5.11298 1502.9 5.17566 1502.01 5.23828L1500.77 5.32623C1500.01 5.37988 1499.25 5.43365 1498.5 5.48767C1497.6 5.54602 1496.71 5.604 1495.82 5.66193C1494.66 5.737 1493.5 5.81201 1492.35 5.8877C1475.97 6.94965 1459.83 7.79999 1443.96 8.45349C1412.22 9.7605 1381.58 10.2904 1352.38 10.1375C1347.88 10.0975 1343.42 10.0584 1339 10.0195L1330.73 9.9469L1318.01 9.80078C1315.21 9.76868 1312.42 9.737 1309.64 9.70599C1302.71 9.60547 1295.88 9.50073 1289.15 9.37091C1282.42 9.24103 1275.79 9.07349 1269.27 8.89337L1283.32 8.8429C1289.94 8.81934 1296.1 8.7973 1301.86 8.77606C1308.11 8.74756 1313.89 8.72089 1319.29 8.69592L1327.8 8.65668C1332.56 8.62708 1337.01 8.59991 1341.24 8.57416L1341.28 8.57379L1348.96 8.52679C1350.57 8.51215 1352.15 8.4975 1353.71 8.48279L1354.52 8.47083L1354.54 8.47046C1355.81 8.45172 1357.07 8.43304 1358.31 8.41577C1359 8.4043 1359.69 8.39319 1360.37 8.3822C1362.67 8.34515 1364.93 8.30878 1367.16 8.25873C1378.74 8.00946 1389.6 7.63873 1402.25 7.12976C1414.88 6.59772 1429.29 5.91699 1447.94 4.84674C1434.8 5.12738 1421.66 5.25726 1408.53 5.31171C1412.46 5.16376 1416.38 4.98755 1420.31 4.81128C1421.72 4.74792 1423.14 4.68463 1424.55 4.62262L1432.56 4.23096C1433.18 4.1994 1433.81 4.16827 1434.44 4.13721L1434.47 4.13593C1436.5 4.03534 1438.53 3.93475 1440.56 3.8183C1432.36 3.69891 1438.86 3.06006 1446.77 2.33746C1447.34 2.28705 1447.92 2.23523 1448.49 2.18323L1449.78 2.06726L1452.77 1.78033C1454.72 1.58972 1456.56 1.4054 1458.07 1.23364C1461.09 0.892273 1462.8 0.601135 1461.57 0.437744C1442.21 1.35095 1422.83 2.00446 1403.44 2.44012C1384.05 2.87579 1364.65 3.06848 1345.24 3.09778L1349.73 3.14752L1349.74 3.14771C1362.65 3.29016 1370.46 3.3764 1374.64 3.52716C1379.28 3.6947 1379.42 3.90625 1377.04 4.16602C1374.65 4.41522 1369.75 4.70428 1364.3 4.98285C1359.53 5.21356 1354.35 5.46338 1350.08 5.66962L1348.29 5.75574L1333.23 5.71594C1328.2 5.70337 1323.17 5.69293 1318.16 5.70966L1303.09 5.73688L1288.03 5.79132C1291.12 5.85413 1295.33 5.90558 1299.55 5.95703L1301.25 5.97778C1306.02 6.0448 1310.6 6.11389 1313.38 6.19977C1318.93 6.37573 1317.24 6.59564 1295.33 7.04388C1285.71 7.05719 1274.84 7.20154 1263.55 7.35156C1246.39 7.57941 1228.26 7.82019 1212.09 7.63452L1259.95 5.23419C1223.2 6.35681 1190.96 6.19769 1158.71 6.03851H1158.7C1126.45 5.88141 1094.18 5.73688 1057.38 6.93286L1034.96 5.25305L965.552 6.22699L973.374 5.4541C945.627 5.68665 917.879 5.91077 890.155 6.06366C884.539 6.14532 879.522 6.2312 875.024 6.32129L872.325 6.37299C868.934 6.43787 865.86 6.49677 863.064 6.55164L862.226 6.57178C861.854 6.58069 861.487 6.58954 861.126 6.59808L860.509 6.61243C859.688 6.625 858.891 6.63751 858.121 6.65009C856.873 6.67212 855.692 6.69415 854.571 6.71509L853.788 6.72968C852.505 6.75946 851.304 6.78687 850.176 6.81256L848.301 6.85541C847.739 6.86829 847.197 6.8808 846.674 6.89307C842.543 7.00201 839.568 7.14441 837.126 7.28894C835.431 7.38477 833.994 7.48462 832.609 7.58087L832.571 7.58344C831.971 7.62512 831.382 7.66614 830.785 7.70575C813.477 7.40833 796.462 7.08789 782.031 6.77576C767.597 6.45532 755.742 6.12854 748.727 5.74316L788.992 5.5379L751.848 4.25818C767.299 4.88446 752.521 4.73248 736.495 4.56763L736.473 4.56744C726.136 4.46118 715.286 4.34961 711.698 4.43829C698.276 4.05511 687.647 3.75537 679.041 3.5127C660.926 3.00189 651.775 2.74377 644.409 2.49249C639.681 2.33209 635.691 2.1637 630.533 1.94598L628.144 1.84528C626.211 1.7627 624.102 1.67236 621.737 1.57104L616.792 1.35931C612.286 1.1792 606.942 0.965576 600.398 0.703735C593.595 0.672302 586.601 0.64093 579.564 0.609497L576.912 0.596924L573.653 0.612244C572.072 0.619446 570.491 0.626709 568.926 0.647217C568.053 0.656494 567.181 0.665344 566.309 0.674133L566.068 0.676514C565.259 0.684753 564.45 0.692993 563.641 0.70166L558.398 0.770752C544.469 0.96344 531.007 1.20013 519.138 1.43054C495.405 1.90179 478.072 2.37726 476.551 3.19202C451.976 3.56659 427.006 4.02679 401.92 4.4892C376.641 4.9552 351.243 5.42334 326.012 5.80811C313.447 5.99658 300.922 6.16626 288.484 6.26892C276.049 6.37366 263.69 6.43439 251.497 6.34222L249.782 6.328C248.832 6.31995 247.882 6.31158 246.933 6.30243C246.229 6.29169 245.526 6.28052 244.823 6.26935L244.626 6.26624C243.882 6.25439 243.139 6.24255 242.395 6.2312C241.849 6.22058 241.3 6.2121 240.752 6.20367C239.79 6.1889 238.829 6.17407 237.879 6.1474H237.878L237.751 6.14392C236.3 6.10321 234.849 6.0625 233.402 6.02386L232.283 5.99243L231.182 5.94635C230.815 5.93066 230.449 5.91443 230.083 5.89819L229.676 5.88025C229.446 5.87006 229.215 5.85992 228.984 5.84998C228.253 5.8186 227.522 5.78717 226.791 5.75366C226.418 5.73529 226.046 5.71741 225.673 5.69952L225.588 5.6955C225.226 5.67804 224.863 5.66058 224.501 5.64264C223.763 5.6073 223.026 5.57104 222.289 5.53479C219.964 5.42047 217.645 5.3064 215.349 5.22375C203.213 4.72736 191.281 4.39221 179.528 4.11572C174.405 4.10797 169.285 4.12671 164.166 4.14545H164.164C162.385 4.15198 160.606 4.15851 158.827 4.16388L138.142 4.30634C106.818 3.52295 80.3113 3.20044 55.8014 3.05798C43.5464 2.98889 31.7901 2.97418 20.1824 2.99097L1.77048 3.05127C-6.78854 3.07935 -15.3476 3.10742 -23.9941 3.1355C-23.9855 5.33386 -23.9774 7.53558 -23.9693 9.74176C-23.9617 11.8194 -23.9541 13.901 -23.946 15.9875C-23.9427 16.6577 -23.9393 17.3286 -23.9361 18ZM1642.92 2.39752C1642.95 2.32404 1642.98 2.24542 1643.01 2.15363C1642.78 2.18463 1642.54 2.21289 1642.3 2.23975C1642.01 2.27142 1641.72 2.30121 1641.43 2.33124L1641.15 2.36053L1640.83 2.39404C1640.3 2.44916 1639.76 2.49365 1639.22 2.5387C1638.89 2.56555 1638.56 2.59265 1638.23 2.62231C1637.61 2.66742 1636.99 2.71246 1636.35 2.75824L1635.5 2.81921C1631.78 3.06219 1627.73 3.2486 1623.4 3.41406C1621.7 3.47809 1619.96 3.53827 1618.17 3.59515C1628.73 3.52802 1637.58 3.34045 1642.74 2.89191C1642.79 2.75 1642.84 2.60175 1642.9 2.43384L1642.92 2.39752ZM701.355 12.8562C700.706 13.0054 700.867 13.1595 701.749 13.3174C689.782 13.0149 677.959 12.7177 666.589 12.4374C678.486 12.6066 690.093 12.7493 701.355 12.8562ZM316.482 15.755C320.883 15.8098 320.831 15.9291 317.874 16.0799C277.063 16.742 242.949 16.9058 226.033 15.9938C204.693 14.8426 166.44 13.9445 119.885 13.3584C122.882 13.3537 125.867 13.3504 128.841 13.3484C144.351 13.3547 159.537 13.407 174.207 13.5495L219.748 15.0911C222.224 15.179 224.451 15.2502 226.483 15.2984C228.511 15.3382 230.344 15.3717 232.045 15.378C235.453 15.3487 238.321 15.3089 241.128 15.1874C242.203 15.1441 243.267 15.1021 244.349 15.0593L245.347 15.0198L246.565 14.9644C247.612 14.9168 248.689 14.8678 249.82 14.8167C251.391 14.7517 253.064 14.6826 254.897 14.6093C256.73 14.5297 258.725 14.4522 260.935 14.3768C269.782 14.0668 282.124 13.7443 301.734 13.3317C326.632 13.2982 360.678 12.4205 392.289 11.5932C423.901 10.7679 453.086 10.0244 468.272 10.2904C437.52 11.1149 418.55 12.1031 400.556 13.0406L400.528 13.0421C398.282 13.1591 396.051 13.2753 393.814 13.3903C383.732 13.9097 373.53 14.402 361.281 14.825C349.034 15.2397 334.741 15.5916 316.482 15.755Z" fill="#EF8D2B"/>
</svg>
