<svg width="100%" height="100%" viewBox="0 0 340 255" fill="none" xmlns="http://www.w3.org/2000/svg" preserveAspectRatio="none">
<path d="M339.155 0.83656C336.504 2.14541 320.802 0.832062 316.662 1.83956C303.731 4.99698 290.679 3.41827 277.709 3.41827C262.275 3.41827 211.177 3.81857 200.502 3.7466C191.715 3.68813 131.92 4.66415 123.128 4.57869C111.915 4.46625 65.0862 6.44526 52.2408 5.86505C44.0871 5.49623 24.1876 3.89953 3.6159 3.89953V252.324H338.742C338.742 252.324 338.358 0.83656 339.16 0.83656H339.155Z" fill="#2E2D2C"/>
<path d="M335.073 26.9997C335.155 36.517 335.304 45.3011 335.539 52.8753C334.708 93.8138 336.49 114.575 336.139 156.94C336.158 174.854 336.259 190.282 336.327 205.443C336.346 213.022 336.365 220.533 336.384 228.256C336.379 232.115 336.375 236.028 336.365 240.027C336.355 242.028 336.35 244.048 336.341 246.094C336.336 247.039 336.331 247.988 336.322 248.946C336.312 249.306 336.307 249.665 336.298 250.03C335.995 250.021 335.678 250.016 335.361 250.007H335.126L334.67 249.994C334.204 249.994 333.733 249.985 333.263 249.98C320.691 251.55 258.126 249.715 229.477 250.731C210.255 250.92 199.83 251.532 214.49 251.793C187.921 251.856 194.749 251.177 172.55 251.451L180.036 250.92C172.723 250.79 164.636 250.515 155.042 250.61L144.223 251.15C117.822 250.551 102.835 251.613 74.1667 251.24C92.8465 251.635 65.6144 251.554 67.6984 251.986C63.3382 251.775 46.0415 251.671 51.9575 251.509C42.9106 251.447 34.1325 251.541 25.9644 251.64C21.8779 251.685 17.945 251.73 14.2091 251.775C12.3411 251.788 10.5212 251.802 8.75403 251.811C7.17417 251.811 5.64234 251.811 4.15852 251.811C4.16813 250.902 4.17773 250.021 4.19214 249.157C4.21134 248.177 4.23535 247.219 4.25456 246.292C4.30738 244.399 4.38422 242.622 4.48986 240.976L4.23535 232.646C3.88481 218.411 4.32179 207.099 4.44664 194.01L4.12971 192.198C3.95204 183.548 3.98565 167.667 4.27857 160.133C4.45144 137.361 3.75035 108.895 3.3758 85.3446C3.70714 61.9697 2.79476 72.1257 2.57867 51.0042C2.67951 44.3026 2.61708 35.1362 2.57867 26.6264C2.56426 22.3715 2.55466 18.2786 2.57867 14.7433C2.58827 12.9757 2.61228 11.3431 2.64109 9.89927C2.6603 9.17963 2.67951 8.50047 2.69392 7.87978C2.72273 7.15564 2.74674 6.48998 2.76595 5.89627C2.77075 7.16014 2.78035 8.35205 2.78515 9.48998C2.79956 10.538 2.80916 11.5275 2.81877 12.4765C2.85718 14.37 2.8956 16.0747 2.92441 17.6579C3.01085 20.8288 3.11649 23.5095 3.21733 26.2261C3.41902 31.6594 3.58709 37.2141 3.49585 47.0417C3.78877 39.5305 3.81758 80.2666 4.24016 62.7524C4.05768 53.3071 3.96164 43.2951 3.91362 33.0492C3.89921 27.9263 3.88001 22.7449 3.8656 17.5499C3.8656 14.9502 3.8608 12.346 3.856 9.74635V5.95474L3.8512 4.12866H5.8008L7.76962 4.14665L9.84408 4.17363C11.2271 4.19612 12.6052 4.22311 13.9786 4.2456C16.7301 4.30407 19.4673 4.38953 22.1852 4.48398C27.6258 4.68188 32.9945 4.94275 38.243 5.21711C40.8697 5.35654 43.4676 5.50047 46.0319 5.6354C48.5961 5.76134 51.1268 5.92326 53.6238 5.95924C58.6131 6.0357 63.4439 5.88278 68.0682 5.73435C66.6948 6.17064 78.2004 6.08968 92.0637 5.68038C98.993 5.47348 106.523 5.2441 113.327 5.0417C116.727 4.95624 119.954 4.85729 122.83 4.85729C125.716 4.8483 128.256 4.81232 130.288 4.78083L131.33 4.98773C145.303 4.96524 155.642 4.85729 177.827 4.30407C184.464 4.20512 191.081 4.09717 197.616 4.0432C204.157 4.01172 210.615 3.98473 216.949 3.95324C229.617 3.91726 241.766 3.94425 252.964 4.12866C261.219 4.2411 269.872 4.2501 278.414 4.21861C286.914 4.2501 295.394 4.79882 303.303 4.26359C307.25 4.00722 311.044 3.53046 314.545 2.72986C315.409 2.52296 316.259 2.31606 317.099 2.11366C317.911 1.94725 318.756 1.87079 319.582 1.80782C321.239 1.68638 322.852 1.6459 324.398 1.60992C327.491 1.54245 330.319 1.51546 332.807 1.41651C334.05 1.36254 335.212 1.29507 336.274 1.18713C336.802 1.13315 337.311 1.06569 337.781 0.975734C338.247 0.890276 338.703 0.78233 339.03 0.606918C338.531 0.813815 337.897 0.894774 337.292 0.957743C336.677 1.01621 336.058 1.0477 335.433 1.07019C334.19 1.11067 332.936 1.10617 331.688 1.09717C329.186 1.05669 326.694 1.02071 324.216 0.980231C322.972 0.971236 321.733 0.966738 320.49 1.00272C319.241 1.0477 318.007 1.07918 316.72 1.33106C314.329 1.87079 311.98 2.32506 309.589 2.62191C304.821 3.22011 300.047 3.35504 295.346 3.31456C290.64 3.27858 286.002 3.08068 281.425 3.01322C279.14 2.96824 276.868 2.98173 274.631 2.99522C272.388 3.00422 270.169 3.01322 267.975 3.02221C263.581 3.03121 259.283 3.03121 255.086 3.00422C246.693 2.95474 238.712 2.81531 231.225 2.51396C245.214 2.56794 252.681 2.51846 259.341 2.39253C262.669 2.32956 265.8 2.2486 269.435 2.14965C271.255 2.10017 273.2 2.0507 275.365 1.99223C277.517 1.92926 279.937 1.88428 282.64 1.89328C280.743 1.80782 278.823 1.73585 276.926 1.69987L271.255 1.59193C274.338 1.53345 277.387 1.43001 280.523 1.42101C278.136 1.25909 280.038 1.13315 282.352 1.0477C284.667 0.966738 287.375 0.917263 286.674 0.750846C283.874 0.669886 281.056 0.584429 278.203 0.584429L253.041 0.687878C271.034 0.86329 259.168 1.2366 253.915 1.56044L236.618 1.52896C240.642 1.6504 251.298 1.72686 238.707 1.95624C231.758 1.92926 222.505 2.13615 214.803 1.96524L228.555 1.28608C217.991 1.57393 208.757 1.439 199.47 1.28608C190.144 1.14665 180.901 1.11067 170.322 1.48398L163.877 0.921761L143.94 1.22311L146.187 0.971236L134.24 1.06569C130.259 1.08818 126.283 1.11966 122.34 1.08818C119.008 1.11067 116.482 1.21861 114.431 1.30407C112.391 1.39402 110.868 1.48848 109.677 1.57393C107.296 1.74935 106.249 1.91127 105.111 2.05519C95.1466 2.35654 85.5666 2.72986 81.533 2.69387L93.0722 1.98323L82.4021 2.15414C89.7012 2.09118 73.5232 2.63091 70.911 2.81531C58.9636 3.00422 54.8099 2.90977 51.8183 2.73885C48.7498 2.54545 46.7618 2.34305 39.2611 1.73585C31.477 1.40302 22.795 0.953245 15.9378 0.755344C14.2235 0.701371 12.6244 0.669886 11.179 0.6429C10.4587 0.633904 9.77685 0.629407 9.13819 0.624909C8.4563 0.624909 7.82244 0.624909 7.2462 0.620411C5.17174 0.624909 3.50065 0.6429 2.31936 0.674384C1.72872 0.687878 1.25812 0.710366 0.921982 0.732855C0.753912 0.746348 0.614655 0.755344 0.513813 0.768837C0.460991 0.777833 0.417773 0.78233 0.384159 0.791326C0.355347 0.800321 0.312129 0.791326 0.336139 0.840801C0.273713 8.49148 0.211288 16.2681 0.148862 24.0852C0.115248 30.8633 0.0816338 37.6774 0.0528219 44.451C0.0336139 57.9937 0.019208 71.3745 0 83.9907L0.340941 95.1002C-0.0480199 125.046 0.456189 138.629 0.537823 169.722L0.374555 167.271L0.811536 184.286C0.480199 207.701 1.28693 216.845 0.811536 244.043C0.792328 247.956 0.777922 251.653 0.763516 255.004C4.93164 255.004 8.83566 255.004 12.4948 255.004C15.2655 254.986 17.8538 254.968 20.274 254.955C25.1192 254.905 29.3113 254.833 32.9993 254.734C40.3751 254.541 45.7389 254.262 50.3056 253.952C65.4655 253.623 84.5438 254.091 98.1623 254.136L89.2786 254.375L100.606 254.64C120.199 254.523 121.245 254.739 146.773 254.46C181.726 254.748 176.42 253.659 191.278 253.255L224.685 253.911L223.95 253.767C243.696 252.989 239.139 253.439 285.997 253.403L283.86 252.967C299.615 253.444 306.401 252.769 326.684 252.796C328.038 252.805 329.772 252.814 331.808 252.823C334.026 252.845 336.571 252.872 339.352 252.904C339.39 249.562 339.438 245.842 339.481 241.952C339.515 238.268 339.544 234.418 339.577 230.59C339.611 222.935 339.573 215.379 339.352 209.429C339.779 176.033 338.401 159.872 338.478 131.231C338.824 114.027 338.017 101.77 338.795 98.4825V101.581L339.573 95.1856L339.02 94.4165C339.237 84.0762 339.059 69.1931 339.678 60.3326L338.737 36.3011C338.809 42.1976 338.732 48.7239 338.655 55.2816L338.809 54.6204C338.809 60.8678 338.905 76.0522 338.684 83.2666L338.516 74.5994C338.372 84.5619 338.127 76.2501 338.046 73.457C338.339 53.478 337.796 58.9203 337.714 43.6684C337.791 40.2321 337.878 33.6969 338.031 36.1167C337.998 31.6234 338.103 23.442 338.18 16.2861C338.247 9.13016 338.315 2.99522 338.065 2.58593C338.094 2.19013 338.118 1.92026 338.137 1.65939C338.151 1.52446 338.161 1.39402 338.175 1.2501C338.185 1.17363 338.194 1.09717 338.204 1.01172C338.209 0.96224 338.219 0.917263 338.223 0.86329L338.243 0.755344V0.72386L338.3 0.56194V0.552945C338.319 0.516963 338.339 0.480981 338.363 0.440501C338.411 0.364039 338.478 0.278582 338.569 0.206618C338.751 0.0581924 338.996 -0.0002784 339.15 -0.0002784C338.987 -0.00477615 338.713 0.0626901 338.531 0.233605C338.439 0.314564 338.372 0.404519 338.334 0.485479L338.3 0.56194L338.267 0.647398L338.228 0.759842L338.19 0.876783C338.17 0.935254 338.146 0.998222 338.127 1.06119C338.094 1.17363 338.055 1.29507 338.017 1.42101C337.945 1.66839 337.873 1.94275 337.801 2.2396C337.661 2.83331 337.522 3.53046 337.388 4.32206C337.114 5.90077 336.85 7.86179 336.586 10.1332C336.062 14.6759 335.553 20.4735 335.068 26.9952L335.073 26.9997Z" fill="#2E2D2C"/>
</svg>
