<svg width="10" height="44" viewBox="0 0 10 44" fill="none" xmlns="http://www.w3.org/2000/svg">
<path d="M9.62702 5.39404C9.62288 5.31582 9.62205 5.22218 9.62619 5.11733C9.62619 4.90734 9.63392 4.6511 9.61515 4.38083C9.59666 4.11113 9.55581 3.82853 9.48985 3.57369C9.42582 3.31801 9.32977 3.09372 9.23538 2.93308C9.12746 2.70879 9.01872 2.55039 8.9591 2.49124C8.92874 2.4618 8.91163 2.45619 8.91191 2.47918C8.91191 2.50189 8.93068 2.55236 8.96462 2.63899C8.8073 2.34405 8.74796 2.23443 8.70132 2.13182C8.67565 2.0822 8.65081 2.03566 8.61107 1.9737C8.59175 1.9423 8.56581 1.90922 8.53434 1.86969C8.50233 1.83072 8.46617 1.78418 8.41787 1.73316C8.47445 1.76792 8.52717 1.80689 8.58292 1.84446C8.55725 1.80521 8.53131 1.764 8.50453 1.72166C8.47693 1.67989 8.44685 1.63812 8.41566 1.59466C8.39965 1.57307 8.38337 1.55121 8.36709 1.52906C8.35025 1.50691 8.33148 1.48616 8.31244 1.46458C8.27435 1.42168 8.23405 1.37795 8.18907 1.33561L8.0679 1.26132C8.02761 1.23665 7.98814 1.21198 7.94646 1.19011C7.83303 1.06451 7.71876 0.965825 7.60478 0.881438C7.54682 0.840506 7.49024 0.800976 7.43255 0.76509C7.37404 0.730606 7.31553 0.697244 7.25674 0.663882C7.01745 0.537161 6.76712 0.425019 6.43785 0.273627C6.64844 0.382685 6.59407 0.37063 6.49278 0.340352C6.39204 0.30727 6.23996 0.26774 6.2568 0.29998C6.23306 0.285682 6.19028 0.264936 6.14115 0.243349C6.0912 0.224284 6.03545 0.203258 5.98715 0.184754C5.96286 0.175503 5.94078 0.166812 5.92174 0.159522C5.90269 0.153074 5.88751 0.147187 5.87758 0.142701C5.8577 0.13373 5.85936 0.129805 5.89662 0.13373C5.8232 0.114385 5.75006 0.0956012 5.6772 0.0815834C5.60406 0.0692478 5.53175 0.0585943 5.46082 0.0487819C5.38933 0.042614 5.31923 0.0372873 5.25106 0.0322409C5.18289 0.0274748 5.11582 0.0285963 5.05151 0.0263534C5.01922 0.0260731 4.98776 0.0238302 4.95657 0.0243909C4.92538 0.0246713 4.89474 0.0249516 4.86494 0.025232C4.83485 0.0249516 4.8056 0.0246713 4.77689 0.0243909C4.74819 0.0235499 4.72004 0.0227088 4.69271 0.0232695C4.58286 0.0238302 4.48351 0.0137374 4.39574 0C4.32232 0.0156999 4.24918 0.0277552 4.17715 0.0482211C4.08441 0.0698085 3.99609 0.0838263 3.91108 0.102049C3.86858 0.11018 3.82663 0.117189 3.78495 0.123637C3.74355 0.131206 3.70243 0.138776 3.66158 0.146346C3.62046 0.153354 3.57989 0.160363 3.53904 0.167372C3.49847 0.176063 3.45817 0.184754 3.41732 0.193445C3.37647 0.202417 3.33535 0.210547 3.29395 0.2212C3.2531 0.232695 3.2117 0.24447 3.16975 0.257086L3.13525 0.305307C3.122 0.310914 3.1082 0.317082 3.09358 0.32325C3.07922 0.329978 3.06432 0.336987 3.04886 0.343996C3.01795 0.358294 2.98483 0.372873 2.95061 0.387732C2.88106 0.415767 2.80902 0.451372 2.73588 0.483052C2.66246 0.513611 2.59236 0.549777 2.52667 0.578093C2.46071 0.605848 2.40303 0.633884 2.35555 0.652107C2.08756 0.79649 1.81377 1.00956 1.57282 1.25655C1.54191 1.28627 1.51293 1.31851 1.48395 1.35075C1.45525 1.38271 1.42627 1.41467 1.39756 1.44663C1.34153 1.51168 1.28909 1.57924 1.23583 1.64428C1.21789 1.66896 1.20022 1.69307 1.18228 1.71718C0.875648 2.07323 0.620073 2.4761 0.427426 2.91373C0.440398 2.86439 0.491734 2.73459 0.54445 2.62076C0.562665 2.57703 0.582813 2.53694 0.598821 2.50301C0.614553 2.46909 0.626697 2.44134 0.631665 2.42508C0.641877 2.39255 0.624765 2.40517 0.556869 2.50189C0.451714 2.73459 0.349594 2.98298 0.262931 3.24371C0.175439 3.50388 0.107819 3.77695 0.0628315 4.05114C0.0172917 4.32532 -0.00340826 4.60091 0.000455729 4.86445C0.00459571 5.02874 0.0186717 5.18798 0.0413036 5.33909C0.0501355 5.43021 0.0614515 5.5202 0.0752514 5.60963C0.0498595 5.65617 0.0782874 5.91214 0.160811 6.20259C0.173231 6.24436 0.183167 6.28781 0.198347 6.33015C0.212975 6.37276 0.227879 6.41566 0.242507 6.45827C0.249959 6.47958 0.257411 6.50088 0.264863 6.52219C0.273419 6.54294 0.281699 6.56368 0.290255 6.58443C0.307091 6.62564 0.323926 6.66601 0.34021 6.70554C0.355666 6.74535 0.374986 6.78236 0.391822 6.81853C0.408934 6.85441 0.425494 6.88918 0.441226 6.9217C0.47269 6.98674 0.504982 7.04141 0.528718 7.08655L0.518506 7.12159C0.53617 7.16196 0.555765 7.19953 0.575361 7.23654C0.594957 7.27354 0.614277 7.30999 0.633597 7.34644C0.673065 7.41905 0.718605 7.4883 0.766077 7.56399C0.868196 7.71034 0.989084 7.87659 1.18477 8.07368C1.40612 8.32095 1.65176 8.54075 1.90236 8.73167C2.15297 8.92287 2.40634 9.08744 2.64618 9.23491C3.00277 9.44686 3.44354 9.58816 3.83353 9.63217C3.88238 9.6375 3.93013 9.64255 3.97677 9.64787C4.02342 9.65292 4.06951 9.6532 4.11394 9.65544C4.15838 9.65685 4.20143 9.65825 4.24311 9.65965C4.28479 9.65825 4.32481 9.65713 4.36345 9.656C4.40181 9.65432 4.43852 9.65264 4.47329 9.65124C4.49372 9.64984 4.51304 9.64787 4.53208 9.64563C4.59749 9.64843 4.6629 9.65012 4.72914 9.65012C5.04848 9.65012 5.36035 9.61759 5.66202 9.5562C5.65926 9.55732 5.65678 9.55844 5.65402 9.55956C5.66202 9.55732 5.6703 9.55536 5.6783 9.55311C5.79892 9.52816 5.91787 9.49816 6.03489 9.46396C6.06912 9.45527 6.10307 9.44658 6.13757 9.43789L6.13122 9.4348C6.35561 9.36387 6.57282 9.27612 6.78175 9.17323C6.77678 9.17632 6.77154 9.17968 6.76657 9.18276L6.71689 9.21108L6.61698 9.26771C6.86179 9.17071 6.67411 9.28762 6.60952 9.32743C6.54715 9.35098 6.49388 9.36836 6.44945 9.38546C6.40473 9.402 6.3683 9.4177 6.33629 9.42864C6.27308 9.45219 6.23251 9.47125 6.19608 9.49059C6.15992 9.5105 6.12653 9.5276 6.0785 9.54835C6.05449 9.55872 6.02662 9.57022 5.99239 9.58283C5.97528 9.589 5.95679 9.59573 5.93636 9.60302C5.91566 9.60946 5.89303 9.61535 5.86847 9.62208C5.82265 9.62909 5.75669 9.64086 5.71004 9.64675C5.66285 9.65152 5.6347 9.64984 5.66478 9.63554C5.60627 9.64843 5.52319 9.6647 5.43073 9.67703C5.38437 9.68208 5.33579 9.6874 5.28694 9.69273C5.26265 9.69525 5.23809 9.69778 5.2138 9.70058C5.18951 9.70198 5.16522 9.70366 5.14149 9.70507C5.04654 9.71208 4.95822 9.7188 4.89254 9.72385C4.82685 9.73002 4.78324 9.73955 4.778 9.75441C4.75702 9.75217 4.74929 9.74964 4.73025 9.7474C4.77054 9.79871 4.85969 9.84889 4.98776 9.89683C5.05151 9.91786 5.12493 9.93804 5.20635 9.95683C5.24719 9.9672 5.2897 9.97337 5.33386 9.98038C5.37829 9.98738 5.42439 9.99383 5.47213 10C5.53865 9.98794 5.60323 9.97028 5.66616 9.95514C5.69762 9.94701 5.72854 9.93916 5.75917 9.93131C5.78953 9.92178 5.81934 9.91253 5.8486 9.90328C5.90711 9.88393 5.96424 9.86655 6.01833 9.8458C6.07215 9.82422 6.12404 9.80291 6.17345 9.7816C6.45497 9.71656 6.6937 9.62376 6.90457 9.51583C6.95756 9.48947 7.00752 9.4592 7.05747 9.43088C7.08231 9.4163 7.10688 9.402 7.13116 9.3877C7.15545 9.37313 7.17864 9.35686 7.2021 9.34173C7.24846 9.31033 7.29455 9.27949 7.34037 9.24837C7.38481 9.21557 7.42869 9.18192 7.4723 9.14856L7.53799 9.09838C7.55924 9.08071 7.58021 9.06277 7.60147 9.04483C7.64369 9.00922 7.68647 8.97334 7.72953 8.93689C7.81205 8.85979 7.89954 8.7855 7.984 8.70055C8.07149 8.61925 8.15677 8.52869 8.24979 8.43618C8.29422 8.38796 8.34031 8.33861 8.38834 8.28843C8.43636 8.23825 8.48245 8.1833 8.53269 8.12891C8.86775 7.72183 9.08965 7.32289 9.26325 6.91385L9.2961 6.83731C9.30686 6.8118 9.31597 6.78544 9.32618 6.75937C9.34605 6.70751 9.36565 6.65536 9.38552 6.60293C9.40319 6.54995 9.42085 6.49668 9.43879 6.44313C9.44762 6.4165 9.45673 6.38958 9.46584 6.36267C9.47357 6.33547 9.48157 6.308 9.4893 6.28052C9.50503 6.22529 9.52186 6.17006 9.53732 6.11371C9.5514 6.05708 9.56547 5.99961 9.57983 5.94157C9.59556 5.88382 9.60632 5.8241 9.61902 5.76383C9.63088 5.70355 9.64634 5.64271 9.65517 5.57964C9.63834 5.53534 9.62978 5.47226 9.62785 5.39404H9.62702ZM7.96854 8.36104C7.93653 8.393 7.90396 8.42552 7.86725 8.4558C7.82144 8.49001 7.77838 8.52421 7.73808 8.55785C7.69668 8.59037 7.65722 8.62121 7.62023 8.65177C7.54765 8.71429 7.4792 8.76616 7.42096 8.81326C7.36328 8.86092 7.31001 8.89456 7.2664 8.91895C7.23577 8.93549 7.20899 8.94586 7.18581 8.94867C7.56945 8.7098 7.91693 8.41711 8.21777 8.08041C8.16864 8.14208 8.11703 8.20432 8.06073 8.26712C8.03092 8.29824 8.00001 8.32964 7.96799 8.36132L7.96854 8.36104Z" fill="#2E2D2C"/>
<path d="M9.62702 22.394C9.62288 22.3158 9.62205 22.2222 9.62619 22.1173C9.62619 21.9073 9.63392 21.6511 9.61515 21.3808C9.59666 21.1111 9.55581 20.8285 9.48985 20.5737C9.42582 20.318 9.32977 20.0937 9.23538 19.9331C9.12746 19.7088 9.01872 19.5504 8.9591 19.4912C8.92874 19.4618 8.91163 19.4562 8.91191 19.4792C8.91191 19.5019 8.93068 19.5524 8.96462 19.639C8.8073 19.3441 8.74796 19.2344 8.70132 19.1318C8.67565 19.0822 8.65081 19.0357 8.61107 18.9737C8.59175 18.9423 8.56581 18.9092 8.53434 18.8697C8.50233 18.8307 8.46617 18.7842 8.41787 18.7332C8.47445 18.7679 8.52717 18.8069 8.58292 18.8445C8.55725 18.8052 8.53131 18.764 8.50453 18.7217C8.47693 18.6799 8.44685 18.6381 8.41566 18.5947C8.39965 18.5731 8.38337 18.5512 8.36709 18.5291C8.35025 18.5069 8.33148 18.4862 8.31244 18.4646C8.27435 18.4217 8.23405 18.3779 8.18907 18.3356L8.0679 18.2613C8.02761 18.2366 7.98814 18.212 7.94646 18.1901C7.83303 18.0645 7.71876 17.9658 7.60478 17.8814C7.54682 17.8405 7.49024 17.801 7.43255 17.7651C7.37404 17.7306 7.31553 17.6972 7.25674 17.6639C7.01745 17.5372 6.76712 17.425 6.43785 17.2736C6.64844 17.3827 6.59407 17.3706 6.49278 17.3404C6.39204 17.3073 6.23996 17.2677 6.2568 17.3C6.23306 17.2857 6.19028 17.2649 6.14115 17.2433C6.0912 17.2243 6.03545 17.2033 5.98715 17.1848C5.96286 17.1755 5.94078 17.1668 5.92174 17.1595C5.90269 17.1531 5.88751 17.1472 5.87758 17.1427C5.8577 17.1337 5.85936 17.1298 5.89662 17.1337C5.8232 17.1144 5.75006 17.0956 5.6772 17.0816C5.60406 17.0692 5.53175 17.0586 5.46082 17.0488C5.38933 17.0426 5.31923 17.0373 5.25106 17.0322C5.18289 17.0275 5.11582 17.0286 5.05151 17.0264C5.01922 17.0261 4.98776 17.0238 4.95657 17.0244C4.92538 17.0247 4.89474 17.025 4.86494 17.0252C4.83485 17.025 4.8056 17.0247 4.77689 17.0244C4.74819 17.0235 4.72004 17.0227 4.69271 17.0233C4.58286 17.0238 4.48351 17.0137 4.39574 17C4.32232 17.0157 4.24918 17.0278 4.17715 17.0482C4.08441 17.0698 3.99609 17.0838 3.91108 17.102C3.86858 17.1102 3.82663 17.1172 3.78495 17.1236C3.74355 17.1312 3.70243 17.1388 3.66158 17.1463C3.62046 17.1534 3.57989 17.1604 3.53904 17.1674C3.49847 17.1761 3.45817 17.1848 3.41732 17.1934C3.37647 17.2024 3.33535 17.2105 3.29395 17.2212C3.2531 17.2327 3.2117 17.2445 3.16975 17.2571L3.13525 17.3053C3.122 17.3109 3.1082 17.3171 3.09358 17.3232C3.07922 17.33 3.06432 17.337 3.04886 17.344C3.01795 17.3583 2.98483 17.3729 2.95061 17.3877C2.88106 17.4158 2.80902 17.4514 2.73588 17.4831C2.66246 17.5136 2.59236 17.5498 2.52667 17.5781C2.46071 17.6058 2.40303 17.6339 2.35555 17.6521C2.08756 17.7965 1.81377 18.0096 1.57282 18.2566C1.54191 18.2863 1.51293 18.3185 1.48395 18.3508C1.45525 18.3827 1.42627 18.4147 1.39756 18.4466C1.34153 18.5117 1.28909 18.5792 1.23583 18.6443C1.21789 18.669 1.20022 18.6931 1.18228 18.7172C0.875648 19.0732 0.620073 19.4761 0.427426 19.9137C0.440398 19.8644 0.491734 19.7346 0.54445 19.6208C0.562665 19.577 0.582813 19.5369 0.598821 19.503C0.614553 19.4691 0.626697 19.4413 0.631665 19.4251C0.641877 19.3926 0.624765 19.4052 0.556869 19.5019C0.451714 19.7346 0.349594 19.983 0.262931 20.2437C0.175439 20.5039 0.107819 20.7769 0.0628315 21.0511C0.0172917 21.3253 -0.00340826 21.6009 0.000455729 21.8644C0.00459571 22.0287 0.0186717 22.188 0.0413036 22.3391C0.0501355 22.4302 0.0614515 22.5202 0.0752514 22.6096C0.0498595 22.6562 0.0782874 22.9121 0.160811 23.2026C0.173231 23.2444 0.183167 23.2878 0.198347 23.3301C0.212975 23.3728 0.227879 23.4157 0.242507 23.4583C0.249959 23.4796 0.257411 23.5009 0.264863 23.5222C0.273419 23.5429 0.281699 23.5637 0.290255 23.5844C0.307091 23.6256 0.323926 23.666 0.34021 23.7055C0.355666 23.7454 0.374986 23.7824 0.391822 23.8185C0.408934 23.8544 0.425494 23.8892 0.441226 23.9217C0.47269 23.9867 0.504982 24.0414 0.528718 24.0865L0.518506 24.1216C0.53617 24.162 0.555765 24.1995 0.575361 24.2365C0.594957 24.2735 0.614277 24.31 0.633597 24.3464C0.673065 24.419 0.718605 24.4883 0.766077 24.564C0.868196 24.7103 0.989084 24.8766 1.18477 25.0737C1.40612 25.321 1.65176 25.5408 1.90236 25.7317C2.15297 25.9229 2.40634 26.0874 2.64618 26.2349C3.00277 26.4469 3.44354 26.5882 3.83353 26.6322C3.88238 26.6375 3.93013 26.6425 3.97677 26.6479C4.02342 26.6529 4.06951 26.6532 4.11394 26.6554C4.15838 26.6568 4.20143 26.6582 4.24311 26.6596C4.28479 26.6582 4.32481 26.6571 4.36345 26.656C4.40181 26.6543 4.43852 26.6526 4.47329 26.6512C4.49372 26.6498 4.51304 26.6479 4.53208 26.6456C4.59749 26.6484 4.6629 26.6501 4.72914 26.6501C5.04848 26.6501 5.36035 26.6176 5.66202 26.5562C5.65926 26.5573 5.65678 26.5584 5.65402 26.5596C5.66202 26.5573 5.6703 26.5554 5.6783 26.5531C5.79892 26.5282 5.91787 26.4982 6.03489 26.464C6.06912 26.4553 6.10307 26.4466 6.13757 26.4379L6.13122 26.4348C6.35561 26.3639 6.57282 26.2761 6.78175 26.1732C6.77678 26.1763 6.77154 26.1797 6.76657 26.1828L6.71689 26.2111L6.61698 26.2677C6.86179 26.1707 6.67411 26.2876 6.60952 26.3274C6.54715 26.351 6.49388 26.3684 6.44945 26.3855C6.40473 26.402 6.3683 26.4177 6.33629 26.4286C6.27308 26.4522 6.23251 26.4712 6.19608 26.4906C6.15992 26.5105 6.12653 26.5276 6.0785 26.5483C6.05449 26.5587 6.02662 26.5702 5.99239 26.5828C5.97528 26.589 5.95679 26.5957 5.93636 26.603C5.91566 26.6095 5.89303 26.6154 5.86847 26.6221C5.82265 26.6291 5.75669 26.6409 5.71004 26.6468C5.66285 26.6515 5.6347 26.6498 5.66478 26.6355C5.60627 26.6484 5.52319 26.6647 5.43073 26.677C5.38437 26.6821 5.33579 26.6874 5.28694 26.6927C5.26265 26.6953 5.23809 26.6978 5.2138 26.7006C5.18951 26.702 5.16522 26.7037 5.14149 26.7051C5.04654 26.7121 4.95822 26.7188 4.89254 26.7239C4.82685 26.73 4.78324 26.7395 4.778 26.7544C4.75702 26.7522 4.74929 26.7496 4.73025 26.7474C4.77054 26.7987 4.85969 26.8489 4.98776 26.8968C5.05151 26.9179 5.12493 26.938 5.20635 26.9568C5.24719 26.9672 5.2897 26.9734 5.33386 26.9804C5.37829 26.9874 5.42439 26.9938 5.47213 27C5.53865 26.9879 5.60323 26.9703 5.66616 26.9551C5.69762 26.947 5.72854 26.9392 5.75917 26.9313C5.78953 26.9218 5.81934 26.9125 5.8486 26.9033C5.90711 26.8839 5.96424 26.8666 6.01833 26.8458C6.07215 26.8242 6.12404 26.8029 6.17345 26.7816C6.45497 26.7166 6.6937 26.6238 6.90457 26.5158C6.95756 26.4895 7.00752 26.4592 7.05747 26.4309C7.08231 26.4163 7.10688 26.402 7.13116 26.3877C7.15545 26.3731 7.17864 26.3569 7.2021 26.3417C7.24846 26.3103 7.29455 26.2795 7.34037 26.2484C7.38481 26.2156 7.42869 26.1819 7.4723 26.1486L7.53799 26.0984C7.55924 26.0807 7.58021 26.0628 7.60147 26.0448C7.64369 26.0092 7.68647 25.9733 7.72953 25.9369C7.81205 25.8598 7.89954 25.7855 7.984 25.7006C8.07149 25.6192 8.15677 25.5287 8.24979 25.4362C8.29422 25.388 8.34031 25.3386 8.38834 25.2884C8.43636 25.2382 8.48245 25.1833 8.53269 25.1289C8.86775 24.7218 9.08965 24.3229 9.26325 23.9138L9.2961 23.8373C9.30686 23.8118 9.31597 23.7854 9.32618 23.7594C9.34605 23.7075 9.36565 23.6554 9.38552 23.6029C9.40319 23.5499 9.42085 23.4967 9.43879 23.4431C9.44762 23.4165 9.45673 23.3896 9.46584 23.3627C9.47357 23.3355 9.48157 23.308 9.4893 23.2805C9.50503 23.2253 9.52186 23.1701 9.53732 23.1137C9.5514 23.0571 9.56547 22.9996 9.57983 22.9416C9.59556 22.8838 9.60632 22.8241 9.61902 22.7638C9.63088 22.7036 9.64634 22.6427 9.65517 22.5796C9.63834 22.5353 9.62978 22.4723 9.62785 22.394H9.62702ZM7.96854 25.361C7.93653 25.393 7.90396 25.4255 7.86725 25.4558C7.82144 25.49 7.77838 25.5242 7.73808 25.5579C7.69668 25.5904 7.65722 25.6212 7.62023 25.6518C7.54765 25.7143 7.4792 25.7662 7.42096 25.8133C7.36328 25.8609 7.31001 25.8946 7.2664 25.9189C7.23577 25.9355 7.20899 25.9459 7.18581 25.9487C7.56945 25.7098 7.91693 25.4171 8.21777 25.0804C8.16864 25.1421 8.11703 25.2043 8.06073 25.2671C8.03092 25.2982 8.00001 25.3296 7.96799 25.3613L7.96854 25.361Z" fill="#2E2D2C"/>
<path d="M9.62702 39.394C9.62288 39.3158 9.62205 39.2222 9.62619 39.1173C9.62619 38.9073 9.63392 38.6511 9.61515 38.3808C9.59666 38.1111 9.55581 37.8285 9.48985 37.5737C9.42582 37.318 9.32977 37.0937 9.23538 36.9331C9.12746 36.7088 9.01872 36.5504 8.9591 36.4912C8.92874 36.4618 8.91163 36.4562 8.91191 36.4792C8.91191 36.5019 8.93068 36.5524 8.96462 36.639C8.8073 36.3441 8.74796 36.2344 8.70132 36.1318C8.67565 36.0822 8.65081 36.0357 8.61107 35.9737C8.59175 35.9423 8.56581 35.9092 8.53434 35.8697C8.50233 35.8307 8.46617 35.7842 8.41787 35.7332C8.47445 35.7679 8.52717 35.8069 8.58292 35.8445C8.55725 35.8052 8.53131 35.764 8.50453 35.7217C8.47693 35.6799 8.44685 35.6381 8.41566 35.5947C8.39965 35.5731 8.38337 35.5512 8.36709 35.5291C8.35025 35.5069 8.33148 35.4862 8.31244 35.4646C8.27435 35.4217 8.23405 35.3779 8.18907 35.3356L8.0679 35.2613C8.02761 35.2366 7.98814 35.212 7.94646 35.1901C7.83303 35.0645 7.71876 34.9658 7.60478 34.8814C7.54682 34.8405 7.49024 34.801 7.43255 34.7651C7.37404 34.7306 7.31553 34.6972 7.25674 34.6639C7.01745 34.5372 6.76712 34.425 6.43785 34.2736C6.64844 34.3827 6.59407 34.3706 6.49278 34.3404C6.39204 34.3073 6.23996 34.2677 6.2568 34.3C6.23306 34.2857 6.19028 34.2649 6.14115 34.2433C6.0912 34.2243 6.03545 34.2033 5.98715 34.1848C5.96286 34.1755 5.94078 34.1668 5.92174 34.1595C5.90269 34.1531 5.88751 34.1472 5.87758 34.1427C5.8577 34.1337 5.85936 34.1298 5.89662 34.1337C5.8232 34.1144 5.75006 34.0956 5.6772 34.0816C5.60406 34.0692 5.53175 34.0586 5.46082 34.0488C5.38933 34.0426 5.31923 34.0373 5.25106 34.0322C5.18289 34.0275 5.11582 34.0286 5.05151 34.0264C5.01922 34.0261 4.98776 34.0238 4.95657 34.0244C4.92538 34.0247 4.89474 34.025 4.86494 34.0252C4.83485 34.025 4.8056 34.0247 4.77689 34.0244C4.74819 34.0235 4.72004 34.0227 4.69271 34.0233C4.58286 34.0238 4.48351 34.0137 4.39574 34C4.32232 34.0157 4.24918 34.0278 4.17715 34.0482C4.08441 34.0698 3.99609 34.0838 3.91108 34.102C3.86858 34.1102 3.82663 34.1172 3.78495 34.1236C3.74355 34.1312 3.70243 34.1388 3.66158 34.1463C3.62046 34.1534 3.57989 34.1604 3.53904 34.1674C3.49847 34.1761 3.45817 34.1848 3.41732 34.1934C3.37647 34.2024 3.33535 34.2105 3.29395 34.2212C3.2531 34.2327 3.2117 34.2445 3.16975 34.2571L3.13525 34.3053C3.122 34.3109 3.1082 34.3171 3.09358 34.3232C3.07922 34.33 3.06432 34.337 3.04886 34.344C3.01795 34.3583 2.98483 34.3729 2.95061 34.3877C2.88106 34.4158 2.80902 34.4514 2.73588 34.4831C2.66246 34.5136 2.59236 34.5498 2.52667 34.5781C2.46071 34.6058 2.40303 34.6339 2.35555 34.6521C2.08756 34.7965 1.81377 35.0096 1.57282 35.2566C1.54191 35.2863 1.51293 35.3185 1.48395 35.3508C1.45525 35.3827 1.42627 35.4147 1.39756 35.4466C1.34153 35.5117 1.28909 35.5792 1.23583 35.6443C1.21789 35.669 1.20022 35.6931 1.18228 35.7172C0.875648 36.0732 0.620073 36.4761 0.427426 36.9137C0.440398 36.8644 0.491734 36.7346 0.54445 36.6208C0.562665 36.577 0.582813 36.5369 0.598821 36.503C0.614553 36.4691 0.626697 36.4413 0.631665 36.4251C0.641877 36.3926 0.624765 36.4052 0.556869 36.5019C0.451714 36.7346 0.349594 36.983 0.262931 37.2437C0.175439 37.5039 0.107819 37.7769 0.0628315 38.0511C0.0172917 38.3253 -0.00340826 38.6009 0.000455729 38.8644C0.00459571 39.0287 0.0186717 39.188 0.0413036 39.3391C0.0501355 39.4302 0.0614515 39.5202 0.0752514 39.6096C0.0498595 39.6562 0.0782874 39.9121 0.160811 40.2026C0.173231 40.2444 0.183167 40.2878 0.198347 40.3301C0.212975 40.3728 0.227879 40.4157 0.242507 40.4583C0.249959 40.4796 0.257411 40.5009 0.264863 40.5222C0.273419 40.5429 0.281699 40.5637 0.290255 40.5844C0.307091 40.6256 0.323926 40.666 0.34021 40.7055C0.355666 40.7454 0.374986 40.7824 0.391822 40.8185C0.408934 40.8544 0.425494 40.8892 0.441226 40.9217C0.47269 40.9867 0.504982 41.0414 0.528718 41.0865L0.518506 41.1216C0.53617 41.162 0.555765 41.1995 0.575361 41.2365C0.594957 41.2735 0.614277 41.31 0.633597 41.3464C0.673065 41.419 0.718605 41.4883 0.766077 41.564C0.868196 41.7103 0.989084 41.8766 1.18477 42.0737C1.40612 42.321 1.65176 42.5408 1.90236 42.7317C2.15297 42.9229 2.40634 43.0874 2.64618 43.2349C3.00277 43.4469 3.44354 43.5882 3.83353 43.6322C3.88238 43.6375 3.93013 43.6425 3.97677 43.6479C4.02342 43.6529 4.06951 43.6532 4.11394 43.6554C4.15838 43.6568 4.20143 43.6582 4.24311 43.6596C4.28479 43.6582 4.32481 43.6571 4.36345 43.656C4.40181 43.6543 4.43852 43.6526 4.47329 43.6512C4.49372 43.6498 4.51304 43.6479 4.53208 43.6456C4.59749 43.6484 4.6629 43.6501 4.72914 43.6501C5.04848 43.6501 5.36035 43.6176 5.66202 43.5562C5.65926 43.5573 5.65678 43.5584 5.65402 43.5596C5.66202 43.5573 5.6703 43.5554 5.6783 43.5531C5.79892 43.5282 5.91787 43.4982 6.03489 43.464C6.06912 43.4553 6.10307 43.4466 6.13757 43.4379L6.13122 43.4348C6.35561 43.3639 6.57282 43.2761 6.78175 43.1732C6.77678 43.1763 6.77154 43.1797 6.76657 43.1828L6.71689 43.2111L6.61698 43.2677C6.86179 43.1707 6.67411 43.2876 6.60952 43.3274C6.54715 43.351 6.49388 43.3684 6.44945 43.3855C6.40473 43.402 6.3683 43.4177 6.33629 43.4286C6.27308 43.4522 6.23251 43.4712 6.19608 43.4906C6.15992 43.5105 6.12653 43.5276 6.0785 43.5483C6.05449 43.5587 6.02662 43.5702 5.99239 43.5828C5.97528 43.589 5.95679 43.5957 5.93636 43.603C5.91566 43.6095 5.89303 43.6154 5.86847 43.6221C5.82265 43.6291 5.75669 43.6409 5.71004 43.6468C5.66285 43.6515 5.6347 43.6498 5.66478 43.6355C5.60627 43.6484 5.52319 43.6647 5.43073 43.677C5.38437 43.6821 5.33579 43.6874 5.28694 43.6927C5.26265 43.6953 5.23809 43.6978 5.2138 43.7006C5.18951 43.702 5.16522 43.7037 5.14149 43.7051C5.04654 43.7121 4.95822 43.7188 4.89254 43.7239C4.82685 43.73 4.78324 43.7395 4.778 43.7544C4.75702 43.7522 4.74929 43.7496 4.73025 43.7474C4.77054 43.7987 4.85969 43.8489 4.98776 43.8968C5.05151 43.9179 5.12493 43.938 5.20635 43.9568C5.24719 43.9672 5.2897 43.9734 5.33386 43.9804C5.37829 43.9874 5.42439 43.9938 5.47213 44C5.53865 43.9879 5.60323 43.9703 5.66616 43.9551C5.69762 43.947 5.72854 43.9392 5.75917 43.9313C5.78953 43.9218 5.81934 43.9125 5.8486 43.9033C5.90711 43.8839 5.96424 43.8666 6.01833 43.8458C6.07215 43.8242 6.12404 43.8029 6.17345 43.7816C6.45497 43.7166 6.6937 43.6238 6.90457 43.5158C6.95756 43.4895 7.00752 43.4592 7.05747 43.4309C7.08231 43.4163 7.10688 43.402 7.13116 43.3877C7.15545 43.3731 7.17864 43.3569 7.2021 43.3417C7.24846 43.3103 7.29455 43.2795 7.34037 43.2484C7.38481 43.2156 7.42869 43.1819 7.4723 43.1486L7.53799 43.0984C7.55924 43.0807 7.58021 43.0628 7.60147 43.0448C7.64369 43.0092 7.68647 42.9733 7.72953 42.9369C7.81205 42.8598 7.89954 42.7855 7.984 42.7006C8.07149 42.6192 8.15677 42.5287 8.24979 42.4362C8.29422 42.388 8.34031 42.3386 8.38834 42.2884C8.43636 42.2382 8.48245 42.1833 8.53269 42.1289C8.86775 41.7218 9.08965 41.3229 9.26325 40.9138L9.2961 40.8373C9.30686 40.8118 9.31597 40.7854 9.32618 40.7594C9.34605 40.7075 9.36565 40.6554 9.38552 40.6029C9.40319 40.5499 9.42085 40.4967 9.43879 40.4431C9.44762 40.4165 9.45673 40.3896 9.46584 40.3627C9.47357 40.3355 9.48157 40.308 9.4893 40.2805C9.50503 40.2253 9.52186 40.1701 9.53732 40.1137C9.5514 40.0571 9.56547 39.9996 9.57983 39.9416C9.59556 39.8838 9.60632 39.8241 9.61902 39.7638C9.63088 39.7036 9.64634 39.6427 9.65517 39.5796C9.63834 39.5353 9.62978 39.4723 9.62785 39.394H9.62702ZM7.96854 42.361C7.93653 42.393 7.90396 42.4255 7.86725 42.4558C7.82144 42.49 7.77838 42.5242 7.73808 42.5579C7.69668 42.5904 7.65722 42.6212 7.62023 42.6518C7.54765 42.7143 7.4792 42.7662 7.42096 42.8133C7.36328 42.8609 7.31001 42.8946 7.2664 42.9189C7.23577 42.9355 7.20899 42.9459 7.18581 42.9487C7.56945 42.7098 7.91693 42.4171 8.21777 42.0804C8.16864 42.1421 8.11703 42.2043 8.06073 42.2671C8.03092 42.2982 8.00001 42.3296 7.96799 42.3613L7.96854 42.361Z" fill="#2E2D2C"/>
</svg>
